<svg width="472" height="771" viewBox="0 0 472 771" fill="none" xmlns="http://www.w3.org/2000/svg">
<g clip-path="url(#clip0_87_4677)">
<rect width="472" height="771" rx="32" fill="#F5F5F5"/>
<line x1="75" y1="123.5" x2="420" y2="123.5" stroke="#898989" stroke-opacity="0.3"/>
<line x1="79" y1="723.5" x2="416" y2="723.5" stroke="#898989" stroke-opacity="0.3"/>
<path d="M75.0093 97H82.4093V84.3214H88.0579L94.8905 97H103.08L95.4825 83.1128C99.5525 81.3614 101.797 77.8095 101.797 72.9255C101.797 65.8462 97.1352 61.2829 89.0199 61.2829H75.0093V97ZM82.4093 78.3028V67.3509H87.6386C92.0292 67.3755 94.1752 69.3242 94.1505 72.9255C94.1752 76.5021 92.0292 78.3028 87.6386 78.3028H82.4093ZM105.497 89.5014C105.522 94.8047 109.296 97.518 114.426 97.4933C118.398 97.518 120.963 95.7667 122.27 93.3H122.468V97H129.374V78.9441C129.399 72.4815 123.874 69.8668 118.028 69.8668C110.924 69.8668 106.878 73.5175 106.434 78.1548H113.39C113.785 76.3295 115.339 75.2195 117.83 75.1948C120.568 75.2195 122.098 76.5021 122.122 78.7468V80.9174C120.988 80.9668 117.386 81.1394 115.462 81.2628C110.307 81.5834 105.522 83.5321 105.497 89.5014ZM112.502 89.3041C112.502 87.2321 114.106 86.0234 116.646 85.8014C117.88 85.7027 121.012 85.5301 122.122 85.4807V87.4294C122.147 90.266 119.828 92.4367 116.498 92.4614C114.155 92.4367 112.502 91.3514 112.502 89.3041ZM149.058 70.2122H144.026V63.7989H136.725V70.2122H133.025V75.6881H136.725V89.7974C136.676 95.002 140.277 97.37 145.556 97.3453C147.356 97.37 148.663 97.222 149.453 97.0987V91.3267C148.565 91.4007 147.282 91.4747 146.542 91.4747C145.062 91.4254 144.002 90.9074 144.026 88.7614V75.6881H149.058V70.2122ZM165.486 97.5427C172.097 97.518 176.537 94.3114 177.573 89.3534H170.617C169.901 90.9567 168.125 92.042 165.634 92.0667C161.86 92.042 159.467 89.5507 159.467 85.5054H177.77V83.4334C177.77 74.3068 172.22 69.8668 165.19 69.8668C157.346 69.8668 152.24 75.4661 152.265 83.7294C152.24 92.2147 157.272 97.518 165.486 97.5427ZM159.467 80.9174C159.615 77.8341 161.983 75.3181 165.338 75.3428C168.594 75.3181 170.839 77.6615 170.863 80.9174H159.467Z" fill="black"/>
<path d="M87.6047 198.646H91.6027C91.5471 195.092 88.6181 192.621 84.162 192.621C79.7615 192.621 76.5409 195.051 76.5548 198.702C76.5548 201.645 78.637 203.338 82.0242 204.171L84.2175 204.699C86.4109 205.24 87.6602 205.879 87.6602 207.253C87.6602 208.752 86.2443 209.779 84.051 209.779C81.8299 209.779 80.2196 208.752 80.0808 206.725H76.0273C76.1522 211.043 79.2478 213.292 84.1065 213.278C89.0068 213.292 91.8664 210.932 91.8803 207.253C91.8664 203.907 89.2983 202.158 85.8556 201.367L84.051 200.923C82.3157 200.534 80.8165 199.882 80.8304 198.424C80.8443 197.091 82.0242 196.12 84.1342 196.12C86.1749 196.12 87.4381 197.05 87.6047 198.646ZM102.458 197.924H99.6264V194.315H95.5174V197.924H93.4351V201.006H95.5174V208.947C95.4896 211.876 97.5163 213.208 100.487 213.194C101.5 213.208 102.236 213.125 102.68 213.056V209.807C102.181 209.849 101.459 209.89 101.042 209.89C100.209 209.863 99.6125 209.571 99.6264 208.363V201.006H102.458V197.924ZM104.318 208.78C104.332 211.765 106.456 213.292 109.344 213.278C111.579 213.292 113.022 212.306 113.758 210.918H113.869V213H117.756V202.838C117.77 199.201 114.66 197.73 111.37 197.73C107.372 197.73 105.096 199.784 104.846 202.394H108.761C108.983 201.367 109.857 200.742 111.259 200.728C112.8 200.742 113.661 201.464 113.675 202.727V203.949C113.036 203.977 111.009 204.074 109.927 204.143C107.025 204.324 104.332 205.421 104.318 208.78ZM108.261 208.669C108.261 207.503 109.163 206.823 110.593 206.698C111.287 206.642 113.05 206.545 113.675 206.517V207.614C113.689 209.21 112.384 210.432 110.51 210.446C109.191 210.432 108.261 209.821 108.261 208.669ZM128.834 197.924H126.002V194.315H121.893V197.924H119.811V201.006H121.893V208.947C121.865 211.876 123.892 213.208 126.863 213.194C127.876 213.208 128.612 213.125 129.056 213.056V209.807C128.556 209.849 127.834 209.89 127.418 209.89C126.585 209.863 125.988 209.571 126.002 208.363V201.006H128.834V197.924ZM138.079 213.305C141.799 213.292 144.298 211.487 144.881 208.697H140.966C140.564 209.599 139.564 210.21 138.162 210.224C136.038 210.21 134.692 208.808 134.692 206.531H144.992V205.365C144.992 200.229 141.869 197.73 137.912 197.73C133.498 197.73 130.625 200.881 130.638 205.532C130.625 210.307 133.456 213.292 138.079 213.305ZM134.692 203.949C134.775 202.214 136.108 200.798 137.996 200.812C139.828 200.798 141.091 202.117 141.105 203.949H134.692Z" fill="#898989"/>
<path d="M186.483 282.582C186.801 282.39 187.199 282.39 187.517 282.582L191.151 284.775C191.908 285.232 192.843 284.553 192.642 283.692L191.677 279.558C191.593 279.196 191.716 278.818 191.996 278.575L195.212 275.789C195.88 275.21 195.524 274.113 194.643 274.037L190.409 273.672C190.041 273.64 189.72 273.407 189.575 273.066L187.921 269.169C187.576 268.356 186.424 268.356 186.079 269.169L184.425 273.066C184.28 273.407 183.959 273.64 183.591 273.672L179.354 274.037C178.474 274.113 178.117 275.209 178.784 275.789L181.995 278.575C182.275 278.818 182.398 279.196 182.314 279.556L181.354 283.696C181.155 284.557 182.088 285.234 182.845 284.778L186.483 282.582Z" fill="#E1E1E1"/>
<path d="M218.483 282.582C218.801 282.39 219.199 282.39 219.517 282.582L223.151 284.775C223.908 285.232 224.843 284.553 224.642 283.692L223.677 279.558C223.593 279.196 223.716 278.818 223.996 278.575L227.212 275.789C227.88 275.21 227.524 274.113 226.643 274.037L222.409 273.672C222.041 273.64 221.72 273.407 221.575 273.066L219.921 269.169C219.576 268.356 218.424 268.356 218.079 269.169L216.425 273.066C216.28 273.407 215.959 273.64 215.591 273.672L211.354 274.037C210.474 274.113 210.117 275.209 210.784 275.789L213.995 278.575C214.275 278.818 214.398 279.196 214.314 279.556L213.354 283.696C213.155 284.557 214.088 285.234 214.845 284.778L218.483 282.582Z" fill="#E1E1E1"/>
<path d="M250.483 282.582C250.801 282.39 251.199 282.39 251.517 282.582L255.151 284.775C255.908 285.232 256.843 284.553 256.642 283.692L255.677 279.558C255.593 279.196 255.716 278.818 255.996 278.575L259.212 275.789C259.88 275.21 259.524 274.113 258.643 274.037L254.409 273.672C254.041 273.64 253.72 273.407 253.575 273.066L251.921 269.169C251.576 268.356 250.424 268.356 250.079 269.169L248.425 273.066C248.28 273.407 247.959 273.64 247.591 273.672L243.354 274.037C242.474 274.113 242.117 275.209 242.784 275.789L245.995 278.575C246.275 278.818 246.398 279.196 246.314 279.556L245.354 283.696C245.155 284.557 246.088 285.234 246.845 284.778L250.483 282.582Z" fill="#E1E1E1"/>
<path d="M282.483 282.582C282.801 282.39 283.199 282.39 283.517 282.582L287.151 284.775C287.908 285.232 288.843 284.553 288.642 283.692L287.677 279.558C287.593 279.196 287.716 278.818 287.996 278.575L291.212 275.789C291.88 275.21 291.524 274.113 290.643 274.037L286.409 273.672C286.041 273.64 285.72 273.407 285.575 273.066L283.921 269.169C283.576 268.356 282.424 268.356 282.079 269.169L280.425 273.066C280.28 273.407 279.959 273.64 279.591 273.672L275.354 274.037C274.474 274.113 274.117 275.209 274.784 275.789L277.995 278.575C278.275 278.818 278.398 279.196 278.314 279.556L277.354 283.696C277.155 284.557 278.088 285.234 278.845 284.778L282.483 282.582Z" fill="#E1E1E1"/>
<path d="M314.483 282.582C314.801 282.39 315.199 282.39 315.517 282.582L319.151 284.775C319.908 285.232 320.843 284.553 320.642 283.692L319.677 279.558C319.593 279.196 319.716 278.818 319.996 278.575L323.212 275.789C323.88 275.21 323.524 274.113 322.643 274.037L318.409 273.672C318.041 273.64 317.72 273.407 317.575 273.066L315.921 269.169C315.576 268.356 314.424 268.356 314.079 269.169L312.425 273.066C312.28 273.407 311.959 273.64 311.591 273.672L307.354 274.037C306.474 274.113 306.117 275.209 306.784 275.789L309.995 278.575C310.275 278.818 310.398 279.196 310.314 279.556L309.354 283.696C309.155 284.557 310.088 285.234 310.845 284.778L314.483 282.582Z" fill="#E1E1E1"/>
<path d="M186.483 354.582C186.801 354.39 187.199 354.39 187.517 354.582L191.151 356.775C191.908 357.232 192.843 356.553 192.642 355.692L191.677 351.558C191.593 351.196 191.716 350.818 191.996 350.575L195.212 347.789C195.88 347.21 195.524 346.113 194.643 346.037L190.409 345.672C190.041 345.64 189.72 345.407 189.575 345.066L187.921 341.169C187.576 340.356 186.424 340.356 186.079 341.169L184.425 345.066C184.28 345.407 183.959 345.64 183.591 345.672L179.354 346.037C178.474 346.113 178.117 347.209 178.784 347.789L181.995 350.575C182.275 350.818 182.398 351.196 182.314 351.556L181.354 355.696C181.155 356.557 182.088 357.234 182.845 356.778L186.483 354.582Z" fill="#0075FF"/>
<path d="M218.483 354.582C218.801 354.39 219.199 354.39 219.517 354.582L223.151 356.775C223.908 357.232 224.843 356.553 224.642 355.692L223.677 351.558C223.593 351.196 223.716 350.818 223.996 350.575L227.212 347.789C227.88 347.21 227.524 346.113 226.643 346.037L222.409 345.672C222.041 345.64 221.72 345.407 221.575 345.066L219.921 341.169C219.576 340.356 218.424 340.356 218.079 341.169L216.425 345.066C216.28 345.407 215.959 345.64 215.591 345.672L211.354 346.037C210.474 346.113 210.117 347.209 210.784 347.789L213.995 350.575C214.275 350.818 214.398 351.196 214.314 351.556L213.354 355.696C213.155 356.557 214.088 357.234 214.845 356.778L218.483 354.582Z" fill="#E1E1E1"/>
<path d="M250.483 354.582C250.801 354.39 251.199 354.39 251.517 354.582L255.151 356.775C255.908 357.232 256.843 356.553 256.642 355.692L255.677 351.558C255.593 351.196 255.716 350.818 255.996 350.575L259.212 347.789C259.88 347.21 259.524 346.113 258.643 346.037L254.409 345.672C254.041 345.64 253.72 345.407 253.575 345.066L251.921 341.169C251.576 340.356 250.424 340.356 250.079 341.169L248.425 345.066C248.28 345.407 247.959 345.64 247.591 345.672L243.354 346.037C242.474 346.113 242.117 347.209 242.784 347.789L245.995 350.575C246.275 350.818 246.398 351.196 246.314 351.556L245.354 355.696C245.155 356.557 246.088 357.234 246.845 356.778L250.483 354.582Z" fill="#E1E1E1"/>
<path d="M282.483 354.582C282.801 354.39 283.199 354.39 283.517 354.582L287.151 356.775C287.908 357.232 288.843 356.553 288.642 355.692L287.677 351.558C287.593 351.196 287.716 350.818 287.996 350.575L291.212 347.789C291.88 347.21 291.524 346.113 290.643 346.037L286.409 345.672C286.041 345.64 285.72 345.407 285.575 345.066L283.921 341.169C283.576 340.356 282.424 340.356 282.079 341.169L280.425 345.066C280.28 345.407 279.959 345.64 279.591 345.672L275.354 346.037C274.474 346.113 274.117 347.209 274.784 347.789L277.995 350.575C278.275 350.818 278.398 351.196 278.314 351.556L277.354 355.696C277.155 356.557 278.088 357.234 278.845 356.778L282.483 354.582Z" fill="#E1E1E1"/>
<path d="M314.483 354.582C314.801 354.39 315.199 354.39 315.517 354.582L319.151 356.775C319.908 357.232 320.843 356.553 320.642 355.692L319.677 351.558C319.593 351.196 319.716 350.818 319.996 350.575L323.212 347.789C323.88 347.21 323.524 346.113 322.643 346.037L318.409 345.672C318.041 345.64 317.72 345.407 317.575 345.066L315.921 341.169C315.576 340.356 314.424 340.356 314.079 341.169L312.425 345.066C312.28 345.407 311.959 345.64 311.591 345.672L307.354 346.037C306.474 346.113 306.117 347.209 306.784 347.789L309.995 350.575C310.275 350.818 310.398 351.196 310.314 351.556L309.354 355.696C309.155 356.557 310.088 357.234 310.845 356.778L314.483 354.582Z" fill="#E1E1E1"/>
<path d="M186.483 426.582C186.801 426.39 187.199 426.39 187.517 426.582L191.151 428.775C191.908 429.232 192.843 428.553 192.642 427.692L191.677 423.558C191.593 423.196 191.716 422.818 191.996 422.575L195.212 419.789C195.88 419.21 195.524 418.113 194.643 418.037L190.409 417.672C190.041 417.64 189.72 417.407 189.575 417.066L187.921 413.169C187.576 412.356 186.424 412.356 186.079 413.169L184.425 417.066C184.28 417.407 183.959 417.64 183.591 417.672L179.354 418.037C178.474 418.113 178.117 419.209 178.784 419.789L181.995 422.575C182.275 422.818 182.398 423.196 182.314 423.556L181.354 427.696C181.155 428.557 182.088 429.234 182.845 428.778L186.483 426.582Z" fill="#0075FF"/>
<path d="M218.483 426.582C218.801 426.39 219.199 426.39 219.517 426.582L223.151 428.775C223.908 429.232 224.843 428.553 224.642 427.692L223.677 423.558C223.593 423.196 223.716 422.818 223.996 422.575L227.212 419.789C227.88 419.21 227.524 418.113 226.643 418.037L222.409 417.672C222.041 417.64 221.72 417.407 221.575 417.066L219.921 413.169C219.576 412.356 218.424 412.356 218.079 413.169L216.425 417.066C216.28 417.407 215.959 417.64 215.591 417.672L211.354 418.037C210.474 418.113 210.117 419.209 210.784 419.789L213.995 422.575C214.275 422.818 214.398 423.196 214.314 423.556L213.354 427.696C213.155 428.557 214.088 429.234 214.845 428.778L218.483 426.582Z" fill="#0075FF"/>
<path d="M250.483 426.582C250.801 426.39 251.199 426.39 251.517 426.582L255.151 428.775C255.908 429.232 256.843 428.553 256.642 427.692L255.677 423.558C255.593 423.196 255.716 422.818 255.996 422.575L259.212 419.789C259.88 419.21 259.524 418.113 258.643 418.037L254.409 417.672C254.041 417.64 253.72 417.407 253.575 417.066L251.921 413.169C251.576 412.356 250.424 412.356 250.079 413.169L248.425 417.066C248.28 417.407 247.959 417.64 247.591 417.672L243.354 418.037C242.474 418.113 242.117 419.209 242.784 419.789L245.995 422.575C246.275 422.818 246.398 423.196 246.314 423.556L245.354 427.696C245.155 428.557 246.088 429.234 246.845 428.778L250.483 426.582Z" fill="#E1E1E1"/>
<path d="M282.483 426.582C282.801 426.39 283.199 426.39 283.517 426.582L287.151 428.775C287.908 429.232 288.843 428.553 288.642 427.692L287.677 423.558C287.593 423.196 287.716 422.818 287.996 422.575L291.212 419.789C291.88 419.21 291.524 418.113 290.643 418.037L286.409 417.672C286.041 417.64 285.72 417.407 285.575 417.066L283.921 413.169C283.576 412.356 282.424 412.356 282.079 413.169L280.425 417.066C280.28 417.407 279.959 417.64 279.591 417.672L275.354 418.037C274.474 418.113 274.117 419.209 274.784 419.789L277.995 422.575C278.275 422.818 278.398 423.196 278.314 423.556L277.354 427.696C277.155 428.557 278.088 429.234 278.845 428.778L282.483 426.582Z" fill="#E1E1E1"/>
<path d="M314.483 426.582C314.801 426.39 315.199 426.39 315.517 426.582L319.151 428.775C319.908 429.232 320.843 428.553 320.642 427.692L319.677 423.558C319.593 423.196 319.716 422.818 319.996 422.575L323.212 419.789C323.88 419.21 323.524 418.113 322.643 418.037L318.409 417.672C318.041 417.64 317.72 417.407 317.575 417.066L315.921 413.169C315.576 412.356 314.424 412.356 314.079 413.169L312.425 417.066C312.28 417.407 311.959 417.64 311.591 417.672L307.354 418.037C306.474 418.113 306.117 419.209 306.784 419.789L309.995 422.575C310.275 422.818 310.398 423.196 310.314 423.556L309.354 427.696C309.155 428.557 310.088 429.234 310.845 428.778L314.483 426.582Z" fill="#E1E1E1"/>
<path d="M186.483 498.582C186.801 498.39 187.199 498.39 187.517 498.582L191.151 500.775C191.908 501.232 192.843 500.553 192.642 499.692L191.677 495.558C191.593 495.196 191.716 494.818 191.996 494.575L195.212 491.789C195.88 491.21 195.524 490.113 194.643 490.037L190.409 489.672C190.041 489.64 189.72 489.407 189.575 489.066L187.921 485.169C187.576 484.356 186.424 484.356 186.079 485.169L184.425 489.066C184.28 489.407 183.959 489.64 183.591 489.672L179.354 490.037C178.474 490.113 178.117 491.209 178.784 491.789L181.995 494.575C182.275 494.818 182.398 495.196 182.314 495.556L181.354 499.696C181.155 500.557 182.088 501.234 182.845 500.778L186.483 498.582Z" fill="#0075FF"/>
<path d="M218.483 498.582C218.801 498.39 219.199 498.39 219.517 498.582L223.151 500.775C223.908 501.232 224.843 500.553 224.642 499.692L223.677 495.558C223.593 495.196 223.716 494.818 223.996 494.575L227.212 491.789C227.88 491.21 227.524 490.113 226.643 490.037L222.409 489.672C222.041 489.64 221.72 489.407 221.575 489.066L219.921 485.169C219.576 484.356 218.424 484.356 218.079 485.169L216.425 489.066C216.28 489.407 215.959 489.64 215.591 489.672L211.354 490.037C210.474 490.113 210.117 491.209 210.784 491.789L213.995 494.575C214.275 494.818 214.398 495.196 214.314 495.556L213.354 499.696C213.155 500.557 214.088 501.234 214.845 500.778L218.483 498.582Z" fill="#0075FF"/>
<path d="M250.483 498.582C250.801 498.39 251.199 498.39 251.517 498.582L255.151 500.775C255.908 501.232 256.843 500.553 256.642 499.692L255.677 495.558C255.593 495.196 255.716 494.818 255.996 494.575L259.212 491.789C259.88 491.21 259.524 490.113 258.643 490.037L254.409 489.672C254.041 489.64 253.72 489.407 253.575 489.066L251.921 485.169C251.576 484.356 250.424 484.356 250.079 485.169L248.425 489.066C248.28 489.407 247.959 489.64 247.591 489.672L243.354 490.037C242.474 490.113 242.117 491.209 242.784 491.789L245.995 494.575C246.275 494.818 246.398 495.196 246.314 495.556L245.354 499.696C245.155 500.557 246.088 501.234 246.845 500.778L250.483 498.582Z" fill="#0075FF"/>
<path d="M282.483 498.582C282.801 498.39 283.199 498.39 283.517 498.582L287.151 500.775C287.908 501.232 288.843 500.553 288.642 499.692L287.677 495.558C287.593 495.196 287.716 494.818 287.996 494.575L291.212 491.789C291.88 491.21 291.524 490.113 290.643 490.037L286.409 489.672C286.041 489.64 285.72 489.407 285.575 489.066L283.921 485.169C283.576 484.356 282.424 484.356 282.079 485.169L280.425 489.066C280.28 489.407 279.959 489.64 279.591 489.672L275.354 490.037C274.474 490.113 274.117 491.209 274.784 491.789L277.995 494.575C278.275 494.818 278.398 495.196 278.314 495.556L277.354 499.696C277.155 500.557 278.088 501.234 278.845 500.778L282.483 498.582Z" fill="#E1E1E1"/>
<path d="M314.483 498.582C314.801 498.39 315.199 498.39 315.517 498.582L319.151 500.775C319.908 501.232 320.843 500.553 320.642 499.692L319.677 495.558C319.593 495.196 319.716 494.818 319.996 494.575L323.212 491.789C323.88 491.21 323.524 490.113 322.643 490.037L318.409 489.672C318.041 489.64 317.72 489.407 317.575 489.066L315.921 485.169C315.576 484.356 314.424 484.356 314.079 485.169L312.425 489.066C312.28 489.407 311.959 489.64 311.591 489.672L307.354 490.037C306.474 490.113 306.117 491.209 306.784 491.789L309.995 494.575C310.275 494.818 310.398 495.196 310.314 495.556L309.354 499.696C309.155 500.557 310.088 501.234 310.845 500.778L314.483 498.582Z" fill="#E1E1E1"/>
<path d="M186.483 570.582C186.801 570.39 187.199 570.39 187.517 570.582L191.151 572.775C191.908 573.232 192.843 572.553 192.642 571.692L191.677 567.558C191.593 567.196 191.716 566.818 191.996 566.575L195.212 563.789C195.88 563.21 195.524 562.113 194.643 562.037L190.409 561.672C190.041 561.64 189.72 561.407 189.575 561.066L187.921 557.169C187.576 556.356 186.424 556.356 186.079 557.169L184.425 561.066C184.28 561.407 183.959 561.64 183.591 561.672L179.354 562.037C178.474 562.113 178.117 563.209 178.784 563.789L181.995 566.575C182.275 566.818 182.398 567.196 182.314 567.556L181.354 571.696C181.155 572.557 182.088 573.234 182.845 572.778L186.483 570.582Z" fill="#0075FF"/>
<path d="M218.483 570.582C218.801 570.39 219.199 570.39 219.517 570.582L223.151 572.775C223.908 573.232 224.843 572.553 224.642 571.692L223.677 567.558C223.593 567.196 223.716 566.818 223.996 566.575L227.212 563.789C227.88 563.21 227.524 562.113 226.643 562.037L222.409 561.672C222.041 561.64 221.72 561.407 221.575 561.066L219.921 557.169C219.576 556.356 218.424 556.356 218.079 557.169L216.425 561.066C216.28 561.407 215.959 561.64 215.591 561.672L211.354 562.037C210.474 562.113 210.117 563.209 210.784 563.789L213.995 566.575C214.275 566.818 214.398 567.196 214.314 567.556L213.354 571.696C213.155 572.557 214.088 573.234 214.845 572.778L218.483 570.582Z" fill="#0075FF"/>
<path d="M250.483 570.582C250.801 570.39 251.199 570.39 251.517 570.582L255.151 572.775C255.908 573.232 256.843 572.553 256.642 571.692L255.677 567.558C255.593 567.196 255.716 566.818 255.996 566.575L259.212 563.789C259.88 563.21 259.524 562.113 258.643 562.037L254.409 561.672C254.041 561.64 253.72 561.407 253.575 561.066L251.921 557.169C251.576 556.356 250.424 556.356 250.079 557.169L248.425 561.066C248.28 561.407 247.959 561.64 247.591 561.672L243.354 562.037C242.474 562.113 242.117 563.209 242.784 563.789L245.995 566.575C246.275 566.818 246.398 567.196 246.314 567.556L245.354 571.696C245.155 572.557 246.088 573.234 246.845 572.778L250.483 570.582Z" fill="#0075FF"/>
<path d="M282.483 570.582C282.801 570.39 283.199 570.39 283.517 570.582L287.151 572.775C287.908 573.232 288.843 572.553 288.642 571.692L287.677 567.558C287.593 567.196 287.716 566.818 287.996 566.575L291.212 563.789C291.88 563.21 291.524 562.113 290.643 562.037L286.409 561.672C286.041 561.64 285.72 561.407 285.575 561.066L283.921 557.169C283.576 556.356 282.424 556.356 282.079 557.169L280.425 561.066C280.28 561.407 279.959 561.64 279.591 561.672L275.354 562.037C274.474 562.113 274.117 563.209 274.784 563.789L277.995 566.575C278.275 566.818 278.398 567.196 278.314 567.556L277.354 571.696C277.155 572.557 278.088 573.234 278.845 572.778L282.483 570.582Z" fill="#0075FF"/>
<path d="M314.483 570.582C314.801 570.39 315.199 570.39 315.517 570.582L319.151 572.775C319.908 573.232 320.843 572.553 320.642 571.692L319.677 567.558C319.593 567.196 319.716 566.818 319.996 566.575L323.212 563.789C323.88 563.21 323.524 562.113 322.643 562.037L318.409 561.672C318.041 561.64 317.72 561.407 317.575 561.066L315.921 557.169C315.576 556.356 314.424 556.356 314.079 557.169L312.425 561.066C312.28 561.407 311.959 561.64 311.591 561.672L307.354 562.037C306.474 562.113 306.117 563.209 306.784 563.789L309.995 566.575C310.275 566.818 310.398 567.196 310.314 567.556L309.354 571.696C309.155 572.557 310.088 573.234 310.845 572.778L314.483 570.582Z" fill="#E1E1E1"/>
<path d="M186.483 642.582C186.801 642.39 187.199 642.39 187.517 642.582L191.151 644.775C191.908 645.232 192.843 644.553 192.642 643.692L191.677 639.558C191.593 639.196 191.716 638.818 191.996 638.575L195.212 635.789C195.88 635.21 195.524 634.113 194.643 634.037L190.409 633.672C190.041 633.64 189.72 633.407 189.575 633.066L187.921 629.169C187.576 628.356 186.424 628.356 186.079 629.169L184.425 633.066C184.28 633.407 183.959 633.64 183.591 633.672L179.354 634.037C178.474 634.113 178.117 635.209 178.784 635.789L181.995 638.575C182.275 638.818 182.398 639.196 182.314 639.556L181.354 643.696C181.155 644.557 182.088 645.234 182.845 644.778L186.483 642.582Z" fill="#0075FF"/>
<path d="M218.483 642.582C218.801 642.39 219.199 642.39 219.517 642.582L223.151 644.775C223.908 645.232 224.843 644.553 224.642 643.692L223.677 639.558C223.593 639.196 223.716 638.818 223.996 638.575L227.212 635.789C227.88 635.21 227.524 634.113 226.643 634.037L222.409 633.672C222.041 633.64 221.72 633.407 221.575 633.066L219.921 629.169C219.576 628.356 218.424 628.356 218.079 629.169L216.425 633.066C216.28 633.407 215.959 633.64 215.591 633.672L211.354 634.037C210.474 634.113 210.117 635.209 210.784 635.789L213.995 638.575C214.275 638.818 214.398 639.196 214.314 639.556L213.354 643.696C213.155 644.557 214.088 645.234 214.845 644.778L218.483 642.582Z" fill="#0075FF"/>
<path d="M250.483 642.582C250.801 642.39 251.199 642.39 251.517 642.582L255.151 644.775C255.908 645.232 256.843 644.553 256.642 643.692L255.677 639.558C255.593 639.196 255.716 638.818 255.996 638.575L259.212 635.789C259.88 635.21 259.524 634.113 258.643 634.037L254.409 633.672C254.041 633.64 253.72 633.407 253.575 633.066L251.921 629.169C251.576 628.356 250.424 628.356 250.079 629.169L248.425 633.066C248.28 633.407 247.959 633.64 247.591 633.672L243.354 634.037C242.474 634.113 242.117 635.209 242.784 635.789L245.995 638.575C246.275 638.818 246.398 639.196 246.314 639.556L245.354 643.696C245.155 644.557 246.088 645.234 246.845 644.778L250.483 642.582Z" fill="#0075FF"/>
<path d="M282.483 642.582C282.801 642.39 283.199 642.39 283.517 642.582L287.151 644.775C287.908 645.232 288.843 644.553 288.642 643.692L287.677 639.558C287.593 639.196 287.716 638.818 287.996 638.575L291.212 635.789C291.88 635.21 291.524 634.113 290.643 634.037L286.409 633.672C286.041 633.64 285.72 633.407 285.575 633.066L283.921 629.169C283.576 628.356 282.424 628.356 282.079 629.169L280.425 633.066C280.28 633.407 279.959 633.64 279.591 633.672L275.354 634.037C274.474 634.113 274.117 635.209 274.784 635.789L277.995 638.575C278.275 638.818 278.398 639.196 278.314 639.556L277.354 643.696C277.155 644.557 278.088 645.234 278.845 644.778L282.483 642.582Z" fill="#0075FF"/>
<path d="M314.483 642.582C314.801 642.39 315.199 642.39 315.517 642.582L319.151 644.775C319.908 645.232 320.843 644.553 320.642 643.692L319.677 639.558C319.593 639.196 319.716 638.818 319.996 638.575L323.212 635.789C323.88 635.21 323.524 634.113 322.643 634.037L318.409 633.672C318.041 633.64 317.72 633.407 317.575 633.066L315.921 629.169C315.576 628.356 314.424 628.356 314.079 629.169L312.425 633.066C312.28 633.407 311.959 633.64 311.591 633.672L307.354 634.037C306.474 634.113 306.117 635.209 306.784 635.789L309.995 638.575C310.275 638.818 310.398 639.196 310.314 639.556L309.354 643.696C309.155 644.557 310.088 645.234 310.845 644.778L314.483 642.582Z" fill="#0075FF"/>
<path d="M79.5469 282.172C81.4297 282.18 82.6797 281.016 82.8906 279.5H81.5469C81.3125 280.43 80.5469 280.969 79.5469 280.969C78.0078 280.969 77.0234 279.711 77.0156 277.75C77.0234 275.844 78.0312 274.594 79.5469 274.594C80.6797 274.594 81.3516 275.305 81.5469 276.078H82.8906C82.6797 274.477 81.3203 273.406 79.5156 273.406C77.2109 273.406 75.6719 275.219 75.6719 277.797C75.6719 280.344 77.1406 282.18 79.5469 282.172ZM88.0156 282.172C90.3203 282.18 91.8672 280.43 91.8594 277.797C91.8672 275.148 90.3203 273.406 88.0156 273.406C85.7031 273.406 84.1406 275.148 84.1406 277.797C84.1406 280.43 85.7031 282.18 88.0156 282.172ZM85.4844 277.797C85.4922 276.109 86.2891 274.594 88.0156 274.594C89.7266 274.594 90.5156 276.109 90.5156 277.797C90.5156 279.492 89.7266 280.984 88.0156 280.984C86.2891 280.984 85.4922 279.492 85.4844 277.797ZM98.9844 278.516C98.9766 280.102 97.7734 280.82 96.8125 280.812C95.7266 280.82 94.9688 280.031 94.9688 278.812V273.516H93.625V278.906C93.6172 281.062 94.7656 282.109 96.375 282.109C97.6484 282.109 98.4922 281.422 98.8906 280.562H98.9844V282H100.312V273.516H98.9844V278.516ZM103.812 276.906C103.812 275.438 104.719 274.609 105.953 274.609C107.156 274.609 107.875 275.391 107.875 276.703V282H109.219V276.609C109.227 274.453 108.078 273.406 106.359 273.406C105.07 273.406 104.273 273.977 103.875 274.844H103.766V273.516H102.469V282H103.812V276.906ZM115.078 273.516H113.297V271.484H111.938V273.516H110.656V274.641H111.938V279.906C111.945 281.406 113.133 282.109 114.266 282.109C114.664 282.109 114.992 282.078 115.203 282.047V280.797C115.008 280.805 114.648 280.828 114.406 280.828C113.836 280.828 113.289 280.648 113.297 279.562V274.641H115.078V273.516ZM124.516 282.156C127.023 282.156 128.469 280.047 128.469 276.344C128.469 272.672 127 270.531 124.516 270.531C122.023 270.531 120.555 272.672 120.562 276.344C120.555 280.047 122.008 282.156 124.516 282.156ZM121.922 276.344C121.93 273.414 122.891 271.758 124.516 271.75C126.141 271.758 127.102 273.414 127.094 276.344C127.102 279.273 126.148 280.906 124.516 280.906C122.875 280.906 121.93 279.273 121.922 276.344Z" fill="#6B6B6B"/>
<path d="M79.5469 356.172C81.4297 356.18 82.6797 355.016 82.8906 353.5H81.5469C81.3125 354.43 80.5469 354.969 79.5469 354.969C78.0078 354.969 77.0234 353.711 77.0156 351.75C77.0234 349.844 78.0312 348.594 79.5469 348.594C80.6797 348.594 81.3516 349.305 81.5469 350.078H82.8906C82.6797 348.477 81.3203 347.406 79.5156 347.406C77.2109 347.406 75.6719 349.219 75.6719 351.797C75.6719 354.344 77.1406 356.18 79.5469 356.172ZM88.0156 356.172C90.3203 356.18 91.8672 354.43 91.8594 351.797C91.8672 349.148 90.3203 347.406 88.0156 347.406C85.7031 347.406 84.1406 349.148 84.1406 351.797C84.1406 354.43 85.7031 356.18 88.0156 356.172ZM85.4844 351.797C85.4922 350.109 86.2891 348.594 88.0156 348.594C89.7266 348.594 90.5156 350.109 90.5156 351.797C90.5156 353.492 89.7266 354.984 88.0156 354.984C86.2891 354.984 85.4922 353.492 85.4844 351.797ZM98.9844 352.516C98.9766 354.102 97.7734 354.82 96.8125 354.812C95.7266 354.82 94.9688 354.031 94.9688 352.812V347.516H93.625V352.906C93.6172 355.062 94.7656 356.109 96.375 356.109C97.6484 356.109 98.4922 355.422 98.8906 354.562H98.9844V356H100.312V347.516H98.9844V352.516ZM103.812 350.906C103.812 349.438 104.719 348.609 105.953 348.609C107.156 348.609 107.875 349.391 107.875 350.703V356H109.219V350.609C109.227 348.453 108.078 347.406 106.359 347.406C105.07 347.406 104.273 347.977 103.875 348.844H103.766V347.516H102.469V356H103.812V350.906ZM115.078 347.516H113.297V345.484H111.938V347.516H110.656V348.641H111.938V353.906C111.945 355.406 113.133 356.109 114.266 356.109C114.664 356.109 114.992 356.078 115.203 356.047V354.797C115.008 354.805 114.648 354.828 114.406 354.828C113.836 354.828 113.289 354.648 113.297 353.562V348.641H115.078V347.516ZM124.812 344.688H123.391L120.578 346.562V347.984L123.328 346.156H123.391V356H124.812V344.688Z" fill="#6B6B6B"/>
<path d="M79.5469 428.172C81.4297 428.18 82.6797 427.016 82.8906 425.5H81.5469C81.3125 426.43 80.5469 426.969 79.5469 426.969C78.0078 426.969 77.0234 425.711 77.0156 423.75C77.0234 421.844 78.0312 420.594 79.5469 420.594C80.6797 420.594 81.3516 421.305 81.5469 422.078H82.8906C82.6797 420.477 81.3203 419.406 79.5156 419.406C77.2109 419.406 75.6719 421.219 75.6719 423.797C75.6719 426.344 77.1406 428.18 79.5469 428.172ZM88.0156 428.172C90.3203 428.18 91.8672 426.43 91.8594 423.797C91.8672 421.148 90.3203 419.406 88.0156 419.406C85.7031 419.406 84.1406 421.148 84.1406 423.797C84.1406 426.43 85.7031 428.18 88.0156 428.172ZM85.4844 423.797C85.4922 422.109 86.2891 420.594 88.0156 420.594C89.7266 420.594 90.5156 422.109 90.5156 423.797C90.5156 425.492 89.7266 426.984 88.0156 426.984C86.2891 426.984 85.4922 425.492 85.4844 423.797ZM98.9844 424.516C98.9766 426.102 97.7734 426.82 96.8125 426.812C95.7266 426.82 94.9688 426.031 94.9688 424.812V419.516H93.625V424.906C93.6172 427.062 94.7656 428.109 96.375 428.109C97.6484 428.109 98.4922 427.422 98.8906 426.562H98.9844V428H100.312V419.516H98.9844V424.516ZM103.812 422.906C103.812 421.438 104.719 420.609 105.953 420.609C107.156 420.609 107.875 421.391 107.875 422.703V428H109.219V422.609C109.227 420.453 108.078 419.406 106.359 419.406C105.07 419.406 104.273 419.977 103.875 420.844H103.766V419.516H102.469V428H103.812V422.906ZM115.078 419.516H113.297V417.484H111.938V419.516H110.656V420.641H111.938V425.906C111.945 427.406 113.133 428.109 114.266 428.109C114.664 428.109 114.992 428.078 115.203 428.047V426.797C115.008 426.805 114.648 426.828 114.406 426.828C113.836 426.828 113.289 426.648 113.297 425.562V420.641H115.078V419.516ZM120.812 428H128.156V426.75H122.766V426.656L125.359 423.984C127.359 421.922 127.945 420.938 127.953 419.672C127.945 417.914 126.492 416.531 124.438 416.531C122.391 416.531 120.844 417.875 120.859 419.875H122.188C122.195 418.609 123.039 417.758 124.391 417.75C125.664 417.758 126.633 418.508 126.641 419.672C126.633 420.719 125.992 421.484 124.656 422.906L120.797 426.969L120.812 428Z" fill="#6B6B6B"/>
<path d="M79.5469 500.172C81.4297 500.18 82.6797 499.016 82.8906 497.5H81.5469C81.3125 498.43 80.5469 498.969 79.5469 498.969C78.0078 498.969 77.0234 497.711 77.0156 495.75C77.0234 493.844 78.0312 492.594 79.5469 492.594C80.6797 492.594 81.3516 493.305 81.5469 494.078H82.8906C82.6797 492.477 81.3203 491.406 79.5156 491.406C77.2109 491.406 75.6719 493.219 75.6719 495.797C75.6719 498.344 77.1406 500.18 79.5469 500.172ZM88.0156 500.172C90.3203 500.18 91.8672 498.43 91.8594 495.797C91.8672 493.148 90.3203 491.406 88.0156 491.406C85.7031 491.406 84.1406 493.148 84.1406 495.797C84.1406 498.43 85.7031 500.18 88.0156 500.172ZM85.4844 495.797C85.4922 494.109 86.2891 492.594 88.0156 492.594C89.7266 492.594 90.5156 494.109 90.5156 495.797C90.5156 497.492 89.7266 498.984 88.0156 498.984C86.2891 498.984 85.4922 497.492 85.4844 495.797ZM98.9844 496.516C98.9766 498.102 97.7734 498.82 96.8125 498.812C95.7266 498.82 94.9688 498.031 94.9688 496.812V491.516H93.625V496.906C93.6172 499.062 94.7656 500.109 96.375 500.109C97.6484 500.109 98.4922 499.422 98.8906 498.562H98.9844V500H100.312V491.516H98.9844V496.516ZM103.812 494.906C103.812 493.438 104.719 492.609 105.953 492.609C107.156 492.609 107.875 493.391 107.875 494.703V500H109.219V494.609C109.227 492.453 108.078 491.406 106.359 491.406C105.07 491.406 104.273 491.977 103.875 492.844H103.766V491.516H102.469V500H103.812V494.906ZM115.078 491.516H113.297V489.484H111.938V491.516H110.656V492.641H111.938V497.906C111.945 499.406 113.133 500.109 114.266 500.109C114.664 500.109 114.992 500.078 115.203 500.047V498.797C115.008 498.805 114.648 498.828 114.406 498.828C113.836 498.828 113.289 498.648 113.297 497.562V492.641H115.078V491.516ZM124.719 500.156C126.977 500.156 128.664 498.781 128.656 496.922C128.664 495.484 127.773 494.43 126.297 494.203V494.125C127.484 493.789 128.234 492.852 128.219 491.562C128.234 489.945 126.922 488.531 124.766 488.531C122.758 488.531 121.086 489.734 121.016 491.531H122.375C122.438 490.422 123.539 489.758 124.75 489.75C126.039 489.758 126.867 490.508 126.859 491.641C126.867 492.805 125.906 493.578 124.531 493.578H123.609V494.812H124.531C126.289 494.82 127.273 495.688 127.281 496.922C127.273 498.102 126.195 498.906 124.703 498.906C123.352 498.906 122.281 498.234 122.203 497.156H120.781C120.852 498.953 122.469 500.156 124.719 500.156Z" fill="#6B6B6B"/>
<path d="M82.5469 572.172C84.4297 572.18 85.6797 571.016 85.8906 569.5H84.5469C84.3125 570.43 83.5469 570.969 82.5469 570.969C81.0078 570.969 80.0234 569.711 80.0156 567.75C80.0234 565.844 81.0312 564.594 82.5469 564.594C83.6797 564.594 84.3516 565.305 84.5469 566.078H85.8906C85.6797 564.477 84.3203 563.406 82.5156 563.406C80.2109 563.406 78.6719 565.219 78.6719 567.797C78.6719 570.344 80.1406 572.18 82.5469 572.172ZM91.0156 572.172C93.3203 572.18 94.8672 570.43 94.8594 567.797C94.8672 565.148 93.3203 563.406 91.0156 563.406C88.7031 563.406 87.1406 565.148 87.1406 567.797C87.1406 570.43 88.7031 572.18 91.0156 572.172ZM88.4844 567.797C88.4922 566.109 89.2891 564.594 91.0156 564.594C92.7266 564.594 93.5156 566.109 93.5156 567.797C93.5156 569.492 92.7266 570.984 91.0156 570.984C89.2891 570.984 88.4922 569.492 88.4844 567.797ZM101.984 568.516C101.977 570.102 100.773 570.82 99.8125 570.812C98.7266 570.82 97.9688 570.031 97.9688 568.812V563.516H96.625V568.906C96.6172 571.062 97.7656 572.109 99.375 572.109C100.648 572.109 101.492 571.422 101.891 570.562H101.984V572H103.312V563.516H101.984V568.516ZM106.812 566.906C106.812 565.438 107.719 564.609 108.953 564.609C110.156 564.609 110.875 565.391 110.875 566.703V572H112.219V566.609C112.227 564.453 111.078 563.406 109.359 563.406C108.07 563.406 107.273 563.977 106.875 564.844H106.766V563.516H105.469V572H106.812V566.906ZM118.078 563.516H116.297V561.484H114.938V563.516H113.656V564.641H114.938V569.906C114.945 571.406 116.133 572.109 117.266 572.109C117.664 572.109 117.992 572.078 118.203 572.047V570.797C118.008 570.805 117.648 570.828 117.406 570.828C116.836 570.828 116.289 570.648 116.297 569.562V564.641H118.078V563.516ZM123.531 569.688H129.016V572H130.359V569.688H131.938V568.453H130.359V560.688H128.625L123.531 568.531V569.688ZM125.047 568.453V568.359L128.875 562.469H129.016V568.453H125.047Z" fill="#6B6B6B"/>
<path d="M79.5469 644.172C81.4297 644.18 82.6797 643.016 82.8906 641.5H81.5469C81.3125 642.43 80.5469 642.969 79.5469 642.969C78.0078 642.969 77.0234 641.711 77.0156 639.75C77.0234 637.844 78.0312 636.594 79.5469 636.594C80.6797 636.594 81.3516 637.305 81.5469 638.078H82.8906C82.6797 636.477 81.3203 635.406 79.5156 635.406C77.2109 635.406 75.6719 637.219 75.6719 639.797C75.6719 642.344 77.1406 644.18 79.5469 644.172ZM88.0156 644.172C90.3203 644.18 91.8672 642.43 91.8594 639.797C91.8672 637.148 90.3203 635.406 88.0156 635.406C85.7031 635.406 84.1406 637.148 84.1406 639.797C84.1406 642.43 85.7031 644.18 88.0156 644.172ZM85.4844 639.797C85.4922 638.109 86.2891 636.594 88.0156 636.594C89.7266 636.594 90.5156 638.109 90.5156 639.797C90.5156 641.492 89.7266 642.984 88.0156 642.984C86.2891 642.984 85.4922 641.492 85.4844 639.797ZM98.9844 640.516C98.9766 642.102 97.7734 642.82 96.8125 642.812C95.7266 642.82 94.9688 642.031 94.9688 640.812V635.516H93.625V640.906C93.6172 643.062 94.7656 644.109 96.375 644.109C97.6484 644.109 98.4922 643.422 98.8906 642.562H98.9844V644H100.312V635.516H98.9844V640.516ZM103.812 638.906C103.812 637.438 104.719 636.609 105.953 636.609C107.156 636.609 107.875 637.391 107.875 638.703V644H109.219V638.609C109.227 636.453 108.078 635.406 106.359 635.406C105.07 635.406 104.273 635.977 103.875 636.844H103.766V635.516H102.469V644H103.812V638.906ZM115.078 635.516H113.297V633.484H111.938V635.516H110.656V636.641H111.938V641.906C111.945 643.406 113.133 644.109 114.266 644.109C114.664 644.109 114.992 644.078 115.203 644.047V642.797C115.008 642.805 114.648 642.828 114.406 642.828C113.836 642.828 113.289 642.648 113.297 641.562V636.641H115.078V635.516ZM124.5 644.156C126.758 644.156 128.398 642.578 128.406 640.391C128.398 638.188 126.812 636.594 124.656 636.594C123.859 636.594 123.102 636.859 122.594 637.25H122.484L122.906 633.938H127.859V632.688H121.734L120.938 638.875H122.297C122.711 638.141 123.453 637.844 124.406 637.859C125.93 637.867 127.031 638.953 127.031 640.422C127.031 641.844 125.969 642.914 124.5 642.922C123.273 642.914 122.289 642.164 122.188 641.156H120.828C120.914 642.898 122.461 644.156 124.5 644.156Z" fill="#6B6B6B"/>
</g>
<defs>
<clipPath id="clip0_87_4677">
<rect width="472" height="771" rx="32" fill="white"/>
</clipPath>
</defs>
</svg>
