<svg width="1624" height="1358" viewBox="0 0 1624 1358" fill="none" xmlns="http://www.w3.org/2000/svg">
<rect width="1624" height="1358" rx="32" fill="#F5F5F5"/>
<line x1="75" y1="123.5" x2="1554" y2="123.5" stroke="#898989" stroke-opacity="0.3"/>
<line x1="94" y1="1272.5" x2="1536" y2="1272.5" stroke="#898989" stroke-opacity="0.3"/>
<path d="M82.4093 61.2829H75.0093V97H82.4093V61.2829ZM95.5812 81.5094C95.5812 77.9821 97.6778 75.9348 100.712 75.9348C103.746 75.9348 105.522 77.9081 105.546 81.2134V97H112.798V79.9308C112.823 73.6902 109.172 69.8668 103.573 69.8668C99.6018 69.8668 96.7405 71.8155 95.5318 74.8988H95.2358V70.2122H88.2799V97H95.5812V81.5094ZM118.472 107.064H125.773V92.708H125.97C127.006 94.928 129.251 97.444 133.617 97.444C139.734 97.444 144.495 92.5847 144.47 83.6308C144.495 74.4548 139.537 69.8668 133.617 69.8668C129.103 69.8668 126.982 72.5308 125.97 74.7015H125.674V70.2122H118.472V107.064ZM125.625 83.5814C125.6 78.7715 127.648 75.6881 131.298 75.6881C135.072 75.6881 137.046 78.9195 137.021 83.5814C137.046 88.3174 135.023 91.598 131.298 91.6227C127.672 91.598 125.6 88.4161 125.625 83.5814ZM166.374 85.6041C166.374 89.2547 163.858 91.154 161.194 91.1787C158.333 91.154 156.507 89.1807 156.507 85.9987V70.2122H149.206V87.2814C149.206 93.5467 152.881 97.3453 158.234 97.3453C162.279 97.3453 165.165 95.2733 166.374 92.1654H166.67V97H173.675V70.2122H166.374V85.6041ZM193.458 70.2122H188.426V63.7989H181.125V70.2122H177.425V75.6881H181.125V89.7974C181.075 95.002 184.677 97.37 189.955 97.3453C191.756 97.37 193.063 97.222 193.853 97.0987V91.3267C192.965 91.4007 191.682 91.4747 190.942 91.4747C189.462 91.4254 188.401 90.9074 188.426 88.7614V75.6881H193.458V70.2122Z" fill="black"/>
<path d="M77.4219 281.688H76.0781V293H77.4219V281.688ZM79.1562 290.594C79.1562 292.25 80.4375 293.195 82.0469 293.203C83.5234 293.195 84.2969 292.414 84.5781 291.844H84.6406V293H85.9688V287.406C85.9766 284.734 83.8906 284.406 82.7812 284.406C80.9062 284.406 79.5781 285.352 79.4062 286.719H80.8125C81 286.07 81.6484 285.578 82.7188 285.578C84 285.578 84.6406 286.203 84.6406 287.281V287.969C84.2578 287.977 82.8906 288.055 82.3438 288.094C80.875 288.203 79.1562 288.648 79.1562 290.594ZM80.5 290.656C80.5078 289.727 81.2812 289.297 82.5 289.219C82.9062 289.195 84.2422 289.094 84.6406 289.07V289.922C84.6406 290.992 83.7969 292.008 82.2812 292C81.25 292.008 80.5078 291.555 80.5 290.656ZM88.2969 293H89.5938V291.703H89.75C90.0391 292.172 90.5938 293.18 92.2188 293.172C94.3281 293.18 95.8203 291.477 95.8281 288.781C95.8203 286.094 94.3281 284.406 92.2031 284.406C90.5469 284.406 90.0391 285.406 89.75 285.859H89.6406V281.688H88.2969V293ZM89.6094 288.75C89.6094 286.867 90.4531 285.609 92.0156 285.609C93.6562 285.609 94.4609 286.977 94.4688 288.75C94.4609 290.555 93.6328 291.969 92.0156 291.969C90.4688 291.969 89.6094 290.656 89.6094 288.75ZM101.141 293.172C102.891 293.18 104.148 292.305 104.547 291.016H103.109C102.797 291.539 102.156 291.984 101.141 291.984C99.6328 291.984 98.5859 291 98.5156 289.203H104.672V288.641C104.68 285.5 102.797 284.406 101.016 284.406C98.7109 284.406 97.1719 286.219 97.1719 288.828C97.1719 291.43 98.6875 293.18 101.141 293.172ZM98.5234 288.062C98.6172 286.75 99.5469 285.594 101.016 285.594C102.414 285.594 103.305 286.648 103.312 288.062H98.5234ZM107.766 281.688H106.422V293H107.766V281.688Z" fill="#6B6B6B"/>
<rect x="76" y="321" width="498" height="64" rx="11" fill="white"/>
<path d="M108.078 362.188H109.422V357.703H109.531C109.82 358.172 110.383 359.18 112 359.172C114.117 359.18 115.594 357.477 115.594 354.781C115.594 352.094 114.117 350.406 111.984 350.406C110.336 350.406 109.82 351.406 109.531 351.859H109.375V350.516H108.078V362.188ZM109.391 354.75C109.398 352.867 110.227 351.609 111.812 351.609C113.445 351.609 114.25 352.977 114.25 354.75C114.25 356.555 113.422 357.969 111.812 357.969C110.25 357.969 109.398 356.656 109.391 354.75ZM118.688 347.688H117.344V359H118.688V347.688ZM120.422 356.594C120.422 358.25 121.703 359.195 123.312 359.203C124.789 359.195 125.562 358.414 125.844 357.844H125.906V359H127.234V353.406C127.242 350.734 125.156 350.406 124.047 350.406C122.172 350.406 120.844 351.352 120.672 352.719H122.078C122.266 352.07 122.914 351.578 123.984 351.578C125.266 351.578 125.906 352.203 125.906 353.281V353.969C125.523 353.977 124.156 354.055 123.609 354.094C122.141 354.203 120.422 354.648 120.422 356.594ZM121.766 356.656C121.773 355.727 122.547 355.297 123.766 355.219C124.172 355.195 125.508 355.094 125.906 355.07V355.922C125.906 356.992 125.062 358.008 123.547 358C122.516 358.008 121.773 357.555 121.766 356.656ZM132.859 359.172C134.742 359.18 135.992 358.016 136.203 356.5H134.859C134.625 357.43 133.859 357.969 132.859 357.969C131.32 357.969 130.336 356.711 130.328 354.75C130.336 352.844 131.344 351.594 132.859 351.594C133.992 351.594 134.664 352.305 134.859 353.078H136.203C135.992 351.477 134.633 350.406 132.828 350.406C130.523 350.406 128.984 352.219 128.984 354.797C128.984 357.344 130.453 359.18 132.859 359.172ZM141.422 359.172C143.172 359.18 144.43 358.305 144.828 357.016H143.391C143.078 357.539 142.438 357.984 141.422 357.984C139.914 357.984 138.867 357 138.797 355.203H144.953V354.641C144.961 351.5 143.078 350.406 141.297 350.406C138.992 350.406 137.453 352.219 137.453 354.828C137.453 357.43 138.969 359.18 141.422 359.172ZM138.805 354.062C138.898 352.75 139.828 351.594 141.297 351.594C142.695 351.594 143.586 352.648 143.594 354.062H138.805ZM148.047 353.906C148.047 352.438 148.984 351.609 150.25 351.609C151.469 351.609 152.203 352.367 152.203 353.703V359H153.547V353.609C153.547 351.43 152.391 350.406 150.656 350.406C149.312 350.406 148.555 350.969 148.156 351.844H148.047V347.688H146.703V359H148.047V353.906ZM159.172 359.172C161.477 359.18 163.023 357.43 163.016 354.797C163.023 352.148 161.477 350.406 159.172 350.406C156.859 350.406 155.297 352.148 155.297 354.797C155.297 357.43 156.859 359.18 159.172 359.172ZM156.641 354.797C156.648 353.109 157.445 351.594 159.172 351.594C160.883 351.594 161.672 353.109 161.672 354.797C161.672 356.492 160.883 357.984 159.172 357.984C157.445 357.984 156.648 356.492 156.641 354.797ZM166.125 347.688H164.781V359H166.125V347.688ZM171.469 359.172C173.086 359.18 173.641 358.172 173.938 357.703H174.078V359H175.391V347.688H174.031V351.859H173.938C173.648 351.406 173.133 350.406 171.484 350.406C169.352 350.406 167.859 352.094 167.859 354.781C167.859 357.477 169.352 359.18 171.469 359.172ZM169.219 354.75C169.219 352.977 170.023 351.609 171.656 351.609C173.234 351.609 174.07 352.867 174.078 354.75C174.07 356.656 173.211 357.969 171.656 357.969C170.047 357.969 169.219 356.555 169.219 354.75ZM181.281 359.172C183.031 359.18 184.289 358.305 184.688 357.016H183.25C182.938 357.539 182.297 357.984 181.281 357.984C179.773 357.984 178.727 357 178.656 355.203H184.812V354.641C184.82 351.5 182.938 350.406 181.156 350.406C178.852 350.406 177.312 352.219 177.312 354.828C177.312 357.43 178.828 359.18 181.281 359.172ZM178.664 354.062C178.758 352.75 179.688 351.594 181.156 351.594C182.555 351.594 183.445 352.648 183.453 354.062H178.664ZM186.562 359H187.906V353.656C187.906 352.516 188.812 351.672 190.031 351.672C190.383 351.672 190.742 351.742 190.844 351.766V350.406C190.688 350.391 190.344 350.383 190.141 350.375C189.141 350.383 188.258 350.953 187.953 351.812H187.859V350.516H186.562V359Z" fill="#A6A6A6"/>
<rect x="76" y="321" width="498" height="64" rx="11" stroke="#898989" stroke-width="2"/>
<path d="M1042.95 297.688H1040.95V309H1042.95V297.688ZM1044.47 306.609C1044.47 308.289 1045.7 309.172 1047.31 309.172C1048.65 309.172 1049.44 308.547 1049.81 307.828H1049.88V309H1051.78V303.328C1051.78 301.07 1049.92 300.406 1048.31 300.406C1046.19 300.406 1044.89 301.492 1044.75 302.938H1046.67C1046.83 302.328 1047.38 301.922 1048.27 301.922C1049.26 301.922 1049.8 302.406 1049.8 303.25L1049.8 303.93C1049.43 303.945 1048.22 304 1047.62 304.047C1046.05 304.148 1044.47 304.703 1044.47 306.609ZM1046.39 306.594C1046.39 305.852 1046.99 305.453 1047.94 305.375C1048.34 305.344 1049.45 305.273 1049.8 305.258L1049.81 305.953C1049.81 306.906 1049.04 307.703 1047.83 307.703C1046.99 307.703 1046.39 307.328 1046.39 306.594ZM1053.75 309H1055.7V307.656H1055.83C1056.14 308.281 1056.8 309.148 1058.27 309.156C1060.26 309.148 1061.76 307.555 1061.77 304.766C1061.76 301.938 1060.21 300.406 1058.25 300.406C1056.75 300.406 1056.13 301.305 1055.83 301.906H1055.75V297.688H1053.75V309ZM1055.7 304.75C1055.7 303.102 1056.41 302.039 1057.7 302.031C1059.05 302.039 1059.73 303.172 1059.73 304.75C1059.73 306.352 1059.03 307.516 1057.7 307.516C1056.43 307.516 1055.7 306.406 1055.7 304.75ZM1067.09 309.172C1069.06 309.172 1070.42 308.203 1070.78 306.734H1068.83C1068.57 307.242 1067.98 307.617 1067.11 307.609C1065.82 307.617 1064.97 306.758 1064.94 305.312H1070.86V304.688C1070.86 301.711 1069.06 300.406 1066.98 300.406C1064.56 300.406 1062.97 302.188 1062.97 304.812C1062.97 307.469 1064.54 309.172 1067.09 309.172ZM1064.95 303.953C1065.02 302.875 1065.82 301.953 1067.02 301.953C1068.16 301.953 1068.95 302.797 1068.95 303.953H1064.95ZM1074.41 297.688H1072.41V309H1074.41V297.688Z" fill="#FF0000"/>
<rect x="1041" y="336" width="498" height="64" rx="11" fill="#E11900" fill-opacity="0.1"/>
<path d="M1073.08 377.188H1074.42V372.703H1074.53C1074.82 373.172 1075.38 374.18 1077 374.172C1079.12 374.18 1080.59 372.477 1080.59 369.781C1080.59 367.094 1079.12 365.406 1076.98 365.406C1075.34 365.406 1074.82 366.406 1074.53 366.859H1074.38V365.516H1073.08V377.188ZM1074.39 369.75C1074.4 367.867 1075.23 366.609 1076.81 366.609C1078.45 366.609 1079.25 367.977 1079.25 369.75C1079.25 371.555 1078.42 372.969 1076.81 372.969C1075.25 372.969 1074.4 371.656 1074.39 369.75ZM1083.69 362.688H1082.34V374H1083.69V362.688ZM1085.42 371.594C1085.42 373.25 1086.7 374.195 1088.31 374.203C1089.79 374.195 1090.56 373.414 1090.84 372.844H1090.91V374H1092.23V368.406C1092.24 365.734 1090.16 365.406 1089.05 365.406C1087.17 365.406 1085.84 366.352 1085.67 367.719H1087.08C1087.27 367.07 1087.91 366.578 1088.98 366.578C1090.27 366.578 1090.91 367.203 1090.91 368.281V368.969C1090.52 368.977 1089.16 369.055 1088.61 369.094C1087.14 369.203 1085.42 369.648 1085.42 371.594ZM1086.77 371.656C1086.77 370.727 1087.55 370.297 1088.77 370.219C1089.17 370.195 1090.51 370.094 1090.91 370.07V370.922C1090.91 371.992 1090.06 373.008 1088.55 373C1087.52 373.008 1086.77 372.555 1086.77 371.656ZM1097.86 374.172C1099.74 374.18 1100.99 373.016 1101.2 371.5H1099.86C1099.62 372.43 1098.86 372.969 1097.86 372.969C1096.32 372.969 1095.34 371.711 1095.33 369.75C1095.34 367.844 1096.34 366.594 1097.86 366.594C1098.99 366.594 1099.66 367.305 1099.86 368.078H1101.2C1100.99 366.477 1099.63 365.406 1097.83 365.406C1095.52 365.406 1093.98 367.219 1093.98 369.797C1093.98 372.344 1095.45 374.18 1097.86 374.172ZM1106.42 374.172C1108.17 374.18 1109.43 373.305 1109.83 372.016H1108.39C1108.08 372.539 1107.44 372.984 1106.42 372.984C1104.91 372.984 1103.87 372 1103.8 370.203H1109.95V369.641C1109.96 366.5 1108.08 365.406 1106.3 365.406C1103.99 365.406 1102.45 367.219 1102.45 369.828C1102.45 372.43 1103.97 374.18 1106.42 374.172ZM1103.8 369.062C1103.9 367.75 1104.83 366.594 1106.3 366.594C1107.7 366.594 1108.59 367.648 1108.59 369.062H1103.8ZM1113.05 368.906C1113.05 367.438 1113.98 366.609 1115.25 366.609C1116.47 366.609 1117.2 367.367 1117.2 368.703V374H1118.55V368.609C1118.55 366.43 1117.39 365.406 1115.66 365.406C1114.31 365.406 1113.55 365.969 1113.16 366.844H1113.05V362.688H1111.7V374H1113.05V368.906ZM1124.17 374.172C1126.48 374.18 1128.02 372.43 1128.02 369.797C1128.02 367.148 1126.48 365.406 1124.17 365.406C1121.86 365.406 1120.3 367.148 1120.3 369.797C1120.3 372.43 1121.86 374.18 1124.17 374.172ZM1121.64 369.797C1121.65 368.109 1122.45 366.594 1124.17 366.594C1125.88 366.594 1126.67 368.109 1126.67 369.797C1126.67 371.492 1125.88 372.984 1124.17 372.984C1122.45 372.984 1121.65 371.492 1121.64 369.797ZM1131.12 362.688H1129.78V374H1131.12V362.688ZM1136.47 374.172C1138.09 374.18 1138.64 373.172 1138.94 372.703H1139.08V374H1140.39V362.688H1139.03V366.859H1138.94C1138.65 366.406 1138.13 365.406 1136.48 365.406C1134.35 365.406 1132.86 367.094 1132.86 369.781C1132.86 372.477 1134.35 374.18 1136.47 374.172ZM1134.22 369.75C1134.22 367.977 1135.02 366.609 1136.66 366.609C1138.23 366.609 1139.07 367.867 1139.08 369.75C1139.07 371.656 1138.21 372.969 1136.66 372.969C1135.05 372.969 1134.22 371.555 1134.22 369.75ZM1146.28 374.172C1148.03 374.18 1149.29 373.305 1149.69 372.016H1148.25C1147.94 372.539 1147.3 372.984 1146.28 372.984C1144.77 372.984 1143.73 372 1143.66 370.203H1149.81V369.641C1149.82 366.5 1147.94 365.406 1146.16 365.406C1143.85 365.406 1142.31 367.219 1142.31 369.828C1142.31 372.43 1143.83 374.18 1146.28 374.172ZM1143.66 369.062C1143.76 367.75 1144.69 366.594 1146.16 366.594C1147.55 366.594 1148.45 367.648 1148.45 369.062H1143.66ZM1151.56 374H1152.91V368.656C1152.91 367.516 1153.81 366.672 1155.03 366.672C1155.38 366.672 1155.74 366.742 1155.84 366.766V365.406C1155.69 365.391 1155.34 365.383 1155.14 365.375C1154.14 365.383 1153.26 365.953 1152.95 366.812H1152.86V365.516H1151.56V374Z" fill="#FF0000"/>
<rect x="1041" y="336" width="498" height="64" rx="11" stroke="#FF0000" stroke-width="2"/>
<path d="M1041.25 440H1048.19V438.75H1042.66V434.953H1047.75V433.719H1042.66V429.938H1048.11V428.688H1041.25V440ZM1050.16 440H1051.5V434.656C1051.5 433.516 1052.41 432.672 1053.62 432.672C1053.98 432.672 1054.34 432.742 1054.44 432.766V431.406C1054.28 431.391 1053.94 431.383 1053.73 431.375C1052.73 431.383 1051.85 431.953 1051.55 432.812H1051.45V431.516H1050.16V440ZM1055.75 440H1057.09V434.656C1057.09 433.516 1058 432.672 1059.22 432.672C1059.57 432.672 1059.93 432.742 1060.03 432.766V431.406C1059.88 431.391 1059.53 431.383 1059.33 431.375C1058.33 431.383 1057.45 431.953 1057.14 432.812H1057.05V431.516H1055.75V440ZM1064.53 440.172C1066.84 440.18 1068.38 438.43 1068.38 435.797C1068.38 433.148 1066.84 431.406 1064.53 431.406C1062.22 431.406 1060.66 433.148 1060.66 435.797C1060.66 438.43 1062.22 440.18 1064.53 440.172ZM1062 435.797C1062.01 434.109 1062.8 432.594 1064.53 432.594C1066.24 432.594 1067.03 434.109 1067.03 435.797C1067.03 437.492 1066.24 438.984 1064.53 438.984C1062.8 438.984 1062.01 437.492 1062 435.797ZM1070.14 440H1071.48V434.656C1071.48 433.516 1072.39 432.672 1073.61 432.672C1073.96 432.672 1074.32 432.742 1074.42 432.766V431.406C1074.27 431.391 1073.92 431.383 1073.72 431.375C1072.72 431.383 1071.84 431.953 1071.53 432.812H1071.44V431.516H1070.14V440ZM1079.92 428.688V440H1081.25V431.453H1081.34L1084.86 440H1086.11L1089.62 431.453H1089.73V440H1091.06V428.688H1089.38L1085.56 438H1085.42L1081.61 428.688H1079.92ZM1096.95 440.172C1098.7 440.18 1099.96 439.305 1100.36 438.016H1098.92C1098.61 438.539 1097.97 438.984 1096.95 438.984C1095.45 438.984 1094.4 438 1094.33 436.203H1100.48V435.641C1100.49 432.5 1098.61 431.406 1096.83 431.406C1094.52 431.406 1092.98 433.219 1092.98 435.828C1092.98 438.43 1094.5 440.18 1096.95 440.172ZM1094.34 435.062C1094.43 433.75 1095.36 432.594 1096.83 432.594C1098.23 432.594 1099.12 433.648 1099.12 435.062H1094.34ZM1106.95 433.719H1108.27C1108.09 432.344 1106.99 431.406 1105.23 431.406C1103.37 431.406 1102.09 432.453 1102.09 433.906C1102.09 435.039 1102.88 435.844 1104.36 436.188L1105.64 436.484C1106.6 436.711 1107.03 437.102 1107.03 437.703C1107.03 438.5 1106.27 439.008 1105.06 439C1103.99 439.008 1103.39 438.609 1103.23 437.781H1101.83C1102.05 439.328 1103.19 440.18 1105.09 440.172C1107.22 440.18 1108.41 439.094 1108.42 437.625C1108.41 436.445 1107.67 435.688 1106.16 435.328L1104.89 435.016C1103.9 434.773 1103.45 434.391 1103.44 433.828C1103.45 433.117 1104.19 432.555 1105.23 432.547C1106.23 432.555 1106.77 433.016 1106.95 433.719ZM1114.89 433.719H1116.2C1116.03 432.344 1114.93 431.406 1113.17 431.406C1111.3 431.406 1110.03 432.453 1110.03 433.906C1110.03 435.039 1110.82 435.844 1112.3 436.188L1113.58 436.484C1114.54 436.711 1114.97 437.102 1114.97 437.703C1114.97 438.5 1114.21 439.008 1113 439C1111.93 439.008 1111.33 438.609 1111.17 437.781H1109.77C1109.99 439.328 1111.12 440.18 1113.03 440.172C1115.16 440.18 1116.35 439.094 1116.36 437.625C1116.35 436.445 1115.61 435.688 1114.09 435.328L1112.83 435.016C1111.84 434.773 1111.38 434.391 1111.38 433.828C1111.38 433.117 1112.12 432.555 1113.17 432.547C1114.16 432.555 1114.7 433.016 1114.89 433.719ZM1117.7 437.594C1117.7 439.25 1118.98 440.195 1120.59 440.203C1122.07 440.195 1122.84 439.414 1123.12 438.844H1123.19V440H1124.52V434.406C1124.52 431.734 1122.44 431.406 1121.33 431.406C1119.45 431.406 1118.12 432.352 1117.95 433.719H1119.36C1119.55 433.07 1120.2 432.578 1121.27 432.578C1122.55 432.578 1123.19 433.203 1123.19 434.281V434.969C1122.8 434.977 1121.44 435.055 1120.89 435.094C1119.42 435.203 1117.7 435.648 1117.7 437.594ZM1119.05 437.656C1119.05 436.727 1119.83 436.297 1121.05 436.219C1121.45 436.195 1122.79 436.094 1123.19 436.07V436.922C1123.19 437.992 1122.34 439.008 1120.83 439C1119.8 439.008 1119.05 438.555 1119.05 437.656ZM1130.11 443.359C1132.18 443.359 1133.79 442.422 1133.8 440.234V431.516H1132.48V432.859H1132.38C1132.07 432.406 1131.54 431.406 1129.89 431.406C1127.76 431.406 1126.27 433.031 1126.27 435.641C1126.27 438.312 1127.81 439.867 1129.88 439.875C1131.52 439.867 1132.05 438.906 1132.34 438.438H1132.45V440.156C1132.45 441.555 1131.56 442.188 1130.11 442.188C1128.91 442.188 1128.1 441.758 1127.92 440.891H1126.52C1126.66 442.461 1128.05 443.359 1130.11 443.359ZM1127.62 435.688C1127.62 433.977 1128.43 432.609 1130.06 432.609C1131.64 432.609 1132.48 433.867 1132.48 435.688C1132.48 437.555 1131.62 438.672 1130.06 438.672C1128.45 438.672 1127.62 437.445 1127.62 435.688ZM1139.5 440.172C1141.25 440.18 1142.51 439.305 1142.91 438.016H1141.47C1141.16 438.539 1140.52 438.984 1139.5 438.984C1137.99 438.984 1136.95 438 1136.88 436.203H1143.03V435.641C1143.04 432.5 1141.16 431.406 1139.38 431.406C1137.07 431.406 1135.53 433.219 1135.53 435.828C1135.53 438.43 1137.05 440.18 1139.5 440.172ZM1136.88 435.062C1136.98 433.75 1137.91 432.594 1139.38 432.594C1140.77 432.594 1141.66 433.648 1141.67 435.062H1136.88Z" fill="#FF0000"/>
<path d="M77.9531 590.688H75.9531V602H77.9531V590.688ZM79.4688 599.609C79.4688 601.289 80.6953 602.172 82.3125 602.172C83.6484 602.172 84.4375 601.547 84.8125 600.828H84.875V602H86.7812V596.328C86.7812 594.07 84.9219 593.406 83.3125 593.406C81.1875 593.406 79.8906 594.492 79.75 595.938H81.6719C81.8281 595.328 82.375 594.922 83.2656 594.922C84.2578 594.922 84.7969 595.406 84.7969 596.25L84.8047 596.93C84.4297 596.945 83.2188 597 82.625 597.047C81.0547 597.148 79.4688 597.703 79.4688 599.609ZM81.3906 599.594C81.3906 598.852 81.9922 598.453 82.9375 598.375C83.3359 598.344 84.4453 598.273 84.8047 598.258L84.8125 598.953C84.8125 599.906 84.0391 600.703 82.8281 600.703C81.9922 600.703 81.3906 600.328 81.3906 599.594ZM88.75 602H90.7031V600.656H90.8281C91.1406 601.281 91.7969 602.148 93.2656 602.156C95.2578 602.148 96.7578 600.555 96.7656 597.766C96.7578 594.938 95.2109 593.406 93.25 593.406C91.75 593.406 91.1328 594.305 90.8281 594.906H90.75V590.688H88.75V602ZM90.7031 597.75C90.7031 596.102 91.4141 595.039 92.7031 595.031C94.0469 595.039 94.7266 596.172 94.7344 597.75C94.7266 599.352 94.0312 600.516 92.7031 600.516C91.4297 600.516 90.7031 599.406 90.7031 597.75ZM102.094 602.172C104.062 602.172 105.422 601.203 105.781 599.734H103.828C103.57 600.242 102.984 600.617 102.109 600.609C100.82 600.617 99.9688 599.758 99.9375 598.312H105.859V597.688C105.859 594.711 104.062 593.406 101.984 593.406C99.5625 593.406 97.9688 595.188 97.9688 597.812C97.9688 600.469 99.5391 602.172 102.094 602.172ZM99.9453 596.953C100.016 595.875 100.82 594.953 102.016 594.953C103.164 594.953 103.945 595.797 103.953 596.953H99.9453ZM109.406 590.688H107.406V602H109.406V590.688Z" fill="#FF0000"/>
<rect x="76" y="629" width="498" height="64" rx="11" fill="#FF0000" fill-opacity="0.1"/>
<path d="M108.078 670.188H109.422V665.703H109.531C109.82 666.172 110.383 667.18 112 667.172C114.117 667.18 115.594 665.477 115.594 662.781C115.594 660.094 114.117 658.406 111.984 658.406C110.336 658.406 109.82 659.406 109.531 659.859H109.375V658.516H108.078V670.188ZM109.391 662.75C109.398 660.867 110.227 659.609 111.812 659.609C113.445 659.609 114.25 660.977 114.25 662.75C114.25 664.555 113.422 665.969 111.812 665.969C110.25 665.969 109.398 664.656 109.391 662.75ZM118.688 655.688H117.344V667H118.688V655.688ZM120.422 664.594C120.422 666.25 121.703 667.195 123.312 667.203C124.789 667.195 125.562 666.414 125.844 665.844H125.906V667H127.234V661.406C127.242 658.734 125.156 658.406 124.047 658.406C122.172 658.406 120.844 659.352 120.672 660.719H122.078C122.266 660.07 122.914 659.578 123.984 659.578C125.266 659.578 125.906 660.203 125.906 661.281V661.969C125.523 661.977 124.156 662.055 123.609 662.094C122.141 662.203 120.422 662.648 120.422 664.594ZM121.766 664.656C121.773 663.727 122.547 663.297 123.766 663.219C124.172 663.195 125.508 663.094 125.906 663.07V663.922C125.906 664.992 125.062 666.008 123.547 666C122.516 666.008 121.773 665.555 121.766 664.656ZM132.859 667.172C134.742 667.18 135.992 666.016 136.203 664.5H134.859C134.625 665.43 133.859 665.969 132.859 665.969C131.32 665.969 130.336 664.711 130.328 662.75C130.336 660.844 131.344 659.594 132.859 659.594C133.992 659.594 134.664 660.305 134.859 661.078H136.203C135.992 659.477 134.633 658.406 132.828 658.406C130.523 658.406 128.984 660.219 128.984 662.797C128.984 665.344 130.453 667.18 132.859 667.172ZM141.422 667.172C143.172 667.18 144.43 666.305 144.828 665.016H143.391C143.078 665.539 142.438 665.984 141.422 665.984C139.914 665.984 138.867 665 138.797 663.203H144.953V662.641C144.961 659.5 143.078 658.406 141.297 658.406C138.992 658.406 137.453 660.219 137.453 662.828C137.453 665.43 138.969 667.18 141.422 667.172ZM138.805 662.062C138.898 660.75 139.828 659.594 141.297 659.594C142.695 659.594 143.586 660.648 143.594 662.062H138.805ZM148.047 661.906C148.047 660.438 148.984 659.609 150.25 659.609C151.469 659.609 152.203 660.367 152.203 661.703V667H153.547V661.609C153.547 659.43 152.391 658.406 150.656 658.406C149.312 658.406 148.555 658.969 148.156 659.844H148.047V655.688H146.703V667H148.047V661.906ZM159.172 667.172C161.477 667.18 163.023 665.43 163.016 662.797C163.023 660.148 161.477 658.406 159.172 658.406C156.859 658.406 155.297 660.148 155.297 662.797C155.297 665.43 156.859 667.18 159.172 667.172ZM156.641 662.797C156.648 661.109 157.445 659.594 159.172 659.594C160.883 659.594 161.672 661.109 161.672 662.797C161.672 664.492 160.883 665.984 159.172 665.984C157.445 665.984 156.648 664.492 156.641 662.797ZM166.125 655.688H164.781V667H166.125V655.688ZM171.469 667.172C173.086 667.18 173.641 666.172 173.938 665.703H174.078V667H175.391V655.688H174.031V659.859H173.938C173.648 659.406 173.133 658.406 171.484 658.406C169.352 658.406 167.859 660.094 167.859 662.781C167.859 665.477 169.352 667.18 171.469 667.172ZM169.219 662.75C169.219 660.977 170.023 659.609 171.656 659.609C173.234 659.609 174.07 660.867 174.078 662.75C174.07 664.656 173.211 665.969 171.656 665.969C170.047 665.969 169.219 664.555 169.219 662.75ZM181.281 667.172C183.031 667.18 184.289 666.305 184.688 665.016H183.25C182.938 665.539 182.297 665.984 181.281 665.984C179.773 665.984 178.727 665 178.656 663.203H184.812V662.641C184.82 659.5 182.938 658.406 181.156 658.406C178.852 658.406 177.312 660.219 177.312 662.828C177.312 665.43 178.828 667.18 181.281 667.172ZM178.664 662.062C178.758 660.75 179.688 659.594 181.156 659.594C182.555 659.594 183.445 660.648 183.453 662.062H178.664ZM186.562 667H187.906V661.656C187.906 660.516 188.812 659.672 190.031 659.672C190.383 659.672 190.742 659.742 190.844 659.766V658.406C190.688 658.391 190.344 658.383 190.141 658.375C189.141 658.383 188.258 658.953 187.953 659.812H187.859V658.516H186.562V667Z" fill="#FF0000"/>
<rect x="76" y="629" width="498" height="64" rx="11" stroke="#FF0000" stroke-width="2"/>
<path d="M80.2656 733H87.2031V731.75H81.6719V727.953H86.7656V726.719H81.6719V722.938H87.125V721.688H80.2656V733ZM89.1719 733H90.5156V727.656C90.5156 726.516 91.4219 725.672 92.6406 725.672C92.9922 725.672 93.3516 725.742 93.4531 725.766V724.406C93.2969 724.391 92.9531 724.383 92.75 724.375C91.75 724.383 90.8672 724.953 90.5625 725.812H90.4688V724.516H89.1719V733ZM94.7656 733H96.1094V727.656C96.1094 726.516 97.0156 725.672 98.2344 725.672C98.5859 725.672 98.9453 725.742 99.0469 725.766V724.406C98.8906 724.391 98.5469 724.383 98.3438 724.375C97.3438 724.383 96.4609 724.953 96.1562 725.812H96.0625V724.516H94.7656V733ZM103.547 733.172C105.852 733.18 107.398 731.43 107.391 728.797C107.398 726.148 105.852 724.406 103.547 724.406C101.234 724.406 99.6719 726.148 99.6719 728.797C99.6719 731.43 101.234 733.18 103.547 733.172ZM101.016 728.797C101.023 727.109 101.82 725.594 103.547 725.594C105.258 725.594 106.047 727.109 106.047 728.797C106.047 730.492 105.258 731.984 103.547 731.984C101.82 731.984 101.023 730.492 101.016 728.797ZM109.156 733H110.5V727.656C110.5 726.516 111.406 725.672 112.625 725.672C112.977 725.672 113.336 725.742 113.438 725.766V724.406C113.281 724.391 112.938 724.383 112.734 724.375C111.734 724.383 110.852 724.953 110.547 725.812H110.453V724.516H109.156V733ZM118.938 721.688V733H120.266V724.453H120.359L123.875 733H125.125L128.641 724.453H128.75V733H130.078V721.688H128.391L124.578 731H124.438L120.625 721.688H118.938ZM135.969 733.172C137.719 733.18 138.977 732.305 139.375 731.016H137.938C137.625 731.539 136.984 731.984 135.969 731.984C134.461 731.984 133.414 731 133.344 729.203H139.5V728.641C139.508 725.5 137.625 724.406 135.844 724.406C133.539 724.406 132 726.219 132 728.828C132 731.43 133.516 733.18 135.969 733.172ZM133.352 728.062C133.445 726.75 134.375 725.594 135.844 725.594C137.242 725.594 138.133 726.648 138.141 728.062H133.352ZM145.969 726.719H147.281C147.109 725.344 146.008 724.406 144.25 724.406C142.383 724.406 141.109 725.453 141.109 726.906C141.109 728.039 141.898 728.844 143.375 729.188L144.656 729.484C145.617 729.711 146.047 730.102 146.047 730.703C146.047 731.5 145.289 732.008 144.078 732C143.008 732.008 142.406 731.609 142.25 730.781H140.844C141.07 732.328 142.203 733.18 144.109 733.172C146.234 733.18 147.43 732.094 147.438 730.625C147.43 729.445 146.688 728.688 145.172 728.328L143.906 728.016C142.914 727.773 142.461 727.391 142.453 726.828C142.461 726.117 143.203 725.555 144.25 725.547C145.242 725.555 145.781 726.016 145.969 726.719ZM153.906 726.719H155.219C155.047 725.344 153.945 724.406 152.188 724.406C150.32 724.406 149.047 725.453 149.047 726.906C149.047 728.039 149.836 728.844 151.312 729.188L152.594 729.484C153.555 729.711 153.984 730.102 153.984 730.703C153.984 731.5 153.227 732.008 152.016 732C150.945 732.008 150.344 731.609 150.188 730.781H148.781C149.008 732.328 150.141 733.18 152.047 733.172C154.172 733.18 155.367 732.094 155.375 730.625C155.367 729.445 154.625 728.688 153.109 728.328L151.844 728.016C150.852 727.773 150.398 727.391 150.391 726.828C150.398 726.117 151.141 725.555 152.188 725.547C153.18 725.555 153.719 726.016 153.906 726.719ZM156.719 730.594C156.719 732.25 158 733.195 159.609 733.203C161.086 733.195 161.859 732.414 162.141 731.844H162.203V733H163.531V727.406C163.539 724.734 161.453 724.406 160.344 724.406C158.469 724.406 157.141 725.352 156.969 726.719H158.375C158.562 726.07 159.211 725.578 160.281 725.578C161.562 725.578 162.203 726.203 162.203 727.281V727.969C161.82 727.977 160.453 728.055 159.906 728.094C158.438 728.203 156.719 728.648 156.719 730.594ZM158.062 730.656C158.07 729.727 158.844 729.297 160.062 729.219C160.469 729.195 161.805 729.094 162.203 729.07V729.922C162.203 730.992 161.359 732.008 159.844 732C158.812 732.008 158.07 731.555 158.062 730.656ZM169.125 736.359C171.195 736.359 172.805 735.422 172.812 733.234V724.516H171.5V725.859H171.391C171.086 725.406 170.555 724.406 168.906 724.406C166.773 724.406 165.281 726.031 165.281 728.641C165.281 731.312 166.828 732.867 168.891 732.875C170.531 732.867 171.07 731.906 171.359 731.438H171.469V733.156C171.469 734.555 170.578 735.188 169.125 735.188C167.922 735.188 167.117 734.758 166.938 733.891H165.531C165.68 735.461 167.07 736.359 169.125 736.359ZM166.641 728.688C166.641 726.977 167.445 725.609 169.078 725.609C170.656 725.609 171.492 726.867 171.5 728.688C171.492 730.555 170.633 731.672 169.078 731.672C167.469 731.672 166.641 730.445 166.641 728.688ZM178.516 733.172C180.266 733.18 181.523 732.305 181.922 731.016H180.484C180.172 731.539 179.531 731.984 178.516 731.984C177.008 731.984 175.961 731 175.891 729.203H182.047V728.641C182.055 725.5 180.172 724.406 178.391 724.406C176.086 724.406 174.547 726.219 174.547 728.828C174.547 731.43 176.062 733.18 178.516 733.172ZM175.898 728.062C175.992 726.75 176.922 725.594 178.391 725.594C179.789 725.594 180.68 726.648 180.688 728.062H175.898Z" fill="#FF0000"/>
<path d="M77.9531 435.688H75.9531V447H77.9531V435.688ZM79.4688 444.609C79.4688 446.289 80.6953 447.172 82.3125 447.172C83.6484 447.172 84.4375 446.547 84.8125 445.828H84.875V447H86.7812V441.328C86.7812 439.07 84.9219 438.406 83.3125 438.406C81.1875 438.406 79.8906 439.492 79.75 440.938H81.6719C81.8281 440.328 82.375 439.922 83.2656 439.922C84.2578 439.922 84.7969 440.406 84.7969 441.25L84.8047 441.93C84.4297 441.945 83.2188 442 82.625 442.047C81.0547 442.148 79.4688 442.703 79.4688 444.609ZM81.3906 444.594C81.3906 443.852 81.9922 443.453 82.9375 443.375C83.3359 443.344 84.4453 443.273 84.8047 443.258L84.8125 443.953C84.8125 444.906 84.0391 445.703 82.8281 445.703C81.9922 445.703 81.3906 445.328 81.3906 444.594ZM88.75 447H90.7031V445.656H90.8281C91.1406 446.281 91.7969 447.148 93.2656 447.156C95.2578 447.148 96.7578 445.555 96.7656 442.766C96.7578 439.938 95.2109 438.406 93.25 438.406C91.75 438.406 91.1328 439.305 90.8281 439.906H90.75V435.688H88.75V447ZM90.7031 442.75C90.7031 441.102 91.4141 440.039 92.7031 440.031C94.0469 440.039 94.7266 441.172 94.7344 442.75C94.7266 444.352 94.0312 445.516 92.7031 445.516C91.4297 445.516 90.7031 444.406 90.7031 442.75ZM102.094 447.172C104.062 447.172 105.422 446.203 105.781 444.734H103.828C103.57 445.242 102.984 445.617 102.109 445.609C100.82 445.617 99.9688 444.758 99.9375 443.312H105.859V442.688C105.859 439.711 104.062 438.406 101.984 438.406C99.5625 438.406 97.9688 440.188 97.9688 442.812C97.9688 445.469 99.5391 447.172 102.094 447.172ZM99.9453 441.953C100.016 440.875 100.82 439.953 102.016 439.953C103.164 439.953 103.945 440.797 103.953 441.953H99.9453ZM109.406 435.688H107.406V447H109.406V435.688Z" fill="#276EF1"/>
<rect x="76" y="474" width="498" height="64" rx="11" fill="white"/>
<path d="M108.078 515.188H109.422V510.703H109.531C109.82 511.172 110.383 512.18 112 512.172C114.117 512.18 115.594 510.477 115.594 507.781C115.594 505.094 114.117 503.406 111.984 503.406C110.336 503.406 109.82 504.406 109.531 504.859H109.375V503.516H108.078V515.188ZM109.391 507.75C109.398 505.867 110.227 504.609 111.812 504.609C113.445 504.609 114.25 505.977 114.25 507.75C114.25 509.555 113.422 510.969 111.812 510.969C110.25 510.969 109.398 509.656 109.391 507.75ZM118.688 500.688H117.344V512H118.688V500.688ZM120.422 509.594C120.422 511.25 121.703 512.195 123.312 512.203C124.789 512.195 125.562 511.414 125.844 510.844H125.906V512H127.234V506.406C127.242 503.734 125.156 503.406 124.047 503.406C122.172 503.406 120.844 504.352 120.672 505.719H122.078C122.266 505.07 122.914 504.578 123.984 504.578C125.266 504.578 125.906 505.203 125.906 506.281V506.969C125.523 506.977 124.156 507.055 123.609 507.094C122.141 507.203 120.422 507.648 120.422 509.594ZM121.766 509.656C121.773 508.727 122.547 508.297 123.766 508.219C124.172 508.195 125.508 508.094 125.906 508.07V508.922C125.906 509.992 125.062 511.008 123.547 511C122.516 511.008 121.773 510.555 121.766 509.656ZM132.859 512.172C134.742 512.18 135.992 511.016 136.203 509.5H134.859C134.625 510.43 133.859 510.969 132.859 510.969C131.32 510.969 130.336 509.711 130.328 507.75C130.336 505.844 131.344 504.594 132.859 504.594C133.992 504.594 134.664 505.305 134.859 506.078H136.203C135.992 504.477 134.633 503.406 132.828 503.406C130.523 503.406 128.984 505.219 128.984 507.797C128.984 510.344 130.453 512.18 132.859 512.172ZM141.422 512.172C143.172 512.18 144.43 511.305 144.828 510.016H143.391C143.078 510.539 142.438 510.984 141.422 510.984C139.914 510.984 138.867 510 138.797 508.203H144.953V507.641C144.961 504.5 143.078 503.406 141.297 503.406C138.992 503.406 137.453 505.219 137.453 507.828C137.453 510.43 138.969 512.18 141.422 512.172ZM138.805 507.062C138.898 505.75 139.828 504.594 141.297 504.594C142.695 504.594 143.586 505.648 143.594 507.062H138.805ZM148.047 506.906C148.047 505.438 148.984 504.609 150.25 504.609C151.469 504.609 152.203 505.367 152.203 506.703V512H153.547V506.609C153.547 504.43 152.391 503.406 150.656 503.406C149.312 503.406 148.555 503.969 148.156 504.844H148.047V500.688H146.703V512H148.047V506.906ZM159.172 512.172C161.477 512.18 163.023 510.43 163.016 507.797C163.023 505.148 161.477 503.406 159.172 503.406C156.859 503.406 155.297 505.148 155.297 507.797C155.297 510.43 156.859 512.18 159.172 512.172ZM156.641 507.797C156.648 506.109 157.445 504.594 159.172 504.594C160.883 504.594 161.672 506.109 161.672 507.797C161.672 509.492 160.883 510.984 159.172 510.984C157.445 510.984 156.648 509.492 156.641 507.797ZM166.125 500.688H164.781V512H166.125V500.688ZM171.469 512.172C173.086 512.18 173.641 511.172 173.938 510.703H174.078V512H175.391V500.688H174.031V504.859H173.938C173.648 504.406 173.133 503.406 171.484 503.406C169.352 503.406 167.859 505.094 167.859 507.781C167.859 510.477 169.352 512.18 171.469 512.172ZM169.219 507.75C169.219 505.977 170.023 504.609 171.656 504.609C173.234 504.609 174.07 505.867 174.078 507.75C174.07 509.656 173.211 510.969 171.656 510.969C170.047 510.969 169.219 509.555 169.219 507.75ZM181.281 512.172C183.031 512.18 184.289 511.305 184.688 510.016H183.25C182.938 510.539 182.297 510.984 181.281 510.984C179.773 510.984 178.727 510 178.656 508.203H184.812V507.641C184.82 504.5 182.938 503.406 181.156 503.406C178.852 503.406 177.312 505.219 177.312 507.828C177.312 510.43 178.828 512.18 181.281 512.172ZM178.664 507.062C178.758 505.75 179.688 504.594 181.156 504.594C182.555 504.594 183.445 505.648 183.453 507.062H178.664ZM186.562 512H187.906V506.656C187.906 505.516 188.812 504.672 190.031 504.672C190.383 504.672 190.742 504.742 190.844 504.766V503.406C190.688 503.391 190.344 503.383 190.141 503.375C189.141 503.383 188.258 503.953 187.953 504.812H187.859V503.516H186.562V512Z" fill="#276EF1"/>
<rect x="76" y="474" width="498" height="64" rx="11" stroke="#276EF1" stroke-width="2"/>
<path d="M79.7145 576V564.364H87.5554V566.392H82.1747V569.165H87.152V571.193H82.1747V573.972H87.5781V576H79.7145ZM89.4659 576V567.273H91.8125V568.795H91.9034C92.0625 568.254 92.3295 567.845 92.7045 567.568C93.0795 567.288 93.5114 567.148 94 567.148C94.1212 567.148 94.2519 567.155 94.392 567.17C94.5322 567.186 94.6553 567.206 94.7614 567.233V569.381C94.6477 569.347 94.4905 569.316 94.2898 569.29C94.089 569.263 93.9053 569.25 93.7386 569.25C93.3826 569.25 93.0644 569.328 92.7841 569.483C92.5076 569.634 92.2879 569.847 92.125 570.119C91.9659 570.392 91.8864 570.706 91.8864 571.062V576H89.4659ZM96.0128 576V567.273H98.3594V568.795H98.4503C98.6094 568.254 98.8764 567.845 99.2514 567.568C99.6264 567.288 100.058 567.148 100.547 567.148C100.668 567.148 100.799 567.155 100.939 567.17C101.079 567.186 101.202 567.206 101.308 567.233V569.381C101.195 569.347 101.037 569.316 100.837 569.29C100.636 569.263 100.452 569.25 100.286 569.25C99.9295 569.25 99.6113 569.328 99.331 569.483C99.0545 569.634 98.8348 569.847 98.6719 570.119C98.5128 570.392 98.4332 570.706 98.4332 571.062V576H96.0128ZM106.097 576.17C105.214 576.17 104.451 575.983 103.807 575.608C103.167 575.229 102.672 574.703 102.324 574.028C101.975 573.35 101.801 572.564 101.801 571.67C101.801 570.769 101.975 569.981 102.324 569.307C102.672 568.629 103.167 568.102 103.807 567.727C104.451 567.348 105.214 567.159 106.097 567.159C106.979 567.159 107.741 567.348 108.381 567.727C109.025 568.102 109.521 568.629 109.869 569.307C110.218 569.981 110.392 570.769 110.392 571.67C110.392 572.564 110.218 573.35 109.869 574.028C109.521 574.703 109.025 575.229 108.381 575.608C107.741 575.983 106.979 576.17 106.097 576.17ZM106.108 574.295C106.509 574.295 106.845 574.182 107.114 573.955C107.383 573.723 107.585 573.409 107.722 573.011C107.862 572.614 107.932 572.161 107.932 571.653C107.932 571.146 107.862 570.693 107.722 570.295C107.585 569.898 107.383 569.583 107.114 569.352C106.845 569.121 106.509 569.006 106.108 569.006C105.703 569.006 105.362 569.121 105.085 569.352C104.813 569.583 104.606 569.898 104.466 570.295C104.33 570.693 104.261 571.146 104.261 571.653C104.261 572.161 104.33 572.614 104.466 573.011C104.606 573.409 104.813 573.723 105.085 573.955C105.362 574.182 105.703 574.295 106.108 574.295ZM111.966 576V567.273H114.312V568.795H114.403C114.563 568.254 114.83 567.845 115.205 567.568C115.58 567.288 116.011 567.148 116.5 567.148C116.621 567.148 116.752 567.155 116.892 567.17C117.032 567.186 117.155 567.206 117.261 567.233V569.381C117.148 569.347 116.991 569.316 116.79 569.29C116.589 569.263 116.405 569.25 116.239 569.25C115.883 569.25 115.564 569.328 115.284 569.483C115.008 569.634 114.788 569.847 114.625 570.119C114.466 570.392 114.386 570.706 114.386 571.062V576H111.966ZM122.261 564.364H125.295L128.5 572.182H128.636L131.841 564.364H134.875V576H132.489V568.426H132.392L129.381 575.943H127.756L124.744 568.398H124.648V576H122.261V564.364ZM140.834 576.17C139.936 576.17 139.163 575.989 138.516 575.625C137.872 575.258 137.375 574.739 137.027 574.068C136.679 573.394 136.504 572.597 136.504 571.676C136.504 570.778 136.679 569.991 137.027 569.312C137.375 568.634 137.866 568.106 138.499 567.727C139.135 567.348 139.881 567.159 140.737 567.159C141.313 567.159 141.849 567.252 142.345 567.438C142.845 567.619 143.281 567.894 143.652 568.261C144.027 568.629 144.319 569.091 144.527 569.648C144.735 570.201 144.839 570.848 144.839 571.591V572.256H137.47V570.756H142.561C142.561 570.407 142.485 570.098 142.334 569.83C142.182 569.561 141.972 569.35 141.703 569.199C141.438 569.044 141.129 568.966 140.777 568.966C140.41 568.966 140.084 569.051 139.8 569.222C139.519 569.388 139.3 569.614 139.141 569.898C138.982 570.178 138.9 570.491 138.896 570.835V572.261C138.896 572.693 138.976 573.066 139.135 573.381C139.298 573.695 139.527 573.938 139.822 574.108C140.118 574.278 140.468 574.364 140.874 574.364C141.143 574.364 141.389 574.326 141.612 574.25C141.836 574.174 142.027 574.061 142.186 573.909C142.345 573.758 142.466 573.572 142.55 573.352L144.788 573.5C144.675 574.038 144.442 574.508 144.089 574.909C143.741 575.307 143.29 575.617 142.737 575.841C142.188 576.061 141.554 576.17 140.834 576.17ZM153.68 569.761L151.464 569.898C151.427 569.708 151.345 569.538 151.22 569.386C151.095 569.231 150.93 569.108 150.726 569.017C150.525 568.922 150.285 568.875 150.004 568.875C149.629 568.875 149.313 568.955 149.055 569.114C148.798 569.269 148.669 569.477 148.669 569.739C148.669 569.947 148.752 570.123 148.919 570.267C149.086 570.411 149.372 570.527 149.777 570.614L151.357 570.932C152.205 571.106 152.838 571.386 153.254 571.773C153.671 572.159 153.879 572.667 153.879 573.295C153.879 573.867 153.711 574.369 153.374 574.801C153.04 575.233 152.582 575.57 151.999 575.812C151.419 576.051 150.75 576.17 149.993 576.17C148.838 576.17 147.917 575.93 147.232 575.449C146.55 574.964 146.15 574.305 146.033 573.472L148.413 573.347C148.485 573.699 148.66 573.968 148.936 574.153C149.213 574.335 149.567 574.426 149.999 574.426C150.423 574.426 150.764 574.345 151.021 574.182C151.283 574.015 151.415 573.801 151.419 573.54C151.415 573.32 151.322 573.14 151.141 573C150.959 572.856 150.679 572.746 150.3 572.67L148.788 572.369C147.936 572.199 147.302 571.903 146.885 571.483C146.472 571.062 146.266 570.527 146.266 569.875C146.266 569.314 146.417 568.831 146.72 568.426C147.027 568.021 147.457 567.708 148.01 567.489C148.567 567.269 149.218 567.159 149.964 567.159C151.067 567.159 151.934 567.392 152.567 567.858C153.203 568.324 153.574 568.958 153.68 569.761ZM162.665 569.761L160.449 569.898C160.411 569.708 160.33 569.538 160.205 569.386C160.08 569.231 159.915 569.108 159.71 569.017C159.509 568.922 159.269 568.875 158.989 568.875C158.614 568.875 158.297 568.955 158.04 569.114C157.782 569.269 157.653 569.477 157.653 569.739C157.653 569.947 157.737 570.123 157.903 570.267C158.07 570.411 158.356 570.527 158.761 570.614L160.341 570.932C161.189 571.106 161.822 571.386 162.239 571.773C162.655 572.159 162.864 572.667 162.864 573.295C162.864 573.867 162.695 574.369 162.358 574.801C162.025 575.233 161.566 575.57 160.983 575.812C160.403 576.051 159.735 576.17 158.977 576.17C157.822 576.17 156.902 575.93 156.216 575.449C155.534 574.964 155.134 574.305 155.017 573.472L157.398 573.347C157.47 573.699 157.644 573.968 157.92 574.153C158.197 574.335 158.551 574.426 158.983 574.426C159.407 574.426 159.748 574.345 160.006 574.182C160.267 574.015 160.4 573.801 160.403 573.54C160.4 573.32 160.307 573.14 160.125 573C159.943 572.856 159.663 572.746 159.284 572.67L157.773 572.369C156.92 572.199 156.286 571.903 155.869 571.483C155.456 571.062 155.25 570.527 155.25 569.875C155.25 569.314 155.402 568.831 155.705 568.426C156.011 568.021 156.441 567.708 156.994 567.489C157.551 567.269 158.203 567.159 158.949 567.159C160.051 567.159 160.919 567.392 161.551 567.858C162.188 568.324 162.559 568.958 162.665 569.761ZM166.876 576.165C166.32 576.165 165.823 576.068 165.388 575.875C164.952 575.678 164.607 575.388 164.354 575.006C164.104 574.619 163.979 574.138 163.979 573.562C163.979 573.078 164.068 572.67 164.246 572.341C164.424 572.011 164.666 571.746 164.973 571.545C165.28 571.345 165.628 571.193 166.018 571.091C166.412 570.989 166.825 570.917 167.257 570.875C167.765 570.822 168.174 570.773 168.484 570.727C168.795 570.678 169.02 570.606 169.161 570.511C169.301 570.417 169.371 570.277 169.371 570.091V570.057C169.371 569.697 169.257 569.419 169.03 569.222C168.806 569.025 168.488 568.926 168.075 568.926C167.64 568.926 167.293 569.023 167.036 569.216C166.778 569.405 166.607 569.644 166.524 569.932L164.286 569.75C164.399 569.22 164.623 568.761 164.956 568.375C165.289 567.985 165.719 567.686 166.246 567.477C166.776 567.265 167.39 567.159 168.087 567.159C168.571 567.159 169.036 567.216 169.479 567.33C169.926 567.443 170.321 567.619 170.666 567.858C171.015 568.097 171.289 568.403 171.49 568.778C171.691 569.15 171.791 569.595 171.791 570.114V576H169.496V574.79H169.428C169.287 575.062 169.1 575.303 168.865 575.511C168.63 575.716 168.348 575.877 168.018 575.994C167.689 576.108 167.308 576.165 166.876 576.165ZM167.57 574.494C167.926 574.494 168.24 574.424 168.513 574.284C168.786 574.14 169 573.947 169.155 573.705C169.31 573.462 169.388 573.187 169.388 572.881V571.955C169.312 572.004 169.208 572.049 169.075 572.091C168.946 572.129 168.801 572.165 168.638 572.199C168.475 572.229 168.312 572.258 168.149 572.284C167.986 572.307 167.839 572.328 167.706 572.347C167.422 572.388 167.174 572.455 166.962 572.545C166.75 572.636 166.585 572.759 166.467 572.915C166.35 573.066 166.291 573.256 166.291 573.483C166.291 573.812 166.411 574.064 166.649 574.239C166.892 574.409 167.198 574.494 167.57 574.494ZM177.601 579.455C176.817 579.455 176.144 579.347 175.584 579.131C175.027 578.919 174.584 578.629 174.254 578.261C173.925 577.894 173.711 577.481 173.612 577.023L175.851 576.722C175.919 576.896 176.027 577.059 176.175 577.21C176.322 577.362 176.518 577.483 176.76 577.574C177.006 577.669 177.305 577.716 177.658 577.716C178.184 577.716 178.618 577.587 178.959 577.33C179.304 577.076 179.476 576.65 179.476 576.051V574.455H179.374C179.268 574.697 179.108 574.926 178.896 575.142C178.684 575.358 178.411 575.534 178.078 575.67C177.745 575.807 177.347 575.875 176.885 575.875C176.23 575.875 175.633 575.723 175.095 575.42C174.561 575.114 174.135 574.646 173.817 574.017C173.502 573.384 173.345 572.585 173.345 571.619C173.345 570.631 173.506 569.805 173.828 569.142C174.15 568.479 174.578 567.983 175.112 567.653C175.65 567.324 176.239 567.159 176.879 567.159C177.368 567.159 177.777 567.242 178.107 567.409C178.436 567.572 178.701 567.777 178.902 568.023C179.107 568.265 179.264 568.504 179.374 568.739H179.464V567.273H181.868V576.085C181.868 576.828 181.686 577.449 181.322 577.949C180.959 578.449 180.455 578.824 179.811 579.074C179.171 579.328 178.434 579.455 177.601 579.455ZM177.652 574.057C178.042 574.057 178.372 573.96 178.641 573.767C178.913 573.57 179.122 573.29 179.266 572.926C179.413 572.559 179.487 572.119 179.487 571.608C179.487 571.097 179.415 570.653 179.271 570.278C179.127 569.9 178.919 569.606 178.646 569.398C178.374 569.189 178.042 569.085 177.652 569.085C177.254 569.085 176.919 569.193 176.646 569.409C176.374 569.621 176.167 569.917 176.027 570.295C175.887 570.674 175.817 571.112 175.817 571.608C175.817 572.112 175.887 572.547 176.027 572.915C176.171 573.278 176.377 573.561 176.646 573.761C176.919 573.958 177.254 574.057 177.652 574.057ZM187.771 576.17C186.874 576.17 186.101 575.989 185.453 575.625C184.809 575.258 184.313 574.739 183.964 574.068C183.616 573.394 183.442 572.597 183.442 571.676C183.442 570.778 183.616 569.991 183.964 569.312C184.313 568.634 184.804 568.106 185.436 567.727C186.072 567.348 186.819 567.159 187.675 567.159C188.25 567.159 188.786 567.252 189.283 567.438C189.783 567.619 190.218 567.894 190.589 568.261C190.964 568.629 191.256 569.091 191.464 569.648C191.673 570.201 191.777 570.848 191.777 571.591V572.256H184.408V570.756H189.499C189.499 570.407 189.423 570.098 189.271 569.83C189.12 569.561 188.91 569.35 188.641 569.199C188.375 569.044 188.067 568.966 187.714 568.966C187.347 568.966 187.021 569.051 186.737 569.222C186.457 569.388 186.237 569.614 186.078 569.898C185.919 570.178 185.838 570.491 185.834 570.835V572.261C185.834 572.693 185.913 573.066 186.072 573.381C186.235 573.695 186.464 573.938 186.76 574.108C187.055 574.278 187.406 574.364 187.811 574.364C188.08 574.364 188.326 574.326 188.55 574.25C188.773 574.174 188.964 574.061 189.124 573.909C189.283 573.758 189.404 573.572 189.487 573.352L191.726 573.5C191.612 574.038 191.379 574.508 191.027 574.909C190.679 575.307 190.228 575.617 189.675 575.841C189.125 576.061 188.491 576.17 187.771 576.17Z" fill="white"/>
<path d="M87.6047 203.646H91.6027C91.5471 200.092 88.6181 197.621 84.162 197.621C79.7615 197.621 76.5409 200.051 76.5548 203.702C76.5548 206.645 78.637 208.338 82.0242 209.171L84.2175 209.699C86.4109 210.24 87.6602 210.879 87.6602 212.253C87.6602 213.752 86.2443 214.779 84.051 214.779C81.8299 214.779 80.2196 213.752 80.0808 211.725H76.0273C76.1522 216.043 79.2478 218.292 84.1065 218.278C89.0068 218.292 91.8664 215.932 91.8803 212.253C91.8664 208.907 89.2983 207.158 85.8556 206.367L84.051 205.923C82.3157 205.534 80.8165 204.882 80.8304 203.424C80.8443 202.091 82.0242 201.12 84.1342 201.12C86.1749 201.12 87.4381 202.05 87.6047 203.646ZM102.458 202.924H99.6264V199.315H95.5174V202.924H93.4351V206.006H95.5174V213.947C95.4896 216.876 97.5163 218.208 100.487 218.194C101.5 218.208 102.236 218.125 102.68 218.056V214.807C102.181 214.849 101.459 214.89 101.042 214.89C100.209 214.863 99.6125 214.571 99.6264 213.363V206.006H102.458V202.924ZM104.318 213.78C104.332 216.765 106.456 218.292 109.344 218.278C111.579 218.292 113.022 217.306 113.758 215.918H113.869V218H117.756V207.838C117.77 204.201 114.66 202.73 111.37 202.73C107.372 202.73 105.096 204.784 104.846 207.394H108.761C108.983 206.367 109.857 205.742 111.259 205.728C112.8 205.742 113.661 206.464 113.675 207.727V208.949C113.036 208.977 111.009 209.074 109.927 209.143C107.025 209.324 104.332 210.421 104.318 213.78ZM108.261 213.669C108.261 212.503 109.163 211.823 110.593 211.698C111.287 211.642 113.05 211.545 113.675 211.517V212.614C113.689 214.21 112.384 215.432 110.51 215.446C109.191 215.432 108.261 214.821 108.261 213.669ZM128.834 202.924H126.002V199.315H121.893V202.924H119.811V206.006H121.893V213.947C121.865 216.876 123.892 218.208 126.863 218.194C127.876 218.208 128.612 218.125 129.056 218.056V214.807C128.556 214.849 127.834 214.89 127.418 214.89C126.585 214.863 125.988 214.571 126.002 213.363V206.006H128.834V202.924ZM138.079 218.305C141.799 218.292 144.298 216.487 144.881 213.697H140.966C140.564 214.599 139.564 215.21 138.162 215.224C136.038 215.21 134.692 213.808 134.692 211.531H144.992V210.365C144.992 205.229 141.869 202.73 137.912 202.73C133.498 202.73 130.625 205.881 130.638 210.532C130.625 215.307 133.456 218.292 138.079 218.305ZM134.692 208.949C134.775 207.214 136.108 205.798 137.996 205.812C139.828 205.798 141.091 207.117 141.105 208.949H134.692Z" fill="#898989"/>
<path d="M87.6047 828.646H91.6027C91.5471 825.092 88.6181 822.621 84.162 822.621C79.7615 822.621 76.5409 825.051 76.5548 828.702C76.5548 831.645 78.637 833.338 82.0242 834.171L84.2175 834.699C86.4109 835.24 87.6602 835.879 87.6602 837.253C87.6602 838.752 86.2443 839.779 84.051 839.779C81.8299 839.779 80.2196 838.752 80.0808 836.725H76.0273C76.1522 841.043 79.2478 843.292 84.1065 843.278C89.0068 843.292 91.8664 840.932 91.8803 837.253C91.8664 833.907 89.2983 832.158 85.8556 831.367L84.051 830.923C82.3157 830.534 80.8165 829.882 80.8304 828.424C80.8443 827.091 82.0242 826.12 84.1342 826.12C86.1749 826.12 87.4381 827.05 87.6047 828.646ZM94.5179 843H98.6269V827.924H94.5179V843ZM94.3235 823.871C94.3235 825.009 95.3369 825.953 96.5724 825.953C97.794 825.953 98.8073 825.009 98.7935 823.871C98.8073 822.705 97.794 821.775 96.5724 821.761C95.3369 821.775 94.3235 822.705 94.3235 823.871ZM101.709 843H114.341V839.724H107.123V839.613L114.091 830.617V827.924H101.959V831.2H109.149V831.311L101.709 840.529V843ZM123.809 843.305C127.529 843.292 130.028 841.487 130.611 838.697H126.696C126.293 839.599 125.294 840.21 123.892 840.224C121.768 840.21 120.421 838.808 120.421 836.531H130.722V835.365C130.722 830.229 127.598 827.73 123.642 827.73C119.228 827.73 116.354 830.881 116.368 835.532C116.354 840.307 119.186 843.292 123.809 843.305ZM120.421 833.949C120.505 832.214 121.837 830.798 123.725 830.812C125.558 830.798 126.821 832.117 126.835 833.949H120.421Z" fill="#898989"/>
<path d="M1010.69 214.899V235H1014.75V221.784H1014.91L1020.16 234.917H1022.94L1028.18 221.84H1028.35V235H1032.4V214.899H1027.24L1021.66 228.531H1021.44L1015.86 214.899H1010.69ZM1034.99 230.78C1035 233.765 1037.12 235.292 1040.01 235.278C1042.25 235.292 1043.69 234.306 1044.43 232.918H1044.54V235H1048.42V224.838C1048.44 221.201 1045.33 219.73 1042.04 219.73C1038.04 219.73 1035.76 221.784 1035.51 224.394H1039.43C1039.65 223.367 1040.53 222.742 1041.93 222.728C1043.47 222.742 1044.33 223.464 1044.34 224.727V225.949C1043.7 225.977 1041.68 226.074 1040.6 226.143C1037.69 226.324 1035 227.421 1034.99 230.78ZM1038.93 230.669C1038.93 229.503 1039.83 228.823 1041.26 228.698C1041.96 228.642 1043.72 228.545 1044.34 228.517V229.614C1044.36 231.21 1043.05 232.432 1041.18 232.446C1039.86 232.432 1038.93 231.821 1038.93 230.669ZM1051.56 235H1055.67V226.421C1055.66 224.575 1057.03 223.284 1058.89 223.284C1059.46 223.284 1060.25 223.381 1060.64 223.506V219.841C1060.28 219.758 1059.75 219.702 1059.34 219.702C1057.64 219.702 1056.24 220.688 1055.7 222.534H1055.53V219.924H1051.56V235ZM1068.94 240.969C1073.23 240.969 1076.26 239.012 1076.27 235.167V219.924H1072.19V222.451H1072.02C1071.47 221.229 1070.25 219.73 1067.72 219.73C1064.39 219.73 1061.58 222.27 1061.58 227.365C1061.58 232.39 1064.32 234.792 1067.72 234.778C1070.15 234.792 1071.48 233.556 1072.02 232.335H1072.22V235.083C1072.2 237.179 1070.93 237.998 1069.03 237.998C1067.39 237.998 1066.25 237.457 1066.03 236.249H1061.97C1062.21 239.095 1064.78 240.969 1068.94 240.969ZM1065.8 227.421C1065.79 224.825 1066.9 223.006 1069 223.006C1071.07 223.006 1072.22 224.741 1072.22 227.421C1072.22 230.1 1071.05 231.682 1069 231.696C1066.92 231.682 1065.79 230.03 1065.8 227.421ZM1079.46 235H1083.57V219.924H1079.46V235ZM1079.27 215.871C1079.27 217.009 1080.28 217.953 1081.52 217.953C1082.74 217.953 1083.75 217.009 1083.74 215.871C1083.75 214.705 1082.74 213.775 1081.52 213.761C1080.28 213.775 1079.27 214.705 1079.27 215.871ZM1090.88 226.282C1090.88 224.297 1092.06 223.145 1093.76 223.145C1095.47 223.145 1096.47 224.255 1096.48 226.116V235H1100.56V225.394C1100.58 221.882 1098.52 219.73 1095.37 219.73C1093.14 219.73 1091.53 220.827 1090.85 222.562H1090.68V219.924H1086.77V235H1090.88V226.282ZM1116.45 235.305C1118.21 235.292 1120.12 234.792 1121.6 233.612L1122.83 235H1127.13L1124.11 231.53C1125.22 230.058 1125.93 227.948 1125.91 225.227H1122.5C1122.5 226.532 1122.18 227.712 1121.65 228.698L1118.29 224.838L1119.47 223.978C1121.17 222.77 1122.15 221.243 1122.14 219.341C1122.15 216.801 1120.17 214.635 1116.95 214.621C1113.66 214.635 1111.48 216.87 1111.48 219.786C1111.48 221.562 1112.35 223.048 1113.41 224.394C1111.21 225.907 1109.73 227.323 1109.73 229.669C1109.73 232.834 1112.28 235.292 1116.45 235.305ZM1113.72 229.447C1113.72 228.67 1114.25 227.768 1115.39 226.949L1115.53 226.851L1119.37 231.141C1118.51 231.682 1117.57 231.974 1116.64 231.974C1114.86 231.988 1113.72 230.891 1113.72 229.447ZM1115 219.841C1115.02 218.814 1115.79 217.953 1116.97 217.953C1118.15 217.939 1118.85 218.786 1118.83 219.563C1118.85 220.438 1118.37 221.146 1117.36 221.784L1116.31 222.492C1115.54 221.521 1115.02 220.674 1115 219.841ZM1135.3 240.664H1139.41V232.585H1139.52C1140.1 233.834 1141.36 235.25 1143.82 235.25C1147.26 235.25 1149.94 232.515 1149.93 227.476C1149.94 222.312 1147.15 219.73 1143.82 219.73C1141.28 219.73 1140.09 221.229 1139.52 222.451H1139.35V219.924H1135.3V240.664ZM1139.32 227.448C1139.31 224.741 1140.46 223.006 1142.52 223.006C1144.64 223.006 1145.75 224.825 1145.74 227.448C1145.75 230.114 1144.61 231.96 1142.52 231.974C1140.47 231.96 1139.31 230.169 1139.32 227.448ZM1151.87 230.78C1151.89 233.765 1154.01 235.292 1156.9 235.278C1159.13 235.292 1160.58 234.306 1161.31 232.918H1161.42V235H1165.31V224.838C1165.32 221.201 1162.21 219.73 1158.92 219.73C1154.93 219.73 1152.65 221.784 1152.4 224.394H1156.31C1156.54 223.367 1157.41 222.742 1158.81 222.728C1160.35 222.742 1161.21 223.464 1161.23 224.727V225.949C1160.59 225.977 1158.56 226.074 1157.48 226.143C1154.58 226.324 1151.89 227.421 1151.87 230.78ZM1155.81 230.669C1155.81 229.503 1156.72 228.823 1158.15 228.698C1158.84 228.642 1160.6 228.545 1161.23 228.517V229.614C1161.24 231.21 1159.94 232.432 1158.06 232.446C1156.74 232.432 1155.81 231.821 1155.81 230.669ZM1174 235.25C1176.46 235.25 1177.71 233.834 1178.28 232.585H1178.47V235H1182.52V214.899H1178.41V222.451H1178.28C1177.73 221.229 1176.53 219.73 1174 219.73C1170.67 219.73 1167.86 222.312 1167.86 227.476C1167.86 232.515 1170.56 235.25 1174 235.25ZM1172.08 227.448C1172.07 224.825 1173.18 223.006 1175.28 223.006C1177.35 223.006 1178.5 224.741 1178.5 227.448C1178.5 230.169 1177.33 231.96 1175.28 231.974C1173.19 231.96 1172.07 230.114 1172.08 227.448ZM1191.38 235.25C1193.84 235.25 1195.09 233.834 1195.66 232.585H1195.85V235H1199.9V214.899H1195.79V222.451H1195.66C1195.11 221.229 1193.91 219.73 1191.38 219.73C1188.05 219.73 1185.24 222.312 1185.24 227.476C1185.24 232.515 1187.94 235.25 1191.38 235.25ZM1189.46 227.448C1189.45 224.825 1190.56 223.006 1192.66 223.006C1194.73 223.006 1195.88 224.741 1195.88 227.448C1195.88 230.169 1194.71 231.96 1192.66 231.974C1190.57 231.96 1189.45 230.114 1189.46 227.448ZM1203.21 235H1207.32V219.924H1203.21V235ZM1203.01 215.871C1203.01 217.009 1204.03 217.953 1205.26 217.953C1206.48 217.953 1207.5 217.009 1207.48 215.871C1207.5 214.705 1206.48 213.775 1205.26 213.761C1204.03 213.775 1203.01 214.705 1203.01 215.871ZM1214.62 226.282C1214.62 224.297 1215.8 223.145 1217.51 223.145C1219.21 223.145 1220.21 224.255 1220.23 226.116V235H1224.31V225.394C1224.32 221.882 1222.27 219.73 1219.12 219.73C1216.88 219.73 1215.27 220.827 1214.59 222.562H1214.42V219.924H1210.51V235H1214.62V226.282ZM1234.27 240.969C1238.56 240.969 1241.59 239.012 1241.6 235.167V219.924H1237.52V222.451H1237.36C1236.8 221.229 1235.58 219.73 1233.05 219.73C1229.72 219.73 1226.92 222.27 1226.92 227.365C1226.92 232.39 1229.65 234.792 1233.05 234.778C1235.48 234.792 1236.81 233.556 1237.36 232.335H1237.55V235.083C1237.54 237.179 1236.26 237.998 1234.36 237.998C1232.72 237.998 1231.58 237.457 1231.36 236.249H1227.31C1227.54 239.095 1230.11 240.969 1234.27 240.969ZM1231.14 227.421C1231.12 224.825 1232.23 223.006 1234.33 223.006C1236.4 223.006 1237.55 224.741 1237.55 227.421C1237.55 230.1 1236.38 231.682 1234.33 231.696C1232.25 231.682 1231.12 230.03 1231.14 227.421Z" fill="#898989"/>
<rect x="1040" y="337" width="32" height="62" fill="#048848" fill-opacity="0.1"/>
<rect x="1508" y="315" width="32" height="84" fill="#048848" fill-opacity="0.1"/>
<rect x="1039" y="337" width="501" height="20" fill="#048848" fill-opacity="0.1"/>
<rect x="1004" y="315" width="536" height="20" fill="#E11900" fill-opacity="0.1"/>
<rect x="1007" y="400" width="533" height="20" fill="#E11900" fill-opacity="0.1"/>
<rect x="1007" y="448" width="533" height="20" fill="#E11900" fill-opacity="0.1"/>
<rect x="1039" y="379" width="501" height="20" fill="#048848" fill-opacity="0.1"/>
<path d="M1015.06 332H1022.41V330.75H1017.02V330.656L1019.61 327.984C1021.61 325.922 1022.2 324.938 1022.2 323.672C1022.2 321.914 1020.74 320.531 1018.69 320.531C1016.64 320.531 1015.09 321.875 1015.11 323.875H1016.44C1016.45 322.609 1017.29 321.758 1018.64 321.75C1019.91 321.758 1020.88 322.508 1020.89 323.672C1020.88 324.719 1020.24 325.484 1018.91 326.906L1015.05 330.969L1015.06 332ZM1028.16 332.156C1030.66 332.156 1032.11 330.047 1032.11 326.344C1032.11 322.672 1030.64 320.531 1028.16 320.531C1025.66 320.531 1024.2 322.672 1024.2 326.344C1024.2 330.047 1025.65 332.156 1028.16 332.156ZM1025.56 326.344C1025.57 323.414 1026.53 321.758 1028.16 321.75C1029.78 321.758 1030.74 323.414 1030.73 326.344C1030.74 329.273 1029.79 330.906 1028.16 330.906C1026.52 330.906 1025.57 329.273 1025.56 326.344Z" fill="black"/>
<path d="M1285.06 352H1292.41V350.75H1287.02V350.656L1289.61 347.984C1291.61 345.922 1292.2 344.938 1292.2 343.672C1292.2 341.914 1290.74 340.531 1288.69 340.531C1286.64 340.531 1285.09 341.875 1285.11 343.875H1286.44C1286.45 342.609 1287.29 341.758 1288.64 341.75C1289.91 341.758 1290.88 342.508 1290.89 343.672C1290.88 344.719 1290.24 345.484 1288.91 346.906L1285.05 350.969L1285.06 352ZM1298.16 352.156C1300.66 352.156 1302.11 350.047 1302.11 346.344C1302.11 342.672 1300.64 340.531 1298.16 340.531C1295.66 340.531 1294.2 342.672 1294.2 346.344C1294.2 350.047 1295.65 352.156 1298.16 352.156ZM1295.56 346.344C1295.57 343.414 1296.53 341.758 1298.16 341.75C1299.78 341.758 1300.74 343.414 1300.73 346.344C1300.74 349.273 1299.79 350.906 1298.16 350.906C1296.52 350.906 1295.57 349.273 1295.56 346.344Z" fill="black"/>
<path d="M1015.06 416H1022.41V414.75H1017.02V414.656L1019.61 411.984C1021.61 409.922 1022.2 408.938 1022.2 407.672C1022.2 405.914 1020.74 404.531 1018.69 404.531C1016.64 404.531 1015.09 405.875 1015.11 407.875H1016.44C1016.45 406.609 1017.29 405.758 1018.64 405.75C1019.91 405.758 1020.88 406.508 1020.89 407.672C1020.88 408.719 1020.24 409.484 1018.91 410.906L1015.05 414.969L1015.06 416ZM1028.16 416.156C1030.66 416.156 1032.11 414.047 1032.11 410.344C1032.11 406.672 1030.64 404.531 1028.16 404.531C1025.66 404.531 1024.2 406.672 1024.2 410.344C1024.2 414.047 1025.65 416.156 1028.16 416.156ZM1025.56 410.344C1025.57 407.414 1026.53 405.758 1028.16 405.75C1029.78 405.758 1030.74 407.414 1030.73 410.344C1030.74 413.273 1029.79 414.906 1028.16 414.906C1026.52 414.906 1025.57 413.273 1025.56 410.344Z" fill="black"/>
<path d="M1015.06 464H1022.41V462.75H1017.02V462.656L1019.61 459.984C1021.61 457.922 1022.2 456.938 1022.2 455.672C1022.2 453.914 1020.74 452.531 1018.69 452.531C1016.64 452.531 1015.09 453.875 1015.11 455.875H1016.44C1016.45 454.609 1017.29 453.758 1018.64 453.75C1019.91 453.758 1020.88 454.508 1020.89 455.672C1020.88 456.719 1020.24 457.484 1018.91 458.906L1015.05 462.969L1015.06 464ZM1028.16 464.156C1030.66 464.156 1032.11 462.047 1032.11 458.344C1032.11 454.672 1030.64 452.531 1028.16 452.531C1025.66 452.531 1024.2 454.672 1024.2 458.344C1024.2 462.047 1025.65 464.156 1028.16 464.156ZM1025.56 458.344C1025.57 455.414 1026.53 453.758 1028.16 453.75C1029.78 453.758 1030.74 455.414 1030.73 458.344C1030.74 461.273 1029.79 462.906 1028.16 462.906C1026.52 462.906 1025.57 461.273 1025.56 458.344Z" fill="black"/>
<path d="M1518.97 331.156C1521.23 331.156 1522.91 329.781 1522.91 327.922C1522.91 326.484 1522.02 325.43 1520.55 325.203V325.125C1521.73 324.789 1522.48 323.852 1522.47 322.562C1522.48 320.945 1521.17 319.531 1519.02 319.531C1517.01 319.531 1515.34 320.734 1515.27 322.531H1516.62C1516.69 321.422 1517.79 320.758 1519 320.75C1520.29 320.758 1521.12 321.508 1521.11 322.641C1521.12 323.805 1520.16 324.578 1518.78 324.578H1517.86V325.812H1518.78C1520.54 325.82 1521.52 326.688 1521.53 327.922C1521.52 329.102 1520.45 329.906 1518.95 329.906C1517.6 329.906 1516.53 329.234 1516.45 328.156H1515.03C1515.1 329.953 1516.72 331.156 1518.97 331.156ZM1524.94 331H1532.28V329.75H1526.89V329.656L1529.48 326.984C1531.48 324.922 1532.07 323.938 1532.08 322.672C1532.07 320.914 1530.62 319.531 1528.56 319.531C1526.52 319.531 1524.97 320.875 1524.98 322.875H1526.31C1526.32 321.609 1527.16 320.758 1528.52 320.75C1529.79 320.758 1530.76 321.508 1530.77 322.672C1530.76 323.719 1530.12 324.484 1528.78 325.906L1524.92 329.969L1524.94 331Z" fill="black"/>
<path d="M74.4219 1076.69H73.0781V1088H74.4219V1076.69ZM76.1562 1085.59C76.1562 1087.25 77.4375 1088.2 79.0469 1088.2C80.5234 1088.2 81.2969 1087.41 81.5781 1086.84H81.6406V1088H82.9688V1082.41C82.9766 1079.73 80.8906 1079.41 79.7812 1079.41C77.9062 1079.41 76.5781 1080.35 76.4062 1081.72H77.8125C78 1081.07 78.6484 1080.58 79.7188 1080.58C81 1080.58 81.6406 1081.2 81.6406 1082.28V1082.97C81.2578 1082.98 79.8906 1083.05 79.3438 1083.09C77.875 1083.2 76.1562 1083.65 76.1562 1085.59ZM77.5 1085.66C77.5078 1084.73 78.2812 1084.3 79.5 1084.22C79.9062 1084.2 81.2422 1084.09 81.6406 1084.07V1084.92C81.6406 1085.99 80.7969 1087.01 79.2812 1087C78.25 1087.01 77.5078 1086.55 77.5 1085.66ZM85.2969 1088H86.5938V1086.7H86.75C87.0391 1087.17 87.5938 1088.18 89.2188 1088.17C91.3281 1088.18 92.8203 1086.48 92.8281 1083.78C92.8203 1081.09 91.3281 1079.41 89.2031 1079.41C87.5469 1079.41 87.0391 1080.41 86.75 1080.86H86.6406V1076.69H85.2969V1088ZM86.6094 1083.75C86.6094 1081.87 87.4531 1080.61 89.0156 1080.61C90.6562 1080.61 91.4609 1081.98 91.4688 1083.75C91.4609 1085.55 90.6328 1086.97 89.0156 1086.97C87.4688 1086.97 86.6094 1085.66 86.6094 1083.75ZM98.1406 1088.17C99.8906 1088.18 101.148 1087.3 101.547 1086.02H100.109C99.7969 1086.54 99.1562 1086.98 98.1406 1086.98C96.6328 1086.98 95.5859 1086 95.5156 1084.2H101.672V1083.64C101.68 1080.5 99.7969 1079.41 98.0156 1079.41C95.7109 1079.41 94.1719 1081.22 94.1719 1083.83C94.1719 1086.43 95.6875 1088.18 98.1406 1088.17ZM95.5234 1083.06C95.6172 1081.75 96.5469 1080.59 98.0156 1080.59C99.4141 1080.59 100.305 1081.65 100.312 1083.06H95.5234ZM104.766 1076.69H103.422V1088H104.766V1076.69Z" fill="#6B6B6B"/>
<rect x="73" y="1116" width="198" height="64" rx="11" fill="white"/>
<path d="M89.0781 1157.19H90.4219V1152.7H90.5312C90.8203 1153.17 91.3828 1154.18 93 1154.17C95.1172 1154.18 96.5938 1152.48 96.5938 1149.78C96.5938 1147.09 95.1172 1145.41 92.9844 1145.41C91.3359 1145.41 90.8203 1146.41 90.5312 1146.86H90.375V1145.52H89.0781V1157.19ZM90.3906 1149.75C90.3984 1147.87 91.2266 1146.61 92.8125 1146.61C94.4453 1146.61 95.25 1147.98 95.25 1149.75C95.25 1151.55 94.4219 1152.97 92.8125 1152.97C91.25 1152.97 90.3984 1151.66 90.3906 1149.75ZM99.6875 1142.69H98.3438V1154H99.6875V1142.69ZM101.422 1151.59C101.422 1153.25 102.703 1154.2 104.312 1154.2C105.789 1154.2 106.562 1153.41 106.844 1152.84H106.906V1154H108.234V1148.41C108.242 1145.73 106.156 1145.41 105.047 1145.41C103.172 1145.41 101.844 1146.35 101.672 1147.72H103.078C103.266 1147.07 103.914 1146.58 104.984 1146.58C106.266 1146.58 106.906 1147.2 106.906 1148.28V1148.97C106.523 1148.98 105.156 1149.05 104.609 1149.09C103.141 1149.2 101.422 1149.65 101.422 1151.59ZM102.766 1151.66C102.773 1150.73 103.547 1150.3 104.766 1150.22C105.172 1150.2 106.508 1150.09 106.906 1150.07V1150.92C106.906 1151.99 106.062 1153.01 104.547 1153C103.516 1153.01 102.773 1152.55 102.766 1151.66ZM113.859 1154.17C115.742 1154.18 116.992 1153.02 117.203 1151.5H115.859C115.625 1152.43 114.859 1152.97 113.859 1152.97C112.32 1152.97 111.336 1151.71 111.328 1149.75C111.336 1147.84 112.344 1146.59 113.859 1146.59C114.992 1146.59 115.664 1147.3 115.859 1148.08H117.203C116.992 1146.48 115.633 1145.41 113.828 1145.41C111.523 1145.41 109.984 1147.22 109.984 1149.8C109.984 1152.34 111.453 1154.18 113.859 1154.17ZM122.422 1154.17C124.172 1154.18 125.43 1153.3 125.828 1152.02H124.391C124.078 1152.54 123.438 1152.98 122.422 1152.98C120.914 1152.98 119.867 1152 119.797 1150.2H125.953V1149.64C125.961 1146.5 124.078 1145.41 122.297 1145.41C119.992 1145.41 118.453 1147.22 118.453 1149.83C118.453 1152.43 119.969 1154.18 122.422 1154.17ZM119.805 1149.06C119.898 1147.75 120.828 1146.59 122.297 1146.59C123.695 1146.59 124.586 1147.65 124.594 1149.06H119.805ZM129.047 1148.91C129.047 1147.44 129.984 1146.61 131.25 1146.61C132.469 1146.61 133.203 1147.37 133.203 1148.7V1154H134.547V1148.61C134.547 1146.43 133.391 1145.41 131.656 1145.41C130.312 1145.41 129.555 1145.97 129.156 1146.84H129.047V1142.69H127.703V1154H129.047V1148.91ZM140.172 1154.17C142.477 1154.18 144.023 1152.43 144.016 1149.8C144.023 1147.15 142.477 1145.41 140.172 1145.41C137.859 1145.41 136.297 1147.15 136.297 1149.8C136.297 1152.43 137.859 1154.18 140.172 1154.17ZM137.641 1149.8C137.648 1148.11 138.445 1146.59 140.172 1146.59C141.883 1146.59 142.672 1148.11 142.672 1149.8C142.672 1151.49 141.883 1152.98 140.172 1152.98C138.445 1152.98 137.648 1151.49 137.641 1149.8ZM147.125 1142.69H145.781V1154H147.125V1142.69ZM152.469 1154.17C154.086 1154.18 154.641 1153.17 154.938 1152.7H155.078V1154H156.391V1142.69H155.031V1146.86H154.938C154.648 1146.41 154.133 1145.41 152.484 1145.41C150.352 1145.41 148.859 1147.09 148.859 1149.78C148.859 1152.48 150.352 1154.18 152.469 1154.17ZM150.219 1149.75C150.219 1147.98 151.023 1146.61 152.656 1146.61C154.234 1146.61 155.07 1147.87 155.078 1149.75C155.07 1151.66 154.211 1152.97 152.656 1152.97C151.047 1152.97 150.219 1151.55 150.219 1149.75ZM162.281 1154.17C164.031 1154.18 165.289 1153.3 165.688 1152.02H164.25C163.938 1152.54 163.297 1152.98 162.281 1152.98C160.773 1152.98 159.727 1152 159.656 1150.2H165.812V1149.64C165.82 1146.5 163.938 1145.41 162.156 1145.41C159.852 1145.41 158.312 1147.22 158.312 1149.83C158.312 1152.43 159.828 1154.18 162.281 1154.17ZM159.664 1149.06C159.758 1147.75 160.688 1146.59 162.156 1146.59C163.555 1146.59 164.445 1147.65 164.453 1149.06H159.664ZM167.562 1154H168.906V1148.66C168.906 1147.52 169.812 1146.67 171.031 1146.67C171.383 1146.67 171.742 1146.74 171.844 1146.77V1145.41C171.688 1145.39 171.344 1145.38 171.141 1145.38C170.141 1145.38 169.258 1145.95 168.953 1146.81H168.859V1145.52H167.562V1154Z" fill="#A6A6A6"/>
<rect x="73" y="1116" width="198" height="64" rx="11" stroke="#898989" stroke-width="2"/>
<path d="M77.4219 922.688H76.0781V934H77.4219V922.688ZM79.1562 931.594C79.1562 933.25 80.4375 934.195 82.0469 934.203C83.5234 934.195 84.2969 933.414 84.5781 932.844H84.6406V934H85.9688V928.406C85.9766 925.734 83.8906 925.406 82.7812 925.406C80.9062 925.406 79.5781 926.352 79.4062 927.719H80.8125C81 927.07 81.6484 926.578 82.7188 926.578C84 926.578 84.6406 927.203 84.6406 928.281V928.969C84.2578 928.977 82.8906 929.055 82.3438 929.094C80.875 929.203 79.1562 929.648 79.1562 931.594ZM80.5 931.656C80.5078 930.727 81.2812 930.297 82.5 930.219C82.9062 930.195 84.2422 930.094 84.6406 930.07V930.922C84.6406 931.992 83.7969 933.008 82.2812 933C81.25 933.008 80.5078 932.555 80.5 931.656ZM88.2969 934H89.5938V932.703H89.75C90.0391 933.172 90.5938 934.18 92.2188 934.172C94.3281 934.18 95.8203 932.477 95.8281 929.781C95.8203 927.094 94.3281 925.406 92.2031 925.406C90.5469 925.406 90.0391 926.406 89.75 926.859H89.6406V922.688H88.2969V934ZM89.6094 929.75C89.6094 927.867 90.4531 926.609 92.0156 926.609C93.6562 926.609 94.4609 927.977 94.4688 929.75C94.4609 931.555 93.6328 932.969 92.0156 932.969C90.4688 932.969 89.6094 931.656 89.6094 929.75ZM101.141 934.172C102.891 934.18 104.148 933.305 104.547 932.016H103.109C102.797 932.539 102.156 932.984 101.141 932.984C99.6328 932.984 98.5859 932 98.5156 930.203H104.672V929.641C104.68 926.5 102.797 925.406 101.016 925.406C98.7109 925.406 97.1719 927.219 97.1719 929.828C97.1719 932.43 98.6875 934.18 101.141 934.172ZM98.5234 929.062C98.6172 927.75 99.5469 926.594 101.016 926.594C102.414 926.594 103.305 927.648 103.312 929.062H98.5234ZM107.766 922.688H106.422V934H107.766V922.688Z" fill="#6B6B6B"/>
<rect x="76" y="962" width="498" height="64" rx="11" fill="white"/>
<path d="M108.078 1003.19H109.422V998.703H109.531C109.82 999.172 110.383 1000.18 112 1000.17C114.117 1000.18 115.594 998.477 115.594 995.781C115.594 993.094 114.117 991.406 111.984 991.406C110.336 991.406 109.82 992.406 109.531 992.859H109.375V991.516H108.078V1003.19ZM109.391 995.75C109.398 993.867 110.227 992.609 111.812 992.609C113.445 992.609 114.25 993.977 114.25 995.75C114.25 997.555 113.422 998.969 111.812 998.969C110.25 998.969 109.398 997.656 109.391 995.75ZM118.688 988.688H117.344V1000H118.688V988.688ZM120.422 997.594C120.422 999.25 121.703 1000.2 123.312 1000.2C124.789 1000.2 125.562 999.414 125.844 998.844H125.906V1000H127.234V994.406C127.242 991.734 125.156 991.406 124.047 991.406C122.172 991.406 120.844 992.352 120.672 993.719H122.078C122.266 993.07 122.914 992.578 123.984 992.578C125.266 992.578 125.906 993.203 125.906 994.281V994.969C125.523 994.977 124.156 995.055 123.609 995.094C122.141 995.203 120.422 995.648 120.422 997.594ZM121.766 997.656C121.773 996.727 122.547 996.297 123.766 996.219C124.172 996.195 125.508 996.094 125.906 996.07V996.922C125.906 997.992 125.062 999.008 123.547 999C122.516 999.008 121.773 998.555 121.766 997.656ZM132.859 1000.17C134.742 1000.18 135.992 999.016 136.203 997.5H134.859C134.625 998.43 133.859 998.969 132.859 998.969C131.32 998.969 130.336 997.711 130.328 995.75C130.336 993.844 131.344 992.594 132.859 992.594C133.992 992.594 134.664 993.305 134.859 994.078H136.203C135.992 992.477 134.633 991.406 132.828 991.406C130.523 991.406 128.984 993.219 128.984 995.797C128.984 998.344 130.453 1000.18 132.859 1000.17ZM141.422 1000.17C143.172 1000.18 144.43 999.305 144.828 998.016H143.391C143.078 998.539 142.438 998.984 141.422 998.984C139.914 998.984 138.867 998 138.797 996.203H144.953V995.641C144.961 992.5 143.078 991.406 141.297 991.406C138.992 991.406 137.453 993.219 137.453 995.828C137.453 998.43 138.969 1000.18 141.422 1000.17ZM138.805 995.062C138.898 993.75 139.828 992.594 141.297 992.594C142.695 992.594 143.586 993.648 143.594 995.062H138.805ZM148.047 994.906C148.047 993.438 148.984 992.609 150.25 992.609C151.469 992.609 152.203 993.367 152.203 994.703V1000H153.547V994.609C153.547 992.43 152.391 991.406 150.656 991.406C149.312 991.406 148.555 991.969 148.156 992.844H148.047V988.688H146.703V1000H148.047V994.906ZM159.172 1000.17C161.477 1000.18 163.023 998.43 163.016 995.797C163.023 993.148 161.477 991.406 159.172 991.406C156.859 991.406 155.297 993.148 155.297 995.797C155.297 998.43 156.859 1000.18 159.172 1000.17ZM156.641 995.797C156.648 994.109 157.445 992.594 159.172 992.594C160.883 992.594 161.672 994.109 161.672 995.797C161.672 997.492 160.883 998.984 159.172 998.984C157.445 998.984 156.648 997.492 156.641 995.797ZM166.125 988.688H164.781V1000H166.125V988.688ZM171.469 1000.17C173.086 1000.18 173.641 999.172 173.938 998.703H174.078V1000H175.391V988.688H174.031V992.859H173.938C173.648 992.406 173.133 991.406 171.484 991.406C169.352 991.406 167.859 993.094 167.859 995.781C167.859 998.477 169.352 1000.18 171.469 1000.17ZM169.219 995.75C169.219 993.977 170.023 992.609 171.656 992.609C173.234 992.609 174.07 993.867 174.078 995.75C174.07 997.656 173.211 998.969 171.656 998.969C170.047 998.969 169.219 997.555 169.219 995.75ZM181.281 1000.17C183.031 1000.18 184.289 999.305 184.688 998.016H183.25C182.938 998.539 182.297 998.984 181.281 998.984C179.773 998.984 178.727 998 178.656 996.203H184.812V995.641C184.82 992.5 182.938 991.406 181.156 991.406C178.852 991.406 177.312 993.219 177.312 995.828C177.312 998.43 178.828 1000.18 181.281 1000.17ZM178.664 995.062C178.758 993.75 179.688 992.594 181.156 992.594C182.555 992.594 183.445 993.648 183.453 995.062H178.664ZM186.562 1000H187.906V994.656C187.906 993.516 188.812 992.672 190.031 992.672C190.383 992.672 190.742 992.742 190.844 992.766V991.406C190.688 991.391 190.344 991.383 190.141 991.375C189.141 991.383 188.258 991.953 187.953 992.812H187.859V991.516H186.562V1000Z" fill="#A6A6A6"/>
<rect x="76" y="962" width="498" height="64" rx="11" stroke="#898989" stroke-width="2"/>
</svg>
