<svg width="1218" height="745" viewBox="0 0 1218 745" fill="none" xmlns="http://www.w3.org/2000/svg">
<rect width="1218" height="745" rx="32" fill="#F5F5F5"/>
<line x1="75" y1="123.5" x2="1130" y2="123.5" stroke="#898989" stroke-opacity="0.3"/>
<line x1="90" y1="637.5" x2="1119" y2="637.5" stroke="#898989" stroke-opacity="0.3"/>
<path d="M82.4093 61.2829H75.0093V97H82.4093V61.2829ZM88.2799 97H95.5812V80.9174C95.5565 77.8835 97.4805 75.8855 99.9718 75.8855C102.463 75.8855 104.14 77.5875 104.116 80.2268V97H111.22V80.6214C111.195 77.7848 112.823 75.8855 115.561 75.8855C117.954 75.8855 119.779 77.3655 119.754 80.4241V97H127.056V78.9935C127.056 73.1475 123.578 69.8668 118.62 69.8668C114.698 69.8668 111.639 71.8648 110.529 74.8988H110.282C109.394 71.8155 106.656 69.8668 102.981 69.8668C99.3798 69.8668 96.6665 71.7662 95.5318 74.8988H95.2358V70.2122H88.2799V97ZM131.397 89.5014C131.422 94.8047 135.196 97.518 140.326 97.4933C144.298 97.518 146.863 95.7667 148.17 93.3H148.367V97H155.274V78.9441C155.299 72.4815 149.773 69.8668 143.928 69.8668C136.824 69.8668 132.778 73.5175 132.334 78.1548H139.29C139.685 76.3295 141.239 75.2195 143.73 75.1948C146.468 75.2195 147.997 76.5021 148.022 78.7468V80.9174C146.888 80.9668 143.286 81.1394 141.362 81.2628C136.207 81.5834 131.422 83.5321 131.397 89.5014ZM138.402 89.3041C138.402 87.2321 140.006 86.0234 142.546 85.8014C143.78 85.7027 146.912 85.5301 148.022 85.4807V87.4294C148.047 90.266 145.728 92.4367 142.398 92.4614C140.055 92.4367 138.402 91.3514 138.402 89.3041ZM172.886 107.607C180.508 107.607 185.885 104.129 185.91 97.296V70.2122H178.658V74.7015H178.362C177.375 72.5308 175.205 69.8668 170.715 69.8668C164.795 69.8668 159.813 74.3808 159.813 83.4334C159.813 92.3627 164.672 96.63 170.715 96.6053C175.032 96.63 177.4 94.4347 178.362 92.264H178.707V97.148C178.683 100.873 176.413 102.328 173.034 102.328C170.123 102.328 168.101 101.366 167.706 99.22H160.503C160.923 104.277 165.486 107.607 172.886 107.607ZM167.311 83.5321C167.287 78.9195 169.26 75.6881 172.985 75.6881C176.66 75.6881 178.707 78.7715 178.707 83.5321C178.707 88.2927 176.635 91.1047 172.985 91.1294C169.285 91.1047 167.287 88.1694 167.311 83.5321ZM203.719 97.5427C210.33 97.518 214.77 94.3114 215.806 89.3534H208.85C208.134 90.9567 206.358 92.042 203.867 92.0667C200.093 92.042 197.701 89.5507 197.701 85.5054H216.003V83.4334C216.003 74.3068 210.453 69.8668 203.423 69.8668C195.579 69.8668 190.473 75.4661 190.498 83.7294C190.473 92.2147 195.505 97.518 203.719 97.5427ZM197.701 80.9174C197.848 77.8341 200.216 75.3181 203.571 75.3428C206.827 75.3181 209.072 77.6615 209.096 80.9174H197.701ZM235.884 78.1548H242.742C242.347 73.0735 238.154 69.8668 231.395 69.8668C224.488 69.8668 220.073 73.0735 220.098 78.2041C220.073 82.1754 222.688 84.7901 227.794 85.8014L232.234 86.6894C234.75 87.2074 235.884 88.0707 235.884 89.4521C235.884 91.1787 234.108 92.2394 231.444 92.264C228.756 92.2394 227.054 91.154 226.708 89.0574H219.358C219.974 94.2867 224.217 97.518 231.444 97.5427C238.573 97.518 243.309 93.9907 243.334 88.7121C243.309 84.8641 240.793 82.5454 235.588 81.4601L230.803 80.4734C228.262 79.9554 227.325 79.0181 227.35 77.8095C227.325 76.1815 229.126 75.0715 231.494 75.0468C233.936 75.0715 235.564 76.2801 235.884 78.1548Z" fill="black"/>
<path d="M227.605 206.646H231.603C231.547 203.092 228.618 200.621 224.162 200.621C219.761 200.621 216.541 203.051 216.555 206.702C216.555 209.645 218.637 211.338 222.024 212.171L224.218 212.699C226.411 213.24 227.66 213.879 227.66 215.253C227.66 216.752 226.244 217.779 224.051 217.779C221.83 217.779 220.22 216.752 220.081 214.725H216.027C216.152 219.043 219.248 221.292 224.106 221.278C229.007 221.292 231.866 218.932 231.88 215.253C231.866 211.907 229.298 210.158 225.856 209.367L224.051 208.923C222.316 208.534 220.816 207.882 220.83 206.424C220.844 205.091 222.024 204.12 224.134 204.12C226.175 204.12 227.438 205.05 227.605 206.646ZM242.458 205.924H239.626V202.315H235.517V205.924H233.435V209.006H235.517V216.947C235.49 219.876 237.516 221.208 240.487 221.194C241.5 221.208 242.236 221.125 242.68 221.056V217.807C242.181 217.849 241.459 217.89 241.042 217.89C240.209 217.863 239.612 217.571 239.626 216.363V209.006H242.458V205.924ZM244.318 216.78C244.332 219.765 246.456 221.292 249.344 221.278C251.579 221.292 253.022 220.306 253.758 218.918H253.869V221H257.756V210.838C257.77 207.201 254.66 205.73 251.37 205.73C247.372 205.73 245.096 207.784 244.846 210.394H248.761C248.983 209.367 249.857 208.742 251.259 208.728C252.8 208.742 253.661 209.464 253.675 210.727V211.949C253.036 211.977 251.009 212.074 249.927 212.143C247.025 212.324 244.332 213.421 244.318 216.78ZM248.261 216.669C248.261 215.503 249.163 214.823 250.593 214.698C251.287 214.642 253.05 214.545 253.675 214.517V215.614C253.689 217.21 252.384 218.432 250.51 218.446C249.191 218.432 248.261 217.821 248.261 216.669ZM268.834 205.924H266.002V202.315H261.893V205.924H259.811V209.006H261.893V216.947C261.865 219.876 263.892 221.208 266.863 221.194C267.876 221.208 268.612 221.125 269.056 221.056V217.807C268.556 217.849 267.834 217.89 267.418 217.89C266.585 217.863 265.988 217.571 266.002 216.363V209.006H268.834V205.924ZM278.079 221.305C281.799 221.292 284.298 219.487 284.881 216.697H280.966C280.564 217.599 279.564 218.21 278.162 218.224C276.038 218.21 274.692 216.808 274.692 214.531H284.992V213.365C284.992 208.229 281.869 205.73 277.912 205.73C273.498 205.73 270.625 208.881 270.638 213.532C270.625 218.307 273.456 221.292 278.079 221.305ZM274.692 211.949C274.775 210.214 276.108 208.798 277.996 208.812C279.828 208.798 281.091 210.117 281.105 211.949H274.692Z" fill="#898989"/>
<path d="M51.6936 331H55.8581V324.448H59.4674C64.1039 324.448 66.7693 321.685 66.7693 317.673C66.7693 313.717 64.1456 310.899 59.5785 310.899H51.6936V331ZM55.8581 321.088V314.314H58.8011C61.2721 314.328 62.4798 315.674 62.4659 317.673C62.4798 319.7 61.2721 321.088 58.8011 321.088H55.8581ZM69.3235 331H73.4325V322.421C73.4187 320.575 74.793 319.284 76.6531 319.284C77.2223 319.284 78.0135 319.381 78.4022 319.506V315.841C78.0413 315.758 77.5138 315.702 77.0973 315.702C75.4038 315.702 74.0017 316.688 73.4603 318.534H73.2937V315.924H69.3235V331ZM80.4012 331H84.5102V315.924H80.4012V331ZM80.2069 311.871C80.2069 313.009 81.2202 313.953 82.4557 313.953C83.6773 313.953 84.6907 313.009 84.6768 311.871C84.6907 310.705 83.6773 309.775 82.4557 309.761C81.2202 309.775 80.2069 310.705 80.2069 311.871ZM87.7031 331H91.8121V321.949C91.7982 320.242 92.881 319.117 94.2831 319.117C95.6851 319.117 96.6291 320.075 96.6152 321.56V331H100.613V321.782C100.599 320.186 101.515 319.117 103.056 319.117C104.403 319.117 105.43 319.95 105.416 321.671V331H109.525V320.866C109.525 317.576 107.568 315.73 104.778 315.73C102.571 315.73 100.849 316.854 100.224 318.562H100.086C99.5859 316.827 98.045 315.73 95.9766 315.73C93.9499 315.73 92.4229 316.799 91.7843 318.562H91.6177V315.924H87.7031V331ZM111.969 326.78C111.982 329.765 114.106 331.292 116.994 331.278C119.229 331.292 120.672 330.306 121.408 328.918H121.519V331H125.406V320.838C125.42 317.201 122.31 315.73 119.02 315.73C115.023 315.73 112.746 317.784 112.496 320.394H116.411C116.633 319.367 117.507 318.742 118.909 318.728C120.45 318.742 121.311 319.464 121.325 320.727V321.949C120.686 321.977 118.66 322.074 117.577 322.143C114.675 322.324 111.982 323.421 111.969 326.78ZM115.911 326.669C115.911 325.503 116.813 324.823 118.243 324.698C118.937 324.642 120.7 324.545 121.325 324.517V325.614C121.339 327.21 120.034 328.432 118.16 328.446C116.841 328.432 115.911 327.821 115.911 326.669ZM128.543 331H132.652V322.421C132.639 320.575 134.013 319.284 135.873 319.284C136.442 319.284 137.233 319.381 137.622 319.506V315.841C137.261 315.758 136.734 315.702 136.317 315.702C134.624 315.702 133.222 316.688 132.68 318.534H132.514V315.924H128.543V331ZM142.509 336.664C145.687 336.65 147.339 335.095 148.2 332.666L154.086 315.924H149.727L146.534 327.03H146.368L143.203 315.924H138.899L144.313 331.416L144.063 332.055C143.564 333.36 142.911 333.443 142.092 333.443C141.578 333.443 140.954 333.429 140.426 333.388V336.58C140.954 336.636 141.703 336.65 142.509 336.664Z" fill="#898989"/>
<path d="M50.9162 451.342H57.0797V468H61.2165V451.342H67.3801V447.899H50.9162V451.342ZM74.5153 468.305C78.2357 468.292 80.7344 466.487 81.3174 463.697H77.4027C77.0002 464.599 76.0007 465.21 74.5986 465.224C72.4747 465.21 71.1282 463.808 71.1282 461.531H81.4285V460.365C81.4285 455.229 78.3051 452.73 74.3487 452.73C69.9343 452.73 67.0608 455.881 67.0747 460.532C67.0608 465.307 69.8927 468.292 74.5153 468.305ZM71.1282 458.949C71.2114 457.214 72.5441 455.798 74.432 455.812C76.2644 455.798 77.5277 457.117 77.5416 458.949H71.1282ZM84.0105 468H88.1195V459.421C88.1056 457.575 89.4799 456.284 91.3401 456.284C91.9093 456.284 92.7005 456.381 93.0892 456.506V452.841C92.7283 452.758 92.2008 452.702 91.7843 452.702C90.0907 452.702 88.6887 453.688 88.1473 455.534H87.9807V452.924H84.0105V468ZM103.778 452.924H100.946V449.315H96.8373V452.924H94.755V456.006H96.8373V463.947C96.8096 466.876 98.8363 468.208 101.807 468.194C102.82 468.208 103.556 468.125 104 468.056V464.807C103.501 464.849 102.779 464.89 102.362 464.89C101.529 464.863 100.932 464.571 100.946 463.363V456.006H103.778V452.924ZM105.638 463.78C105.652 466.765 107.776 468.292 110.664 468.278C112.899 468.292 114.342 467.306 115.078 465.918H115.189V468H119.076V457.838C119.09 454.201 115.98 452.73 112.69 452.73C108.692 452.73 106.416 454.784 106.166 457.394H110.081C110.303 456.367 111.177 455.742 112.579 455.728C114.12 455.742 114.981 456.464 114.995 457.727V458.949C114.356 458.977 112.329 459.074 111.247 459.143C108.345 459.324 105.652 460.421 105.638 463.78ZM109.581 463.669C109.581 462.503 110.483 461.823 111.913 461.698C112.607 461.642 114.37 461.545 114.995 461.517V462.614C115.009 464.21 113.704 465.432 111.83 465.446C110.511 465.432 109.581 464.821 109.581 463.669ZM122.213 468H126.322V459.421C126.308 457.575 127.683 456.284 129.543 456.284C130.112 456.284 130.903 456.381 131.292 456.506V452.841C130.931 452.758 130.404 452.702 129.987 452.702C128.294 452.702 126.891 453.688 126.35 455.534H126.184V452.924H122.213V468ZM136.178 473.664C139.357 473.65 141.009 472.095 141.87 469.666L147.756 452.924H143.397L140.204 464.03H140.038L136.873 452.924H132.569L137.983 468.416L137.733 469.055C137.233 470.36 136.581 470.443 135.762 470.443C135.248 470.443 134.624 470.429 134.096 470.388V473.58C134.624 473.636 135.373 473.65 136.178 473.664Z" fill="#898989"/>
<path d="M799.694 230.899V251H803.747V237.784H803.914L809.161 250.917H811.937L817.185 237.84H817.351V251H821.405V230.899H816.241L810.66 244.531H810.438L804.858 230.899H799.694ZM823.987 246.78C824.001 249.765 826.125 251.292 829.012 251.278C831.247 251.292 832.691 250.306 833.426 248.918H833.538V251H837.424V240.838C837.438 237.201 834.329 235.73 831.039 235.73C827.041 235.73 824.764 237.784 824.514 240.394H828.429C828.651 239.367 829.526 238.742 830.928 238.728C832.469 238.742 833.329 239.464 833.343 240.727V241.949C832.705 241.977 830.678 242.074 829.595 242.143C826.694 242.324 824.001 243.421 823.987 246.78ZM827.929 246.669C827.929 245.503 828.832 244.823 830.261 244.698C830.955 244.642 832.718 244.545 833.343 244.517V245.614C833.357 247.21 832.052 248.432 830.178 248.446C828.859 248.432 827.929 247.821 827.929 246.669ZM840.562 251H844.671V242.421C844.657 240.575 846.031 239.284 847.891 239.284C848.46 239.284 849.252 239.381 849.64 239.506V235.841C849.28 235.758 848.752 235.702 848.336 235.702C846.642 235.702 845.24 236.688 844.698 238.534H844.532V235.924H840.562V251ZM857.942 256.969C862.231 256.969 865.257 255.012 865.271 251.167V235.924H861.19V238.451H861.024C860.468 237.229 859.247 235.73 856.72 235.73C853.389 235.73 850.584 238.27 850.584 243.365C850.584 248.39 853.319 250.792 856.72 250.778C859.149 250.792 860.482 249.556 861.024 248.335H861.218V251.083C861.204 253.179 859.927 253.998 858.025 253.998C856.387 253.998 855.249 253.457 855.027 252.249H850.973C851.209 255.095 853.777 256.969 857.942 256.969ZM854.804 243.421C854.791 240.825 855.901 239.006 857.997 239.006C860.066 239.006 861.218 240.741 861.218 243.421C861.218 246.1 860.052 247.682 857.997 247.696C855.915 247.682 854.791 246.03 854.804 243.421ZM868.464 251H872.573V235.924H868.464V251ZM868.27 231.871C868.27 233.009 869.283 233.953 870.519 233.953C871.74 233.953 872.754 233.009 872.74 231.871C872.754 230.705 871.74 229.775 870.519 229.761C869.283 229.775 868.27 230.705 868.27 231.871ZM879.875 242.282C879.875 240.297 881.055 239.145 882.762 239.145C884.47 239.145 885.469 240.255 885.483 242.116V251H889.565V241.394C889.578 237.882 887.524 235.73 884.373 235.73C882.138 235.73 880.528 236.827 879.847 238.562H879.681V235.924H875.766V251H879.875V242.282ZM905.445 251.305C907.208 251.292 909.124 250.792 910.596 249.612L911.831 251H916.134L913.108 247.53C914.219 246.058 914.927 243.948 914.913 241.227H911.498C911.498 242.532 911.179 243.712 910.651 244.698L907.292 240.838L908.472 239.978C910.165 238.77 911.151 237.243 911.137 235.341C911.151 232.801 909.166 230.635 905.945 230.621C902.655 230.635 900.476 232.87 900.476 235.786C900.476 237.562 901.35 239.048 902.405 240.394C900.212 241.907 898.727 243.323 898.727 245.669C898.727 248.834 901.281 251.292 905.445 251.305ZM902.725 245.447C902.725 244.67 903.252 243.768 904.39 242.949L904.529 242.851L908.374 247.141C907.514 247.682 906.57 247.974 905.64 247.974C903.863 247.988 902.725 246.891 902.725 245.447ZM904.002 235.841C904.016 234.814 904.793 233.953 905.973 233.953C907.153 233.939 907.847 234.786 907.833 235.563C907.847 236.438 907.375 237.146 906.362 237.784L905.307 238.492C904.543 237.521 904.016 236.674 904.002 235.841ZM924.297 256.664H928.406V248.585H928.517C929.1 249.834 930.363 251.25 932.82 251.25C936.263 251.25 938.942 248.515 938.928 243.476C938.942 238.312 936.152 235.73 932.82 235.73C930.28 235.73 929.086 237.229 928.517 238.451H928.35V235.924H924.297V256.664ZM928.323 243.448C928.309 240.741 929.461 239.006 931.516 239.006C933.639 239.006 934.75 240.825 934.736 243.448C934.75 246.114 933.612 247.96 931.516 247.974C929.475 247.96 928.309 246.169 928.323 243.448ZM940.872 246.78C940.886 249.765 943.01 251.292 945.897 251.278C948.132 251.292 949.576 250.306 950.311 248.918H950.423V251H954.309V240.838C954.323 237.201 951.214 235.73 947.924 235.73C943.926 235.73 941.649 237.784 941.399 240.394H945.314C945.536 239.367 946.411 238.742 947.813 238.728C949.354 238.742 950.214 239.464 950.228 240.727V241.949C949.59 241.977 947.563 242.074 946.48 242.143C943.579 242.324 940.886 243.421 940.872 246.78ZM944.814 246.669C944.814 245.503 945.717 244.823 947.146 244.698C947.841 244.642 949.604 244.545 950.228 244.517V245.614C950.242 247.21 948.937 248.432 947.063 248.446C945.744 248.432 944.814 247.821 944.814 246.669ZM962.999 251.25C965.457 251.25 966.706 249.834 967.275 248.585H967.469V251H971.523V230.899H967.414V238.451H967.275C966.734 237.229 965.526 235.73 962.999 235.73C959.668 235.73 956.864 238.312 956.864 243.476C956.864 248.515 959.557 251.25 962.999 251.25ZM961.084 243.448C961.07 240.825 962.18 239.006 964.277 239.006C966.345 239.006 967.497 240.741 967.497 243.448C967.497 246.169 966.331 247.96 964.277 247.974C962.194 247.96 961.07 246.114 961.084 243.448ZM980.38 251.25C982.837 251.25 984.086 249.834 984.655 248.585H984.85V251H988.903V230.899H984.794V238.451H984.655C984.114 237.229 982.906 235.73 980.38 235.73C977.048 235.73 974.244 238.312 974.244 243.476C974.244 248.515 976.937 251.25 980.38 251.25ZM978.464 243.448C978.45 240.825 979.561 239.006 981.657 239.006C983.725 239.006 984.877 240.741 984.877 243.448C984.877 246.169 983.711 247.96 981.657 247.974C979.574 247.96 978.45 246.114 978.464 243.448ZM992.207 251H996.316V235.924H992.207V251ZM992.013 231.871C992.013 233.009 993.026 233.953 994.261 233.953C995.483 233.953 996.496 233.009 996.482 231.871C996.496 230.705 995.483 229.775 994.261 229.761C993.026 229.775 992.013 230.705 992.013 231.871ZM1003.62 242.282C1003.62 240.297 1004.8 239.145 1006.51 239.145C1008.21 239.145 1009.21 240.255 1009.23 242.116V251H1013.31V241.394C1013.32 237.882 1011.27 235.73 1008.12 235.73C1005.88 235.73 1004.27 236.827 1003.59 238.562H1003.42V235.924H999.509V251H1003.62V242.282ZM1023.27 256.969C1027.56 256.969 1030.59 255.012 1030.6 251.167V235.924H1026.52V238.451H1026.36C1025.8 237.229 1024.58 235.73 1022.05 235.73C1018.72 235.73 1015.92 238.27 1015.92 243.365C1015.92 248.39 1018.65 250.792 1022.05 250.778C1024.48 250.792 1025.81 249.556 1026.36 248.335H1026.55V251.083C1026.54 253.179 1025.26 253.998 1023.36 253.998C1021.72 253.998 1020.58 253.457 1020.36 252.249H1016.31C1016.54 255.095 1019.11 256.969 1023.27 256.969ZM1020.14 243.421C1020.12 240.825 1021.23 239.006 1023.33 239.006C1025.4 239.006 1026.55 240.741 1026.55 243.421C1026.55 246.1 1025.38 247.682 1023.33 247.696C1021.25 247.682 1020.12 246.03 1020.14 243.421Z" fill="#898989"/>
<rect x="843" y="318" width="84" height="84" rx="4" fill="#0075FF"/>
<path d="M900 367.2V375H892.2V380.2H900V388H905.2V380.2H913V375H905.2V367.2H900ZM887.78 382.8H866.2C863.34 382.8 861 380.46 861 377.6V341.2C861 338.34 863.34 336 866.2 336H902.6C905.46 336 907.8 338.34 907.8 341.2V362.78C906.24 362.26 904.42 362 902.6 362C899.74 362 896.88 362.78 894.54 364.34L890.9 359.4L881.8 371.1L875.3 363.3L866.2 375H887.26C887 375.78 887 376.82 887 377.6C887 379.42 887.26 381.24 887.78 382.8Z" fill="white"/>
<rect x="219" y="313" width="84" height="84" rx="4" fill="#0075FF"/>
<path d="M276 362.2V370H268.2V375.2H276V383H281.2V375.2H289V370H281.2V362.2H276ZM263.78 377.8H242.2C239.34 377.8 237 375.46 237 372.6V336.2C237 333.34 239.34 331 242.2 331H278.6C281.46 331 283.8 333.34 283.8 336.2V357.78C282.24 357.26 280.42 357 278.6 357C275.74 357 272.88 357.78 270.54 359.34L266.9 354.4L257.8 366.1L251.3 358.3L242.2 370H263.26C263 370.78 263 371.82 263 372.6C263 374.42 263.26 376.24 263.78 377.8Z" fill="white"/>
<path d="M224.76 285.514H223.248V291.316H223.166L219.169 285.514H217.785V294H219.309V288.198H219.38L223.4 294H224.76V285.514ZM229.038 294.129C230.902 294.129 232.092 292.81 232.086 290.847C232.092 288.866 230.902 287.553 229.038 287.553C227.18 287.553 225.991 288.866 225.991 290.847C225.991 292.81 227.18 294.129 229.038 294.129ZM227.503 290.835C227.503 289.669 228.013 288.731 229.05 288.737C230.07 288.731 230.58 289.669 230.574 290.835C230.58 292.001 230.07 292.933 229.05 292.933C228.013 292.933 227.503 292.001 227.503 290.835ZM234.747 290.273C234.747 289.346 235.303 288.813 236.095 288.819C236.874 288.813 237.337 289.323 237.337 290.179V294H238.826V289.944C238.832 288.42 237.964 287.553 236.646 287.553C235.696 287.553 235.046 288.004 234.758 288.714H234.676V287.635H233.246V294H234.747V290.273ZM243.081 294.129C244.558 294.129 245.577 293.402 245.847 292.3H244.382C244.188 292.681 243.749 292.963 243.092 292.957C242.125 292.963 241.487 292.318 241.463 291.234H245.906V290.765C245.906 288.532 244.558 287.553 242.999 287.553C241.182 287.553 239.986 288.889 239.986 290.859C239.986 292.851 241.164 294.129 243.081 294.129ZM241.469 290.214C241.522 289.405 242.125 288.714 243.022 288.714C243.884 288.714 244.47 289.346 244.476 290.214H241.469Z" fill="#898989"/>
<rect x="219" y="450" width="84" height="84" rx="4" fill="black"/>
<path d="M276 499.2V507H268.2V512.2H276V520H281.2V512.2H289V507H281.2V499.2H276ZM263.78 514.8H242.2C239.34 514.8 237 512.46 237 509.6V473.2C237 470.34 239.34 468 242.2 468H278.6C281.46 468 283.8 470.34 283.8 473.2V494.78C282.24 494.26 280.42 494 278.6 494C275.74 494 272.88 494.78 270.54 496.34L266.9 491.4L257.8 503.1L251.3 495.3L242.2 507H263.26C263 507.78 263 508.82 263 509.6C263 511.42 263.26 513.24 263.78 514.8Z" fill="white"/>
<path d="M224.76 422.514H223.248V428.316H223.166L219.169 422.514H217.785V431H219.309V425.198H219.38L223.4 431H224.76V422.514ZM229.038 431.129C230.902 431.129 232.092 429.81 232.086 427.847C232.092 425.866 230.902 424.553 229.038 424.553C227.18 424.553 225.991 425.866 225.991 427.847C225.991 429.81 227.18 431.129 229.038 431.129ZM227.503 427.835C227.503 426.669 228.013 425.731 229.05 425.737C230.07 425.731 230.58 426.669 230.574 427.835C230.58 429.001 230.07 429.933 229.05 429.933C228.013 429.933 227.503 429.001 227.503 427.835ZM234.747 427.273C234.747 426.346 235.303 425.813 236.095 425.819C236.874 425.813 237.337 426.323 237.337 427.179V431H238.826V426.944C238.832 425.42 237.964 424.553 236.646 424.553C235.696 424.553 235.046 425.004 234.758 425.714H234.676V424.635H233.246V431H234.747V427.273ZM243.081 431.129C244.558 431.129 245.577 430.402 245.847 429.3H244.382C244.188 429.681 243.749 429.963 243.092 429.957C242.125 429.963 241.487 429.318 241.463 428.234H245.906V427.765C245.906 425.532 244.558 424.553 242.999 424.553C241.182 424.553 239.986 425.889 239.986 427.859C239.986 429.851 241.164 431.129 243.081 431.129ZM241.469 427.214C241.522 426.405 242.125 425.714 243.022 425.714C243.884 425.714 244.47 426.346 244.476 427.214H241.469Z" fill="#898989"/>
<rect x="320" y="313" width="84" height="84" rx="4" fill="#005ECC"/>
<path d="M377 362.2V370H369.2V375.2H377V383H382.2V375.2H390V370H382.2V362.2H377ZM364.78 377.8H343.2C340.34 377.8 338 375.46 338 372.6V336.2C338 333.34 340.34 331 343.2 331H379.6C382.46 331 384.8 333.34 384.8 336.2V357.78C383.24 357.26 381.42 357 379.6 357C376.74 357 373.88 357.78 371.54 359.34L367.9 354.4L358.8 366.1L352.3 358.3L343.2 370H364.26C364 370.78 364 371.82 364 372.6C364 374.42 364.26 376.24 364.78 377.8Z" fill="white"/>
<path d="M318.785 294H320.309V290.39H324.259V294H325.795V285.514H324.259V289.112H320.309V285.514H318.785V294ZM330.073 294.129C331.937 294.129 333.127 292.81 333.121 290.847C333.127 288.866 331.937 287.553 330.073 287.553C328.215 287.553 327.026 288.866 327.026 290.847C327.026 292.81 328.215 294.129 330.073 294.129ZM328.538 290.835C328.538 289.669 329.048 288.731 330.085 288.737C331.105 288.731 331.615 289.669 331.609 290.835C331.615 292.001 331.105 292.933 330.085 292.933C329.048 292.933 328.538 292.001 328.538 290.835ZM339.744 287.635H338.161L336.684 292.371H336.614L335.149 287.635H333.555L335.829 294H337.47L339.744 287.635ZM343.284 294.129C344.761 294.129 345.78 293.402 346.05 292.3H344.585C344.391 292.681 343.952 292.963 343.295 292.957C342.328 292.963 341.69 292.318 341.666 291.234H346.109V290.765C346.109 288.532 344.761 287.553 343.202 287.553C341.385 287.553 340.189 288.889 340.189 290.859C340.189 292.851 341.367 294.129 343.284 294.129ZM341.672 290.214C341.725 289.405 342.328 288.714 343.225 288.714C344.087 288.714 344.673 289.346 344.679 290.214H341.672ZM347.269 294H348.769V290.249C348.769 289.446 349.379 288.872 350.211 288.866C350.457 288.872 350.768 288.913 350.903 288.96V287.577C350.762 287.559 350.528 287.541 350.364 287.541C349.631 287.541 349.021 287.957 348.793 288.69H348.723V287.635H347.269V294Z" fill="#898989"/>
<rect x="320" y="450" width="84" height="84" rx="4" fill="#404040"/>
<path d="M377 499.2V507H369.2V512.2H377V520H382.2V512.2H390V507H382.2V499.2H377ZM364.78 514.8H343.2C340.34 514.8 338 512.46 338 509.6V473.2C338 470.34 340.34 468 343.2 468H379.6C382.46 468 384.8 470.34 384.8 473.2V494.78C383.24 494.26 381.42 494 379.6 494C376.74 494 373.88 494.78 371.54 496.34L367.9 491.4L358.8 503.1L352.3 495.3L343.2 507H364.26C364 507.78 364 508.82 364 509.6C364 511.42 364.26 513.24 364.78 514.8Z" fill="white"/>
<path d="M318.785 431H320.309V427.39H324.259V431H325.795V422.514H324.259V426.112H320.309V422.514H318.785V431ZM330.073 431.129C331.937 431.129 333.127 429.81 333.121 427.847C333.127 425.866 331.937 424.553 330.073 424.553C328.215 424.553 327.026 425.866 327.026 427.847C327.026 429.81 328.215 431.129 330.073 431.129ZM328.538 427.835C328.538 426.669 329.048 425.731 330.085 425.737C331.105 425.731 331.615 426.669 331.609 427.835C331.615 429.001 331.105 429.933 330.085 429.933C329.048 429.933 328.538 429.001 328.538 427.835ZM339.744 424.635H338.161L336.684 429.371H336.614L335.149 424.635H333.555L335.829 431H337.47L339.744 424.635ZM343.284 431.129C344.761 431.129 345.78 430.402 346.05 429.3H344.585C344.391 429.681 343.952 429.963 343.295 429.957C342.328 429.963 341.69 429.318 341.666 428.234H346.109V427.765C346.109 425.532 344.761 424.553 343.202 424.553C341.385 424.553 340.189 425.889 340.189 427.859C340.189 429.851 341.367 431.129 343.284 431.129ZM341.672 427.214C341.725 426.405 342.328 425.714 343.225 425.714C344.087 425.714 344.673 426.346 344.679 427.214H341.672ZM347.269 431H348.769V427.249C348.769 426.446 349.379 425.872 350.211 425.866C350.457 425.872 350.768 425.913 350.903 425.96V424.577C350.762 424.559 350.528 424.541 350.364 424.541C349.631 424.541 349.021 424.957 348.793 425.69H348.723V424.635H347.269V431Z" fill="#898989"/>
<rect x="424" y="313" width="84" height="84" rx="4" fill="#3391FF"/>
<path d="M481 362.2V370H473.2V375.2H481V383H486.2V375.2H494V370H486.2V362.2H481ZM468.78 377.8H447.2C444.34 377.8 442 375.46 442 372.6V336.2C442 333.34 444.34 331 447.2 331H483.6C486.46 331 488.8 333.34 488.8 336.2V357.78C487.24 357.26 485.42 357 483.6 357C480.74 357 477.88 357.78 475.54 359.34L471.9 354.4L462.8 366.1L456.3 358.3L447.2 370H468.26C468 370.78 468 371.82 468 372.6C468 374.42 468.26 376.24 468.78 377.8Z" fill="white"/>
<path d="M423.864 294L424.567 291.902H427.761L428.47 294H430.1L427.099 285.514H425.223L422.234 294H423.864ZM424.977 290.671L426.126 287.248H426.196L427.351 290.671H424.977ZM433.616 294.129C435.216 294.129 436.236 293.174 436.347 291.831H434.917C434.782 292.517 434.29 292.904 433.628 292.91C432.69 292.904 432.081 292.125 432.081 290.812C432.081 289.528 432.702 288.755 433.628 288.749C434.355 288.755 434.8 289.218 434.917 289.827H436.347C436.242 288.456 435.158 287.553 433.616 287.553C431.752 287.553 430.569 288.895 430.569 290.847C430.569 292.769 431.717 294.129 433.616 294.129ZM440.649 287.635H439.395V286.111H437.906V287.635H436.992V288.784H437.906V292.336C437.895 293.531 438.762 294.088 439.887 294.082C440.268 294.088 440.555 294.053 440.731 294.023V292.804C440.544 292.816 440.251 292.834 440.075 292.828C439.7 292.822 439.395 292.699 439.395 292.089V288.784H440.649V287.635ZM441.798 294H443.298V287.635H441.798V294ZM441.692 285.912C441.692 286.363 442.085 286.727 442.56 286.733C443.035 286.727 443.427 286.363 443.427 285.912C443.427 285.467 443.035 285.103 442.56 285.103C442.085 285.103 441.692 285.467 441.692 285.912ZM450.413 287.635H448.831L447.354 292.371H447.284L445.818 287.635H444.224L446.498 294H448.139L450.413 287.635ZM453.953 294.129C455.43 294.129 456.45 293.402 456.72 292.3H455.254C455.061 292.681 454.621 292.963 453.965 292.957C452.998 292.963 452.359 292.318 452.336 291.234H456.778V290.765C456.778 288.532 455.43 287.553 453.871 287.553C452.054 287.553 450.859 288.889 450.859 290.859C450.859 292.851 452.037 294.129 453.953 294.129ZM452.342 290.214C452.394 289.405 452.998 288.714 453.895 288.714C454.756 288.714 455.342 289.346 455.348 290.214H452.342Z" fill="#898989"/>
<rect x="424" y="450" width="84" height="84" rx="4" fill="#6B6B6B"/>
<path d="M481 499.2V507H473.2V512.2H481V520H486.2V512.2H494V507H486.2V499.2H481ZM468.78 514.8H447.2C444.34 514.8 442 512.46 442 509.6V473.2C442 470.34 444.34 468 447.2 468H483.6C486.46 468 488.8 470.34 488.8 473.2V494.78C487.24 494.26 485.42 494 483.6 494C480.74 494 477.88 494.78 475.54 496.34L471.9 491.4L462.8 503.1L456.3 495.3L447.2 507H468.26C468 507.78 468 508.82 468 509.6C468 511.42 468.26 513.24 468.78 514.8Z" fill="white"/>
<path d="M423.864 431L424.567 428.902H427.761L428.47 431H430.1L427.099 422.514H425.223L422.234 431H423.864ZM424.977 427.671L426.126 424.248H426.196L427.351 427.671H424.977ZM433.616 431.129C435.216 431.129 436.236 430.174 436.347 428.831H434.917C434.782 429.517 434.29 429.904 433.628 429.91C432.69 429.904 432.081 429.125 432.081 427.812C432.081 426.528 432.702 425.755 433.628 425.749C434.355 425.755 434.8 426.218 434.917 426.827H436.347C436.242 425.456 435.158 424.553 433.616 424.553C431.752 424.553 430.569 425.895 430.569 427.847C430.569 429.769 431.717 431.129 433.616 431.129ZM440.649 424.635H439.395V423.111H437.906V424.635H436.992V425.784H437.906V429.336C437.895 430.531 438.762 431.088 439.887 431.082C440.268 431.088 440.555 431.053 440.731 431.023V429.804C440.544 429.816 440.251 429.834 440.075 429.828C439.7 429.822 439.395 429.699 439.395 429.089V425.784H440.649V424.635ZM441.798 431H443.298V424.635H441.798V431ZM441.692 422.912C441.692 423.363 442.085 423.727 442.56 423.733C443.035 423.727 443.427 423.363 443.427 422.912C443.427 422.467 443.035 422.103 442.56 422.103C442.085 422.103 441.692 422.467 441.692 422.912ZM450.413 424.635H448.831L447.354 429.371H447.284L445.818 424.635H444.224L446.498 431H448.139L450.413 424.635ZM453.953 431.129C455.43 431.129 456.45 430.402 456.72 429.3H455.254C455.061 429.681 454.621 429.963 453.965 429.957C452.998 429.963 452.359 429.318 452.336 428.234H456.778V427.765C456.778 425.532 455.43 424.553 453.871 424.553C452.054 424.553 450.859 425.889 450.859 427.859C450.859 429.851 452.037 431.129 453.953 431.129ZM452.342 427.214C452.394 426.405 452.998 425.714 453.895 425.714C454.756 425.714 455.342 426.346 455.348 427.214H452.342Z" fill="#898989"/>
<rect x="528" y="313" width="84" height="84" rx="4" fill="#C4C4C4"/>
<path d="M585 362.2V370H577.2V375.2H585V383H590.2V375.2H598V370H590.2V362.2H585ZM572.78 377.8H551.2C548.34 377.8 546 375.46 546 372.6V336.2C546 333.34 548.34 331 551.2 331H587.6C590.46 331 592.8 333.34 592.8 336.2V357.78C591.24 357.26 589.42 357 587.6 357C584.74 357 581.88 357.78 579.54 359.34L575.9 354.4L566.8 366.1L560.3 358.3L551.2 370H572.26C572 370.78 572 371.82 572 372.6C572 374.42 572.26 376.24 572.78 377.8Z" fill="white"/>
<path d="M529.669 294C532.248 294 533.777 292.4 533.783 289.745C533.777 287.102 532.248 285.514 529.716 285.514H526.785V294H529.669ZM528.309 292.675V286.838H529.634C531.363 286.832 532.259 287.799 532.259 289.745C532.259 291.703 531.363 292.681 529.587 292.675H528.309ZM535.061 294H536.561V287.635H535.061V294ZM534.955 285.912C534.955 286.363 535.348 286.727 535.823 286.733C536.297 286.727 536.69 286.363 536.69 285.912C536.69 285.467 536.297 285.103 535.823 285.103C535.348 285.103 534.955 285.467 534.955 285.912ZM541.602 289.452H543.02C542.909 288.297 541.971 287.553 540.453 287.553C538.9 287.553 537.88 288.321 537.886 289.499C537.88 290.407 538.495 291.029 539.679 291.269L540.699 291.492C541.332 291.626 541.619 291.861 541.625 292.23C541.619 292.705 541.15 292.998 540.429 292.992C539.732 292.998 539.31 292.728 539.222 292.183H537.698C537.856 293.402 538.812 294.129 540.429 294.129C542.094 294.129 543.143 293.297 543.149 292.101C543.143 291.187 542.557 290.63 541.355 290.366L540.277 290.144C539.632 289.991 539.369 289.745 539.374 289.417C539.369 288.983 539.837 288.661 540.476 288.667C541.109 288.661 541.508 288.971 541.602 289.452ZM543.993 292.207C543.993 293.467 544.913 294.129 546.126 294.129C547.128 294.129 547.72 293.66 548.002 293.121H548.048V294H549.479V289.745C549.479 288.051 548.084 287.553 546.876 287.553C545.282 287.553 544.309 288.368 544.204 289.452H545.646C545.763 288.995 546.173 288.69 546.841 288.69C547.585 288.69 547.99 289.053 547.99 289.686L547.996 290.196C547.714 290.208 546.806 290.249 546.361 290.284C545.183 290.36 543.993 290.777 543.993 292.207ZM545.435 292.195C545.435 291.638 545.886 291.339 546.595 291.281C546.894 291.257 547.726 291.204 547.996 291.193L548.002 291.714C548.002 292.429 547.421 293.027 546.513 293.027C545.886 293.027 545.435 292.746 545.435 292.195ZM550.955 294H552.421V292.992H552.514C552.749 293.461 553.241 294.111 554.343 294.117C555.838 294.111 556.963 292.916 556.969 290.823C556.963 288.702 555.802 287.553 554.331 287.553C553.206 287.553 552.743 288.227 552.514 288.678H552.456V285.514H550.955V294ZM552.421 290.812C552.421 289.575 552.954 288.778 553.921 288.772C554.929 288.778 555.439 289.628 555.445 290.812C555.439 292.013 554.917 292.886 553.921 292.886C552.966 292.886 552.421 292.054 552.421 290.812ZM559.641 285.514H558.141V294H559.641V285.514ZM563.896 294.129C565.373 294.129 566.393 293.402 566.663 292.3H565.197C565.004 292.681 564.564 292.963 563.908 292.957C562.941 292.963 562.302 292.318 562.279 291.234H566.721V290.765C566.721 288.532 565.373 287.553 563.814 287.553C561.997 287.553 560.802 288.889 560.802 290.859C560.802 292.851 561.98 294.129 563.896 294.129ZM562.284 290.214C562.337 289.405 562.941 288.714 563.838 288.714C564.699 288.714 565.285 289.346 565.291 290.214H562.284ZM570.249 294.117C571.351 294.111 571.838 293.461 572.078 292.992H572.16V294H573.625V285.514H572.137V288.678H572.078C571.849 288.227 571.38 287.553 570.261 287.553C568.784 287.553 567.624 288.702 567.624 290.823C567.624 292.916 568.755 294.111 570.249 294.117ZM569.148 290.812C569.148 289.628 569.663 288.778 570.66 288.772C571.632 288.778 572.172 289.575 572.172 290.812C572.172 292.054 571.627 292.886 570.66 292.886C569.675 292.886 569.148 292.013 569.148 290.812Z" fill="#898989"/>
<rect x="528" y="450" width="84" height="84" rx="4" fill="#C4C4C4"/>
<path d="M585 499.2V507H577.2V512.2H585V520H590.2V512.2H598V507H590.2V499.2H585ZM572.78 514.8H551.2C548.34 514.8 546 512.46 546 509.6V473.2C546 470.34 548.34 468 551.2 468H587.6C590.46 468 592.8 470.34 592.8 473.2V494.78C591.24 494.26 589.42 494 587.6 494C584.74 494 581.88 494.78 579.54 496.34L575.9 491.4L566.8 503.1L560.3 495.3L551.2 507H572.26C572 507.78 572 508.82 572 509.6C572 511.42 572.26 513.24 572.78 514.8Z" fill="white"/>
<path d="M529.669 431C532.248 431 533.777 429.4 533.783 426.745C533.777 424.102 532.248 422.514 529.716 422.514H526.785V431H529.669ZM528.309 429.675V423.838H529.634C531.363 423.832 532.259 424.799 532.259 426.745C532.259 428.703 531.363 429.681 529.587 429.675H528.309ZM535.061 431H536.561V424.635H535.061V431ZM534.955 422.912C534.955 423.363 535.348 423.727 535.823 423.733C536.297 423.727 536.69 423.363 536.69 422.912C536.69 422.467 536.297 422.103 535.823 422.103C535.348 422.103 534.955 422.467 534.955 422.912ZM541.602 426.452H543.02C542.909 425.297 541.971 424.553 540.453 424.553C538.9 424.553 537.88 425.321 537.886 426.499C537.88 427.407 538.495 428.029 539.679 428.269L540.699 428.492C541.332 428.626 541.619 428.861 541.625 429.23C541.619 429.705 541.15 429.998 540.429 429.992C539.732 429.998 539.31 429.728 539.222 429.183H537.698C537.856 430.402 538.812 431.129 540.429 431.129C542.094 431.129 543.143 430.297 543.149 429.101C543.143 428.187 542.557 427.63 541.355 427.366L540.277 427.144C539.632 426.991 539.369 426.745 539.374 426.417C539.369 425.983 539.837 425.661 540.476 425.667C541.109 425.661 541.508 425.971 541.602 426.452ZM543.993 429.207C543.993 430.467 544.913 431.129 546.126 431.129C547.128 431.129 547.72 430.66 548.002 430.121H548.048V431H549.479V426.745C549.479 425.051 548.084 424.553 546.876 424.553C545.282 424.553 544.309 425.368 544.204 426.452H545.646C545.763 425.995 546.173 425.69 546.841 425.69C547.585 425.69 547.99 426.053 547.99 426.686L547.996 427.196C547.714 427.208 546.806 427.249 546.361 427.284C545.183 427.36 543.993 427.777 543.993 429.207ZM545.435 429.195C545.435 428.638 545.886 428.339 546.595 428.281C546.894 428.257 547.726 428.204 547.996 428.193L548.002 428.714C548.002 429.429 547.421 430.027 546.513 430.027C545.886 430.027 545.435 429.746 545.435 429.195ZM550.955 431H552.421V429.992H552.514C552.749 430.461 553.241 431.111 554.343 431.117C555.838 431.111 556.963 429.916 556.969 427.823C556.963 425.702 555.802 424.553 554.331 424.553C553.206 424.553 552.743 425.227 552.514 425.678H552.456V422.514H550.955V431ZM552.421 427.812C552.421 426.575 552.954 425.778 553.921 425.772C554.929 425.778 555.439 426.628 555.445 427.812C555.439 429.013 554.917 429.886 553.921 429.886C552.966 429.886 552.421 429.054 552.421 427.812ZM559.641 422.514H558.141V431H559.641V422.514ZM563.896 431.129C565.373 431.129 566.393 430.402 566.663 429.3H565.197C565.004 429.681 564.564 429.963 563.908 429.957C562.941 429.963 562.302 429.318 562.279 428.234H566.721V427.765C566.721 425.532 565.373 424.553 563.814 424.553C561.997 424.553 560.802 425.889 560.802 427.859C560.802 429.851 561.98 431.129 563.896 431.129ZM562.284 427.214C562.337 426.405 562.941 425.714 563.838 425.714C564.699 425.714 565.285 426.346 565.291 427.214H562.284ZM570.249 431.117C571.351 431.111 571.838 430.461 572.078 429.992H572.16V431H573.625V422.514H572.137V425.678H572.078C571.849 425.227 571.38 424.553 570.261 424.553C568.784 424.553 567.624 425.702 567.624 427.823C567.624 429.916 568.755 431.111 570.249 431.117ZM569.148 427.812C569.148 426.628 569.663 425.778 570.66 425.772C571.632 425.778 572.172 426.575 572.172 427.812C572.172 429.054 571.627 429.886 570.66 429.886C569.675 429.886 569.148 429.013 569.148 427.812Z" fill="#898989"/>
<rect x="949" y="318" width="139" height="4.00001" transform="rotate(180 949 318)" fill="#E11900" fill-opacity="0.1"/>
<rect x="950" y="406" width="139" height="4.00001" transform="rotate(180 950 406)" fill="#E11900" fill-opacity="0.1"/>
<rect x="927" y="431" width="139" height="4.00001" transform="rotate(-90 927 431)" fill="#E11900" fill-opacity="0.1"/>
<rect x="839" y="430" width="139" height="4.00001" transform="rotate(-90 839 430)" fill="#E11900" fill-opacity="0.1"/>
<path d="M835.387 288.917H842.697V292H844.489V288.917H846.592V287.272H844.489V276.92H842.177L835.387 287.376V288.917ZM837.407 287.272V287.147L842.51 279.295H842.697V287.272H837.407Z" fill="black"/>
<path d="M797.387 319.917H804.697V323H806.489V319.917H808.592V318.272H806.489V307.92H804.177L797.387 318.376V319.917ZM799.407 318.272V318.147L804.51 310.295H804.697V318.272H799.407Z" fill="black"/>
</svg>
