<svg width="1624" height="1610" viewBox="0 0 1624 1610" fill="none" xmlns="http://www.w3.org/2000/svg">
<rect width="1624" height="1610" rx="32" fill="#F5F5F5"/>
<line x1="75" y1="123.5" x2="1554" y2="123.5" stroke="#898989" stroke-opacity="0.3"/>
<line x1="94" y1="1506.5" x2="1536" y2="1506.5" stroke="#898989" stroke-opacity="0.3"/>
<path d="M94.3972 71.4948H101.501C101.402 65.1802 96.1978 60.7896 88.2799 60.7896C80.4606 60.7896 74.738 65.1062 74.7626 71.5935C74.7626 76.8228 78.4626 79.8321 84.4813 81.3121L88.3786 82.2494C92.2759 83.2114 94.4959 84.3461 94.4959 86.7881C94.4959 89.4521 91.9799 91.2774 88.0826 91.2774C84.1359 91.2774 81.2746 89.4521 81.0279 85.8507H73.8253C74.0473 93.522 79.5479 97.518 88.1812 97.4933C96.8885 97.518 101.97 93.3247 101.994 86.7881C101.97 80.8434 97.4065 77.7355 91.2892 76.3295L88.0826 75.5401C84.9992 74.8495 82.3353 73.6902 82.3599 71.1002C82.3846 68.7322 84.4813 67.0055 88.2306 67.0055C91.8565 67.0055 94.1012 68.6582 94.3972 71.4948ZM118.817 97.5427C125.428 97.518 129.868 94.3114 130.904 89.3534H123.948C123.232 90.9567 121.456 92.042 118.965 92.0667C115.191 92.042 112.798 89.5507 112.798 85.5054H131.101V83.4334C131.101 74.3068 125.551 69.8668 118.521 69.8668C110.677 69.8668 105.571 75.4661 105.596 83.7294C105.571 92.2147 110.603 97.518 118.817 97.5427ZM112.798 80.9174C112.946 77.8341 115.314 75.3181 118.669 75.3428C121.925 75.3181 124.17 77.6615 124.194 80.9174H112.798ZM134.406 89.5014C134.431 94.8047 138.205 97.518 143.336 97.4933C147.307 97.518 149.872 95.7667 151.179 93.3H151.377V97H158.283V78.9441C158.308 72.4815 152.783 69.8668 146.937 69.8668C139.833 69.8668 135.788 73.5175 135.344 78.1548H142.3C142.694 76.3295 144.248 75.2195 146.74 75.1948C149.477 75.2195 151.007 76.5021 151.031 78.7468V80.9174C149.897 80.9668 146.296 81.1394 144.372 81.2628C139.216 81.5834 134.431 83.5321 134.406 89.5014ZM141.412 89.3041C141.412 87.2321 143.015 86.0234 145.556 85.8014C146.789 85.7027 149.921 85.5301 151.031 85.4807V87.4294C151.056 90.266 148.737 92.4367 145.408 92.4614C143.064 92.4367 141.412 91.3514 141.412 89.3041ZM163.858 97H171.159V81.7561C171.135 78.4755 173.577 76.1815 176.882 76.1815C177.893 76.1815 179.299 76.3541 179.99 76.5761V70.0642C179.349 69.9162 178.411 69.8175 177.671 69.8175C174.662 69.8175 172.171 71.5688 171.209 74.8495H170.913V70.2122H163.858V97ZM194.741 97.5427C201.844 97.518 206.309 93.3494 206.63 87.2814H199.772C199.304 90.118 197.404 91.7214 194.839 91.7214C191.287 91.7214 189.018 88.7614 189.018 83.5814C189.018 78.5001 191.337 75.5648 194.839 75.5401C197.602 75.5648 199.328 77.3901 199.772 80.0294H206.63C206.334 73.8875 201.647 69.8668 194.741 69.8668C186.625 69.8668 181.593 75.4908 181.618 83.6801C181.593 91.8447 186.527 97.518 194.741 97.5427ZM218.47 81.5094C218.47 77.9821 220.616 75.9348 223.699 75.9348C226.758 75.9348 228.534 77.8835 228.534 81.2134V97H235.835V79.9308C235.835 73.6408 232.16 69.8668 226.56 69.8668C222.49 69.8668 219.802 71.7662 218.568 74.8988H218.272V61.2829H211.168V97H218.47V81.5094ZM241.607 97H256.752C264.818 97 269.061 92.8067 269.085 87.1334C269.061 81.8548 265.262 78.6481 261.241 78.4508V78.1055C264.917 77.2915 267.679 74.6521 267.655 70.4588C267.679 65.0815 263.683 61.2829 255.815 61.2829H241.607V97ZM249.007 90.8827V81.3121H255.469C259.12 81.3121 261.414 83.4334 261.389 86.4427C261.414 89.1314 259.564 90.9074 255.272 90.8827H249.007ZM249.007 76.2308V67.3015H254.877C258.257 67.3015 260.181 69.0529 260.156 71.6428C260.181 74.5041 257.837 76.2555 254.729 76.2308H249.007ZM272.341 89.5014C272.366 94.8047 276.14 97.518 281.271 97.4933C285.242 97.518 287.807 95.7667 289.115 93.3H289.312V97H296.219V78.9441C296.243 72.4815 290.718 69.8668 284.872 69.8668C277.768 69.8668 273.723 73.5175 273.279 78.1548H280.235C280.629 76.3295 282.183 75.2195 284.675 75.1948C287.413 75.2195 288.942 76.5021 288.967 78.7468V80.9174C287.832 80.9668 284.231 81.1394 282.307 81.2628C277.151 81.5834 272.366 83.5321 272.341 89.5014ZM279.347 89.3041C279.347 87.2321 280.95 86.0234 283.491 85.8014C284.724 85.7027 287.857 85.5301 288.967 85.4807V87.4294C288.991 90.266 286.673 92.4367 283.343 92.4614C280.999 92.4367 279.347 91.3514 279.347 89.3041ZM301.793 97H309.094V81.7561C309.07 78.4755 311.512 76.1815 314.817 76.1815C315.828 76.1815 317.234 76.3541 317.925 76.5761V70.0642C317.284 69.9162 316.346 69.8175 315.606 69.8175C312.597 69.8175 310.106 71.5688 309.144 74.8495H308.848V70.2122H301.793V97Z" fill="black"/>
<path d="M87.6047 203.646H91.6027C91.5471 200.092 88.6181 197.621 84.162 197.621C79.7615 197.621 76.5409 200.051 76.5548 203.702C76.5548 206.645 78.637 208.338 82.0242 209.171L84.2175 209.699C86.4109 210.24 87.6602 210.879 87.6602 212.253C87.6602 213.752 86.2443 214.779 84.051 214.779C81.8299 214.779 80.2196 213.752 80.0808 211.725H76.0273C76.1522 216.043 79.2478 218.292 84.1065 218.278C89.0068 218.292 91.8664 215.932 91.8803 212.253C91.8664 208.907 89.2983 207.158 85.8556 206.367L84.051 205.923C82.3157 205.534 80.8165 204.882 80.8304 203.424C80.8443 202.091 82.0242 201.12 84.1342 201.12C86.1749 201.12 87.4381 202.05 87.6047 203.646ZM102.458 202.924H99.6264V199.315H95.5174V202.924H93.4351V206.006H95.5174V213.947C95.4896 216.876 97.5163 218.208 100.487 218.194C101.5 218.208 102.236 218.125 102.68 218.056V214.807C102.181 214.849 101.459 214.89 101.042 214.89C100.209 214.863 99.6125 214.571 99.6264 213.363V206.006H102.458V202.924ZM104.318 213.78C104.332 216.765 106.456 218.292 109.344 218.278C111.579 218.292 113.022 217.306 113.758 215.918H113.869V218H117.756V207.838C117.77 204.201 114.66 202.73 111.37 202.73C107.372 202.73 105.096 204.784 104.846 207.394H108.761C108.983 206.367 109.857 205.742 111.259 205.728C112.8 205.742 113.661 206.464 113.675 207.727V208.949C113.036 208.977 111.009 209.074 109.927 209.143C107.025 209.324 104.332 210.421 104.318 213.78ZM108.261 213.669C108.261 212.503 109.163 211.823 110.593 211.698C111.287 211.642 113.05 211.545 113.675 211.517V212.614C113.689 214.21 112.384 215.432 110.51 215.446C109.191 215.432 108.261 214.821 108.261 213.669ZM128.834 202.924H126.002V199.315H121.893V202.924H119.811V206.006H121.893V213.947C121.865 216.876 123.892 218.208 126.863 218.194C127.876 218.208 128.612 218.125 129.056 218.056V214.807C128.556 214.849 127.834 214.89 127.418 214.89C126.585 214.863 125.988 214.571 126.002 213.363V206.006H128.834V202.924ZM138.079 218.305C141.799 218.292 144.298 216.487 144.881 213.697H140.966C140.564 214.599 139.564 215.21 138.162 215.224C136.038 215.21 134.692 213.808 134.692 211.531H144.992V210.365C144.992 205.229 141.869 202.73 137.912 202.73C133.498 202.73 130.625 205.881 130.638 210.532C130.625 215.307 133.456 218.292 138.079 218.305ZM134.692 208.949C134.775 207.214 136.108 205.798 137.996 205.812C139.828 205.798 141.091 207.117 141.105 208.949H134.692Z" fill="#898989"/>
<path d="M76.6936 794.899V815H80.7471V801.784H80.9137L86.161 814.917H88.9374L94.1847 801.84H94.3513V815H98.4048V794.899H93.2407L87.6602 808.531H87.4381L81.8576 794.899H76.6936ZM100.987 810.78C101.001 813.765 103.125 815.292 106.012 815.278C108.247 815.292 109.691 814.306 110.426 812.918H110.538V815H114.424V804.838C114.438 801.201 111.329 799.73 108.039 799.73C104.041 799.73 101.764 801.784 101.514 804.394H105.429C105.651 803.367 106.526 802.742 107.928 802.728C109.469 802.742 110.329 803.464 110.343 804.727V805.949C109.705 805.977 107.678 806.074 106.595 806.143C103.694 806.324 101.001 807.421 100.987 810.78ZM104.929 810.669C104.929 809.503 105.832 808.823 107.261 808.698C107.955 808.642 109.718 808.545 110.343 808.517V809.614C110.357 811.21 109.052 812.432 107.178 812.446C105.859 812.432 104.929 811.821 104.929 810.669ZM117.562 815H121.671V806.421C121.657 804.575 123.031 803.284 124.891 803.284C125.46 803.284 126.252 803.381 126.64 803.506V799.841C126.28 799.758 125.752 799.702 125.336 799.702C123.642 799.702 122.24 800.688 121.698 802.534H121.532V799.924H117.562V815ZM134.942 820.969C139.231 820.969 142.257 819.012 142.271 815.167V799.924H138.19V802.451H138.024C137.468 801.229 136.247 799.73 133.72 799.73C130.389 799.73 127.584 802.27 127.584 807.365C127.584 812.39 130.319 814.792 133.72 814.778C136.149 814.792 137.482 813.556 138.024 812.335H138.218V815.083C138.204 817.179 136.927 817.998 135.025 817.998C133.387 817.998 132.249 817.457 132.027 816.249H127.973C128.209 819.095 130.777 820.969 134.942 820.969ZM131.804 807.421C131.791 804.825 132.901 803.006 134.997 803.006C137.066 803.006 138.218 804.741 138.218 807.421C138.218 810.1 137.052 811.682 134.997 811.696C132.915 811.682 131.791 810.03 131.804 807.421ZM145.464 815H149.573V799.924H145.464V815ZM145.27 795.871C145.27 797.009 146.283 797.953 147.519 797.953C148.74 797.953 149.754 797.009 149.74 795.871C149.754 794.705 148.74 793.775 147.519 793.761C146.283 793.775 145.27 794.705 145.27 795.871ZM156.875 806.282C156.875 804.297 158.055 803.145 159.762 803.145C161.47 803.145 162.469 804.255 162.483 806.116V815H166.565V805.394C166.578 801.882 164.524 799.73 161.373 799.73C159.138 799.73 157.528 800.827 156.847 802.562H156.681V799.924H152.766V815H156.875V806.282ZM182.445 815.305C184.208 815.292 186.124 814.792 187.596 813.612L188.831 815H193.134L190.108 811.53C191.219 810.058 191.927 807.948 191.913 805.227H188.498C188.498 806.532 188.179 807.712 187.651 808.698L184.292 804.838L185.472 803.978C187.165 802.77 188.151 801.243 188.137 799.341C188.151 796.801 186.166 794.635 182.945 794.621C179.655 794.635 177.476 796.87 177.476 799.786C177.476 801.562 178.35 803.048 179.405 804.394C177.212 805.907 175.727 807.323 175.727 809.669C175.727 812.834 178.281 815.292 182.445 815.305ZM179.725 809.447C179.725 808.67 180.252 807.768 181.39 806.949L181.529 806.851L185.374 811.141C184.514 811.682 183.57 811.974 182.64 811.974C180.863 811.988 179.725 810.891 179.725 809.447ZM181.002 799.841C181.016 798.814 181.793 797.953 182.973 797.953C184.153 797.939 184.847 798.786 184.833 799.563C184.847 800.438 184.375 801.146 183.362 801.784L182.307 802.492C181.543 801.521 181.016 800.674 181.002 799.841ZM201.297 820.664H205.406V812.585H205.517C206.1 813.834 207.363 815.25 209.82 815.25C213.263 815.25 215.942 812.515 215.928 807.476C215.942 802.312 213.152 799.73 209.82 799.73C207.28 799.73 206.086 801.229 205.517 802.451H205.35V799.924H201.297V820.664ZM205.323 807.448C205.309 804.741 206.461 803.006 208.516 803.006C210.639 803.006 211.75 804.825 211.736 807.448C211.75 810.114 210.612 811.96 208.516 811.974C206.475 811.96 205.309 810.169 205.323 807.448ZM217.872 810.78C217.886 813.765 220.01 815.292 222.897 815.278C225.132 815.292 226.576 814.306 227.311 812.918H227.423V815H231.309V804.838C231.323 801.201 228.214 799.73 224.924 799.73C220.926 799.73 218.649 801.784 218.399 804.394H222.314C222.536 803.367 223.411 802.742 224.813 802.728C226.354 802.742 227.214 803.464 227.228 804.727V805.949C226.59 805.977 224.563 806.074 223.48 806.143C220.579 806.324 217.886 807.421 217.872 810.78ZM221.814 810.669C221.814 809.503 222.717 808.823 224.146 808.698C224.841 808.642 226.604 808.545 227.228 808.517V809.614C227.242 811.21 225.937 812.432 224.063 812.446C222.744 812.432 221.814 811.821 221.814 810.669ZM239.999 815.25C242.457 815.25 243.706 813.834 244.275 812.585H244.469V815H248.523V794.899H244.414V802.451H244.275C243.734 801.229 242.526 799.73 239.999 799.73C236.668 799.73 233.864 802.312 233.864 807.476C233.864 812.515 236.557 815.25 239.999 815.25ZM238.084 807.448C238.07 804.825 239.18 803.006 241.277 803.006C243.345 803.006 244.497 804.741 244.497 807.448C244.497 810.169 243.331 811.96 241.277 811.974C239.194 811.96 238.07 810.114 238.084 807.448ZM257.38 815.25C259.837 815.25 261.086 813.834 261.655 812.585H261.85V815H265.903V794.899H261.794V802.451H261.655C261.114 801.229 259.906 799.73 257.38 799.73C254.048 799.73 251.244 802.312 251.244 807.476C251.244 812.515 253.937 815.25 257.38 815.25ZM255.464 807.448C255.45 804.825 256.561 803.006 258.657 803.006C260.725 803.006 261.877 804.741 261.877 807.448C261.877 810.169 260.711 811.96 258.657 811.974C256.574 811.96 255.45 810.114 255.464 807.448ZM269.207 815H273.316V799.924H269.207V815ZM269.013 795.871C269.013 797.009 270.026 797.953 271.261 797.953C272.483 797.953 273.496 797.009 273.482 795.871C273.496 794.705 272.483 793.775 271.261 793.761C270.026 793.775 269.013 794.705 269.013 795.871ZM280.618 806.282C280.618 804.297 281.798 803.145 283.505 803.145C285.213 803.145 286.212 804.255 286.226 806.116V815H290.307V805.394C290.321 801.882 288.267 799.73 285.115 799.73C282.88 799.73 281.27 800.827 280.59 802.562H280.423V799.924H276.509V815H280.618V806.282ZM300.274 820.969C304.564 820.969 307.59 819.012 307.604 815.167V799.924H303.523V802.451H303.356C302.801 801.229 301.579 799.73 299.053 799.73C295.721 799.73 292.917 802.27 292.917 807.365C292.917 812.39 295.652 814.792 299.053 814.778C301.482 814.792 302.815 813.556 303.356 812.335H303.551V815.083C303.537 817.179 302.26 817.998 300.358 817.998C298.72 817.998 297.581 817.457 297.359 816.249H293.306C293.542 819.095 296.11 820.969 300.274 820.969ZM297.137 807.421C297.123 804.825 298.234 803.006 300.33 803.006C302.398 803.006 303.551 804.741 303.551 807.421C303.551 810.1 302.384 811.682 300.33 811.696C298.248 811.682 297.123 810.03 297.137 807.421Z" fill="#898989"/>
<path d="M1022.5 327V326.5H1022H84C77.0964 326.5 71.5 332.096 71.5 339V405C71.5 411.904 77.0965 417.5 84 417.5H1022H1022.5V417V327Z" fill="white"/>
<path d="M117.25 378H118.656V373.891H121.109C123.742 373.891 124.953 372.289 124.953 370.281C124.953 368.266 123.742 366.688 121.094 366.688H117.25V378ZM118.656 372.641V367.938H121.031C122.852 367.938 123.555 368.93 123.562 370.281C123.555 371.625 122.852 372.641 121.047 372.641H118.656ZM128.094 366.688H126.75V378H128.094V366.688ZM129.828 375.594C129.828 377.25 131.109 378.195 132.719 378.203C134.195 378.195 134.969 377.414 135.25 376.844H135.312V378H136.641V372.406C136.648 369.734 134.562 369.406 133.453 369.406C131.578 369.406 130.25 370.352 130.078 371.719H131.484C131.672 371.07 132.32 370.578 133.391 370.578C134.672 370.578 135.312 371.203 135.312 372.281V372.969C134.93 372.977 133.562 373.055 133.016 373.094C131.547 373.203 129.828 373.648 129.828 375.594ZM131.172 375.656C131.18 374.727 131.953 374.297 133.172 374.219C133.578 374.195 134.914 374.094 135.312 374.07V374.922C135.312 375.992 134.469 377.008 132.953 377C131.922 377.008 131.18 376.555 131.172 375.656ZM142.266 378.172C144.148 378.18 145.398 377.016 145.609 375.5H144.266C144.031 376.43 143.266 376.969 142.266 376.969C140.727 376.969 139.742 375.711 139.734 373.75C139.742 371.844 140.75 370.594 142.266 370.594C143.398 370.594 144.07 371.305 144.266 372.078H145.609C145.398 370.477 144.039 369.406 142.234 369.406C139.93 369.406 138.391 371.219 138.391 373.797C138.391 376.344 139.859 378.18 142.266 378.172ZM150.828 378.172C152.578 378.18 153.836 377.305 154.234 376.016H152.797C152.484 376.539 151.844 376.984 150.828 376.984C149.32 376.984 148.273 376 148.203 374.203H154.359V373.641C154.367 370.5 152.484 369.406 150.703 369.406C148.398 369.406 146.859 371.219 146.859 373.828C146.859 376.43 148.375 378.18 150.828 378.172ZM148.211 373.062C148.305 371.75 149.234 370.594 150.703 370.594C152.102 370.594 152.992 371.648 153 373.062H148.211ZM157.453 372.906C157.453 371.438 158.391 370.609 159.656 370.609C160.875 370.609 161.609 371.367 161.609 372.703V378H162.953V372.609C162.953 370.43 161.797 369.406 160.062 369.406C158.719 369.406 157.961 369.969 157.562 370.844H157.453V366.688H156.109V378H157.453V372.906ZM168.578 378.172C170.883 378.18 172.43 376.43 172.422 373.797C172.43 371.148 170.883 369.406 168.578 369.406C166.266 369.406 164.703 371.148 164.703 373.797C164.703 376.43 166.266 378.18 168.578 378.172ZM166.047 373.797C166.055 372.109 166.852 370.594 168.578 370.594C170.289 370.594 171.078 372.109 171.078 373.797C171.078 375.492 170.289 376.984 168.578 376.984C166.852 376.984 166.055 375.492 166.047 373.797ZM175.531 366.688H174.188V378H175.531V366.688ZM180.875 378.172C182.492 378.18 183.047 377.172 183.344 376.703H183.484V378H184.797V366.688H183.438V370.859H183.344C183.055 370.406 182.539 369.406 180.891 369.406C178.758 369.406 177.266 371.094 177.266 373.781C177.266 376.477 178.758 378.18 180.875 378.172ZM178.625 373.75C178.625 371.977 179.43 370.609 181.062 370.609C182.641 370.609 183.477 371.867 183.484 373.75C183.477 375.656 182.617 376.969 181.062 376.969C179.453 376.969 178.625 375.555 178.625 373.75ZM190.688 378.172C192.438 378.18 193.695 377.305 194.094 376.016H192.656C192.344 376.539 191.703 376.984 190.688 376.984C189.18 376.984 188.133 376 188.062 374.203H194.219V373.641C194.227 370.5 192.344 369.406 190.562 369.406C188.258 369.406 186.719 371.219 186.719 373.828C186.719 376.43 188.234 378.18 190.688 378.172ZM188.07 373.062C188.164 371.75 189.094 370.594 190.562 370.594C191.961 370.594 192.852 371.648 192.859 373.062H188.07ZM195.969 378H197.312V372.656C197.312 371.516 198.219 370.672 199.438 370.672C199.789 370.672 200.148 370.742 200.25 370.766V369.406C200.094 369.391 199.75 369.383 199.547 369.375C198.547 369.383 197.664 369.953 197.359 370.812H197.266V369.516H195.969V378Z" fill="#A6A6A6"/>
<path d="M1022.5 327V326.5H1022H84C77.0964 326.5 71.5 332.096 71.5 339V405C71.5 411.904 77.0965 417.5 84 417.5H1022H1022.5V417V327Z" stroke="#898989"/>
<path d="M1022 326H1114C1120.63 326 1126 331.373 1126 338V406C1126 412.627 1120.63 418 1114 418H1022V326Z" fill="black"/>
<path d="M1071.5 363C1073.22 363 1074.88 363.685 1076.1 364.904C1077.32 366.123 1078 367.776 1078 369.5C1078 371.11 1077.41 372.59 1076.44 373.73L1076.71 374H1077.5L1082.5 379L1081 380.5L1076 375.5V374.71L1075.73 374.44C1074.59 375.41 1073.11 376 1071.5 376C1069.78 376 1068.12 375.315 1066.9 374.096C1065.68 372.877 1065 371.224 1065 369.5C1065 367.776 1065.68 366.123 1066.9 364.904C1068.12 363.685 1069.78 363 1071.5 363ZM1071.5 365C1069 365 1067 367 1067 369.5C1067 372 1069 374 1071.5 374C1074 374 1076 372 1076 369.5C1076 367 1074 365 1071.5 365Z" fill="white"/>
<path d="M75.9531 309H83.1719V307.062H78.2969V297.688H75.9531V309ZM84.2344 306.625C84.2422 308.305 85.4375 309.164 87.0625 309.156C88.3203 309.164 89.1328 308.609 89.5469 307.828H89.6094V309H91.7969V303.281C91.8047 301.234 90.0547 300.406 88.2031 300.406C85.9531 300.406 84.6719 301.562 84.5312 303.031H86.7344C86.8594 302.453 87.3516 302.102 88.1406 302.094C89.0078 302.102 89.4922 302.508 89.5 303.219V303.906C89.1406 303.922 88 303.977 87.3906 304.016C85.7578 304.117 84.2422 304.734 84.2344 306.625ZM86.4531 306.562C86.4531 305.906 86.9609 305.523 87.7656 305.453C88.1562 305.422 89.1484 305.367 89.5 305.352V305.969C89.5078 306.867 88.7734 307.555 87.7188 307.562C86.9766 307.555 86.4531 307.211 86.4531 306.562ZM93.5625 309H95.875V304.172C95.8672 303.133 96.6406 302.406 97.6875 302.406C98.0078 302.406 98.4531 302.461 98.6719 302.531V300.469C98.4688 300.422 98.1719 300.391 97.9375 300.391C96.9844 300.391 96.1953 300.945 95.8906 301.984H95.7969V300.516H93.5625V309ZM103.344 312.359C105.758 312.359 107.461 311.258 107.469 309.094V300.516H105.172V301.938H105.078C104.766 301.25 104.078 300.406 102.656 300.406C100.781 300.406 99.2031 301.836 99.2031 304.703C99.2031 307.531 100.742 308.883 102.656 308.875C104.023 308.883 104.773 308.188 105.078 307.5H105.188V309.047C105.18 310.227 104.461 310.688 103.391 310.688C102.469 310.688 101.828 310.383 101.703 309.703H99.4219C99.5547 311.305 101 312.359 103.344 312.359ZM101.578 304.734C101.57 303.273 102.195 302.25 103.375 302.25C104.539 302.25 105.188 303.227 105.188 304.734C105.188 306.242 104.531 307.133 103.375 307.141C102.203 307.133 101.57 306.203 101.578 304.734ZM113.109 309.172C115.203 309.164 116.609 308.148 116.938 306.578H114.734C114.508 307.086 113.945 307.43 113.156 307.438C111.961 307.43 111.203 306.641 111.203 305.359H117V304.703C117 301.812 115.242 300.406 113.016 300.406C110.531 300.406 108.914 302.18 108.922 304.797C108.914 307.484 110.508 309.164 113.109 309.172ZM111.203 303.906C111.25 302.93 112 302.133 113.062 302.141C114.094 302.133 114.805 302.875 114.812 303.906H111.203Z" fill="#898989"/>
<path d="M1022.5 924V923.5H1022H84C77.0964 923.5 71.5 929.096 71.5 936V1002C71.5 1008.9 77.0965 1014.5 84 1014.5H1022H1022.5V1014V924Z" fill="white"/>
<path d="M117.25 975H118.656V970.891H121.109C123.742 970.891 124.953 969.289 124.953 967.281C124.953 965.266 123.742 963.688 121.094 963.688H117.25V975ZM118.656 969.641V964.938H121.031C122.852 964.938 123.555 965.93 123.562 967.281C123.555 968.625 122.852 969.641 121.047 969.641H118.656ZM128.094 963.688H126.75V975H128.094V963.688ZM129.828 972.594C129.828 974.25 131.109 975.195 132.719 975.203C134.195 975.195 134.969 974.414 135.25 973.844H135.312V975H136.641V969.406C136.648 966.734 134.562 966.406 133.453 966.406C131.578 966.406 130.25 967.352 130.078 968.719H131.484C131.672 968.07 132.32 967.578 133.391 967.578C134.672 967.578 135.312 968.203 135.312 969.281V969.969C134.93 969.977 133.562 970.055 133.016 970.094C131.547 970.203 129.828 970.648 129.828 972.594ZM131.172 972.656C131.18 971.727 131.953 971.297 133.172 971.219C133.578 971.195 134.914 971.094 135.312 971.07V971.922C135.312 972.992 134.469 974.008 132.953 974C131.922 974.008 131.18 973.555 131.172 972.656ZM142.266 975.172C144.148 975.18 145.398 974.016 145.609 972.5H144.266C144.031 973.43 143.266 973.969 142.266 973.969C140.727 973.969 139.742 972.711 139.734 970.75C139.742 968.844 140.75 967.594 142.266 967.594C143.398 967.594 144.07 968.305 144.266 969.078H145.609C145.398 967.477 144.039 966.406 142.234 966.406C139.93 966.406 138.391 968.219 138.391 970.797C138.391 973.344 139.859 975.18 142.266 975.172ZM150.828 975.172C152.578 975.18 153.836 974.305 154.234 973.016H152.797C152.484 973.539 151.844 973.984 150.828 973.984C149.32 973.984 148.273 973 148.203 971.203H154.359V970.641C154.367 967.5 152.484 966.406 150.703 966.406C148.398 966.406 146.859 968.219 146.859 970.828C146.859 973.43 148.375 975.18 150.828 975.172ZM148.211 970.062C148.305 968.75 149.234 967.594 150.703 967.594C152.102 967.594 152.992 968.648 153 970.062H148.211ZM157.453 969.906C157.453 968.438 158.391 967.609 159.656 967.609C160.875 967.609 161.609 968.367 161.609 969.703V975H162.953V969.609C162.953 967.43 161.797 966.406 160.062 966.406C158.719 966.406 157.961 966.969 157.562 967.844H157.453V963.688H156.109V975H157.453V969.906ZM168.578 975.172C170.883 975.18 172.43 973.43 172.422 970.797C172.43 968.148 170.883 966.406 168.578 966.406C166.266 966.406 164.703 968.148 164.703 970.797C164.703 973.43 166.266 975.18 168.578 975.172ZM166.047 970.797C166.055 969.109 166.852 967.594 168.578 967.594C170.289 967.594 171.078 969.109 171.078 970.797C171.078 972.492 170.289 973.984 168.578 973.984C166.852 973.984 166.055 972.492 166.047 970.797ZM175.531 963.688H174.188V975H175.531V963.688ZM180.875 975.172C182.492 975.18 183.047 974.172 183.344 973.703H183.484V975H184.797V963.688H183.438V967.859H183.344C183.055 967.406 182.539 966.406 180.891 966.406C178.758 966.406 177.266 968.094 177.266 970.781C177.266 973.477 178.758 975.18 180.875 975.172ZM178.625 970.75C178.625 968.977 179.43 967.609 181.062 967.609C182.641 967.609 183.477 968.867 183.484 970.75C183.477 972.656 182.617 973.969 181.062 973.969C179.453 973.969 178.625 972.555 178.625 970.75ZM190.688 975.172C192.438 975.18 193.695 974.305 194.094 973.016H192.656C192.344 973.539 191.703 973.984 190.688 973.984C189.18 973.984 188.133 973 188.062 971.203H194.219V970.641C194.227 967.5 192.344 966.406 190.562 966.406C188.258 966.406 186.719 968.219 186.719 970.828C186.719 973.43 188.234 975.18 190.688 975.172ZM188.07 970.062C188.164 968.75 189.094 967.594 190.562 967.594C191.961 967.594 192.852 968.648 192.859 970.062H188.07ZM195.969 975H197.312V969.656C197.312 968.516 198.219 967.672 199.438 967.672C199.789 967.672 200.148 967.742 200.25 967.766V966.406C200.094 966.391 199.75 966.383 199.547 966.375C198.547 966.383 197.664 966.953 197.359 967.812H197.266V966.516H195.969V975Z" fill="#A6A6A6"/>
<path d="M1022.5 924V923.5H1022H84C77.0964 923.5 71.5 929.096 71.5 936V1002C71.5 1008.9 77.0965 1014.5 84 1014.5H1022H1022.5V1014V924Z" stroke="#898989"/>
<path d="M1022 923H1114C1120.63 923 1126 928.373 1126 935V1003C1126 1009.63 1120.63 1015 1114 1015H1022V923Z" fill="#6B6B6B"/>
<path d="M1071.5 960C1073.22 960 1074.88 960.685 1076.1 961.904C1077.32 963.123 1078 964.776 1078 966.5C1078 968.11 1077.41 969.59 1076.44 970.73L1076.71 971H1077.5L1082.5 976L1081 977.5L1076 972.5V971.71L1075.73 971.44C1074.59 972.41 1073.11 973 1071.5 973C1069.78 973 1068.12 972.315 1066.9 971.096C1065.68 969.877 1065 968.224 1065 966.5C1065 964.776 1065.68 963.123 1066.9 961.904C1068.12 960.685 1069.78 960 1071.5 960ZM1071.5 962C1069 962 1067 964 1067 966.5C1067 969 1069 971 1071.5 971C1074 971 1076 969 1076 966.5C1076 964 1074 962 1071.5 962Z" fill="white"/>
<rect x="72" y="923" width="950" height="32" fill="#E11900" fill-opacity="0.1"/>
<rect x="72" y="982" width="950" height="32" fill="#E11900" fill-opacity="0.1"/>
<rect x="72" y="923" width="44" height="125" fill="#E11900" fill-opacity="0.1"/>
<rect x="1022" y="923" width="40" height="92" fill="#E11900" fill-opacity="0.1"/>
<rect x="982" y="923" width="40" height="92" fill="#E11900" fill-opacity="0.1"/>
<rect x="1086" y="889" width="40" height="126" fill="#E11900" fill-opacity="0.1"/>
<rect x="1022" y="955" width="32" height="104" transform="rotate(-90 1022 955)" fill="#E11900" fill-opacity="0.1"/>
<rect x="1022" y="1014" width="32" height="157" transform="rotate(-90 1022 1014)" fill="#E11900" fill-opacity="0.1"/>
<path d="M75.9531 906H83.1719V904.062H78.2969V894.688H75.9531V906ZM84.2344 903.625C84.2422 905.305 85.4375 906.164 87.0625 906.156C88.3203 906.164 89.1328 905.609 89.5469 904.828H89.6094V906H91.7969V900.281C91.8047 898.234 90.0547 897.406 88.2031 897.406C85.9531 897.406 84.6719 898.562 84.5312 900.031H86.7344C86.8594 899.453 87.3516 899.102 88.1406 899.094C89.0078 899.102 89.4922 899.508 89.5 900.219V900.906C89.1406 900.922 88 900.977 87.3906 901.016C85.7578 901.117 84.2422 901.734 84.2344 903.625ZM86.4531 903.562C86.4531 902.906 86.9609 902.523 87.7656 902.453C88.1562 902.422 89.1484 902.367 89.5 902.352V902.969C89.5078 903.867 88.7734 904.555 87.7188 904.562C86.9766 904.555 86.4531 904.211 86.4531 903.562ZM93.5625 906H95.875V901.172C95.8672 900.133 96.6406 899.406 97.6875 899.406C98.0078 899.406 98.4531 899.461 98.6719 899.531V897.469C98.4688 897.422 98.1719 897.391 97.9375 897.391C96.9844 897.391 96.1953 897.945 95.8906 898.984H95.7969V897.516H93.5625V906ZM103.344 909.359C105.758 909.359 107.461 908.258 107.469 906.094V897.516H105.172V898.938H105.078C104.766 898.25 104.078 897.406 102.656 897.406C100.781 897.406 99.2031 898.836 99.2031 901.703C99.2031 904.531 100.742 905.883 102.656 905.875C104.023 905.883 104.773 905.188 105.078 904.5H105.188V906.047C105.18 907.227 104.461 907.688 103.391 907.688C102.469 907.688 101.828 907.383 101.703 906.703H99.4219C99.5547 908.305 101 909.359 103.344 909.359ZM101.578 901.734C101.57 900.273 102.195 899.25 103.375 899.25C104.539 899.25 105.188 900.227 105.188 901.734C105.188 903.242 104.531 904.133 103.375 904.141C102.203 904.133 101.57 903.203 101.578 901.734ZM113.109 906.172C115.203 906.164 116.609 905.148 116.938 903.578H114.734C114.508 904.086 113.945 904.43 113.156 904.438C111.961 904.43 111.203 903.641 111.203 902.359H117V901.703C117 898.812 115.242 897.406 113.016 897.406C110.531 897.406 108.914 899.18 108.922 901.797C108.914 904.484 110.508 906.164 113.109 906.172ZM111.203 900.906C111.25 899.93 112 899.133 113.062 899.141C114.094 899.133 114.805 899.875 114.812 900.906H111.203Z" fill="#898989"/>
<path d="M712.5 483V482.5H712H84C77.0964 482.5 71.5 488.096 71.5 495V545C71.5 551.904 77.0964 557.5 84 557.5H712H712.5V557V483Z" fill="white"/>
<path d="M105.25 526H106.656V521.891H109.109C111.742 521.891 112.953 520.289 112.953 518.281C112.953 516.266 111.742 514.688 109.094 514.688H105.25V526ZM106.656 520.641V515.938H109.031C110.852 515.938 111.555 516.93 111.562 518.281C111.555 519.625 110.852 520.641 109.047 520.641H106.656ZM116.094 514.688H114.75V526H116.094V514.688ZM117.828 523.594C117.828 525.25 119.109 526.195 120.719 526.203C122.195 526.195 122.969 525.414 123.25 524.844H123.312V526H124.641V520.406C124.648 517.734 122.562 517.406 121.453 517.406C119.578 517.406 118.25 518.352 118.078 519.719H119.484C119.672 519.07 120.32 518.578 121.391 518.578C122.672 518.578 123.312 519.203 123.312 520.281V520.969C122.93 520.977 121.562 521.055 121.016 521.094C119.547 521.203 117.828 521.648 117.828 523.594ZM119.172 523.656C119.18 522.727 119.953 522.297 121.172 522.219C121.578 522.195 122.914 522.094 123.312 522.07V522.922C123.312 523.992 122.469 525.008 120.953 525C119.922 525.008 119.18 524.555 119.172 523.656ZM130.266 526.172C132.148 526.18 133.398 525.016 133.609 523.5H132.266C132.031 524.43 131.266 524.969 130.266 524.969C128.727 524.969 127.742 523.711 127.734 521.75C127.742 519.844 128.75 518.594 130.266 518.594C131.398 518.594 132.07 519.305 132.266 520.078H133.609C133.398 518.477 132.039 517.406 130.234 517.406C127.93 517.406 126.391 519.219 126.391 521.797C126.391 524.344 127.859 526.18 130.266 526.172ZM138.828 526.172C140.578 526.18 141.836 525.305 142.234 524.016H140.797C140.484 524.539 139.844 524.984 138.828 524.984C137.32 524.984 136.273 524 136.203 522.203H142.359V521.641C142.367 518.5 140.484 517.406 138.703 517.406C136.398 517.406 134.859 519.219 134.859 521.828C134.859 524.43 136.375 526.18 138.828 526.172ZM136.211 521.062C136.305 519.75 137.234 518.594 138.703 518.594C140.102 518.594 140.992 519.648 141 521.062H136.211ZM145.453 520.906C145.453 519.438 146.391 518.609 147.656 518.609C148.875 518.609 149.609 519.367 149.609 520.703V526H150.953V520.609C150.953 518.43 149.797 517.406 148.062 517.406C146.719 517.406 145.961 517.969 145.562 518.844H145.453V514.688H144.109V526H145.453V520.906ZM156.578 526.172C158.883 526.18 160.43 524.43 160.422 521.797C160.43 519.148 158.883 517.406 156.578 517.406C154.266 517.406 152.703 519.148 152.703 521.797C152.703 524.43 154.266 526.18 156.578 526.172ZM154.047 521.797C154.055 520.109 154.852 518.594 156.578 518.594C158.289 518.594 159.078 520.109 159.078 521.797C159.078 523.492 158.289 524.984 156.578 524.984C154.852 524.984 154.055 523.492 154.047 521.797ZM163.531 514.688H162.188V526H163.531V514.688ZM168.875 526.172C170.492 526.18 171.047 525.172 171.344 524.703H171.484V526H172.797V514.688H171.438V518.859H171.344C171.055 518.406 170.539 517.406 168.891 517.406C166.758 517.406 165.266 519.094 165.266 521.781C165.266 524.477 166.758 526.18 168.875 526.172ZM166.625 521.75C166.625 519.977 167.43 518.609 169.062 518.609C170.641 518.609 171.477 519.867 171.484 521.75C171.477 523.656 170.617 524.969 169.062 524.969C167.453 524.969 166.625 523.555 166.625 521.75ZM178.688 526.172C180.438 526.18 181.695 525.305 182.094 524.016H180.656C180.344 524.539 179.703 524.984 178.688 524.984C177.18 524.984 176.133 524 176.062 522.203H182.219V521.641C182.227 518.5 180.344 517.406 178.562 517.406C176.258 517.406 174.719 519.219 174.719 521.828C174.719 524.43 176.234 526.18 178.688 526.172ZM176.07 521.062C176.164 519.75 177.094 518.594 178.562 518.594C179.961 518.594 180.852 519.648 180.859 521.062H176.07ZM183.969 526H185.312V520.656C185.312 519.516 186.219 518.672 187.438 518.672C187.789 518.672 188.148 518.742 188.25 518.766V517.406C188.094 517.391 187.75 517.383 187.547 517.375C186.547 517.383 185.664 517.953 185.359 518.812H185.266V517.516H183.969V526Z" fill="#A6A6A6"/>
<path d="M712.5 483V482.5H712H84C77.0964 482.5 71.5 488.096 71.5 495V545C71.5 551.904 77.0964 557.5 84 557.5H712H712.5V557V483Z" stroke="#898989"/>
<path d="M712 482H804C810.627 482 816 487.373 816 494V546C816 552.627 810.627 558 804 558H712V482Z" fill="black"/>
<path d="M761.5 511C763.224 511 764.877 511.685 766.096 512.904C767.315 514.123 768 515.776 768 517.5C768 519.11 767.41 520.59 766.44 521.73L766.71 522H767.5L772.5 527L771 528.5L766 523.5V522.71L765.73 522.44C764.59 523.41 763.11 524 761.5 524C759.776 524 758.123 523.315 756.904 522.096C755.685 520.877 755 519.224 755 517.5C755 515.776 755.685 514.123 756.904 512.904C758.123 511.685 759.776 511 761.5 511ZM761.5 513C759 513 757 515 757 517.5C757 520 759 522 761.5 522C764 522 766 520 766 517.5C766 515 764 513 761.5 513Z" fill="white"/>
<path d="M75.9531 455.688V467H78.2344V459.562H78.3281L81.2812 466.953H82.8438L85.7969 459.594H85.8906V467H88.1719V455.688H85.2656L82.125 463.359H82L78.8594 455.688H75.9531ZM93.875 467.172C95.9688 467.164 97.375 466.148 97.7031 464.578H95.5C95.2734 465.086 94.7109 465.43 93.9219 465.438C92.7266 465.43 91.9688 464.641 91.9688 463.359H97.7656V462.703C97.7656 459.812 96.0078 458.406 93.7812 458.406C91.2969 458.406 89.6797 460.18 89.6875 462.797C89.6797 465.484 91.2734 467.164 93.875 467.172ZM91.9688 461.906C92.0156 460.93 92.7656 460.133 93.8281 460.141C94.8594 460.133 95.5703 460.875 95.5781 461.906H91.9688ZM102.344 467.141C103.727 467.141 104.43 466.344 104.75 465.641H104.859V467H107.141V455.688H104.828V459.938H104.75C104.445 459.25 103.766 458.406 102.344 458.406C100.469 458.406 98.8906 459.859 98.8906 462.766C98.8906 465.602 100.406 467.141 102.344 467.141ZM101.266 462.75C101.258 461.273 101.883 460.25 103.062 460.25C104.227 460.25 104.875 461.227 104.875 462.75C104.875 464.281 104.219 465.289 103.062 465.297C101.891 465.289 101.258 464.25 101.266 462.75ZM109 467H111.312V458.516H109V467ZM108.891 456.234C108.891 456.875 109.461 457.406 110.156 457.406C110.844 457.406 111.414 456.875 111.406 456.234C111.414 455.578 110.844 455.055 110.156 455.047C109.461 455.055 108.891 455.578 108.891 456.234ZM118.547 463.391C118.547 464.547 117.75 465.148 116.906 465.156C116 465.148 115.422 464.523 115.422 463.516V458.516H113.109V463.922C113.109 465.906 114.273 467.109 115.969 467.109C117.25 467.109 118.164 466.453 118.547 465.469H118.641V467H120.859V458.516H118.547V463.391ZM122.656 467H124.969V461.906C124.961 460.945 125.57 460.312 126.359 460.312C127.148 460.312 127.68 460.852 127.672 461.688V467H129.922V461.812C129.914 460.914 130.43 460.312 131.297 460.312C132.055 460.312 132.633 460.781 132.625 461.75V467H134.938V461.297C134.938 459.445 133.836 458.406 132.266 458.406C131.023 458.406 130.055 459.039 129.703 460H129.625C129.344 459.023 128.477 458.406 127.312 458.406C126.172 458.406 125.312 459.008 124.953 460H124.859V458.516H122.656V467Z" fill="#898989"/>
<path d="M712.5 1145V1144.5H712H84C77.0964 1144.5 71.5 1150.1 71.5 1157V1207C71.5 1213.9 77.0964 1219.5 84 1219.5H712H712.5V1219V1145Z" fill="white"/>
<path d="M105.25 1188H106.656V1183.89H109.109C111.742 1183.89 112.953 1182.29 112.953 1180.28C112.953 1178.27 111.742 1176.69 109.094 1176.69H105.25V1188ZM106.656 1182.64V1177.94H109.031C110.852 1177.94 111.555 1178.93 111.562 1180.28C111.555 1181.62 110.852 1182.64 109.047 1182.64H106.656ZM116.094 1176.69H114.75V1188H116.094V1176.69ZM117.828 1185.59C117.828 1187.25 119.109 1188.2 120.719 1188.2C122.195 1188.2 122.969 1187.41 123.25 1186.84H123.312V1188H124.641V1182.41C124.648 1179.73 122.562 1179.41 121.453 1179.41C119.578 1179.41 118.25 1180.35 118.078 1181.72H119.484C119.672 1181.07 120.32 1180.58 121.391 1180.58C122.672 1180.58 123.312 1181.2 123.312 1182.28V1182.97C122.93 1182.98 121.562 1183.05 121.016 1183.09C119.547 1183.2 117.828 1183.65 117.828 1185.59ZM119.172 1185.66C119.18 1184.73 119.953 1184.3 121.172 1184.22C121.578 1184.2 122.914 1184.09 123.312 1184.07V1184.92C123.312 1185.99 122.469 1187.01 120.953 1187C119.922 1187.01 119.18 1186.55 119.172 1185.66ZM130.266 1188.17C132.148 1188.18 133.398 1187.02 133.609 1185.5H132.266C132.031 1186.43 131.266 1186.97 130.266 1186.97C128.727 1186.97 127.742 1185.71 127.734 1183.75C127.742 1181.84 128.75 1180.59 130.266 1180.59C131.398 1180.59 132.07 1181.3 132.266 1182.08H133.609C133.398 1180.48 132.039 1179.41 130.234 1179.41C127.93 1179.41 126.391 1181.22 126.391 1183.8C126.391 1186.34 127.859 1188.18 130.266 1188.17ZM138.828 1188.17C140.578 1188.18 141.836 1187.3 142.234 1186.02H140.797C140.484 1186.54 139.844 1186.98 138.828 1186.98C137.32 1186.98 136.273 1186 136.203 1184.2H142.359V1183.64C142.367 1180.5 140.484 1179.41 138.703 1179.41C136.398 1179.41 134.859 1181.22 134.859 1183.83C134.859 1186.43 136.375 1188.18 138.828 1188.17ZM136.211 1183.06C136.305 1181.75 137.234 1180.59 138.703 1180.59C140.102 1180.59 140.992 1181.65 141 1183.06H136.211ZM145.453 1182.91C145.453 1181.44 146.391 1180.61 147.656 1180.61C148.875 1180.61 149.609 1181.37 149.609 1182.7V1188H150.953V1182.61C150.953 1180.43 149.797 1179.41 148.062 1179.41C146.719 1179.41 145.961 1179.97 145.562 1180.84H145.453V1176.69H144.109V1188H145.453V1182.91ZM156.578 1188.17C158.883 1188.18 160.43 1186.43 160.422 1183.8C160.43 1181.15 158.883 1179.41 156.578 1179.41C154.266 1179.41 152.703 1181.15 152.703 1183.8C152.703 1186.43 154.266 1188.18 156.578 1188.17ZM154.047 1183.8C154.055 1182.11 154.852 1180.59 156.578 1180.59C158.289 1180.59 159.078 1182.11 159.078 1183.8C159.078 1185.49 158.289 1186.98 156.578 1186.98C154.852 1186.98 154.055 1185.49 154.047 1183.8ZM163.531 1176.69H162.188V1188H163.531V1176.69ZM168.875 1188.17C170.492 1188.18 171.047 1187.17 171.344 1186.7H171.484V1188H172.797V1176.69H171.438V1180.86H171.344C171.055 1180.41 170.539 1179.41 168.891 1179.41C166.758 1179.41 165.266 1181.09 165.266 1183.78C165.266 1186.48 166.758 1188.18 168.875 1188.17ZM166.625 1183.75C166.625 1181.98 167.43 1180.61 169.062 1180.61C170.641 1180.61 171.477 1181.87 171.484 1183.75C171.477 1185.66 170.617 1186.97 169.062 1186.97C167.453 1186.97 166.625 1185.55 166.625 1183.75ZM178.688 1188.17C180.438 1188.18 181.695 1187.3 182.094 1186.02H180.656C180.344 1186.54 179.703 1186.98 178.688 1186.98C177.18 1186.98 176.133 1186 176.062 1184.2H182.219V1183.64C182.227 1180.5 180.344 1179.41 178.562 1179.41C176.258 1179.41 174.719 1181.22 174.719 1183.83C174.719 1186.43 176.234 1188.18 178.688 1188.17ZM176.07 1183.06C176.164 1181.75 177.094 1180.59 178.562 1180.59C179.961 1180.59 180.852 1181.65 180.859 1183.06H176.07ZM183.969 1188H185.312V1182.66C185.312 1181.52 186.219 1180.67 187.438 1180.67C187.789 1180.67 188.148 1180.74 188.25 1180.77V1179.41C188.094 1179.39 187.75 1179.38 187.547 1179.38C186.547 1179.38 185.664 1179.95 185.359 1180.81H185.266V1179.52H183.969V1188Z" fill="#A6A6A6"/>
<path d="M712.5 1145V1144.5H712H84C77.0964 1144.5 71.5 1150.1 71.5 1157V1207C71.5 1213.9 77.0964 1219.5 84 1219.5H712H712.5V1219V1145Z" stroke="#898989"/>
<path d="M712 1144H804C810.627 1144 816 1149.37 816 1156V1208C816 1214.63 810.627 1220 804 1220H712V1144Z" fill="#898989"/>
<path d="M761.5 1173C763.224 1173 764.877 1173.68 766.096 1174.9C767.315 1176.12 768 1177.78 768 1179.5C768 1181.11 767.41 1182.59 766.44 1183.73L766.71 1184H767.5L772.5 1189L771 1190.5L766 1185.5V1184.71L765.73 1184.44C764.59 1185.41 763.11 1186 761.5 1186C759.776 1186 758.123 1185.32 756.904 1184.1C755.685 1182.88 755 1181.22 755 1179.5C755 1177.78 755.685 1176.12 756.904 1174.9C758.123 1173.68 759.776 1173 761.5 1173ZM761.5 1175C759 1175 757 1177 757 1179.5C757 1182 759 1184 761.5 1184C764 1184 766 1182 766 1179.5C766 1177 764 1175 761.5 1175Z" fill="white"/>
<path d="M75.9531 1117.69V1129H78.2344V1121.56H78.3281L81.2812 1128.95H82.8438L85.7969 1121.59H85.8906V1129H88.1719V1117.69H85.2656L82.125 1125.36H82L78.8594 1117.69H75.9531ZM93.875 1129.17C95.9688 1129.16 97.375 1128.15 97.7031 1126.58H95.5C95.2734 1127.09 94.7109 1127.43 93.9219 1127.44C92.7266 1127.43 91.9688 1126.64 91.9688 1125.36H97.7656V1124.7C97.7656 1121.81 96.0078 1120.41 93.7812 1120.41C91.2969 1120.41 89.6797 1122.18 89.6875 1124.8C89.6797 1127.48 91.2734 1129.16 93.875 1129.17ZM91.9688 1123.91C92.0156 1122.93 92.7656 1122.13 93.8281 1122.14C94.8594 1122.13 95.5703 1122.88 95.5781 1123.91H91.9688ZM102.344 1129.14C103.727 1129.14 104.43 1128.34 104.75 1127.64H104.859V1129H107.141V1117.69H104.828V1121.94H104.75C104.445 1121.25 103.766 1120.41 102.344 1120.41C100.469 1120.41 98.8906 1121.86 98.8906 1124.77C98.8906 1127.6 100.406 1129.14 102.344 1129.14ZM101.266 1124.75C101.258 1123.27 101.883 1122.25 103.062 1122.25C104.227 1122.25 104.875 1123.23 104.875 1124.75C104.875 1126.28 104.219 1127.29 103.062 1127.3C101.891 1127.29 101.258 1126.25 101.266 1124.75ZM109 1129H111.312V1120.52H109V1129ZM108.891 1118.23C108.891 1118.88 109.461 1119.41 110.156 1119.41C110.844 1119.41 111.414 1118.88 111.406 1118.23C111.414 1117.58 110.844 1117.05 110.156 1117.05C109.461 1117.05 108.891 1117.58 108.891 1118.23ZM118.547 1125.39C118.547 1126.55 117.75 1127.15 116.906 1127.16C116 1127.15 115.422 1126.52 115.422 1125.52V1120.52H113.109V1125.92C113.109 1127.91 114.273 1129.11 115.969 1129.11C117.25 1129.11 118.164 1128.45 118.547 1127.47H118.641V1129H120.859V1120.52H118.547V1125.39ZM122.656 1129H124.969V1123.91C124.961 1122.95 125.57 1122.31 126.359 1122.31C127.148 1122.31 127.68 1122.85 127.672 1123.69V1129H129.922V1123.81C129.914 1122.91 130.43 1122.31 131.297 1122.31C132.055 1122.31 132.633 1122.78 132.625 1123.75V1129H134.938V1123.3C134.938 1121.45 133.836 1120.41 132.266 1120.41C131.023 1120.41 130.055 1121.04 129.703 1122H129.625C129.344 1121.02 128.477 1120.41 127.312 1120.41C126.172 1120.41 125.312 1121.01 124.953 1122H124.859V1120.52H122.656V1129Z" fill="#898989"/>
<path d="M476.5 639V638.5H476H84C77.0964 638.5 71.5 644.096 71.5 651V685C71.5 691.904 77.0964 697.5 84 697.5H476H476.5V697V639Z" fill="white"/>
<path d="M121.25 674H122.656V669.891H125.109C127.742 669.891 128.953 668.289 128.953 666.281C128.953 664.266 127.742 662.688 125.094 662.688H121.25V674ZM122.656 668.641V663.938H125.031C126.852 663.938 127.555 664.93 127.562 666.281C127.555 667.625 126.852 668.641 125.047 668.641H122.656ZM132.094 662.688H130.75V674H132.094V662.688ZM133.828 671.594C133.828 673.25 135.109 674.195 136.719 674.203C138.195 674.195 138.969 673.414 139.25 672.844H139.312V674H140.641V668.406C140.648 665.734 138.562 665.406 137.453 665.406C135.578 665.406 134.25 666.352 134.078 667.719H135.484C135.672 667.07 136.32 666.578 137.391 666.578C138.672 666.578 139.312 667.203 139.312 668.281V668.969C138.93 668.977 137.562 669.055 137.016 669.094C135.547 669.203 133.828 669.648 133.828 671.594ZM135.172 671.656C135.18 670.727 135.953 670.297 137.172 670.219C137.578 670.195 138.914 670.094 139.312 670.07V670.922C139.312 671.992 138.469 673.008 136.953 673C135.922 673.008 135.18 672.555 135.172 671.656ZM146.266 674.172C148.148 674.18 149.398 673.016 149.609 671.5H148.266C148.031 672.43 147.266 672.969 146.266 672.969C144.727 672.969 143.742 671.711 143.734 669.75C143.742 667.844 144.75 666.594 146.266 666.594C147.398 666.594 148.07 667.305 148.266 668.078H149.609C149.398 666.477 148.039 665.406 146.234 665.406C143.93 665.406 142.391 667.219 142.391 669.797C142.391 672.344 143.859 674.18 146.266 674.172ZM154.828 674.172C156.578 674.18 157.836 673.305 158.234 672.016H156.797C156.484 672.539 155.844 672.984 154.828 672.984C153.32 672.984 152.273 672 152.203 670.203H158.359V669.641C158.367 666.5 156.484 665.406 154.703 665.406C152.398 665.406 150.859 667.219 150.859 669.828C150.859 672.43 152.375 674.18 154.828 674.172ZM152.211 669.062C152.305 667.75 153.234 666.594 154.703 666.594C156.102 666.594 156.992 667.648 157 669.062H152.211ZM161.453 668.906C161.453 667.438 162.391 666.609 163.656 666.609C164.875 666.609 165.609 667.367 165.609 668.703V674H166.953V668.609C166.953 666.43 165.797 665.406 164.062 665.406C162.719 665.406 161.961 665.969 161.562 666.844H161.453V662.688H160.109V674H161.453V668.906ZM172.578 674.172C174.883 674.18 176.43 672.43 176.422 669.797C176.43 667.148 174.883 665.406 172.578 665.406C170.266 665.406 168.703 667.148 168.703 669.797C168.703 672.43 170.266 674.18 172.578 674.172ZM170.047 669.797C170.055 668.109 170.852 666.594 172.578 666.594C174.289 666.594 175.078 668.109 175.078 669.797C175.078 671.492 174.289 672.984 172.578 672.984C170.852 672.984 170.055 671.492 170.047 669.797ZM179.531 662.688H178.188V674H179.531V662.688ZM184.875 674.172C186.492 674.18 187.047 673.172 187.344 672.703H187.484V674H188.797V662.688H187.438V666.859H187.344C187.055 666.406 186.539 665.406 184.891 665.406C182.758 665.406 181.266 667.094 181.266 669.781C181.266 672.477 182.758 674.18 184.875 674.172ZM182.625 669.75C182.625 667.977 183.43 666.609 185.062 666.609C186.641 666.609 187.477 667.867 187.484 669.75C187.477 671.656 186.617 672.969 185.062 672.969C183.453 672.969 182.625 671.555 182.625 669.75ZM194.688 674.172C196.438 674.18 197.695 673.305 198.094 672.016H196.656C196.344 672.539 195.703 672.984 194.688 672.984C193.18 672.984 192.133 672 192.062 670.203H198.219V669.641C198.227 666.5 196.344 665.406 194.562 665.406C192.258 665.406 190.719 667.219 190.719 669.828C190.719 672.43 192.234 674.18 194.688 674.172ZM192.07 669.062C192.164 667.75 193.094 666.594 194.562 666.594C195.961 666.594 196.852 667.648 196.859 669.062H192.07ZM199.969 674H201.312V668.656C201.312 667.516 202.219 666.672 203.438 666.672C203.789 666.672 204.148 666.742 204.25 666.766V665.406C204.094 665.391 203.75 665.383 203.547 665.375C202.547 665.383 201.664 665.953 201.359 666.812H201.266V665.516H199.969V674Z" fill="#A6A6A6"/>
<path d="M476.5 639V638.5H476H84C77.0964 638.5 71.5 644.096 71.5 651V685C71.5 691.904 77.0964 697.5 84 697.5H476H476.5V697V639Z" stroke="#898989"/>
<path d="M476 638H568C574.627 638 580 643.373 580 650V686C580 692.627 574.627 698 568 698H476V638Z" fill="black"/>
<path d="M525.5 659C527.224 659 528.877 659.685 530.096 660.904C531.315 662.123 532 663.776 532 665.5C532 667.11 531.41 668.59 530.44 669.73L530.71 670H531.5L536.5 675L535 676.5L530 671.5V670.71L529.73 670.44C528.59 671.41 527.11 672 525.5 672C523.776 672 522.123 671.315 520.904 670.096C519.685 668.877 519 667.224 519 665.5C519 663.776 519.685 662.123 520.904 660.904C522.123 659.685 523.776 659 525.5 659ZM525.5 661C523 661 521 663 521 665.5C521 668 523 670 525.5 670C528 670 530 668 530 665.5C530 663 528 661 525.5 661Z" fill="white"/>
<path d="M82.0938 613.922H84.3438C84.3125 611.922 82.6641 610.531 80.1562 610.531C77.6797 610.531 75.8672 611.898 75.875 613.953C75.875 615.609 77.0469 616.562 78.9531 617.031L80.1875 617.328C81.4219 617.633 82.125 617.992 82.125 618.766C82.125 619.609 81.3281 620.188 80.0938 620.188C78.8438 620.188 77.9375 619.609 77.8594 618.469H75.5781C75.6484 620.898 77.3906 622.164 80.125 622.156C82.8828 622.164 84.4922 620.836 84.5 618.766C84.4922 616.883 83.0469 615.898 81.1094 615.453L80.0938 615.203C79.1172 614.984 78.2734 614.617 78.2812 613.797C78.2891 613.047 78.9531 612.5 80.1406 612.5C81.2891 612.5 82 613.023 82.0938 613.922ZM85.9844 622H88.2969V616.906C88.2891 615.945 88.8984 615.312 89.6875 615.312C90.4766 615.312 91.0078 615.852 91 616.688V622H93.25V616.812C93.2422 615.914 93.7578 615.312 94.625 615.312C95.3828 615.312 95.9609 615.781 95.9531 616.75V622H98.2656V616.297C98.2656 614.445 97.1641 613.406 95.5938 613.406C94.3516 613.406 93.3828 614.039 93.0312 615H92.9531C92.6719 614.023 91.8047 613.406 90.6406 613.406C89.5 613.406 88.6406 614.008 88.2812 615H88.1875V613.516H85.9844V622ZM99.6406 619.625C99.6484 621.305 100.844 622.164 102.469 622.156C103.727 622.164 104.539 621.609 104.953 620.828H105.016V622H107.203V616.281C107.211 614.234 105.461 613.406 103.609 613.406C101.359 613.406 100.078 614.562 99.9375 616.031H102.141C102.266 615.453 102.758 615.102 103.547 615.094C104.414 615.102 104.898 615.508 104.906 616.219V616.906C104.547 616.922 103.406 616.977 102.797 617.016C101.164 617.117 99.6484 617.734 99.6406 619.625ZM101.859 619.562C101.859 618.906 102.367 618.523 103.172 618.453C103.562 618.422 104.555 618.367 104.906 618.352V618.969C104.914 619.867 104.18 620.555 103.125 620.562C102.383 620.555 101.859 620.211 101.859 619.562ZM111.281 610.688H108.969V622H111.281V610.688ZM115.391 610.688H113.078V622H115.391V610.688Z" fill="#898989"/>
<path d="M476.5 1348V1347.5H476H84C77.0964 1347.5 71.5 1353.1 71.5 1360V1394C71.5 1400.9 77.0964 1406.5 84 1406.5H476H476.5V1406V1348Z" fill="white"/>
<path d="M121.25 1383H122.656V1378.89H125.109C127.742 1378.89 128.953 1377.29 128.953 1375.28C128.953 1373.27 127.742 1371.69 125.094 1371.69H121.25V1383ZM122.656 1377.64V1372.94H125.031C126.852 1372.94 127.555 1373.93 127.562 1375.28C127.555 1376.62 126.852 1377.64 125.047 1377.64H122.656ZM132.094 1371.69H130.75V1383H132.094V1371.69ZM133.828 1380.59C133.828 1382.25 135.109 1383.2 136.719 1383.2C138.195 1383.2 138.969 1382.41 139.25 1381.84H139.312V1383H140.641V1377.41C140.648 1374.73 138.562 1374.41 137.453 1374.41C135.578 1374.41 134.25 1375.35 134.078 1376.72H135.484C135.672 1376.07 136.32 1375.58 137.391 1375.58C138.672 1375.58 139.312 1376.2 139.312 1377.28V1377.97C138.93 1377.98 137.562 1378.05 137.016 1378.09C135.547 1378.2 133.828 1378.65 133.828 1380.59ZM135.172 1380.66C135.18 1379.73 135.953 1379.3 137.172 1379.22C137.578 1379.2 138.914 1379.09 139.312 1379.07V1379.92C139.312 1380.99 138.469 1382.01 136.953 1382C135.922 1382.01 135.18 1381.55 135.172 1380.66ZM146.266 1383.17C148.148 1383.18 149.398 1382.02 149.609 1380.5H148.266C148.031 1381.43 147.266 1381.97 146.266 1381.97C144.727 1381.97 143.742 1380.71 143.734 1378.75C143.742 1376.84 144.75 1375.59 146.266 1375.59C147.398 1375.59 148.07 1376.3 148.266 1377.08H149.609C149.398 1375.48 148.039 1374.41 146.234 1374.41C143.93 1374.41 142.391 1376.22 142.391 1378.8C142.391 1381.34 143.859 1383.18 146.266 1383.17ZM154.828 1383.17C156.578 1383.18 157.836 1382.3 158.234 1381.02H156.797C156.484 1381.54 155.844 1381.98 154.828 1381.98C153.32 1381.98 152.273 1381 152.203 1379.2H158.359V1378.64C158.367 1375.5 156.484 1374.41 154.703 1374.41C152.398 1374.41 150.859 1376.22 150.859 1378.83C150.859 1381.43 152.375 1383.18 154.828 1383.17ZM152.211 1378.06C152.305 1376.75 153.234 1375.59 154.703 1375.59C156.102 1375.59 156.992 1376.65 157 1378.06H152.211ZM161.453 1377.91C161.453 1376.44 162.391 1375.61 163.656 1375.61C164.875 1375.61 165.609 1376.37 165.609 1377.7V1383H166.953V1377.61C166.953 1375.43 165.797 1374.41 164.062 1374.41C162.719 1374.41 161.961 1374.97 161.562 1375.84H161.453V1371.69H160.109V1383H161.453V1377.91ZM172.578 1383.17C174.883 1383.18 176.43 1381.43 176.422 1378.8C176.43 1376.15 174.883 1374.41 172.578 1374.41C170.266 1374.41 168.703 1376.15 168.703 1378.8C168.703 1381.43 170.266 1383.18 172.578 1383.17ZM170.047 1378.8C170.055 1377.11 170.852 1375.59 172.578 1375.59C174.289 1375.59 175.078 1377.11 175.078 1378.8C175.078 1380.49 174.289 1381.98 172.578 1381.98C170.852 1381.98 170.055 1380.49 170.047 1378.8ZM179.531 1371.69H178.188V1383H179.531V1371.69ZM184.875 1383.17C186.492 1383.18 187.047 1382.17 187.344 1381.7H187.484V1383H188.797V1371.69H187.438V1375.86H187.344C187.055 1375.41 186.539 1374.41 184.891 1374.41C182.758 1374.41 181.266 1376.09 181.266 1378.78C181.266 1381.48 182.758 1383.18 184.875 1383.17ZM182.625 1378.75C182.625 1376.98 183.43 1375.61 185.062 1375.61C186.641 1375.61 187.477 1376.87 187.484 1378.75C187.477 1380.66 186.617 1381.97 185.062 1381.97C183.453 1381.97 182.625 1380.55 182.625 1378.75ZM194.688 1383.17C196.438 1383.18 197.695 1382.3 198.094 1381.02H196.656C196.344 1381.54 195.703 1381.98 194.688 1381.98C193.18 1381.98 192.133 1381 192.062 1379.2H198.219V1378.64C198.227 1375.5 196.344 1374.41 194.562 1374.41C192.258 1374.41 190.719 1376.22 190.719 1378.83C190.719 1381.43 192.234 1383.18 194.688 1383.17ZM192.07 1378.06C192.164 1376.75 193.094 1375.59 194.562 1375.59C195.961 1375.59 196.852 1376.65 196.859 1378.06H192.07ZM199.969 1383H201.312V1377.66C201.312 1376.52 202.219 1375.67 203.438 1375.67C203.789 1375.67 204.148 1375.74 204.25 1375.77V1374.41C204.094 1374.39 203.75 1374.38 203.547 1374.38C202.547 1374.38 201.664 1374.95 201.359 1375.81H201.266V1374.52H199.969V1383Z" fill="#A6A6A6"/>
<path d="M476.5 1348V1347.5H476H84C77.0964 1347.5 71.5 1353.1 71.5 1360V1394C71.5 1400.9 77.0964 1406.5 84 1406.5H476H476.5V1406V1348Z" stroke="#898989"/>
<path d="M476 1347H568C574.627 1347 580 1352.37 580 1359V1395C580 1401.63 574.627 1407 568 1407H476V1347Z" fill="#6B6B6B"/>
<path d="M525.5 1368C527.224 1368 528.877 1368.68 530.096 1369.9C531.315 1371.12 532 1372.78 532 1374.5C532 1376.11 531.41 1377.59 530.44 1378.73L530.71 1379H531.5L536.5 1384L535 1385.5L530 1380.5V1379.71L529.73 1379.44C528.59 1380.41 527.11 1381 525.5 1381C523.776 1381 522.123 1380.32 520.904 1379.1C519.685 1377.88 519 1376.22 519 1374.5C519 1372.78 519.685 1371.12 520.904 1369.9C522.123 1368.68 523.776 1368 525.5 1368ZM525.5 1370C523 1370 521 1372 521 1374.5C521 1377 523 1379 525.5 1379C528 1379 530 1377 530 1374.5C530 1372 528 1370 525.5 1370Z" fill="white"/>
<path d="M82.0938 1322.92H84.3438C84.3125 1320.92 82.6641 1319.53 80.1562 1319.53C77.6797 1319.53 75.8672 1320.9 75.875 1322.95C75.875 1324.61 77.0469 1325.56 78.9531 1326.03L80.1875 1326.33C81.4219 1326.63 82.125 1326.99 82.125 1327.77C82.125 1328.61 81.3281 1329.19 80.0938 1329.19C78.8438 1329.19 77.9375 1328.61 77.8594 1327.47H75.5781C75.6484 1329.9 77.3906 1331.16 80.125 1331.16C82.8828 1331.16 84.4922 1329.84 84.5 1327.77C84.4922 1325.88 83.0469 1324.9 81.1094 1324.45L80.0938 1324.2C79.1172 1323.98 78.2734 1323.62 78.2812 1322.8C78.2891 1322.05 78.9531 1321.5 80.1406 1321.5C81.2891 1321.5 82 1322.02 82.0938 1322.92ZM85.9844 1331H88.2969V1325.91C88.2891 1324.95 88.8984 1324.31 89.6875 1324.31C90.4766 1324.31 91.0078 1324.85 91 1325.69V1331H93.25V1325.81C93.2422 1324.91 93.7578 1324.31 94.625 1324.31C95.3828 1324.31 95.9609 1324.78 95.9531 1325.75V1331H98.2656V1325.3C98.2656 1323.45 97.1641 1322.41 95.5938 1322.41C94.3516 1322.41 93.3828 1323.04 93.0312 1324H92.9531C92.6719 1323.02 91.8047 1322.41 90.6406 1322.41C89.5 1322.41 88.6406 1323.01 88.2812 1324H88.1875V1322.52H85.9844V1331ZM99.6406 1328.62C99.6484 1330.3 100.844 1331.16 102.469 1331.16C103.727 1331.16 104.539 1330.61 104.953 1329.83H105.016V1331H107.203V1325.28C107.211 1323.23 105.461 1322.41 103.609 1322.41C101.359 1322.41 100.078 1323.56 99.9375 1325.03H102.141C102.266 1324.45 102.758 1324.1 103.547 1324.09C104.414 1324.1 104.898 1324.51 104.906 1325.22V1325.91C104.547 1325.92 103.406 1325.98 102.797 1326.02C101.164 1326.12 99.6484 1326.73 99.6406 1328.62ZM101.859 1328.56C101.859 1327.91 102.367 1327.52 103.172 1327.45C103.562 1327.42 104.555 1327.37 104.906 1327.35V1327.97C104.914 1328.87 104.18 1329.55 103.125 1329.56C102.383 1329.55 101.859 1329.21 101.859 1328.56ZM111.281 1319.69H108.969V1331H111.281V1319.69ZM115.391 1319.69H113.078V1331H115.391V1319.69Z" fill="#898989"/>
<path d="M84.7812 1038.69H90.2656V1041H91.6094V1038.69H93.1875V1037.45H91.6094V1029.69H89.875L84.7812 1037.53V1038.69ZM86.2969 1037.45V1037.36L90.125 1031.47H90.2656V1037.45H86.2969ZM94.7656 1038.69H100.25V1041H101.594V1038.69H103.172V1037.45H101.594V1029.69H99.8594L94.7656 1037.53V1038.69ZM96.2812 1037.45V1037.36L100.109 1031.47H100.25V1037.45H96.2812Z" fill="black"/>
<path d="M1147.97 1004.16C1150.23 1004.16 1151.91 1002.78 1151.91 1000.92C1151.91 999.484 1151.02 998.43 1149.55 998.203V998.125C1150.73 997.789 1151.48 996.852 1151.47 995.562C1151.48 993.945 1150.17 992.531 1148.02 992.531C1146.01 992.531 1144.34 993.734 1144.27 995.531H1145.62C1145.69 994.422 1146.79 993.758 1148 993.75C1149.29 993.758 1150.12 994.508 1150.11 995.641C1150.12 996.805 1149.16 997.578 1147.78 997.578H1146.86V998.812H1147.78C1149.54 998.82 1150.52 999.688 1150.53 1000.92C1150.52 1002.1 1149.45 1002.91 1147.95 1002.91C1146.6 1002.91 1145.53 1002.23 1145.45 1001.16H1144.03C1144.1 1002.95 1145.72 1004.16 1147.97 1004.16ZM1153.94 1004H1161.28V1002.75H1155.89V1002.66L1158.48 999.984C1160.48 997.922 1161.07 996.938 1161.08 995.672C1161.07 993.914 1159.62 992.531 1157.56 992.531C1155.52 992.531 1153.97 993.875 1153.98 995.875H1155.31C1155.32 994.609 1156.16 993.758 1157.52 993.75C1158.79 993.758 1159.76 994.508 1159.77 995.672C1159.76 996.719 1159.12 997.484 1157.78 998.906L1153.92 1002.97L1153.94 1004Z" fill="black"/>
<path d="M1096.78 905.688H1102.27V908H1103.61V905.688H1105.19V904.453H1103.61V896.688H1101.88L1096.78 904.531V905.688ZM1098.3 904.453V904.359L1102.12 898.469H1102.27V904.453H1098.3ZM1110.75 908.156C1113.26 908.156 1114.7 906.047 1114.7 902.344C1114.7 898.672 1113.23 896.531 1110.75 896.531C1108.26 896.531 1106.79 898.672 1106.8 902.344C1106.79 906.047 1108.24 908.156 1110.75 908.156ZM1108.16 902.344C1108.16 899.414 1109.12 897.758 1110.75 897.75C1112.38 897.758 1113.34 899.414 1113.33 902.344C1113.34 905.273 1112.38 906.906 1110.75 906.906C1109.11 906.906 1108.16 905.273 1108.16 902.344Z" fill="black"/>
<path d="M785.781 1125.69H791.266V1128H792.609V1125.69H794.188V1124.45H792.609V1116.69H790.875L785.781 1124.53V1125.69ZM787.297 1124.45V1124.36L791.125 1118.47H791.266V1124.45H787.297ZM799.75 1128.16C802.258 1128.16 803.703 1126.05 803.703 1122.34C803.703 1118.67 802.234 1116.53 799.75 1116.53C797.258 1116.53 795.789 1118.67 795.797 1122.34C795.789 1126.05 797.242 1128.16 799.75 1128.16ZM797.156 1122.34C797.164 1119.41 798.125 1117.76 799.75 1117.75C801.375 1117.76 802.336 1119.41 802.328 1122.34C802.336 1125.27 801.383 1126.91 799.75 1126.91C798.109 1126.91 797.164 1125.27 797.156 1122.34Z" fill="black"/>
<rect x="72" y="1145" width="786" height="24" fill="#E11900" fill-opacity="0.1"/>
<rect x="72" y="1195" width="744" height="24" fill="#E11900" fill-opacity="0.1"/>
<rect x="72" y="1391" width="504" height="16" fill="#E11900" fill-opacity="0.1"/>
<rect x="72" y="1347" width="549" height="16" fill="#E11900" fill-opacity="0.1"/>
<rect x="72" y="1144" width="32" height="106" fill="#E11900" fill-opacity="0.1"/>
<rect x="72" y="1347" width="44" height="106" fill="#E11900" fill-opacity="0.1"/>
<rect x="680" y="1144" width="32" height="75" fill="#E11900" fill-opacity="0.1"/>
<rect x="712" y="1145" width="40" height="75" fill="#E11900" fill-opacity="0.1"/>
<rect x="472" y="1348" width="40" height="59" fill="#E11900" fill-opacity="0.1"/>
<rect x="536" y="1314" width="40" height="93" fill="#E11900" fill-opacity="0.1"/>
<rect x="775" y="1109" width="40" height="111" fill="#E11900" fill-opacity="0.1"/>
<path d="M833.062 1163H840.406V1161.75H835.016V1161.66L837.609 1158.98C839.609 1156.92 840.195 1155.94 840.203 1154.67C840.195 1152.91 838.742 1151.53 836.688 1151.53C834.641 1151.53 833.094 1152.88 833.109 1154.88H834.438C834.445 1153.61 835.289 1152.76 836.641 1152.75C837.914 1152.76 838.883 1153.51 838.891 1154.67C838.883 1155.72 838.242 1156.48 836.906 1157.91L833.047 1161.97L833.062 1163ZM841.922 1160.69H847.406V1163H848.75V1160.69H850.328V1159.45H848.75V1151.69H847.016L841.922 1159.53V1160.69ZM843.438 1159.45V1159.36L847.266 1153.47H847.406V1159.45H843.438Z" fill="black"/>
<path d="M82.9688 1239.16C85.2266 1239.16 86.9141 1237.78 86.9062 1235.92C86.9141 1234.48 86.0234 1233.43 84.5469 1233.2V1233.12C85.7344 1232.79 86.4844 1231.85 86.4688 1230.56C86.4844 1228.95 85.1719 1227.53 83.0156 1227.53C81.0078 1227.53 79.3359 1228.73 79.2656 1230.53H80.625C80.6875 1229.42 81.7891 1228.76 83 1228.75C84.2891 1228.76 85.1172 1229.51 85.1094 1230.64C85.1172 1231.8 84.1562 1232.58 82.7812 1232.58H81.8594V1233.81H82.7812C84.5391 1233.82 85.5234 1234.69 85.5312 1235.92C85.5234 1237.1 84.4453 1237.91 82.9531 1237.91C81.6016 1237.91 80.5312 1237.23 80.4531 1236.16H79.0312C79.1016 1237.95 80.7188 1239.16 82.9688 1239.16ZM88.9375 1239H96.2812V1237.75H90.8906V1237.66L93.4844 1234.98C95.4844 1232.92 96.0703 1231.94 96.0781 1230.67C96.0703 1228.91 94.6172 1227.53 92.5625 1227.53C90.5156 1227.53 88.9688 1228.88 88.9844 1230.88H90.3125C90.3203 1229.61 91.1641 1228.76 92.5156 1228.75C93.7891 1228.76 94.7578 1229.51 94.7656 1230.67C94.7578 1231.72 94.1172 1232.48 92.7812 1233.91L88.9219 1237.97L88.9375 1239Z" fill="black"/>
<path d="M84.7812 1433.69H90.2656V1436H91.6094V1433.69H93.1875V1432.45H91.6094V1424.69H89.875L84.7812 1432.53V1433.69ZM86.2969 1432.45V1432.36L90.125 1426.47H90.2656V1432.45H86.2969ZM94.7656 1433.69H100.25V1436H101.594V1433.69H103.172V1432.45H101.594V1424.69H99.8594L94.7656 1432.53V1433.69ZM96.2812 1432.45V1432.36L100.109 1426.47H100.25V1432.45H96.2812Z" fill="black"/>
<path d="M546.781 1333.69H552.266V1336H553.609V1333.69H555.188V1332.45H553.609V1324.69H551.875L546.781 1332.53V1333.69ZM548.297 1332.45V1332.36L552.125 1326.47H552.266V1332.45H548.297ZM560.75 1336.16C563.258 1336.16 564.703 1334.05 564.703 1330.34C564.703 1326.67 563.234 1324.53 560.75 1324.53C558.258 1324.53 556.789 1326.67 556.797 1330.34C556.789 1334.05 558.242 1336.16 560.75 1336.16ZM558.156 1330.34C558.164 1327.41 559.125 1325.76 560.75 1325.75C562.375 1325.76 563.336 1327.41 563.328 1330.34C563.336 1333.27 562.383 1334.91 560.75 1334.91C559.109 1334.91 558.164 1333.27 558.156 1330.34Z" fill="black"/>
<path d="M594.062 1349.69H592.641L589.828 1351.56V1352.98L592.578 1351.16H592.641V1361H594.062V1349.69ZM601.016 1361.16C603.398 1361.18 604.953 1359.48 604.953 1357.34C604.953 1355.16 603.273 1353.59 601.266 1353.59C600.047 1353.59 599.008 1354.15 598.359 1355.09H598.219C598.211 1352.37 599.328 1350.78 601.188 1350.78C602.445 1350.78 603.211 1351.53 603.469 1352.53H604.859C604.57 1350.76 603.18 1349.53 601.188 1349.53C598.531 1349.53 596.891 1351.77 596.891 1355.78C596.891 1359.97 599.055 1361.13 601.016 1361.16ZM598.406 1357.38C598.422 1356.04 599.562 1354.84 601.047 1354.83C602.523 1354.84 603.586 1355.97 603.594 1357.36C603.586 1358.77 602.477 1359.91 601.016 1359.92C599.5 1359.91 598.414 1358.7 598.406 1357.38Z" fill="black"/>
</svg>
