<svg width="1624" height="1610" viewBox="0 0 1624 1610" fill="none" xmlns="http://www.w3.org/2000/svg">
<rect width="1624" height="1610" rx="32" fill="#F5F5F5"/>
<line x1="75" y1="123.5" x2="1554" y2="123.5" stroke="#898989" stroke-opacity="0.3"/>
<line x1="94" y1="1506.5" x2="1536" y2="1506.5" stroke="#898989" stroke-opacity="0.3"/>
<path d="M75.0093 61.2829V97H82.2119V73.5175H82.5079L91.8319 96.852H96.7652L106.089 73.6162H106.385V97H113.588V61.2829H104.412L94.4959 85.5054H94.1012L84.1853 61.2829H75.0093ZM131.496 97.5427C139.611 97.518 144.643 91.968 144.668 83.6801C144.643 75.4168 139.611 69.8668 131.496 69.8668C123.405 69.8668 118.348 75.4168 118.373 83.6801C118.348 91.968 123.405 97.518 131.496 97.5427ZM125.773 83.6801C125.773 78.9688 127.722 75.4415 131.545 75.4415C135.27 75.4415 137.243 78.9688 137.218 83.6801C137.243 88.3667 135.27 91.8447 131.545 91.8694C127.722 91.8447 125.773 88.3667 125.773 83.6801ZM159.122 97.444C163.488 97.444 165.708 94.928 166.719 92.708H167.065V97H174.267V61.2829H166.966V74.7015H166.719C165.757 72.5308 163.611 69.8668 159.122 69.8668C153.202 69.8668 148.219 74.4548 148.219 83.6308C148.219 92.5847 153.005 97.444 159.122 97.444ZM155.718 83.5814C155.693 78.9195 157.667 75.6881 161.391 75.6881C165.067 75.6881 167.114 78.7715 167.114 83.5814C167.114 88.4161 165.042 91.598 161.391 91.6227C157.691 91.598 155.693 88.3174 155.718 83.5814ZM178.855 89.5014C178.88 94.8047 182.654 97.518 187.785 97.4933C191.756 97.518 194.321 95.7667 195.629 93.3H195.826V97H202.732V78.9441C202.757 72.4815 197.232 69.8668 191.386 69.8668C184.282 69.8668 180.237 73.5175 179.793 78.1548H186.749C187.143 76.3295 188.697 75.2195 191.189 75.1948C193.927 75.2195 195.456 76.5021 195.481 78.7468V80.9174C194.346 80.9668 190.745 81.1394 188.821 81.2628C183.665 81.5834 178.88 83.5321 178.855 89.5014ZM185.861 89.3041C185.861 87.2321 187.464 86.0234 190.005 85.8014C191.238 85.7027 194.371 85.5301 195.481 85.4807V87.4294C195.505 90.266 193.187 92.4367 189.857 92.4614C187.513 92.4367 185.861 91.3514 185.861 89.3041ZM215.608 61.2829H208.307V97H215.608V61.2829Z" fill="black"/>
<path d="M87.6047 203.646H91.6027C91.5471 200.092 88.6181 197.621 84.162 197.621C79.7615 197.621 76.5409 200.051 76.5548 203.702C76.5548 206.645 78.637 208.338 82.0242 209.171L84.2175 209.699C86.4109 210.24 87.6602 210.879 87.6602 212.253C87.6602 213.752 86.2443 214.779 84.051 214.779C81.8299 214.779 80.2196 213.752 80.0808 211.725H76.0273C76.1522 216.043 79.2478 218.292 84.1065 218.278C89.0068 218.292 91.8664 215.932 91.8803 212.253C91.8664 208.907 89.2983 207.158 85.8556 206.367L84.051 205.923C82.3157 205.534 80.8165 204.882 80.8304 203.424C80.8443 202.091 82.0242 201.12 84.1342 201.12C86.1749 201.12 87.4381 202.05 87.6047 203.646ZM102.458 202.924H99.6264V199.315H95.5174V202.924H93.4351V206.006H95.5174V213.947C95.4896 216.876 97.5163 218.208 100.487 218.194C101.5 218.208 102.236 218.125 102.68 218.056V214.807C102.181 214.849 101.459 214.89 101.042 214.89C100.209 214.863 99.6125 214.571 99.6264 213.363V206.006H102.458V202.924ZM104.318 213.78C104.332 216.765 106.456 218.292 109.344 218.278C111.579 218.292 113.022 217.306 113.758 215.918H113.869V218H117.756V207.838C117.77 204.201 114.66 202.73 111.37 202.73C107.372 202.73 105.096 204.784 104.846 207.394H108.761C108.983 206.367 109.857 205.742 111.259 205.728C112.8 205.742 113.661 206.464 113.675 207.727V208.949C113.036 208.977 111.009 209.074 109.927 209.143C107.025 209.324 104.332 210.421 104.318 213.78ZM108.261 213.669C108.261 212.503 109.163 211.823 110.593 211.698C111.287 211.642 113.05 211.545 113.675 211.517V212.614C113.689 214.21 112.384 215.432 110.51 215.446C109.191 215.432 108.261 214.821 108.261 213.669ZM128.834 202.924H126.002V199.315H121.893V202.924H119.811V206.006H121.893V213.947C121.865 216.876 123.892 218.208 126.863 218.194C127.876 218.208 128.612 218.125 129.056 218.056V214.807C128.556 214.849 127.834 214.89 127.418 214.89C126.585 214.863 125.988 214.571 126.002 213.363V206.006H128.834V202.924ZM138.079 218.305C141.799 218.292 144.298 216.487 144.881 213.697H140.966C140.564 214.599 139.564 215.21 138.162 215.224C136.038 215.21 134.692 213.808 134.692 211.531H144.992V210.365C144.992 205.229 141.869 202.73 137.912 202.73C133.498 202.73 130.625 205.881 130.638 210.532C130.625 215.307 133.456 218.292 138.079 218.305ZM134.692 208.949C134.775 207.214 136.108 205.798 137.996 205.812C139.828 205.798 141.091 207.117 141.105 208.949H134.692Z" fill="#898989"/>
<path d="M76.6936 916.899V937H80.7471V923.784H80.9137L86.161 936.917H88.9374L94.1847 923.84H94.3513V937H98.4048V916.899H93.2407L87.6602 930.531H87.4381L81.8576 916.899H76.6936ZM100.987 932.78C101.001 935.765 103.125 937.292 106.012 937.278C108.247 937.292 109.691 936.306 110.426 934.918H110.538V937H114.424V926.838C114.438 923.201 111.329 921.73 108.039 921.73C104.041 921.73 101.764 923.784 101.514 926.394H105.429C105.651 925.367 106.526 924.742 107.928 924.728C109.469 924.742 110.329 925.464 110.343 926.727V927.949C109.705 927.977 107.678 928.074 106.595 928.143C103.694 928.324 101.001 929.421 100.987 932.78ZM104.929 932.669C104.929 931.503 105.832 930.823 107.261 930.698C107.955 930.642 109.718 930.545 110.343 930.517V931.614C110.357 933.21 109.052 934.432 107.178 934.446C105.859 934.432 104.929 933.821 104.929 932.669ZM117.562 937H121.671V928.421C121.657 926.575 123.031 925.284 124.891 925.284C125.46 925.284 126.252 925.381 126.64 925.506V921.841C126.28 921.758 125.752 921.702 125.336 921.702C123.642 921.702 122.24 922.688 121.698 924.534H121.532V921.924H117.562V937ZM134.942 942.969C139.231 942.969 142.257 941.012 142.271 937.167V921.924H138.19V924.451H138.024C137.468 923.229 136.247 921.73 133.72 921.73C130.389 921.73 127.584 924.27 127.584 929.365C127.584 934.39 130.319 936.792 133.72 936.778C136.149 936.792 137.482 935.556 138.024 934.335H138.218V937.083C138.204 939.179 136.927 939.998 135.025 939.998C133.387 939.998 132.249 939.457 132.027 938.249H127.973C128.209 941.095 130.777 942.969 134.942 942.969ZM131.804 929.421C131.791 926.825 132.901 925.006 134.997 925.006C137.066 925.006 138.218 926.741 138.218 929.421C138.218 932.1 137.052 933.682 134.997 933.696C132.915 933.682 131.791 932.03 131.804 929.421ZM145.464 937H149.573V921.924H145.464V937ZM145.27 917.871C145.27 919.009 146.283 919.953 147.519 919.953C148.74 919.953 149.754 919.009 149.74 917.871C149.754 916.705 148.74 915.775 147.519 915.761C146.283 915.775 145.27 916.705 145.27 917.871ZM156.875 928.282C156.875 926.297 158.055 925.145 159.762 925.145C161.47 925.145 162.469 926.255 162.483 928.116V937H166.565V927.394C166.578 923.882 164.524 921.73 161.373 921.73C159.138 921.73 157.528 922.827 156.847 924.562H156.681V921.924H152.766V937H156.875V928.282ZM182.445 937.305C184.208 937.292 186.124 936.792 187.596 935.612L188.831 937H193.134L190.108 933.53C191.219 932.058 191.927 929.948 191.913 927.227H188.498C188.498 928.532 188.179 929.712 187.651 930.698L184.292 926.838L185.472 925.978C187.165 924.77 188.151 923.243 188.137 921.341C188.151 918.801 186.166 916.635 182.945 916.621C179.655 916.635 177.476 918.87 177.476 921.786C177.476 923.562 178.35 925.048 179.405 926.394C177.212 927.907 175.727 929.323 175.727 931.669C175.727 934.834 178.281 937.292 182.445 937.305ZM179.725 931.447C179.725 930.67 180.252 929.768 181.39 928.949L181.529 928.851L185.374 933.141C184.514 933.682 183.57 933.974 182.64 933.974C180.863 933.988 179.725 932.891 179.725 931.447ZM181.002 921.841C181.016 920.814 181.793 919.953 182.973 919.953C184.153 919.939 184.847 920.786 184.833 921.563C184.847 922.438 184.375 923.146 183.362 923.784L182.307 924.492C181.543 923.521 181.016 922.674 181.002 921.841ZM201.297 942.664H205.406V934.585H205.517C206.1 935.834 207.363 937.25 209.82 937.25C213.263 937.25 215.942 934.515 215.928 929.476C215.942 924.312 213.152 921.73 209.82 921.73C207.28 921.73 206.086 923.229 205.517 924.451H205.35V921.924H201.297V942.664ZM205.323 929.448C205.309 926.741 206.461 925.006 208.516 925.006C210.639 925.006 211.75 926.825 211.736 929.448C211.75 932.114 210.612 933.96 208.516 933.974C206.475 933.96 205.309 932.169 205.323 929.448ZM217.872 932.78C217.886 935.765 220.01 937.292 222.897 937.278C225.132 937.292 226.576 936.306 227.311 934.918H227.423V937H231.309V926.838C231.323 923.201 228.214 921.73 224.924 921.73C220.926 921.73 218.649 923.784 218.399 926.394H222.314C222.536 925.367 223.411 924.742 224.813 924.728C226.354 924.742 227.214 925.464 227.228 926.727V927.949C226.59 927.977 224.563 928.074 223.48 928.143C220.579 928.324 217.886 929.421 217.872 932.78ZM221.814 932.669C221.814 931.503 222.717 930.823 224.146 930.698C224.841 930.642 226.604 930.545 227.228 930.517V931.614C227.242 933.21 225.937 934.432 224.063 934.446C222.744 934.432 221.814 933.821 221.814 932.669ZM239.999 937.25C242.457 937.25 243.706 935.834 244.275 934.585H244.469V937H248.523V916.899H244.414V924.451H244.275C243.734 923.229 242.526 921.73 239.999 921.73C236.668 921.73 233.864 924.312 233.864 929.476C233.864 934.515 236.557 937.25 239.999 937.25ZM238.084 929.448C238.07 926.825 239.18 925.006 241.277 925.006C243.345 925.006 244.497 926.741 244.497 929.448C244.497 932.169 243.331 933.96 241.277 933.974C239.194 933.96 238.07 932.114 238.084 929.448ZM257.38 937.25C259.837 937.25 261.086 935.834 261.655 934.585H261.85V937H265.903V916.899H261.794V924.451H261.655C261.114 923.229 259.906 921.73 257.38 921.73C254.048 921.73 251.244 924.312 251.244 929.476C251.244 934.515 253.937 937.25 257.38 937.25ZM255.464 929.448C255.45 926.825 256.561 925.006 258.657 925.006C260.725 925.006 261.877 926.741 261.877 929.448C261.877 932.169 260.711 933.96 258.657 933.974C256.574 933.96 255.45 932.114 255.464 929.448ZM269.207 937H273.316V921.924H269.207V937ZM269.013 917.871C269.013 919.009 270.026 919.953 271.261 919.953C272.483 919.953 273.496 919.009 273.482 917.871C273.496 916.705 272.483 915.775 271.261 915.761C270.026 915.775 269.013 916.705 269.013 917.871ZM280.618 928.282C280.618 926.297 281.798 925.145 283.505 925.145C285.213 925.145 286.212 926.255 286.226 928.116V937H290.307V927.394C290.321 923.882 288.267 921.73 285.115 921.73C282.88 921.73 281.27 922.827 280.59 924.562H280.423V921.924H276.509V937H280.618V928.282ZM300.274 942.969C304.564 942.969 307.59 941.012 307.604 937.167V921.924H303.523V924.451H303.356C302.801 923.229 301.579 921.73 299.053 921.73C295.721 921.73 292.917 924.27 292.917 929.365C292.917 934.39 295.652 936.792 299.053 936.778C301.482 936.792 302.815 935.556 303.356 934.335H303.551V937.083C303.537 939.179 302.26 939.998 300.358 939.998C298.72 939.998 297.581 939.457 297.359 938.249H293.306C293.542 941.095 296.11 942.969 300.274 942.969ZM297.137 929.421C297.123 926.825 298.234 925.006 300.33 925.006C302.398 925.006 303.551 926.741 303.551 929.421C303.551 932.1 302.384 933.682 300.33 933.696C298.248 933.682 297.123 932.03 297.137 929.421Z" fill="#898989"/>
<rect opacity="0.8" x="72" y="262" width="641" height="557" fill="#001733"/>
<g filter="url(#filter0_d_24_291)">
<rect x="182" y="382" width="426" height="310" rx="19" fill="white" stroke="#276EF1" stroke-width="2"/>
<path d="M396 466H394V460H396M396 470H394V468H396M395 455C393.687 455 392.386 455.259 391.173 455.761C389.96 456.264 388.858 457 387.929 457.929C386.054 459.804 385 462.348 385 465C385 467.652 386.054 470.196 387.929 472.071C388.858 473 389.96 473.736 391.173 474.239C392.386 474.741 393.687 475 395 475C397.652 475 400.196 473.946 402.071 472.071C403.946 470.196 405 467.652 405 465C405 463.687 404.741 462.386 404.239 461.173C403.736 459.96 403 458.858 402.071 457.929C401.142 457 400.04 456.264 398.827 455.761C397.614 455.259 396.313 455 395 455Z" fill="#276EF1"/>
<path d="M380.023 497.982V495.733H376.913V498.121C376.899 501.744 374.817 505.089 370.666 506.45L372.304 508.949C375.345 507.88 377.441 505.728 378.551 502.993C379.62 505.367 381.536 507.199 384.271 508.171L385.936 505.756C382.008 504.52 380.009 501.397 380.023 497.982ZM374.831 514.64C374.803 517.694 378.065 519.443 383.354 519.443C388.671 519.443 391.919 517.694 391.933 514.64C391.919 511.586 388.671 509.795 383.354 509.809C378.065 509.795 374.803 511.586 374.831 514.64ZM377.885 514.64C377.871 513.058 379.87 512.211 383.354 512.197C386.866 512.211 388.852 513.058 388.852 514.64C388.852 516.167 386.866 517.014 383.354 517.028C379.87 517.014 377.871 516.167 377.885 514.64ZM383.771 501.758H388.768V509.143H391.85V494.373H388.768V499.231H383.771V501.758ZM406.704 510.059C401.304 510.073 397.819 511.794 397.819 514.779C397.819 517.694 401.304 519.443 406.704 519.443C412.159 519.443 415.602 517.694 415.616 514.779C415.602 511.794 412.159 510.073 406.704 510.059ZM395.459 508.254H418.225V505.756H407.342V501.202H404.288V505.756H395.459V508.254ZM398.069 498.01H412.367C412.367 499.828 412.326 501.605 411.701 504.034L414.755 504.312C415.463 501.744 415.463 499.634 415.449 497.649V495.566H398.069V498.01ZM400.929 514.779C400.901 513.252 403.08 512.391 406.704 512.391C410.341 512.391 412.534 513.252 412.562 514.779C412.534 516.25 410.341 517.056 406.704 517.056C403.08 517.056 400.901 516.25 400.929 514.779Z" fill="#0075FF"/>
<path d="M362.955 550.669H364.83C364.268 547.535 361.799 545.712 358.748 545.712C354.874 545.712 352.073 548.691 352.083 553.46C352.073 558.23 354.874 561.208 358.748 561.208C361.81 561.208 364.288 559.355 364.83 556.272H362.955C362.508 558.334 360.737 559.448 358.748 559.459C356.02 559.448 353.906 557.345 353.895 553.46C353.906 549.565 356.02 547.462 358.748 547.462C360.737 547.462 362.518 548.586 362.955 550.669ZM371.849 561.229C374.921 561.24 376.983 558.907 376.973 555.397C376.983 551.867 374.921 549.545 371.849 549.545C368.766 549.545 366.684 551.867 366.684 555.397C366.684 558.907 368.766 561.24 371.849 561.229ZM368.475 555.397C368.485 553.148 369.547 551.127 371.849 551.127C374.13 551.127 375.181 553.148 375.181 555.397C375.181 557.657 374.13 559.646 371.849 559.646C369.547 559.646 368.485 557.657 368.475 555.397ZM381.117 554.21C381.117 552.252 382.325 551.148 383.971 551.148C385.575 551.148 386.533 552.19 386.533 553.939V561H388.324V553.814C388.334 550.94 386.804 549.545 384.512 549.545C382.794 549.545 381.732 550.305 381.201 551.461H381.055V549.69H379.326V561H381.117V554.21ZM396.135 549.69H393.76V546.983H391.948V549.69H390.24V551.19H391.948V558.209C391.959 560.209 393.541 561.146 395.051 561.146C395.583 561.146 396.02 561.104 396.301 561.062V559.396C396.041 559.407 395.562 559.438 395.239 559.438C394.479 559.438 393.75 559.198 393.76 557.751V551.19H396.135V549.69ZM403.07 561.229C405.403 561.24 407.08 560.073 407.611 558.355H405.695C405.278 559.053 404.424 559.646 403.07 559.646C401.06 559.646 399.665 558.334 399.571 555.939H407.777V555.189C407.788 551.003 405.278 549.545 402.904 549.545C399.832 549.545 397.78 551.961 397.78 555.439C397.78 558.907 399.8 561.24 403.07 561.229ZM399.582 554.418C399.707 552.669 400.946 551.127 402.904 551.127C404.768 551.127 405.955 552.533 405.965 554.418H399.582ZM411.901 554.21C411.901 552.252 413.109 551.148 414.755 551.148C416.359 551.148 417.317 552.19 417.317 553.939V561H419.108V553.814C419.118 550.94 417.588 549.545 415.296 549.545C413.578 549.545 412.516 550.305 411.985 551.461H411.839V549.69H410.11V561H411.901V554.21ZM426.919 549.69H424.544V546.983H422.732V549.69H421.024V551.19H422.732V558.209C422.742 560.209 424.325 561.146 425.835 561.146C426.367 561.146 426.804 561.104 427.085 561.062V559.396C426.825 559.407 426.346 559.438 426.023 559.438C425.263 559.438 424.534 559.198 424.544 557.751V551.19H426.919V549.69ZM435.312 552.627H437.062C436.833 550.794 435.364 549.545 433.021 549.545C430.532 549.545 428.835 550.94 428.835 552.877C428.835 554.387 429.887 555.46 431.855 555.918L433.563 556.314C434.844 556.616 435.416 557.136 435.416 557.938C435.416 559.001 434.406 559.677 432.792 559.667C431.365 559.677 430.563 559.146 430.355 558.042H428.481C428.783 560.104 430.293 561.24 432.834 561.229C435.666 561.24 437.26 559.792 437.27 557.834C437.26 556.262 436.27 555.251 434.25 554.772L432.563 554.356C431.24 554.033 430.636 553.523 430.626 552.773C430.636 551.825 431.626 551.075 433.021 551.065C434.344 551.075 435.062 551.69 435.312 552.627Z" fill="#6B6B6B"/>
<rect x="351" y="578" width="88" height="42" rx="12" fill="#0075FF"/>
<path d="M372.25 605H376.359C379.031 605 380.148 603.695 380.156 602C380.148 600.203 378.914 599.234 377.859 599.172V599.062C378.844 598.789 379.711 598.141 379.703 596.688C379.711 595.023 378.594 593.688 376.219 593.688H372.25V605ZM373.656 603.75V599.859H376.422C377.875 599.859 378.805 600.836 378.797 601.984C378.805 602.969 378.117 603.75 376.344 603.75H373.656ZM373.656 598.641V594.938H376.219C377.695 594.938 378.359 595.719 378.359 596.703C378.359 597.883 377.398 598.648 376.172 598.641H373.656ZM387.344 601.516C387.336 603.102 386.133 603.82 385.172 603.812C384.086 603.82 383.328 603.031 383.328 601.812V596.516H381.984V601.906C381.977 604.062 383.125 605.109 384.734 605.109C386.008 605.109 386.852 604.422 387.25 603.562H387.344V605H388.672V596.516H387.344V601.516ZM394.531 596.516H392.75V594.484H391.391V596.516H390.109V597.641H391.391V602.906C391.398 604.406 392.586 605.109 393.719 605.109C394.117 605.109 394.445 605.078 394.656 605.047V603.797C394.461 603.805 394.102 603.828 393.859 603.828C393.289 603.828 392.742 603.648 392.75 602.562V597.641H394.531V596.516ZM399.969 596.516H398.188V594.484H396.828V596.516H395.547V597.641H396.828V602.906C396.836 604.406 398.023 605.109 399.156 605.109C399.555 605.109 399.883 605.078 400.094 605.047V603.797C399.898 603.805 399.539 603.828 399.297 603.828C398.727 603.828 398.18 603.648 398.188 602.562V597.641H399.969V596.516ZM405.078 605.172C407.383 605.18 408.93 603.43 408.922 600.797C408.93 598.148 407.383 596.406 405.078 596.406C402.766 596.406 401.203 598.148 401.203 600.797C401.203 603.43 402.766 605.18 405.078 605.172ZM402.547 600.797C402.555 599.109 403.352 597.594 405.078 597.594C406.789 597.594 407.578 599.109 407.578 600.797C407.578 602.492 406.789 603.984 405.078 603.984C403.352 603.984 402.555 602.492 402.547 600.797ZM412.031 599.906C412.031 598.438 412.938 597.609 414.172 597.609C415.375 597.609 416.094 598.391 416.094 599.703V605H417.438V599.609C417.445 597.453 416.297 596.406 414.578 596.406C413.289 596.406 412.492 596.977 412.094 597.844H411.984V596.516H410.688V605H412.031V599.906Z" fill="white"/>
<path d="M574.46 407L580 412.54V414H578.54L573 408.46L567.46 414H566V412.54L571.54 407L566 401.46V400H567.46L573 405.54L578.54 400H580V401.46L574.46 407Z" fill="#A6A6A6"/>
</g>
<g filter="url(#filter1_d_24_291)">
<rect x="115" y="1067" width="426" height="310" rx="19" fill="white" stroke="#276EF1" stroke-width="2"/>
<path d="M329 1151H327V1145H329M329 1155H327V1153H329M328 1140C326.687 1140 325.386 1140.26 324.173 1140.76C322.96 1141.26 321.858 1142 320.929 1142.93C319.054 1144.8 318 1147.35 318 1150C318 1152.65 319.054 1155.2 320.929 1157.07C321.858 1158 322.96 1158.74 324.173 1159.24C325.386 1159.74 326.687 1160 328 1160C330.652 1160 333.196 1158.95 335.071 1157.07C336.946 1155.2 338 1152.65 338 1150C338 1148.69 337.741 1147.39 337.239 1146.17C336.736 1144.96 336 1143.86 335.071 1142.93C334.142 1142 333.04 1141.26 331.827 1140.76C330.614 1140.26 329.313 1140 328 1140Z" fill="#276EF1"/>
<path d="M313.023 1182.98V1180.73H309.913V1183.12C309.899 1186.74 307.817 1190.09 303.666 1191.45L305.304 1193.95C308.345 1192.88 310.441 1190.73 311.551 1187.99C312.62 1190.37 314.536 1192.2 317.271 1193.17L318.936 1190.76C315.008 1189.52 313.009 1186.4 313.023 1182.98ZM307.831 1199.64C307.803 1202.69 311.065 1204.44 316.354 1204.44C321.671 1204.44 324.919 1202.69 324.933 1199.64C324.919 1196.59 321.671 1194.8 316.354 1194.81C311.065 1194.8 307.803 1196.59 307.831 1199.64ZM310.885 1199.64C310.871 1198.06 312.87 1197.21 316.354 1197.2C319.866 1197.21 321.852 1198.06 321.852 1199.64C321.852 1201.17 319.866 1202.01 316.354 1202.03C312.87 1202.01 310.871 1201.17 310.885 1199.64ZM316.771 1186.76H321.768V1194.14H324.85V1179.37H321.768V1184.23H316.771V1186.76ZM339.704 1195.06C334.304 1195.07 330.819 1196.79 330.819 1199.78C330.819 1202.69 334.304 1204.44 339.704 1204.44C345.159 1204.44 348.602 1202.69 348.616 1199.78C348.602 1196.79 345.159 1195.07 339.704 1195.06ZM328.459 1193.25H351.225V1190.76H340.342V1186.2H337.288V1190.76H328.459V1193.25ZM331.069 1183.01H345.367C345.367 1184.83 345.326 1186.61 344.701 1189.03L347.755 1189.31C348.463 1186.74 348.463 1184.63 348.449 1182.65V1180.57H331.069V1183.01ZM333.929 1199.78C333.901 1198.25 336.08 1197.39 339.704 1197.39C343.341 1197.39 345.534 1198.25 345.562 1199.78C345.534 1201.25 343.341 1202.06 339.704 1202.06C336.08 1202.06 333.901 1201.25 333.929 1199.78Z" fill="#0075FF"/>
<path d="M295.955 1235.67H297.83C297.268 1232.53 294.799 1230.71 291.748 1230.71C287.874 1230.71 285.073 1233.69 285.083 1238.46C285.073 1243.23 287.874 1246.21 291.748 1246.21C294.81 1246.21 297.288 1244.35 297.83 1241.27H295.955C295.508 1243.33 293.737 1244.45 291.748 1244.46C289.02 1244.45 286.906 1242.34 286.895 1238.46C286.906 1234.57 289.02 1232.46 291.748 1232.46C293.737 1232.46 295.518 1233.59 295.955 1235.67ZM304.849 1246.23C307.921 1246.24 309.983 1243.91 309.973 1240.4C309.983 1236.87 307.921 1234.54 304.849 1234.54C301.766 1234.54 299.684 1236.87 299.684 1240.4C299.684 1243.91 301.766 1246.24 304.849 1246.23ZM301.475 1240.4C301.485 1238.15 302.547 1236.13 304.849 1236.13C307.13 1236.13 308.181 1238.15 308.181 1240.4C308.181 1242.66 307.13 1244.65 304.849 1244.65C302.547 1244.65 301.485 1242.66 301.475 1240.4ZM314.117 1239.21C314.117 1237.25 315.325 1236.15 316.971 1236.15C318.575 1236.15 319.533 1237.19 319.533 1238.94V1246H321.324V1238.81C321.334 1235.94 319.804 1234.54 317.512 1234.54C315.794 1234.54 314.732 1235.3 314.201 1236.46H314.055V1234.69H312.326V1246H314.117V1239.21ZM329.135 1234.69H326.76V1231.98H324.948V1234.69H323.24V1236.19H324.948V1243.21C324.959 1245.21 326.541 1246.15 328.051 1246.15C328.583 1246.15 329.02 1246.1 329.301 1246.06V1244.4C329.041 1244.41 328.562 1244.44 328.239 1244.44C327.479 1244.44 326.75 1244.2 326.76 1242.75V1236.19H329.135V1234.69ZM336.07 1246.23C338.403 1246.24 340.08 1245.07 340.611 1243.35H338.695C338.278 1244.05 337.424 1244.65 336.07 1244.65C334.06 1244.65 332.665 1243.33 332.571 1240.94H340.777V1240.19C340.788 1236 338.278 1234.54 335.904 1234.54C332.832 1234.54 330.78 1236.96 330.78 1240.44C330.78 1243.91 332.8 1246.24 336.07 1246.23ZM332.582 1239.42C332.707 1237.67 333.946 1236.13 335.904 1236.13C337.768 1236.13 338.955 1237.53 338.965 1239.42H332.582ZM344.901 1239.21C344.901 1237.25 346.109 1236.15 347.755 1236.15C349.359 1236.15 350.317 1237.19 350.317 1238.94V1246H352.108V1238.81C352.118 1235.94 350.588 1234.54 348.296 1234.54C346.578 1234.54 345.516 1235.3 344.985 1236.46H344.839V1234.69H343.11V1246H344.901V1239.21ZM359.919 1234.69H357.544V1231.98H355.732V1234.69H354.024V1236.19H355.732V1243.21C355.742 1245.21 357.325 1246.15 358.835 1246.15C359.367 1246.15 359.804 1246.1 360.085 1246.06V1244.4C359.825 1244.41 359.346 1244.44 359.023 1244.44C358.263 1244.44 357.534 1244.2 357.544 1242.75V1236.19H359.919V1234.69ZM368.312 1237.63H370.062C369.833 1235.79 368.364 1234.54 366.021 1234.54C363.532 1234.54 361.835 1235.94 361.835 1237.88C361.835 1239.39 362.887 1240.46 364.855 1240.92L366.563 1241.31C367.844 1241.62 368.416 1242.14 368.416 1242.94C368.416 1244 367.406 1244.68 365.792 1244.67C364.365 1244.68 363.563 1244.15 363.355 1243.04H361.481C361.783 1245.1 363.293 1246.24 365.834 1246.23C368.666 1246.24 370.26 1244.79 370.27 1242.83C370.26 1241.26 369.27 1240.25 367.25 1239.77L365.563 1239.36C364.24 1239.03 363.636 1238.52 363.626 1237.77C363.636 1236.83 364.626 1236.08 366.021 1236.06C367.344 1236.08 368.062 1236.69 368.312 1237.63Z" fill="#6B6B6B"/>
<rect x="284" y="1263" width="88" height="42" rx="12" fill="#0075FF"/>
<path d="M305.25 1290H309.359C312.031 1290 313.148 1288.7 313.156 1287C313.148 1285.2 311.914 1284.23 310.859 1284.17V1284.06C311.844 1283.79 312.711 1283.14 312.703 1281.69C312.711 1280.02 311.594 1278.69 309.219 1278.69H305.25V1290ZM306.656 1288.75V1284.86H309.422C310.875 1284.86 311.805 1285.84 311.797 1286.98C311.805 1287.97 311.117 1288.75 309.344 1288.75H306.656ZM306.656 1283.64V1279.94H309.219C310.695 1279.94 311.359 1280.72 311.359 1281.7C311.359 1282.88 310.398 1283.65 309.172 1283.64H306.656ZM320.344 1286.52C320.336 1288.1 319.133 1288.82 318.172 1288.81C317.086 1288.82 316.328 1288.03 316.328 1286.81V1281.52H314.984V1286.91C314.977 1289.06 316.125 1290.11 317.734 1290.11C319.008 1290.11 319.852 1289.42 320.25 1288.56H320.344V1290H321.672V1281.52H320.344V1286.52ZM327.531 1281.52H325.75V1279.48H324.391V1281.52H323.109V1282.64H324.391V1287.91C324.398 1289.41 325.586 1290.11 326.719 1290.11C327.117 1290.11 327.445 1290.08 327.656 1290.05V1288.8C327.461 1288.8 327.102 1288.83 326.859 1288.83C326.289 1288.83 325.742 1288.65 325.75 1287.56V1282.64H327.531V1281.52ZM332.969 1281.52H331.188V1279.48H329.828V1281.52H328.547V1282.64H329.828V1287.91C329.836 1289.41 331.023 1290.11 332.156 1290.11C332.555 1290.11 332.883 1290.08 333.094 1290.05V1288.8C332.898 1288.8 332.539 1288.83 332.297 1288.83C331.727 1288.83 331.18 1288.65 331.188 1287.56V1282.64H332.969V1281.52ZM338.078 1290.17C340.383 1290.18 341.93 1288.43 341.922 1285.8C341.93 1283.15 340.383 1281.41 338.078 1281.41C335.766 1281.41 334.203 1283.15 334.203 1285.8C334.203 1288.43 335.766 1290.18 338.078 1290.17ZM335.547 1285.8C335.555 1284.11 336.352 1282.59 338.078 1282.59C339.789 1282.59 340.578 1284.11 340.578 1285.8C340.578 1287.49 339.789 1288.98 338.078 1288.98C336.352 1288.98 335.555 1287.49 335.547 1285.8ZM345.031 1284.91C345.031 1283.44 345.938 1282.61 347.172 1282.61C348.375 1282.61 349.094 1283.39 349.094 1284.7V1290H350.438V1284.61C350.445 1282.45 349.297 1281.41 347.578 1281.41C346.289 1281.41 345.492 1281.98 345.094 1282.84H344.984V1281.52H343.688V1290H345.031V1284.91Z" fill="white"/>
<path d="M507.46 1092L513 1097.54V1099H511.54L506 1093.46L500.46 1099H499V1097.54L504.54 1092L499 1086.46V1085H500.46L506 1090.54L511.54 1085H513V1086.46L507.46 1092Z" fill="#A6A6A6"/>
</g>
<rect opacity="0.8" x="891" y="262" width="641" height="557" fill="#001733"/>
<g filter="url(#filter2_d_24_291)">
<rect x="1001" y="382" width="426" height="310" rx="19" fill="white" stroke="#FF0000" stroke-width="2"/>
<path d="M1215 466H1213V460H1215M1215 470H1213V468H1215M1214 455C1212.69 455 1211.39 455.259 1210.17 455.761C1208.96 456.264 1207.86 457 1206.93 457.929C1205.05 459.804 1204 462.348 1204 465C1204 467.652 1205.05 470.196 1206.93 472.071C1207.86 473 1208.96 473.736 1210.17 474.239C1211.39 474.741 1212.69 475 1214 475C1216.65 475 1219.2 473.946 1221.07 472.071C1222.95 470.196 1224 467.652 1224 465C1224 463.687 1223.74 462.386 1223.24 461.173C1222.74 459.96 1222 458.858 1221.07 457.929C1220.14 457 1219.04 456.264 1217.83 455.761C1216.61 455.259 1215.31 455 1214 455Z" fill="#FF0000"/>
<path d="M1210.68 494.373H1207.63V507.172H1210.68V494.373ZM1189.81 504.728L1191.36 507.144C1194.36 506.186 1196.5 504.145 1197.63 501.55C1198.77 503.937 1200.86 505.797 1203.77 506.7L1205.27 504.312C1201.3 503.104 1199.18 500.12 1199.19 496.927V494.983H1196V496.927C1196.01 500.217 1193.87 503.437 1189.81 504.728ZM1194.08 510.725H1207.66V512.558H1194.14V519.249H1211.49V516.806H1197.16V514.862H1210.74V508.338H1194.08V510.725ZM1236.06 494.373H1233.09V504.201H1230.59V494.845H1227.67V518.194H1230.59V506.727H1233.09V519.471H1236.06V494.373ZM1214.13 511.003L1214.49 513.557C1217.64 513.571 1222.82 513.474 1226.73 512.669L1226.56 510.42C1225.88 510.517 1225.18 510.6 1224.43 510.656V499.842H1226.23V497.343H1214.63V499.842H1216.46V511.003H1214.13ZM1219.23 510.948V499.842H1221.62V510.85C1220.82 510.892 1220.03 510.92 1219.23 510.948Z" fill="#FF0000"/>
<path d="M1181.96 550.669H1183.83C1183.27 547.535 1180.8 545.712 1177.75 545.712C1173.87 545.712 1171.07 548.691 1171.08 553.46C1171.07 558.23 1173.87 561.208 1177.75 561.208C1180.81 561.208 1183.29 559.355 1183.83 556.272H1181.96C1181.51 558.334 1179.74 559.448 1177.75 559.459C1175.02 559.448 1172.91 557.345 1172.9 553.46C1172.91 549.565 1175.02 547.462 1177.75 547.462C1179.74 547.462 1181.52 548.586 1181.96 550.669ZM1190.85 561.229C1193.92 561.24 1195.98 558.907 1195.97 555.397C1195.98 551.867 1193.92 549.545 1190.85 549.545C1187.77 549.545 1185.68 551.867 1185.68 555.397C1185.68 558.907 1187.77 561.24 1190.85 561.229ZM1187.47 555.397C1187.49 553.148 1188.55 551.127 1190.85 551.127C1193.13 551.127 1194.18 553.148 1194.18 555.397C1194.18 557.657 1193.13 559.646 1190.85 559.646C1188.55 559.646 1187.49 557.657 1187.47 555.397ZM1200.12 554.21C1200.12 552.252 1201.33 551.148 1202.97 551.148C1204.57 551.148 1205.53 552.19 1205.53 553.939V561H1207.32V553.814C1207.33 550.94 1205.8 549.545 1203.51 549.545C1201.79 549.545 1200.73 550.305 1200.2 551.461H1200.05V549.69H1198.33V561H1200.12V554.21ZM1215.13 549.69H1212.76V546.983H1210.95V549.69H1209.24V551.19H1210.95V558.209C1210.96 560.209 1212.54 561.146 1214.05 561.146C1214.58 561.146 1215.02 561.104 1215.3 561.062V559.396C1215.04 559.407 1214.56 559.438 1214.24 559.438C1213.48 559.438 1212.75 559.198 1212.76 557.751V551.19H1215.13V549.69ZM1222.07 561.229C1224.4 561.24 1226.08 560.073 1226.61 558.355H1224.69C1224.28 559.053 1223.42 559.646 1222.07 559.646C1220.06 559.646 1218.66 558.334 1218.57 555.939H1226.78V555.189C1226.79 551.003 1224.28 549.545 1221.9 549.545C1218.83 549.545 1216.78 551.961 1216.78 555.439C1216.78 558.907 1218.8 561.24 1222.07 561.229ZM1218.58 554.418C1218.71 552.669 1219.95 551.127 1221.9 551.127C1223.77 551.127 1224.96 552.533 1224.97 554.418H1218.58ZM1230.9 554.21C1230.9 552.252 1232.11 551.148 1233.75 551.148C1235.36 551.148 1236.32 552.19 1236.32 553.939V561H1238.11V553.814C1238.12 550.94 1236.59 549.545 1234.3 549.545C1232.58 549.545 1231.52 550.305 1230.98 551.461H1230.84V549.69H1229.11V561H1230.9V554.21ZM1245.92 549.69H1243.54V546.983H1241.73V549.69H1240.02V551.19H1241.73V558.209C1241.74 560.209 1243.33 561.146 1244.84 561.146C1245.37 561.146 1245.8 561.104 1246.09 561.062V559.396C1245.82 559.407 1245.35 559.438 1245.02 559.438C1244.26 559.438 1243.53 559.198 1243.54 557.751V551.19H1245.92V549.69ZM1254.31 552.627H1256.06C1255.83 550.794 1254.36 549.545 1252.02 549.545C1249.53 549.545 1247.83 550.94 1247.83 552.877C1247.83 554.387 1248.89 555.46 1250.85 555.918L1252.56 556.314C1253.84 556.616 1254.42 557.136 1254.42 557.938C1254.42 559.001 1253.41 559.677 1251.79 559.667C1250.37 559.677 1249.56 559.146 1249.36 558.042H1247.48C1247.78 560.104 1249.29 561.24 1251.83 561.229C1254.67 561.24 1256.26 559.792 1256.27 557.834C1256.26 556.262 1255.27 555.251 1253.25 554.772L1251.56 554.356C1250.24 554.033 1249.64 553.523 1249.63 552.773C1249.64 551.825 1250.63 551.075 1252.02 551.065C1253.34 551.075 1254.06 551.69 1254.31 552.627Z" fill="#6B6B6B"/>
<rect x="1170" y="578" width="88" height="42" rx="12" fill="#E11900"/>
<path d="M1191.25 605H1195.36C1198.03 605 1199.15 603.695 1199.16 602C1199.15 600.203 1197.91 599.234 1196.86 599.172V599.062C1197.84 598.789 1198.71 598.141 1198.7 596.688C1198.71 595.023 1197.59 593.688 1195.22 593.688H1191.25V605ZM1192.66 603.75V599.859H1195.42C1196.88 599.859 1197.8 600.836 1197.8 601.984C1197.8 602.969 1197.12 603.75 1195.34 603.75H1192.66ZM1192.66 598.641V594.938H1195.22C1196.7 594.938 1197.36 595.719 1197.36 596.703C1197.36 597.883 1196.4 598.648 1195.17 598.641H1192.66ZM1206.34 601.516C1206.34 603.102 1205.13 603.82 1204.17 603.812C1203.09 603.82 1202.33 603.031 1202.33 601.812V596.516H1200.98V601.906C1200.98 604.062 1202.12 605.109 1203.73 605.109C1205.01 605.109 1205.85 604.422 1206.25 603.562H1206.34V605H1207.67V596.516H1206.34V601.516ZM1213.53 596.516H1211.75V594.484H1210.39V596.516H1209.11V597.641H1210.39V602.906C1210.4 604.406 1211.59 605.109 1212.72 605.109C1213.12 605.109 1213.45 605.078 1213.66 605.047V603.797C1213.46 603.805 1213.1 603.828 1212.86 603.828C1212.29 603.828 1211.74 603.648 1211.75 602.562V597.641H1213.53V596.516ZM1218.97 596.516H1217.19V594.484H1215.83V596.516H1214.55V597.641H1215.83V602.906C1215.84 604.406 1217.02 605.109 1218.16 605.109C1218.55 605.109 1218.88 605.078 1219.09 605.047V603.797C1218.9 603.805 1218.54 603.828 1218.3 603.828C1217.73 603.828 1217.18 603.648 1217.19 602.562V597.641H1218.97V596.516ZM1224.08 605.172C1226.38 605.18 1227.93 603.43 1227.92 600.797C1227.93 598.148 1226.38 596.406 1224.08 596.406C1221.77 596.406 1220.2 598.148 1220.2 600.797C1220.2 603.43 1221.77 605.18 1224.08 605.172ZM1221.55 600.797C1221.55 599.109 1222.35 597.594 1224.08 597.594C1225.79 597.594 1226.58 599.109 1226.58 600.797C1226.58 602.492 1225.79 603.984 1224.08 603.984C1222.35 603.984 1221.55 602.492 1221.55 600.797ZM1231.03 599.906C1231.03 598.438 1231.94 597.609 1233.17 597.609C1234.38 597.609 1235.09 598.391 1235.09 599.703V605H1236.44V599.609C1236.45 597.453 1235.3 596.406 1233.58 596.406C1232.29 596.406 1231.49 596.977 1231.09 597.844H1230.98V596.516H1229.69V605H1231.03V599.906Z" fill="white"/>
<path d="M1393.46 407L1399 412.54V414H1397.54L1392 408.46L1386.46 414H1385V412.54L1390.54 407L1385 401.46V400H1386.46L1392 405.54L1397.54 400H1399V401.46L1393.46 407Z" fill="#A6A6A6"/>
</g>
<rect x="72" y="1162" width="533" height="8" fill="#E11900" fill-opacity="0.1"/>
<rect x="276" y="1211" width="104" height="8" fill="#E11900" fill-opacity="0.1"/>
<rect x="276" y="1255" width="104" height="8" fill="#E11900" fill-opacity="0.1"/>
<rect x="372" y="1420" width="413" height="8.00003" transform="rotate(-90 372 1420)" fill="#E11900" fill-opacity="0.1"/>
<rect x="276" y="1420" width="413" height="8.00003" transform="rotate(-90 276 1420)" fill="#E11900" fill-opacity="0.1"/>
<rect x="113" y="1007" width="163" height="413" fill="#048848" fill-opacity="0.1"/>
<rect x="380" y="1007" width="162" height="413" fill="#048848" fill-opacity="0.1"/>
<rect x="75" y="1378" width="73" height="522" transform="rotate(-90 75 1378)" fill="#048848" fill-opacity="0.1"/>
<rect x="72" y="1140" width="72" height="533" transform="rotate(-90 72 1140)" fill="#048848" fill-opacity="0.1"/>
<path d="M612.844 1172.16C615.203 1172.16 616.859 1170.84 616.875 1169C616.859 1167.54 615.844 1166.33 614.562 1166.12V1166.06C615.672 1165.8 616.422 1164.77 616.438 1163.53C616.422 1161.8 614.906 1160.53 612.844 1160.53C610.773 1160.53 609.258 1161.8 609.266 1163.53C609.258 1164.77 610 1165.8 611.125 1166.06V1166.12C609.836 1166.33 608.82 1167.54 608.828 1169C608.82 1170.84 610.461 1172.16 612.844 1172.16ZM610.234 1168.92C610.211 1167.67 611.328 1166.75 612.844 1166.75C614.367 1166.75 615.469 1167.67 615.469 1168.92C615.469 1170.11 614.461 1170.91 612.844 1170.92C611.219 1170.91 610.211 1170.11 610.234 1168.92ZM610.625 1163.64C610.633 1162.51 611.5 1161.74 612.844 1161.75C614.164 1161.74 615.062 1162.51 615.062 1163.64C615.062 1164.78 614.133 1165.55 612.844 1165.56C611.547 1165.55 610.633 1164.78 610.625 1163.64Z" fill="black"/>
<path d="M320.812 1123H322.281L327.453 1113V1111.69H320.016V1112.94H326V1113.02L320.812 1123ZM329.281 1123H336.625V1121.75H331.234V1121.66L333.828 1118.98C335.828 1116.92 336.414 1115.94 336.422 1114.67C336.414 1112.91 334.961 1111.53 332.906 1111.53C330.859 1111.53 329.312 1112.88 329.328 1114.88H330.656C330.664 1113.61 331.508 1112.76 332.859 1112.75C334.133 1112.76 335.102 1113.51 335.109 1114.67C335.102 1115.72 334.461 1116.48 333.125 1117.91L329.266 1121.97L329.281 1123Z" fill="black"/>
<path d="M320.812 1346H322.281L327.453 1336V1334.69H320.016V1335.94H326V1336.02L320.812 1346ZM329.281 1346H336.625V1344.75H331.234V1344.66L333.828 1341.98C335.828 1339.92 336.414 1338.94 336.422 1337.67C336.414 1335.91 334.961 1334.53 332.906 1334.53C330.859 1334.53 329.312 1335.88 329.328 1337.88H330.656C330.664 1336.61 331.508 1335.76 332.859 1335.75C334.133 1335.76 335.102 1336.51 335.109 1337.67C335.102 1338.72 334.461 1339.48 333.125 1340.91L329.266 1344.97L329.281 1346Z" fill="black"/>
<path d="M186.453 1213.69H185.031L182.219 1215.56V1216.98L184.969 1215.16H185.031V1225H186.453V1213.69ZM193.406 1225.16C195.789 1225.18 197.344 1223.48 197.344 1221.34C197.344 1219.16 195.664 1217.59 193.656 1217.59C192.438 1217.59 191.398 1218.15 190.75 1219.09H190.609C190.602 1216.37 191.719 1214.78 193.578 1214.78C194.836 1214.78 195.602 1215.53 195.859 1216.53H197.25C196.961 1214.76 195.57 1213.53 193.578 1213.53C190.922 1213.53 189.281 1215.77 189.281 1219.78C189.281 1223.97 191.445 1225.13 193.406 1225.16ZM190.797 1221.38C190.812 1220.04 191.953 1218.84 193.438 1218.83C194.914 1218.84 195.977 1219.97 195.984 1221.36C195.977 1222.77 194.867 1223.91 193.406 1223.92C191.891 1223.91 190.805 1222.7 190.797 1221.38ZM199.281 1225H206.625V1223.75H201.234V1223.66L203.828 1220.98C205.828 1218.92 206.414 1217.94 206.422 1216.67C206.414 1214.91 204.961 1213.53 202.906 1213.53C200.859 1213.53 199.312 1214.88 199.328 1216.88H200.656C200.664 1215.61 201.508 1214.76 202.859 1214.75C204.133 1214.76 205.102 1215.51 205.109 1216.67C205.102 1217.72 204.461 1218.48 203.125 1219.91L199.266 1223.97L199.281 1225Z" fill="black"/>
<path d="M185.694 312H194.217C198.756 312 201.144 309.64 201.158 306.447C201.144 303.477 199.006 301.672 196.744 301.561V301.367C198.812 300.908 200.367 299.423 200.353 297.063C200.367 294.037 198.118 291.899 193.69 291.899H185.694V312ZM189.858 308.557V303.171H193.495C195.55 303.171 196.841 304.365 196.827 306.059C196.841 307.572 195.8 308.571 193.384 308.557H189.858ZM189.858 300.311V295.286H193.162C195.064 295.286 196.147 296.272 196.133 297.729C196.147 299.34 194.828 300.325 193.079 300.311H189.858ZM202.99 307.78C203.004 310.765 205.128 312.292 208.016 312.278C210.251 312.292 211.694 311.306 212.43 309.918H212.541V312H216.428V301.838C216.442 298.201 213.332 296.73 210.042 296.73C206.044 296.73 203.768 298.784 203.518 301.394H207.433C207.655 300.367 208.529 299.742 209.931 299.728C211.472 299.742 212.333 300.464 212.347 301.727V302.949C211.708 302.977 209.681 303.074 208.599 303.143C205.697 303.324 203.004 304.421 202.99 307.78ZM206.933 307.669C206.933 306.503 207.835 305.823 209.265 305.698C209.959 305.642 211.722 305.545 212.347 305.517V306.614C212.361 308.21 211.056 309.432 209.182 309.446C207.863 309.432 206.933 308.821 206.933 307.669ZM226.34 312.305C230.338 312.292 232.85 309.945 233.031 306.531H229.171C228.908 308.127 227.839 309.029 226.395 309.029C224.396 309.029 223.119 307.363 223.119 304.448C223.119 301.589 224.424 299.937 226.395 299.923C227.95 299.937 228.922 300.964 229.171 302.449H233.031C232.864 298.993 230.227 296.73 226.34 296.73C221.772 296.73 218.941 299.895 218.954 304.504C218.941 309.099 221.717 312.292 226.34 312.305ZM235.585 312H239.694V307.169L240.846 305.864L244.997 312H249.828L243.9 303.449L249.522 296.924H244.802L239.916 302.699H239.694V291.899H235.585V312ZM257.574 317.969C261.863 317.969 264.889 316.012 264.903 312.167V296.924H260.822V299.451H260.655C260.1 298.229 258.879 296.73 256.352 296.73C253.02 296.73 250.216 299.27 250.216 304.365C250.216 309.39 252.951 311.792 256.352 311.778C258.781 311.792 260.114 310.556 260.655 309.335H260.85V312.083C260.836 314.179 259.559 314.998 257.657 314.998C256.019 314.998 254.881 314.457 254.659 313.249H250.605C250.841 316.095 253.409 317.969 257.574 317.969ZM254.436 304.421C254.423 301.825 255.533 300.006 257.629 300.006C259.698 300.006 260.85 301.741 260.85 304.421C260.85 307.1 259.684 308.682 257.629 308.696C255.547 308.682 254.423 307.03 254.436 304.421ZM268.096 312H272.205V303.421C272.191 301.575 273.566 300.284 275.426 300.284C275.995 300.284 276.786 300.381 277.175 300.506V296.841C276.814 296.758 276.286 296.702 275.87 296.702C274.176 296.702 272.774 297.688 272.233 299.534H272.066V296.924H268.096V312ZM285.476 312.305C290.043 312.292 292.875 309.168 292.889 304.504C292.875 299.853 290.043 296.73 285.476 296.73C280.923 296.73 278.077 299.853 278.091 304.504C278.077 309.168 280.923 312.292 285.476 312.305ZM282.256 304.504C282.256 301.852 283.352 299.867 285.504 299.867C287.6 299.867 288.711 301.852 288.697 304.504C288.711 307.141 287.6 309.099 285.504 309.113C283.352 309.099 282.256 307.141 282.256 304.504ZM305.133 305.587C305.133 307.641 303.717 308.71 302.218 308.724C300.607 308.71 299.58 307.599 299.58 305.809V296.924H295.471V306.531C295.471 310.057 297.54 312.194 300.552 312.194C302.829 312.194 304.453 311.028 305.133 309.279H305.299V312H309.242V296.924H305.133V305.587ZM316.544 303.282C316.544 301.297 317.724 300.145 319.431 300.145C321.139 300.145 322.138 301.255 322.152 303.116V312H326.233V302.394C326.247 298.882 324.193 296.73 321.041 296.73C318.807 296.73 317.196 297.827 316.516 299.562H316.349V296.924H312.435V312H316.544V303.282ZM334.979 312.25C337.436 312.25 338.685 310.834 339.254 309.585H339.449V312H343.502V291.899H339.393V299.451H339.254C338.713 298.229 337.505 296.73 334.979 296.73C331.647 296.73 328.843 299.312 328.843 304.476C328.843 309.515 331.536 312.25 334.979 312.25ZM333.063 304.448C333.049 301.825 334.16 300.006 336.256 300.006C338.324 300.006 339.477 301.741 339.477 304.448C339.477 307.169 338.31 308.96 336.256 308.974C334.174 308.96 333.049 307.114 333.063 304.448Z" fill="white"/>
<path d="M996.694 312H1005.22C1009.76 312 1012.14 309.64 1012.16 306.447C1012.14 303.477 1010.01 301.672 1007.74 301.561V301.367C1009.81 300.908 1011.37 299.423 1011.35 297.063C1011.37 294.037 1009.12 291.899 1004.69 291.899H996.694V312ZM1000.86 308.557V303.171H1004.5C1006.55 303.171 1007.84 304.365 1007.83 306.059C1007.84 307.572 1006.8 308.571 1004.38 308.557H1000.86ZM1000.86 300.311V295.286H1004.16C1006.06 295.286 1007.15 296.272 1007.13 297.729C1007.15 299.34 1005.83 300.325 1004.08 300.311H1000.86ZM1013.99 307.78C1014 310.765 1016.13 312.292 1019.02 312.278C1021.25 312.292 1022.69 311.306 1023.43 309.918H1023.54V312H1027.43V301.838C1027.44 298.201 1024.33 296.73 1021.04 296.73C1017.04 296.73 1014.77 298.784 1014.52 301.394H1018.43C1018.65 300.367 1019.53 299.742 1020.93 299.728C1022.47 299.742 1023.33 300.464 1023.35 301.727V302.949C1022.71 302.977 1020.68 303.074 1019.6 303.143C1016.7 303.324 1014 304.421 1013.99 307.78ZM1017.93 307.669C1017.93 306.503 1018.84 305.823 1020.26 305.698C1020.96 305.642 1022.72 305.545 1023.35 305.517V306.614C1023.36 308.21 1022.06 309.432 1020.18 309.446C1018.86 309.432 1017.93 308.821 1017.93 307.669ZM1037.34 312.305C1041.34 312.292 1043.85 309.945 1044.03 306.531H1040.17C1039.91 308.127 1038.84 309.029 1037.4 309.029C1035.4 309.029 1034.12 307.363 1034.12 304.448C1034.12 301.589 1035.42 299.937 1037.4 299.923C1038.95 299.937 1039.92 300.964 1040.17 302.449H1044.03C1043.86 298.993 1041.23 296.73 1037.34 296.73C1032.77 296.73 1029.94 299.895 1029.95 304.504C1029.94 309.099 1032.72 312.292 1037.34 312.305ZM1046.58 312H1050.69V307.169L1051.85 305.864L1056 312H1060.83L1054.9 303.449L1060.52 296.924H1055.8L1050.92 302.699H1050.69V291.899H1046.58V312ZM1068.57 317.969C1072.86 317.969 1075.89 316.012 1075.9 312.167V296.924H1071.82V299.451H1071.66C1071.1 298.229 1069.88 296.73 1067.35 296.73C1064.02 296.73 1061.22 299.27 1061.22 304.365C1061.22 309.39 1063.95 311.792 1067.35 311.778C1069.78 311.792 1071.11 310.556 1071.66 309.335H1071.85V312.083C1071.84 314.179 1070.56 314.998 1068.66 314.998C1067.02 314.998 1065.88 314.457 1065.66 313.249H1061.61C1061.84 316.095 1064.41 317.969 1068.57 317.969ZM1065.44 304.421C1065.42 301.825 1066.53 300.006 1068.63 300.006C1070.7 300.006 1071.85 301.741 1071.85 304.421C1071.85 307.1 1070.68 308.682 1068.63 308.696C1066.55 308.682 1065.42 307.03 1065.44 304.421ZM1079.1 312H1083.21V303.421C1083.19 301.575 1084.57 300.284 1086.43 300.284C1086.99 300.284 1087.79 300.381 1088.17 300.506V296.841C1087.81 296.758 1087.29 296.702 1086.87 296.702C1085.18 296.702 1083.77 297.688 1083.23 299.534H1083.07V296.924H1079.1V312ZM1096.48 312.305C1101.04 312.292 1103.88 309.168 1103.89 304.504C1103.88 299.853 1101.04 296.73 1096.48 296.73C1091.92 296.73 1089.08 299.853 1089.09 304.504C1089.08 309.168 1091.92 312.292 1096.48 312.305ZM1093.26 304.504C1093.26 301.852 1094.35 299.867 1096.5 299.867C1098.6 299.867 1099.71 301.852 1099.7 304.504C1099.71 307.141 1098.6 309.099 1096.5 309.113C1094.35 309.099 1093.26 307.141 1093.26 304.504ZM1116.13 305.587C1116.13 307.641 1114.72 308.71 1113.22 308.724C1111.61 308.71 1110.58 307.599 1110.58 305.809V296.924H1106.47V306.531C1106.47 310.057 1108.54 312.194 1111.55 312.194C1113.83 312.194 1115.45 311.028 1116.13 309.279H1116.3V312H1120.24V296.924H1116.13V305.587ZM1127.54 303.282C1127.54 301.297 1128.72 300.145 1130.43 300.145C1132.14 300.145 1133.14 301.255 1133.15 303.116V312H1137.23V302.394C1137.25 298.882 1135.19 296.73 1132.04 296.73C1129.81 296.73 1128.2 297.827 1127.52 299.562H1127.35V296.924H1123.43V312H1127.54V303.282ZM1145.98 312.25C1148.44 312.25 1149.69 310.834 1150.25 309.585H1150.45V312H1154.5V291.899H1150.39V299.451H1150.25C1149.71 298.229 1148.51 296.73 1145.98 296.73C1142.65 296.73 1139.84 299.312 1139.84 304.476C1139.84 309.515 1142.54 312.25 1145.98 312.25ZM1144.06 304.448C1144.05 301.825 1145.16 300.006 1147.26 300.006C1149.32 300.006 1150.48 301.741 1150.48 304.448C1150.48 307.169 1149.31 308.96 1147.26 308.974C1145.17 308.96 1144.05 307.114 1144.06 304.448Z" fill="white"/>
<path d="M204.101 341.95C204.101 335.383 200.034 331.621 194.717 331.621C189.358 331.621 185.305 335.383 185.305 341.95C185.305 348.488 189.358 352.278 194.717 352.278C200.034 352.278 204.101 348.516 204.101 341.95ZM189.553 341.95C189.553 337.646 191.593 335.328 194.717 335.314C197.812 335.328 199.867 337.646 199.853 341.95C199.867 346.239 197.812 348.571 194.717 348.585C191.593 348.571 189.553 346.239 189.553 341.95ZM207.016 357.664H211.125V349.585H211.236C211.819 350.834 213.082 352.25 215.54 352.25C218.982 352.25 221.661 349.515 221.648 344.476C221.661 339.312 218.871 336.73 215.54 336.73C212.999 336.73 211.805 338.229 211.236 339.451H211.07V336.924H207.016V357.664ZM211.042 344.448C211.028 341.741 212.18 340.006 214.235 340.006C216.359 340.006 217.469 341.825 217.455 344.448C217.469 347.114 216.331 348.96 214.235 348.974C212.194 348.96 211.028 347.169 211.042 344.448ZM223.591 347.78C223.605 350.765 225.729 352.292 228.616 352.278C230.851 352.292 232.295 351.306 233.031 349.918H233.142V352H237.029V341.838C237.042 338.201 233.933 336.73 230.643 336.73C226.645 336.73 224.368 338.784 224.119 341.394H228.033C228.255 340.367 229.13 339.742 230.532 339.728C232.073 339.742 232.933 340.464 232.947 341.727V342.949C232.309 342.977 230.282 343.074 229.199 343.143C226.298 343.324 223.605 344.421 223.591 347.78ZM227.533 347.669C227.533 346.503 228.436 345.823 229.866 345.698C230.56 345.642 232.323 345.545 232.947 345.517V346.614C232.961 348.21 231.656 349.432 229.782 349.446C228.464 349.432 227.533 348.821 227.533 347.669ZM246.94 352.305C250.938 352.292 253.451 349.945 253.631 346.531H249.772C249.508 348.127 248.439 349.029 246.996 349.029C244.997 349.029 243.72 347.363 243.72 344.448C243.72 341.589 245.025 339.937 246.996 339.923C248.551 339.937 249.522 340.964 249.772 342.449H253.631C253.465 338.993 250.827 336.73 246.94 336.73C242.373 336.73 239.541 339.895 239.555 344.504C239.541 349.099 242.318 352.292 246.94 352.305ZM256.186 352H260.295V336.924H256.186V352ZM255.991 332.871C255.991 334.009 257.005 334.953 258.24 334.953C259.462 334.953 260.475 334.009 260.461 332.871C260.475 331.705 259.462 330.775 258.24 330.761C257.005 330.775 255.991 331.705 255.991 332.871ZM271.428 336.924H268.596V333.315H264.487V336.924H262.405V340.006H264.487V347.947C264.459 350.876 266.486 352.208 269.457 352.194C270.47 352.208 271.206 352.125 271.65 352.056V348.807C271.15 348.849 270.428 348.89 270.012 348.89C269.179 348.863 268.582 348.571 268.596 347.363V340.006H271.428V336.924ZM276.425 357.664C279.604 357.65 281.256 356.095 282.117 353.666L288.003 336.924H283.644L280.451 348.03H280.284L277.119 336.924H272.816L278.23 352.416L277.98 353.055C277.48 354.36 276.828 354.443 276.009 354.443C275.495 354.443 274.87 354.429 274.343 354.388V357.58C274.87 357.636 275.62 357.65 276.425 357.664Z" fill="white"/>
<path d="M1015.1 341.95C1015.1 335.383 1011.03 331.621 1005.72 331.621C1000.36 331.621 996.305 335.383 996.305 341.95C996.305 348.488 1000.36 352.278 1005.72 352.278C1011.03 352.278 1015.1 348.516 1015.1 341.95ZM1000.55 341.95C1000.55 337.646 1002.59 335.328 1005.72 335.314C1008.81 335.328 1010.87 337.646 1010.85 341.95C1010.87 346.239 1008.81 348.571 1005.72 348.585C1002.59 348.571 1000.55 346.239 1000.55 341.95ZM1018.02 357.664H1022.13V349.585H1022.24C1022.82 350.834 1024.08 352.25 1026.54 352.25C1029.98 352.25 1032.66 349.515 1032.65 344.476C1032.66 339.312 1029.87 336.73 1026.54 336.73C1024 336.73 1022.81 338.229 1022.24 339.451H1022.07V336.924H1018.02V357.664ZM1022.04 344.448C1022.03 341.741 1023.18 340.006 1025.23 340.006C1027.36 340.006 1028.47 341.825 1028.46 344.448C1028.47 347.114 1027.33 348.96 1025.23 348.974C1023.19 348.96 1022.03 347.169 1022.04 344.448ZM1034.59 347.78C1034.6 350.765 1036.73 352.292 1039.62 352.278C1041.85 352.292 1043.29 351.306 1044.03 349.918H1044.14V352H1048.03V341.838C1048.04 338.201 1044.93 336.73 1041.64 336.73C1037.65 336.73 1035.37 338.784 1035.12 341.394H1039.03C1039.26 340.367 1040.13 339.742 1041.53 339.728C1043.07 339.742 1043.93 340.464 1043.95 341.727V342.949C1043.31 342.977 1041.28 343.074 1040.2 343.143C1037.3 343.324 1034.6 344.421 1034.59 347.78ZM1038.53 347.669C1038.53 346.503 1039.44 345.823 1040.87 345.698C1041.56 345.642 1043.32 345.545 1043.95 345.517V346.614C1043.96 348.21 1042.66 349.432 1040.78 349.446C1039.46 349.432 1038.53 348.821 1038.53 347.669ZM1057.94 352.305C1061.94 352.292 1064.45 349.945 1064.63 346.531H1060.77C1060.51 348.127 1059.44 349.029 1058 349.029C1056 349.029 1054.72 347.363 1054.72 344.448C1054.72 341.589 1056.02 339.937 1058 339.923C1059.55 339.937 1060.52 340.964 1060.77 342.449H1064.63C1064.46 338.993 1061.83 336.73 1057.94 336.73C1053.37 336.73 1050.54 339.895 1050.56 344.504C1050.54 349.099 1053.32 352.292 1057.94 352.305ZM1067.19 352H1071.29V336.924H1067.19V352ZM1066.99 332.871C1066.99 334.009 1068 334.953 1069.24 334.953C1070.46 334.953 1071.48 334.009 1071.46 332.871C1071.48 331.705 1070.46 330.775 1069.24 330.761C1068 330.775 1066.99 331.705 1066.99 332.871ZM1082.43 336.924H1079.6V333.315H1075.49V336.924H1073.4V340.006H1075.49V347.947C1075.46 350.876 1077.49 352.208 1080.46 352.194C1081.47 352.208 1082.21 352.125 1082.65 352.056V348.807C1082.15 348.849 1081.43 348.89 1081.01 348.89C1080.18 348.863 1079.58 348.571 1079.6 347.363V340.006H1082.43V336.924ZM1087.43 357.664C1090.6 357.65 1092.26 356.095 1093.12 353.666L1099 336.924H1094.64L1091.45 348.03H1091.28L1088.12 336.924H1083.82L1089.23 352.416L1088.98 353.055C1088.48 354.36 1087.83 354.443 1087.01 354.443C1086.5 354.443 1085.87 354.429 1085.34 354.388V357.58C1085.87 357.636 1086.62 357.65 1087.43 357.664Z" fill="white"/>
<path d="M365.25 312H369.359C372.031 312 373.148 310.695 373.156 309C373.148 307.203 371.914 306.234 370.859 306.172V306.062C371.844 305.789 372.711 305.141 372.703 303.688C372.711 302.023 371.594 300.688 369.219 300.688H365.25V312ZM366.656 310.75V306.859H369.422C370.875 306.859 371.805 307.836 371.797 308.984C371.805 309.969 371.117 310.75 369.344 310.75H366.656ZM366.656 305.641V301.938H369.219C370.695 301.938 371.359 302.719 371.359 303.703C371.359 304.883 370.398 305.648 369.172 305.641H366.656ZM376.328 300.688H374.984V312H376.328V300.688ZM383.828 308.516C383.82 310.102 382.617 310.82 381.656 310.812C380.57 310.82 379.812 310.031 379.812 308.812V303.516H378.469V308.906C378.461 311.062 379.609 312.109 381.219 312.109C382.492 312.109 383.336 311.422 383.734 310.562H383.828V312H385.156V303.516H383.828V308.516ZM390.875 312.172C392.625 312.18 393.883 311.305 394.281 310.016H392.844C392.531 310.539 391.891 310.984 390.875 310.984C389.367 310.984 388.32 310 388.25 308.203H394.406V307.641C394.414 304.5 392.531 303.406 390.75 303.406C388.445 303.406 386.906 305.219 386.906 307.828C386.906 310.43 388.422 312.18 390.875 312.172ZM388.258 307.062C388.352 305.75 389.281 304.594 390.75 304.594C392.148 304.594 393.039 305.648 393.047 307.062H388.258ZM397.109 312.094C397.664 312.086 398.117 311.633 398.109 311.078C398.117 310.531 397.664 310.078 397.109 310.078C396.562 310.078 396.094 310.531 396.109 311.078C396.094 311.633 396.562 312.086 397.109 312.094ZM403.844 300.531C401.438 300.508 399.891 302.219 399.891 304.328C399.891 306.508 401.57 308.062 403.594 308.062C404.797 308.062 405.836 307.5 406.484 306.562H406.641C406.625 309.312 405.5 310.906 403.656 310.906C402.398 310.906 401.625 310.156 401.375 309.141H399.984C400.266 310.938 401.664 312.156 403.656 312.156C406.305 312.156 407.953 309.914 407.953 305.891C407.953 301.727 405.789 300.555 403.844 300.531ZM401.266 304.312C401.25 302.914 402.367 301.766 403.844 301.766C405.336 301.766 406.422 302.984 406.422 304.281C406.422 305.609 405.273 306.828 403.797 306.828C402.32 306.828 401.258 305.711 401.266 304.312ZM413.594 312.156C416.102 312.156 417.547 310.047 417.547 306.344C417.547 302.672 416.078 300.531 413.594 300.531C411.102 300.531 409.633 302.672 409.641 306.344C409.633 310.047 411.086 312.156 413.594 312.156ZM411 306.344C411.008 303.414 411.969 301.758 413.594 301.75C415.219 301.758 416.18 303.414 416.172 306.344C416.18 309.273 415.227 310.906 413.594 310.906C411.953 310.906 411.008 309.273 411 306.344ZM423.125 312.156C425.633 312.156 427.078 310.047 427.078 306.344C427.078 302.672 425.609 300.531 423.125 300.531C420.633 300.531 419.164 302.672 419.172 306.344C419.164 310.047 420.617 312.156 423.125 312.156ZM420.531 306.344C420.539 303.414 421.5 301.758 423.125 301.75C424.75 301.758 425.711 303.414 425.703 306.344C425.711 309.273 424.758 310.906 423.125 310.906C421.484 310.906 420.539 309.273 420.531 306.344Z" fill="white"/>
<path d="M1176.25 312H1180.36C1183.03 312 1184.15 310.695 1184.16 309C1184.15 307.203 1182.91 306.234 1181.86 306.172V306.062C1182.84 305.789 1183.71 305.141 1183.7 303.688C1183.71 302.023 1182.59 300.688 1180.22 300.688H1176.25V312ZM1177.66 310.75V306.859H1180.42C1181.88 306.859 1182.8 307.836 1182.8 308.984C1182.8 309.969 1182.12 310.75 1180.34 310.75H1177.66ZM1177.66 305.641V301.938H1180.22C1181.7 301.938 1182.36 302.719 1182.36 303.703C1182.36 304.883 1181.4 305.648 1180.17 305.641H1177.66ZM1187.33 300.688H1185.98V312H1187.33V300.688ZM1194.83 308.516C1194.82 310.102 1193.62 310.82 1192.66 310.812C1191.57 310.82 1190.81 310.031 1190.81 308.812V303.516H1189.47V308.906C1189.46 311.062 1190.61 312.109 1192.22 312.109C1193.49 312.109 1194.34 311.422 1194.73 310.562H1194.83V312H1196.16V303.516H1194.83V308.516ZM1201.88 312.172C1203.62 312.18 1204.88 311.305 1205.28 310.016H1203.84C1203.53 310.539 1202.89 310.984 1201.88 310.984C1200.37 310.984 1199.32 310 1199.25 308.203H1205.41V307.641C1205.41 304.5 1203.53 303.406 1201.75 303.406C1199.45 303.406 1197.91 305.219 1197.91 307.828C1197.91 310.43 1199.42 312.18 1201.88 312.172ZM1199.26 307.062C1199.35 305.75 1200.28 304.594 1201.75 304.594C1203.15 304.594 1204.04 305.648 1204.05 307.062H1199.26ZM1208.11 312.094C1208.66 312.086 1209.12 311.633 1209.11 311.078C1209.12 310.531 1208.66 310.078 1208.11 310.078C1207.56 310.078 1207.09 310.531 1207.11 311.078C1207.09 311.633 1207.56 312.086 1208.11 312.094ZM1214.84 300.531C1212.44 300.508 1210.89 302.219 1210.89 304.328C1210.89 306.508 1212.57 308.062 1214.59 308.062C1215.8 308.062 1216.84 307.5 1217.48 306.562H1217.64C1217.62 309.312 1216.5 310.906 1214.66 310.906C1213.4 310.906 1212.62 310.156 1212.38 309.141H1210.98C1211.27 310.938 1212.66 312.156 1214.66 312.156C1217.3 312.156 1218.95 309.914 1218.95 305.891C1218.95 301.727 1216.79 300.555 1214.84 300.531ZM1212.27 304.312C1212.25 302.914 1213.37 301.766 1214.84 301.766C1216.34 301.766 1217.42 302.984 1217.42 304.281C1217.42 305.609 1216.27 306.828 1214.8 306.828C1213.32 306.828 1212.26 305.711 1212.27 304.312ZM1224.59 312.156C1227.1 312.156 1228.55 310.047 1228.55 306.344C1228.55 302.672 1227.08 300.531 1224.59 300.531C1222.1 300.531 1220.63 302.672 1220.64 306.344C1220.63 310.047 1222.09 312.156 1224.59 312.156ZM1222 306.344C1222.01 303.414 1222.97 301.758 1224.59 301.75C1226.22 301.758 1227.18 303.414 1227.17 306.344C1227.18 309.273 1226.23 310.906 1224.59 310.906C1222.95 310.906 1222.01 309.273 1222 306.344ZM1234.12 312.156C1236.63 312.156 1238.08 310.047 1238.08 306.344C1238.08 302.672 1236.61 300.531 1234.12 300.531C1231.63 300.531 1230.16 302.672 1230.17 306.344C1230.16 310.047 1231.62 312.156 1234.12 312.156ZM1231.53 306.344C1231.54 303.414 1232.5 301.758 1234.12 301.75C1235.75 301.758 1236.71 303.414 1236.7 306.344C1236.71 309.273 1235.76 310.906 1234.12 310.906C1232.48 310.906 1231.54 309.273 1231.53 306.344Z" fill="white"/>
<path d="M368.844 352.156C371.203 352.156 372.859 350.836 372.875 349C372.859 347.539 371.844 346.328 370.562 346.125V346.062C371.672 345.805 372.422 344.766 372.438 343.531C372.422 341.805 370.906 340.531 368.844 340.531C366.773 340.531 365.258 341.805 365.266 343.531C365.258 344.766 366 345.805 367.125 346.062V346.125C365.836 346.328 364.82 347.539 364.828 349C364.82 350.836 366.461 352.156 368.844 352.156ZM366.234 348.922C366.211 347.672 367.328 346.75 368.844 346.75C370.367 346.75 371.469 347.672 371.469 348.922C371.469 350.109 370.461 350.914 368.844 350.922C367.219 350.914 366.211 350.109 366.234 348.922ZM366.625 343.641C366.633 342.508 367.5 341.742 368.844 341.75C370.164 341.742 371.062 342.508 371.062 343.641C371.062 344.781 370.133 345.555 368.844 345.562C367.547 345.555 366.633 344.781 366.625 343.641ZM378.469 352.156C380.977 352.156 382.422 350.047 382.422 346.344C382.422 342.672 380.953 340.531 378.469 340.531C375.977 340.531 374.508 342.672 374.516 346.344C374.508 350.047 375.961 352.156 378.469 352.156ZM375.875 346.344C375.883 343.414 376.844 341.758 378.469 341.75C380.094 341.758 381.055 343.414 381.047 346.344C381.055 349.273 380.102 350.906 378.469 350.906C376.828 350.906 375.883 349.273 375.875 346.344ZM386.688 345.938C388.141 345.945 388.945 344.836 388.953 343.219C388.945 341.625 388.172 340.516 386.688 340.516C385.258 340.516 384.414 341.625 384.422 343.219C384.414 344.836 385.227 345.945 386.688 345.938ZM385.531 352H386.797L394.578 340.688H393.312L385.531 352ZM385.562 343.219C385.562 342.18 385.945 341.492 386.688 341.484C387.477 341.469 387.812 342.18 387.812 343.219C387.812 344.273 387.453 344.969 386.688 344.969C385.93 344.969 385.562 344.273 385.562 343.219ZM391.328 349.453C391.312 351.062 392.117 352.164 393.594 352.156C395.039 352.164 395.844 351.062 395.844 349.453C395.844 347.844 395.055 346.742 393.594 346.734C392.148 346.742 391.312 347.844 391.328 349.453ZM392.453 349.453C392.461 348.398 392.836 347.711 393.594 347.703C394.375 347.688 394.703 348.398 394.703 349.453C394.703 350.5 394.352 351.195 393.594 351.188C392.828 351.195 392.461 350.5 392.453 349.453Z" fill="white"/>
<path d="M1179.84 352.156C1182.2 352.156 1183.86 350.836 1183.88 349C1183.86 347.539 1182.84 346.328 1181.56 346.125V346.062C1182.67 345.805 1183.42 344.766 1183.44 343.531C1183.42 341.805 1181.91 340.531 1179.84 340.531C1177.77 340.531 1176.26 341.805 1176.27 343.531C1176.26 344.766 1177 345.805 1178.12 346.062V346.125C1176.84 346.328 1175.82 347.539 1175.83 349C1175.82 350.836 1177.46 352.156 1179.84 352.156ZM1177.23 348.922C1177.21 347.672 1178.33 346.75 1179.84 346.75C1181.37 346.75 1182.47 347.672 1182.47 348.922C1182.47 350.109 1181.46 350.914 1179.84 350.922C1178.22 350.914 1177.21 350.109 1177.23 348.922ZM1177.62 343.641C1177.63 342.508 1178.5 341.742 1179.84 341.75C1181.16 341.742 1182.06 342.508 1182.06 343.641C1182.06 344.781 1181.13 345.555 1179.84 345.562C1178.55 345.555 1177.63 344.781 1177.62 343.641ZM1189.47 352.156C1191.98 352.156 1193.42 350.047 1193.42 346.344C1193.42 342.672 1191.95 340.531 1189.47 340.531C1186.98 340.531 1185.51 342.672 1185.52 346.344C1185.51 350.047 1186.96 352.156 1189.47 352.156ZM1186.88 346.344C1186.88 343.414 1187.84 341.758 1189.47 341.75C1191.09 341.758 1192.05 343.414 1192.05 346.344C1192.05 349.273 1191.1 350.906 1189.47 350.906C1187.83 350.906 1186.88 349.273 1186.88 346.344ZM1197.69 345.938C1199.14 345.945 1199.95 344.836 1199.95 343.219C1199.95 341.625 1199.17 340.516 1197.69 340.516C1196.26 340.516 1195.41 341.625 1195.42 343.219C1195.41 344.836 1196.23 345.945 1197.69 345.938ZM1196.53 352H1197.8L1205.58 340.688H1204.31L1196.53 352ZM1196.56 343.219C1196.56 342.18 1196.95 341.492 1197.69 341.484C1198.48 341.469 1198.81 342.18 1198.81 343.219C1198.81 344.273 1198.45 344.969 1197.69 344.969C1196.93 344.969 1196.56 344.273 1196.56 343.219ZM1202.33 349.453C1202.31 351.062 1203.12 352.164 1204.59 352.156C1206.04 352.164 1206.84 351.062 1206.84 349.453C1206.84 347.844 1206.05 346.742 1204.59 346.734C1203.15 346.742 1202.31 347.844 1202.33 349.453ZM1203.45 349.453C1203.46 348.398 1203.84 347.711 1204.59 347.703C1205.38 347.688 1205.7 348.398 1205.7 349.453C1205.7 350.5 1205.35 351.195 1204.59 351.188C1203.83 351.195 1203.46 350.5 1203.45 349.453Z" fill="white"/>
<defs>
<filter id="filter0_d_24_291" x="171" y="379" width="448" height="332" filterUnits="userSpaceOnUse" color-interpolation-filters="sRGB">
<feFlood flood-opacity="0" result="BackgroundImageFix"/>
<feColorMatrix in="SourceAlpha" type="matrix" values="0 0 0 0 0 0 0 0 0 0 0 0 0 0 0 0 0 0 127 0" result="hardAlpha"/>
<feOffset dy="8"/>
<feGaussianBlur stdDeviation="5"/>
<feComposite in2="hardAlpha" operator="out"/>
<feColorMatrix type="matrix" values="0 0 0 0 0 0 0 0 0 0 0 0 0 0 0 0 0 0 0.1 0"/>
<feBlend mode="normal" in2="BackgroundImageFix" result="effect1_dropShadow_24_291"/>
<feBlend mode="normal" in="SourceGraphic" in2="effect1_dropShadow_24_291" result="shape"/>
</filter>
<filter id="filter1_d_24_291" x="104" y="1064" width="448" height="332" filterUnits="userSpaceOnUse" color-interpolation-filters="sRGB">
<feFlood flood-opacity="0" result="BackgroundImageFix"/>
<feColorMatrix in="SourceAlpha" type="matrix" values="0 0 0 0 0 0 0 0 0 0 0 0 0 0 0 0 0 0 127 0" result="hardAlpha"/>
<feOffset dy="8"/>
<feGaussianBlur stdDeviation="5"/>
<feComposite in2="hardAlpha" operator="out"/>
<feColorMatrix type="matrix" values="0 0 0 0 0 0 0 0 0 0 0 0 0 0 0 0 0 0 0.1 0"/>
<feBlend mode="normal" in2="BackgroundImageFix" result="effect1_dropShadow_24_291"/>
<feBlend mode="normal" in="SourceGraphic" in2="effect1_dropShadow_24_291" result="shape"/>
</filter>
<filter id="filter2_d_24_291" x="990" y="379" width="448" height="332" filterUnits="userSpaceOnUse" color-interpolation-filters="sRGB">
<feFlood flood-opacity="0" result="BackgroundImageFix"/>
<feColorMatrix in="SourceAlpha" type="matrix" values="0 0 0 0 0 0 0 0 0 0 0 0 0 0 0 0 0 0 127 0" result="hardAlpha"/>
<feOffset dy="8"/>
<feGaussianBlur stdDeviation="5"/>
<feComposite in2="hardAlpha" operator="out"/>
<feColorMatrix type="matrix" values="0 0 0 0 0 0 0 0 0 0 0 0 0 0 0 0 0 0 0.1 0"/>
<feBlend mode="normal" in2="BackgroundImageFix" result="effect1_dropShadow_24_291"/>
<feBlend mode="normal" in="SourceGraphic" in2="effect1_dropShadow_24_291" result="shape"/>
</filter>
</defs>
</svg>
