<svg width="305" height="127" viewBox="0 0 305 127" fill="none" xmlns="http://www.w3.org/2000/svg">
<path d="M82.3827 16.196C82.8727 16.196 83.1947 16.112 83.4327 16.028L83.1807 14.502C83.0407 14.53 82.9847 14.53 82.9147 14.53C82.7187 14.53 82.5087 14.376 82.5087 13.886V4.842H80.4507V13.802C80.4507 15.258 80.9407 16.196 82.3827 16.196ZM88.2827 16.196C89.2487 16.196 90.2287 15.874 90.9987 15.342L90.3127 14.068C89.7387 14.418 89.1787 14.614 88.5487 14.614C87.3867 14.614 86.5467 13.956 86.3647 12.668H91.2087C91.2507 12.472 91.2927 12.108 91.2927 11.716C91.2927 9.546 90.1867 7.978 88.0167 7.978C86.1687 7.978 84.3767 9.546 84.3767 12.094C84.3767 14.684 86.0847 16.196 88.2827 16.196ZM86.3367 11.296C86.5047 10.148 87.2327 9.56 88.0587 9.56C89.0667 9.56 89.5427 10.232 89.5427 11.296H86.3367ZM94.6461 16.196C95.5421 16.196 96.3261 15.762 97.0121 15.174H97.0681L97.2221 16H98.9021V11.436C98.9021 9.154 97.8801 7.978 95.8921 7.978C94.6461 7.978 93.5401 8.44 92.6161 9L93.3581 10.372C94.0721 9.938 94.7861 9.63 95.5141 9.63C96.4801 9.63 96.8021 10.204 96.8441 10.974C93.6941 11.324 92.3361 12.206 92.3361 13.872C92.3361 15.216 93.2461 16.196 94.6461 16.196ZM95.3181 14.586C94.7161 14.586 94.2961 14.32 94.2961 13.718C94.2961 13.004 94.9261 12.486 96.8441 12.248V13.83C96.3401 14.32 95.9061 14.586 95.3181 14.586ZM103.24 16.196C105.27 16.196 106.348 15.104 106.348 13.718C106.348 12.276 105.214 11.744 104.178 11.352C103.338 11.058 102.624 10.834 102.624 10.274C102.624 9.812 102.946 9.504 103.66 9.504C104.234 9.504 104.794 9.784 105.34 10.176L106.278 8.944C105.634 8.44 104.738 7.978 103.604 7.978C101.812 7.978 100.692 8.972 100.692 10.358C100.692 11.688 101.798 12.276 102.792 12.668C103.604 12.976 104.43 13.256 104.43 13.83C104.43 14.32 104.066 14.67 103.282 14.67C102.554 14.67 101.896 14.348 101.182 13.802L100.258 15.104C101.028 15.748 102.19 16.196 103.24 16.196ZM110.391 16.196C111.091 16.196 111.637 16.042 112.057 15.902L111.721 14.404C111.497 14.488 111.203 14.586 110.937 14.586C110.251 14.586 109.873 14.166 109.873 13.27V9.784H111.819V8.174H109.873V6.046H108.165L107.941 8.174L106.723 8.258V9.784H107.815V13.27C107.815 15.02 108.529 16.196 110.391 16.196ZM112.392 12.738H116.228V11.268H112.392V12.738ZM121.325 16.196C122.193 16.196 123.159 15.902 123.901 15.258L123.089 13.9C122.655 14.25 122.123 14.53 121.549 14.53C120.429 14.53 119.617 13.564 119.617 12.094C119.617 10.61 120.415 9.658 121.633 9.658C122.053 9.658 122.431 9.826 122.823 10.162L123.789 8.846C123.215 8.342 122.487 7.978 121.507 7.978C119.379 7.978 117.517 9.49 117.517 12.094C117.517 14.684 119.169 16.196 121.325 16.196ZM128.174 16.196C130.134 16.196 131.926 14.684 131.926 12.094C131.926 9.49 130.134 7.978 128.174 7.978C126.2 7.978 124.408 9.49 124.408 12.094C124.408 14.684 126.2 16.196 128.174 16.196ZM128.174 14.53C127.096 14.53 126.508 13.564 126.508 12.094C126.508 10.61 127.096 9.658 128.174 9.658C129.238 9.658 129.826 10.61 129.826 12.094C129.826 13.564 129.238 14.53 128.174 14.53ZM133.662 16H135.72V10.61C136.294 10.05 136.7 9.742 137.344 9.742C138.1 9.742 138.45 10.148 138.45 11.38V16H140.508V11.114C140.508 9.154 139.766 7.978 138.086 7.978C137.022 7.978 136.21 8.538 135.538 9.21H135.496L135.328 8.174H133.662V16ZM142.63 16H144.688V10.61C145.262 10.05 145.668 9.742 146.312 9.742C147.068 9.742 147.418 10.148 147.418 11.38V16H149.476V11.114C149.476 9.154 148.734 7.978 147.054 7.978C145.99 7.978 145.178 8.538 144.506 9.21H144.464L144.296 8.174H142.63V16ZM155.015 16.196C155.981 16.196 156.961 15.874 157.731 15.342L157.045 14.068C156.471 14.418 155.911 14.614 155.281 14.614C154.119 14.614 153.279 13.956 153.097 12.668H157.941C157.983 12.472 158.025 12.108 158.025 11.716C158.025 9.546 156.919 7.978 154.749 7.978C152.901 7.978 151.109 9.546 151.109 12.094C151.109 14.684 152.817 16.196 155.015 16.196ZM153.069 11.296C153.237 10.148 153.965 9.56 154.791 9.56C155.799 9.56 156.275 10.232 156.275 11.296H153.069ZM163.052 16.196C163.92 16.196 164.886 15.902 165.628 15.258L164.816 13.9C164.382 14.25 163.85 14.53 163.276 14.53C162.156 14.53 161.344 13.564 161.344 12.094C161.344 10.61 162.142 9.658 163.36 9.658C163.78 9.658 164.158 9.826 164.55 10.162L165.516 8.846C164.942 8.342 164.214 7.978 163.234 7.978C161.106 7.978 159.244 9.49 159.244 12.094C159.244 14.684 160.896 16.196 163.052 16.196ZM169.74 16.196C170.44 16.196 170.986 16.042 171.406 15.902L171.07 14.404C170.846 14.488 170.552 14.586 170.286 14.586C169.6 14.586 169.222 14.166 169.222 13.27V9.784H171.168V8.174H169.222V6.046H167.514L167.29 8.174L166.072 8.258V9.784H167.164V13.27C167.164 15.02 167.878 16.196 169.74 16.196ZM172.777 16H174.835V8.174H172.777V16ZM173.799 6.9C174.513 6.9 175.003 6.452 175.003 5.766C175.003 5.094 174.513 4.66 173.799 4.66C173.085 4.66 172.609 5.094 172.609 5.766C172.609 6.452 173.085 6.9 173.799 6.9ZM180.305 16.196C182.265 16.196 184.057 14.684 184.057 12.094C184.057 9.49 182.265 7.978 180.305 7.978C178.331 7.978 176.539 9.49 176.539 12.094C176.539 14.684 178.331 16.196 180.305 16.196ZM180.305 14.53C179.227 14.53 178.639 13.564 178.639 12.094C178.639 10.61 179.227 9.658 180.305 9.658C181.369 9.658 181.957 10.61 181.957 12.094C181.957 13.564 181.369 14.53 180.305 14.53ZM185.793 16H187.851V10.61C188.425 10.05 188.831 9.742 189.475 9.742C190.231 9.742 190.581 10.148 190.581 11.38V16H192.639V11.114C192.639 9.154 191.897 7.978 190.217 7.978C189.153 7.978 188.341 8.538 187.669 9.21H187.627L187.459 8.174H185.793V16Z" fill="#5793BF"/>
<rect y="48" width="88" height="79" fill="#82CAC1"/>
<rect x="106" y="48" width="88" height="79" fill="#82CAC1"/>
<rect x="217" y="48" width="88" height="79" fill="#82CAC1"/>
<path d="M32.2473 93H38.4913V91.334H36.5453V82.64H35.0193C34.3473 83.046 33.6473 83.312 32.5973 83.508V84.782H34.4873V91.334H32.2473V93ZM43.5011 93.196C45.6011 93.196 47.0011 91.362 47.0011 87.778C47.0011 84.208 45.6011 82.458 43.5011 82.458C41.3871 82.458 39.9871 84.208 39.9871 87.778C39.9871 91.362 41.3871 93.196 43.5011 93.196ZM43.5011 91.586C42.6051 91.586 41.9331 90.69 41.9331 87.778C41.9331 84.88 42.6051 84.04 43.5011 84.04C44.3971 84.04 45.0551 84.88 45.0551 87.778C45.0551 90.69 44.3971 91.586 43.5011 91.586ZM51.7589 93.196C53.8589 93.196 55.2589 91.362 55.2589 87.778C55.2589 84.208 53.8589 82.458 51.7589 82.458C49.6449 82.458 48.2449 84.208 48.2449 87.778C48.2449 91.362 49.6449 93.196 51.7589 93.196ZM51.7589 91.586C50.8629 91.586 50.1909 90.69 50.1909 87.778C50.1909 84.88 50.8629 84.04 51.7589 84.04C52.6549 84.04 53.3129 84.88 53.3129 87.778C53.3129 90.69 52.6549 91.586 51.7589 91.586Z" fill="white"/>
<path d="M146.358 93.196C148.444 93.196 149.844 92.006 149.844 90.438C149.844 89.01 149.06 88.184 148.108 87.666V87.596C148.78 87.106 149.438 86.252 149.438 85.216C149.438 83.564 148.262 82.472 146.428 82.472C144.622 82.472 143.292 83.536 143.292 85.202C143.292 86.294 143.88 87.092 144.664 87.666V87.722C143.712 88.226 142.9 89.108 142.9 90.438C142.9 92.062 144.37 93.196 146.358 93.196ZM147.016 87.092C145.924 86.658 145.112 86.168 145.112 85.202C145.112 84.376 145.672 83.914 146.386 83.914C147.24 83.914 147.758 84.502 147.758 85.356C147.758 85.972 147.52 86.56 147.016 87.092ZM146.4 91.74C145.434 91.74 144.664 91.138 144.664 90.2C144.664 89.43 145.056 88.73 145.63 88.282C146.96 88.842 147.926 89.276 147.926 90.354C147.926 91.25 147.296 91.74 146.4 91.74ZM154.63 93.196C156.73 93.196 158.13 91.362 158.13 87.778C158.13 84.208 156.73 82.458 154.63 82.458C152.516 82.458 151.116 84.208 151.116 87.778C151.116 91.362 152.516 93.196 154.63 93.196ZM154.63 91.586C153.734 91.586 153.062 90.69 153.062 87.778C153.062 84.88 153.734 84.04 154.63 84.04C155.526 84.04 156.184 84.88 156.184 87.778C156.184 90.69 155.526 91.586 154.63 91.586Z" fill="white"/>
<path d="M253.376 93H259.62V91.334H257.674V82.64H256.148C255.476 83.046 254.776 83.312 253.726 83.508V84.782H255.616V91.334H253.376V93ZM264.63 93.196C266.73 93.196 268.13 91.362 268.13 87.778C268.13 84.208 266.73 82.458 264.63 82.458C262.516 82.458 261.116 84.208 261.116 87.778C261.116 91.362 262.516 93.196 264.63 93.196ZM264.63 91.586C263.734 91.586 263.062 90.69 263.062 87.778C263.062 84.88 263.734 84.04 264.63 84.04C265.526 84.04 266.184 84.88 266.184 87.778C266.184 90.69 265.526 91.586 264.63 91.586Z" fill="white"/>
<path fill-rule="evenodd" clip-rule="evenodd" d="M253.264 59.1899L248.814 63.6394L259.736 74.5607L260.271 74.0254L260.291 74.045L261.465 72.8312L264.185 70.1113L264.14 70.0658L271.029 62.9427L266.505 58.5682L259.69 65.6158L253.264 59.1899Z" fill="#F5F5F5"/>
</svg>
