<svg width="120" height="120" viewBox="0 0 120 120" fill="none" xmlns="http://www.w3.org/2000/svg">
<rect width="120" height="120" fill="white"/>
<ellipse cx="26.0588" cy="57.6054" rx="8.29021" ry="9.079" fill="black"/>
<path fill-rule="evenodd" clip-rule="evenodd" d="M35.4319 45.8375C35.4319 46.1822 35.3836 46.5166 35.2929 46.8352C35.3749 46.926 35.4525 47.0202 35.5255 47.1175C37.3948 47.5442 38.7798 49.0934 38.7798 50.939C38.7798 51.1815 38.7559 51.4188 38.7102 51.6492C40.1804 52.2547 41.2 53.5765 41.2 55.1097C41.2 56.4328 40.4407 57.5984 39.2878 58.2822C39.2986 58.3929 39.3042 58.5049 39.3042 58.6181L39.3041 58.6385L39.304 58.6544C40.3107 59.3522 40.958 60.4396 40.958 61.6612C40.958 63.7669 39.0347 65.4739 36.6622 65.4739C36.614 65.4739 36.566 65.4732 36.5182 65.4718C36.3686 65.9711 36.1078 66.4301 35.7606 66.8267C35.77 66.9296 35.7748 67.0336 35.7748 67.1386C35.7748 69.2443 33.8515 70.9514 31.479 70.9514C31.3498 70.9514 31.222 70.9463 31.0958 70.9364C30.9906 70.9447 30.8844 70.9495 30.7772 70.9509C29.9961 71.6686 28.9005 72.1149 27.6874 72.1149C26.8284 72.1149 26.0283 71.8911 25.3571 71.5057C25.114 71.5483 24.8636 71.5726 24.6077 71.5771C23.8238 72.5016 22.5771 73.0994 21.1731 73.0994C18.9838 73.0994 17.1769 71.6458 16.911 69.7666C16.7842 69.5844 16.6741 69.392 16.5828 69.1911C14.6725 68.804 13.2471 67.2867 13.2471 65.4739L13.2472 65.4423C12.6265 64.8958 12.1927 64.1824 12.0384 63.3842C10.815 62.7122 10 61.5104 10 60.1396C10 58.7852 10.7958 57.5956 11.995 56.9193C12.0336 56.5497 12.1316 56.1954 12.2805 55.864C11.5305 55.155 11.0689 54.1883 11.0689 53.1227C11.0689 51.7263 11.8617 50.4997 13.0573 49.8004C13.0229 49.5998 13.0051 49.3941 13.0051 49.1847C13.0051 47.3176 14.4225 45.754 16.3247 45.3487C17.006 43.9992 18.4964 43.0629 20.2252 43.0629C21.1582 43.0629 22.0217 43.3356 22.7261 43.7987C23.4304 43.3356 24.2939 43.0629 25.2269 43.0629C26.0787 43.0629 26.8725 43.2902 27.5403 43.6821C28.3075 42.6086 29.6315 41.8994 31.1362 41.8994C33.5087 41.8994 35.4319 43.6625 35.4319 45.8375ZM29.9327 55.7705C29.2394 55.0711 28.8168 54.1422 28.8168 53.1227C28.8168 52.7823 28.8639 52.452 28.9525 52.1369C28.74 51.9429 28.5495 51.7287 28.3848 51.4977C27.6819 51.9574 26.8216 52.2279 25.8925 52.2279C25.1283 52.2279 24.4107 52.0449 23.789 51.7243C23.314 52.3699 22.6357 52.8794 21.8383 53.1758C21.8215 54.3418 21.2519 55.3855 20.3588 56.0968C20.4946 56.468 20.5681 56.8642 20.5681 57.2756C20.5681 57.5967 20.5233 57.9085 20.4391 58.2064C20.5233 58.5043 20.5681 58.8161 20.5681 59.1372C20.5681 59.535 20.4994 59.9186 20.3721 60.2791C20.7279 60.8343 20.9311 61.4767 20.9311 62.1612C20.9311 62.4538 20.894 62.7387 20.8236 63.0124C21.1166 63.3197 21.3557 63.6687 21.5282 64.048C21.5953 64.0616 21.6618 64.0766 21.7277 64.0929C22.0966 64.0013 22.4856 63.9524 22.8874 63.9524C23.1667 63.9524 23.4398 63.976 23.7042 64.0212C23.9686 63.976 24.2417 63.9524 24.521 63.9524C25.0669 63.9524 25.589 64.0427 26.0693 64.2075C26.6803 63.7558 27.4348 63.4518 28.2631 63.3572C28.7184 62.0559 29.9379 61.0532 31.4559 60.7624C30.9868 60.1515 30.7126 59.4132 30.7126 58.6181C30.7126 58.0191 30.8682 57.4524 31.1455 56.9481C30.658 56.637 30.2441 56.2357 29.9327 55.7705Z" fill="black"/>
<path fill-rule="evenodd" clip-rule="evenodd" d="M15.443 55.781L16.0118 54.9021L16.4316 55.1162L15.8629 55.995L15.443 55.781Z" fill="white"/>
<path fill-rule="evenodd" clip-rule="evenodd" d="M14.7235 64.6934L14.6908 63.6803L15.1748 63.668L15.2075 64.6811L14.7235 64.6934Z" fill="white"/>
<path fill-rule="evenodd" clip-rule="evenodd" d="M35.7889 62.9552L36.5194 62.1762L36.8916 62.4512L36.1611 63.2301L35.7889 62.9552Z" fill="white"/>
<path fill-rule="evenodd" clip-rule="evenodd" d="M32.5998 52.776L32.518 51.7651L33.001 51.7344L33.0827 52.7453L32.5998 52.776Z" fill="white"/>
<path fill-rule="evenodd" clip-rule="evenodd" d="M30.8605 47.4284L30.7787 46.4175L31.2617 46.3867L31.3435 47.3976L30.8605 47.4284Z" fill="white"/>
<path fill-rule="evenodd" clip-rule="evenodd" d="M34.1983 68.5C33.2809 67.4037 33.0511 66.0244 33.1156 65.0889L33.6116 65.1158C33.5519 65.9811 33.7693 67.2477 34.5972 68.2371C35.4116 69.2103 36.8437 69.9478 39.3019 69.7339L39.3503 70.1728C36.7403 70.3999 35.1291 69.6123 34.1983 68.5Z" fill="white"/>
<path fill-rule="evenodd" clip-rule="evenodd" d="M14.247 45.9915C15.4124 46.738 16.8256 47.2522 17.7686 47.4952L17.6301 47.9187C16.6476 47.6655 15.179 47.1324 13.9562 46.3491C12.7421 45.5713 11.7097 44.5064 11.7369 43.1826L12.2336 43.1906C12.2111 44.2924 13.0731 45.2395 14.247 45.9915Z" fill="white"/>
<path fill-rule="evenodd" clip-rule="evenodd" d="M21.4848 60.4365C20.4237 60.2787 19.1566 59.7446 18.3193 59.308L18.571 58.9277C19.39 59.3548 20.5949 59.857 21.5669 60.0015C22.058 60.0745 22.4393 60.0483 22.683 59.9229C22.8995 59.8116 23.0637 59.5911 23.0415 59.1272L23.5379 59.1085C23.5654 59.681 23.356 60.0866 22.9322 60.3045C22.5356 60.5084 22.0102 60.5146 21.4848 60.4365Z" fill="white"/>
<path d="M58.4688 47.3281H60.8438C60.5312 45.1016 58.5703 43.5312 56.0156 43.5312C53.0312 43.5312 50.7344 45.6875 50.7344 49.3594C50.7344 52.9375 52.8906 55.1562 56.0625 55.1562C58.9141 55.1562 60.9531 53.3438 60.9531 50.375V48.9688H56.2344V50.7344H58.6875C58.6562 52.1562 57.6953 53.0703 56.0781 53.0781C54.2734 53.0703 53.125 51.7188 53.125 49.3281C53.125 46.9531 54.3125 45.6172 56.0625 45.6094C57.2969 45.6172 58.1484 46.2656 58.4688 47.3281Z" fill="black"/>
<path d="M62.6719 55H65.0156V50.9844H66.8047L68.9688 55H71.5625L69.1562 50.6016C70.4453 50.0469 71.1562 48.9219 71.1562 47.375C71.1562 45.1328 69.6797 43.6875 67.1094 43.6875H62.6719V55ZM65.0156 49.0781V45.6094H66.6719C68.0625 45.6172 68.7422 46.2344 68.7344 47.375C68.7422 48.5078 68.0625 49.0781 66.6719 49.0781H65.0156Z" fill="black"/>
<path d="M83.1406 49.3438C83.1406 45.6484 80.8516 43.5312 77.8594 43.5312C74.8438 43.5312 72.5625 45.6484 72.5625 49.3438C72.5625 53.0234 74.8438 55.1562 77.8594 55.1562C80.8516 55.1562 83.1406 53.0391 83.1406 49.3438ZM74.9531 49.3438C74.9531 46.9219 76.1016 45.6172 77.8594 45.6094C79.6016 45.6172 80.7578 46.9219 80.75 49.3438C80.7578 51.7578 79.6016 53.0703 77.8594 53.0781C76.1016 53.0703 74.9531 51.7578 74.9531 49.3438Z" fill="black"/>
<path d="M95.1875 49.3438C95.1875 45.6484 92.8984 43.5312 89.9062 43.5312C86.8906 43.5312 84.6094 45.6484 84.6094 49.3438C84.6094 53.0234 86.8906 55.1562 89.9062 55.1562C92.8984 55.1562 95.1875 53.0391 95.1875 49.3438ZM87 49.3438C87 46.9219 88.1484 45.6172 89.9062 45.6094C91.6484 45.6172 92.8047 46.9219 92.7969 49.3438C92.8047 51.7578 91.6484 53.0703 89.9062 53.0781C88.1484 53.0703 87 51.7578 87 49.3438Z" fill="black"/>
<path d="M50.9531 59.6875V71H53.2344V63.5625H53.3281L56.2812 70.9531H57.8438L60.7969 63.5938H60.8906V71H63.1719V59.6875H60.2656L57.125 67.3594H57L53.8594 59.6875H50.9531Z" fill="black"/>
<path d="M65.0781 71H72.6875V69.0625H67.4219V66.3125H72.2812V64.375H67.4219V61.625H72.6719V59.6875H65.0781V71Z" fill="black"/>
<path d="M84.8594 65.3438C84.8594 61.6484 82.5703 59.5312 79.5781 59.5312C76.5625 59.5312 74.2812 61.6484 74.2812 65.3438C74.2812 69.0234 76.5625 71.1562 79.5781 71.1562C82.5703 71.1562 84.8594 69.0391 84.8594 65.3438ZM76.6719 65.3438C76.6719 62.9219 77.8203 61.6172 79.5781 61.6094C81.3203 61.6172 82.4766 62.9219 82.4688 65.3438C82.4766 67.7578 81.3203 69.0703 79.5781 69.0781C77.8203 69.0703 76.6719 67.7578 76.6719 65.3438Z" fill="black"/>
<path d="M95.9844 59.6875H93.6562V66.875H93.5469L88.6094 59.6875H86.5469V71H88.8906V63.8125H88.9844L93.9531 71H95.9844V59.6875Z" fill="black"/>
<path d="M105.406 63.3281H107.781C107.469 61.1016 105.508 59.5312 102.953 59.5312C99.9688 59.5312 97.6719 61.6875 97.6719 65.3594C97.6719 68.9375 99.8281 71.1562 103 71.1562C105.852 71.1562 107.891 69.3438 107.891 66.375V64.9688H103.172V66.7344H105.625C105.594 68.1562 104.633 69.0703 103.016 69.0781C101.211 69.0703 100.062 67.7188 100.062 65.3281C100.062 62.9531 101.25 61.6172 103 61.6094C104.234 61.6172 105.086 62.2656 105.406 63.3281Z" fill="black"/>
</svg>
