<svg width="152" height="194" viewBox="0 0 152 194" fill="none" xmlns="http://www.w3.org/2000/svg">
<path d="M30.3111 16H32.3691V11.338C32.8031 10.204 33.5451 9.784 34.1471 9.784C34.4831 9.784 34.6931 9.84 34.9731 9.91L35.3231 8.146C35.0851 8.034 34.8331 7.978 34.4131 7.978C33.6011 7.978 32.7471 8.524 32.1871 9.56H32.1451L31.9771 8.174H30.3111V16ZM39.466 16.196C41.426 16.196 43.218 14.684 43.218 12.094C43.218 9.49 41.426 7.978 39.466 7.978C37.492 7.978 35.7 9.49 35.7 12.094C35.7 14.684 37.492 16.196 39.466 16.196ZM39.466 14.53C38.388 14.53 37.8 13.564 37.8 12.094C37.8 10.61 38.388 9.658 39.466 9.658C40.53 9.658 41.118 10.61 41.118 12.094C41.118 13.564 40.53 14.53 39.466 14.53ZM47.2917 16.196C48.3557 16.196 49.0977 15.678 49.7837 14.88H49.8257L49.9797 16H51.6597V8.174H49.6157V13.452C49.0837 14.152 48.6637 14.432 48.0197 14.432C47.2497 14.432 46.9137 14.012 46.9137 12.808V8.174H44.8557V13.06C44.8557 15.034 45.5977 16.196 47.2917 16.196ZM53.8677 16H55.9257V10.61C56.4997 10.05 56.9057 9.742 57.5497 9.742C58.3057 9.742 58.6557 10.148 58.6557 11.38V16H60.7137V11.114C60.7137 9.154 59.9717 7.978 58.2917 7.978C57.2277 7.978 56.4157 8.538 55.7437 9.21H55.7017L55.5337 8.174H53.8677V16ZM65.5945 16.196C66.4065 16.196 67.1905 15.762 67.7645 15.188H67.8065L67.9605 16H69.6405V4.842H67.5825V7.586L67.6665 8.818C67.0925 8.3 66.5465 7.978 65.6645 7.978C63.9845 7.978 62.3745 9.532 62.3745 12.094C62.3745 14.67 63.6345 16.196 65.5945 16.196ZM66.1125 14.502C65.0905 14.502 64.4885 13.704 64.4885 12.066C64.4885 10.498 65.2445 9.658 66.1265 9.658C66.6165 9.658 67.1205 9.826 67.5825 10.26V13.704C67.1345 14.278 66.6725 14.502 66.1125 14.502ZM71.4122 12.738H75.2482V11.268H71.4122V12.738ZM77.0279 16H79.0859V11.338C79.5199 10.204 80.2619 9.784 80.8639 9.784C81.1999 9.784 81.4099 9.84 81.6899 9.91L82.0399 8.146C81.8019 8.034 81.5499 7.978 81.1299 7.978C80.3179 7.978 79.4639 8.524 78.9039 9.56H78.8619L78.6939 8.174H77.0279V16ZM86.1828 16.196C88.1428 16.196 89.9348 14.684 89.9348 12.094C89.9348 9.49 88.1428 7.978 86.1828 7.978C84.2088 7.978 82.4168 9.49 82.4168 12.094C82.4168 14.684 84.2088 16.196 86.1828 16.196ZM86.1828 14.53C85.1048 14.53 84.5168 13.564 84.5168 12.094C84.5168 10.61 85.1048 9.658 86.1828 9.658C87.2468 9.658 87.8348 10.61 87.8348 12.094C87.8348 13.564 87.2468 14.53 86.1828 14.53ZM95.5905 16.196C97.3125 16.196 98.9225 14.656 98.9225 11.954C98.9225 9.546 97.7605 7.978 95.8425 7.978C95.0585 7.978 94.2885 8.356 93.6585 8.902L93.7285 7.656V4.842H91.6705V16H93.2805L93.4485 15.174H93.5045C94.1345 15.832 94.8905 16.196 95.5905 16.196ZM95.1425 14.502C94.7225 14.502 94.2045 14.362 93.7285 13.928V10.47C94.2465 9.924 94.7365 9.658 95.2545 9.658C96.3465 9.658 96.8085 10.484 96.8085 11.996C96.8085 13.69 96.0805 14.502 95.1425 14.502ZM100.68 16H102.738V8.174H100.68V16ZM101.702 6.9C102.416 6.9 102.906 6.452 102.906 5.766C102.906 5.094 102.416 4.66 101.702 4.66C100.988 4.66 100.512 5.094 100.512 5.766C100.512 6.452 100.988 6.9 101.702 6.9ZM104.932 16H106.99V10.61C107.564 10.05 107.97 9.742 108.614 9.742C109.37 9.742 109.72 10.148 109.72 11.38V16H111.778V11.114C111.778 9.154 111.036 7.978 109.356 7.978C108.292 7.978 107.48 8.538 106.808 9.21H106.766L106.598 8.174H104.932V16Z" fill="#5793BF"/>
<circle cx="76" cy="118" r="76" fill="#82CAC1"/>
<circle cx="28.5" cy="117.5" r="13.5" fill="white"/>
<circle cx="129.5" cy="117.5" r="13.5" fill="white"/>
<circle cx="99.5" cy="74.5" r="13.5" fill="white"/>
<circle cx="99.5" cy="165.5" r="13.5" fill="white"/>
<circle cx="49.5" cy="74.5" r="13.5" fill="white"/>
<circle cx="49.5" cy="165.5" r="13.5" fill="white"/>
</svg>
