<svg width="522" height="392" viewBox="0 0 522 392" fill="none" xmlns="http://www.w3.org/2000/svg">
<rect y="163" width="110" height="86" fill="#82CAC1"/>
<rect x="275" y="235" width="110" height="157" fill="#82CAC1"/>
<rect x="412" y="235" width="110" height="157" fill="#82CAC1"/>
<path d="M26.3299 214.224C28.2979 214.224 30.1379 212.464 30.1379 209.376C30.1379 206.624 28.8099 204.832 26.6179 204.832C25.7219 204.832 24.8419 205.264 24.1219 205.888L24.2019 204.464V201.248H21.8499V214H23.6899L23.8819 213.056H23.9459C24.6659 213.808 25.5299 214.224 26.3299 214.224ZM25.8179 212.288C25.3379 212.288 24.7459 212.128 24.2019 211.632V207.68C24.7939 207.056 25.3539 206.752 25.9459 206.752C27.1939 206.752 27.7219 207.696 27.7219 209.424C27.7219 211.36 26.8899 212.288 25.8179 212.288ZM32.1468 214H34.4988V208.672C34.9948 207.376 35.8428 206.896 36.5308 206.896C36.9148 206.896 37.1548 206.96 37.4748 207.04L37.8748 205.024C37.6028 204.896 37.3148 204.832 36.8348 204.832C35.9068 204.832 34.9308 205.456 34.2908 206.64H34.2428L34.0508 205.056H32.1468V214ZM42.6096 214.224C44.8496 214.224 46.8976 212.496 46.8976 209.536C46.8976 206.56 44.8496 204.832 42.6096 204.832C40.3536 204.832 38.3056 206.56 38.3056 209.536C38.3056 212.496 40.3536 214.224 42.6096 214.224ZM42.6096 212.32C41.3776 212.32 40.7056 211.216 40.7056 209.536C40.7056 207.84 41.3776 206.752 42.6096 206.752C43.8256 206.752 44.4976 207.84 44.4976 209.536C44.4976 211.216 43.8256 212.32 42.6096 212.32ZM50.1344 214H52.8224L53.7344 210.112C53.9264 209.264 54.0704 208.448 54.2304 207.488H54.3104C54.4864 208.448 54.6304 209.264 54.8224 210.096L55.7664 214H58.5344L60.7584 205.056H58.5664L57.6064 209.472C57.4304 210.352 57.3184 211.2 57.1584 212.08H57.0784C56.8864 211.2 56.7104 210.352 56.5024 209.472L55.3824 205.056H53.3024L52.2144 209.472C51.9904 210.336 51.8304 211.2 51.6704 212.08H51.5904C51.4304 211.2 51.3184 210.352 51.1584 209.472L50.1664 205.056H47.8304L50.1344 214ZM65.0349 214.224C67.3549 214.224 68.5869 212.976 68.5869 211.392C68.5869 209.744 67.2909 209.136 66.1069 208.688C65.1469 208.352 64.3309 208.096 64.3309 207.456C64.3309 206.928 64.6989 206.576 65.5149 206.576C66.1709 206.576 66.8109 206.896 67.4349 207.344L68.5069 205.936C67.7709 205.36 66.7469 204.832 65.4509 204.832C63.4029 204.832 62.1229 205.968 62.1229 207.552C62.1229 209.072 63.3869 209.744 64.5229 210.192C65.4509 210.544 66.3949 210.864 66.3949 211.52C66.3949 212.08 65.9789 212.48 65.0829 212.48C64.2509 212.48 63.4989 212.112 62.6829 211.488L61.6269 212.976C62.5069 213.712 63.8349 214.224 65.0349 214.224ZM74.3008 214.224C75.4048 214.224 76.5248 213.856 77.4048 213.248L76.6208 211.792C75.9648 212.192 75.3248 212.416 74.6048 212.416C73.2768 212.416 72.3168 211.664 72.1088 210.192H77.6448C77.6928 209.968 77.7408 209.552 77.7408 209.104C77.7408 206.624 76.4768 204.832 73.9968 204.832C71.8848 204.832 69.8368 206.624 69.8368 209.536C69.8368 212.496 71.7888 214.224 74.3008 214.224ZM72.0768 208.624C72.2688 207.312 73.1008 206.64 74.0448 206.64C75.1968 206.64 75.7408 207.408 75.7408 208.624H72.0768ZM79.6937 214H82.0457V208.672C82.5417 207.376 83.3897 206.896 84.0777 206.896C84.4617 206.896 84.7017 206.96 85.0217 207.04L85.4217 205.024C85.1497 204.896 84.8617 204.832 84.3817 204.832C83.4537 204.832 82.4777 205.456 81.8377 206.64H81.7897L81.5977 205.056H79.6937V214Z" fill="white"/>
<path d="M295.917 285H298.285V280.2H302.493V278.232H298.285V275.128H303.213V273.16H295.917V285ZM304.631 285H306.983V279.672C307.479 278.376 308.327 277.896 309.015 277.896C309.399 277.896 309.639 277.96 309.959 278.04L310.359 276.024C310.087 275.896 309.799 275.832 309.319 275.832C308.391 275.832 307.415 276.456 306.775 277.64H306.727L306.535 276.056H304.631V285ZM315.094 285.224C317.334 285.224 319.382 283.496 319.382 280.536C319.382 277.56 317.334 275.832 315.094 275.832C312.838 275.832 310.79 277.56 310.79 280.536C310.79 283.496 312.838 285.224 315.094 285.224ZM315.094 283.32C313.862 283.32 313.19 282.216 313.19 280.536C313.19 278.84 313.862 277.752 315.094 277.752C316.31 277.752 316.982 278.84 316.982 280.536C316.982 282.216 316.31 283.32 315.094 283.32ZM321.366 285H323.718V278.84C324.374 278.2 324.838 277.848 325.574 277.848C326.438 277.848 326.838 278.312 326.838 279.72V285H329.19V279.416C329.19 277.176 328.342 275.832 326.422 275.832C325.206 275.832 324.278 276.472 323.51 277.24H323.462L323.27 276.056H321.366V285ZM334.88 285.224C335.68 285.224 336.304 285.048 336.784 284.888L336.4 283.176C336.144 283.272 335.808 283.384 335.504 283.384C334.72 283.384 334.288 282.904 334.288 281.88V277.896H336.512V276.056H334.288V273.624H332.336L332.08 276.056L330.688 276.152V277.896H331.936V281.88C331.936 283.88 332.752 285.224 334.88 285.224ZM341.863 285.224C342.967 285.224 344.087 284.856 344.967 284.248L344.183 282.792C343.527 283.192 342.887 283.416 342.167 283.416C340.839 283.416 339.879 282.664 339.671 281.192H345.207C345.255 280.968 345.303 280.552 345.303 280.104C345.303 277.624 344.039 275.832 341.559 275.832C339.447 275.832 337.399 277.624 337.399 280.536C337.399 283.496 339.351 285.224 341.863 285.224ZM339.639 279.624C339.831 278.312 340.663 277.64 341.607 277.64C342.759 277.64 343.303 278.408 343.303 279.624H339.639ZM347.256 285H349.608V278.84C350.264 278.2 350.728 277.848 351.464 277.848C352.328 277.848 352.728 278.312 352.728 279.72V285H355.08V279.416C355.08 277.176 354.232 275.832 352.312 275.832C351.096 275.832 350.168 276.472 349.4 277.24H349.352L349.16 276.056H347.256V285ZM360.658 285.224C361.586 285.224 362.482 284.728 363.138 284.072H363.186L363.362 285H365.282V272.248H362.93V275.384L363.026 276.792C362.37 276.2 361.746 275.832 360.738 275.832C358.818 275.832 356.978 277.608 356.978 280.536C356.978 283.48 358.418 285.224 360.658 285.224ZM361.25 283.288C360.082 283.288 359.394 282.376 359.394 280.504C359.394 278.712 360.258 277.752 361.266 277.752C361.826 277.752 362.402 277.944 362.93 278.44V282.376C362.418 283.032 361.89 283.288 361.25 283.288Z" fill="white"/>
<path fill-rule="evenodd" clip-rule="evenodd" d="M262.275 279.313L133.031 207.75L134.969 204.25L264.212 275.814L262.275 279.313Z" fill="#5793BF"/>
<path fill-rule="evenodd" clip-rule="evenodd" d="M240.301 104.828L136.192 209.645L133.354 206.826L237.463 102.01L240.301 104.828Z" fill="#5793BF"/>
<rect x="292" y="301" width="75" height="61" fill="white"/>
<rect x="429" y="301" width="75" height="74" fill="white"/>
<path d="M298.055 353.15C299.819 353.15 300.659 352.086 301.345 350.252L304.131 342.174H302.157L301.065 345.8C300.883 346.542 300.687 347.284 300.519 348.026H300.449C300.211 347.27 300.015 346.514 299.777 345.8L298.545 342.174H296.459L299.511 349.86L299.385 350.322C299.147 351.022 298.699 351.526 297.915 351.526C297.719 351.526 297.509 351.456 297.369 351.414L296.991 352.996C297.285 353.094 297.607 353.15 298.055 353.15ZM306.944 350.196C307.84 350.196 308.624 349.762 309.31 349.174H309.366L309.52 350H311.2V345.436C311.2 343.154 310.178 341.978 308.19 341.978C306.944 341.978 305.838 342.44 304.914 343L305.656 344.372C306.37 343.938 307.084 343.63 307.812 343.63C308.778 343.63 309.1 344.204 309.142 344.974C305.992 345.324 304.634 346.206 304.634 347.872C304.634 349.216 305.544 350.196 306.944 350.196ZM307.616 348.586C307.014 348.586 306.594 348.32 306.594 347.718C306.594 347.004 307.224 346.486 309.142 346.248V347.83C308.638 348.32 308.204 348.586 307.616 348.586ZM313.297 350H315.355V345.338C315.789 344.204 316.531 343.784 317.133 343.784C317.469 343.784 317.679 343.84 317.959 343.91L318.309 342.146C318.071 342.034 317.819 341.978 317.399 341.978C316.587 341.978 315.733 342.524 315.173 343.56H315.131L314.963 342.174H313.297V350ZM319.409 350H321.467V344.61C322.041 344.05 322.447 343.742 323.091 343.742C323.847 343.742 324.197 344.148 324.197 345.38V350H326.255V345.114C326.255 343.154 325.513 341.978 323.833 341.978C322.769 341.978 321.957 342.538 321.285 343.21H321.243L321.075 342.174H319.409V350ZM333.789 350.196C335.819 350.196 336.897 349.104 336.897 347.718C336.897 346.276 335.763 345.744 334.727 345.352C333.887 345.058 333.173 344.834 333.173 344.274C333.173 343.812 333.495 343.504 334.209 343.504C334.783 343.504 335.343 343.784 335.889 344.176L336.827 342.944C336.183 342.44 335.287 341.978 334.153 341.978C332.361 341.978 331.241 342.972 331.241 344.358C331.241 345.688 332.347 346.276 333.341 346.668C334.153 346.976 334.979 347.256 334.979 347.83C334.979 348.32 334.615 348.67 333.831 348.67C333.103 348.67 332.445 348.348 331.731 347.802L330.807 349.104C331.577 349.748 332.739 350.196 333.789 350.196ZM340.941 350.196C341.641 350.196 342.187 350.042 342.607 349.902L342.271 348.404C342.047 348.488 341.753 348.586 341.487 348.586C340.801 348.586 340.423 348.166 340.423 347.27V343.784H342.369V342.174H340.423V340.046H338.715L338.491 342.174L337.273 342.258V343.784H338.365V347.27C338.365 349.02 339.079 350.196 340.941 350.196ZM345.471 350.196C346.367 350.196 347.151 349.762 347.837 349.174H347.893L348.047 350H349.727V345.436C349.727 343.154 348.705 341.978 346.717 341.978C345.471 341.978 344.365 342.44 343.441 343L344.183 344.372C344.897 343.938 345.611 343.63 346.339 343.63C347.305 343.63 347.627 344.204 347.669 344.974C344.519 345.324 343.161 346.206 343.161 347.872C343.161 349.216 344.071 350.196 345.471 350.196ZM346.143 348.586C345.541 348.586 345.121 348.32 345.121 347.718C345.121 347.004 345.751 346.486 347.669 346.248V347.83C347.165 348.32 346.731 348.586 346.143 348.586ZM351.825 350H353.883V345.338C354.317 344.204 355.059 343.784 355.661 343.784C355.997 343.784 356.207 343.84 356.487 343.91L356.837 342.146C356.599 342.034 356.347 341.978 355.927 341.978C355.115 341.978 354.261 342.524 353.701 343.56H353.659L353.491 342.174H351.825V350ZM360.792 350.196C361.492 350.196 362.038 350.042 362.458 349.902L362.122 348.404C361.898 348.488 361.604 348.586 361.338 348.586C360.652 348.586 360.274 348.166 360.274 347.27V343.784H362.22V342.174H360.274V340.046H358.566L358.342 342.174L357.124 342.258V343.784H358.216V347.27C358.216 349.02 358.93 350.196 360.792 350.196Z" fill="#5793BF"/>
<path d="M295.894 325.15C297.658 325.15 298.498 324.086 299.184 322.252L301.97 314.174H299.996L298.904 317.8C298.722 318.542 298.526 319.284 298.358 320.026H298.288C298.05 319.27 297.854 318.514 297.616 317.8L296.384 314.174H294.298L297.35 321.86L297.224 322.322C296.986 323.022 296.538 323.526 295.754 323.526C295.558 323.526 295.348 323.456 295.208 323.414L294.83 324.996C295.124 325.094 295.446 325.15 295.894 325.15ZM304.783 322.196C305.679 322.196 306.463 321.762 307.149 321.174H307.205L307.359 322H309.039V317.436C309.039 315.154 308.017 313.978 306.029 313.978C304.783 313.978 303.677 314.44 302.753 315L303.495 316.372C304.209 315.938 304.923 315.63 305.651 315.63C306.617 315.63 306.939 316.204 306.981 316.974C303.831 317.324 302.473 318.206 302.473 319.872C302.473 321.216 303.383 322.196 304.783 322.196ZM305.455 320.586C304.853 320.586 304.433 320.32 304.433 319.718C304.433 319.004 305.063 318.486 306.981 318.248V319.83C306.477 320.32 306.043 320.586 305.455 320.586ZM311.136 322H313.194V317.338C313.628 316.204 314.37 315.784 314.972 315.784C315.308 315.784 315.518 315.84 315.798 315.91L316.148 314.146C315.91 314.034 315.658 313.978 315.238 313.978C314.426 313.978 313.572 314.524 313.012 315.56H312.97L312.802 314.174H311.136V322ZM317.248 322H319.306V316.61C319.88 316.05 320.286 315.742 320.93 315.742C321.686 315.742 322.036 316.148 322.036 317.38V322H324.094V317.114C324.094 315.154 323.352 313.978 321.672 313.978C320.608 313.978 319.796 314.538 319.124 315.21H319.082L318.914 314.174H317.248V322ZM333.308 322.196C335.03 322.196 336.64 320.656 336.64 317.954C336.64 315.546 335.478 313.978 333.56 313.978C332.776 313.978 332.006 314.356 331.376 314.902L331.446 313.656V310.842H329.388V322H330.998L331.166 321.174H331.222C331.852 321.832 332.608 322.196 333.308 322.196ZM332.86 320.502C332.44 320.502 331.922 320.362 331.446 319.928V316.47C331.964 315.924 332.454 315.658 332.972 315.658C334.064 315.658 334.526 316.484 334.526 317.996C334.526 319.69 333.798 320.502 332.86 320.502ZM340.736 322.196C341.8 322.196 342.542 321.678 343.228 320.88H343.27L343.424 322H345.104V314.174H343.06V319.452C342.528 320.152 342.108 320.432 341.464 320.432C340.694 320.432 340.358 320.012 340.358 318.808V314.174H338.3V319.06C338.3 321.034 339.042 322.196 340.736 322.196ZM347.312 322H349.37V314.174H347.312V322ZM348.334 312.9C349.048 312.9 349.538 312.452 349.538 311.766C349.538 311.094 349.048 310.66 348.334 310.66C347.62 310.66 347.144 311.094 347.144 311.766C347.144 312.452 347.62 312.9 348.334 312.9ZM353.496 322.196C353.986 322.196 354.308 322.112 354.546 322.028L354.294 320.502C354.154 320.53 354.098 320.53 354.028 320.53C353.832 320.53 353.622 320.376 353.622 319.886V310.842H351.564V319.802C351.564 321.258 352.054 322.196 353.496 322.196ZM358.738 322.196C359.55 322.196 360.334 321.762 360.908 321.188H360.95L361.104 322H362.784V310.842H360.726V313.586L360.81 314.818C360.236 314.3 359.69 313.978 358.808 313.978C357.128 313.978 355.518 315.532 355.518 318.094C355.518 320.67 356.778 322.196 358.738 322.196ZM359.256 320.502C358.234 320.502 357.632 319.704 357.632 318.066C357.632 316.498 358.388 315.658 359.27 315.658C359.76 315.658 360.264 315.826 360.726 316.26V319.704C360.278 320.278 359.816 320.502 359.256 320.502Z" fill="#5793BF"/>
<path d="M448.451 322H450.509V316.61C451.083 316.05 451.489 315.742 452.133 315.742C452.889 315.742 453.239 316.148 453.239 317.38V322H455.297V317.114C455.297 315.154 454.555 313.978 452.875 313.978C451.811 313.978 451.027 314.538 450.411 315.126L450.509 313.656V310.842H448.451V322ZM460.262 322.196C460.962 322.196 461.508 322.042 461.928 321.902L461.592 320.404C461.368 320.488 461.074 320.586 460.808 320.586C460.122 320.586 459.744 320.166 459.744 319.27V315.784H461.69V314.174H459.744V312.046H458.036L457.812 314.174L456.594 314.258V315.784H457.686V319.27C457.686 321.02 458.4 322.196 460.262 322.196ZM463.298 322H465.356V316.61C465.888 316.022 466.406 315.742 466.84 315.742C467.596 315.742 467.946 316.148 467.946 317.38V322H470.004V316.61C470.564 316.022 471.054 315.742 471.502 315.742C472.258 315.742 472.594 316.148 472.594 317.38V322H474.652V317.114C474.652 315.154 473.896 313.978 472.23 313.978C471.208 313.978 470.452 314.594 469.724 315.336C469.36 314.468 468.702 313.978 467.568 313.978C466.56 313.978 465.832 314.538 465.174 315.21H465.132L464.964 314.174H463.298V322ZM478.725 322.196C479.215 322.196 479.537 322.112 479.775 322.028L479.523 320.502C479.383 320.53 479.327 320.53 479.257 320.53C479.061 320.53 478.851 320.376 478.851 319.886V310.842H476.793V319.802C476.793 321.258 477.283 322.196 478.725 322.196ZM481.265 324.996C482.973 324.436 483.911 323.19 483.911 321.538C483.911 320.278 483.379 319.522 482.441 319.522C481.699 319.522 481.097 319.998 481.097 320.74C481.097 321.51 481.713 321.958 482.385 321.958C482.693 321.958 482.973 321.86 483.183 321.65L482.455 320.446L482.525 321.902C482.539 322.728 481.937 323.47 480.845 323.876L481.265 324.996ZM457.525 342.196C458.393 342.196 459.359 341.902 460.101 341.258L459.289 339.9C458.855 340.25 458.323 340.53 457.749 340.53C456.629 340.53 455.817 339.564 455.817 338.094C455.817 336.61 456.615 335.658 457.833 335.658C458.253 335.658 458.631 335.826 459.023 336.162L459.989 334.846C459.415 334.342 458.687 333.978 457.707 333.978C455.579 333.978 453.717 335.49 453.717 338.094C453.717 340.684 455.369 342.196 457.525 342.196ZM463.829 342.196C465.859 342.196 466.937 341.104 466.937 339.718C466.937 338.276 465.803 337.744 464.767 337.352C463.927 337.058 463.213 336.834 463.213 336.274C463.213 335.812 463.535 335.504 464.249 335.504C464.823 335.504 465.383 335.784 465.929 336.176L466.867 334.944C466.223 334.44 465.327 333.978 464.193 333.978C462.401 333.978 461.281 334.972 461.281 336.358C461.281 337.688 462.387 338.276 463.381 338.668C464.193 338.976 465.019 339.256 465.019 339.83C465.019 340.32 464.655 340.67 463.871 340.67C463.143 340.67 462.485 340.348 461.771 339.802L460.847 341.104C461.617 341.748 462.779 342.196 463.829 342.196ZM470.761 342.196C472.791 342.196 473.869 341.104 473.869 339.718C473.869 338.276 472.735 337.744 471.699 337.352C470.859 337.058 470.145 336.834 470.145 336.274C470.145 335.812 470.467 335.504 471.181 335.504C471.755 335.504 472.315 335.784 472.861 336.176L473.799 334.944C473.155 334.44 472.259 333.978 471.125 333.978C469.333 333.978 468.213 334.972 468.213 336.358C468.213 337.688 469.319 338.276 470.313 338.668C471.125 338.976 471.951 339.256 471.951 339.83C471.951 340.32 471.587 340.67 470.803 340.67C470.075 340.67 469.417 340.348 468.703 339.802L467.779 341.104C468.549 341.748 469.711 342.196 470.761 342.196ZM475.509 344.996C477.217 344.436 478.155 343.19 478.155 341.538C478.155 340.278 477.623 339.522 476.685 339.522C475.943 339.522 475.341 339.998 475.341 340.74C475.341 341.51 475.957 341.958 476.629 341.958C476.937 341.958 477.217 341.86 477.427 341.65L476.699 340.446L476.769 341.902C476.783 342.728 476.181 343.47 475.089 343.876L475.509 344.996ZM460.941 365.206C462.915 365.206 463.573 363.89 463.573 362.21V354.174H461.515V362.252C461.515 363.148 461.305 363.596 460.647 363.596C460.423 363.596 460.199 363.54 460.003 363.47L459.625 364.996C459.933 365.108 460.339 365.206 460.941 365.206ZM462.537 352.9C463.237 352.9 463.741 352.452 463.741 351.766C463.741 351.094 463.237 350.66 462.537 350.66C461.837 350.66 461.347 351.094 461.347 351.766C461.347 352.452 461.837 352.9 462.537 352.9ZM468.02 362.196C470.05 362.196 471.128 361.104 471.128 359.718C471.128 358.276 469.994 357.744 468.958 357.352C468.118 357.058 467.404 356.834 467.404 356.274C467.404 355.812 467.726 355.504 468.44 355.504C469.014 355.504 469.574 355.784 470.12 356.176L471.058 354.944C470.414 354.44 469.518 353.978 468.384 353.978C466.592 353.978 465.472 354.972 465.472 356.358C465.472 357.688 466.578 358.276 467.572 358.668C468.384 358.976 469.21 359.256 469.21 359.83C469.21 360.32 468.846 360.67 468.062 360.67C467.334 360.67 466.676 360.348 465.962 359.802L465.038 361.104C465.808 361.748 466.97 362.196 468.02 362.196Z" fill="#5793BF"/>
<path d="M432.894 287.15C434.658 287.15 435.498 286.086 436.184 284.252L438.97 276.174H436.996L435.904 279.8C435.722 280.542 435.526 281.284 435.358 282.026H435.288C435.05 281.27 434.854 280.514 434.616 279.8L433.384 276.174H431.298L434.35 283.86L434.224 284.322C433.986 285.022 433.538 285.526 432.754 285.526C432.558 285.526 432.348 285.456 432.208 285.414L431.83 286.996C432.124 287.094 432.446 287.15 432.894 287.15ZM441.783 284.196C442.679 284.196 443.463 283.762 444.149 283.174H444.205L444.359 284H446.039V279.436C446.039 277.154 445.017 275.978 443.029 275.978C441.783 275.978 440.677 276.44 439.753 277L440.495 278.372C441.209 277.938 441.923 277.63 442.651 277.63C443.617 277.63 443.939 278.204 443.981 278.974C440.831 279.324 439.473 280.206 439.473 281.872C439.473 283.216 440.383 284.196 441.783 284.196ZM442.455 282.586C441.853 282.586 441.433 282.32 441.433 281.718C441.433 281.004 442.063 280.486 443.981 280.248V281.83C443.477 282.32 443.043 282.586 442.455 282.586ZM448.136 284H450.194V279.338C450.628 278.204 451.37 277.784 451.972 277.784C452.308 277.784 452.518 277.84 452.798 277.91L453.148 276.146C452.91 276.034 452.658 275.978 452.238 275.978C451.426 275.978 450.572 276.524 450.012 277.56H449.97L449.802 276.174H448.136V284ZM454.248 284H456.306V278.61C456.88 278.05 457.286 277.742 457.93 277.742C458.686 277.742 459.036 278.148 459.036 279.38V284H461.094V279.114C461.094 277.154 460.352 275.978 458.672 275.978C457.608 275.978 456.796 276.538 456.124 277.21H456.082L455.914 276.174H454.248V284ZM470.308 284.196C472.03 284.196 473.64 282.656 473.64 279.954C473.64 277.546 472.478 275.978 470.56 275.978C469.776 275.978 469.006 276.356 468.376 276.902L468.446 275.656V272.842H466.388V284H467.998L468.166 283.174H468.222C468.852 283.832 469.608 284.196 470.308 284.196ZM469.86 282.502C469.44 282.502 468.922 282.362 468.446 281.928V278.47C468.964 277.924 469.454 277.658 469.972 277.658C471.064 277.658 471.526 278.484 471.526 279.996C471.526 281.69 470.798 282.502 469.86 282.502ZM477.736 284.196C478.8 284.196 479.542 283.678 480.228 282.88H480.27L480.424 284H482.104V276.174H480.06V281.452C479.528 282.152 479.108 282.432 478.464 282.432C477.694 282.432 477.358 282.012 477.358 280.808V276.174H475.3V281.06C475.3 283.034 476.042 284.196 477.736 284.196ZM484.312 284H486.37V276.174H484.312V284ZM485.334 274.9C486.048 274.9 486.538 274.452 486.538 273.766C486.538 273.094 486.048 272.66 485.334 272.66C484.62 272.66 484.144 273.094 484.144 273.766C484.144 274.452 484.62 274.9 485.334 274.9ZM490.496 284.196C490.986 284.196 491.308 284.112 491.546 284.028L491.294 282.502C491.154 282.53 491.098 282.53 491.028 282.53C490.832 282.53 490.622 282.376 490.622 281.886V272.842H488.564V281.802C488.564 283.258 489.054 284.196 490.496 284.196ZM495.738 284.196C496.55 284.196 497.334 283.762 497.908 283.188H497.95L498.104 284H499.784V272.842H497.726V275.586L497.81 276.818C497.236 276.3 496.69 275.978 495.808 275.978C494.128 275.978 492.518 277.532 492.518 280.094C492.518 282.67 493.778 284.196 495.738 284.196ZM496.256 282.502C495.234 282.502 494.632 281.704 494.632 280.066C494.632 278.498 495.388 277.658 496.27 277.658C496.76 277.658 497.264 277.826 497.726 278.26V281.704C497.278 282.278 496.816 282.502 496.256 282.502Z" fill="white"/>
<path fill-rule="evenodd" clip-rule="evenodd" d="M396.746 0C417.046 0 434.198 12.3184 439.737 29.221C462.316 31.3624 479.921 48.8026 479.921 70C479.921 88.01 467.212 103.308 449.542 108.815C443.042 124.136 426.754 135 407.69 135C393.835 135 381.447 129.262 373.216 120.246C364.985 129.262 352.597 135 338.742 135C325.592 135 313.763 129.831 305.556 121.596C301.83 122.512 297.913 123 293.871 123C269.089 123 249 104.644 249 82C249 63.5177 262.384 47.8917 280.779 42.7725C280.752 42.1848 280.738 41.5939 280.738 41C280.738 18.3563 300.827 0 325.609 0C340.092 0 352.973 6.2701 361.177 16.0017C369.381 6.2701 382.262 0 396.746 0Z" fill="#82CAC1"/>
<path d="M338.453 46.224C341.173 46.224 342.789 44.576 342.789 42.64C342.789 40.944 341.845 40.016 340.421 39.424L338.869 38.784C337.861 38.384 337.013 38.064 337.013 37.216C337.013 36.448 337.669 35.984 338.709 35.984C339.685 35.984 340.469 36.336 341.237 36.96L342.421 35.472C341.461 34.496 340.085 33.952 338.709 33.952C336.325 33.952 334.613 35.44 334.613 37.376C334.613 39.088 335.829 40.064 337.013 40.544L338.597 41.216C339.653 41.664 340.373 41.952 340.373 42.832C340.373 43.648 339.733 44.176 338.501 44.176C337.461 44.176 336.325 43.664 335.493 42.88L334.133 44.512C335.285 45.616 336.853 46.224 338.453 46.224ZM347.395 46.224C348.195 46.224 348.819 46.048 349.299 45.888L348.915 44.176C348.659 44.272 348.323 44.384 348.019 44.384C347.235 44.384 346.803 43.904 346.803 42.88V38.896H349.027V37.056H346.803V34.624H344.851L344.595 37.056L343.203 37.152V38.896H344.451V42.88C344.451 44.88 345.267 46.224 347.395 46.224ZM354.219 46.224C356.459 46.224 358.507 44.496 358.507 41.536C358.507 38.56 356.459 36.832 354.219 36.832C351.963 36.832 349.915 38.56 349.915 41.536C349.915 44.496 351.963 46.224 354.219 46.224ZM354.219 44.32C352.987 44.32 352.315 43.216 352.315 41.536C352.315 39.84 352.987 38.752 354.219 38.752C355.435 38.752 356.107 39.84 356.107 41.536C356.107 43.216 355.435 44.32 354.219 44.32ZM360.491 46H362.843V40.672C363.339 39.376 364.187 38.896 364.875 38.896C365.259 38.896 365.499 38.96 365.819 39.04L366.219 37.024C365.947 36.896 365.659 36.832 365.179 36.832C364.251 36.832 363.275 37.456 362.635 38.64H362.587L362.395 37.056H360.491V46ZM369.089 46.224C370.113 46.224 371.009 45.728 371.793 45.056H371.857L372.033 46H373.953V40.784C373.953 38.176 372.785 36.832 370.513 36.832C369.089 36.832 367.825 37.36 366.769 38L367.617 39.568C368.433 39.072 369.249 38.72 370.081 38.72C371.185 38.72 371.553 39.376 371.601 40.256C368.001 40.656 366.449 41.664 366.449 43.568C366.449 45.104 367.489 46.224 369.089 46.224ZM369.857 44.384C369.169 44.384 368.689 44.08 368.689 43.392C368.689 42.576 369.409 41.984 371.601 41.712V43.52C371.025 44.08 370.529 44.384 369.857 44.384ZM379.486 49.888C382.478 49.888 384.382 48.528 384.382 46.72C384.382 45.136 383.198 44.48 381.038 44.48H379.502C378.462 44.48 378.094 44.208 378.094 43.744C378.094 43.376 378.238 43.184 378.478 42.96C378.878 43.104 379.278 43.168 379.63 43.168C381.566 43.168 383.102 42.16 383.102 40.128C383.102 39.584 382.926 39.088 382.686 38.784H384.222V37.056H380.99C380.622 36.912 380.142 36.832 379.63 36.832C377.742 36.832 376.014 37.952 376.014 40.064C376.014 41.12 376.606 41.968 377.23 42.416V42.48C376.67 42.864 376.222 43.472 376.222 44.144C376.222 44.88 376.574 45.36 377.038 45.664V45.744C376.206 46.192 375.758 46.848 375.758 47.6C375.758 49.168 377.39 49.888 379.486 49.888ZM379.63 41.728C378.846 41.728 378.222 41.12 378.222 40.064C378.222 39.008 378.846 38.432 379.63 38.432C380.43 38.432 381.038 39.008 381.038 40.064C381.038 41.12 380.414 41.728 379.63 41.728ZM379.854 48.4C378.542 48.4 377.71 47.984 377.71 47.232C377.71 46.864 377.886 46.512 378.302 46.176C378.622 46.272 378.99 46.304 379.534 46.304H380.622C381.582 46.304 382.11 46.48 382.11 47.12C382.11 47.808 381.198 48.4 379.854 48.4ZM389.41 46.224C390.514 46.224 391.634 45.856 392.514 45.248L391.73 43.792C391.074 44.192 390.434 44.416 389.714 44.416C388.386 44.416 387.426 43.664 387.218 42.192H392.754C392.802 41.968 392.85 41.552 392.85 41.104C392.85 38.624 391.586 36.832 389.106 36.832C386.994 36.832 384.946 38.624 384.946 41.536C384.946 44.496 386.898 46.224 389.41 46.224ZM387.186 40.624C387.378 39.312 388.21 38.64 389.154 38.64C390.306 38.64 390.85 39.408 390.85 40.624H387.186Z" fill="white"/>
<rect x="339" y="57" width="55" height="45" fill="white"/>
<path d="M349.806 71.162L351.052 69.748L352.284 71.162L353.166 70.518L352.214 68.922L353.894 68.166L353.558 67.13L351.78 67.536L351.598 65.688H350.492L350.31 67.536L348.532 67.13L348.196 68.166L349.848 68.922L348.924 70.518L349.806 71.162ZM356.873 77.196C357.601 77.196 358.161 76.622 358.161 75.852C358.161 75.082 357.601 74.522 356.873 74.522C356.131 74.522 355.599 75.082 355.599 75.852C355.599 76.622 356.131 77.196 356.873 77.196ZM360.264 80.01H362.322V77.63L362.252 76.356C362.84 76.902 363.512 77.196 364.184 77.196C365.906 77.196 367.516 75.656 367.516 72.968C367.516 70.546 366.368 68.978 364.436 68.978C363.596 68.978 362.784 69.412 362.14 69.986H362.098L361.93 69.174H360.264V80.01ZM363.736 75.502C363.316 75.502 362.812 75.362 362.322 74.928V71.47C362.854 70.924 363.33 70.658 363.848 70.658C364.94 70.658 365.402 71.484 365.402 72.996C365.402 74.69 364.674 75.502 363.736 75.502ZM369.274 77H371.332V71.61C371.906 71.05 372.312 70.742 372.956 70.742C373.712 70.742 374.062 71.148 374.062 72.38V77H376.12V72.114C376.12 70.154 375.378 68.978 373.698 68.978C372.634 68.978 371.822 69.538 371.15 70.21H371.108L370.94 69.174H369.274V77ZM380.987 80.402C383.605 80.402 385.271 79.212 385.271 77.63C385.271 76.244 384.235 75.67 382.345 75.67H381.001C380.091 75.67 379.769 75.432 379.769 75.026C379.769 74.704 379.895 74.536 380.105 74.34C380.455 74.466 380.805 74.522 381.113 74.522C382.807 74.522 384.151 73.64 384.151 71.862C384.151 71.386 383.997 70.952 383.787 70.686H385.131V69.174H382.303C381.981 69.048 381.561 68.978 381.113 68.978C379.461 68.978 377.949 69.958 377.949 71.806C377.949 72.73 378.467 73.472 379.013 73.864V73.92C378.523 74.256 378.131 74.788 378.131 75.376C378.131 76.02 378.439 76.44 378.845 76.706V76.776C378.117 77.168 377.725 77.742 377.725 78.4C377.725 79.772 379.153 80.402 380.987 80.402ZM381.113 73.262C380.427 73.262 379.881 72.73 379.881 71.806C379.881 70.882 380.427 70.378 381.113 70.378C381.813 70.378 382.345 70.882 382.345 71.806C382.345 72.73 381.799 73.262 381.113 73.262ZM381.309 79.1C380.161 79.1 379.433 78.736 379.433 78.078C379.433 77.756 379.587 77.448 379.951 77.154C380.231 77.238 380.553 77.266 381.029 77.266H381.981C382.821 77.266 383.283 77.42 383.283 77.98C383.283 78.582 382.485 79.1 381.309 79.1Z" fill="#5793BF"/>
</svg>
