<svg width="877" height="263" viewBox="0 0 877 263" fill="none" xmlns="http://www.w3.org/2000/svg">
<rect x="37" y="132" width="110" height="86" fill="#82CAC1"/>
<rect x="292" y="132" width="110" height="86" fill="#82CAC1"/>
<path d="M63.3299 183.224C65.2979 183.224 67.1379 181.464 67.1379 178.376C67.1379 175.624 65.8099 173.832 63.6179 173.832C62.7219 173.832 61.8419 174.264 61.1219 174.888L61.2019 173.464V170.248H58.8499V183H60.6899L60.8819 182.056H60.9459C61.6659 182.808 62.5299 183.224 63.3299 183.224ZM62.8179 181.288C62.3379 181.288 61.7459 181.128 61.2019 180.632V176.68C61.7939 176.056 62.3539 175.752 62.9459 175.752C64.1939 175.752 64.7219 176.696 64.7219 178.424C64.7219 180.36 63.8899 181.288 62.8179 181.288ZM69.1468 183H71.4988V177.672C71.9948 176.376 72.8428 175.896 73.5308 175.896C73.9148 175.896 74.1548 175.96 74.4748 176.04L74.8748 174.024C74.6028 173.896 74.3148 173.832 73.8348 173.832C72.9068 173.832 71.9308 174.456 71.2908 175.64H71.2428L71.0508 174.056H69.1468V183ZM79.6096 183.224C81.8496 183.224 83.8976 181.496 83.8976 178.536C83.8976 175.56 81.8496 173.832 79.6096 173.832C77.3536 173.832 75.3056 175.56 75.3056 178.536C75.3056 181.496 77.3536 183.224 79.6096 183.224ZM79.6096 181.32C78.3776 181.32 77.7056 180.216 77.7056 178.536C77.7056 176.84 78.3776 175.752 79.6096 175.752C80.8256 175.752 81.4976 176.84 81.4976 178.536C81.4976 180.216 80.8256 181.32 79.6096 181.32ZM87.1344 183H89.8224L90.7344 179.112C90.9264 178.264 91.0704 177.448 91.2304 176.488H91.3104C91.4864 177.448 91.6304 178.264 91.8224 179.096L92.7664 183H95.5344L97.7584 174.056H95.5664L94.6064 178.472C94.4304 179.352 94.3184 180.2 94.1584 181.08H94.0784C93.8864 180.2 93.7104 179.352 93.5024 178.472L92.3824 174.056H90.3024L89.2144 178.472C88.9904 179.336 88.8304 180.2 88.6704 181.08H88.5904C88.4304 180.2 88.3184 179.352 88.1584 178.472L87.1664 174.056H84.8304L87.1344 183ZM102.035 183.224C104.355 183.224 105.587 181.976 105.587 180.392C105.587 178.744 104.291 178.136 103.107 177.688C102.147 177.352 101.331 177.096 101.331 176.456C101.331 175.928 101.699 175.576 102.515 175.576C103.171 175.576 103.811 175.896 104.435 176.344L105.507 174.936C104.771 174.36 103.747 173.832 102.451 173.832C100.403 173.832 99.1229 174.968 99.1229 176.552C99.1229 178.072 100.387 178.744 101.523 179.192C102.451 179.544 103.395 179.864 103.395 180.52C103.395 181.08 102.979 181.48 102.083 181.48C101.251 181.48 100.499 181.112 99.6829 180.488L98.6269 181.976C99.5069 182.712 100.835 183.224 102.035 183.224ZM111.301 183.224C112.405 183.224 113.525 182.856 114.405 182.248L113.621 180.792C112.965 181.192 112.325 181.416 111.605 181.416C110.277 181.416 109.317 180.664 109.109 179.192H114.645C114.693 178.968 114.741 178.552 114.741 178.104C114.741 175.624 113.477 173.832 110.997 173.832C108.885 173.832 106.837 175.624 106.837 178.536C106.837 181.496 108.789 183.224 111.301 183.224ZM109.077 177.624C109.269 176.312 110.101 175.64 111.045 175.64C112.197 175.64 112.741 176.408 112.741 177.624H109.077ZM116.694 183H119.046V177.672C119.542 176.376 120.39 175.896 121.078 175.896C121.462 175.896 121.702 175.96 122.022 176.04L122.422 174.024C122.15 173.896 121.862 173.832 121.382 173.832C120.454 173.832 119.478 174.456 118.838 175.64H118.79L118.598 174.056H116.694V183Z" fill="white"/>
<path d="M329.761 183H333.137C336.625 183 338.849 181.016 338.849 177.032C338.849 173.032 336.625 171.16 333.009 171.16H329.761V183ZM332.129 181.096V173.048H332.849C335.073 173.048 336.433 174.152 336.433 177.032C336.433 179.912 335.073 181.096 332.849 181.096H332.129ZM341.183 183H343.423V178.264C343.423 176.888 343.231 175.4 343.119 174.136H343.199L344.399 176.664L347.823 183H350.239V171.16H347.983V175.88C347.983 177.224 348.175 178.808 348.303 180.04H348.223L347.023 177.48L343.583 171.16H341.183V183ZM356.703 183.224C359.423 183.224 361.039 181.576 361.039 179.64C361.039 177.944 360.095 177.016 358.671 176.424L357.119 175.784C356.111 175.384 355.263 175.064 355.263 174.216C355.263 173.448 355.919 172.984 356.959 172.984C357.935 172.984 358.719 173.336 359.487 173.96L360.671 172.472C359.711 171.496 358.335 170.952 356.959 170.952C354.575 170.952 352.863 172.44 352.863 174.376C352.863 176.088 354.079 177.064 355.263 177.544L356.847 178.216C357.903 178.664 358.623 178.952 358.623 179.832C358.623 180.648 357.983 181.176 356.751 181.176C355.711 181.176 354.575 180.664 353.743 179.88L352.383 181.512C353.535 182.616 355.103 183.224 356.703 183.224Z" fill="white"/>
<path fill-rule="evenodd" clip-rule="evenodd" d="M523 180.444L424.009 181L424 176.556L522.991 176L523 180.444Z" fill="#5793BF"/>
<path fill-rule="evenodd" clip-rule="evenodd" d="M260 180.444L161.009 181L161 176.556L259.991 176L260 180.444Z" fill="#5793BF"/>
<path fill-rule="evenodd" clip-rule="evenodd" d="M759.938 73C788.51 73 812.65 90.337 820.445 114.126C852.223 117.14 877 141.685 877 171.518C877 196.866 859.114 218.396 834.244 226.146C825.096 247.71 802.173 263 775.341 263C755.842 263 738.407 254.925 726.822 242.235C715.238 254.925 697.803 263 678.303 263C659.796 263 643.148 255.725 631.597 244.135C626.354 245.424 620.841 246.111 615.152 246.111C580.274 246.111 552 220.276 552 188.407C552 162.395 570.837 140.403 596.726 133.198C596.688 132.371 596.668 131.54 596.668 130.704C596.668 98.8348 624.942 73 659.82 73C680.204 73 698.332 81.8246 709.879 95.5209C721.426 81.8246 739.554 73 759.938 73Z" fill="#82CAC1"/>
<path d="M682.453 128.224C685.173 128.224 686.789 126.576 686.789 124.64C686.789 122.944 685.845 122.016 684.421 121.424L682.869 120.784C681.861 120.384 681.013 120.064 681.013 119.216C681.013 118.448 681.669 117.984 682.709 117.984C683.685 117.984 684.469 118.336 685.237 118.96L686.421 117.472C685.461 116.496 684.085 115.952 682.709 115.952C680.325 115.952 678.613 117.44 678.613 119.376C678.613 121.088 679.829 122.064 681.013 122.544L682.597 123.216C683.653 123.664 684.373 123.952 684.373 124.832C684.373 125.648 683.733 126.176 682.501 126.176C681.461 126.176 680.325 125.664 679.493 124.88L678.133 126.512C679.285 127.616 680.853 128.224 682.453 128.224ZM691.395 128.224C692.195 128.224 692.819 128.048 693.299 127.888L692.915 126.176C692.659 126.272 692.323 126.384 692.019 126.384C691.235 126.384 690.803 125.904 690.803 124.88V120.896H693.027V119.056H690.803V116.624H688.851L688.595 119.056L687.203 119.152V120.896H688.451V124.88C688.451 126.88 689.267 128.224 691.395 128.224ZM698.219 128.224C700.459 128.224 702.507 126.496 702.507 123.536C702.507 120.56 700.459 118.832 698.219 118.832C695.963 118.832 693.915 120.56 693.915 123.536C693.915 126.496 695.963 128.224 698.219 128.224ZM698.219 126.32C696.987 126.32 696.315 125.216 696.315 123.536C696.315 121.84 696.987 120.752 698.219 120.752C699.435 120.752 700.107 121.84 700.107 123.536C700.107 125.216 699.435 126.32 698.219 126.32ZM704.491 128H706.843V122.672C707.339 121.376 708.187 120.896 708.875 120.896C709.259 120.896 709.499 120.96 709.819 121.04L710.219 119.024C709.947 118.896 709.659 118.832 709.179 118.832C708.251 118.832 707.275 119.456 706.635 120.64H706.587L706.395 119.056H704.491V128ZM713.089 128.224C714.113 128.224 715.009 127.728 715.793 127.056H715.857L716.033 128H717.953V122.784C717.953 120.176 716.785 118.832 714.513 118.832C713.089 118.832 711.825 119.36 710.769 120L711.617 121.568C712.433 121.072 713.249 120.72 714.081 120.72C715.185 120.72 715.553 121.376 715.601 122.256C712.001 122.656 710.449 123.664 710.449 125.568C710.449 127.104 711.489 128.224 713.089 128.224ZM713.857 126.384C713.169 126.384 712.689 126.08 712.689 125.392C712.689 124.576 713.409 123.984 715.601 123.712V125.52C715.025 126.08 714.529 126.384 713.857 126.384ZM723.486 131.888C726.478 131.888 728.382 130.528 728.382 128.72C728.382 127.136 727.198 126.48 725.038 126.48H723.502C722.462 126.48 722.094 126.208 722.094 125.744C722.094 125.376 722.238 125.184 722.478 124.96C722.878 125.104 723.278 125.168 723.63 125.168C725.566 125.168 727.102 124.16 727.102 122.128C727.102 121.584 726.926 121.088 726.686 120.784H728.222V119.056H724.99C724.622 118.912 724.142 118.832 723.63 118.832C721.742 118.832 720.014 119.952 720.014 122.064C720.014 123.12 720.606 123.968 721.23 124.416V124.48C720.67 124.864 720.222 125.472 720.222 126.144C720.222 126.88 720.574 127.36 721.038 127.664V127.744C720.206 128.192 719.758 128.848 719.758 129.6C719.758 131.168 721.39 131.888 723.486 131.888ZM723.63 123.728C722.846 123.728 722.222 123.12 722.222 122.064C722.222 121.008 722.846 120.432 723.63 120.432C724.43 120.432 725.038 121.008 725.038 122.064C725.038 123.12 724.414 123.728 723.63 123.728ZM723.854 130.4C722.542 130.4 721.71 129.984 721.71 129.232C721.71 128.864 721.886 128.512 722.302 128.176C722.622 128.272 722.99 128.304 723.534 128.304H724.622C725.582 128.304 726.11 128.48 726.11 129.12C726.11 129.808 725.198 130.4 723.854 130.4ZM733.41 128.224C734.514 128.224 735.634 127.856 736.514 127.248L735.73 125.792C735.074 126.192 734.434 126.416 733.714 126.416C732.386 126.416 731.426 125.664 731.218 124.192H736.754C736.802 123.968 736.85 123.552 736.85 123.104C736.85 120.624 735.586 118.832 733.106 118.832C730.994 118.832 728.946 120.624 728.946 123.536C728.946 126.496 730.898 128.224 733.41 128.224ZM731.186 122.624C731.378 121.312 732.21 120.64 733.154 120.64C734.306 120.64 734.85 121.408 734.85 122.624H731.186Z" fill="white"/>
<rect x="631" y="174" width="55" height="45" fill="white"/>
<path d="M641.806 188.162L643.052 186.748L644.284 188.162L645.166 187.518L644.214 185.922L645.894 185.166L645.558 184.13L643.78 184.536L643.598 182.688H642.492L642.31 184.536L640.532 184.13L640.196 185.166L641.848 185.922L640.924 187.518L641.806 188.162ZM648.873 194.196C649.601 194.196 650.161 193.622 650.161 192.852C650.161 192.082 649.601 191.522 648.873 191.522C648.131 191.522 647.599 192.082 647.599 192.852C647.599 193.622 648.131 194.196 648.873 194.196ZM652.264 197.01H654.322V194.63L654.252 193.356C654.84 193.902 655.512 194.196 656.184 194.196C657.906 194.196 659.516 192.656 659.516 189.968C659.516 187.546 658.368 185.978 656.436 185.978C655.596 185.978 654.784 186.412 654.14 186.986H654.098L653.93 186.174H652.264V197.01ZM655.736 192.502C655.316 192.502 654.812 192.362 654.322 191.928V188.47C654.854 187.924 655.33 187.658 655.848 187.658C656.94 187.658 657.402 188.484 657.402 189.996C657.402 191.69 656.674 192.502 655.736 192.502ZM661.274 194H663.332V188.61C663.906 188.05 664.312 187.742 664.956 187.742C665.712 187.742 666.062 188.148 666.062 189.38V194H668.12V189.114C668.12 187.154 667.378 185.978 665.698 185.978C664.634 185.978 663.822 186.538 663.15 187.21H663.108L662.94 186.174H661.274V194ZM672.987 197.402C675.605 197.402 677.271 196.212 677.271 194.63C677.271 193.244 676.235 192.67 674.345 192.67H673.001C672.091 192.67 671.769 192.432 671.769 192.026C671.769 191.704 671.895 191.536 672.105 191.34C672.455 191.466 672.805 191.522 673.113 191.522C674.807 191.522 676.151 190.64 676.151 188.862C676.151 188.386 675.997 187.952 675.787 187.686H677.131V186.174H674.303C673.981 186.048 673.561 185.978 673.113 185.978C671.461 185.978 669.949 186.958 669.949 188.806C669.949 189.73 670.467 190.472 671.013 190.864V190.92C670.523 191.256 670.131 191.788 670.131 192.376C670.131 193.02 670.439 193.44 670.845 193.706V193.776C670.117 194.168 669.725 194.742 669.725 195.4C669.725 196.772 671.153 197.402 672.987 197.402ZM673.113 190.262C672.427 190.262 671.881 189.73 671.881 188.806C671.881 187.882 672.427 187.378 673.113 187.378C673.813 187.378 674.345 187.882 674.345 188.806C674.345 189.73 673.799 190.262 673.113 190.262ZM673.309 196.1C672.161 196.1 671.433 195.736 671.433 195.078C671.433 194.756 671.587 194.448 671.951 194.154C672.231 194.238 672.553 194.266 673.029 194.266H673.981C674.821 194.266 675.283 194.42 675.283 194.98C675.283 195.582 674.485 196.1 673.309 196.1Z" fill="#5793BF"/>
<rect x="708" y="144" width="110" height="75" fill="white"/>
<path d="M723.274 207H725.332V201.61C725.906 201.05 726.312 200.742 726.956 200.742C727.712 200.742 728.062 201.148 728.062 202.38V207H730.12V202.114C730.12 200.154 729.378 198.978 727.698 198.978C726.634 198.978 725.85 199.538 725.234 200.126L725.332 198.656V195.842H723.274V207ZM735.085 207.196C735.785 207.196 736.331 207.042 736.751 206.902L736.415 205.404C736.191 205.488 735.897 205.586 735.631 205.586C734.945 205.586 734.567 205.166 734.567 204.27V200.784H736.513V199.174H734.567V197.046H732.859L732.635 199.174L731.417 199.258V200.784H732.509V204.27C732.509 206.02 733.223 207.196 735.085 207.196ZM738.122 207H740.18V201.61C740.712 201.022 741.23 200.742 741.664 200.742C742.42 200.742 742.77 201.148 742.77 202.38V207H744.828V201.61C745.388 201.022 745.878 200.742 746.326 200.742C747.082 200.742 747.418 201.148 747.418 202.38V207H749.476V202.114C749.476 200.154 748.72 198.978 747.054 198.978C746.032 198.978 745.276 199.594 744.548 200.336C744.184 199.468 743.526 198.978 742.392 198.978C741.384 198.978 740.656 199.538 739.998 200.21H739.956L739.788 199.174H738.122V207ZM753.548 207.196C754.038 207.196 754.36 207.112 754.598 207.028L754.346 205.502C754.206 205.53 754.15 205.53 754.08 205.53C753.884 205.53 753.674 205.376 753.674 204.886V195.842H751.616V204.802C751.616 206.258 752.106 207.196 753.548 207.196ZM756.088 209.996C757.796 209.436 758.734 208.19 758.734 206.538C758.734 205.278 758.202 204.522 757.264 204.522C756.522 204.522 755.92 204.998 755.92 205.74C755.92 206.51 756.536 206.958 757.208 206.958C757.516 206.958 757.796 206.86 758.006 206.65L757.278 205.446L757.348 206.902C757.362 207.728 756.76 208.47 755.668 208.876L756.088 209.996ZM767.074 207.196C767.942 207.196 768.908 206.902 769.65 206.258L768.838 204.9C768.404 205.25 767.872 205.53 767.298 205.53C766.178 205.53 765.366 204.564 765.366 203.094C765.366 201.61 766.164 200.658 767.382 200.658C767.802 200.658 768.18 200.826 768.572 201.162L769.538 199.846C768.964 199.342 768.236 198.978 767.256 198.978C765.128 198.978 763.266 200.49 763.266 203.094C763.266 205.684 764.918 207.196 767.074 207.196ZM773.379 207.196C775.409 207.196 776.487 206.104 776.487 204.718C776.487 203.276 775.353 202.744 774.317 202.352C773.477 202.058 772.763 201.834 772.763 201.274C772.763 200.812 773.085 200.504 773.799 200.504C774.373 200.504 774.933 200.784 775.479 201.176L776.417 199.944C775.773 199.44 774.877 198.978 773.743 198.978C771.951 198.978 770.831 199.972 770.831 201.358C770.831 202.688 771.937 203.276 772.931 203.668C773.743 203.976 774.569 204.256 774.569 204.83C774.569 205.32 774.205 205.67 773.421 205.67C772.693 205.67 772.035 205.348 771.321 204.802L770.397 206.104C771.167 206.748 772.329 207.196 773.379 207.196ZM780.311 207.196C782.341 207.196 783.419 206.104 783.419 204.718C783.419 203.276 782.285 202.744 781.249 202.352C780.409 202.058 779.695 201.834 779.695 201.274C779.695 200.812 780.017 200.504 780.731 200.504C781.305 200.504 781.865 200.784 782.411 201.176L783.349 199.944C782.705 199.44 781.809 198.978 780.675 198.978C778.883 198.978 777.763 199.972 777.763 201.358C777.763 202.688 778.869 203.276 779.863 203.668C780.675 203.976 781.501 204.256 781.501 204.83C781.501 205.32 781.137 205.67 780.353 205.67C779.625 205.67 778.967 205.348 778.253 204.802L777.329 206.104C778.099 206.748 779.261 207.196 780.311 207.196ZM785.058 209.996C786.766 209.436 787.704 208.19 787.704 206.538C787.704 205.278 787.172 204.522 786.234 204.522C785.492 204.522 784.89 204.998 784.89 205.74C784.89 206.51 785.506 206.958 786.178 206.958C786.486 206.958 786.766 206.86 786.976 206.65L786.248 205.446L786.318 206.902C786.332 207.728 785.73 208.47 784.638 208.876L785.058 209.996ZM792.167 210.206C794.141 210.206 794.799 208.89 794.799 207.21V199.174H792.741V207.252C792.741 208.148 792.531 208.596 791.873 208.596C791.649 208.596 791.425 208.54 791.229 208.47L790.851 209.996C791.159 210.108 791.565 210.206 792.167 210.206ZM793.763 197.9C794.463 197.9 794.967 197.452 794.967 196.766C794.967 196.094 794.463 195.66 793.763 195.66C793.063 195.66 792.573 196.094 792.573 196.766C792.573 197.452 793.063 197.9 793.763 197.9ZM799.246 207.196C801.276 207.196 802.354 206.104 802.354 204.718C802.354 203.276 801.22 202.744 800.184 202.352C799.344 202.058 798.63 201.834 798.63 201.274C798.63 200.812 798.952 200.504 799.666 200.504C800.24 200.504 800.8 200.784 801.346 201.176L802.284 199.944C801.64 199.44 800.744 198.978 799.61 198.978C797.818 198.978 796.698 199.972 796.698 201.358C796.698 202.688 797.804 203.276 798.798 203.668C799.61 203.976 800.436 204.256 800.436 204.83C800.436 205.32 800.072 205.67 799.288 205.67C798.56 205.67 797.902 205.348 797.188 204.802L796.264 206.104C797.034 206.748 798.196 207.196 799.246 207.196Z" fill="#5793BF"/>
<path d="M726.894 186.15C728.658 186.15 729.498 185.086 730.184 183.252L732.97 175.174H730.996L729.904 178.8C729.722 179.542 729.526 180.284 729.358 181.026H729.288C729.05 180.27 728.854 179.514 728.616 178.8L727.384 175.174H725.298L728.35 182.86L728.224 183.322C727.986 184.022 727.538 184.526 726.754 184.526C726.558 184.526 726.348 184.456 726.208 184.414L725.83 185.996C726.124 186.094 726.446 186.15 726.894 186.15ZM735.783 183.196C736.679 183.196 737.463 182.762 738.149 182.174H738.205L738.359 183H740.039V178.436C740.039 176.154 739.017 174.978 737.029 174.978C735.783 174.978 734.677 175.44 733.753 176L734.495 177.372C735.209 176.938 735.923 176.63 736.651 176.63C737.617 176.63 737.939 177.204 737.981 177.974C734.831 178.324 733.473 179.206 733.473 180.872C733.473 182.216 734.383 183.196 735.783 183.196ZM736.455 181.586C735.853 181.586 735.433 181.32 735.433 180.718C735.433 180.004 736.063 179.486 737.981 179.248V180.83C737.477 181.32 737.043 181.586 736.455 181.586ZM742.136 183H744.194V178.338C744.628 177.204 745.37 176.784 745.972 176.784C746.308 176.784 746.518 176.84 746.798 176.91L747.148 175.146C746.91 175.034 746.658 174.978 746.238 174.978C745.426 174.978 744.572 175.524 744.012 176.56H743.97L743.802 175.174H742.136V183ZM748.248 183H750.306V177.61C750.88 177.05 751.286 176.742 751.93 176.742C752.686 176.742 753.036 177.148 753.036 178.38V183H755.094V178.114C755.094 176.154 754.352 174.978 752.672 174.978C751.608 174.978 750.796 175.538 750.124 176.21H750.082L749.914 175.174H748.248V183ZM764.308 183.196C766.03 183.196 767.64 181.656 767.64 178.954C767.64 176.546 766.478 174.978 764.56 174.978C763.776 174.978 763.006 175.356 762.376 175.902L762.446 174.656V171.842H760.388V183H761.998L762.166 182.174H762.222C762.852 182.832 763.608 183.196 764.308 183.196ZM763.86 181.502C763.44 181.502 762.922 181.362 762.446 180.928V177.47C762.964 176.924 763.454 176.658 763.972 176.658C765.064 176.658 765.526 177.484 765.526 178.996C765.526 180.69 764.798 181.502 763.86 181.502ZM771.736 183.196C772.8 183.196 773.542 182.678 774.228 181.88H774.27L774.424 183H776.104V175.174H774.06V180.452C773.528 181.152 773.108 181.432 772.464 181.432C771.694 181.432 771.358 181.012 771.358 179.808V175.174H769.3V180.06C769.3 182.034 770.042 183.196 771.736 183.196ZM778.312 183H780.37V175.174H778.312V183ZM779.334 173.9C780.048 173.9 780.538 173.452 780.538 172.766C780.538 172.094 780.048 171.66 779.334 171.66C778.62 171.66 778.144 172.094 778.144 172.766C778.144 173.452 778.62 173.9 779.334 173.9ZM784.496 183.196C784.986 183.196 785.308 183.112 785.546 183.028L785.294 181.502C785.154 181.53 785.098 181.53 785.028 181.53C784.832 181.53 784.622 181.376 784.622 180.886V171.842H782.564V180.802C782.564 182.258 783.054 183.196 784.496 183.196ZM789.738 183.196C790.55 183.196 791.334 182.762 791.908 182.188H791.95L792.104 183H793.784V171.842H791.726V174.586L791.81 175.818C791.236 175.3 790.69 174.978 789.808 174.978C788.128 174.978 786.518 176.532 786.518 179.094C786.518 181.67 787.778 183.196 789.738 183.196ZM790.256 181.502C789.234 181.502 788.632 180.704 788.632 179.066C788.632 177.498 789.388 176.658 790.27 176.658C790.76 176.658 791.264 176.826 791.726 177.26V180.704C791.278 181.278 790.816 181.502 790.256 181.502Z" fill="#82CAC1"/>
<path d="M1.72494 115H4.07694V108.84C4.73294 108.2 5.19694 107.848 5.93294 107.848C6.79694 107.848 7.19694 108.312 7.19694 109.72V115H9.54894V109.416C9.54894 107.176 8.70094 105.832 6.78094 105.832C5.56494 105.832 4.66894 106.472 3.96494 107.144L4.07694 105.464V102.248H1.72494V115ZM15.2233 115.224C16.0233 115.224 16.6473 115.048 17.1273 114.888L16.7433 113.176C16.4873 113.272 16.1513 113.384 15.8473 113.384C15.0633 113.384 14.6313 112.904 14.6313 111.88V107.896H16.8553V106.056H14.6313V103.624H12.6793L12.4233 106.056L11.0313 106.152V107.896H12.2793V111.88C12.2793 113.88 13.0953 115.224 15.2233 115.224ZM21.5046 115.224C22.3046 115.224 22.9286 115.048 23.4086 114.888L23.0246 113.176C22.7686 113.272 22.4326 113.384 22.1286 113.384C21.3446 113.384 20.9126 112.904 20.9126 111.88V107.896H23.1366V106.056H20.9126V103.624H18.9606L18.7046 106.056L17.3126 106.152V107.896H18.5606V111.88C18.5606 113.88 19.3766 115.224 21.5046 115.224ZM24.9749 118.44H27.3269V115.72L27.2469 114.264C27.9189 114.888 28.6869 115.224 29.4549 115.224C31.4229 115.224 33.2629 113.464 33.2629 110.392C33.2629 107.624 31.9509 105.832 29.7429 105.832C28.7829 105.832 27.8549 106.328 27.1189 106.984H27.0709L26.8789 106.056H24.9749V118.44ZM28.9429 113.288C28.4629 113.288 27.8869 113.128 27.3269 112.632V108.68C27.9349 108.056 28.4789 107.752 29.0709 107.752C30.3189 107.752 30.8469 108.696 30.8469 110.424C30.8469 112.36 30.0149 113.288 28.9429 113.288ZM36.5998 109.16C37.4318 109.16 38.0718 108.504 38.0718 107.624C38.0718 106.76 37.4318 106.104 36.5998 106.104C35.7518 106.104 35.1438 106.76 35.1438 107.624C35.1438 108.504 35.7518 109.16 36.5998 109.16ZM36.5998 115.224C37.4318 115.224 38.0718 114.568 38.0718 113.688C38.0718 112.808 37.4318 112.168 36.5998 112.168C35.7518 112.168 35.1438 112.808 35.1438 113.688C35.1438 114.568 35.7518 115.224 36.5998 115.224ZM39.4189 117.912H40.9869L44.9709 102.104H43.4189L39.4189 117.912ZM45.6064 117.912H47.1744L51.1584 102.104H49.6064L45.6064 117.912ZM62.8819 101.608V116.424H64.9139V101.608H62.8819ZM60.9459 107.32V109.016H63.4099V107.32H60.9459ZM59.5699 101.864V115.72H61.5539V101.864H59.5699ZM52.8019 103.24V111.8H54.9299V103.24H52.8019ZM52.8019 111V112.824H53.8259C55.3299 112.824 57.0259 112.744 58.9619 112.392L58.7539 110.568C56.9139 110.92 55.2499 111 53.8259 111H52.8019ZM72.4327 103.256V103.688C72.4327 105.208 70.8647 106.872 67.6007 107.272L68.3847 108.936C72.1447 108.424 74.2727 106.296 74.2727 103.688V103.256H72.4327ZM73.0407 103.256V103.688C73.0407 106.296 75.1687 108.424 78.9447 108.936L79.7127 107.272C76.4487 106.872 74.8807 105.208 74.8807 103.688V103.256H73.0407ZM72.5447 111V116.44H74.6567V111H72.5447ZM66.9607 109.784V111.48H80.3527V109.784H66.9607ZM68.1447 102.36V104.04H79.1367V102.36H68.1447ZM81.6794 112.952V114.696H95.0874V112.952H81.6794ZM87.2474 109.656V113.416H89.3594V109.656H87.2474ZM87.1674 102.424V103.496C87.1674 105.544 85.3594 107.816 81.9834 108.36L82.8634 110.136C86.7354 109.432 89.0234 106.648 89.0234 103.496V102.424H87.1674ZM87.5834 102.424V103.496C87.5834 106.696 89.8714 109.416 93.7594 110.136L94.6394 108.36C91.2474 107.816 89.4394 105.592 89.4394 103.496V102.424H87.5834ZM98.3342 115.224C99.1662 115.224 99.8062 114.568 99.8062 113.688C99.8062 112.808 99.1662 112.168 98.3342 112.168C97.4862 112.168 96.8782 112.808 96.8782 113.688C96.8782 114.568 97.4862 115.224 98.3342 115.224ZM105.704 115.224C106.696 115.224 107.8 114.888 108.648 114.152L107.72 112.6C107.224 113 106.616 113.32 105.96 113.32C104.68 113.32 103.752 112.216 103.752 110.536C103.752 108.84 104.664 107.752 106.056 107.752C106.536 107.752 106.968 107.944 107.416 108.328L108.52 106.824C107.864 106.248 107.032 105.832 105.912 105.832C103.48 105.832 101.352 107.56 101.352 110.536C101.352 113.496 103.24 115.224 105.704 115.224ZM113.531 115.224C115.771 115.224 117.819 113.496 117.819 110.536C117.819 107.56 115.771 105.832 113.531 105.832C111.275 105.832 109.227 107.56 109.227 110.536C109.227 113.496 111.275 115.224 113.531 115.224ZM113.531 113.32C112.299 113.32 111.627 112.216 111.627 110.536C111.627 108.84 112.299 107.752 113.531 107.752C114.747 107.752 115.419 108.84 115.419 110.536C115.419 112.216 114.747 113.32 113.531 113.32ZM119.803 115H122.155V108.84C122.763 108.168 123.355 107.848 123.851 107.848C124.715 107.848 125.115 108.312 125.115 109.72V115H127.467V108.84C128.107 108.168 128.667 107.848 129.179 107.848C130.043 107.848 130.427 108.312 130.427 109.72V115H132.779V109.416C132.779 107.176 131.915 105.832 130.011 105.832C128.843 105.832 127.979 106.536 127.147 107.384C126.731 106.392 125.979 105.832 124.683 105.832C123.531 105.832 122.699 106.472 121.947 107.24H121.899L121.707 106.056H119.803V115ZM134.169 117.912H135.737L139.721 102.104H138.169L134.169 117.912ZM145.892 115.224C147.86 115.224 149.7 113.464 149.7 110.376C149.7 107.624 148.372 105.832 146.18 105.832C145.284 105.832 144.404 106.264 143.684 106.888L143.764 105.464V102.248H141.412V115H143.252L143.444 114.056H143.508C144.228 114.808 145.092 115.224 145.892 115.224ZM145.38 113.288C144.9 113.288 144.308 113.128 143.764 112.632V108.68C144.356 108.056 144.916 107.752 145.508 107.752C146.756 107.752 147.284 108.696 147.284 110.424C147.284 112.36 146.452 113.288 145.38 113.288ZM155.453 115.224C157.693 115.224 159.741 113.496 159.741 110.536C159.741 107.56 157.693 105.832 155.453 105.832C153.197 105.832 151.149 107.56 151.149 110.536C151.149 113.496 153.197 115.224 155.453 115.224ZM155.453 113.32C154.221 113.32 153.549 112.216 153.549 110.536C153.549 108.84 154.221 107.752 155.453 107.752C156.669 107.752 157.341 108.84 157.341 110.536C157.341 112.216 156.669 113.32 155.453 113.32ZM163.604 115.224C164.628 115.224 165.524 114.728 166.308 114.056H166.372L166.548 115H168.468V109.784C168.468 107.176 167.3 105.832 165.028 105.832C163.604 105.832 162.34 106.36 161.284 107L162.132 108.568C162.948 108.072 163.764 107.72 164.596 107.72C165.7 107.72 166.068 108.376 166.116 109.256C162.516 109.656 160.964 110.664 160.964 112.568C160.964 114.104 162.004 115.224 163.604 115.224ZM164.372 113.384C163.684 113.384 163.204 113.08 163.204 112.392C163.204 111.576 163.924 110.984 166.116 110.712V112.52C165.54 113.08 165.044 113.384 164.372 113.384ZM170.866 115H173.218V109.672C173.714 108.376 174.562 107.896 175.25 107.896C175.634 107.896 175.874 107.96 176.194 108.04L176.594 106.024C176.322 105.896 176.034 105.832 175.554 105.832C174.626 105.832 173.65 106.456 173.01 107.64H172.962L172.77 106.056H170.866V115ZM180.736 115.224C181.664 115.224 182.56 114.728 183.216 114.072H183.264L183.44 115H185.36V102.248H183.008V105.384L183.104 106.792C182.448 106.2 181.824 105.832 180.816 105.832C178.896 105.832 177.056 107.608 177.056 110.536C177.056 113.48 178.496 115.224 180.736 115.224ZM181.328 113.288C180.16 113.288 179.472 112.376 179.472 110.504C179.472 108.712 180.336 107.752 181.344 107.752C181.904 107.752 182.48 107.944 183.008 108.44V112.376C182.496 113.032 181.968 113.288 181.328 113.288ZM190.441 115.224C192.761 115.224 193.993 113.976 193.993 112.392C193.993 110.744 192.697 110.136 191.513 109.688C190.553 109.352 189.737 109.096 189.737 108.456C189.737 107.928 190.105 107.576 190.921 107.576C191.577 107.576 192.217 107.896 192.841 108.344L193.913 106.936C193.177 106.36 192.153 105.832 190.857 105.832C188.809 105.832 187.529 106.968 187.529 108.552C187.529 110.072 188.793 110.744 189.929 111.192C190.857 111.544 191.801 111.864 191.801 112.52C191.801 113.08 191.385 113.48 190.489 113.48C189.657 113.48 188.905 113.112 188.089 112.488L187.033 113.976C187.913 114.712 189.241 115.224 190.441 115.224Z" fill="#7EABCD"/>
<path d="M249.725 18H252.077V11.84C252.733 11.2 253.197 10.848 253.933 10.848C254.797 10.848 255.197 11.312 255.197 12.72V18H257.549V12.416C257.549 10.176 256.701 8.832 254.781 8.832C253.565 8.832 252.669 9.472 251.965 10.144L252.077 8.464V5.248H249.725V18ZM263.223 18.224C264.023 18.224 264.647 18.048 265.127 17.888L264.743 16.176C264.487 16.272 264.151 16.384 263.847 16.384C263.063 16.384 262.631 15.904 262.631 14.88V10.896H264.855V9.056H262.631V6.624H260.679L260.423 9.056L259.031 9.152V10.896H260.279V14.88C260.279 16.88 261.095 18.224 263.223 18.224ZM269.505 18.224C270.305 18.224 270.929 18.048 271.409 17.888L271.025 16.176C270.769 16.272 270.433 16.384 270.129 16.384C269.345 16.384 268.913 15.904 268.913 14.88V10.896H271.137V9.056H268.913V6.624H266.961L266.705 9.056L265.313 9.152V10.896H266.561V14.88C266.561 16.88 267.377 18.224 269.505 18.224ZM272.975 21.44H275.327V18.72L275.247 17.264C275.919 17.888 276.687 18.224 277.455 18.224C279.423 18.224 281.263 16.464 281.263 13.392C281.263 10.624 279.951 8.832 277.743 8.832C276.783 8.832 275.855 9.328 275.119 9.984H275.071L274.879 9.056H272.975V21.44ZM276.943 16.288C276.463 16.288 275.887 16.128 275.327 15.632V11.68C275.935 11.056 276.479 10.752 277.071 10.752C278.319 10.752 278.847 11.696 278.847 13.424C278.847 15.36 278.015 16.288 276.943 16.288ZM284.6 12.16C285.432 12.16 286.072 11.504 286.072 10.624C286.072 9.76 285.432 9.104 284.6 9.104C283.752 9.104 283.144 9.76 283.144 10.624C283.144 11.504 283.752 12.16 284.6 12.16ZM284.6 18.224C285.432 18.224 286.072 17.568 286.072 16.688C286.072 15.808 285.432 15.168 284.6 15.168C283.752 15.168 283.144 15.808 283.144 16.688C283.144 17.568 283.752 18.224 284.6 18.224ZM287.419 20.912H288.987L292.971 5.104H291.419L287.419 20.912ZM293.606 20.912H295.174L299.158 5.104H297.606L293.606 20.912ZM310.882 4.608V19.424H312.914V4.608H310.882ZM308.946 10.32V12.016H311.41V10.32H308.946ZM307.57 4.864V18.72H309.554V4.864H307.57ZM300.802 6.24V14.8H302.93V6.24H300.802ZM300.802 14V15.824H301.826C303.33 15.824 305.026 15.744 306.962 15.392L306.754 13.568C304.914 13.92 303.25 14 301.826 14H300.802ZM320.433 6.256V6.688C320.433 8.208 318.865 9.872 315.601 10.272L316.385 11.936C320.145 11.424 322.273 9.296 322.273 6.688V6.256H320.433ZM321.041 6.256V6.688C321.041 9.296 323.169 11.424 326.945 11.936L327.713 10.272C324.449 9.872 322.881 8.208 322.881 6.688V6.256H321.041ZM320.545 14V19.44H322.657V14H320.545ZM314.961 12.784V14.48H328.353V12.784H314.961ZM316.145 5.36V7.04H327.137V5.36H316.145ZM329.679 15.952V17.696H343.087V15.952H329.679ZM335.247 12.656V16.416H337.359V12.656H335.247ZM335.167 5.424V6.496C335.167 8.544 333.359 10.816 329.983 11.36L330.863 13.136C334.735 12.432 337.023 9.648 337.023 6.496V5.424H335.167ZM335.583 5.424V6.496C335.583 9.696 337.871 12.416 341.759 13.136L342.639 11.36C339.247 10.816 337.439 8.592 337.439 6.496V5.424H335.583ZM346.334 18.224C347.166 18.224 347.806 17.568 347.806 16.688C347.806 15.808 347.166 15.168 346.334 15.168C345.486 15.168 344.878 15.808 344.878 16.688C344.878 17.568 345.486 18.224 346.334 18.224ZM353.704 18.224C354.696 18.224 355.8 17.888 356.648 17.152L355.72 15.6C355.224 16 354.616 16.32 353.96 16.32C352.68 16.32 351.752 15.216 351.752 13.536C351.752 11.84 352.664 10.752 354.056 10.752C354.536 10.752 354.968 10.944 355.416 11.328L356.52 9.824C355.864 9.248 355.032 8.832 353.912 8.832C351.48 8.832 349.352 10.56 349.352 13.536C349.352 16.496 351.24 18.224 353.704 18.224ZM361.531 18.224C363.771 18.224 365.819 16.496 365.819 13.536C365.819 10.56 363.771 8.832 361.531 8.832C359.275 8.832 357.227 10.56 357.227 13.536C357.227 16.496 359.275 18.224 361.531 18.224ZM361.531 16.32C360.299 16.32 359.627 15.216 359.627 13.536C359.627 11.84 360.299 10.752 361.531 10.752C362.747 10.752 363.419 11.84 363.419 13.536C363.419 15.216 362.747 16.32 361.531 16.32ZM367.803 18H370.155V11.84C370.763 11.168 371.355 10.848 371.851 10.848C372.715 10.848 373.115 11.312 373.115 12.72V18H375.467V11.84C376.107 11.168 376.667 10.848 377.179 10.848C378.043 10.848 378.427 11.312 378.427 12.72V18H380.779V12.416C380.779 10.176 379.915 8.832 378.011 8.832C376.843 8.832 375.979 9.536 375.147 10.384C374.731 9.392 373.979 8.832 372.683 8.832C371.531 8.832 370.699 9.472 369.947 10.24H369.899L369.707 9.056H367.803V18ZM382.169 20.912H383.737L387.721 5.104H386.169L382.169 20.912ZM393.892 18.224C395.86 18.224 397.7 16.464 397.7 13.376C397.7 10.624 396.372 8.832 394.18 8.832C393.284 8.832 392.404 9.264 391.684 9.888L391.764 8.464V5.248H389.412V18H391.252L391.444 17.056H391.508C392.228 17.808 393.092 18.224 393.892 18.224ZM393.38 16.288C392.9 16.288 392.308 16.128 391.764 15.632V11.68C392.356 11.056 392.916 10.752 393.508 10.752C394.756 10.752 395.284 11.696 395.284 13.424C395.284 15.36 394.452 16.288 393.38 16.288ZM403.453 18.224C405.693 18.224 407.741 16.496 407.741 13.536C407.741 10.56 405.693 8.832 403.453 8.832C401.197 8.832 399.149 10.56 399.149 13.536C399.149 16.496 401.197 18.224 403.453 18.224ZM403.453 16.32C402.221 16.32 401.549 15.216 401.549 13.536C401.549 11.84 402.221 10.752 403.453 10.752C404.669 10.752 405.341 11.84 405.341 13.536C405.341 15.216 404.669 16.32 403.453 16.32ZM411.604 18.224C412.628 18.224 413.524 17.728 414.308 17.056H414.372L414.548 18H416.468V12.784C416.468 10.176 415.3 8.832 413.028 8.832C411.604 8.832 410.34 9.36 409.284 10L410.132 11.568C410.948 11.072 411.764 10.72 412.596 10.72C413.7 10.72 414.068 11.376 414.116 12.256C410.516 12.656 408.964 13.664 408.964 15.568C408.964 17.104 410.004 18.224 411.604 18.224ZM412.372 16.384C411.684 16.384 411.204 16.08 411.204 15.392C411.204 14.576 411.924 13.984 414.116 13.712V15.52C413.54 16.08 413.044 16.384 412.372 16.384ZM418.866 18H421.218V12.672C421.714 11.376 422.562 10.896 423.25 10.896C423.634 10.896 423.874 10.96 424.194 11.04L424.594 9.024C424.322 8.896 424.034 8.832 423.554 8.832C422.626 8.832 421.65 9.456 421.01 10.64H420.962L420.77 9.056H418.866V18ZM428.736 18.224C429.664 18.224 430.56 17.728 431.216 17.072H431.264L431.44 18H433.36V5.248H431.008V8.384L431.104 9.792C430.448 9.2 429.824 8.832 428.816 8.832C426.896 8.832 425.056 10.608 425.056 13.536C425.056 16.48 426.496 18.224 428.736 18.224ZM429.328 16.288C428.16 16.288 427.472 15.376 427.472 13.504C427.472 11.712 428.336 10.752 429.344 10.752C429.904 10.752 430.48 10.944 431.008 11.44V15.376C430.496 16.032 429.968 16.288 429.328 16.288ZM438.441 18.224C440.761 18.224 441.993 16.976 441.993 15.392C441.993 13.744 440.697 13.136 439.513 12.688C438.553 12.352 437.737 12.096 437.737 11.456C437.737 10.928 438.105 10.576 438.921 10.576C439.577 10.576 440.217 10.896 440.841 11.344L441.913 9.936C441.177 9.36 440.153 8.832 438.857 8.832C436.809 8.832 435.529 9.968 435.529 11.552C435.529 13.072 436.793 13.744 437.929 14.192C438.857 14.544 439.801 14.864 439.801 15.52C439.801 16.08 439.385 16.48 438.489 16.48C437.657 16.48 436.905 16.112 436.089 15.488L435.033 16.976C435.913 17.712 437.241 18.224 438.441 18.224Z" fill="#7EABCD"/>
<path d="M246.756 97H249.108V90.84C249.764 90.2 250.228 89.848 250.964 89.848C251.828 89.848 252.228 90.312 252.228 91.72V97H254.58V91.416C254.58 89.176 253.732 87.832 251.812 87.832C250.596 87.832 249.7 88.472 248.996 89.144L249.108 87.464V84.248H246.756V97ZM260.255 97.224C261.055 97.224 261.679 97.048 262.159 96.888L261.775 95.176C261.519 95.272 261.183 95.384 260.879 95.384C260.095 95.384 259.663 94.904 259.663 93.88V89.896H261.887V88.056H259.663V85.624H257.711L257.455 88.056L256.063 88.152V89.896H257.311V93.88C257.311 95.88 258.127 97.224 260.255 97.224ZM266.536 97.224C267.336 97.224 267.96 97.048 268.44 96.888L268.056 95.176C267.8 95.272 267.464 95.384 267.16 95.384C266.376 95.384 265.944 94.904 265.944 93.88V89.896H268.168V88.056H265.944V85.624H263.992L263.736 88.056L262.344 88.152V89.896H263.592V93.88C263.592 95.88 264.408 97.224 266.536 97.224ZM270.006 100.44H272.358V97.72L272.278 96.264C272.95 96.888 273.718 97.224 274.486 97.224C276.454 97.224 278.294 95.464 278.294 92.392C278.294 89.624 276.982 87.832 274.774 87.832C273.814 87.832 272.886 88.328 272.15 88.984H272.102L271.91 88.056H270.006V100.44ZM273.974 95.288C273.494 95.288 272.918 95.128 272.358 94.632V90.68C272.966 90.056 273.51 89.752 274.102 89.752C275.35 89.752 275.878 90.696 275.878 92.424C275.878 94.36 275.046 95.288 273.974 95.288ZM281.631 91.16C282.463 91.16 283.103 90.504 283.103 89.624C283.103 88.76 282.463 88.104 281.631 88.104C280.783 88.104 280.175 88.76 280.175 89.624C280.175 90.504 280.783 91.16 281.631 91.16ZM281.631 97.224C282.463 97.224 283.103 96.568 283.103 95.688C283.103 94.808 282.463 94.168 281.631 94.168C280.783 94.168 280.175 94.808 280.175 95.688C280.175 96.568 280.783 97.224 281.631 97.224ZM284.45 99.912H286.018L290.002 84.104H288.45L284.45 99.912ZM290.638 99.912H292.206L296.19 84.104H294.638L290.638 99.912ZM302.761 84.456V85.528C302.761 87.656 300.921 90.008 297.577 90.584L298.489 92.344C302.329 91.592 304.617 88.744 304.617 85.528V84.456H302.761ZM303.193 84.456V85.528C303.193 88.792 305.465 91.592 309.305 92.344L310.217 90.584C306.857 90.008 305.033 87.704 305.033 85.528V84.456H303.193ZM297.273 94.888V96.616H310.681V94.888H297.273ZM313.56 90.936V92.616H323.976V90.936H313.56ZM311.992 95.08V96.792H325.4V95.08H311.992ZM317.624 91.784V95.832H319.752V91.784H317.624ZM313.56 84.616V91.576H315.72V86.312H323.848V84.616H313.56ZM315.064 87.752V89.416H323.512V87.752H315.064ZM336.903 83.592V98.456H339.031V83.592H336.903ZM327.495 93.272V95H328.807C331.511 95 333.687 94.92 336.087 94.488L335.879 92.776C333.527 93.176 331.431 93.272 328.807 93.272H327.495ZM327.479 84.856V86.552H332.295V88.904H327.495V93.912H329.655V90.584H334.471V84.856H327.479ZM344.981 85.944V87.608C344.981 90.12 343.781 92.856 341.301 93.96L342.501 95.64C345.285 94.376 346.677 91.032 346.677 87.608V85.944H344.981ZM345.461 85.944V87.608C345.461 90.904 346.837 94.056 349.653 95.272L350.805 93.592C348.325 92.568 347.141 90.008 347.141 87.608V85.944H345.461ZM341.893 85.032V86.776H350.197V85.032H341.893ZM351.573 83.608V98.424H353.717V83.608H351.573ZM361.62 85.256V85.688C361.62 87.208 360.052 88.872 356.788 89.272L357.572 90.936C361.332 90.424 363.46 88.296 363.46 85.688V85.256H361.62ZM362.228 85.256V85.688C362.228 88.296 364.356 90.424 368.132 90.936L368.9 89.272C365.636 88.872 364.068 87.208 364.068 85.688V85.256H362.228ZM361.732 93V98.44H363.844V93H361.732ZM356.148 91.784V93.48H369.54V91.784H356.148ZM357.332 84.36V86.04H368.324V84.36H357.332ZM370.867 94.952V96.696H384.275V94.952H370.867ZM376.435 91.656V95.416H378.547V91.656H376.435ZM376.355 84.424V85.496C376.355 87.544 374.547 89.816 371.171 90.36L372.051 92.136C375.923 91.432 378.211 88.648 378.211 85.496V84.424H376.355ZM376.771 84.424V85.496C376.771 88.696 379.059 91.416 382.947 92.136L383.827 90.36C380.435 89.816 378.627 87.592 378.627 85.496V84.424H376.771ZM385.138 99.912H386.706L390.69 84.104H389.138L385.138 99.912ZM396.861 97.224C398.829 97.224 400.669 95.464 400.669 92.376C400.669 89.624 399.341 87.832 397.149 87.832C396.253 87.832 395.373 88.264 394.653 88.888L394.733 87.464V84.248H392.381V97H394.221L394.413 96.056H394.477C395.197 96.808 396.061 97.224 396.861 97.224ZM396.349 95.288C395.869 95.288 395.277 95.128 394.733 94.632V90.68C395.325 90.056 395.885 89.752 396.477 89.752C397.725 89.752 398.253 90.696 398.253 92.424C398.253 94.36 397.421 95.288 396.349 95.288ZM406.422 97.224C408.662 97.224 410.71 95.496 410.71 92.536C410.71 89.56 408.662 87.832 406.422 87.832C404.166 87.832 402.118 89.56 402.118 92.536C402.118 95.496 404.166 97.224 406.422 97.224ZM406.422 95.32C405.19 95.32 404.518 94.216 404.518 92.536C404.518 90.84 405.19 89.752 406.422 89.752C407.638 89.752 408.31 90.84 408.31 92.536C408.31 94.216 407.638 95.32 406.422 95.32ZM414.573 97.224C415.597 97.224 416.493 96.728 417.277 96.056H417.341L417.517 97H419.437V91.784C419.437 89.176 418.269 87.832 415.997 87.832C414.573 87.832 413.309 88.36 412.253 89L413.101 90.568C413.917 90.072 414.733 89.72 415.565 89.72C416.669 89.72 417.037 90.376 417.085 91.256C413.485 91.656 411.933 92.664 411.933 94.568C411.933 96.104 412.973 97.224 414.573 97.224ZM415.341 95.384C414.653 95.384 414.173 95.08 414.173 94.392C414.173 93.576 414.893 92.984 417.085 92.712V94.52C416.509 95.08 416.013 95.384 415.341 95.384ZM421.834 97H424.186V91.672C424.682 90.376 425.53 89.896 426.218 89.896C426.602 89.896 426.842 89.96 427.162 90.04L427.562 88.024C427.29 87.896 427.002 87.832 426.522 87.832C425.594 87.832 424.618 88.456 423.978 89.64H423.93L423.738 88.056H421.834V97ZM431.705 97.224C432.633 97.224 433.529 96.728 434.185 96.072H434.233L434.409 97H436.329V84.248H433.977V87.384L434.073 88.792C433.417 88.2 432.793 87.832 431.785 87.832C429.865 87.832 428.025 89.608 428.025 92.536C428.025 95.48 429.465 97.224 431.705 97.224ZM432.297 95.288C431.129 95.288 430.441 94.376 430.441 92.504C430.441 90.712 431.305 89.752 432.313 89.752C432.873 89.752 433.449 89.944 433.977 90.44V94.376C433.465 95.032 432.937 95.288 432.297 95.288ZM441.41 97.224C443.73 97.224 444.962 95.976 444.962 94.392C444.962 92.744 443.666 92.136 442.482 91.688C441.522 91.352 440.706 91.096 440.706 90.456C440.706 89.928 441.074 89.576 441.89 89.576C442.546 89.576 443.186 89.896 443.81 90.344L444.882 88.936C444.146 88.36 443.122 87.832 441.826 87.832C439.778 87.832 438.498 88.968 438.498 90.552C438.498 92.072 439.762 92.744 440.898 93.192C441.826 93.544 442.77 93.864 442.77 94.52C442.77 95.08 442.354 95.48 441.458 95.48C440.626 95.48 439.874 95.112 439.058 94.488L438.002 95.976C438.882 96.712 440.21 97.224 441.41 97.224Z" fill="#7EABCD"/>
<path d="M646.064 51.224C648.032 51.224 649.872 49.464 649.872 46.376C649.872 43.624 648.544 41.832 646.352 41.832C645.456 41.832 644.576 42.264 643.856 42.888L643.936 41.464V38.248H641.584V51H643.424L643.616 50.056H643.68C644.4 50.808 645.264 51.224 646.064 51.224ZM645.552 49.288C645.072 49.288 644.48 49.128 643.936 48.632V44.68C644.528 44.056 645.088 43.752 645.68 43.752C646.928 43.752 647.456 44.696 647.456 46.424C647.456 48.36 646.624 49.288 645.552 49.288ZM655.625 51.224C657.865 51.224 659.913 49.496 659.913 46.536C659.913 43.56 657.865 41.832 655.625 41.832C653.369 41.832 651.321 43.56 651.321 46.536C651.321 49.496 653.369 51.224 655.625 51.224ZM655.625 49.32C654.393 49.32 653.721 48.216 653.721 46.536C653.721 44.84 654.393 43.752 655.625 43.752C656.841 43.752 657.513 44.84 657.513 46.536C657.513 48.216 656.841 49.32 655.625 49.32ZM663.776 51.224C664.8 51.224 665.696 50.728 666.48 50.056H666.544L666.72 51H668.64V45.784C668.64 43.176 667.472 41.832 665.2 41.832C663.776 41.832 662.512 42.36 661.456 43L662.304 44.568C663.12 44.072 663.936 43.72 664.768 43.72C665.872 43.72 666.24 44.376 666.288 45.256C662.688 45.656 661.136 46.664 661.136 48.568C661.136 50.104 662.176 51.224 663.776 51.224ZM664.544 49.384C663.856 49.384 663.376 49.08 663.376 48.392C663.376 47.576 664.096 46.984 666.288 46.712V48.52C665.712 49.08 665.216 49.384 664.544 49.384ZM671.037 51H673.389V45.672C673.885 44.376 674.733 43.896 675.421 43.896C675.805 43.896 676.045 43.96 676.365 44.04L676.765 42.024C676.493 41.896 676.205 41.832 675.725 41.832C674.797 41.832 673.821 42.456 673.181 43.64H673.133L672.941 42.056H671.037V51ZM680.908 51.224C681.836 51.224 682.732 50.728 683.388 50.072H683.436L683.612 51H685.532V38.248H683.18V41.384L683.276 42.792C682.62 42.2 681.996 41.832 680.988 41.832C679.068 41.832 677.228 43.608 677.228 46.536C677.228 49.48 678.668 51.224 680.908 51.224ZM681.5 49.288C680.332 49.288 679.644 48.376 679.644 46.504C679.644 44.712 680.508 43.752 681.516 43.752C682.076 43.752 682.652 43.944 683.18 44.44V48.376C682.668 49.032 682.14 49.288 681.5 49.288ZM690.613 51.224C692.933 51.224 694.165 49.976 694.165 48.392C694.165 46.744 692.869 46.136 691.685 45.688C690.725 45.352 689.909 45.096 689.909 44.456C689.909 43.928 690.277 43.576 691.093 43.576C691.749 43.576 692.389 43.896 693.013 44.344L694.085 42.936C693.349 42.36 692.325 41.832 691.029 41.832C688.981 41.832 687.701 42.968 687.701 44.552C687.701 46.072 688.965 46.744 690.101 47.192C691.029 47.544 691.973 47.864 691.973 48.52C691.973 49.08 691.557 49.48 690.661 49.48C689.829 49.48 689.077 49.112 688.261 48.488L687.205 49.976C688.085 50.712 689.413 51.224 690.613 51.224ZM694.919 53.912H696.487L700.471 38.104H698.919L694.919 53.912ZM702.303 51H704.655V42.056H702.303V51ZM703.471 40.6C704.287 40.6 704.847 40.088 704.847 39.304C704.847 38.536 704.287 38.04 703.471 38.04C702.655 38.04 702.111 38.536 702.111 39.304C702.111 40.088 702.655 40.6 703.471 40.6ZM707.162 51H709.514V44.84C710.17 44.2 710.634 43.848 711.37 43.848C712.234 43.848 712.634 44.312 712.634 45.72V51H714.986V45.416C714.986 43.176 714.138 41.832 712.218 41.832C711.002 41.832 710.074 42.472 709.306 43.24H709.258L709.066 42.056H707.162V51ZM720.564 51.224C721.492 51.224 722.388 50.728 723.044 50.072H723.092L723.268 51H725.188V38.248H722.836V41.384L722.932 42.792C722.276 42.2 721.652 41.832 720.644 41.832C718.724 41.832 716.884 43.608 716.884 46.536C716.884 49.48 718.324 51.224 720.564 51.224ZM721.156 49.288C719.988 49.288 719.3 48.376 719.3 46.504C719.3 44.712 720.164 43.752 721.172 43.752C721.732 43.752 722.308 43.944 722.836 44.44V48.376C722.324 49.032 721.796 49.288 721.156 49.288ZM731.613 51.224C732.717 51.224 733.837 50.856 734.717 50.248L733.933 48.792C733.277 49.192 732.637 49.416 731.917 49.416C730.589 49.416 729.629 48.664 729.421 47.192H734.957C735.005 46.968 735.053 46.552 735.053 46.104C735.053 43.624 733.789 41.832 731.309 41.832C729.197 41.832 727.149 43.624 727.149 46.536C727.149 49.496 729.101 51.224 731.613 51.224ZM729.389 45.624C729.581 44.312 730.413 43.64 731.357 43.64C732.509 43.64 733.053 44.408 733.053 45.624H729.389ZM735.638 51H738.086L738.902 49.352C739.158 48.824 739.398 48.296 739.654 47.8H739.734C740.038 48.296 740.326 48.84 740.614 49.352L741.606 51H744.134L741.318 46.6L743.942 42.056H741.51L740.774 43.624C740.55 44.152 740.326 44.648 740.118 45.16H740.038C739.766 44.648 739.494 44.152 739.254 43.624L738.342 42.056H735.83L738.454 46.344L735.638 51ZM746.631 51.224C747.463 51.224 748.103 50.568 748.103 49.688C748.103 48.808 747.463 48.168 746.631 48.168C745.783 48.168 745.175 48.808 745.175 49.688C745.175 50.568 745.783 51.224 746.631 51.224ZM750.506 51H752.858V44.84C753.514 44.2 753.978 43.848 754.714 43.848C755.578 43.848 755.978 44.312 755.978 45.72V51H758.33V45.416C758.33 43.176 757.482 41.832 755.562 41.832C754.346 41.832 753.45 42.472 752.746 43.144L752.858 41.464V38.248H750.506V51ZM764.005 51.224C764.805 51.224 765.429 51.048 765.909 50.888L765.525 49.176C765.269 49.272 764.933 49.384 764.629 49.384C763.845 49.384 763.413 48.904 763.413 47.88V43.896H765.637V42.056H763.413V39.624H761.461L761.205 42.056L759.813 42.152V43.896H761.061V47.88C761.061 49.88 761.877 51.224 764.005 51.224ZM767.475 51H769.827V44.84C770.435 44.168 771.027 43.848 771.523 43.848C772.387 43.848 772.787 44.312 772.787 45.72V51H775.139V44.84C775.779 44.168 776.339 43.848 776.851 43.848C777.715 43.848 778.099 44.312 778.099 45.72V51H780.451V45.416C780.451 43.176 779.587 41.832 777.683 41.832C776.515 41.832 775.651 42.536 774.819 43.384C774.403 42.392 773.651 41.832 772.355 41.832C771.203 41.832 770.371 42.472 769.619 43.24H769.571L769.379 42.056H767.475V51ZM785.105 51.224C785.665 51.224 786.033 51.128 786.305 51.032L786.017 49.288C785.857 49.32 785.793 49.32 785.713 49.32C785.489 49.32 785.249 49.144 785.249 48.584V38.248H782.897V48.488C782.897 50.152 783.457 51.224 785.105 51.224Z" fill="#7EABCD"/>
<path d="M738.049 162.224C740.017 162.224 741.857 160.464 741.857 157.376C741.857 154.624 740.529 152.832 738.337 152.832C737.441 152.832 736.561 153.264 735.841 153.888L735.921 152.464V149.248H733.569V162H735.409L735.601 161.056H735.665C736.385 161.808 737.249 162.224 738.049 162.224ZM737.537 160.288C737.057 160.288 736.465 160.128 735.921 159.632V155.68C736.513 155.056 737.073 154.752 737.665 154.752C738.913 154.752 739.441 155.696 739.441 157.424C739.441 159.36 738.609 160.288 737.537 160.288ZM747.61 162.224C749.85 162.224 751.898 160.496 751.898 157.536C751.898 154.56 749.85 152.832 747.61 152.832C745.354 152.832 743.306 154.56 743.306 157.536C743.306 160.496 745.354 162.224 747.61 162.224ZM747.61 160.32C746.378 160.32 745.706 159.216 745.706 157.536C745.706 155.84 746.378 154.752 747.61 154.752C748.826 154.752 749.498 155.84 749.498 157.536C749.498 159.216 748.826 160.32 747.61 160.32ZM755.761 162.224C756.785 162.224 757.681 161.728 758.465 161.056H758.529L758.705 162H760.625V156.784C760.625 154.176 759.457 152.832 757.185 152.832C755.761 152.832 754.497 153.36 753.441 154L754.289 155.568C755.105 155.072 755.921 154.72 756.753 154.72C757.857 154.72 758.225 155.376 758.273 156.256C754.673 156.656 753.121 157.664 753.121 159.568C753.121 161.104 754.161 162.224 755.761 162.224ZM756.529 160.384C755.841 160.384 755.361 160.08 755.361 159.392C755.361 158.576 756.081 157.984 758.273 157.712V159.52C757.697 160.08 757.201 160.384 756.529 160.384ZM763.022 162H765.374V156.672C765.87 155.376 766.718 154.896 767.406 154.896C767.79 154.896 768.03 154.96 768.35 155.04L768.75 153.024C768.478 152.896 768.19 152.832 767.71 152.832C766.782 152.832 765.806 153.456 765.166 154.64H765.118L764.926 153.056H763.022V162ZM772.893 162.224C773.821 162.224 774.717 161.728 775.373 161.072H775.421L775.597 162H777.517V149.248H775.165V152.384L775.261 153.792C774.605 153.2 773.981 152.832 772.973 152.832C771.053 152.832 769.213 154.608 769.213 157.536C769.213 160.48 770.653 162.224 772.893 162.224ZM773.485 160.288C772.317 160.288 771.629 159.376 771.629 157.504C771.629 155.712 772.493 154.752 773.501 154.752C774.061 154.752 774.637 154.944 775.165 155.44V159.376C774.653 160.032 774.125 160.288 773.485 160.288ZM782.597 162.224C784.917 162.224 786.149 160.976 786.149 159.392C786.149 157.744 784.853 157.136 783.669 156.688C782.709 156.352 781.893 156.096 781.893 155.456C781.893 154.928 782.261 154.576 783.077 154.576C783.733 154.576 784.373 154.896 784.997 155.344L786.069 153.936C785.333 153.36 784.309 152.832 783.013 152.832C780.965 152.832 779.685 153.968 779.685 155.552C779.685 157.072 780.949 157.744 782.085 158.192C783.013 158.544 783.957 158.864 783.957 159.52C783.957 160.08 783.541 160.48 782.645 160.48C781.813 160.48 781.061 160.112 780.245 159.488L779.189 160.976C780.069 161.712 781.397 162.224 782.597 162.224Z" fill="#82CAC1"/>
<path d="M343.939 61.0607C344.525 61.6464 345.475 61.6464 346.061 61.0607L355.607 51.5147C356.192 50.9289 356.192 49.9792 355.607 49.3934C355.021 48.8076 354.071 48.8076 353.485 49.3934L345 57.8787L336.515 49.3934C335.929 48.8076 334.979 48.8076 334.393 49.3934C333.808 49.9792 333.808 50.9289 334.393 51.5147L343.939 61.0607ZM343.5 38V60H346.5V38H343.5Z" fill="#5793BF"/>
</svg>
