<svg width="578" height="190" viewBox="0 0 578 190" fill="none" xmlns="http://www.w3.org/2000/svg">
<rect y="72" width="110" height="86" fill="#82CAC1"/>
<path d="M26.3299 123.224C28.2979 123.224 30.1379 121.464 30.1379 118.376C30.1379 115.624 28.8099 113.832 26.6179 113.832C25.7219 113.832 24.8419 114.264 24.1219 114.888L24.2019 113.464V110.248H21.8499V123H23.6899L23.8819 122.056H23.9459C24.6659 122.808 25.5299 123.224 26.3299 123.224ZM25.8179 121.288C25.3379 121.288 24.7459 121.128 24.2019 120.632V116.68C24.7939 116.056 25.3539 115.752 25.9459 115.752C27.1939 115.752 27.7219 116.696 27.7219 118.424C27.7219 120.36 26.8899 121.288 25.8179 121.288ZM32.1468 123H34.4988V117.672C34.9948 116.376 35.8428 115.896 36.5308 115.896C36.9148 115.896 37.1548 115.96 37.4748 116.04L37.8748 114.024C37.6028 113.896 37.3148 113.832 36.8348 113.832C35.9068 113.832 34.9308 114.456 34.2908 115.64H34.2428L34.0508 114.056H32.1468V123ZM42.6096 123.224C44.8496 123.224 46.8976 121.496 46.8976 118.536C46.8976 115.56 44.8496 113.832 42.6096 113.832C40.3536 113.832 38.3056 115.56 38.3056 118.536C38.3056 121.496 40.3536 123.224 42.6096 123.224ZM42.6096 121.32C41.3776 121.32 40.7056 120.216 40.7056 118.536C40.7056 116.84 41.3776 115.752 42.6096 115.752C43.8256 115.752 44.4976 116.84 44.4976 118.536C44.4976 120.216 43.8256 121.32 42.6096 121.32ZM50.1344 123H52.8224L53.7344 119.112C53.9264 118.264 54.0704 117.448 54.2304 116.488H54.3104C54.4864 117.448 54.6304 118.264 54.8224 119.096L55.7664 123H58.5344L60.7584 114.056H58.5664L57.6064 118.472C57.4304 119.352 57.3184 120.2 57.1584 121.08H57.0784C56.8864 120.2 56.7104 119.352 56.5024 118.472L55.3824 114.056H53.3024L52.2144 118.472C51.9904 119.336 51.8304 120.2 51.6704 121.08H51.5904C51.4304 120.2 51.3184 119.352 51.1584 118.472L50.1664 114.056H47.8304L50.1344 123ZM65.0349 123.224C67.3549 123.224 68.5869 121.976 68.5869 120.392C68.5869 118.744 67.2909 118.136 66.1069 117.688C65.1469 117.352 64.3309 117.096 64.3309 116.456C64.3309 115.928 64.6989 115.576 65.5149 115.576C66.1709 115.576 66.8109 115.896 67.4349 116.344L68.5069 114.936C67.7709 114.36 66.7469 113.832 65.4509 113.832C63.4029 113.832 62.1229 114.968 62.1229 116.552C62.1229 118.072 63.3869 118.744 64.5229 119.192C65.4509 119.544 66.3949 119.864 66.3949 120.52C66.3949 121.08 65.9789 121.48 65.0829 121.48C64.2509 121.48 63.4989 121.112 62.6829 120.488L61.6269 121.976C62.5069 122.712 63.8349 123.224 65.0349 123.224ZM74.3008 123.224C75.4048 123.224 76.5248 122.856 77.4048 122.248L76.6208 120.792C75.9648 121.192 75.3248 121.416 74.6048 121.416C73.2768 121.416 72.3168 120.664 72.1088 119.192H77.6448C77.6928 118.968 77.7408 118.552 77.7408 118.104C77.7408 115.624 76.4768 113.832 73.9968 113.832C71.8848 113.832 69.8368 115.624 69.8368 118.536C69.8368 121.496 71.7888 123.224 74.3008 123.224ZM72.0768 117.624C72.2688 116.312 73.1008 115.64 74.0448 115.64C75.1968 115.64 75.7408 116.408 75.7408 117.624H72.0768ZM79.6937 123H82.0457V117.672C82.5417 116.376 83.3897 115.896 84.0777 115.896C84.4617 115.896 84.7017 115.96 85.0217 116.04L85.4217 114.024C85.1497 113.896 84.8617 113.832 84.3817 113.832C83.4537 113.832 82.4777 114.456 81.8377 115.64H81.7897L81.5977 114.056H79.6937V123Z" fill="white"/>
<path fill-rule="evenodd" clip-rule="evenodd" d="M224 120.444L125.009 121L125 116.556L223.991 116L224 120.444Z" fill="#5793BF"/>
<path fill-rule="evenodd" clip-rule="evenodd" d="M460.938 0C489.51 0 513.65 17.337 521.445 41.1258C553.223 44.1397 578 68.6852 578 98.5185C578 123.866 560.114 145.396 535.244 153.146C526.096 174.71 503.173 190 476.341 190C456.842 190 439.407 181.925 427.822 169.235C416.238 181.925 398.803 190 379.303 190C360.796 190 344.148 182.725 332.597 171.135C327.354 172.424 321.841 173.111 316.152 173.111C281.274 173.111 253 147.276 253 115.407C253 89.3952 271.837 67.4031 297.726 60.1984C297.688 59.3712 297.668 58.5395 297.668 57.7037C297.668 25.8348 325.942 0 360.82 0C381.204 0 399.332 8.82459 410.879 22.5209C422.426 8.82459 440.554 0 460.938 0Z" fill="#82CAC1"/>
<path d="M383.453 55.224C386.173 55.224 387.789 53.576 387.789 51.64C387.789 49.944 386.845 49.016 385.421 48.424L383.869 47.784C382.861 47.384 382.013 47.064 382.013 46.216C382.013 45.448 382.669 44.984 383.709 44.984C384.685 44.984 385.469 45.336 386.237 45.96L387.421 44.472C386.461 43.496 385.085 42.952 383.709 42.952C381.325 42.952 379.613 44.44 379.613 46.376C379.613 48.088 380.829 49.064 382.013 49.544L383.597 50.216C384.653 50.664 385.373 50.952 385.373 51.832C385.373 52.648 384.733 53.176 383.501 53.176C382.461 53.176 381.325 52.664 380.493 51.88L379.133 53.512C380.285 54.616 381.853 55.224 383.453 55.224ZM392.395 55.224C393.195 55.224 393.819 55.048 394.299 54.888L393.915 53.176C393.659 53.272 393.323 53.384 393.019 53.384C392.235 53.384 391.803 52.904 391.803 51.88V47.896H394.027V46.056H391.803V43.624H389.851L389.595 46.056L388.203 46.152V47.896H389.451V51.88C389.451 53.88 390.267 55.224 392.395 55.224ZM399.219 55.224C401.459 55.224 403.507 53.496 403.507 50.536C403.507 47.56 401.459 45.832 399.219 45.832C396.963 45.832 394.915 47.56 394.915 50.536C394.915 53.496 396.963 55.224 399.219 55.224ZM399.219 53.32C397.987 53.32 397.315 52.216 397.315 50.536C397.315 48.84 397.987 47.752 399.219 47.752C400.435 47.752 401.107 48.84 401.107 50.536C401.107 52.216 400.435 53.32 399.219 53.32ZM405.491 55H407.843V49.672C408.339 48.376 409.187 47.896 409.875 47.896C410.259 47.896 410.499 47.96 410.819 48.04L411.219 46.024C410.947 45.896 410.659 45.832 410.179 45.832C409.251 45.832 408.275 46.456 407.635 47.64H407.587L407.395 46.056H405.491V55ZM414.089 55.224C415.113 55.224 416.009 54.728 416.793 54.056H416.857L417.033 55H418.953V49.784C418.953 47.176 417.785 45.832 415.513 45.832C414.089 45.832 412.825 46.36 411.769 47L412.617 48.568C413.433 48.072 414.249 47.72 415.081 47.72C416.185 47.72 416.553 48.376 416.601 49.256C413.001 49.656 411.449 50.664 411.449 52.568C411.449 54.104 412.489 55.224 414.089 55.224ZM414.857 53.384C414.169 53.384 413.689 53.08 413.689 52.392C413.689 51.576 414.409 50.984 416.601 50.712V52.52C416.025 53.08 415.529 53.384 414.857 53.384ZM424.486 58.888C427.478 58.888 429.382 57.528 429.382 55.72C429.382 54.136 428.198 53.48 426.038 53.48H424.502C423.462 53.48 423.094 53.208 423.094 52.744C423.094 52.376 423.238 52.184 423.478 51.96C423.878 52.104 424.278 52.168 424.63 52.168C426.566 52.168 428.102 51.16 428.102 49.128C428.102 48.584 427.926 48.088 427.686 47.784H429.222V46.056H425.99C425.622 45.912 425.142 45.832 424.63 45.832C422.742 45.832 421.014 46.952 421.014 49.064C421.014 50.12 421.606 50.968 422.23 51.416V51.48C421.67 51.864 421.222 52.472 421.222 53.144C421.222 53.88 421.574 54.36 422.038 54.664V54.744C421.206 55.192 420.758 55.848 420.758 56.6C420.758 58.168 422.39 58.888 424.486 58.888ZM424.63 50.728C423.846 50.728 423.222 50.12 423.222 49.064C423.222 48.008 423.846 47.432 424.63 47.432C425.43 47.432 426.038 48.008 426.038 49.064C426.038 50.12 425.414 50.728 424.63 50.728ZM424.854 57.4C423.542 57.4 422.71 56.984 422.71 56.232C422.71 55.864 422.886 55.512 423.302 55.176C423.622 55.272 423.99 55.304 424.534 55.304H425.622C426.582 55.304 427.11 55.48 427.11 56.12C427.11 56.808 426.198 57.4 424.854 57.4ZM434.41 55.224C435.514 55.224 436.634 54.856 437.514 54.248L436.73 52.792C436.074 53.192 435.434 53.416 434.714 53.416C433.386 53.416 432.426 52.664 432.218 51.192H437.754C437.802 50.968 437.85 50.552 437.85 50.104C437.85 47.624 436.586 45.832 434.106 45.832C431.994 45.832 429.946 47.624 429.946 50.536C429.946 53.496 431.898 55.224 434.41 55.224ZM432.186 49.624C432.378 48.312 433.21 47.64 434.154 47.64C435.306 47.64 435.85 48.408 435.85 49.624H432.186Z" fill="white"/>
<rect x="332" y="101" width="55" height="45" fill="white"/>
<path d="M342.806 115.162L344.052 113.748L345.284 115.162L346.166 114.518L345.214 112.922L346.894 112.166L346.558 111.13L344.78 111.536L344.598 109.688H343.492L343.31 111.536L341.532 111.13L341.196 112.166L342.848 112.922L341.924 114.518L342.806 115.162ZM349.873 121.196C350.601 121.196 351.161 120.622 351.161 119.852C351.161 119.082 350.601 118.522 349.873 118.522C349.131 118.522 348.599 119.082 348.599 119.852C348.599 120.622 349.131 121.196 349.873 121.196ZM353.264 124.01H355.322V121.63L355.252 120.356C355.84 120.902 356.512 121.196 357.184 121.196C358.906 121.196 360.516 119.656 360.516 116.968C360.516 114.546 359.368 112.978 357.436 112.978C356.596 112.978 355.784 113.412 355.14 113.986H355.098L354.93 113.174H353.264V124.01ZM356.736 119.502C356.316 119.502 355.812 119.362 355.322 118.928V115.47C355.854 114.924 356.33 114.658 356.848 114.658C357.94 114.658 358.402 115.484 358.402 116.996C358.402 118.69 357.674 119.502 356.736 119.502ZM362.274 121H364.332V115.61C364.906 115.05 365.312 114.742 365.956 114.742C366.712 114.742 367.062 115.148 367.062 116.38V121H369.12V116.114C369.12 114.154 368.378 112.978 366.698 112.978C365.634 112.978 364.822 113.538 364.15 114.21H364.108L363.94 113.174H362.274V121ZM373.987 124.402C376.605 124.402 378.271 123.212 378.271 121.63C378.271 120.244 377.235 119.67 375.345 119.67H374.001C373.091 119.67 372.769 119.432 372.769 119.026C372.769 118.704 372.895 118.536 373.105 118.34C373.455 118.466 373.805 118.522 374.113 118.522C375.807 118.522 377.151 117.64 377.151 115.862C377.151 115.386 376.997 114.952 376.787 114.686H378.131V113.174H375.303C374.981 113.048 374.561 112.978 374.113 112.978C372.461 112.978 370.949 113.958 370.949 115.806C370.949 116.73 371.467 117.472 372.013 117.864V117.92C371.523 118.256 371.131 118.788 371.131 119.376C371.131 120.02 371.439 120.44 371.845 120.706V120.776C371.117 121.168 370.725 121.742 370.725 122.4C370.725 123.772 372.153 124.402 373.987 124.402ZM374.113 117.262C373.427 117.262 372.881 116.73 372.881 115.806C372.881 114.882 373.427 114.378 374.113 114.378C374.813 114.378 375.345 114.882 375.345 115.806C375.345 116.73 374.799 117.262 374.113 117.262ZM374.309 123.1C373.161 123.1 372.433 122.736 372.433 122.078C372.433 121.756 372.587 121.448 372.951 121.154C373.231 121.238 373.553 121.266 374.029 121.266H374.981C375.821 121.266 376.283 121.42 376.283 121.98C376.283 122.582 375.485 123.1 374.309 123.1Z" fill="#5793BF"/>
<rect x="409" y="71" width="110" height="75" fill="white"/>
<path d="M424.274 121H426.332V115.61C426.906 115.05 427.312 114.742 427.956 114.742C428.712 114.742 429.062 115.148 429.062 116.38V121H431.12V116.114C431.12 114.154 430.378 112.978 428.698 112.978C427.634 112.978 426.85 113.538 426.234 114.126L426.332 112.656V109.842H424.274V121ZM436.085 121.196C436.785 121.196 437.331 121.042 437.751 120.902L437.415 119.404C437.191 119.488 436.897 119.586 436.631 119.586C435.945 119.586 435.567 119.166 435.567 118.27V114.784H437.513V113.174H435.567V111.046H433.859L433.635 113.174L432.417 113.258V114.784H433.509V118.27C433.509 120.02 434.223 121.196 436.085 121.196ZM439.122 121H441.18V115.61C441.712 115.022 442.23 114.742 442.664 114.742C443.42 114.742 443.77 115.148 443.77 116.38V121H445.828V115.61C446.388 115.022 446.878 114.742 447.326 114.742C448.082 114.742 448.418 115.148 448.418 116.38V121H450.476V116.114C450.476 114.154 449.72 112.978 448.054 112.978C447.032 112.978 446.276 113.594 445.548 114.336C445.184 113.468 444.526 112.978 443.392 112.978C442.384 112.978 441.656 113.538 440.998 114.21H440.956L440.788 113.174H439.122V121ZM454.548 121.196C455.038 121.196 455.36 121.112 455.598 121.028L455.346 119.502C455.206 119.53 455.15 119.53 455.08 119.53C454.884 119.53 454.674 119.376 454.674 118.886V109.842H452.616V118.802C452.616 120.258 453.106 121.196 454.548 121.196ZM457.088 123.996C458.796 123.436 459.734 122.19 459.734 120.538C459.734 119.278 459.202 118.522 458.264 118.522C457.522 118.522 456.92 118.998 456.92 119.74C456.92 120.51 457.536 120.958 458.208 120.958C458.516 120.958 458.796 120.86 459.006 120.65L458.278 119.446L458.348 120.902C458.362 121.728 457.76 122.47 456.668 122.876L457.088 123.996ZM468.074 121.196C468.942 121.196 469.908 120.902 470.65 120.258L469.838 118.9C469.404 119.25 468.872 119.53 468.298 119.53C467.178 119.53 466.366 118.564 466.366 117.094C466.366 115.61 467.164 114.658 468.382 114.658C468.802 114.658 469.18 114.826 469.572 115.162L470.538 113.846C469.964 113.342 469.236 112.978 468.256 112.978C466.128 112.978 464.266 114.49 464.266 117.094C464.266 119.684 465.918 121.196 468.074 121.196ZM474.379 121.196C476.409 121.196 477.487 120.104 477.487 118.718C477.487 117.276 476.353 116.744 475.317 116.352C474.477 116.058 473.763 115.834 473.763 115.274C473.763 114.812 474.085 114.504 474.799 114.504C475.373 114.504 475.933 114.784 476.479 115.176L477.417 113.944C476.773 113.44 475.877 112.978 474.743 112.978C472.951 112.978 471.831 113.972 471.831 115.358C471.831 116.688 472.937 117.276 473.931 117.668C474.743 117.976 475.569 118.256 475.569 118.83C475.569 119.32 475.205 119.67 474.421 119.67C473.693 119.67 473.035 119.348 472.321 118.802L471.397 120.104C472.167 120.748 473.329 121.196 474.379 121.196ZM481.311 121.196C483.341 121.196 484.419 120.104 484.419 118.718C484.419 117.276 483.285 116.744 482.249 116.352C481.409 116.058 480.695 115.834 480.695 115.274C480.695 114.812 481.017 114.504 481.731 114.504C482.305 114.504 482.865 114.784 483.411 115.176L484.349 113.944C483.705 113.44 482.809 112.978 481.675 112.978C479.883 112.978 478.763 113.972 478.763 115.358C478.763 116.688 479.869 117.276 480.863 117.668C481.675 117.976 482.501 118.256 482.501 118.83C482.501 119.32 482.137 119.67 481.353 119.67C480.625 119.67 479.967 119.348 479.253 118.802L478.329 120.104C479.099 120.748 480.261 121.196 481.311 121.196ZM486.058 123.996C487.766 123.436 488.704 122.19 488.704 120.538C488.704 119.278 488.172 118.522 487.234 118.522C486.492 118.522 485.89 118.998 485.89 119.74C485.89 120.51 486.506 120.958 487.178 120.958C487.486 120.958 487.766 120.86 487.976 120.65L487.248 119.446L487.318 120.902C487.332 121.728 486.73 122.47 485.638 122.876L486.058 123.996ZM493.167 124.206C495.141 124.206 495.799 122.89 495.799 121.21V113.174H493.741V121.252C493.741 122.148 493.531 122.596 492.873 122.596C492.649 122.596 492.425 122.54 492.229 122.47L491.851 123.996C492.159 124.108 492.565 124.206 493.167 124.206ZM494.763 111.9C495.463 111.9 495.967 111.452 495.967 110.766C495.967 110.094 495.463 109.66 494.763 109.66C494.063 109.66 493.573 110.094 493.573 110.766C493.573 111.452 494.063 111.9 494.763 111.9ZM500.246 121.196C502.276 121.196 503.354 120.104 503.354 118.718C503.354 117.276 502.22 116.744 501.184 116.352C500.344 116.058 499.63 115.834 499.63 115.274C499.63 114.812 499.952 114.504 500.666 114.504C501.24 114.504 501.8 114.784 502.346 115.176L503.284 113.944C502.64 113.44 501.744 112.978 500.61 112.978C498.818 112.978 497.698 113.972 497.698 115.358C497.698 116.688 498.804 117.276 499.798 117.668C500.61 117.976 501.436 118.256 501.436 118.83C501.436 119.32 501.072 119.67 500.288 119.67C499.56 119.67 498.902 119.348 498.188 118.802L497.264 120.104C498.034 120.748 499.196 121.196 500.246 121.196Z" fill="#5793BF"/>
<path d="M427.894 100.15C429.658 100.15 430.498 99.086 431.184 97.252L433.97 89.174H431.996L430.904 92.8C430.722 93.542 430.526 94.284 430.358 95.026H430.288C430.05 94.27 429.854 93.514 429.616 92.8L428.384 89.174H426.298L429.35 96.86L429.224 97.322C428.986 98.022 428.538 98.526 427.754 98.526C427.558 98.526 427.348 98.456 427.208 98.414L426.83 99.996C427.124 100.094 427.446 100.15 427.894 100.15ZM436.783 97.196C437.679 97.196 438.463 96.762 439.149 96.174H439.205L439.359 97H441.039V92.436C441.039 90.154 440.017 88.978 438.029 88.978C436.783 88.978 435.677 89.44 434.753 90L435.495 91.372C436.209 90.938 436.923 90.63 437.651 90.63C438.617 90.63 438.939 91.204 438.981 91.974C435.831 92.324 434.473 93.206 434.473 94.872C434.473 96.216 435.383 97.196 436.783 97.196ZM437.455 95.586C436.853 95.586 436.433 95.32 436.433 94.718C436.433 94.004 437.063 93.486 438.981 93.248V94.83C438.477 95.32 438.043 95.586 437.455 95.586ZM443.136 97H445.194V92.338C445.628 91.204 446.37 90.784 446.972 90.784C447.308 90.784 447.518 90.84 447.798 90.91L448.148 89.146C447.91 89.034 447.658 88.978 447.238 88.978C446.426 88.978 445.572 89.524 445.012 90.56H444.97L444.802 89.174H443.136V97ZM449.248 97H451.306V91.61C451.88 91.05 452.286 90.742 452.93 90.742C453.686 90.742 454.036 91.148 454.036 92.38V97H456.094V92.114C456.094 90.154 455.352 88.978 453.672 88.978C452.608 88.978 451.796 89.538 451.124 90.21H451.082L450.914 89.174H449.248V97ZM465.308 97.196C467.03 97.196 468.64 95.656 468.64 92.954C468.64 90.546 467.478 88.978 465.56 88.978C464.776 88.978 464.006 89.356 463.376 89.902L463.446 88.656V85.842H461.388V97H462.998L463.166 96.174H463.222C463.852 96.832 464.608 97.196 465.308 97.196ZM464.86 95.502C464.44 95.502 463.922 95.362 463.446 94.928V91.47C463.964 90.924 464.454 90.658 464.972 90.658C466.064 90.658 466.526 91.484 466.526 92.996C466.526 94.69 465.798 95.502 464.86 95.502ZM472.736 97.196C473.8 97.196 474.542 96.678 475.228 95.88H475.27L475.424 97H477.104V89.174H475.06V94.452C474.528 95.152 474.108 95.432 473.464 95.432C472.694 95.432 472.358 95.012 472.358 93.808V89.174H470.3V94.06C470.3 96.034 471.042 97.196 472.736 97.196ZM479.312 97H481.37V89.174H479.312V97ZM480.334 87.9C481.048 87.9 481.538 87.452 481.538 86.766C481.538 86.094 481.048 85.66 480.334 85.66C479.62 85.66 479.144 86.094 479.144 86.766C479.144 87.452 479.62 87.9 480.334 87.9ZM485.496 97.196C485.986 97.196 486.308 97.112 486.546 97.028L486.294 95.502C486.154 95.53 486.098 95.53 486.028 95.53C485.832 95.53 485.622 95.376 485.622 94.886V85.842H483.564V94.802C483.564 96.258 484.054 97.196 485.496 97.196ZM490.738 97.196C491.55 97.196 492.334 96.762 492.908 96.188H492.95L493.104 97H494.784V85.842H492.726V88.586L492.81 89.818C492.236 89.3 491.69 88.978 490.808 88.978C489.128 88.978 487.518 90.532 487.518 93.094C487.518 95.67 488.778 97.196 490.738 97.196ZM491.256 95.502C490.234 95.502 489.632 94.704 489.632 93.066C489.632 91.498 490.388 90.658 491.27 90.658C491.76 90.658 492.264 90.826 492.726 91.26V94.704C492.278 95.278 491.816 95.502 491.256 95.502Z" fill="#82CAC1"/>
</svg>
