<svg width="1624" height="1124" viewBox="0 0 1624 1124" fill="none" xmlns="http://www.w3.org/2000/svg">
<rect width="1624" height="1124" rx="32" fill="#F5F5F5"/>
<line x1="75" y1="123.5" x2="1554" y2="123.5" stroke="#898989" stroke-opacity="0.3"/>
<line x1="94" y1="1039.5" x2="1536" y2="1039.5" stroke="#898989" stroke-opacity="0.3"/>
<path d="M73.628 67.4002H84.5799V97H91.9305V67.4002H102.882V61.2829H73.628V67.4002ZM108.556 107.064C114.204 107.039 117.14 104.277 118.669 99.96L129.128 70.2122H121.382L115.709 89.9454H115.413L109.789 70.2122H102.142L111.762 97.74L111.318 98.8747C110.43 101.193 109.271 101.341 107.816 101.341C106.903 101.341 105.793 101.317 104.856 101.243V106.916C105.793 107.015 107.125 107.039 108.556 107.064ZM132.68 107.064H139.981V92.708H140.178C141.214 94.928 143.459 97.444 147.825 97.444C153.942 97.444 158.703 92.5847 158.678 83.6308C158.703 74.4548 153.745 69.8668 147.825 69.8668C143.311 69.8668 141.19 72.5308 140.178 74.7015H139.882V70.2122H132.68V107.064ZM139.833 83.5814C139.808 78.7715 141.856 75.6881 145.506 75.6881C149.28 75.6881 151.253 78.9195 151.229 83.5814C151.253 88.3174 149.231 91.598 145.506 91.6227C141.88 91.598 139.808 88.4161 139.833 83.5814ZM175.451 97.5427C183.567 97.518 188.599 91.968 188.623 83.6801C188.599 75.4168 183.567 69.8668 175.451 69.8668C167.361 69.8668 162.304 75.4168 162.329 83.6801C162.304 91.968 167.361 97.518 175.451 97.5427ZM169.729 83.6801C169.729 78.9688 171.677 75.4415 175.501 75.4415C179.225 75.4415 181.199 78.9688 181.174 83.6801C181.199 88.3667 179.225 91.8447 175.501 91.8694C171.677 91.8447 169.729 88.3667 169.729 83.6801ZM205.248 107.607C212.87 107.607 218.248 104.129 218.272 97.296V70.2122H211.02V74.7015H210.724C209.738 72.5308 207.567 69.8668 203.078 69.8668C197.158 69.8668 192.175 74.3808 192.175 83.4334C192.175 92.3627 197.035 96.63 203.078 96.6053C207.394 96.63 209.762 94.4347 210.724 92.264H211.07V97.148C211.045 100.873 208.776 102.328 205.396 102.328C202.486 102.328 200.463 101.366 200.068 99.22H192.866C193.285 104.277 197.849 107.607 205.248 107.607ZM199.674 83.5321C199.649 78.9195 201.622 75.6881 205.347 75.6881C209.022 75.6881 211.07 78.7715 211.07 83.5321C211.07 88.2927 208.998 91.1047 205.347 91.1294C201.647 91.1047 199.649 88.1694 199.674 83.5321ZM223.946 97H231.247V81.7561C231.222 78.4755 233.664 76.1815 236.97 76.1815C237.981 76.1815 239.387 76.3541 240.078 76.5761V70.0642C239.436 69.9162 238.499 69.8175 237.759 69.8175C234.75 69.8175 232.258 71.5688 231.296 74.8495H231V70.2122H223.946V97ZM241.607 89.5014C241.632 94.8047 245.406 97.518 250.536 97.4933C254.507 97.518 257.073 95.7667 258.38 93.3H258.577V97H265.484V78.9441C265.509 72.4815 259.983 69.8668 254.137 69.8668C247.034 69.8668 242.988 73.5175 242.544 78.1548H249.5C249.895 76.3295 251.449 75.2195 253.94 75.1948C256.678 75.2195 258.207 76.5021 258.232 78.7468V80.9174C257.097 80.9668 253.496 81.1394 251.572 81.2628C246.417 81.5834 241.632 83.5321 241.607 89.5014ZM248.612 89.3041C248.612 87.2321 250.215 86.0234 252.756 85.8014C253.989 85.7027 257.122 85.5301 258.232 85.4807V87.4294C258.257 90.266 255.938 92.4367 252.608 92.4614C250.265 92.4367 248.612 91.3514 248.612 89.3041ZM271.059 107.064H278.36V92.708H278.557C279.593 94.928 281.838 97.444 286.204 97.444C292.321 97.444 297.082 92.5847 297.057 83.6308C297.082 74.4548 292.124 69.8668 286.204 69.8668C281.69 69.8668 279.569 72.5308 278.557 74.7015H278.261V70.2122H271.059V107.064ZM278.212 83.5814C278.187 78.7715 280.235 75.6881 283.885 75.6881C287.659 75.6881 289.633 78.9195 289.608 83.5814C289.633 88.3174 287.61 91.598 283.885 91.6227C280.259 91.598 278.187 88.4161 278.212 83.5814ZM309.094 81.5094C309.094 77.9821 311.24 75.9348 314.324 75.9348C317.382 75.9348 319.158 77.8835 319.158 81.2134V97H326.46V79.9308C326.46 73.6408 322.784 69.8668 317.185 69.8668C313.115 69.8668 310.426 71.7662 309.193 74.8988H308.897V61.2829H301.793V97H309.094V81.5094ZM335.389 107.064C341.038 107.039 343.973 104.277 345.502 99.96L355.961 70.2122H348.215L342.542 89.9454H342.246L336.622 70.2122H328.976L338.596 97.74L338.152 98.8747C337.264 101.193 336.104 101.341 334.649 101.341C333.736 101.341 332.626 101.317 331.689 101.243V106.916C332.626 107.015 333.958 107.039 335.389 107.064Z" fill="black"/>
<path d="M386.258 102H403.356V97.4109H391.809V75.2056H386.258V102ZM405.872 96.3747C405.891 100.353 408.722 102.389 412.571 102.37C415.55 102.389 417.474 101.075 418.455 99.2243H418.603V102H423.784V88.4548C423.803 83.6066 419.658 81.6452 415.272 81.6452C409.943 81.6452 406.908 84.3838 406.575 87.8626H411.794C412.09 86.4933 413.255 85.6606 415.124 85.6421C417.178 85.6606 418.326 86.6228 418.344 88.3067V89.9351C417.493 89.9721 414.791 90.1017 413.348 90.1942C409.481 90.4348 405.891 91.8966 405.872 96.3747ZM411.127 96.2266C411.127 94.6723 412.33 93.7655 414.236 93.599C415.161 93.525 417.511 93.3955 418.344 93.3584V94.8203C418.363 96.9483 416.623 98.5767 414.125 98.5952C412.367 98.5767 411.127 97.7625 411.127 96.2266ZM428.077 102H433.481V98.7802H433.703C434.498 100.446 436.164 102.333 439.439 102.333C444.028 102.333 447.6 98.6877 447.618 91.9706C447.6 85.087 443.88 81.6452 439.439 81.6452C436.053 81.6452 434.461 83.6436 433.703 85.272H433.555V75.2056H428.077V102ZM433.444 91.9336C433.425 88.3253 434.98 86.0122 437.7 86.0122C440.531 86.0122 442.011 88.4363 441.993 91.9336C442.011 95.4865 440.494 97.9475 437.7 97.966C434.998 97.9475 433.425 95.5605 433.444 91.9336ZM460.238 102.407C465.197 102.389 468.528 99.983 469.305 96.2636H464.087C463.55 97.4664 462.218 98.2806 460.349 98.2991C457.518 98.2806 455.723 96.4117 455.723 93.377H469.453V91.8226C469.453 84.976 465.29 81.6452 460.016 81.6452C454.132 81.6452 450.301 85.8457 450.32 92.0446C450.301 98.4101 454.076 102.389 460.238 102.407ZM455.723 89.9351C455.834 87.6221 457.61 85.7346 460.127 85.7531C462.57 85.7346 464.254 87.4926 464.272 89.9351H455.723ZM478.372 75.2056H472.895V102H478.372V75.2056Z" fill="#6B6B6B"/>
<path d="M1186.26 107H1191.81V95.8974H1202.76V91.3083H1191.81V84.7947H1203.91V80.2056H1186.26V107ZM1215.01 107.407C1221.1 107.389 1224.88 103.225 1224.89 97.0076C1224.88 90.8087 1221.1 86.6452 1215.01 86.6452C1208.94 86.6452 1205.15 90.8087 1205.17 97.0076C1205.15 103.225 1208.94 107.389 1215.01 107.407ZM1210.72 97.0076C1210.72 93.4733 1212.18 90.8272 1215.05 90.8272C1217.84 90.8272 1219.32 93.4733 1219.31 97.0076C1219.32 100.523 1217.84 103.133 1215.05 103.151C1212.18 103.133 1210.72 100.523 1210.72 97.0076ZM1233.81 95.3792C1233.81 92.7331 1235.39 91.1972 1237.66 91.1972C1239.94 91.1972 1241.27 92.6776 1241.29 95.1572V107H1246.73V94.195C1246.75 89.5133 1244.01 86.6452 1239.81 86.6452C1236.83 86.6452 1234.68 88.107 1233.78 90.4201H1233.55V86.9042H1228.34V107H1233.81V95.3792ZM1261.57 86.9042H1257.8V82.0931H1252.32V86.9042H1249.54V91.0122H1252.32V101.597C1252.28 105.501 1254.98 107.278 1258.94 107.259C1260.29 107.278 1261.27 107.167 1261.87 107.074V102.744C1261.2 102.8 1260.24 102.855 1259.68 102.855C1258.57 102.818 1257.78 102.429 1257.8 100.82V91.0122H1261.57V86.9042ZM1273.86 107H1279.41V95.8974H1290.36V91.3083H1279.41V84.7947H1291.51V80.2056H1273.86V107ZM1293.84 101.375C1293.86 105.353 1296.69 107.389 1300.54 107.37C1303.52 107.389 1305.44 106.075 1306.43 104.224H1306.57V107H1311.75V93.4548C1311.77 88.6066 1307.63 86.6452 1303.24 86.6452C1297.91 86.6452 1294.88 89.3838 1294.55 92.8626H1299.76C1300.06 91.4933 1301.23 90.6606 1303.09 90.6421C1305.15 90.6606 1306.3 91.6228 1306.31 93.3067V94.9351C1305.46 94.9721 1302.76 95.1017 1301.32 95.1942C1297.45 95.4348 1293.86 96.8966 1293.84 101.375ZM1299.1 101.227C1299.1 99.6723 1300.3 98.7655 1302.21 98.599C1303.13 98.525 1305.48 98.3955 1306.31 98.3584V99.8203C1306.33 101.948 1304.59 103.577 1302.1 103.595C1300.34 103.577 1299.1 102.762 1299.1 101.227ZM1315.94 107H1321.41V94.9351C1321.4 92.6591 1322.84 91.1602 1324.71 91.1602C1326.58 91.1602 1327.83 92.437 1327.82 94.417V107H1333.15V94.7131C1333.13 92.5851 1334.35 91.1602 1336.4 91.1602C1338.2 91.1602 1339.57 92.2705 1339.55 94.565V107H1345.03V93.4918C1345.03 89.1063 1342.42 86.6452 1338.7 86.6452C1335.75 86.6452 1333.46 88.144 1332.63 90.4201H1332.44C1331.78 88.107 1329.72 86.6452 1326.96 86.6452C1324.26 86.6452 1322.23 88.07 1321.38 90.4201H1321.15V86.9042H1315.94V107ZM1349.24 107H1354.72V86.9042H1349.24V107ZM1348.99 81.5009C1348.99 83.0183 1350.34 84.2766 1351.98 84.2766C1353.61 84.2766 1354.96 83.0183 1354.94 81.5009C1354.96 79.9466 1353.61 78.7068 1351.98 78.6883C1350.34 78.7068 1348.99 79.9466 1348.99 81.5009ZM1364.45 80.2056H1358.98V107H1364.45V80.2056ZM1371.93 114.55C1376.17 114.531 1378.37 112.459 1379.52 109.221L1387.36 86.9042H1381.55L1377.3 101.708H1377.07L1372.86 86.9042H1367.12L1374.34 107.555L1374 108.406C1373.34 110.146 1372.47 110.257 1371.38 110.257C1370.69 110.257 1369.86 110.238 1369.15 110.183V114.439C1369.86 114.513 1370.86 114.531 1371.93 114.55Z" fill="black"/>
<path d="M1414.22 104H1416.72V96.6982H1421.08C1425.76 96.6982 1427.91 93.8524 1427.91 90.2847C1427.91 86.7032 1425.76 83.8991 1421.05 83.8991H1414.22V104ZM1416.72 94.4771V86.1202H1420.94C1424.17 86.1202 1425.42 87.8832 1425.44 90.2847C1425.42 92.6724 1424.17 94.4771 1420.97 94.4771H1416.72ZM1431.1 104H1433.49V94.5048C1433.49 92.4781 1435.1 90.9788 1437.26 90.9788C1437.89 90.9788 1438.53 91.1038 1438.71 91.1454V88.73C1438.43 88.7022 1437.82 88.6883 1437.46 88.6745C1435.68 88.6883 1434.11 89.7017 1433.57 91.2287H1433.41V88.9243H1431.1V104ZM1446.87 104.305C1449.98 104.319 1452.22 102.765 1452.92 100.474H1450.37C1449.81 101.404 1448.68 102.195 1446.87 102.195C1444.19 102.195 1442.33 100.446 1442.21 97.2534H1453.15V96.2539C1453.16 90.6734 1449.81 88.73 1446.65 88.73C1442.55 88.73 1439.82 91.9506 1439.82 96.5871C1439.82 101.21 1442.51 104.319 1446.87 104.305ZM1442.22 95.2267C1442.39 92.8945 1444.04 90.84 1446.65 90.84C1449.13 90.84 1450.72 92.7141 1450.73 95.2267H1442.22ZM1462.84 88.9243H1459.67V85.315H1457.25V88.9243H1454.98V90.9233H1457.25V100.28C1457.27 102.945 1459.38 104.194 1461.39 104.194C1462.1 104.194 1462.68 104.139 1463.06 104.083V101.862C1462.71 101.876 1462.07 101.918 1461.64 101.918C1460.63 101.918 1459.66 101.598 1459.67 99.6689V90.9233H1462.84V88.9243ZM1472.08 104.305C1475.19 104.319 1477.43 102.765 1478.13 100.474H1475.58C1475.02 101.404 1473.89 102.195 1472.08 102.195C1469.4 102.195 1467.54 100.446 1467.42 97.2534H1478.36V96.2539C1478.37 90.6734 1475.02 88.73 1471.86 88.73C1467.76 88.73 1465.03 91.9506 1465.03 96.5871C1465.03 101.21 1467.72 104.319 1472.08 104.305ZM1467.43 95.2267C1467.6 92.8945 1469.25 90.84 1471.86 90.84C1474.34 90.84 1475.93 92.7141 1475.94 95.2267H1467.43ZM1483.85 94.949C1483.85 92.3393 1485.46 90.8678 1487.66 90.8678C1489.79 90.8678 1491.07 92.256 1491.07 94.5881V104H1493.46V94.4215C1493.47 90.5901 1491.43 88.73 1488.38 88.73C1486.09 88.73 1484.67 89.7434 1483.96 91.2842H1483.77V88.9243H1481.46V104H1483.85V94.949ZM1502.98 104.305C1505.86 104.319 1506.84 102.529 1507.37 101.696H1507.62V104H1509.95V83.8991H1507.53V91.312H1507.37C1506.85 90.5069 1505.94 88.73 1503.01 88.73C1499.22 88.73 1496.57 91.7285 1496.57 96.5038C1496.57 101.293 1499.22 104.319 1502.98 104.305ZM1498.98 96.4483C1498.98 93.2971 1500.41 90.8678 1503.31 90.8678C1506.12 90.8678 1507.6 93.1028 1507.62 96.4483C1507.6 99.8354 1506.08 102.168 1503.31 102.168C1500.46 102.168 1498.98 99.655 1498.98 96.4483ZM1513.37 99.7244C1513.37 102.667 1515.64 104.347 1518.5 104.361C1521.13 104.347 1522.5 102.959 1523 101.945H1523.11V104H1525.47V94.0606C1525.48 89.313 1521.78 88.73 1519.81 88.73C1516.47 88.73 1514.11 90.4097 1513.81 92.839H1516.31C1516.64 91.6868 1517.79 90.8123 1519.7 90.8123C1521.97 90.8123 1523.11 91.9228 1523.11 93.8385V95.0601C1522.43 95.074 1520 95.2128 1519.03 95.2822C1516.42 95.4766 1513.37 96.2678 1513.37 99.7244ZM1515.75 99.8354C1515.77 98.1835 1517.14 97.42 1519.31 97.2812C1520.03 97.2395 1522.4 97.0591 1523.11 97.0174V98.5306C1523.11 100.432 1521.61 102.237 1518.92 102.223C1517.09 102.237 1515.77 101.432 1515.75 99.8354ZM1529.3 104H1531.69V94.5048C1531.69 92.4781 1533.3 90.9788 1535.47 90.9788C1536.09 90.9788 1536.73 91.1038 1536.91 91.1454V88.73C1536.63 88.7022 1536.02 88.6883 1535.66 88.6745C1533.88 88.6883 1532.31 89.7017 1531.77 91.2287H1531.61V88.9243H1529.3V104ZM1544.43 104.305C1547.31 104.319 1548.29 102.529 1548.82 101.696H1549.07V104H1551.4V83.8991H1548.99V91.312H1548.82C1548.31 90.5069 1547.39 88.73 1544.46 88.73C1540.67 88.73 1538.02 91.7285 1538.02 96.5038C1538.02 101.293 1540.67 104.319 1544.43 104.305ZM1540.43 96.4483C1540.43 93.2971 1541.86 90.8678 1544.77 90.8678C1547.57 90.8678 1549.06 93.1028 1549.07 96.4483C1549.06 99.8354 1547.53 102.168 1544.77 102.168C1541.91 102.168 1540.43 99.655 1540.43 96.4483Z" fill="#6B6B6B"/>
<path d="M800.758 107H806.309V95.8974H817.263V91.3083H806.309V84.7947H818.411V80.2056H800.758V107ZM829.513 107.407C835.601 107.389 839.376 103.225 839.395 97.0076C839.376 90.8087 835.601 86.6452 829.513 86.6452C823.444 86.6452 819.651 90.8087 819.669 97.0076C819.651 103.225 823.444 107.389 829.513 107.407ZM825.22 97.0076C825.22 93.4733 826.682 90.8272 829.55 90.8272C832.345 90.8272 833.825 93.4733 833.806 97.0076C833.825 100.523 832.345 103.133 829.55 103.151C826.682 103.133 825.22 100.523 825.22 97.0076ZM848.314 95.3792C848.314 92.7331 849.887 91.1972 852.163 91.1972C854.439 91.1972 855.771 92.6776 855.79 95.1572V107H861.23V94.195C861.248 89.5133 858.51 86.6452 854.309 86.6452C851.33 86.6452 849.184 88.107 848.277 90.4201H848.055V86.9042H842.837V107H848.314V95.3792ZM876.07 86.9042H872.296V82.0931H866.818V86.9042H864.043V91.0122H866.818V101.597C866.781 105.501 869.483 107.278 873.443 107.259C874.794 107.278 875.774 107.167 876.366 107.074V102.744C875.7 102.8 874.738 102.855 874.183 102.855C873.073 102.818 872.277 102.429 872.296 100.82V91.0122H876.07V86.9042ZM885.471 107H890.911L896.055 89.3098H896.277L901.384 107H906.825L914.486 80.2056H908.416L903.901 98.9691H903.679L898.757 80.2056H893.539L888.616 98.9321H888.394L883.879 80.2056H877.81L885.471 107ZM924.145 107.407C929.104 107.389 932.435 104.983 933.212 101.264H927.994C927.457 102.466 926.125 103.281 924.256 103.299C921.425 103.281 919.63 101.412 919.63 98.377H933.36V96.8226C933.36 89.976 929.197 86.6452 923.923 86.6452C918.038 86.6452 914.208 90.8457 914.226 97.0446C914.208 103.41 917.983 107.389 924.145 107.407ZM919.63 94.9351C919.741 92.6221 921.517 90.7346 924.034 90.7531C926.476 90.7346 928.16 92.4926 928.179 94.9351H919.63ZM936.802 107H942.279V86.9042H936.802V107ZM936.543 81.5009C936.543 83.0183 937.894 84.2766 939.54 84.2766C941.169 84.2766 942.52 83.0183 942.501 81.5009C942.52 79.9466 941.169 78.7068 939.54 78.6883C937.894 78.7068 936.543 79.9466 936.543 81.5009ZM955.565 114.957C961.283 114.957 965.317 112.348 965.336 107.222V86.9042H959.895V90.272H959.673C958.933 88.6436 957.305 86.6452 953.937 86.6452C949.496 86.6452 945.758 90.0315 945.758 96.8226C945.758 103.521 949.403 106.722 953.937 106.704C957.175 106.722 958.952 105.076 959.673 103.447H959.932V107.111C959.914 109.905 958.211 110.997 955.676 110.997C953.493 110.997 951.975 110.275 951.679 108.665H946.276C946.591 112.459 950.014 114.957 955.565 114.957ZM951.383 96.8966C951.365 93.4363 952.845 91.0122 955.639 91.0122C958.396 91.0122 959.932 93.3253 959.932 96.8966C959.932 100.468 958.378 102.577 955.639 102.596C952.864 102.577 951.365 100.375 951.383 96.8966ZM975.069 95.3792C975.069 92.7331 976.679 91.1972 978.992 91.1972C981.286 91.1972 982.619 92.6591 982.619 95.1572V107H988.096V94.195C988.096 89.4763 985.339 86.6452 981.138 86.6452C978.085 86.6452 976.068 88.07 975.143 90.4201H974.921V80.2056H969.592V107H975.069V95.3792ZM1002.9 86.9042H999.125V82.0931H993.647V86.9042H990.872V91.0122H993.647V101.597C993.61 105.501 996.312 107.278 1000.27 107.259C1001.62 107.278 1002.6 107.167 1003.2 107.074V102.744C1002.53 102.8 1001.57 102.855 1001.01 102.855C999.902 102.818 999.106 102.429 999.125 100.82V91.0122H1002.9V86.9042Z" fill="black"/>
<path d="M1039.69 88.9521H1042.13C1042.03 85.8981 1039.23 83.6215 1035.33 83.6215C1031.43 83.6215 1028.4 85.8564 1028.42 89.2575C1028.4 91.9783 1030.37 93.5886 1033.52 94.5048L1036 95.1712C1038.11 95.7681 1039.97 96.5177 1039.97 98.475C1039.97 100.668 1037.88 102.098 1035.11 102.084C1032.72 102.098 1030.62 101.029 1030.41 98.7804H1027.86C1028.1 102.112 1030.78 104.347 1035.11 104.361C1039.77 104.347 1042.41 101.807 1042.41 98.5306C1042.41 94.7686 1038.87 93.5331 1036.72 92.9778L1034.72 92.4225C1033.19 92.0477 1030.85 91.2565 1030.83 89.1464C1030.85 87.2307 1032.58 85.8426 1035.25 85.8426C1037.65 85.8426 1039.48 86.9809 1039.69 88.9521ZM1052.01 104.305C1055.12 104.319 1057.36 102.765 1058.07 100.474H1055.51C1054.96 101.404 1053.82 102.195 1052.01 102.195C1049.34 102.195 1047.48 100.446 1047.35 97.2534H1058.29V96.2539C1058.3 90.6734 1054.96 88.73 1051.79 88.73C1047.7 88.73 1044.96 91.9506 1044.96 96.5871C1044.96 101.21 1047.66 104.319 1052.01 104.305ZM1047.36 95.2267C1047.53 92.8945 1049.18 90.84 1051.79 90.84C1054.28 90.84 1055.86 92.7141 1055.87 95.2267H1047.36ZM1061.4 104H1063.79V94.5881C1063.79 92.3948 1065.37 90.8678 1067.17 90.8678C1068.91 90.8678 1070.13 92.0061 1070.12 93.6997V104H1072.53V94.1994C1072.55 92.2837 1073.74 90.8678 1075.84 90.8678C1077.49 90.8678 1078.88 91.7285 1078.89 93.9496V104H1081.28V93.9218C1081.28 90.368 1079.35 88.73 1076.67 88.73C1074.5 88.73 1072.91 89.7295 1072.14 91.2842H1071.98C1071.27 89.6739 1069.92 88.73 1067.95 88.73C1065.98 88.73 1064.52 89.6739 1063.9 91.2842H1063.7V88.9243H1061.4V104ZM1085.11 104H1087.5V88.9243H1085.11V104ZM1084.64 84.8431C1084.62 85.7176 1085.39 86.4256 1086.3 86.4256C1087.22 86.4256 1087.98 85.7176 1088 84.8431C1087.98 83.9546 1087.22 83.2467 1086.3 83.2605C1085.39 83.2467 1084.62 83.9546 1084.64 84.8431ZM1091.61 104H1098.91C1103.66 104 1105.64 101.682 1105.65 98.6694C1105.64 95.4766 1103.45 93.7552 1101.57 93.6442V93.4498C1103.32 92.9639 1104.86 91.8117 1104.85 89.2297C1104.86 86.2729 1102.88 83.8991 1098.66 83.8991H1091.61V104ZM1094.1 101.779V94.8658H1099.02C1101.6 94.8658 1103.25 96.601 1103.24 98.6416C1103.25 100.391 1102.03 101.779 1098.88 101.779H1094.1ZM1094.1 92.7002V86.1202H1098.66C1101.28 86.1202 1102.46 87.5084 1102.46 89.2575C1102.46 91.3536 1100.75 92.7141 1098.57 92.7002H1094.1ZM1115.07 104.305C1119.16 104.319 1121.91 101.21 1121.9 96.5316C1121.91 91.8256 1119.16 88.73 1115.07 88.73C1110.96 88.73 1108.18 91.8256 1108.18 96.5316C1108.18 101.21 1110.96 104.319 1115.07 104.305ZM1110.57 96.5316C1110.58 93.5331 1112 90.84 1115.07 90.84C1118.11 90.84 1119.51 93.5331 1119.51 96.5316C1119.51 99.5439 1118.11 102.195 1115.07 102.195C1112 102.195 1110.58 99.5439 1110.57 96.5316ZM1127.42 83.8991H1125.03V104H1127.42V83.8991ZM1136.92 104.305C1139.79 104.319 1140.78 102.529 1141.3 101.696H1141.55V104H1143.88V83.8991H1141.47V91.312H1141.3C1140.79 90.5069 1139.87 88.73 1136.94 88.73C1133.15 88.73 1130.5 91.7285 1130.5 96.5038C1130.5 101.293 1133.15 104.319 1136.92 104.305ZM1132.92 96.4483C1132.92 93.2971 1134.35 90.8678 1137.25 90.8678C1140.05 90.8678 1141.54 93.1028 1141.55 96.4483C1141.54 99.8354 1140.01 102.168 1137.25 102.168C1134.39 102.168 1132.92 99.655 1132.92 96.4483Z" fill="#6B6B6B"/>
<path d="M141.402 334.706H135.073L143.326 348.103L134.925 361.5H141.328L146.879 352.285H147.064L152.615 361.5H159.055L150.691 348.103L158.87 334.706H152.578L147.064 343.921H146.879L141.402 334.706ZM167.382 334.706H161.053L169.306 348.103L160.905 361.5H167.308L172.859 352.285H173.044L178.596 361.5H185.035L176.671 348.103L184.85 334.706H178.559L173.044 343.921H172.859L167.382 334.706ZM188.218 361.5H205.316V356.911H193.769V334.706H188.218V361.5Z" fill="#6B6B6B"/>
<path d="M967.723 302.838H963.615V336.331H967.723V318.9H972.867V315.532H967.723V302.838ZM942.89 328.152H945.666C951.698 328.152 956.195 328.004 961.394 327.116L960.913 323.637C956.324 324.432 952.198 324.692 946.998 324.71V309.351H958.545V306.021H942.89V328.152ZM1000.66 302.875H996.553V322.749H1000.66V314.459H1005.36V311.017H1000.66V302.875ZM975.532 307.871H986.782V311.276H975.569V321.342H978.307C984.913 321.361 989.28 321.194 994.258 320.269L993.814 317.012C989.262 317.789 985.339 317.956 979.677 317.974V314.385H990.816V304.577H975.532V307.871ZM979.011 335.887H1000.66V324.229H979.011V335.887ZM983.044 332.556V327.449H996.627V332.556H983.044ZM1020.31 308.574V308.463H1027.16V305.132H1009.02V308.463H1015.87V308.574C1015.87 311.609 1013.19 314.385 1007.99 315.458L1009.62 318.715C1013.8 317.9 1016.65 315.865 1018.11 313.2C1019.59 315.68 1022.38 317.475 1026.42 318.233L1028.05 314.903C1022.92 314.089 1020.28 311.553 1020.31 308.574ZM1007.06 320.75L1007.58 324.155C1010.13 324.155 1013.04 324.136 1016.09 324.025V335.258H1020.24V323.803C1023.16 323.6 1026.16 323.285 1029.05 322.786L1028.75 319.751C1021.61 320.75 1013.3 320.769 1007.06 320.75ZM1030.93 336.257H1035V302.875H1030.93V336.257ZM1059.1 310.092H1064.54V306.835H1059.1V303.282H1055.21V306.835H1049.7V310.092H1055.21C1055.17 313.866 1053.08 317.604 1048.81 319.27L1050.81 322.304C1053.95 321.065 1056.06 318.715 1057.25 315.865C1058.43 318.437 1060.54 320.547 1063.61 321.675L1065.46 318.604C1061.23 317.049 1059.1 313.589 1059.1 310.092ZM1052.92 332.926L1054.36 336.109C1059.71 335.35 1063.85 332.963 1065.93 329.651C1067.98 332.963 1072.12 335.35 1077.49 336.109L1078.93 332.926C1072.25 332.038 1067.96 328.411 1067.98 324.599V323.933H1063.87V324.599C1063.83 328.411 1059.62 332.038 1052.92 332.926ZM1066.35 322.564H1070.24V314.422H1073.46V325.45H1077.38V302.875H1073.46V311.054H1070.24V303.43H1066.35V322.564ZM1107.73 302.838H1103.62V336.294H1107.73V319.048H1112.87V315.569H1107.73V302.838ZM1082.71 328.448H1098.77V305.576H1094.66V313.94H1086.78V305.576H1082.71V328.448ZM1086.78 325.08V317.16H1094.66V325.08H1086.78ZM1133.63 305.132H1116.91V308.463H1129.62C1129.62 309.425 1129.58 310.517 1129.49 311.757L1116.13 312.386L1116.72 315.828L1129.21 314.718C1129.04 316.105 1128.8 317.604 1128.47 319.251C1123.46 319.492 1118.44 319.547 1114.06 319.566L1114.57 322.897C1117.16 322.897 1119.98 322.878 1122.86 322.786V334.406H1127.01V322.619C1130.23 322.434 1133.5 322.156 1136.7 321.712L1136.41 318.678C1135.17 318.807 1133.89 318.918 1132.6 319.011C1133.63 313.441 1133.63 309.61 1133.63 306.983V305.132ZM1138.52 336.294H1142.66V302.838H1138.52V336.294ZM1182.93 310.98H1164.02V307.353H1182.63V304.022H1159.91V314.237H1169.2V316.79H1156.02V320.047H1186.52V316.79H1173.31V314.237H1182.93V310.98ZM1159.61 325.228H1178.67V327.449H1159.65V335.961H1183.63V332.815H1163.68V330.335H1182.71V322.193H1159.61V325.228ZM1216.64 302.838H1212.57V336.331H1216.64V302.838ZM1190.59 309.092H1202.17V315.051H1190.63V328.411H1193.55C1199.56 328.429 1204.56 328.207 1210.24 327.227L1209.87 323.859C1204.65 324.729 1200.12 325.006 1194.85 325.043V318.308H1206.36V305.762H1190.59V309.092ZM1248.62 312.312H1229.52V304.059H1225.45V315.569H1248.62V312.312ZM1221.49 322.712H1252.06V319.455H1221.49V322.712ZM1225.16 335.517H1248.84V332.186H1229.26V325.672H1225.16V335.517ZM1293.84 328.818H1280.45V321.083H1276.38V328.818H1263.27V332.149H1293.84V328.818ZM1264.16 318.493L1265.94 321.897C1271.58 320.843 1276.17 317.567 1278.37 313.2C1280.6 317.586 1285.24 320.824 1290.88 321.897L1292.66 318.493C1285.61 317.364 1280.56 312.368 1280.56 307.316V304.873H1276.19V307.316C1276.17 312.349 1271.16 317.364 1264.16 318.493ZM1323.9 302.838H1319.82V336.331H1323.9V302.838ZM1297.84 309.092H1309.42V315.051H1297.88V328.411H1300.8C1306.82 328.429 1311.81 328.207 1317.49 327.227L1317.12 323.859C1311.9 324.729 1307.37 325.006 1302.1 325.043V318.308H1313.61V305.762H1297.84V309.092ZM1354.98 302.838H1350.87V336.22H1354.98V319.344H1359.94V315.902H1354.98V302.838ZM1328.6 327.079L1330.93 330.261C1342.05 324.784 1346.12 316.142 1346.14 306.317H1330.41V309.721H1341.96C1341.14 317.345 1336.74 323.008 1328.6 327.079ZM1401.06 316.235H1370.53V319.492H1401.06V316.235ZM1374.12 324.895H1393.18V327.227H1374.15V335.961H1398.14V332.741H1378.19V330.187H1397.21V321.786H1374.12V324.895ZM1374.41 314.089H1397.43V310.832H1378.52V306.983H1397.14V303.689H1374.41V314.089ZM1431.07 302.875H1427V327.486H1431.07V302.875ZM1404.98 308.426H1416.34V312.349H1405.06V323.045H1407.91C1414.75 323.045 1419.14 322.878 1424.19 321.934L1423.75 318.641C1419.14 319.492 1415.14 319.677 1409.09 319.677V315.458H1420.41V305.132H1404.98V308.426ZM1408.79 335.628H1432V332.297H1412.94V325.487H1408.79V335.628ZM1462.23 302.838H1458.13V336.331H1462.23V318.9H1467.38V315.532H1462.23V302.838ZM1437.4 328.152H1440.18C1446.21 328.152 1450.71 328.004 1455.91 327.116L1455.42 323.637C1450.84 324.432 1446.71 324.692 1441.51 324.71V309.351H1453.06V306.021H1437.4V328.152ZM1472.86 333.296C1474.39 333.296 1475.71 332.001 1475.71 330.409C1475.71 328.855 1474.39 327.578 1472.86 327.56C1471.26 327.578 1469.95 328.855 1469.97 330.409C1469.95 332.001 1471.26 333.296 1472.86 333.296ZM1261.02 390.37C1267.46 390.37 1271.31 385.392 1271.31 376.603C1271.31 367.869 1267.44 362.836 1261.02 362.836C1254.6 362.836 1250.71 367.869 1250.73 376.603C1250.71 385.374 1254.56 390.37 1261.02 390.37ZM1255.58 376.603C1255.6 370.219 1257.67 366.851 1261.02 366.832C1264.37 366.851 1266.44 370.219 1266.46 376.603C1266.46 383.042 1264.37 386.318 1261.02 386.336C1257.65 386.318 1255.58 383.042 1255.58 376.603ZM1286.22 363.206H1281.59L1274.97 367.499V371.903L1281.22 367.906H1281.37V390H1286.22V363.206ZM1292.73 390H1311.35V385.966H1299.43V385.781L1304.21 381.044C1309.48 376.066 1310.92 373.624 1310.94 370.607C1310.92 366.111 1307.24 362.836 1301.76 362.836C1296.42 362.836 1292.6 366.129 1292.62 371.2H1297.21C1297.19 368.479 1298.97 366.758 1301.73 366.758C1304.34 366.758 1306.32 368.331 1306.32 370.829C1306.32 373.087 1304.91 374.678 1302.21 377.38L1292.73 386.521V390ZM1325.3 390.37C1331.09 390.37 1335.33 387.095 1335.29 382.561C1335.33 379.193 1333.18 376.769 1329.41 376.27V376.048C1332.33 375.437 1334.33 373.272 1334.29 370.274C1334.33 366.166 1330.82 362.836 1325.38 362.836C1320.14 362.836 1316.05 365.926 1315.94 370.422H1320.56C1320.66 368.165 1322.82 366.758 1325.34 366.758C1327.95 366.758 1329.65 368.276 1329.63 370.533C1329.65 372.865 1327.67 374.456 1324.82 374.456H1322.42V378.157H1324.82C1328.3 378.176 1330.37 379.897 1330.37 382.302C1330.37 384.689 1328.24 386.318 1325.3 386.299C1322.51 386.318 1320.36 384.893 1320.23 382.746H1315.38C1315.49 387.261 1319.58 390.37 1325.3 390.37ZM1339.03 385.004H1352.02V390H1356.61V385.004H1360.13V381.044H1356.61V363.206H1350.62L1339.03 381.155V385.004ZM1343.95 381.044V380.859L1351.8 368.683H1352.1V381.044H1343.95ZM1373.49 390.37C1379.28 390.37 1383.31 386.54 1383.29 381.192C1383.31 376.029 1379.61 372.328 1374.63 372.31C1372.43 372.328 1370.49 373.18 1369.45 374.345H1369.19L1370.01 367.24H1381.89V363.206H1366.05L1364.42 378.379H1368.9C1369.73 376.806 1371.25 376.066 1373.34 376.085C1376.43 376.103 1378.65 378.268 1378.63 381.34C1378.65 384.301 1376.48 386.466 1373.49 386.484C1370.95 386.466 1368.9 384.911 1368.75 382.746H1364.05C1364.2 387.169 1368.14 390.37 1373.49 390.37ZM1397.39 390.37C1403.32 390.407 1407.29 386.447 1407.28 381.118C1407.29 376.048 1403.58 372.402 1398.76 372.421C1395.82 372.402 1393.25 373.772 1391.88 376.085H1391.62C1391.64 370.441 1393.81 366.999 1397.69 367.018C1400.13 366.999 1401.76 368.368 1402.24 370.422H1407.02C1406.41 366.074 1402.85 362.836 1397.69 362.836C1391.12 362.836 1386.96 368.183 1386.96 377.343C1386.94 387.224 1392.16 390.333 1397.39 390.37ZM1392.14 381.266C1392.18 378.472 1394.45 376.085 1397.47 376.085C1400.45 376.085 1402.59 378.379 1402.61 381.229C1402.59 384.171 1400.37 386.466 1397.39 386.484C1394.36 386.466 1392.18 384.06 1392.14 381.266ZM1412.35 390H1417.34L1428.96 367.314V363.206H1410.5V367.24H1423.97V367.425L1412.35 390ZM1442.06 390.37C1447.99 390.37 1452.22 387.187 1452.24 382.82C1452.22 379.415 1449.67 376.64 1446.47 376.122V375.974C1449.24 375.382 1451.21 372.957 1451.21 370.015C1451.21 365.87 1447.32 362.836 1442.06 362.836C1436.77 362.836 1432.9 365.87 1432.89 370.015C1432.9 372.939 1434.81 375.382 1437.62 375.974V376.122C1434.4 376.64 1431.87 379.415 1431.89 382.82C1431.87 387.187 1436.09 390.37 1442.06 390.37ZM1436.85 382.376C1436.83 379.841 1439.05 377.991 1442.06 378.009C1445.08 377.991 1447.26 379.86 1447.28 382.376C1447.26 384.856 1445.21 386.558 1442.06 386.558C1438.88 386.558 1436.83 384.856 1436.85 382.376ZM1437.59 370.459C1437.6 368.183 1439.38 366.61 1442.06 366.61C1444.69 366.61 1446.51 368.183 1446.51 370.459C1446.51 372.809 1444.64 374.419 1442.06 374.419C1439.46 374.419 1437.6 372.809 1437.59 370.459ZM1465.75 362.836C1459.81 362.799 1455.87 366.777 1455.87 372.014C1455.89 377.084 1459.59 380.729 1464.38 380.711C1467.32 380.729 1469.91 379.341 1471.26 377.01H1471.56C1471.52 382.765 1469.34 386.188 1465.45 386.188C1463.03 386.188 1461.38 384.837 1460.9 382.709H1456.13C1456.72 387.15 1460.29 390.37 1465.45 390.37C1472.04 390.37 1476.22 385.022 1476.22 375.789C1476.21 366 1470.99 362.873 1465.75 362.836ZM1460.57 371.903C1460.53 369.035 1462.77 366.74 1465.79 366.721C1468.78 366.74 1470.97 369.146 1470.97 371.866C1470.99 374.641 1468.69 377.047 1465.71 377.047C1462.72 377.047 1460.57 374.789 1460.57 371.903Z" fill="black"/>
<path d="M141.402 506.706H135.073L143.326 520.103L134.925 533.5H141.328L146.879 524.285H147.064L152.615 533.5H159.055L150.691 520.103L158.87 506.706H152.578L147.064 515.921H146.879L141.402 506.706ZM162.238 533.5H179.336V528.911H167.789V506.706H162.238V533.5Z" fill="#6B6B6B"/>
<path d="M1095.19 486.373H1092.11V511.499H1095.19V498.422H1099.05V495.896H1095.19V486.373ZM1076.57 505.363H1078.65C1083.17 505.363 1086.55 505.252 1090.45 504.586L1090.09 501.976C1086.64 502.573 1083.55 502.767 1079.65 502.781V491.259H1088.31V488.76H1076.57V505.363ZM1119.9 486.4H1116.82V501.309H1119.9V495.09H1123.43V492.508H1119.9V486.4ZM1101.05 490.148H1109.49V492.703H1101.08V500.254H1103.13C1108.09 500.268 1111.37 500.143 1115.1 499.449L1114.77 497.006C1111.35 497.589 1108.41 497.714 1104.16 497.728V495.035H1112.52V487.677H1101.05V490.148ZM1103.66 511.166H1119.9V502.42H1103.66V511.166ZM1106.69 508.667V504.835H1116.88V508.667H1106.69ZM1134.65 490.676V490.593H1139.78V488.094H1126.18V490.593H1131.32V490.676C1131.32 492.953 1129.3 495.035 1125.4 495.84L1126.62 498.283C1129.76 497.672 1131.9 496.145 1132.99 494.146C1134.11 496.007 1136.2 497.353 1139.23 497.922L1140.45 495.424C1136.6 494.813 1134.62 492.911 1134.65 490.676ZM1124.71 499.81L1125.1 502.364C1127.01 502.364 1129.19 502.351 1131.48 502.267V510.694H1134.59V502.101C1136.78 501.948 1139.03 501.712 1141.2 501.337L1140.98 499.061C1135.62 499.81 1129.39 499.824 1124.71 499.81ZM1142.61 511.443H1145.67V486.4H1142.61V511.443ZM1163.74 491.814H1167.82V489.371H1163.74V486.706H1160.83V489.371H1156.69V491.814H1160.83C1160.8 494.646 1159.23 497.45 1156.02 498.7L1157.52 500.976C1159.88 500.046 1161.47 498.283 1162.35 496.145C1163.24 498.075 1164.83 499.658 1167.13 500.504L1168.52 498.2C1165.34 497.034 1163.74 494.438 1163.74 491.814ZM1159.11 508.944L1160.19 511.332C1164.2 510.763 1167.31 508.972 1168.87 506.487C1170.41 508.972 1173.52 510.763 1177.54 511.332L1178.62 508.944C1173.61 508.278 1170.39 505.557 1170.41 502.698V502.198H1167.32V502.698C1167.3 505.557 1164.13 508.278 1159.11 508.944ZM1169.18 501.171H1172.1V495.063H1174.52V503.336H1177.46V486.4H1174.52V492.536H1172.1V486.817H1169.18V501.171ZM1200.22 486.373H1197.14V511.471H1200.22V498.533H1204.08V495.923H1200.22V486.373ZM1181.46 505.585H1193.51V488.427H1190.42V494.702H1184.51V488.427H1181.46V505.585ZM1184.51 503.059V497.117H1190.42V503.059H1184.51ZM1219.66 488.094H1207.11V490.593H1216.65C1216.65 491.315 1216.62 492.134 1216.55 493.064L1206.53 493.536L1206.97 496.118L1216.34 495.285C1216.22 496.326 1216.04 497.45 1215.79 498.686C1212.02 498.866 1208.26 498.908 1204.97 498.922L1205.36 501.421C1207.3 501.421 1209.41 501.407 1211.58 501.337V510.055H1214.69V501.212C1217.1 501.073 1219.56 500.865 1221.96 500.532L1221.74 498.255C1220.81 498.353 1219.85 498.436 1218.88 498.505C1219.66 494.327 1219.66 491.453 1219.66 489.482V488.094ZM1223.32 511.471H1226.43V486.373H1223.32V511.471ZM1256.64 492.481H1242.45V489.76H1256.42V487.261H1239.37V494.924H1246.34V496.84H1236.46V499.283H1259.33V496.84H1249.42V494.924H1256.64V492.481ZM1239.15 503.17H1253.45V504.835H1239.18V511.221H1257.17V508.861H1242.2V507.001H1256.47V500.893H1239.15V503.17ZM1281.93 486.373H1278.88V511.499H1281.93V486.373ZM1262.39 491.065H1271.08V495.535H1262.42V505.557H1264.61C1269.12 505.571 1272.87 505.405 1277.13 504.669L1276.85 502.142C1272.94 502.795 1269.54 503.003 1265.58 503.031V497.978H1274.21V488.566H1262.39V491.065ZM1305.92 493.48H1291.59V487.289H1288.54V495.923H1305.92V493.48ZM1285.57 501.282H1308.5V498.838H1285.57V501.282ZM1288.32 510.888H1306.09V508.389H1291.4V503.503H1288.32V510.888ZM1339.85 505.863H1329.8V500.06H1326.74V505.863H1316.92V508.361H1339.85V505.863ZM1317.58 498.117L1318.91 500.671C1323.15 499.88 1326.59 497.423 1328.24 494.146C1329.91 497.436 1333.39 499.866 1337.63 500.671L1338.96 498.117C1333.67 497.27 1329.88 493.522 1329.88 489.732V487.9H1326.6V489.732C1326.59 493.508 1322.83 497.27 1317.58 498.117ZM1362.39 486.373H1359.34V511.499H1362.39V486.373ZM1342.85 491.065H1351.54V495.535H1342.87V505.557H1345.07C1349.58 505.571 1353.33 505.405 1357.59 504.669L1357.31 502.142C1353.4 502.795 1350 503.003 1346.04 503.031V497.978H1354.67V488.566H1342.85V491.065ZM1385.71 486.373H1382.63V511.415H1385.71V498.755H1389.43V496.173H1385.71V486.373ZM1365.92 504.558L1367.67 506.945C1376.01 502.836 1379.06 496.354 1379.08 488.982H1367.28V491.537H1375.94C1375.33 497.256 1372.03 501.504 1365.92 504.558ZM1420.28 496.423H1397.37V498.866H1420.28V496.423ZM1400.07 502.92H1414.37V504.669H1400.1V511.221H1418.09V508.806H1403.12V506.89H1417.39V500.588H1400.07V502.92ZM1400.29 494.813H1417.56V492.37H1403.37V489.482H1417.34V487.011H1400.29V494.813ZM1442.8 486.4H1439.74V504.863H1442.8V486.4ZM1423.22 490.565H1431.75V493.508H1423.28V501.532H1425.42C1430.55 501.532 1433.84 501.407 1437.63 500.699L1437.3 498.228C1433.84 498.866 1430.84 499.005 1426.3 499.005V495.84H1434.8V488.094H1423.22V490.565ZM1426.08 510.971H1443.49V508.472H1429.19V503.364H1426.08V510.971ZM1466.17 486.373H1463.09V511.499H1466.17V498.422H1470.03V495.896H1466.17V486.373ZM1447.54 505.363H1449.63C1454.15 505.363 1457.52 505.252 1461.43 504.586L1461.06 501.976C1457.62 502.573 1454.53 502.767 1450.63 502.781V491.259H1459.29V488.76H1447.54V505.363ZM1474.14 509.222C1475.29 509.222 1476.28 508.25 1476.28 507.057C1476.28 505.89 1475.29 504.933 1474.14 504.919C1472.95 504.933 1471.96 505.89 1471.98 507.057C1471.96 508.25 1472.95 509.222 1474.14 509.222ZM1315.22 552.278C1320.05 552.278 1322.94 548.543 1322.94 541.95C1322.94 535.397 1320.04 531.621 1315.22 531.621C1310.4 531.621 1307.49 535.397 1307.5 541.95C1307.49 548.53 1310.38 552.278 1315.22 552.278ZM1311.14 541.95C1311.15 537.16 1312.71 534.634 1315.22 534.62C1317.73 534.634 1319.29 537.16 1319.3 541.95C1319.3 546.78 1317.73 549.238 1315.22 549.251C1312.7 549.238 1311.14 546.78 1311.14 541.95ZM1334.13 531.899H1330.66L1325.69 535.12V538.424L1330.38 535.425H1330.49V552H1334.13V531.899ZM1339.02 552H1352.98V548.974H1344.04V548.835L1347.62 545.281C1351.58 541.547 1352.66 539.715 1352.67 537.452C1352.66 534.079 1349.9 531.621 1345.79 531.621C1341.78 531.621 1338.92 534.092 1338.93 537.896H1342.37C1342.36 535.855 1343.69 534.564 1345.76 534.564C1347.72 534.564 1349.2 535.744 1349.2 537.618C1349.2 539.312 1348.15 540.506 1346.12 542.533L1339.02 549.39V552ZM1363.45 552.278C1367.79 552.278 1370.97 549.821 1370.94 546.42C1370.97 543.893 1369.36 542.074 1366.53 541.7V541.533C1368.72 541.075 1370.22 539.451 1370.19 537.202C1370.22 534.12 1367.58 531.621 1363.5 531.621C1359.57 531.621 1356.51 533.94 1356.42 537.313H1359.89C1359.96 535.619 1361.59 534.564 1363.47 534.564C1365.43 534.564 1366.71 535.703 1366.7 537.396C1366.71 539.145 1365.22 540.339 1363.09 540.339H1361.28V543.116H1363.09C1365.7 543.13 1367.25 544.421 1367.25 546.225C1367.25 548.016 1365.65 549.238 1363.45 549.224C1361.35 549.238 1359.74 548.169 1359.64 546.558H1356.01C1356.09 549.945 1359.16 552.278 1363.45 552.278ZM1373.75 548.252H1383.49V552H1386.94V548.252H1389.57V545.281H1386.94V531.899H1382.44L1373.75 545.364V548.252ZM1377.44 545.281V545.142L1383.33 536.008H1383.55V545.281H1377.44ZM1399.6 552.278C1403.94 552.278 1406.97 549.404 1406.95 545.392C1406.97 541.519 1404.19 538.743 1400.46 538.729C1398.8 538.743 1397.35 539.381 1396.57 540.256H1396.37L1396.99 534.925H1405.9V531.899H1394.01L1392.79 543.282H1396.15C1396.78 542.102 1397.92 541.547 1399.48 541.561C1401.8 541.575 1403.47 543.199 1403.45 545.503C1403.47 547.724 1401.84 549.349 1399.6 549.362C1397.69 549.349 1396.15 548.182 1396.04 546.558H1392.52C1392.63 549.876 1395.58 552.278 1399.6 552.278ZM1417.53 552.278C1421.97 552.305 1424.96 549.335 1424.94 545.337C1424.96 541.533 1422.17 538.798 1418.56 538.812C1416.35 538.798 1414.42 539.826 1413.39 541.561H1413.2C1413.21 537.327 1414.84 534.745 1417.75 534.759C1419.59 534.745 1420.81 535.772 1421.17 537.313H1424.75C1424.29 534.051 1421.63 531.621 1417.75 531.621C1412.82 531.621 1409.7 535.633 1409.7 542.505C1409.69 549.918 1413.6 552.25 1417.53 552.278ZM1413.59 545.448C1413.62 543.352 1415.32 541.561 1417.59 541.561C1419.82 541.561 1421.43 543.282 1421.45 545.42C1421.43 547.627 1419.77 549.349 1417.53 549.362C1415.25 549.349 1413.62 547.544 1413.59 545.448ZM1428.75 552H1432.5L1441.21 534.981V531.899H1427.36V534.925H1437.47V535.064L1428.75 552ZM1451.04 552.278C1455.48 552.278 1458.66 549.89 1458.68 546.614C1458.66 544.06 1456.75 541.977 1454.35 541.589V541.478C1456.43 541.033 1457.9 539.215 1457.9 537.008C1457.9 533.898 1454.98 531.621 1451.04 531.621C1447.07 531.621 1444.17 533.898 1444.16 537.008C1444.17 539.201 1445.6 541.033 1447.71 541.478V541.589C1445.29 541.977 1443.39 544.06 1443.41 546.614C1443.39 549.89 1446.56 552.278 1451.04 552.278ZM1447.13 546.281C1447.11 544.379 1448.78 542.991 1451.04 543.005C1453.3 542.991 1454.94 544.393 1454.96 546.281C1454.94 548.141 1453.4 549.418 1451.04 549.418C1448.65 549.418 1447.11 548.141 1447.13 546.281ZM1447.68 537.341C1447.7 535.633 1449.03 534.453 1451.04 534.453C1453.01 534.453 1454.37 535.633 1454.37 537.341C1454.37 539.104 1452.97 540.311 1451.04 540.311C1449.08 540.311 1447.7 539.104 1447.68 537.341ZM1468.81 531.621C1464.35 531.594 1461.4 534.578 1461.4 538.507C1461.41 542.31 1464.19 545.045 1467.78 545.031C1469.99 545.045 1471.93 544.004 1472.95 542.255H1473.17C1473.14 546.572 1471.5 549.14 1468.59 549.14C1466.77 549.14 1465.53 548.127 1465.17 546.531H1461.59C1462.04 549.862 1464.72 552.278 1468.59 552.278C1473.53 552.278 1476.67 548.266 1476.67 541.339C1476.65 533.995 1472.74 531.649 1468.81 531.621ZM1464.92 538.424C1464.9 536.272 1466.58 534.551 1468.84 534.537C1471.09 534.551 1472.72 536.355 1472.72 538.396C1472.74 540.478 1471.02 542.283 1468.78 542.283C1466.53 542.283 1464.92 540.589 1464.92 538.424Z" fill="black"/>
<path d="M136.258 680.5H153.356V675.911H141.809V653.706H136.258V680.5ZM155.872 674.875C155.891 678.853 158.722 680.889 162.571 680.87C165.55 680.889 167.474 679.575 168.455 677.724H168.603V680.5H173.784V666.955C173.803 662.107 169.658 660.145 165.272 660.145C159.943 660.145 156.908 662.884 156.575 666.363H161.794C162.09 664.993 163.255 664.161 165.124 664.142C167.178 664.161 168.326 665.123 168.344 666.807V668.435C167.493 668.472 164.791 668.602 163.348 668.694C159.481 668.935 155.891 670.397 155.872 674.875ZM161.127 674.727C161.127 673.172 162.33 672.266 164.236 672.099C165.161 672.025 167.511 671.895 168.344 671.858V673.32C168.363 675.448 166.623 677.077 164.125 677.095C162.367 677.077 161.127 676.262 161.127 674.727ZM177.966 680.5H183.444V669.064C183.425 666.603 185.257 664.882 187.737 664.882C188.495 664.882 189.55 665.012 190.068 665.178V660.293C189.587 660.182 188.884 660.108 188.329 660.108C186.071 660.108 184.202 661.422 183.481 663.883H183.259V660.404H177.966V680.5ZM201.134 688.457C206.852 688.457 210.886 685.848 210.904 680.722V660.404H205.464V663.772H205.242C204.502 662.144 202.873 660.145 199.506 660.145C195.064 660.145 191.327 663.531 191.327 670.323C191.327 677.021 194.972 680.222 199.506 680.204C202.744 680.222 204.52 678.576 205.242 676.947H205.501V680.611C205.482 683.405 203.78 684.497 201.245 684.497C199.061 684.497 197.544 683.775 197.248 682.165H191.845C192.159 685.959 195.583 688.457 201.134 688.457ZM196.952 670.397C196.933 666.936 198.414 664.512 201.208 664.512C203.965 664.512 205.501 666.825 205.501 670.397C205.501 673.968 203.947 676.077 201.208 676.096C198.432 676.077 196.933 673.875 196.952 670.397ZM224.264 680.907C229.224 680.889 232.554 678.483 233.332 674.764H228.113C227.577 675.966 226.244 676.781 224.375 676.799C221.544 676.781 219.749 674.912 219.749 671.877H233.48V670.323C233.48 663.476 229.316 660.145 224.042 660.145C218.158 660.145 214.328 664.346 214.346 670.545C214.328 676.91 218.102 680.889 224.264 680.907ZM219.749 668.435C219.86 666.122 221.637 664.235 224.153 664.253C226.596 664.235 228.28 665.993 228.298 668.435H219.749Z" fill="#6B6B6B"/>
<path d="M1190.82 642.025H1188.51V660.875H1190.82V651.064H1193.72V649.169H1190.82V642.025ZM1176.85 656.272H1178.41C1181.8 656.272 1184.33 656.188 1187.26 655.688L1186.99 653.73C1184.41 654.178 1182.08 654.324 1179.16 654.335V645.691H1185.66V643.816H1176.85V656.272ZM1209.36 642.046H1207.05V653.231H1209.36V648.565H1212V646.628H1209.36V642.046ZM1195.22 644.858H1201.55V646.774H1195.24V652.439H1196.78C1200.5 652.45 1202.95 652.356 1205.76 651.835L1205.51 650.002C1202.94 650.44 1200.74 650.533 1197.55 650.544V648.523H1203.82V643.004H1195.22V644.858ZM1197.17 660.625H1209.36V654.064H1197.17V660.625ZM1199.44 658.75V655.876H1207.09V658.75H1199.44ZM1220.42 645.253V645.191H1224.27V643.316H1214.07V645.191H1217.92V645.253C1217.92 646.961 1216.41 648.523 1213.48 649.127L1214.4 650.96C1216.75 650.502 1218.36 649.357 1219.18 647.857C1220.01 649.252 1221.58 650.263 1223.86 650.69L1224.77 648.815C1221.89 648.357 1220.4 646.93 1220.42 645.253ZM1212.96 652.106L1213.25 654.022C1214.69 654.022 1216.33 654.012 1218.04 653.949V660.271H1220.38V653.824C1222.02 653.71 1223.71 653.533 1225.33 653.251L1225.17 651.544C1221.15 652.106 1216.47 652.116 1212.96 652.106ZM1226.4 660.833H1228.69V642.046H1226.4V660.833ZM1242.25 646.107H1245.31V644.275H1242.25V642.275H1240.06V644.275H1236.96V646.107H1240.06C1240.04 648.232 1238.86 650.336 1236.46 651.273L1237.58 652.981C1239.35 652.283 1240.54 650.96 1241.21 649.357C1241.87 650.804 1243.06 651.991 1244.79 652.627L1245.83 650.898C1243.44 650.023 1242.25 648.076 1242.25 646.107ZM1238.77 658.958L1239.58 660.75C1242.59 660.323 1244.92 658.979 1246.09 657.115C1247.25 658.979 1249.58 660.323 1252.6 660.75L1253.41 658.958C1249.65 658.458 1247.23 656.417 1247.25 654.272V653.897H1244.93V654.272C1244.91 656.417 1242.54 658.458 1238.77 658.958ZM1246.33 653.126H1248.52V648.544H1250.33V654.751H1252.54V642.046H1250.33V646.649H1248.52V642.358H1246.33V653.126ZM1269.61 642.025H1267.3V660.854H1269.61V651.148H1272.51V649.19H1269.61V642.025ZM1255.53 656.438H1264.57V643.566H1262.26V648.274H1257.83V643.566H1255.53V656.438ZM1257.83 654.543V650.086H1262.26V654.543H1257.83ZM1284.19 643.316H1274.78V645.191H1281.93C1281.93 645.732 1281.91 646.347 1281.86 647.045L1274.34 647.399L1274.68 649.336L1281.71 648.711C1281.61 649.492 1281.48 650.336 1281.29 651.262C1278.47 651.398 1275.64 651.429 1273.18 651.439L1273.47 653.314C1274.93 653.314 1276.51 653.304 1278.13 653.251V659.791H1280.47V653.158C1282.28 653.054 1284.12 652.897 1285.92 652.647L1285.76 650.94C1285.06 651.012 1284.34 651.075 1283.61 651.127C1284.19 647.992 1284.19 645.837 1284.19 644.358V643.316ZM1286.94 660.854H1289.28V642.025H1286.94V660.854ZM1311.94 646.607H1301.29V644.566H1311.77V642.692H1298.98V648.44H1304.21V649.877H1296.8V651.71H1313.96V649.877H1306.52V648.44H1311.94V646.607ZM1298.82 654.626H1309.54V655.876H1298.84V660.666H1312.33V658.896H1301.11V657.5H1311.81V652.918H1298.82V654.626ZM1330.91 642.025H1328.62V660.875H1330.91V642.025ZM1316.25 645.545H1322.77V648.898H1316.27V656.417H1317.92C1321.3 656.428 1324.11 656.303 1327.31 655.751L1327.1 653.855C1324.16 654.345 1321.61 654.501 1318.64 654.522V650.731H1325.12V643.671H1316.25V645.545ZM1348.91 647.357H1338.16V642.712H1335.87V649.19H1348.91V647.357ZM1333.64 653.21H1350.84V651.377H1333.64V653.21ZM1335.7 660.416H1349.03V658.542H1338.01V654.876H1335.7V660.416ZM1374.36 656.646H1366.82V652.293H1364.53V656.646H1357.16V658.521H1374.36V656.646ZM1357.66 650.835L1358.65 652.752C1361.83 652.158 1364.41 650.315 1365.65 647.857C1366.9 650.325 1369.52 652.148 1372.69 652.752L1373.69 650.835C1369.73 650.2 1366.88 647.388 1366.88 644.545V643.171H1364.42V644.545C1364.41 647.378 1361.59 650.2 1357.66 650.835ZM1391.27 642.025H1388.98V660.875H1391.27V642.025ZM1376.61 645.545H1383.13V648.898H1376.63V656.417H1378.27C1381.66 656.428 1384.47 656.303 1387.67 655.751L1387.46 653.855C1384.52 654.345 1381.97 654.501 1379 654.522V650.731H1385.48V643.671H1376.61V645.545ZM1408.77 642.025H1406.46V660.812H1408.77V651.314H1411.56V649.377H1408.77V642.025ZM1393.92 655.668L1395.23 657.459C1401.49 654.376 1403.78 649.513 1403.79 643.983H1394.94V645.899H1401.44C1400.98 650.19 1398.5 653.376 1393.92 655.668ZM1434.7 649.565H1417.52V651.398H1434.7V649.565ZM1419.54 654.439H1430.26V655.751H1419.56V660.666H1433.05V658.854H1421.83V657.417H1432.53V652.689H1419.54V654.439ZM1419.7 648.357H1432.66V646.524H1422.01V644.358H1432.49V642.504H1419.7V648.357ZM1451.59 642.046H1449.3V655.897H1451.59V642.046ZM1436.91 645.17H1443.3V647.378H1436.95V653.397H1438.55C1442.4 653.397 1444.87 653.304 1447.72 652.772L1447.47 650.919C1444.87 651.398 1442.62 651.502 1439.22 651.502V649.127H1445.59V643.316H1436.91V645.17ZM1439.05 660.479H1452.11V658.604H1441.38V654.772H1439.05V660.479ZM1469.13 642.025H1466.82V660.875H1469.13V651.064H1472.02V649.169H1469.13V642.025ZM1455.15 656.272H1456.71C1460.11 656.272 1462.64 656.188 1465.57 655.688L1465.29 653.73C1462.71 654.178 1460.39 654.324 1457.46 654.335V645.691H1463.96V643.816H1455.15V656.272ZM1475.1 659.167C1475.97 659.167 1476.71 658.438 1476.71 657.542C1476.71 656.667 1475.97 655.949 1475.1 655.938C1474.21 655.949 1473.47 656.667 1473.48 657.542C1473.47 658.438 1474.21 659.167 1475.1 659.167ZM1355.88 691.208C1359.51 691.208 1361.67 688.407 1361.67 683.46C1361.67 678.545 1359.5 675.712 1355.88 675.712C1352.27 675.712 1350.08 678.545 1350.09 683.46C1350.08 688.396 1352.25 691.208 1355.88 691.208ZM1352.82 683.46C1352.83 679.867 1354 677.972 1355.88 677.962C1357.77 677.972 1358.94 679.867 1358.95 683.46C1358.95 687.084 1357.77 688.928 1355.88 688.938C1353.99 688.928 1352.82 687.084 1352.82 683.46ZM1370.07 675.92H1367.47L1363.74 678.337V680.815L1367.26 678.566H1367.34V691H1370.07V675.92ZM1373.73 691H1384.21V688.73H1377.5V688.626L1380.19 685.96C1383.16 683.158 1383.97 681.784 1383.98 680.086C1383.97 677.555 1381.9 675.712 1378.82 675.712C1375.81 675.712 1373.66 677.566 1373.67 680.419H1376.25C1376.24 678.888 1377.24 677.92 1378.8 677.92C1380.26 677.92 1381.38 678.805 1381.38 680.211C1381.38 681.482 1380.59 682.377 1379.07 683.898L1373.73 689.042V691ZM1392.06 691.208C1395.32 691.208 1397.71 689.365 1397.69 686.814C1397.71 684.918 1396.5 683.554 1394.38 683.273V683.148C1396.02 682.804 1397.15 681.586 1397.12 679.899C1397.15 677.587 1395.17 675.712 1392.1 675.712C1389.16 675.712 1386.86 677.451 1386.79 679.982H1389.4C1389.45 678.711 1390.67 677.92 1392.08 677.92C1393.55 677.92 1394.51 678.774 1394.5 680.044C1394.51 681.357 1393.4 682.252 1391.79 682.252H1390.44V684.335H1391.79C1393.75 684.345 1394.92 685.314 1394.92 686.668C1394.92 688.011 1393.72 688.928 1392.06 688.917C1390.49 688.928 1389.28 688.126 1389.21 686.918H1386.48C1386.54 689.459 1388.85 691.208 1392.06 691.208ZM1399.79 688.188H1407.1V691H1409.68V688.188H1411.66V685.96H1409.68V675.92H1406.31L1399.79 686.022V688.188ZM1402.56 685.96V685.855L1406.98 679.003H1407.14V685.96H1402.56ZM1419.18 691.208C1422.44 691.208 1424.71 689.053 1424.7 686.043C1424.71 683.137 1422.63 681.055 1419.83 681.044C1418.59 681.055 1417.49 681.534 1416.91 682.19H1416.77L1417.22 678.191H1423.91V675.92H1414.99L1414.08 684.46H1416.6C1417.07 683.575 1417.92 683.158 1419.1 683.169C1420.84 683.179 1422.09 684.397 1422.08 686.126C1422.09 687.792 1420.87 689.011 1419.18 689.021C1417.75 689.011 1416.6 688.136 1416.52 686.918H1413.87C1413.95 689.407 1416.17 691.208 1419.18 691.208ZM1432.64 691.208C1435.97 691.229 1438.21 689.001 1438.2 686.001C1438.21 683.148 1436.11 681.096 1433.41 681.107C1431.75 681.096 1430.3 681.867 1429.53 683.169H1429.39C1429.4 679.992 1430.62 678.055 1432.8 678.066C1434.18 678.055 1435.09 678.826 1435.36 679.982H1438.05C1437.71 677.535 1435.71 675.712 1432.8 675.712C1429.11 675.712 1426.76 678.722 1426.76 683.877C1426.75 689.438 1429.69 691.187 1432.64 691.208ZM1429.68 686.085C1429.7 684.512 1430.98 683.169 1432.68 683.169C1434.35 683.169 1435.56 684.46 1435.57 686.064C1435.56 687.72 1434.31 689.011 1432.64 689.021C1430.93 689.011 1429.7 687.657 1429.68 686.085ZM1441.05 691H1443.86L1450.4 678.232V675.92H1440.01V678.191H1447.59V678.295L1441.05 691ZM1457.78 691.208C1461.11 691.208 1463.49 689.417 1463.5 686.959C1463.49 685.043 1462.06 683.481 1460.25 683.189V683.106C1461.82 682.773 1462.92 681.409 1462.92 679.753C1462.92 677.42 1460.73 675.712 1457.78 675.712C1454.8 675.712 1452.62 677.42 1452.61 679.753C1452.62 681.398 1453.69 682.773 1455.28 683.106V683.189C1453.46 683.481 1452.04 685.043 1452.05 686.959C1452.04 689.417 1454.41 691.208 1457.78 691.208ZM1454.84 686.709C1454.83 685.283 1456.08 684.241 1457.78 684.252C1459.47 684.241 1460.7 685.293 1460.71 686.709C1460.7 688.105 1459.55 689.063 1457.78 689.063C1455.98 689.063 1454.83 688.105 1454.84 686.709ZM1455.26 680.003C1455.27 678.722 1456.27 677.837 1457.78 677.837C1459.25 677.837 1460.28 678.722 1460.28 680.003C1460.28 681.325 1459.22 682.231 1457.78 682.231C1456.31 682.231 1455.27 681.325 1455.26 680.003ZM1471.11 675.712C1467.76 675.691 1465.54 677.93 1465.54 680.878C1465.56 683.731 1467.64 685.783 1470.34 685.772C1471.99 685.783 1473.45 685.002 1474.21 683.689H1474.38C1474.36 686.928 1473.13 688.855 1470.94 688.855C1469.58 688.855 1468.65 688.094 1468.38 686.897H1465.69C1466.02 689.396 1468.03 691.208 1470.94 691.208C1474.65 691.208 1477 688.199 1477 683.002C1476.99 677.493 1474.05 675.733 1471.11 675.712ZM1468.19 680.815C1468.17 679.201 1469.43 677.91 1471.13 677.899C1472.81 677.91 1474.04 679.263 1474.04 680.794C1474.05 682.356 1472.76 683.71 1471.09 683.71C1469.4 683.71 1468.19 682.44 1468.19 680.815Z" fill="black"/>
<path d="M136.258 793.706V820.5H141.661V802.884H141.883L148.878 820.389H152.578L159.573 802.958H159.795V820.5H165.198V793.706H158.315L150.876 811.877H150.58L143.141 793.706H136.258ZM178.707 820.907C183.666 820.889 186.997 818.483 187.774 814.764H182.556C182.019 815.966 180.687 816.781 178.818 816.799C175.986 816.781 174.192 814.912 174.192 811.877H187.922V810.323C187.922 803.476 183.758 800.145 178.485 800.145C172.6 800.145 168.77 804.346 168.788 810.545C168.77 816.91 172.545 820.889 178.707 820.907ZM174.192 808.435C174.303 806.122 176.079 804.235 178.596 804.253C181.038 804.235 182.722 805.993 182.741 808.435H174.192ZM198.765 820.833C202.041 820.833 203.706 818.946 204.465 817.28H204.724V820.5H210.127V793.706H204.65V803.772H204.465C203.743 802.144 202.133 800.145 198.765 800.145C194.324 800.145 190.586 803.587 190.586 810.471C190.586 817.188 194.176 820.833 198.765 820.833ZM196.212 810.434C196.193 806.936 197.674 804.512 200.468 804.512C203.225 804.512 204.761 806.825 204.761 810.434C204.761 814.06 203.206 816.448 200.468 816.466C197.692 816.448 196.193 813.986 196.212 810.434ZM214.531 820.5H220.008V800.404H214.531V820.5ZM214.272 795.001C214.272 796.518 215.623 797.777 217.27 797.777C218.898 797.777 220.249 796.518 220.23 795.001C220.249 793.447 218.898 792.207 217.27 792.188C215.623 792.207 214.272 793.447 214.272 795.001ZM237.143 811.951C237.143 814.69 235.256 816.114 233.258 816.133C231.111 816.114 229.742 814.634 229.742 812.247V800.404H224.264V813.209C224.264 817.909 227.022 820.759 231.037 820.759C234.072 820.759 236.237 819.205 237.143 816.873H237.366V820.5H242.621V800.404H237.143V811.951ZM246.877 820.5H252.354V808.435C252.336 806.159 253.779 804.66 255.648 804.66C257.517 804.66 258.775 805.937 258.757 807.917V820.5H264.086V808.213C264.067 806.085 265.289 804.66 267.343 804.66C269.138 804.66 270.507 805.771 270.488 808.065V820.5H275.966V806.992C275.966 802.606 273.357 800.145 269.637 800.145C266.695 800.145 264.4 801.644 263.568 803.92H263.383C262.717 801.607 260.663 800.145 257.905 800.145C255.204 800.145 253.168 801.57 252.317 803.92H252.095V800.404H246.877V820.5Z" fill="#6B6B6B"/>
<path d="M1312.2 776.266H1310.47V790.406H1312.2V783.047H1314.38V781.625H1312.2V776.266ZM1301.72 786.953H1302.89C1305.44 786.953 1307.34 786.891 1309.53 786.516L1309.33 785.047C1307.39 785.383 1305.65 785.492 1303.45 785.5V779.016H1308.33V777.609H1301.72V786.953ZM1326.11 776.281H1324.38V784.672H1326.11V781.172H1328.09V779.719H1326.11V776.281ZM1315.5 778.391H1320.25V779.828H1315.52V784.078H1316.67C1319.46 784.086 1321.3 784.016 1323.41 783.625L1323.22 782.25C1321.3 782.578 1319.64 782.648 1317.25 782.656V781.141H1321.95V777H1315.5V778.391ZM1316.97 790.219H1326.11V785.297H1316.97V790.219ZM1318.67 788.812V786.656H1324.41V788.812H1318.67ZM1334.41 778.688V778.641H1337.3V777.234H1329.64V778.641H1332.53V778.688C1332.53 779.969 1331.4 781.141 1329.2 781.594L1329.89 782.969C1331.66 782.625 1332.86 781.766 1333.48 780.641C1334.1 781.688 1335.28 782.445 1336.98 782.766L1337.67 781.359C1335.51 781.016 1334.39 779.945 1334.41 778.688ZM1328.81 783.828L1329.03 785.266C1330.11 785.266 1331.34 785.258 1332.62 785.211V789.953H1334.38V785.117C1335.61 785.031 1336.88 784.898 1338.09 784.688L1337.97 783.406C1334.95 783.828 1331.45 783.836 1328.81 783.828ZM1338.89 790.375H1340.61V776.281H1338.89V790.375ZM1350.78 779.328H1353.08V777.953H1350.78V776.453H1349.14V777.953H1346.81V779.328H1349.14C1349.12 780.922 1348.24 782.5 1346.44 783.203L1347.28 784.484C1348.61 783.961 1349.5 782.969 1350 781.766C1350.5 782.852 1351.39 783.742 1352.69 784.219L1353.47 782.922C1351.68 782.266 1350.78 780.805 1350.78 779.328ZM1348.17 788.969L1348.78 790.312C1351.04 789.992 1352.79 788.984 1353.66 787.586C1354.53 788.984 1356.28 789.992 1358.55 790.312L1359.16 788.969C1356.34 788.594 1354.52 787.062 1354.53 785.453V785.172H1352.8V785.453C1352.78 787.062 1351 788.594 1348.17 788.969ZM1353.84 784.594H1355.48V781.156H1356.84V785.812H1358.5V776.281H1356.84V779.734H1355.48V776.516H1353.84V784.594ZM1371.31 776.266H1369.58V790.391H1371.31V783.109H1373.48V781.641H1371.31V776.266ZM1360.75 787.078H1367.53V777.422H1365.8V780.953H1362.47V777.422H1360.75V787.078ZM1362.47 785.656V782.312H1365.8V785.656H1362.47ZM1382.25 777.234H1375.19V778.641H1380.55C1380.55 779.047 1380.54 779.508 1380.5 780.031L1374.86 780.297L1375.11 781.75L1380.38 781.281C1380.31 781.867 1380.21 782.5 1380.07 783.195C1377.95 783.297 1375.84 783.32 1373.98 783.328L1374.2 784.734C1375.3 784.734 1376.48 784.727 1377.7 784.688V789.594H1379.45V784.617C1380.81 784.539 1382.2 784.422 1383.55 784.234L1383.42 782.953C1382.9 783.008 1382.36 783.055 1381.81 783.094C1382.25 780.742 1382.25 779.125 1382.25 778.016V777.234ZM1384.31 790.391H1386.06V776.266H1384.31V790.391ZM1403.06 779.703H1395.08V778.172H1402.94V776.766H1393.34V781.078H1397.27V782.156H1391.7V783.531H1404.58V782.156H1399V781.078H1403.06V779.703ZM1393.22 785.719H1401.27V786.656H1393.23V790.25H1403.36V788.922H1394.94V787.875H1402.97V784.438H1393.22V785.719ZM1417.3 776.266H1415.58V790.406H1417.3V776.266ZM1406.3 778.906H1411.19V781.422H1406.31V787.062H1407.55C1410.09 787.07 1412.2 786.977 1414.59 786.562L1414.44 785.141C1412.23 785.508 1410.32 785.625 1408.09 785.641V782.797H1412.95V777.5H1406.3V778.906ZM1430.8 780.266H1422.73V776.781H1421.02V781.641H1430.8V780.266ZM1419.34 784.656H1432.25V783.281H1419.34V784.656ZM1420.89 790.062H1430.89V788.656H1422.62V785.906H1420.89V790.062ZM1449.89 787.234H1444.23V783.969H1442.52V787.234H1436.98V788.641H1449.89V787.234ZM1437.36 782.875L1438.11 784.312C1440.49 783.867 1442.43 782.484 1443.36 780.641C1444.3 782.492 1446.26 783.859 1448.64 784.312L1449.39 782.875C1446.41 782.398 1444.28 780.289 1444.28 778.156V777.125H1442.44V778.156C1442.43 780.281 1440.31 782.398 1437.36 782.875ZM1462.58 776.266H1460.86V790.406H1462.58V776.266ZM1451.58 778.906H1456.47V781.422H1451.59V787.062H1452.83C1455.37 787.07 1457.48 786.977 1459.88 786.562L1459.72 785.141C1457.52 785.508 1455.6 785.625 1453.38 785.641V782.797H1458.23V777.5H1451.58V778.906ZM1475.7 776.266H1473.97V790.359H1475.7V783.234H1477.8V781.781H1475.7V776.266ZM1464.56 786.5L1465.55 787.844C1470.24 785.531 1471.96 781.883 1471.97 777.734H1465.33V779.172H1470.2C1469.86 782.391 1468 784.781 1464.56 786.5ZM1445.52 805.922H1432.62V807.297H1445.52V805.922ZM1434.14 809.578H1442.19V810.562H1434.16V814.25H1444.28V812.891H1435.86V811.812H1443.89V808.266H1434.14V809.578ZM1434.27 805.016H1443.98V803.641H1436V802.016H1443.86V800.625H1434.27V805.016ZM1458.19 800.281H1456.47V810.672H1458.19V800.281ZM1447.17 802.625H1451.97V804.281H1447.2V808.797H1448.41C1451.3 808.797 1453.15 808.727 1455.28 808.328L1455.09 806.938C1453.15 807.297 1451.46 807.375 1448.91 807.375V805.594H1453.69V801.234H1447.17V802.625ZM1448.78 814.109H1458.58V812.703H1450.53V809.828H1448.78V814.109ZM1471.34 800.266H1469.61V814.406H1471.34V807.047H1473.52V805.625H1471.34V800.266ZM1460.86 810.953H1462.03C1464.58 810.953 1466.48 810.891 1468.67 810.516L1468.47 809.047C1466.53 809.383 1464.79 809.492 1462.59 809.5V803.016H1467.47V801.609H1460.86V810.953ZM1475.83 813.125C1476.48 813.125 1477.03 812.578 1477.03 811.906C1477.03 811.25 1476.48 810.711 1475.83 810.703C1475.16 810.711 1474.6 811.25 1474.61 811.906C1474.6 812.578 1475.16 813.125 1475.83 813.125ZM1386.39 837.156C1389.11 837.156 1390.73 835.055 1390.73 831.344C1390.73 827.656 1389.1 825.531 1386.39 825.531C1383.68 825.531 1382.04 827.656 1382.05 831.344C1382.04 835.047 1383.66 837.156 1386.39 837.156ZM1384.09 831.344C1384.1 828.648 1384.98 827.227 1386.39 827.219C1387.8 827.227 1388.68 828.648 1388.69 831.344C1388.69 834.062 1387.8 835.445 1386.39 835.453C1384.97 835.445 1384.09 834.062 1384.09 831.344ZM1397.03 825.688H1395.08L1392.28 827.5V829.359L1394.92 827.672H1394.98V837H1397.03V825.688ZM1399.78 837H1407.64V835.297H1402.61V835.219L1404.62 833.219C1406.85 831.117 1407.46 830.086 1407.47 828.812C1407.46 826.914 1405.91 825.531 1403.59 825.531C1401.34 825.531 1399.73 826.922 1399.73 829.062H1401.67C1401.66 827.914 1402.41 827.188 1403.58 827.188C1404.68 827.188 1405.52 827.852 1405.52 828.906C1405.52 829.859 1404.92 830.531 1403.78 831.672L1399.78 835.531V837ZM1413.53 837.156C1415.98 837.156 1417.77 835.773 1417.75 833.859C1417.77 832.438 1416.86 831.414 1415.27 831.203V831.109C1416.5 830.852 1417.34 829.938 1417.33 828.672C1417.34 826.938 1415.86 825.531 1413.56 825.531C1411.35 825.531 1409.62 826.836 1409.58 828.734H1411.53C1411.57 827.781 1412.48 827.188 1413.55 827.188C1414.65 827.188 1415.37 827.828 1415.36 828.781C1415.37 829.766 1414.53 830.438 1413.33 830.438H1412.31V832H1413.33C1414.8 832.008 1415.67 832.734 1415.67 833.75C1415.67 834.758 1414.77 835.445 1413.53 835.438C1412.35 835.445 1411.45 834.844 1411.39 833.938H1409.34C1409.39 835.844 1411.12 837.156 1413.53 837.156ZM1419.33 834.891H1424.81V837H1426.75V834.891H1428.23V833.219H1426.75V825.688H1424.22L1419.33 833.266V834.891ZM1421.41 833.219V833.141L1424.72 828H1424.84V833.219H1421.41ZM1433.88 837.156C1436.32 837.156 1438.02 835.539 1438.02 833.281C1438.02 831.102 1436.46 829.539 1434.36 829.531C1433.43 829.539 1432.61 829.898 1432.17 830.391H1432.06L1432.41 827.391H1437.42V825.688H1430.73L1430.05 832.094H1431.94C1432.29 831.43 1432.93 831.117 1433.81 831.125C1435.12 831.133 1436.05 832.047 1436.05 833.344C1436.05 834.594 1435.14 835.508 1433.88 835.516C1432.8 835.508 1431.94 834.852 1431.88 833.938H1429.89C1429.95 835.805 1431.62 837.156 1433.88 837.156ZM1443.97 837.156C1446.47 837.172 1448.15 835.5 1448.14 833.25C1448.15 831.109 1446.58 829.57 1444.55 829.578C1443.3 829.57 1442.22 830.148 1441.64 831.125H1441.53C1441.54 828.742 1442.45 827.289 1444.09 827.297C1445.12 827.289 1445.81 827.867 1446.02 828.734H1448.03C1447.77 826.898 1446.27 825.531 1444.09 825.531C1441.32 825.531 1439.56 827.789 1439.56 831.656C1439.55 835.828 1441.76 837.141 1443.97 837.156ZM1441.75 833.312C1441.77 832.133 1442.73 831.125 1444 831.125C1445.26 831.125 1446.16 832.094 1446.17 833.297C1446.16 834.539 1445.23 835.508 1443.97 835.516C1442.69 835.508 1441.77 834.492 1441.75 833.312ZM1450.28 837H1452.39L1457.3 827.422V825.688H1449.5V827.391H1455.19V827.469L1450.28 837ZM1462.83 837.156C1465.33 837.156 1467.12 835.812 1467.12 833.969C1467.12 832.531 1466.04 831.359 1464.69 831.141V831.078C1465.86 830.828 1466.69 829.805 1466.69 828.562C1466.69 826.812 1465.05 825.531 1462.83 825.531C1460.59 825.531 1458.96 826.812 1458.95 828.562C1458.96 829.797 1459.77 830.828 1460.95 831.078V831.141C1459.59 831.359 1458.52 832.531 1458.53 833.969C1458.52 835.812 1460.3 837.156 1462.83 837.156ZM1460.62 833.781C1460.62 832.711 1461.55 831.93 1462.83 831.938C1464.1 831.93 1465.02 832.719 1465.03 833.781C1465.02 834.828 1464.16 835.547 1462.83 835.547C1461.48 835.547 1460.62 834.828 1460.62 833.781ZM1460.94 828.75C1460.95 827.789 1461.7 827.125 1462.83 827.125C1463.94 827.125 1464.7 827.789 1464.7 828.75C1464.7 829.742 1463.91 830.422 1462.83 830.422C1461.73 830.422 1460.95 829.742 1460.94 828.75ZM1472.83 825.531C1470.32 825.516 1468.66 827.195 1468.66 829.406C1468.66 831.547 1470.23 833.086 1472.25 833.078C1473.49 833.086 1474.59 832.5 1475.16 831.516H1475.28C1475.27 833.945 1474.34 835.391 1472.7 835.391C1471.68 835.391 1470.98 834.82 1470.78 833.922H1468.77C1469.02 835.797 1470.52 837.156 1472.7 837.156C1475.48 837.156 1477.25 834.898 1477.25 831C1477.24 826.867 1475.04 825.547 1472.83 825.531ZM1470.64 829.359C1470.62 828.148 1471.57 827.18 1472.84 827.172C1474.11 827.18 1475.03 828.195 1475.03 829.344C1475.04 830.516 1474.07 831.531 1472.81 831.531C1471.55 831.531 1470.64 830.578 1470.64 829.359Z" fill="black"/>
<path d="M150.802 935.866H156.131C156.057 931.129 152.153 927.836 146.213 927.836C140.347 927.836 136.054 931.074 136.072 935.94C136.072 939.863 138.848 942.121 143.363 943.231L146.287 943.934C149.211 944.656 150.876 945.507 150.876 947.339C150.876 949.338 148.989 950.707 146.065 950.707C143.104 950.707 140.958 949.338 140.773 946.636H135.369C135.536 952.391 139.662 955.389 146.139 955.37C152.671 955.389 156.483 952.243 156.501 947.339C156.483 942.88 153.06 940.548 148.47 939.493L146.065 938.901C143.752 938.383 141.753 937.513 141.772 935.57C141.79 933.794 143.363 932.499 146.176 932.499C148.896 932.499 150.58 933.738 150.802 935.866ZM160.017 955H165.494V942.935C165.476 940.659 166.919 939.16 168.788 939.16C170.657 939.16 171.916 940.437 171.897 942.417V955H177.226V942.713C177.208 940.585 178.429 939.16 180.483 939.16C182.278 939.16 183.647 940.271 183.629 942.565V955H189.106V941.492C189.106 937.106 186.497 934.645 182.778 934.645C179.835 934.645 177.541 936.144 176.708 938.42H176.523C175.857 936.107 173.803 934.645 171.046 934.645C168.344 934.645 166.309 936.07 165.457 938.42H165.235V934.904H160.017V955ZM192.363 949.375C192.381 953.353 195.213 955.389 199.061 955.37C202.041 955.389 203.965 954.075 204.946 952.224H205.094V955H210.275V941.455C210.294 936.607 206.149 934.645 201.763 934.645C196.434 934.645 193.399 937.384 193.066 940.863H198.284C198.58 939.493 199.746 938.661 201.615 938.642C203.669 938.661 204.816 939.623 204.835 941.307V942.935C203.984 942.972 201.282 943.102 199.839 943.194C195.971 943.435 192.381 944.897 192.363 949.375ZM197.618 949.227C197.618 947.672 198.821 946.766 200.727 946.599C201.652 946.525 204.002 946.395 204.835 946.358V947.82C204.853 949.948 203.114 951.577 200.616 951.595C198.858 951.577 197.618 950.762 197.618 949.227ZM219.934 928.206H214.457V955H219.934V928.206ZM229.668 928.206H224.19V955H229.668V928.206Z" fill="#6B6B6B"/>
<path d="M1316.38 926.947H1315.08V937.555H1316.38V932.034H1318.01V930.967H1316.38V926.947ZM1308.52 934.964H1309.4C1311.31 934.964 1312.73 934.918 1314.38 934.636L1314.22 933.534C1312.77 933.786 1311.46 933.868 1309.82 933.874V929.01H1313.47V927.955H1308.52V934.964ZM1326.81 926.959H1325.51V933.253H1326.81V930.627H1328.3V929.537H1326.81V926.959ZM1318.85 928.541H1322.42V929.619H1318.87V932.808H1319.73C1321.83 932.814 1323.21 932.761 1324.79 932.468L1324.65 931.436C1323.2 931.682 1321.96 931.735 1320.17 931.741V930.604H1323.7V927.498H1318.85V928.541ZM1319.96 937.414H1326.81V933.722H1319.96V937.414ZM1321.23 936.359V934.742H1325.54V936.359H1321.23ZM1333.04 928.764V928.729H1335.21V927.674H1329.46V928.729H1331.63V928.764C1331.63 929.725 1330.78 930.604 1329.13 930.944L1329.65 931.975C1330.97 931.718 1331.88 931.073 1332.34 930.229C1332.81 931.014 1333.69 931.583 1334.97 931.823L1335.49 930.768C1333.86 930.51 1333.03 929.707 1333.04 928.764ZM1328.84 932.62L1329.01 933.699C1329.81 933.699 1330.73 933.693 1331.7 933.657V937.215H1333.01V933.587C1333.94 933.523 1334.89 933.423 1335.8 933.265L1335.71 932.304C1333.45 932.62 1330.82 932.626 1328.84 932.62ZM1336.4 937.532H1337.69V926.959H1336.4V937.532ZM1345.32 929.244H1347.05V928.213H1345.32V927.087H1344.09V928.213H1342.35V929.244H1344.09C1344.08 930.44 1343.42 931.624 1342.06 932.151L1342.7 933.112C1343.69 932.72 1344.36 931.975 1344.74 931.073C1345.11 931.888 1345.78 932.556 1346.75 932.913L1347.34 931.94C1346 931.448 1345.32 930.352 1345.32 929.244ZM1343.36 936.477L1343.82 937.485C1345.52 937.244 1346.83 936.488 1347.48 935.439C1348.14 936.488 1349.45 937.244 1351.15 937.485L1351.61 936.477C1349.49 936.195 1348.13 935.047 1348.14 933.839V933.628H1346.83V933.839C1346.82 935.047 1345.49 936.195 1343.36 936.477ZM1347.62 933.194H1348.85V930.616H1349.87V934.109H1351.11V926.959H1349.87V929.549H1348.85V927.134H1347.62V933.194ZM1360.72 926.947H1359.42V937.543H1360.72V932.081H1362.35V930.979H1360.72V926.947ZM1352.8 935.058H1357.89V927.814H1356.59V930.463H1354.09V927.814H1352.8V935.058ZM1354.09 933.992V931.483H1356.59V933.992H1354.09ZM1368.93 927.674H1363.63V928.729H1367.66C1367.66 929.033 1367.65 929.379 1367.62 929.772L1363.39 929.971L1363.57 931.061L1367.53 930.709C1367.48 931.149 1367.4 931.624 1367.29 932.145C1365.71 932.222 1364.12 932.239 1362.73 932.245L1362.89 933.3C1363.71 933.3 1364.6 933.294 1365.52 933.265V936.945H1366.83V933.212C1367.85 933.153 1368.89 933.066 1369.9 932.925L1369.81 931.964C1369.42 932.005 1369.01 932.04 1368.6 932.069C1368.93 930.305 1368.93 929.092 1368.93 928.26V927.674ZM1370.48 937.543H1371.79V926.947H1370.48V937.543ZM1384.54 929.526H1378.55V928.377H1384.45V927.322H1377.25V930.557H1380.19V931.366H1376.02V932.397H1385.68V931.366H1381.5V930.557H1384.54V929.526ZM1377.16 934.038H1383.2V934.742H1377.17V937.438H1384.77V936.441H1378.45V935.656H1384.47V933.077H1377.16V934.038ZM1395.22 926.947H1393.93V937.555H1395.22V926.947ZM1386.97 928.928H1390.64V930.815H1386.98V935.047H1387.91C1389.81 935.052 1391.39 934.982 1393.19 934.671L1393.08 933.605C1391.42 933.88 1389.99 933.968 1388.32 933.98V931.846H1391.96V927.873H1386.97V928.928ZM1405.35 929.948H1399.3V927.334H1398.01V930.979H1405.35V929.948ZM1396.76 933.241H1406.44V932.21H1396.76V933.241ZM1397.92 937.297H1405.42V936.242H1399.22V934.179H1397.92V937.297ZM1419.67 935.175H1415.43V932.726H1414.14V935.175H1409.99V936.23H1419.67V935.175ZM1410.27 931.905L1410.83 932.983C1412.62 932.649 1414.08 931.612 1414.77 930.229C1415.48 931.618 1416.95 932.644 1418.74 932.983L1419.3 931.905C1417.06 931.548 1415.46 929.965 1415.46 928.365V927.592H1414.08V928.365C1414.08 929.959 1412.49 931.548 1410.27 931.905ZM1429.19 926.947H1427.9V937.555H1429.19V926.947ZM1420.94 928.928H1424.61V930.815H1420.95V935.047H1421.88C1423.78 935.052 1425.36 934.982 1427.16 934.671L1427.05 933.605C1425.39 933.88 1423.96 933.968 1422.29 933.98V931.846H1425.93V927.873H1420.94V928.928ZM1439.04 926.947H1437.74V937.52H1439.04V932.175H1440.61V931.085H1439.04V926.947ZM1430.68 934.625L1431.42 935.633C1434.94 933.898 1436.23 931.161 1436.24 928.049H1431.25V929.127H1434.91C1434.65 931.542 1433.26 933.335 1430.68 934.625ZM1453.63 931.19H1443.96V932.222H1453.63V931.19ZM1445.1 933.933H1451.13V934.671H1445.11V937.438H1452.7V936.418H1446.39V935.609H1452.41V932.948H1445.1V933.933ZM1445.19 930.51H1452.48V929.479H1446.49V928.26H1452.39V927.216H1445.19V930.51ZM1463.14 926.959H1461.85V934.753H1463.14V926.959ZM1454.87 928.717H1458.47V929.959H1454.9V933.347H1455.8C1457.97 933.347 1459.36 933.294 1460.96 932.995L1460.82 931.952C1459.36 932.222 1458.09 932.28 1456.17 932.28V930.944H1459.76V927.674H1454.87V928.717ZM1456.08 937.332H1463.43V936.277H1457.39V934.12H1456.08V937.332ZM1473.01 926.947H1471.71V937.555H1473.01V932.034H1474.64V930.967H1473.01V926.947ZM1465.14 934.964H1466.02C1467.93 934.964 1469.36 934.918 1471 934.636L1470.85 933.534C1469.4 933.786 1468.09 933.868 1466.44 933.874V929.01H1470.1V927.955H1465.14V934.964ZM1476.37 936.594C1476.86 936.594 1477.27 936.184 1477.27 935.679C1477.27 935.187 1476.86 934.783 1476.37 934.777C1475.87 934.783 1475.45 935.187 1475.46 935.679C1475.45 936.184 1475.87 936.594 1476.37 936.594ZM1409.28 954.617C1411.32 954.617 1412.53 953.041 1412.53 950.257C1412.53 947.49 1411.31 945.896 1409.28 945.896C1407.24 945.896 1406.01 947.49 1406.02 950.257C1406.01 953.035 1407.23 954.617 1409.28 954.617ZM1407.55 950.257C1407.56 948.235 1408.21 947.168 1409.28 947.162C1410.34 947.168 1410.99 948.235 1411 950.257C1411 952.296 1410.34 953.334 1409.28 953.34C1408.21 953.334 1407.55 952.296 1407.55 950.257ZM1417.26 946.014H1415.79L1413.69 947.373V948.768L1415.68 947.502H1415.72V954.5H1417.26V946.014ZM1419.32 954.5H1425.22V953.222H1421.44V953.164L1422.95 951.663C1424.63 950.087 1425.08 949.313 1425.09 948.358C1425.08 946.934 1423.92 945.896 1422.18 945.896C1420.49 945.896 1419.28 946.94 1419.29 948.545H1420.74C1420.73 947.684 1421.3 947.139 1422.17 947.139C1423 947.139 1423.62 947.637 1423.62 948.428C1423.62 949.143 1423.18 949.647 1422.32 950.503L1419.32 953.398V954.5ZM1429.64 954.617C1431.47 954.617 1432.81 953.58 1432.8 952.144C1432.81 951.077 1432.13 950.309 1430.94 950.151V950.081C1431.86 949.888 1432.5 949.202 1432.48 948.252C1432.5 946.951 1431.38 945.896 1429.66 945.896C1428 945.896 1426.71 946.875 1426.67 948.299H1428.14C1428.17 947.584 1428.85 947.139 1429.65 947.139C1430.47 947.139 1431.01 947.619 1431.01 948.334C1431.01 949.073 1430.39 949.577 1429.48 949.577H1428.72V950.749H1429.48C1430.59 950.755 1431.24 951.3 1431.24 952.062C1431.24 952.818 1430.57 953.334 1429.64 953.328C1428.75 953.334 1428.07 952.882 1428.03 952.203H1426.49C1426.53 953.633 1427.83 954.617 1429.64 954.617ZM1433.99 952.918H1438.1V954.5H1439.55V952.918H1440.67V951.663H1439.55V946.014H1437.65L1433.99 951.699V952.918ZM1435.54 951.663V951.605L1438.03 947.748H1438.12V951.663H1435.54ZM1444.9 954.617C1446.73 954.617 1448.01 953.404 1448 951.71C1448.01 950.075 1446.84 948.903 1445.26 948.897C1444.56 948.903 1443.95 949.172 1443.62 949.542H1443.54L1443.8 947.291H1447.56V946.014H1442.54L1442.03 950.819H1443.44C1443.71 950.321 1444.19 950.087 1444.85 950.093C1445.83 950.099 1446.53 950.784 1446.53 951.757C1446.53 952.695 1445.85 953.381 1444.9 953.386C1444.1 953.381 1443.44 952.888 1443.4 952.203H1441.91C1441.96 953.603 1443.2 954.617 1444.9 954.617ZM1452.47 954.617C1454.35 954.629 1455.61 953.375 1455.6 951.687C1455.61 950.081 1454.43 948.926 1452.9 948.932C1451.97 948.926 1451.16 949.36 1450.72 950.093H1450.64C1450.65 948.305 1451.33 947.215 1452.56 947.221C1453.34 947.215 1453.85 947.649 1454.01 948.299H1455.52C1455.32 946.922 1454.2 945.896 1452.56 945.896C1450.48 945.896 1449.16 947.59 1449.16 950.491C1449.16 953.621 1450.81 954.605 1452.47 954.617ZM1450.81 951.734C1450.82 950.849 1451.54 950.093 1452.49 950.093C1453.44 950.093 1454.12 950.819 1454.12 951.722C1454.12 952.654 1453.41 953.381 1452.47 953.386C1451.51 953.381 1450.82 952.619 1450.81 951.734ZM1457.21 954.5H1458.79L1462.47 947.315V946.014H1456.62V947.291H1460.89V947.35L1457.21 954.5ZM1466.62 954.617C1468.49 954.617 1469.84 953.609 1469.84 952.226C1469.84 951.148 1469.03 950.268 1468.01 950.104V950.057C1468.89 949.87 1469.51 949.102 1469.51 948.17C1469.51 946.857 1468.28 945.896 1466.62 945.896C1464.94 945.896 1463.72 946.857 1463.71 948.17C1463.72 949.096 1464.32 949.87 1465.21 950.057V950.104C1464.19 950.268 1463.39 951.148 1463.39 952.226C1463.39 953.609 1464.73 954.617 1466.62 954.617ZM1464.97 952.085C1464.96 951.282 1465.66 950.696 1466.62 950.702C1467.57 950.696 1468.27 951.288 1468.27 952.085C1468.27 952.871 1467.61 953.41 1466.62 953.41C1465.61 953.41 1464.96 952.871 1464.97 952.085ZM1465.2 948.311C1465.21 947.59 1465.77 947.092 1466.62 947.092C1467.45 947.092 1468.02 947.59 1468.02 948.311C1468.02 949.055 1467.43 949.565 1466.62 949.565C1465.79 949.565 1465.21 949.055 1465.2 948.311ZM1474.12 945.896C1472.24 945.885 1470.99 947.145 1470.99 948.803C1471 950.409 1472.17 951.564 1473.69 951.558C1474.62 951.564 1475.44 951.124 1475.87 950.386H1475.96C1475.95 952.208 1475.26 953.293 1474.03 953.293C1473.26 953.293 1472.74 952.865 1472.58 952.191H1471.07C1471.26 953.597 1472.39 954.617 1474.03 954.617C1476.11 954.617 1477.44 952.923 1477.44 949.999C1477.43 946.898 1475.78 945.908 1474.12 945.896ZM1472.48 948.768C1472.47 947.86 1473.18 947.133 1474.13 947.127C1475.08 947.133 1475.77 947.895 1475.77 948.756C1475.78 949.636 1475.05 950.397 1474.11 950.397C1473.16 950.397 1472.48 949.682 1472.48 948.768Z" fill="black"/>
</svg>
