<svg width="1624" height="1104" viewBox="0 0 1624 1104" fill="none" xmlns="http://www.w3.org/2000/svg">
<rect width="1624" height="1104" rx="32" fill="#F5F5F5"/>
<line x1="75" y1="123.5" x2="1554" y2="123.5" stroke="#898989" stroke-opacity="0.3"/>
<line x1="94" y1="1020.5" x2="1536" y2="1020.5" stroke="#898989" stroke-opacity="0.3"/>
<path d="M141.402 348.706H135.073L143.326 362.103L134.925 375.5H141.328L146.879 366.285H147.064L152.615 375.5H159.055L150.691 362.103L158.87 348.706H152.578L147.064 357.921H146.879L141.402 348.706ZM167.382 348.706H161.053L169.306 362.103L160.905 375.5H167.308L172.859 366.285H173.044L178.596 375.5H185.035L176.671 362.103L184.85 348.706H178.559L173.044 357.921H172.859L167.382 348.706ZM193.362 348.706H187.034L195.287 362.103L186.886 375.5H193.288L198.839 366.285H199.024L204.576 375.5H211.015L202.651 362.103L210.83 348.706H204.539L199.024 357.921H198.839L193.362 348.706ZM214.198 375.5H231.296V370.911H219.749V348.706H214.198V375.5Z" fill="#6B6B6B"/>
<path d="M799.03 303.646H792.715V348.637H799.03V325.451H805.64V320.32H799.03V303.646ZM765.385 337.735H769.183C777.101 337.759 783.219 337.587 790.199 336.403L789.509 331.124C783.539 332.16 778.162 332.505 771.65 332.555V312.871H786.45V307.79H765.385V337.735ZM842.887 303.695H836.572V330.335H842.887V319.531H848.955V314.302H842.887V303.695ZM808.847 310.898H823.351V314.795H808.896V328.707H812.695C821.797 328.707 827.569 328.485 834.007 327.227L833.316 322.293C827.594 323.305 822.562 323.527 815.162 323.576V319.531H829.468V305.866H808.847V310.898ZM813.484 348.045H842.887V332.209H813.484V348.045ZM819.651 343.013V337.143H836.72V343.013H819.651ZM878.16 306.704H853.493V311.786H862.373C862.201 315.436 858.994 318.84 852.063 320.172L854.48 325.155C860.129 324.143 863.853 321.578 865.851 318.174C867.825 321.331 871.451 323.601 876.877 324.563L879.344 319.481C872.511 318.47 869.379 315.362 869.231 311.786H878.16V306.704ZM851.027 327.523L851.816 332.703C855.097 332.703 858.821 332.653 862.719 332.505V347.157H868.984V332.16C872.733 331.889 876.532 331.469 880.232 330.828L879.837 326.24C870.365 327.523 859.315 327.523 851.027 327.523ZM882.551 348.539H888.767V303.695H882.551V348.539ZM927.296 308.628H920.389V304.188H914.42V308.628H907.464V313.611H914.42C914.37 318.421 911.83 323.083 906.181 325.253L909.141 329.792C913.236 328.287 915.949 325.401 917.528 321.874C919.131 325.056 921.82 327.646 925.816 329.052L928.628 324.365C922.979 322.392 920.414 318.1 920.389 313.611H927.296V308.628ZM911.657 343.457L913.877 348.341C921.178 347.355 926.457 344.296 929.244 340.103C932.007 344.296 937.261 347.355 944.612 348.341L946.782 343.457C937.236 342.249 932.352 337.365 932.377 332.653V331.913H926.062V332.653C926.062 337.365 921.252 342.249 911.657 343.457ZM929.318 330.088H935.238V319.531H938.84V334.035H944.809V303.695H938.84V314.4H935.238V304.386H929.318V330.088ZM985.311 303.646H978.997V348.539H985.311V325.697H991.922V320.419H985.311V303.646ZM951.321 338.129H973.175V307.198H966.91V318.15H957.586V307.198H951.321V338.129ZM957.586 333.048V323.033H966.91V333.048H957.586ZM1019.75 306.556H997.003V311.588H1013.55C1013.53 312.797 1013.51 314.104 1013.41 315.584L995.918 316.324L996.757 321.504L1012.96 320.098C1012.74 321.775 1012.42 323.601 1012.03 325.574C1005.49 325.87 998.952 325.919 993.254 325.944L994.043 331.025C997.398 331.025 1000.97 331.001 1004.7 330.902V346.072H1011.01V330.606C1015.18 330.359 1019.4 329.989 1023.54 329.397L1023.1 324.76C1021.55 324.933 1019.97 325.056 1018.36 325.179C1019.7 317.977 1019.7 313.019 1019.75 309.319V306.556ZM1025.67 348.539H1032.03V303.646H1025.67V348.539ZM1085.01 314.006H1060.25V310.158H1084.67V305.126H1053.98V318.939H1066.17V321.899H1048.85V326.881H1089.8V321.899H1072.48V318.939H1085.01V314.006ZM1053.59 333.936H1078.6V336.353H1053.64V348.193H1086V343.408H1059.8V340.744H1084.82V329.299H1053.59V333.936ZM1130.15 303.646H1123.89V348.637H1130.15V303.646ZM1094.88 312.476H1109.83V319.728H1094.93V338.129H1098.97C1107.16 338.129 1113.85 337.858 1121.22 336.551L1120.68 331.469C1114.1 332.555 1108.3 332.9 1101.44 332.949V324.711H1116.24V307.395H1094.88V312.476ZM1172.63 315.88H1147.52V305.224H1141.25V320.813H1172.63V315.88ZM1136.12 330.581H1177.22V325.648H1136.12V330.581ZM1140.86 347.552H1172.92V342.52H1147.17V334.232H1140.86V347.552ZM1232.57 338.129H1214.91V327.967H1208.64V338.129H1191.47V343.161H1232.57V338.129ZM1192.46 324.168L1195.12 329.397C1202.97 327.991 1208.81 323.724 1211.75 318.15C1214.71 323.749 1220.58 327.967 1228.47 329.397L1231.14 324.168C1220.88 322.589 1215.08 315.831 1215.1 309.418V306.211H1208.4V309.418C1208.35 315.757 1202.62 322.589 1192.46 324.168ZM1272.77 303.646H1266.51V348.637H1272.77V303.646ZM1237.5 312.476H1252.45V319.728H1237.55V338.129H1241.6C1249.79 338.129 1256.47 337.858 1263.85 336.551L1263.3 331.469C1256.72 332.555 1250.92 332.9 1244.06 332.949V324.711H1258.86V307.395H1237.5V312.476ZM1314.21 303.646H1307.9V348.44H1314.21V326.043H1320.58V320.863H1314.21V303.646ZM1278.3 335.86L1281.85 340.695C1296.95 333.27 1302.18 321.652 1302.23 308.234H1280.87V313.364H1295.84C1294.65 323.379 1288.93 330.532 1278.3 335.86ZM1375.14 321.159H1334.1V326.092H1375.14V321.159ZM1338.83 333.492H1363.84V336.008H1338.88V348.144H1371.24V343.26H1345.05V340.497H1370.06V328.756H1338.83V333.492ZM1339.23 318.692H1370.26V313.759H1345.49V309.566H1369.91V304.534H1339.23V318.692ZM1415.3 303.695H1409.03V336.748H1415.3V303.695ZM1380.07 311.638H1394.63V316.275H1380.12V331.025H1384.07C1393.57 331.025 1399.39 330.779 1405.92 329.545L1405.23 324.513C1399.41 325.623 1394.33 325.87 1386.29 325.895V320.912H1400.89V306.606H1380.07V311.638ZM1385.11 347.749H1416.48V342.717H1391.37V333.985H1385.11V347.749ZM1456.84 303.646H1450.52V348.637H1456.84V325.451H1463.45V320.32H1456.84V303.646ZM1423.19 337.735H1426.99C1434.91 337.759 1441.02 337.587 1448.01 336.403L1447.31 331.124C1441.35 332.16 1435.97 332.505 1429.46 332.555V312.871H1444.26V307.79H1423.19V337.735ZM1470.9 344.444C1473.09 344.444 1474.99 342.594 1474.99 340.3C1474.99 338.031 1473.09 336.181 1470.9 336.205C1468.58 336.181 1466.7 338.031 1466.75 340.3C1466.7 342.594 1468.58 344.444 1470.9 344.444ZM1183.88 415.493C1192.81 415.493 1198.23 408.883 1198.23 397.141C1198.23 385.474 1192.78 378.79 1183.88 378.79C1174.97 378.79 1169.52 385.474 1169.52 397.141C1169.52 408.833 1174.92 415.493 1183.88 415.493ZM1177.12 397.141C1177.12 388.977 1179.76 384.882 1183.88 384.858C1188 384.882 1190.66 388.977 1190.64 397.141C1190.66 405.38 1188.02 409.376 1183.88 409.376C1179.73 409.376 1177.07 405.38 1177.12 397.141ZM1218.76 379.283H1211.75L1202.92 384.907V391.468L1211.11 386.338H1211.31V415H1218.76V379.283ZM1227.04 415H1252.6V408.883H1237.35V408.685L1242.78 403.407C1250.13 396.747 1252.1 393.417 1252.1 389.347C1252.1 383.156 1247.02 378.79 1239.38 378.79C1231.85 378.79 1226.67 383.254 1226.7 390.235H1233.75C1233.73 386.806 1235.92 384.685 1239.28 384.71C1242.56 384.685 1244.95 386.658 1244.95 389.84C1244.95 392.677 1243.15 394.65 1239.82 397.832L1226.99 409.623L1227.04 415ZM1271.1 415.493C1279.16 415.493 1284.96 411.103 1284.91 404.985C1284.96 400.521 1282.07 397.339 1276.82 396.697V396.401C1280.82 395.686 1283.6 392.849 1283.58 388.854C1283.6 383.205 1278.65 378.79 1271.2 378.79C1263.87 378.79 1258.34 383.057 1258.22 389.199H1265.33C1265.45 386.461 1268.04 384.685 1271.2 384.71C1274.35 384.685 1276.45 386.56 1276.43 389.298C1276.45 392.109 1273.98 394.033 1270.46 394.033H1267.15V399.509H1270.46C1274.65 399.534 1277.24 401.581 1277.21 404.492C1277.24 407.378 1274.7 409.351 1271.15 409.376C1267.69 409.351 1265.1 407.6 1264.98 404.936H1257.48C1257.63 411.177 1263.25 415.493 1271.1 415.493ZM1289.55 408.685H1306.91V415H1313.97V408.685H1318.51V402.716H1313.97V379.283H1304.64L1289.55 402.815V408.685ZM1297.05 402.716V402.42L1306.67 387.423H1307.01V402.716H1297.05ZM1336.46 415.493C1344.5 415.493 1349.98 410.338 1349.98 403.111C1349.98 396.253 1345.1 391.345 1338.54 391.369C1335.4 391.345 1332.69 392.627 1331.38 394.379H1331.09L1332.07 385.351H1347.96V379.283H1325.96L1324.03 399.855H1330.74C1331.8 397.857 1333.68 396.845 1336.36 396.845C1340.11 396.87 1342.8 399.509 1342.78 403.308C1342.8 407.033 1340.16 409.647 1336.46 409.623C1333.36 409.647 1330.81 407.723 1330.64 404.936H1323.44C1323.56 411.103 1329.01 415.493 1336.46 415.493ZM1368.83 415.493C1376.89 415.518 1382.37 410.313 1382.34 403.061C1382.37 396.327 1377.58 391.517 1371.14 391.517C1367.2 391.517 1363.67 393.367 1362.02 396.549H1361.67C1361.72 389.52 1364.26 385.154 1369.12 385.154C1372.01 385.154 1374.06 386.708 1374.65 389.199H1381.95C1381.23 383.328 1376.3 378.79 1369.12 378.79C1360.19 378.79 1354.45 385.918 1354.42 397.98C1354.4 411.053 1361.45 415.469 1368.83 415.493ZM1362.41 403.259C1362.46 399.781 1365.22 396.919 1368.88 396.895C1372.5 396.919 1375.14 399.682 1375.14 403.259C1375.14 406.86 1372.45 409.647 1368.78 409.623C1365.13 409.647 1362.46 406.761 1362.41 403.259ZM1388.86 415H1396.55L1411.6 385.45V379.283H1386.39V385.351H1403.9V385.598L1388.86 415ZM1429.26 415.493C1437.4 415.493 1443.27 411.201 1443.27 405.38C1443.27 400.891 1439.77 397.24 1435.43 396.549V396.303C1439.17 395.563 1441.91 392.331 1441.94 388.41C1441.91 382.86 1436.56 378.79 1429.26 378.79C1421.96 378.79 1416.61 382.86 1416.63 388.41C1416.61 392.331 1419.27 395.563 1423.14 396.303V396.549C1418.7 397.24 1415.25 400.891 1415.25 405.38C1415.25 411.201 1421.09 415.493 1429.26 415.493ZM1422.99 404.64C1422.97 401.532 1425.63 399.287 1429.26 399.263C1432.88 399.287 1435.55 401.557 1435.52 404.64C1435.55 407.699 1433.03 409.845 1429.26 409.82C1425.49 409.845 1422.97 407.699 1422.99 404.64ZM1423.88 389.15C1423.86 386.362 1426.05 384.414 1429.26 384.414C1432.44 384.414 1434.66 386.362 1434.69 389.15C1434.66 392.011 1432.39 394.009 1429.26 394.033C1426.1 394.009 1423.86 392.011 1423.88 389.15ZM1461.37 378.79C1453.31 378.765 1447.86 383.994 1447.86 391.172C1447.91 397.832 1452.64 402.667 1459.06 402.667C1463.03 402.667 1466.55 400.792 1468.23 397.635H1468.53C1468.5 404.763 1465.94 409.129 1461.08 409.129C1458.22 409.129 1456.17 407.575 1455.55 404.936H1448.25C1448.97 410.979 1453.9 415.493 1461.08 415.493C1470.06 415.493 1475.8 408.34 1475.78 396.204C1475.78 383.23 1468.77 378.814 1461.37 378.79ZM1455.11 390.975C1455.06 387.423 1457.77 384.636 1461.42 384.611C1465.07 384.636 1467.74 387.522 1467.79 390.925C1467.79 394.354 1465 397.24 1461.37 397.24C1457.7 397.24 1455.11 394.502 1455.11 390.975Z" fill="black"/>
<path d="M141.402 544.706H135.073L143.326 558.103L134.925 571.5H141.328L146.879 562.285H147.064L152.615 571.5H159.055L150.691 558.103L158.87 544.706H152.578L147.064 553.921H146.879L141.402 544.706ZM167.382 544.706H161.053L169.306 558.103L160.905 571.5H167.308L172.859 562.285H173.044L178.596 571.5H185.035L176.671 558.103L184.85 544.706H178.559L173.044 553.921H172.859L167.382 544.706ZM188.218 571.5H205.316V566.911H193.769V544.706H188.218V571.5Z" fill="#6B6B6B"/>
<path d="M968.648 514.727H963.911V548.479H968.648V531.085H973.607V527.236H968.648V514.727ZM943.408 540.3H946.258C952.198 540.318 956.787 540.189 962.024 539.301L961.505 535.341C957.027 536.118 952.993 536.377 948.108 536.414V521.647H959.211V517.836H943.408V540.3ZM1001.55 514.764H996.812V534.749H1001.55V526.644H1006.1V522.721H1001.55V514.764ZM976.013 520.167H986.893V523.091H976.05V533.527H978.9C985.728 533.527 990.058 533.361 994.887 532.417L994.369 528.716C990.076 529.475 986.301 529.641 980.75 529.678V526.644H991.483V516.392H976.013V520.167ZM979.492 548.035H1001.55V536.155H979.492V548.035ZM984.118 544.26V539.856H996.923V544.26H984.118ZM1028.01 517.021H1009.51V520.833H1016.17C1016.04 523.572 1013.63 526.126 1008.43 527.125L1010.25 530.863C1014.48 530.104 1017.28 528.18 1018.78 525.626C1020.26 527.994 1022.98 529.697 1027.05 530.419L1028.9 526.607C1023.77 525.848 1021.42 523.516 1021.31 520.833H1028.01V517.021ZM1007.66 532.639L1008.25 536.525C1010.71 536.525 1013.5 536.488 1016.43 536.377V547.369H1021.13V536.118C1023.94 535.914 1026.79 535.6 1029.56 535.119L1029.27 531.677C1022.16 532.639 1013.87 532.639 1007.66 532.639ZM1031.3 548.405H1035.97V514.764H1031.3V548.405ZM1064.87 518.465H1059.69V515.134H1055.21V518.465H1049.99V522.203H1055.21C1055.17 525.811 1053.27 529.308 1049.03 530.937L1051.25 534.341C1054.32 533.213 1056.36 531.048 1057.54 528.402C1058.75 530.789 1060.76 532.732 1063.76 533.786L1065.87 530.271C1061.63 528.79 1059.71 525.57 1059.69 522.203H1064.87V518.465ZM1053.14 544.593L1054.8 548.257C1060.28 547.517 1064.24 545.222 1066.33 542.076C1068.41 545.222 1072.35 547.517 1077.86 548.257L1079.49 544.593C1072.33 543.686 1068.66 540.022 1068.68 536.488V535.933H1063.95V536.488C1063.95 540.022 1060.34 543.686 1053.14 544.593ZM1066.39 534.564H1070.83V526.644H1073.53V537.524H1078.01V514.764H1073.53V522.795H1070.83V515.282H1066.39V534.564ZM1108.39 514.727H1103.66V548.405H1108.39V531.27H1113.35V527.31H1108.39V514.727ZM1082.89 540.596H1099.29V517.391H1094.59V525.607H1087.59V517.391H1082.89V540.596ZM1087.59 536.784V529.271H1094.59V536.784H1087.59ZM1134.23 516.91H1117.16V520.685H1129.58C1129.56 521.592 1129.54 522.573 1129.47 523.683L1116.35 524.238L1116.98 528.124L1129.14 527.069C1128.97 528.328 1128.73 529.697 1128.43 531.177C1123.53 531.399 1118.63 531.436 1114.35 531.455L1114.94 535.267C1117.46 535.267 1120.14 535.248 1122.94 535.174V546.554H1127.67V534.952C1130.8 534.767 1133.97 534.49 1137.08 534.045L1136.74 530.567C1135.58 530.696 1134.39 530.789 1133.19 530.881C1134.19 525.478 1134.19 521.758 1134.23 518.983V516.91ZM1138.67 548.405H1143.44V514.727H1138.67V548.405ZM1183.19 522.499H1164.61V519.612H1182.93V515.837H1159.91V526.2H1169.05V528.42H1156.06V532.158H1186.78V528.42H1173.79V526.2H1183.19V522.499ZM1159.61 537.45H1178.38V539.264H1159.65V548.146H1183.93V544.556H1164.28V542.557H1183.04V533.971H1159.61V537.45ZM1217.05 514.727H1212.35V548.479H1217.05V514.727ZM1190.59 521.351H1201.8V526.792H1190.63V540.596H1193.66C1199.8 540.596 1204.82 540.392 1210.35 539.412L1209.95 535.6C1205 536.414 1200.66 536.673 1195.51 536.71V530.53H1206.61V517.539H1190.59V521.351ZM1248.92 523.905H1230.08V515.911H1225.38V527.606H1248.92V523.905ZM1221.53 534.934H1252.36V531.233H1221.53V534.934ZM1225.08 547.665H1249.14V543.89H1229.82V537.672H1225.08V547.665ZM1293.88 540.596H1280.63V532.972H1275.93V540.596H1263.05V544.371H1293.88V540.596ZM1263.79 530.122L1265.79 534.045C1271.68 532.991 1276.06 529.789 1278.26 525.607C1280.48 529.808 1284.89 532.972 1290.81 534.045L1292.81 530.122C1285.11 528.938 1280.76 523.868 1280.78 519.057V516.651H1275.75V519.057C1275.71 523.812 1271.42 528.938 1263.79 530.122ZM1324.04 514.727H1319.34V548.479H1324.04V514.727ZM1297.58 521.351H1308.8V526.792H1297.62V540.596H1300.65C1306.8 540.596 1311.81 540.392 1317.34 539.412L1316.94 535.6C1312 536.414 1307.65 536.673 1302.5 536.71V530.53H1313.61V517.539H1297.58V521.351ZM1355.13 514.727H1350.39V548.331H1355.13V531.529H1359.9V527.643H1355.13V514.727ZM1328.19 538.894L1330.85 542.52C1342.18 536.951 1346.1 528.235 1346.14 518.169H1330.11V522.018H1341.35C1340.46 529.53 1336.16 534.897 1328.19 538.894ZM1400.84 527.865H1370.05V531.566H1400.84V527.865ZM1373.6 537.117H1392.36V539.005H1373.64V548.109H1397.91V544.445H1378.26V542.372H1397.02V533.564H1373.6V537.117ZM1373.89 526.014H1397.17V522.314H1378.59V519.168H1396.91V515.393H1373.89V526.014ZM1430.96 514.764H1426.26V539.56H1430.96V514.764ZM1404.54 520.722H1415.46V524.201H1404.57V535.267H1407.54C1414.66 535.267 1419.03 535.082 1423.93 534.156L1423.41 530.382C1419.05 531.214 1415.23 531.399 1409.2 531.418V527.68H1420.16V516.947H1404.54V520.722ZM1408.31 547.813H1431.85V544.038H1413.01V537.487H1408.31V547.813ZM1462.12 514.727H1457.39V548.479H1462.12V531.085H1467.08V527.236H1462.12V514.727ZM1436.88 540.3H1439.73C1445.67 540.318 1450.26 540.189 1455.5 539.301L1454.98 535.341C1450.5 536.118 1446.47 536.377 1441.58 536.414V521.647H1452.69V517.836H1436.88V540.3ZM1472.67 545.333C1474.32 545.333 1475.74 543.945 1475.74 542.224C1475.74 540.522 1474.32 539.134 1472.67 539.153C1470.93 539.134 1469.53 540.522 1469.56 542.224C1469.53 543.945 1470.93 545.333 1472.67 545.333ZM1257.35 598.37C1264.05 598.37 1268.12 593.411 1268.12 584.603C1268.12 575.85 1264.03 570.836 1257.35 570.836C1250.67 570.836 1246.58 575.85 1246.58 584.603C1246.58 593.374 1250.64 598.37 1257.35 598.37ZM1252.28 584.603C1252.28 578.478 1254.26 575.406 1257.35 575.388C1260.44 575.406 1262.44 578.478 1262.42 584.603C1262.44 590.783 1260.46 593.781 1257.35 593.781C1254.24 593.781 1252.25 590.783 1252.28 584.603ZM1283.52 571.206H1278.26L1271.64 575.425V580.347L1277.78 576.498H1277.93V598H1283.52V571.206ZM1289.74 598H1308.91V593.411H1297.47V593.263L1301.54 589.303C1307.06 584.307 1308.54 581.809 1308.54 578.755C1308.54 574.111 1304.72 570.836 1298.99 570.836C1293.34 570.836 1289.46 574.185 1289.48 579.422H1294.77C1294.75 576.849 1296.4 575.258 1298.91 575.277C1301.38 575.258 1303.17 576.738 1303.17 579.126C1303.17 581.254 1301.82 582.734 1299.32 585.121L1289.7 593.966L1289.74 598ZM1322.79 598.37C1328.84 598.37 1333.18 595.076 1333.15 590.487C1333.18 587.138 1331.02 584.751 1327.08 584.27V584.048C1330.08 583.511 1332.17 581.383 1332.15 578.385C1332.17 574.148 1328.45 570.836 1322.86 570.836C1317.36 570.836 1313.22 574.037 1313.13 578.644H1318.46C1318.55 576.59 1320.49 575.258 1322.86 575.277C1325.23 575.258 1326.8 576.664 1326.78 578.718C1326.8 580.828 1324.95 582.271 1322.3 582.271H1319.82V586.379H1322.3C1325.45 586.398 1327.39 587.934 1327.37 590.117C1327.39 592.282 1325.49 593.762 1322.82 593.781C1320.23 593.762 1318.29 592.449 1318.2 590.45H1312.57C1312.68 595.132 1316.9 598.37 1322.79 598.37ZM1336.63 593.263H1349.65V598H1354.95V593.263H1358.35V588.785H1354.95V571.206H1347.95L1336.63 588.859V593.263ZM1342.25 588.785V588.563L1349.47 577.312H1349.73V588.785H1342.25ZM1371.82 598.37C1377.85 598.37 1381.96 594.503 1381.96 589.081C1381.96 583.937 1378.3 580.254 1373.38 580.273C1371.03 580.254 1368.99 581.217 1368.01 582.53H1367.79L1368.53 575.758H1380.44V571.206H1363.94L1362.5 586.638H1367.53C1368.32 585.139 1369.73 584.381 1371.75 584.381C1374.56 584.399 1376.58 586.379 1376.56 589.229C1376.58 592.023 1374.6 593.985 1371.82 593.966C1369.49 593.985 1367.58 592.541 1367.45 590.45H1362.05C1362.14 595.076 1366.23 598.37 1371.82 598.37ZM1396.1 598.37C1402.15 598.389 1406.26 594.484 1406.24 589.044C1406.26 583.992 1402.67 580.384 1397.84 580.384C1394.88 580.384 1392.23 581.772 1390.99 584.159H1390.73C1390.77 578.885 1392.68 575.61 1396.32 575.61C1398.49 575.61 1400.02 576.775 1400.47 578.644H1405.94C1405.41 574.24 1401.71 570.836 1396.32 570.836C1389.62 570.836 1385.31 576.183 1385.29 585.232C1385.27 595.039 1390.57 598.352 1396.1 598.37ZM1391.29 589.192C1391.33 586.583 1393.4 584.436 1396.14 584.418C1398.86 584.436 1400.84 586.509 1400.84 589.192C1400.84 591.894 1398.82 593.985 1396.06 593.966C1393.32 593.985 1391.33 591.82 1391.29 589.192ZM1411.13 598H1416.9L1428.19 575.832V571.206H1409.27V575.758H1422.41V575.943L1411.13 598ZM1441.44 598.37C1447.54 598.37 1451.95 595.15 1451.95 590.783C1451.95 587.415 1449.32 584.677 1446.06 584.159V583.974C1448.87 583.419 1450.93 580.994 1450.95 578.052C1450.93 573.889 1446.91 570.836 1441.44 570.836C1435.96 570.836 1431.94 573.889 1431.96 578.052C1431.94 580.994 1433.94 583.419 1436.85 583.974V584.159C1433.52 584.677 1430.92 587.415 1430.92 590.783C1430.92 595.15 1435.31 598.37 1441.44 598.37ZM1436.74 590.228C1436.72 587.897 1438.72 586.213 1441.44 586.194C1444.16 586.213 1446.15 587.915 1446.14 590.228C1446.15 592.523 1444.27 594.133 1441.44 594.114C1438.6 594.133 1436.72 592.523 1436.74 590.228ZM1437.4 578.607C1437.38 576.516 1439.03 575.055 1441.44 575.055C1443.82 575.055 1445.49 576.516 1445.51 578.607C1445.49 580.754 1443.79 582.253 1441.44 582.271C1439.07 582.253 1437.38 580.754 1437.4 578.607ZM1465.53 570.836C1459.48 570.817 1455.39 574.74 1455.39 580.125C1455.42 585.121 1458.98 588.748 1463.79 588.748C1466.77 588.748 1469.41 587.341 1470.67 584.973H1470.89C1470.88 590.321 1468.95 593.596 1465.31 593.596C1463.16 593.596 1461.62 592.43 1461.16 590.45H1455.68C1456.22 594.984 1459.92 598.37 1465.31 598.37C1472.04 598.37 1476.35 593.004 1476.33 583.9C1476.33 574.166 1471.08 570.854 1465.53 570.836ZM1460.83 579.977C1460.79 577.312 1462.83 575.221 1465.57 575.203C1468.3 575.221 1470.3 577.386 1470.34 579.94C1470.34 582.512 1468.25 584.677 1465.53 584.677C1462.77 584.677 1460.83 582.623 1460.83 579.977Z" fill="black"/>
<path d="M141.402 709.706H135.073L143.326 723.103L134.925 736.5H141.328L146.879 727.285H147.064L152.615 736.5H159.055L150.691 723.103L158.87 709.706H152.578L147.064 718.921H146.879L141.402 709.706ZM162.238 736.5H179.336V731.911H167.789V709.706H162.238V736.5Z" fill="#6B6B6B"/>
<path d="M1095.89 690.289H1092.33V715.61H1095.89V702.561H1099.61V699.673H1095.89V690.289ZM1076.95 709.474H1079.09C1083.55 709.488 1086.99 709.391 1090.92 708.724L1090.53 705.754C1087.17 706.337 1084.14 706.531 1080.48 706.559V695.481H1088.81V692.621H1076.95V709.474ZM1120.57 690.317H1117.02V705.309H1120.57V699.229H1123.99V696.286H1120.57V690.317ZM1101.41 694.371H1109.58V696.564H1101.44V704.393H1103.58C1108.7 704.393 1111.95 704.268 1115.57 703.56L1115.18 700.784C1111.96 701.353 1109.13 701.478 1104.97 701.506V699.229H1113.02V691.539H1101.41V694.371ZM1104.02 715.277H1120.57V706.364H1104.02V715.277ZM1107.49 712.445V709.141H1117.1V712.445H1107.49ZM1140.42 692.011H1126.54V694.87H1131.54C1131.44 696.925 1129.64 698.841 1125.73 699.59L1127.09 702.394C1130.27 701.825 1132.37 700.381 1133.49 698.466C1134.61 700.243 1136.65 701.52 1139.7 702.061L1141.09 699.201C1137.24 698.632 1135.48 696.883 1135.4 694.87H1140.42V692.011ZM1125.15 703.727L1125.6 706.642C1127.44 706.642 1129.54 706.614 1131.73 706.531V714.777H1135.26V706.337C1137.37 706.184 1139.51 705.948 1141.59 705.587L1141.37 703.005C1136.03 703.727 1129.82 703.727 1125.15 703.727ZM1142.89 715.554H1146.39V690.317H1142.89V715.554ZM1168.07 693.093H1164.19V690.595H1160.83V693.093H1156.91V695.898H1160.83C1160.8 698.605 1159.37 701.228 1156.19 702.45L1157.86 705.004C1160.16 704.157 1161.69 702.533 1162.58 700.548C1163.48 702.339 1164.99 703.796 1167.24 704.588L1168.82 701.95C1165.64 700.84 1164.2 698.424 1164.19 695.898H1168.07V693.093ZM1159.27 712.695L1160.52 715.443C1164.63 714.888 1167.6 713.167 1169.17 710.807C1170.73 713.167 1173.68 714.888 1177.82 715.443L1179.04 712.695C1173.67 712.014 1170.92 709.266 1170.93 706.614V706.198H1167.38V706.614C1167.38 709.266 1164.67 712.014 1159.27 712.695ZM1169.21 705.171H1172.54V699.229H1174.57V707.392H1177.93V690.317H1174.57V696.342H1172.54V690.706H1169.21V705.171ZM1200.72 690.289H1197.17V715.554H1200.72V702.7H1204.44V699.729H1200.72V690.289ZM1181.6 709.696H1193.89V692.288H1190.37V698.452H1185.12V692.288H1181.6V709.696ZM1185.12 706.836V701.2H1190.37V706.836H1185.12ZM1220.1 691.927H1207.3V694.759H1216.62C1216.61 695.439 1216.59 696.175 1216.54 697.008L1206.69 697.425L1207.17 700.34L1216.29 699.549C1216.16 700.492 1215.98 701.52 1215.76 702.63C1212.08 702.797 1208.4 702.825 1205.19 702.838L1205.64 705.698C1207.53 705.698 1209.54 705.684 1211.64 705.629V714.166H1215.19V705.462C1217.54 705.323 1219.91 705.115 1222.24 704.782L1221.99 702.172C1221.12 702.269 1220.23 702.339 1219.33 702.408C1220.08 698.355 1220.08 695.564 1220.1 693.482V691.927ZM1223.43 715.554H1227.02V690.289H1223.43V715.554ZM1256.83 696.12H1242.9V693.954H1256.64V691.122H1239.37V698.896H1246.23V700.562H1236.48V703.366H1259.53V700.562H1249.78V698.896H1256.83V696.12ZM1239.15 707.336H1253.23V708.697H1239.18V715.36H1257.39V712.667H1242.65V711.168H1256.72V704.726H1239.15V707.336ZM1282.24 690.289H1278.71V715.61H1282.24V690.289ZM1262.39 695.259H1270.8V699.34H1262.42V709.696H1264.69C1269.3 709.696 1273.06 709.543 1277.21 708.808L1276.91 705.948C1273.2 706.559 1269.94 706.753 1266.08 706.781V702.144H1274.41V692.399H1262.39V695.259ZM1306.14 697.175H1292.01V691.178H1288.49V699.951H1306.14V697.175ZM1285.6 705.448H1308.72V702.672H1285.6V705.448ZM1288.26 714.999H1306.31V712.167H1291.82V707.503H1288.26V714.999ZM1339.88 709.696H1329.94V703.977H1326.41V709.696H1316.75V712.528H1339.88V709.696ZM1317.3 701.839L1318.8 704.782C1323.22 703.991 1326.51 701.589 1328.16 698.452C1329.83 701.603 1333.13 703.977 1337.57 704.782L1339.07 701.839C1333.3 700.951 1330.03 697.147 1330.05 693.538V691.733H1326.27V693.538C1326.24 697.105 1323.02 700.951 1317.3 701.839ZM1362.5 690.289H1358.98V715.61H1362.5V690.289ZM1342.65 695.259H1351.06V699.34H1342.68V709.696H1344.96C1349.57 709.696 1353.33 709.543 1357.48 708.808L1357.17 705.948C1353.47 706.559 1350.2 706.753 1346.34 706.781V702.144H1354.67V692.399H1342.65V695.259ZM1385.82 690.289H1382.27V715.499H1385.82V702.894H1389.41V699.979H1385.82V690.289ZM1365.61 708.419L1367.61 711.14C1376.11 706.961 1379.05 700.423 1379.08 692.871H1367.06V695.759H1375.48C1374.82 701.395 1371.6 705.421 1365.61 708.419ZM1420.11 700.145H1397.01V702.922H1420.11V700.145ZM1399.68 707.086H1413.75V708.502H1399.71V715.332H1417.92V712.584H1403.18V711.029H1417.25V704.421H1399.68V707.086ZM1399.9 698.757H1417.36V695.981H1403.43V693.621H1417.17V690.789H1399.9V698.757ZM1442.71 690.317H1439.19V708.919H1442.71V690.317ZM1422.89 694.787H1431.08V697.397H1422.92V705.698H1425.14C1430.48 705.698 1433.76 705.559 1437.44 704.865L1437.05 702.033C1433.77 702.658 1430.91 702.797 1426.39 702.811V700.007H1434.61V691.955H1422.89V694.787ZM1425.72 715.11H1443.38V712.278H1429.25V707.364H1425.72V715.11ZM1466.09 690.289H1462.54V715.61H1466.09V702.561H1469.81V699.673H1466.09V690.289ZM1447.15 709.474H1449.29C1453.75 709.488 1457.19 709.391 1461.12 708.724L1460.73 705.754C1457.37 706.337 1454.35 706.531 1450.68 706.559V695.481H1459.01V692.621H1447.15V709.474ZM1474 713.25C1475.24 713.25 1476.31 712.209 1476.31 710.918C1476.31 709.641 1475.24 708.599 1474 708.613C1472.7 708.599 1471.64 709.641 1471.67 710.918C1471.64 712.209 1472.7 713.25 1474 713.25ZM1312.47 753.278C1317.5 753.278 1320.55 749.557 1320.55 742.95C1320.55 736.383 1317.48 732.621 1312.47 732.621C1307.46 732.621 1304.39 736.383 1304.39 742.95C1304.39 749.53 1307.43 753.278 1312.47 753.278ZM1308.67 742.95C1308.67 738.355 1310.15 736.05 1312.47 736.036C1314.79 736.05 1316.29 738.355 1316.28 742.95C1316.29 747.586 1314.81 749.835 1312.47 749.835C1310.14 749.835 1308.64 747.586 1308.67 742.95ZM1332.1 732.899H1328.16L1323.19 736.064V739.757L1327.8 736.869H1327.91V753H1332.1V732.899ZM1336.77 753H1351.15V749.557H1342.57V749.446L1345.62 746.476C1349.76 742.727 1350.87 740.853 1350.87 738.563C1350.87 735.079 1348.01 732.621 1343.71 732.621C1339.47 732.621 1336.56 735.134 1336.57 739.063H1340.54C1340.53 737.133 1341.76 735.939 1343.65 735.953C1345.5 735.939 1346.84 737.05 1346.84 738.841C1346.84 740.437 1345.83 741.547 1343.96 743.338L1336.74 749.974L1336.77 753ZM1361.56 753.278C1366.1 753.278 1369.36 750.807 1369.33 747.364C1369.36 744.851 1367.74 743.061 1364.78 742.7V742.533C1367.03 742.131 1368.6 740.534 1368.58 738.285C1368.6 735.106 1365.81 732.621 1361.61 732.621C1357.49 732.621 1354.38 735.023 1354.31 738.48H1358.31C1358.38 736.939 1359.84 735.939 1361.61 735.953C1363.39 735.939 1364.57 736.994 1364.56 738.535C1364.57 740.118 1363.18 741.2 1361.2 741.2H1359.34V744.282H1361.2C1363.56 744.296 1365.02 745.448 1365 747.086C1365.02 748.711 1363.59 749.821 1361.59 749.835C1359.64 749.821 1358.19 748.835 1358.12 747.336H1353.9C1353.98 750.848 1357.14 753.278 1361.56 753.278ZM1371.94 749.446H1381.72V753H1385.69V749.446H1388.24V746.087H1385.69V732.899H1380.44L1371.94 746.142V749.446ZM1376.16 746.087V745.92L1381.58 737.48H1381.77V746.087H1376.16ZM1398.35 753.278C1402.87 753.278 1405.95 750.376 1405.95 746.309C1405.95 742.45 1403.2 739.687 1399.51 739.701C1397.75 739.687 1396.22 740.409 1395.49 741.395H1395.32L1395.88 736.314H1404.81V732.899H1392.43L1391.35 744.477H1395.13C1395.72 743.352 1396.78 742.783 1398.29 742.783C1400.4 742.797 1401.91 744.282 1401.9 746.42C1401.91 748.516 1400.43 749.988 1398.35 749.974C1396.6 749.988 1395.17 748.905 1395.07 747.336H1391.02C1391.09 750.807 1394.15 753.278 1398.35 753.278ZM1416.56 753.278C1421.1 753.292 1424.18 750.362 1424.17 746.281C1424.18 742.491 1421.49 739.784 1417.86 739.784C1415.64 739.784 1413.66 740.826 1412.73 742.616H1412.53C1412.56 738.66 1413.99 736.203 1416.73 736.203C1418.35 736.203 1419.5 737.078 1419.84 738.48H1423.94C1423.54 735.176 1420.77 732.621 1416.73 732.621C1411.7 732.621 1408.47 736.633 1408.45 743.422C1408.44 750.779 1412.41 753.264 1416.56 753.278ZM1412.95 746.392C1412.98 744.435 1414.53 742.825 1416.59 742.811C1418.63 742.825 1420.11 744.379 1420.11 746.392C1420.11 748.419 1418.6 749.988 1416.53 749.974C1414.48 749.988 1412.98 748.363 1412.95 746.392ZM1427.83 753H1432.16L1440.63 736.37V732.899H1426.44V736.314H1436.3V736.453L1427.83 753ZM1450.57 753.278C1455.15 753.278 1458.45 750.862 1458.45 747.586C1458.45 745.06 1456.48 743.005 1454.04 742.616V742.478C1456.15 742.061 1457.69 740.243 1457.7 738.035C1457.69 734.912 1454.68 732.621 1450.57 732.621C1446.46 732.621 1443.45 734.912 1443.46 738.035C1443.45 740.243 1444.95 742.061 1447.13 742.478V742.616C1444.63 743.005 1442.68 745.06 1442.68 747.586C1442.68 750.862 1445.97 753.278 1450.57 753.278ZM1447.04 747.17C1447.03 745.421 1448.53 744.157 1450.57 744.143C1452.61 744.157 1454.11 745.434 1454.1 747.17C1454.11 748.891 1452.69 750.099 1450.57 750.085C1448.45 750.099 1447.03 748.891 1447.04 747.17ZM1447.54 738.452C1447.53 736.883 1448.76 735.787 1450.57 735.787C1452.36 735.787 1453.61 736.883 1453.62 738.452C1453.61 740.062 1452.33 741.187 1450.57 741.2C1448.79 741.187 1447.53 740.062 1447.54 738.452ZM1468.64 732.621C1464.1 732.608 1461.04 735.551 1461.04 739.59C1461.06 743.338 1463.73 746.059 1467.34 746.059C1469.57 746.059 1471.56 745.004 1472.5 743.227H1472.67C1472.66 747.239 1471.21 749.696 1468.48 749.696C1466.87 749.696 1465.71 748.822 1465.37 747.336H1461.26C1461.66 750.737 1464.44 753.278 1468.48 753.278C1473.53 753.278 1476.76 749.252 1476.75 742.422C1476.75 735.12 1472.81 732.635 1468.64 732.621ZM1465.12 739.479C1465.09 737.48 1466.62 735.911 1468.67 735.898C1470.73 735.911 1472.23 737.536 1472.25 739.451C1472.25 741.381 1470.68 743.005 1468.64 743.005C1466.58 743.005 1465.12 741.464 1465.12 739.479Z" fill="black"/>
<path d="M136.258 878.5H153.356V873.911H141.809V851.706H136.258V878.5Z" fill="#6B6B6B"/>
<path d="M1191.34 840.963H1188.68V859.958H1191.34V850.169H1194.13V848.003H1191.34V840.963ZM1177.14 855.355H1178.74C1182.08 855.365 1184.67 855.292 1187.61 854.792L1187.32 852.564C1184.8 853.001 1182.53 853.147 1179.78 853.168V844.857H1186.03V842.712H1177.14V855.355ZM1209.86 840.983H1207.19V852.231H1209.86V847.669H1212.42V845.461H1209.86V840.983ZM1195.49 844.024H1201.61V845.67H1195.51V851.543H1197.11C1200.95 851.543 1203.39 851.45 1206.11 850.918L1205.82 848.836C1203.4 849.263 1201.28 849.356 1198.15 849.377V847.669H1204.19V841.9H1195.49V844.024ZM1197.45 859.708H1209.86V853.022H1197.45V859.708ZM1200.05 857.583V855.105H1207.26V857.583H1200.05ZM1224.75 842.254H1214.34V844.399H1218.09C1218.01 845.941 1216.66 847.378 1213.73 847.94L1214.75 850.044C1217.14 849.617 1218.71 848.534 1219.55 847.096C1220.39 848.429 1221.92 849.388 1224.21 849.794L1225.25 847.648C1222.37 847.221 1221.04 845.909 1220.98 844.399H1224.75V842.254ZM1213.3 851.043L1213.63 853.23C1215.01 853.23 1216.59 853.21 1218.23 853.147V859.333H1220.88V853.001C1222.46 852.887 1224.06 852.71 1225.63 852.439L1225.46 850.502C1221.46 851.043 1216.79 851.043 1213.3 851.043ZM1226.6 859.916H1229.23V840.983H1226.6V859.916ZM1245.5 843.066H1242.58V841.192H1240.06V843.066H1237.12V845.17H1240.06C1240.04 847.201 1238.97 849.169 1236.58 850.085L1237.83 852.002C1239.56 851.366 1240.71 850.148 1241.37 848.659C1242.05 850.002 1243.18 851.095 1244.87 851.689L1246.06 849.71C1243.67 848.877 1242.59 847.065 1242.58 845.17H1245.5V843.066ZM1238.89 857.771L1239.83 859.833C1242.91 859.416 1245.14 858.125 1246.32 856.355C1247.48 858.125 1249.7 859.416 1252.81 859.833L1253.72 857.771C1249.69 857.261 1247.63 855.199 1247.64 853.21V852.897H1244.97V853.21C1244.97 855.199 1242.94 857.261 1238.89 857.771ZM1246.35 852.126H1248.85V847.669H1250.37V853.793H1252.89V840.983H1250.37V845.503H1248.85V841.275H1246.35V852.126ZM1269.99 840.963H1267.32V859.916H1269.99V850.273H1272.78V848.044H1269.99V840.963ZM1255.64 855.521H1264.87V842.462H1262.22V847.086H1258.28V842.462H1255.64V855.521ZM1258.28 853.376V849.148H1262.22V853.376H1258.28ZM1284.53 842.191H1274.93V844.316H1281.91C1281.9 844.826 1281.89 845.378 1281.85 846.003L1274.47 846.315L1274.82 848.502L1281.66 847.909C1281.57 848.617 1281.43 849.388 1281.27 850.221C1278.51 850.346 1275.75 850.366 1273.34 850.377L1273.68 852.522C1275.09 852.522 1276.6 852.512 1278.17 852.47V858.875H1280.84V852.345C1282.6 852.241 1284.38 852.085 1286.13 851.835L1285.94 849.877C1285.29 849.95 1284.62 850.002 1283.94 850.054C1284.51 847.013 1284.51 844.92 1284.53 843.358V842.191ZM1287.03 859.916H1289.71V840.963H1287.03V859.916ZM1312.08 845.337H1301.63V843.712H1311.94V841.587H1298.98V847.419H1304.13V848.669H1296.82V850.773H1314.1V848.669H1306.79V847.419H1312.08V845.337ZM1298.82 853.751H1309.38V854.772H1298.84V859.77H1312.5V857.75H1301.44V856.625H1312V851.793H1298.82V853.751ZM1331.14 840.963H1328.5V859.958H1331.14V840.963ZM1316.25 844.691H1322.56V847.753H1316.27V855.521H1317.98C1321.43 855.521 1324.26 855.407 1327.37 854.855L1327.14 852.71C1324.36 853.168 1321.91 853.314 1319.02 853.335V849.856H1325.27V842.546H1316.25V844.691ZM1349.07 846.128H1338.47V841.629H1335.83V848.211H1349.07V846.128ZM1333.66 852.335H1351.01V850.252H1333.66V852.335ZM1335.66 859.5H1349.2V857.375H1338.33V853.876H1335.66V859.5ZM1374.38 855.521H1366.92V851.231H1364.28V855.521H1357.03V857.646H1374.38V855.521ZM1357.45 849.627L1358.57 851.835C1361.88 851.241 1364.35 849.44 1365.59 847.086C1366.84 849.45 1369.32 851.231 1372.65 851.835L1373.78 849.627C1369.44 848.961 1367 846.107 1367.01 843.399V842.046H1364.17V843.399C1364.15 846.076 1361.74 848.961 1357.45 849.627ZM1391.35 840.963H1388.71V859.958H1391.35V840.963ZM1376.46 844.691H1382.77V847.753H1376.48V855.521H1378.19C1381.65 855.521 1384.47 855.407 1387.59 854.855L1387.36 852.71C1384.58 853.168 1382.13 853.314 1379.23 853.335V849.856H1385.48V842.546H1376.46V844.691ZM1408.85 840.963H1406.18V859.875H1408.85V850.419H1411.54V848.232H1408.85V840.963ZM1393.69 854.563L1395.19 856.605C1401.56 853.47 1403.77 848.565 1403.79 842.9H1394.77V845.066H1401.09C1400.59 849.294 1398.18 852.314 1393.69 854.563ZM1434.57 848.357H1417.24V850.439H1434.57V848.357ZM1419.24 853.564H1429.8V854.626H1419.26V859.75H1432.93V857.688H1421.87V856.521H1432.43V851.564H1419.24V853.564ZM1419.41 847.315H1432.51V845.232H1422.06V843.462H1432.37V841.338H1419.41V847.315ZM1451.53 840.983H1448.88V854.938H1451.53V840.983ZM1436.66 844.337H1442.8V846.295H1436.68V852.522H1438.34C1442.35 852.522 1444.81 852.418 1447.57 851.897L1447.28 849.773C1444.82 850.242 1442.68 850.346 1439.28 850.356V848.252H1445.45V842.212H1436.66V844.337ZM1438.78 859.583H1452.03V857.458H1441.43V853.772H1438.78V859.583ZM1469.06 840.963H1466.4V859.958H1469.06V850.169H1471.86V848.003H1469.06V840.963ZM1454.86 855.355H1456.46C1459.81 855.365 1462.39 855.292 1465.34 854.792L1465.04 852.564C1462.52 853.001 1460.25 853.147 1457.51 853.168V844.857H1463.75V842.712H1454.86V855.355ZM1475 858.187C1475.93 858.187 1476.73 857.406 1476.73 856.438C1476.73 855.48 1475.93 854.699 1475 854.709C1474.02 854.699 1473.23 855.48 1473.25 856.438C1473.23 857.406 1474.02 858.187 1475 858.187ZM1353.82 888.208C1357.59 888.208 1359.88 885.417 1359.88 880.46C1359.88 875.534 1357.58 872.712 1353.82 872.712C1350.06 872.712 1347.76 875.534 1347.76 880.46C1347.76 885.396 1350.04 888.208 1353.82 888.208ZM1350.97 880.46C1350.97 877.013 1352.08 875.284 1353.82 875.274C1355.56 875.284 1356.69 877.013 1356.68 880.46C1356.69 883.939 1355.57 885.626 1353.82 885.626C1352.07 885.626 1350.95 883.939 1350.97 880.46ZM1368.55 872.92H1365.59L1361.86 875.295V878.065L1365.32 875.899H1365.4V888H1368.55V872.92ZM1372.05 888H1382.84V885.417H1376.4V885.334L1378.69 883.105C1381.79 880.294 1382.63 878.888 1382.63 877.169C1382.63 874.555 1380.48 872.712 1377.25 872.712C1374.08 872.712 1371.89 874.597 1371.9 877.544H1374.88C1374.87 876.097 1375.8 875.201 1377.21 875.212C1378.6 875.201 1379.61 876.034 1379.61 877.378C1379.61 878.575 1378.85 879.408 1377.44 880.752L1372.03 885.73L1372.05 888ZM1390.65 888.208C1394.05 888.208 1396.5 886.355 1396.48 883.772C1396.5 881.887 1395.28 880.544 1393.06 880.273V880.148C1394.75 879.846 1395.93 878.648 1395.92 876.961C1395.93 874.576 1393.83 872.712 1390.69 872.712C1387.6 872.712 1385.26 874.514 1385.21 877.107H1388.21C1388.26 875.951 1389.36 875.201 1390.69 875.212C1392.02 875.201 1392.91 875.993 1392.9 877.149C1392.91 878.336 1391.87 879.148 1390.38 879.148H1388.98V881.46H1390.38C1392.15 881.47 1393.24 882.335 1393.23 883.564C1393.24 884.782 1392.17 885.615 1390.67 885.626C1389.21 885.615 1388.12 884.876 1388.06 883.751H1384.9C1384.96 886.386 1387.34 888.208 1390.65 888.208ZM1398.44 885.334H1405.77V888H1408.75V885.334H1410.66V882.814H1408.75V872.92H1404.81L1398.44 882.855V885.334ZM1401.6 882.814V882.689L1405.66 876.357H1405.81V882.814H1401.6ZM1418.24 888.208C1421.64 888.208 1423.95 886.032 1423.95 882.98C1423.95 880.085 1421.89 878.013 1419.12 878.023C1417.8 878.013 1416.65 878.554 1416.1 879.294H1415.97L1416.39 875.482H1423.1V872.92H1413.81L1413 881.606H1415.83C1416.28 880.762 1417.07 880.335 1418.2 880.335C1419.79 880.346 1420.92 881.46 1420.91 883.064C1420.92 884.636 1419.81 885.74 1418.24 885.73C1416.93 885.74 1415.86 884.928 1415.79 883.751H1412.75C1412.8 886.355 1415.1 888.208 1418.24 888.208ZM1431.91 888.208C1435.31 888.219 1437.62 886.021 1437.61 882.96C1437.62 880.117 1435.6 878.086 1432.89 878.086C1431.22 878.086 1429.73 878.867 1429.03 880.21H1428.89C1428.91 877.242 1429.98 875.399 1432.03 875.399C1433.25 875.399 1434.12 876.055 1434.37 877.107H1437.45C1437.15 874.628 1435.06 872.712 1432.03 872.712C1428.26 872.712 1425.84 875.722 1425.83 880.814C1425.82 886.334 1428.79 888.198 1431.91 888.208ZM1429.2 883.043C1429.22 881.575 1430.39 880.366 1431.93 880.356C1433.46 880.366 1434.57 881.533 1434.57 883.043C1434.57 884.563 1433.44 885.74 1431.89 885.73C1430.35 885.74 1429.22 884.522 1429.2 883.043ZM1440.36 888H1443.61L1449.97 875.524V872.92H1439.32V875.482H1446.72V875.586L1440.36 888ZM1457.42 888.208C1460.86 888.208 1463.34 886.396 1463.34 883.939C1463.34 882.043 1461.86 880.502 1460.03 880.21V880.106C1461.61 879.794 1462.76 878.429 1462.77 876.774C1462.76 874.43 1460.5 872.712 1457.42 872.712C1454.34 872.712 1452.08 874.43 1452.09 876.774C1452.08 878.429 1453.2 879.794 1454.84 880.106V880.21C1452.96 880.502 1451.51 882.043 1451.51 883.939C1451.51 886.396 1453.97 888.208 1457.42 888.208ZM1454.78 883.626C1454.77 882.314 1455.89 881.366 1457.42 881.356C1458.95 881.366 1460.08 882.324 1460.07 883.626C1460.08 884.917 1459.02 885.823 1457.42 885.813C1455.83 885.823 1454.77 884.917 1454.78 883.626ZM1455.15 877.086C1455.14 875.909 1456.07 875.087 1457.42 875.087C1458.77 875.087 1459.7 875.909 1459.71 877.086C1459.7 878.294 1458.74 879.138 1457.42 879.148C1456.09 879.138 1455.14 878.294 1455.15 877.086ZM1470.98 872.712C1467.58 872.702 1465.27 874.91 1465.27 877.94C1465.29 880.752 1467.29 882.793 1470 882.793C1471.68 882.793 1473.17 882.002 1473.88 880.669H1474C1473.99 883.678 1472.91 885.521 1470.86 885.521C1469.65 885.521 1468.78 884.865 1468.52 883.751H1465.44C1465.74 886.303 1467.83 888.208 1470.86 888.208C1474.65 888.208 1477.07 885.188 1477.06 880.064C1477.06 874.587 1474.11 872.723 1470.98 872.712ZM1468.34 877.857C1468.31 876.357 1469.46 875.18 1471 875.17C1472.54 875.18 1473.67 876.399 1473.69 877.836C1473.69 879.283 1472.51 880.502 1470.98 880.502C1469.43 880.502 1468.34 879.346 1468.34 877.857Z" fill="black"/>
<path d="M73.628 67.4002H84.5799V97H91.9305V67.4002H102.882V61.2829H73.628V67.4002ZM108.556 107.064C114.204 107.039 117.14 104.277 118.669 99.96L129.128 70.2122H121.382L115.709 89.9454H115.413L109.789 70.2122H102.142L111.762 97.74L111.318 98.8747C110.43 101.193 109.271 101.341 107.816 101.341C106.903 101.341 105.793 101.317 104.856 101.243V106.916C105.793 107.015 107.125 107.039 108.556 107.064ZM132.68 107.064H139.981V92.708H140.178C141.214 94.928 143.459 97.444 147.825 97.444C153.942 97.444 158.703 92.5847 158.678 83.6308C158.703 74.4548 153.745 69.8668 147.825 69.8668C143.311 69.8668 141.19 72.5308 140.178 74.7015H139.882V70.2122H132.68V107.064ZM139.833 83.5814C139.808 78.7715 141.856 75.6881 145.506 75.6881C149.28 75.6881 151.253 78.9195 151.229 83.5814C151.253 88.3174 149.231 91.598 145.506 91.6227C141.88 91.598 139.808 88.4161 139.833 83.5814ZM175.451 97.5427C183.567 97.518 188.599 91.968 188.623 83.6801C188.599 75.4168 183.567 69.8668 175.451 69.8668C167.361 69.8668 162.304 75.4168 162.329 83.6801C162.304 91.968 167.361 97.518 175.451 97.5427ZM169.729 83.6801C169.729 78.9688 171.677 75.4415 175.501 75.4415C179.225 75.4415 181.199 78.9688 181.174 83.6801C181.199 88.3667 179.225 91.8447 175.501 91.8694C171.677 91.8447 169.729 88.3667 169.729 83.6801ZM205.248 107.607C212.87 107.607 218.248 104.129 218.272 97.296V70.2122H211.02V74.7015H210.724C209.738 72.5308 207.567 69.8668 203.078 69.8668C197.158 69.8668 192.175 74.3808 192.175 83.4334C192.175 92.3627 197.035 96.63 203.078 96.6053C207.394 96.63 209.762 94.4347 210.724 92.264H211.07V97.148C211.045 100.873 208.776 102.328 205.396 102.328C202.486 102.328 200.463 101.366 200.068 99.22H192.866C193.285 104.277 197.849 107.607 205.248 107.607ZM199.674 83.5321C199.649 78.9195 201.622 75.6881 205.347 75.6881C209.022 75.6881 211.07 78.7715 211.07 83.5321C211.07 88.2927 208.998 91.1047 205.347 91.1294C201.647 91.1047 199.649 88.1694 199.674 83.5321ZM223.946 97H231.247V81.7561C231.222 78.4755 233.664 76.1815 236.97 76.1815C237.981 76.1815 239.387 76.3541 240.078 76.5761V70.0642C239.436 69.9162 238.499 69.8175 237.759 69.8175C234.75 69.8175 232.258 71.5688 231.296 74.8495H231V70.2122H223.946V97ZM241.607 89.5014C241.632 94.8047 245.406 97.518 250.536 97.4933C254.507 97.518 257.073 95.7667 258.38 93.3H258.577V97H265.484V78.9441C265.509 72.4815 259.983 69.8668 254.137 69.8668C247.034 69.8668 242.988 73.5175 242.544 78.1548H249.5C249.895 76.3295 251.449 75.2195 253.94 75.1948C256.678 75.2195 258.207 76.5021 258.232 78.7468V80.9174C257.097 80.9668 253.496 81.1394 251.572 81.2628C246.417 81.5834 241.632 83.5321 241.607 89.5014ZM248.612 89.3041C248.612 87.2321 250.215 86.0234 252.756 85.8014C253.989 85.7027 257.122 85.5301 258.232 85.4807V87.4294C258.257 90.266 255.938 92.4367 252.608 92.4614C250.265 92.4367 248.612 91.3514 248.612 89.3041ZM271.059 107.064H278.36V92.708H278.557C279.593 94.928 281.838 97.444 286.204 97.444C292.321 97.444 297.082 92.5847 297.057 83.6308C297.082 74.4548 292.124 69.8668 286.204 69.8668C281.69 69.8668 279.569 72.5308 278.557 74.7015H278.261V70.2122H271.059V107.064ZM278.212 83.5814C278.187 78.7715 280.235 75.6881 283.885 75.6881C287.659 75.6881 289.633 78.9195 289.608 83.5814C289.633 88.3174 287.61 91.598 283.885 91.6227C280.259 91.598 278.187 88.4161 278.212 83.5814ZM309.094 81.5094C309.094 77.9821 311.24 75.9348 314.324 75.9348C317.382 75.9348 319.158 77.8835 319.158 81.2134V97H326.46V79.9308C326.46 73.6408 322.784 69.8668 317.185 69.8668C313.115 69.8668 310.426 71.7662 309.193 74.8988H308.897V61.2829H301.793V97H309.094V81.5094ZM335.389 107.064C341.038 107.039 343.973 104.277 345.502 99.96L355.961 70.2122H348.215L342.542 89.9454H342.246L336.622 70.2122H328.976L338.596 97.74L338.152 98.8747C337.264 101.193 336.104 101.341 334.649 101.341C333.736 101.341 332.626 101.317 331.689 101.243V106.916C332.626 107.015 333.958 107.039 335.389 107.064Z" fill="black"/>
<path d="M386.258 102H391.809V90.8974H403.43V102H409.018V75.2056H403.43V86.3083H391.809V75.2056H386.258V102ZM422.526 102.407C427.485 102.389 430.816 99.983 431.593 96.2636H426.375C425.838 97.4664 424.506 98.2806 422.637 98.2991C419.806 98.2806 418.011 96.4117 418.011 93.377H431.741V91.8226C431.741 84.976 427.578 81.6452 422.304 81.6452C416.42 81.6452 412.589 85.8457 412.608 92.0446C412.589 98.4101 416.364 102.389 422.526 102.407ZM418.011 89.9351C418.122 87.6221 419.899 85.7346 422.415 85.7531C424.858 85.7346 426.542 87.4926 426.56 89.9351H418.011ZM434.221 96.3747C434.239 100.353 437.071 102.389 440.92 102.37C443.899 102.389 445.823 101.075 446.804 99.2243H446.952V102H452.133V88.4548C452.152 83.6066 448.007 81.6452 443.621 81.6452C438.292 81.6452 435.257 84.3838 434.924 87.8626H440.142C440.438 86.4933 441.604 85.6606 443.473 85.6421C445.527 85.6606 446.674 86.6228 446.693 88.3067V89.9351C445.842 89.9721 443.14 90.1017 441.697 90.1942C437.829 90.4348 434.239 91.8966 434.221 96.3747ZM439.476 96.2266C439.476 94.6723 440.679 93.7655 442.585 93.599C443.51 93.525 445.86 93.3955 446.693 93.3584V94.8203C446.711 96.9483 444.972 98.5767 442.474 98.5952C440.716 98.5767 439.476 97.7625 439.476 96.2266ZM463.717 102.333C466.992 102.333 468.658 100.446 469.416 98.7802H469.675V102H475.079V75.2056H469.601V85.272H469.416C468.695 83.6436 467.085 81.6452 463.717 81.6452C459.276 81.6452 455.538 85.087 455.538 91.9706C455.538 98.6877 459.128 102.333 463.717 102.333ZM461.163 91.9336C461.145 88.4363 462.625 86.0122 465.419 86.0122C468.176 86.0122 469.712 88.3253 469.712 91.9336C469.712 95.5605 468.158 97.9475 465.419 97.966C462.644 97.9475 461.145 95.4865 461.163 91.9336ZM479.483 102H484.96V81.9042H479.483V102ZM479.224 76.5009C479.224 78.0183 480.574 79.2766 482.221 79.2766C483.85 79.2766 485.201 78.0183 485.182 76.5009C485.201 74.9466 483.85 73.7068 482.221 73.6883C480.574 73.7068 479.224 74.9466 479.224 76.5009ZM494.693 90.3792C494.693 87.7331 496.266 86.1972 498.542 86.1972C500.818 86.1972 502.151 87.6776 502.169 90.1572V102H507.609V89.195C507.628 84.5133 504.889 81.6452 500.689 81.6452C497.709 81.6452 495.563 83.107 494.656 85.4201H494.434V81.9042H489.216V102H494.693V90.3792ZM520.896 109.957C526.613 109.957 530.647 107.348 530.666 102.222V81.9042H525.226V85.272H525.003C524.263 83.6436 522.635 81.6452 519.267 81.6452C514.826 81.6452 511.088 85.0315 511.088 91.8226C511.088 98.5212 514.734 101.722 519.267 101.704C522.505 101.722 524.282 100.076 525.003 98.4472H525.263V102.111C525.244 104.905 523.542 105.997 521.007 105.997C518.823 105.997 517.306 105.275 517.01 103.665H511.606C511.921 107.459 515.344 109.957 520.896 109.957ZM516.714 91.8966C516.695 88.4363 518.175 86.0122 520.97 86.0122C523.727 86.0122 525.263 88.3253 525.263 91.8966C525.263 95.4679 523.708 97.5774 520.97 97.596C518.194 97.5774 516.695 95.3754 516.714 91.8966Z" fill="#6B6B6B"/>
<path d="M1186.26 107H1191.81V95.8974H1202.76V91.3083H1191.81V84.7947H1203.91V80.2056H1186.26V107ZM1215.01 107.407C1221.1 107.389 1224.88 103.225 1224.89 97.0076C1224.88 90.8087 1221.1 86.6452 1215.01 86.6452C1208.94 86.6452 1205.15 90.8087 1205.17 97.0076C1205.15 103.225 1208.94 107.389 1215.01 107.407ZM1210.72 97.0076C1210.72 93.4733 1212.18 90.8272 1215.05 90.8272C1217.84 90.8272 1219.32 93.4733 1219.31 97.0076C1219.32 100.523 1217.84 103.133 1215.05 103.151C1212.18 103.133 1210.72 100.523 1210.72 97.0076ZM1233.81 95.3792C1233.81 92.7331 1235.39 91.1972 1237.66 91.1972C1239.94 91.1972 1241.27 92.6776 1241.29 95.1572V107H1246.73V94.195C1246.75 89.5133 1244.01 86.6452 1239.81 86.6452C1236.83 86.6452 1234.68 88.107 1233.78 90.4201H1233.55V86.9042H1228.34V107H1233.81V95.3792ZM1261.57 86.9042H1257.8V82.0931H1252.32V86.9042H1249.54V91.0122H1252.32V101.597C1252.28 105.501 1254.98 107.278 1258.94 107.259C1260.29 107.278 1261.27 107.167 1261.87 107.074V102.744C1261.2 102.8 1260.24 102.855 1259.68 102.855C1258.57 102.818 1257.78 102.429 1257.8 100.82V91.0122H1261.57V86.9042ZM1273.86 107H1279.41V95.8974H1290.36V91.3083H1279.41V84.7947H1291.51V80.2056H1273.86V107ZM1293.84 101.375C1293.86 105.353 1296.69 107.389 1300.54 107.37C1303.52 107.389 1305.44 106.075 1306.43 104.224H1306.57V107H1311.75V93.4548C1311.77 88.6066 1307.63 86.6452 1303.24 86.6452C1297.91 86.6452 1294.88 89.3838 1294.55 92.8626H1299.76C1300.06 91.4933 1301.23 90.6606 1303.09 90.6421C1305.15 90.6606 1306.3 91.6228 1306.31 93.3067V94.9351C1305.46 94.9721 1302.76 95.1017 1301.32 95.1942C1297.45 95.4348 1293.86 96.8966 1293.84 101.375ZM1299.1 101.227C1299.1 99.6723 1300.3 98.7655 1302.21 98.599C1303.13 98.525 1305.48 98.3955 1306.31 98.3584V99.8203C1306.33 101.948 1304.59 103.577 1302.1 103.595C1300.34 103.577 1299.1 102.762 1299.1 101.227ZM1315.94 107H1321.41V94.9351C1321.4 92.6591 1322.84 91.1602 1324.71 91.1602C1326.58 91.1602 1327.83 92.437 1327.82 94.417V107H1333.15V94.7131C1333.13 92.5851 1334.35 91.1602 1336.4 91.1602C1338.2 91.1602 1339.57 92.2705 1339.55 94.565V107H1345.03V93.4918C1345.03 89.1063 1342.42 86.6452 1338.7 86.6452C1335.75 86.6452 1333.46 88.144 1332.63 90.4201H1332.44C1331.78 88.107 1329.72 86.6452 1326.96 86.6452C1324.26 86.6452 1322.23 88.07 1321.38 90.4201H1321.15V86.9042H1315.94V107ZM1349.24 107H1354.72V86.9042H1349.24V107ZM1348.99 81.5009C1348.99 83.0183 1350.34 84.2766 1351.98 84.2766C1353.61 84.2766 1354.96 83.0183 1354.94 81.5009C1354.96 79.9466 1353.61 78.7068 1351.98 78.6883C1350.34 78.7068 1348.99 79.9466 1348.99 81.5009ZM1364.45 80.2056H1358.98V107H1364.45V80.2056ZM1371.93 114.55C1376.17 114.531 1378.37 112.459 1379.52 109.221L1387.36 86.9042H1381.55L1377.3 101.708H1377.07L1372.86 86.9042H1367.12L1374.34 107.555L1374 108.406C1373.34 110.146 1372.47 110.257 1371.38 110.257C1370.69 110.257 1369.86 110.238 1369.15 110.183V114.439C1369.86 114.513 1370.86 114.531 1371.93 114.55Z" fill="black"/>
<path d="M1414.22 104H1416.72V96.6982H1421.08C1425.76 96.6982 1427.91 93.8524 1427.91 90.2847C1427.91 86.7032 1425.76 83.8991 1421.05 83.8991H1414.22V104ZM1416.72 94.4771V86.1202H1420.94C1424.17 86.1202 1425.42 87.8832 1425.44 90.2847C1425.42 92.6724 1424.17 94.4771 1420.97 94.4771H1416.72ZM1431.1 104H1433.49V94.5048C1433.49 92.4781 1435.1 90.9788 1437.26 90.9788C1437.89 90.9788 1438.53 91.1038 1438.71 91.1454V88.73C1438.43 88.7022 1437.82 88.6883 1437.46 88.6745C1435.68 88.6883 1434.11 89.7017 1433.57 91.2287H1433.41V88.9243H1431.1V104ZM1446.87 104.305C1449.98 104.319 1452.22 102.765 1452.92 100.474H1450.37C1449.81 101.404 1448.68 102.195 1446.87 102.195C1444.19 102.195 1442.33 100.446 1442.21 97.2534H1453.15V96.2539C1453.16 90.6734 1449.81 88.73 1446.65 88.73C1442.55 88.73 1439.82 91.9506 1439.82 96.5871C1439.82 101.21 1442.51 104.319 1446.87 104.305ZM1442.22 95.2267C1442.39 92.8945 1444.04 90.84 1446.65 90.84C1449.13 90.84 1450.72 92.7141 1450.73 95.2267H1442.22ZM1462.84 88.9243H1459.67V85.315H1457.25V88.9243H1454.98V90.9233H1457.25V100.28C1457.27 102.945 1459.38 104.194 1461.39 104.194C1462.1 104.194 1462.68 104.139 1463.06 104.083V101.862C1462.71 101.876 1462.07 101.918 1461.64 101.918C1460.63 101.918 1459.66 101.598 1459.67 99.6689V90.9233H1462.84V88.9243ZM1472.08 104.305C1475.19 104.319 1477.43 102.765 1478.13 100.474H1475.58C1475.02 101.404 1473.89 102.195 1472.08 102.195C1469.4 102.195 1467.54 100.446 1467.42 97.2534H1478.36V96.2539C1478.37 90.6734 1475.02 88.73 1471.86 88.73C1467.76 88.73 1465.03 91.9506 1465.03 96.5871C1465.03 101.21 1467.72 104.319 1472.08 104.305ZM1467.43 95.2267C1467.6 92.8945 1469.25 90.84 1471.86 90.84C1474.34 90.84 1475.93 92.7141 1475.94 95.2267H1467.43ZM1483.85 94.949C1483.85 92.3393 1485.46 90.8678 1487.66 90.8678C1489.79 90.8678 1491.07 92.256 1491.07 94.5881V104H1493.46V94.4215C1493.47 90.5901 1491.43 88.73 1488.38 88.73C1486.09 88.73 1484.67 89.7434 1483.96 91.2842H1483.77V88.9243H1481.46V104H1483.85V94.949ZM1502.98 104.305C1505.86 104.319 1506.84 102.529 1507.37 101.696H1507.62V104H1509.95V83.8991H1507.53V91.312H1507.37C1506.85 90.5069 1505.94 88.73 1503.01 88.73C1499.22 88.73 1496.57 91.7285 1496.57 96.5038C1496.57 101.293 1499.22 104.319 1502.98 104.305ZM1498.98 96.4483C1498.98 93.2971 1500.41 90.8678 1503.31 90.8678C1506.12 90.8678 1507.6 93.1028 1507.62 96.4483C1507.6 99.8354 1506.08 102.168 1503.31 102.168C1500.46 102.168 1498.98 99.655 1498.98 96.4483ZM1513.37 99.7244C1513.37 102.667 1515.64 104.347 1518.5 104.361C1521.13 104.347 1522.5 102.959 1523 101.945H1523.11V104H1525.47V94.0606C1525.48 89.313 1521.78 88.73 1519.81 88.73C1516.47 88.73 1514.11 90.4097 1513.81 92.839H1516.31C1516.64 91.6868 1517.79 90.8123 1519.7 90.8123C1521.97 90.8123 1523.11 91.9228 1523.11 93.8385V95.0601C1522.43 95.074 1520 95.2128 1519.03 95.2822C1516.42 95.4766 1513.37 96.2678 1513.37 99.7244ZM1515.75 99.8354C1515.77 98.1835 1517.14 97.42 1519.31 97.2812C1520.03 97.2395 1522.4 97.0591 1523.11 97.0174V98.5306C1523.11 100.432 1521.61 102.237 1518.92 102.223C1517.09 102.237 1515.77 101.432 1515.75 99.8354ZM1529.3 104H1531.69V94.5048C1531.69 92.4781 1533.3 90.9788 1535.47 90.9788C1536.09 90.9788 1536.73 91.1038 1536.91 91.1454V88.73C1536.63 88.7022 1536.02 88.6883 1535.66 88.6745C1533.88 88.6883 1532.31 89.7017 1531.77 91.2287H1531.61V88.9243H1529.3V104ZM1544.43 104.305C1547.31 104.319 1548.29 102.529 1548.82 101.696H1549.07V104H1551.4V83.8991H1548.99V91.312H1548.82C1548.31 90.5069 1547.39 88.73 1544.46 88.73C1540.67 88.73 1538.02 91.7285 1538.02 96.5038C1538.02 101.293 1540.67 104.319 1544.43 104.305ZM1540.43 96.4483C1540.43 93.2971 1541.86 90.8678 1544.77 90.8678C1547.57 90.8678 1549.06 93.1028 1549.07 96.4483C1549.06 99.8354 1547.53 102.168 1544.77 102.168C1541.91 102.168 1540.43 99.655 1540.43 96.4483Z" fill="#6B6B6B"/>
<path d="M804.258 107H809.809V95.8974H820.763V91.3083H809.809V84.7947H821.911V80.2056H804.258V107ZM833.013 107.407C839.101 107.389 842.876 103.225 842.895 97.0076C842.876 90.8087 839.101 86.6452 833.013 86.6452C826.944 86.6452 823.151 90.8087 823.169 97.0076C823.151 103.225 826.944 107.389 833.013 107.407ZM828.72 97.0076C828.72 93.4733 830.182 90.8272 833.05 90.8272C835.845 90.8272 837.325 93.4733 837.306 97.0076C837.325 100.523 835.845 103.133 833.05 103.151C830.182 103.133 828.72 100.523 828.72 97.0076ZM851.814 95.3792C851.814 92.7331 853.387 91.1972 855.663 91.1972C857.939 91.1972 859.271 92.6776 859.29 95.1572V107H864.73V94.195C864.748 89.5133 862.01 86.6452 857.809 86.6452C854.83 86.6452 852.684 88.107 851.777 90.4201H851.555V86.9042H846.337V107H851.814V95.3792ZM879.57 86.9042H875.796V82.0931H870.318V86.9042H867.543V91.0122H870.318V101.597C870.281 105.501 872.983 107.278 876.943 107.259C878.294 107.278 879.274 107.167 879.866 107.074V102.744C879.2 102.8 878.238 102.855 877.683 102.855C876.573 102.818 875.777 102.429 875.796 100.82V91.0122H879.57V86.9042ZM888.971 107H894.411L899.555 89.3098H899.777L904.884 107H910.325L917.986 80.2056H911.916L907.401 98.9691H907.179L902.257 80.2056H897.039L892.116 98.9321H891.894L887.379 80.2056H881.31L888.971 107ZM927.645 107.407C932.604 107.389 935.935 104.983 936.712 101.264H931.494C930.957 102.466 929.625 103.281 927.756 103.299C924.925 103.281 923.13 101.412 923.13 98.377H936.86V96.8226C936.86 89.976 932.697 86.6452 927.423 86.6452C921.538 86.6452 917.708 90.8457 917.726 97.0446C917.708 103.41 921.483 107.389 927.645 107.407ZM923.13 94.9351C923.241 92.6221 925.017 90.7346 927.534 90.7531C929.976 90.7346 931.66 92.4926 931.679 94.9351H923.13ZM940.302 107H945.779V86.9042H940.302V107ZM940.043 81.5009C940.043 83.0183 941.394 84.2766 943.04 84.2766C944.669 84.2766 946.02 83.0183 946.001 81.5009C946.02 79.9466 944.669 78.7068 943.04 78.6883C941.394 78.7068 940.043 79.9466 940.043 81.5009ZM959.065 114.957C964.783 114.957 968.817 112.348 968.836 107.222V86.9042H963.395V90.272H963.173C962.433 88.6436 960.805 86.6452 957.437 86.6452C952.996 86.6452 949.258 90.0315 949.258 96.8226C949.258 103.521 952.903 106.722 957.437 106.704C960.675 106.722 962.452 105.076 963.173 103.447H963.432V107.111C963.414 109.905 961.711 110.997 959.176 110.997C956.993 110.997 955.475 110.275 955.179 108.665H949.776C950.091 112.459 953.514 114.957 959.065 114.957ZM954.883 96.8966C954.865 93.4363 956.345 91.0122 959.139 91.0122C961.896 91.0122 963.432 93.3253 963.432 96.8966C963.432 100.468 961.878 102.577 959.139 102.596C956.364 102.577 954.865 100.375 954.883 96.8966ZM978.569 95.3792C978.569 92.7331 980.179 91.1972 982.492 91.1972C984.786 91.1972 986.119 92.6591 986.119 95.1572V107H991.596V94.195C991.596 89.4763 988.839 86.6452 984.638 86.6452C981.585 86.6452 979.568 88.07 978.643 90.4201H978.421V80.2056H973.092V107H978.569V95.3792ZM1006.4 86.9042H1002.62V82.0931H997.147V86.9042H994.372V91.0122H997.147V101.597C997.11 105.501 999.812 107.278 1003.77 107.259C1005.12 107.278 1006.1 107.167 1006.7 107.074V102.744C1006.03 102.8 1005.07 102.855 1004.51 102.855C1003.4 102.818 1002.61 102.429 1002.62 100.82V91.0122H1006.4V86.9042Z" fill="black"/>
<path d="M1032.22 104H1039.52C1044.27 104 1046.26 101.682 1046.27 98.6694C1046.26 95.4766 1044.06 93.7552 1042.19 93.6442V93.4498C1043.94 92.9639 1045.48 91.8117 1045.46 89.2297C1045.48 86.2729 1043.49 83.8991 1039.27 83.8991H1032.22V104ZM1034.72 101.779V94.8658H1039.63C1042.22 94.8658 1043.87 96.601 1043.85 98.6416C1043.87 100.391 1042.65 101.779 1039.5 101.779H1034.72ZM1034.72 92.7002V86.1202H1039.27C1041.9 86.1202 1043.08 87.5084 1043.08 89.2575C1043.08 91.3536 1041.37 92.7141 1039.19 92.7002H1034.72ZM1055.68 104.305C1059.78 104.319 1062.53 101.21 1062.51 96.5316C1062.53 91.8256 1059.78 88.73 1055.68 88.73C1051.57 88.73 1048.8 91.8256 1048.8 96.5316C1048.8 101.21 1051.57 104.319 1055.68 104.305ZM1051.18 96.5316C1051.2 93.5331 1052.61 90.84 1055.68 90.84C1058.72 90.84 1060.12 93.5331 1060.12 96.5316C1060.12 99.5439 1058.72 102.195 1055.68 102.195C1052.61 102.195 1051.2 99.5439 1051.18 96.5316ZM1068.04 83.8991H1065.65V104H1068.04V83.8991ZM1077.53 104.305C1080.4 104.319 1081.39 102.529 1081.92 101.696H1082.17V104H1084.5V83.8991H1082.08V91.312H1081.92C1081.4 90.5069 1080.49 88.73 1077.56 88.73C1073.77 88.73 1071.12 91.7285 1071.12 96.5038C1071.12 101.293 1073.77 104.319 1077.53 104.305ZM1073.53 96.4483C1073.53 93.2971 1074.96 90.8678 1077.86 90.8678C1080.67 90.8678 1082.15 93.1028 1082.17 96.4483C1082.15 99.8354 1080.63 102.168 1077.86 102.168C1075 102.168 1073.53 99.655 1073.53 96.4483Z" fill="#6B6B6B"/>
</svg>
