<svg width="1624" height="498" viewBox="0 0 1624 498" fill="none" xmlns="http://www.w3.org/2000/svg">
<rect width="1624" height="498" rx="32" fill="#F5F5F5"/>
<line x1="75" y1="123.5" x2="1554" y2="123.5" stroke="#898989" stroke-opacity="0.3"/>
<line x1="94" y1="427.5" x2="1536" y2="427.5" stroke="#898989" stroke-opacity="0.3"/>
<path d="M94.3972 71.4948H101.501C101.402 65.1802 96.1978 60.7896 88.2799 60.7896C80.4606 60.7896 74.738 65.1062 74.7626 71.5935C74.7626 76.8228 78.4626 79.8321 84.4813 81.3121L88.3786 82.2494C92.2759 83.2114 94.4959 84.3461 94.4959 86.7881C94.4959 89.4521 91.9799 91.2774 88.0826 91.2774C84.1359 91.2774 81.2746 89.4521 81.0279 85.8507H73.8253C74.0473 93.522 79.5479 97.518 88.1812 97.4933C96.8885 97.518 101.97 93.3247 101.994 86.7881C101.97 80.8434 97.4065 77.7355 91.2892 76.3295L88.0826 75.5401C84.9992 74.8495 82.3353 73.6902 82.3599 71.1002C82.3846 68.7322 84.4813 67.0055 88.2306 67.0055C91.8565 67.0055 94.1012 68.6582 94.3972 71.4948ZM106.681 107.064H113.982V92.708H114.18C115.216 94.928 117.46 97.444 121.826 97.444C127.944 97.444 132.704 92.5847 132.68 83.6308C132.704 74.4548 127.746 69.8668 121.826 69.8668C117.312 69.8668 115.191 72.5308 114.18 74.7015H113.884V70.2122H106.681V107.064ZM113.834 83.5814C113.81 78.7715 115.857 75.6881 119.508 75.6881C123.282 75.6881 125.255 78.9195 125.23 83.5814C125.255 88.3174 123.232 91.598 119.508 91.6227C115.882 91.598 113.81 88.4161 113.834 83.5814ZM136.133 89.5014C136.158 94.8047 139.932 97.518 145.062 97.4933C149.033 97.518 151.599 95.7667 152.906 93.3H153.103V97H160.01V78.9441C160.035 72.4815 154.509 69.8668 148.663 69.8668C141.56 69.8668 137.514 73.5175 137.07 78.1548H144.026C144.421 76.3295 145.975 75.2195 148.466 75.1948C151.204 75.2195 152.733 76.5021 152.758 78.7468V80.9174C151.623 80.9668 148.022 81.1394 146.098 81.2628C140.943 81.5834 136.158 83.5321 136.133 89.5014ZM143.138 89.3041C143.138 87.2321 144.742 86.0234 147.282 85.8014C148.515 85.7027 151.648 85.5301 152.758 85.4807V87.4294C152.783 90.266 150.464 92.4367 147.134 92.4614C144.791 92.4367 143.138 91.3514 143.138 89.3041ZM177.622 97.5427C184.726 97.518 189.191 93.3494 189.511 87.2814H182.654C182.185 90.118 180.286 91.7214 177.721 91.7214C174.169 91.7214 171.899 88.7614 171.899 83.5814C171.899 78.5001 174.218 75.5648 177.721 75.5401C180.483 75.5648 182.21 77.3901 182.654 80.0294H189.511C189.215 73.8875 184.529 69.8668 177.622 69.8668C169.507 69.8668 164.475 75.4908 164.499 83.6801C164.475 91.8447 169.408 97.518 177.622 97.5427ZM194.05 97H201.351V70.2122H194.05V97ZM193.705 63.0096C193.705 65.0322 195.505 66.7095 197.701 66.7095C199.871 66.7095 201.672 65.0322 201.647 63.0096C201.672 60.9376 199.871 59.2849 197.701 59.2603C195.505 59.2849 193.705 60.9376 193.705 63.0096ZM214.326 81.5094C214.326 77.9821 216.422 75.9348 219.456 75.9348C222.49 75.9348 224.266 77.9081 224.291 81.2134V97H231.543V79.9308C231.568 73.6902 227.917 69.8668 222.318 69.8668C218.346 69.8668 215.485 71.8155 214.276 74.8988H213.98V70.2122H207.024V97H214.326V81.5094ZM249.253 107.607C256.875 107.607 262.253 104.129 262.277 97.296V70.2122H255.025V74.7015H254.729C253.743 72.5308 251.572 69.8668 247.083 69.8668C241.163 69.8668 236.18 74.3808 236.18 83.4334C236.18 92.3627 241.04 96.63 247.083 96.6053C251.399 96.63 253.767 94.4347 254.729 92.264H255.075V97.148C255.05 100.873 252.781 102.328 249.401 102.328C246.491 102.328 244.468 101.366 244.074 99.22H236.871C237.29 104.277 241.854 107.607 249.253 107.607ZM243.679 83.5321C243.654 78.9195 245.628 75.6881 249.352 75.6881C253.027 75.6881 255.075 78.7715 255.075 83.5321C255.075 88.2927 253.003 91.1047 249.352 91.1294C245.652 91.1047 243.654 88.1694 243.679 83.5321Z" fill="black"/>
<rect x="266.5" y="274" width="8" height="8" fill="#0075FF"/>
<path d="M257.852 313.208C261.289 313.208 263.768 311.396 263.768 308.939C263.768 307.043 262.289 305.502 260.456 305.21V305.106C262.039 304.794 263.195 303.429 263.205 301.774C263.195 299.43 260.935 297.712 257.852 297.712C254.77 297.712 252.51 299.43 252.52 301.774C252.51 303.429 253.635 304.794 255.27 305.106V305.21C253.395 305.502 251.937 307.043 251.937 308.939C251.937 311.396 254.405 313.208 257.852 313.208ZM255.207 308.626C255.197 307.314 256.322 306.366 257.852 306.356C259.383 306.366 260.508 307.324 260.498 308.626C260.508 309.917 259.446 310.823 257.852 310.813C256.259 310.823 255.197 309.917 255.207 308.626ZM255.582 302.086C255.572 300.909 256.499 300.087 257.852 300.087C259.196 300.087 260.133 300.909 260.144 302.086C260.133 303.294 259.175 304.138 257.852 304.148C256.519 304.138 255.572 303.294 255.582 302.086ZM265.934 317.249H269.016V311.188H269.1C269.537 312.125 270.485 313.187 272.328 313.187C274.911 313.187 276.921 311.136 276.91 307.356C276.921 303.482 274.827 301.545 272.328 301.545C270.422 301.545 269.527 302.669 269.1 303.586H268.975V301.69H265.934V317.249ZM268.954 307.335C268.943 305.304 269.808 304.002 271.349 304.002C272.942 304.002 273.776 305.366 273.765 307.335C273.776 309.334 272.922 310.719 271.349 310.73C269.818 310.719 268.943 309.376 268.954 307.335ZM281.055 301.69H277.868L281.117 307.335L277.743 313H280.951L283.159 309.063L285.408 313H288.574L285.179 307.335L288.491 301.69H285.304L283.159 305.669L281.055 301.69Z" fill="black"/>
<rect x="332" y="272" width="12" height="12" fill="#0075FF"/>
<path d="M321.686 299.92H318.728L315 302.295V305.065L318.457 302.899H318.541V315H321.686V299.92ZM325.185 315H335.974V312.417H329.538V312.334L331.829 310.105C334.932 307.294 335.765 305.888 335.765 304.169C335.765 301.555 333.62 299.712 330.392 299.712C327.215 299.712 325.028 301.597 325.039 304.544H328.017C328.007 303.097 328.934 302.201 330.35 302.212C331.735 302.201 332.745 303.034 332.745 304.378C332.745 305.575 331.985 306.408 330.579 307.752L325.164 312.73L325.185 315ZM338.223 319.249H341.306V313.188H341.389C341.826 314.125 342.774 315.187 344.617 315.187C347.2 315.187 349.21 313.136 349.2 309.356C349.21 305.482 347.117 303.545 344.617 303.545C342.712 303.545 341.816 304.669 341.389 305.586H341.264V303.69H338.223V319.249ZM341.243 309.335C341.233 307.304 342.097 306.002 343.638 306.002C345.232 306.002 346.065 307.366 346.054 309.335C346.065 311.334 345.211 312.719 343.638 312.73C342.108 312.719 341.233 311.376 341.243 309.335ZM353.344 303.69H350.158L353.407 309.335L350.033 315H353.24L355.448 311.063L357.697 315H360.863L357.468 309.335L360.78 303.69H357.593L355.448 307.669L353.344 303.69Z" fill="black"/>
<rect x="402.5" y="270" width="16" height="16" fill="#0075FF"/>
<path d="M393.686 301.92H390.728L387 304.295V307.065L390.457 304.899H390.541V317H393.686V301.92ZM403.017 317.208C406.422 317.219 408.734 315.021 408.723 311.96C408.734 309.117 406.714 307.086 403.995 307.086C402.329 307.086 400.84 307.867 400.142 309.21H399.996C400.017 306.242 401.09 304.399 403.142 304.399C404.36 304.399 405.224 305.055 405.474 306.107H408.557C408.255 303.628 406.172 301.712 403.142 301.712C399.372 301.712 396.945 304.722 396.935 309.814C396.924 315.334 399.903 317.198 403.017 317.208ZM400.309 312.043C400.33 310.575 401.496 309.366 403.037 309.356C404.568 309.366 405.683 310.533 405.683 312.043C405.683 313.563 404.547 314.74 402.996 314.73C401.454 314.74 400.33 313.522 400.309 312.043ZM410.91 321.249H413.993V315.188H414.076C414.514 316.125 415.461 317.187 417.305 317.187C419.887 317.187 421.897 315.136 421.887 311.356C421.897 307.482 419.804 305.545 417.305 305.545C415.399 305.545 414.503 306.669 414.076 307.586H413.951V305.69H410.91V321.249ZM413.931 311.335C413.92 309.304 414.784 308.002 416.326 308.002C417.919 308.002 418.752 309.366 418.742 311.335C418.752 313.334 417.898 314.719 416.326 314.73C414.795 314.719 413.92 313.376 413.931 311.335ZM426.032 305.69H422.845L426.094 311.335L422.72 317H425.928L428.135 313.063L430.385 317H433.551L430.156 311.335L433.467 305.69H430.281L428.135 309.669L426.032 305.69Z" fill="black"/>
<rect x="475" y="268" width="20" height="20" fill="#0075FF"/>
<path d="M460.187 319H470.976V316.417H464.54V316.334L466.831 314.105C469.935 311.294 470.768 309.888 470.768 308.169C470.768 305.555 468.623 303.712 465.394 303.712C462.218 303.712 460.031 305.597 460.041 308.544H463.02C463.009 307.097 463.936 306.201 465.353 306.212C466.738 306.201 467.748 307.034 467.748 308.378C467.748 309.575 466.988 310.408 465.582 311.752L460.166 316.73L460.187 319ZM479.057 319.208C482.827 319.208 485.118 316.417 485.118 311.46C485.118 306.534 482.817 303.712 479.057 303.712C475.298 303.712 472.996 306.534 472.996 311.46C472.996 316.396 475.277 319.208 479.057 319.208ZM476.204 311.46C476.204 308.013 477.318 306.284 479.057 306.274C480.797 306.284 481.921 308.013 481.911 311.46C481.921 314.939 480.807 316.626 479.057 316.626C477.308 316.626 476.183 314.939 476.204 311.46ZM487.305 323.249H490.388V317.188H490.471C490.909 318.125 491.856 319.187 493.7 319.187C496.282 319.187 498.292 317.136 498.282 313.356C498.292 309.482 496.199 307.545 493.7 307.545C491.794 307.545 490.898 308.669 490.471 309.586H490.346V307.69H487.305V323.249ZM490.325 313.335C490.315 311.304 491.179 310.002 492.721 310.002C494.314 310.002 495.147 311.366 495.137 313.335C495.147 315.334 494.293 316.719 492.721 316.73C491.19 316.719 490.315 315.376 490.325 313.335ZM502.427 307.69H499.24L502.489 313.335L499.115 319H502.322L504.53 315.063L506.78 319H509.946L506.551 313.335L509.862 307.69H506.676L504.53 311.669L502.427 307.69Z" fill="black"/>
<rect x="549" y="266" width="24" height="24" fill="#0075FF"/>
<path d="M536.187 321H546.976V318.417H540.54V318.334L542.831 316.105C545.935 313.294 546.768 311.888 546.768 310.169C546.768 307.555 544.623 305.712 541.394 305.712C538.218 305.712 536.031 307.597 536.041 310.544H539.02C539.009 309.097 539.936 308.201 541.353 308.212C542.738 308.201 543.748 309.034 543.748 310.378C543.748 311.575 542.988 312.408 541.582 313.752L536.166 318.73L536.187 321ZM548.622 318.334H555.953V321H558.932V318.334H560.848V315.814H558.932V305.92H554.995L548.622 315.855V318.334ZM551.787 315.814V315.689L555.849 309.357H555.995V315.814H551.787ZM562.91 325.249H565.992V319.188H566.076C566.513 320.125 567.461 321.187 569.304 321.187C571.887 321.187 573.897 319.136 573.886 315.356C573.897 311.482 571.803 309.545 569.304 309.545C567.398 309.545 566.503 310.669 566.076 311.586H565.951V309.69H562.91V325.249ZM565.93 315.335C565.919 313.304 566.784 312.002 568.325 312.002C569.918 312.002 570.751 313.366 570.741 315.335C570.751 317.334 569.898 318.719 568.325 318.73C566.794 318.719 565.919 317.376 565.93 315.335ZM578.031 309.69H574.844L578.093 315.335L574.719 321H577.927L580.135 317.063L582.384 321H585.55L582.155 315.335L585.467 309.69H582.28L580.135 313.669L578.031 309.69Z" fill="black"/>
<rect x="623" y="264" width="28" height="28" fill="#0075FF"/>
<path d="M612.187 323H622.976V320.417H616.54V320.334L618.831 318.105C621.935 315.294 622.768 313.888 622.768 312.169C622.768 309.555 620.623 307.712 617.394 307.712C614.218 307.712 612.031 309.597 612.041 312.544H615.02C615.009 311.097 615.936 310.201 617.353 310.212C618.738 310.201 619.748 311.034 619.748 312.378C619.748 313.575 618.988 314.408 617.582 315.752L612.166 320.73L612.187 323ZM630.87 323.208C634.307 323.208 636.785 321.396 636.785 318.939C636.785 317.043 635.306 315.502 633.474 315.21V315.106C635.056 314.794 636.212 313.429 636.223 311.774C636.212 309.43 633.953 307.712 630.87 307.712C627.787 307.712 625.528 309.43 625.538 311.774C625.528 313.429 626.652 314.794 628.287 315.106V315.21C626.413 315.502 624.955 317.043 624.955 318.939C624.955 321.396 627.423 323.208 630.87 323.208ZM628.225 318.626C628.214 317.314 629.339 316.366 630.87 316.356C632.401 316.366 633.526 317.324 633.515 318.626C633.526 319.917 632.463 320.823 630.87 320.813C629.277 320.823 628.214 319.917 628.225 318.626ZM628.6 312.086C628.589 310.909 629.516 310.087 630.87 310.087C632.213 310.087 633.151 310.909 633.161 312.086C633.151 313.294 632.193 314.138 630.87 314.148C629.537 314.138 628.589 313.294 628.6 312.086ZM638.951 327.249H642.034V321.188H642.117C642.555 322.125 643.502 323.187 645.346 323.187C647.928 323.187 649.938 321.136 649.928 317.356C649.938 313.482 647.845 311.545 645.346 311.545C643.44 311.545 642.544 312.669 642.117 313.586H641.992V311.69H638.951V327.249ZM641.971 317.335C641.961 315.304 642.825 314.002 644.367 314.002C645.96 314.002 646.793 315.366 646.783 317.335C646.793 319.334 645.939 320.719 644.367 320.73C642.836 320.719 641.961 319.376 641.971 317.335ZM654.073 311.69H650.886L654.135 317.335L650.761 323H653.968L656.176 319.063L658.426 323H661.592L658.197 317.335L661.508 311.69H658.321L656.176 315.669L654.073 311.69Z" fill="black"/>
<rect x="696.5" y="262" width="32" height="32" fill="#0075FF"/>
<path d="M693.769 325.208C697.175 325.208 699.622 323.355 699.601 320.772C699.622 318.887 698.403 317.544 696.185 317.273V317.148C697.872 316.846 699.049 315.648 699.039 313.961C699.049 311.576 696.956 309.712 693.811 309.712C690.718 309.712 688.385 311.514 688.333 314.107H691.332C691.384 312.951 692.478 312.201 693.811 312.212C695.144 312.201 696.029 312.993 696.019 314.149C696.029 315.336 694.988 316.148 693.498 316.148H692.103V318.46H693.498C695.269 318.47 696.362 319.335 696.352 320.564C696.362 321.782 695.29 322.615 693.79 322.626C692.332 322.615 691.239 321.876 691.186 320.751H688.021C688.083 323.386 690.457 325.208 693.769 325.208ZM701.809 325H712.598V322.417H706.162V322.334L708.453 320.105C711.556 317.294 712.389 315.888 712.389 314.169C712.389 311.555 710.244 309.712 707.016 309.712C703.84 309.712 701.653 311.597 701.663 314.544H704.641C704.631 313.097 705.558 312.201 706.974 312.212C708.359 312.201 709.369 313.034 709.369 314.378C709.369 315.575 708.609 316.408 707.203 317.752L701.788 322.73L701.809 325ZM714.847 329.249H717.93V323.188H718.013C718.45 324.125 719.398 325.187 721.241 325.187C723.824 325.187 725.834 323.136 725.824 319.356C725.834 315.482 723.741 313.545 721.241 313.545C719.336 313.545 718.44 314.669 718.013 315.586H717.888V313.69H714.847V329.249ZM717.867 319.335C717.857 317.304 718.721 316.002 720.263 316.002C721.856 316.002 722.689 317.366 722.679 319.335C722.689 321.334 721.835 322.719 720.263 322.73C718.732 322.719 717.857 321.376 717.867 319.335ZM729.968 313.69H726.782L730.031 319.335L726.657 325H729.864L732.072 321.063L734.321 325H737.487L734.092 319.335L737.404 313.69H734.217L732.072 317.669L729.968 313.69Z" fill="black"/>
<rect x="770" y="260" width="36" height="36" fill="#0075FF"/>
<path d="M768.769 327.208C772.175 327.208 774.622 325.355 774.601 322.772C774.622 320.887 773.403 319.544 771.185 319.273V319.148C772.872 318.846 774.049 317.648 774.039 315.961C774.049 313.576 771.956 311.712 768.811 311.712C765.718 311.712 763.385 313.514 763.333 316.107H766.332C766.384 314.951 767.478 314.201 768.811 314.212C770.144 314.201 771.029 314.993 771.019 316.149C771.029 317.336 769.988 318.148 768.498 318.148H767.103V320.46H768.498C770.269 320.47 771.362 321.335 771.352 322.564C771.362 323.782 770.29 324.615 768.79 324.626C767.332 324.615 766.239 323.876 766.186 322.751H763.021C763.083 325.386 765.457 327.208 768.769 327.208ZM782.641 327.208C786.046 327.219 788.358 325.021 788.348 321.96C788.358 319.117 786.338 317.086 783.62 317.086C781.953 317.086 780.464 317.867 779.766 319.21H779.621C779.641 316.242 780.714 314.399 782.766 314.399C783.984 314.399 784.848 315.055 785.098 316.107H788.181C787.879 313.628 785.796 311.712 782.766 311.712C778.996 311.712 776.569 314.722 776.559 319.814C776.548 325.334 779.527 327.198 782.641 327.208ZM779.933 322.043C779.954 320.575 781.12 319.366 782.661 319.356C784.192 319.366 785.307 320.533 785.307 322.043C785.307 323.563 784.172 324.74 782.62 324.73C781.079 324.74 779.954 323.522 779.933 322.043ZM790.535 331.249H793.617V325.188H793.7C794.138 326.125 795.085 327.187 796.929 327.187C799.511 327.187 801.521 325.136 801.511 321.356C801.521 317.482 799.428 315.545 796.929 315.545C795.023 315.545 794.127 316.669 793.7 317.586H793.575V315.69H790.535V331.249ZM793.555 321.335C793.544 319.304 794.409 318.002 795.95 318.002C797.543 318.002 798.376 319.366 798.366 321.335C798.376 323.334 797.522 324.719 795.95 324.73C794.419 324.719 793.544 323.376 793.555 321.335ZM805.656 315.69H802.469L805.718 321.335L802.344 327H805.552L807.759 323.063L810.009 327H813.175L809.78 321.335L813.091 315.69H809.905L807.759 319.669L805.656 315.69Z" fill="black"/>
<rect x="844.5" y="258" width="40" height="40" fill="#0075FF"/>
<path d="M838.937 326.334H846.269V329H849.247V326.334H851.163V323.814H849.247V313.92H845.311L838.937 323.855V326.334ZM842.103 323.814V323.689L846.165 317.357H846.31V323.814H842.103ZM859.057 329.208C862.827 329.208 865.118 326.417 865.118 321.46C865.118 316.534 862.817 313.712 859.057 313.712C855.298 313.712 852.996 316.534 852.996 321.46C852.996 326.396 855.277 329.208 859.057 329.208ZM856.204 321.46C856.204 318.013 857.318 316.284 859.057 316.274C860.796 316.284 861.921 318.013 861.911 321.46C861.921 324.939 860.807 326.626 859.057 326.626C857.308 326.626 856.183 324.939 856.204 321.46ZM867.305 333.249H870.388V327.188H870.471C870.908 328.125 871.856 329.187 873.699 329.187C876.282 329.187 878.292 327.136 878.282 323.356C878.292 319.482 876.199 317.545 873.699 317.545C871.794 317.545 870.898 318.669 870.471 319.586H870.346V317.69H867.305V333.249ZM870.325 323.335C870.315 321.304 871.179 320.002 872.72 320.002C874.314 320.002 875.147 321.366 875.137 323.335C875.147 325.334 874.293 326.719 872.72 326.73C871.19 326.719 870.315 325.376 870.325 323.335ZM882.426 317.69H879.24L882.489 323.335L879.115 329H882.322L884.53 325.063L886.779 329H889.945L886.55 323.335L889.862 317.69H886.675L884.53 321.669L882.426 317.69Z" fill="black"/>
<rect x="919.5" y="256" width="44" height="44" fill="#0075FF"/>
<path d="M915.937 328.334H923.269V331H926.247V328.334H928.163V325.814H926.247V315.92H922.311L915.937 325.855V328.334ZM919.103 325.814V325.689L923.165 319.357H923.31V325.814H919.103ZM929.955 328.334H937.286V331H940.265V328.334H942.181V325.814H940.265V315.92H936.328L929.955 325.855V328.334ZM933.12 325.814V325.689L937.182 319.357H937.328V325.814H933.12ZM944.243 335.249H947.325V329.188H947.409C947.846 330.125 948.794 331.187 950.637 331.187C953.22 331.187 955.23 329.136 955.219 325.356C955.23 321.482 953.136 319.545 950.637 319.545C948.731 319.545 947.836 320.669 947.409 321.586H947.284V319.69H944.243V335.249ZM947.263 325.335C947.252 323.304 948.117 322.002 949.658 322.002C951.251 322.002 952.084 323.366 952.074 325.335C952.084 327.334 951.231 328.719 949.658 328.73C948.127 328.719 947.252 327.376 947.263 325.335ZM959.364 319.69H956.177L959.426 325.335L956.052 331H959.26L961.468 327.063L963.717 331H966.883L963.488 325.335L966.8 319.69H963.613L961.468 323.669L959.364 319.69Z" fill="black"/>
<rect x="994.5" y="254" width="48" height="48" fill="#0075FF"/>
<path d="M992.937 330.334H1000.27V333H1003.25V330.334H1005.16V327.814H1003.25V317.92H999.311L992.937 327.855V330.334ZM996.103 327.814V327.689L1000.16 321.357H1000.31V327.814H996.103ZM1012.87 333.208C1016.31 333.208 1018.78 331.396 1018.78 328.939C1018.78 327.043 1017.31 325.502 1015.47 325.21V325.106C1017.06 324.794 1018.21 323.429 1018.22 321.774C1018.21 319.43 1015.95 317.712 1012.87 317.712C1009.79 317.712 1007.53 319.43 1007.54 321.774C1007.53 323.429 1008.65 324.794 1010.29 325.106V325.21C1008.41 325.502 1006.95 327.043 1006.95 328.939C1006.95 331.396 1009.42 333.208 1012.87 333.208ZM1010.22 328.626C1010.21 327.314 1011.34 326.366 1012.87 326.356C1014.4 326.366 1015.53 327.324 1015.51 328.626C1015.53 329.917 1014.46 330.823 1012.87 330.813C1011.28 330.823 1010.21 329.917 1010.22 328.626ZM1010.6 322.086C1010.59 320.909 1011.52 320.087 1012.87 320.087C1014.21 320.087 1015.15 320.909 1015.16 322.086C1015.15 323.294 1014.19 324.138 1012.87 324.148C1011.54 324.138 1010.59 323.294 1010.6 322.086ZM1020.95 337.249H1024.03V331.188H1024.12C1024.55 332.125 1025.5 333.187 1027.35 333.187C1029.93 333.187 1031.94 331.136 1031.93 327.356C1031.94 323.482 1029.84 321.545 1027.35 321.545C1025.44 321.545 1024.54 322.669 1024.12 323.586H1023.99V321.69H1020.95V337.249ZM1023.97 327.335C1023.96 325.304 1024.83 324.002 1026.37 324.002C1027.96 324.002 1028.79 325.366 1028.78 327.335C1028.79 329.334 1027.94 330.719 1026.37 330.73C1024.84 330.719 1023.96 329.376 1023.97 327.335ZM1036.07 321.69H1032.89L1036.13 327.335L1032.76 333H1035.97L1038.18 329.063L1040.43 333H1043.59L1040.2 327.335L1043.51 321.69H1040.32L1038.18 325.669L1036.07 321.69Z" fill="black"/>
<rect x="1069" y="252" width="52" height="52" fill="#0075FF"/>
<path d="M1076.23 335.208C1079.62 335.208 1081.93 333.032 1081.93 329.98C1081.93 327.085 1079.87 325.013 1077.1 325.023C1075.78 325.013 1074.63 325.554 1074.08 326.294H1073.96L1074.37 322.482H1081.08V319.92H1071.79L1070.98 328.606H1073.81C1074.26 327.762 1075.05 327.335 1076.19 327.335C1077.77 327.346 1078.9 328.46 1078.89 330.064C1078.9 331.636 1077.79 332.74 1076.23 332.73C1074.92 332.74 1073.84 331.928 1073.77 330.751H1070.73C1070.78 333.355 1073.08 335.208 1076.23 335.208ZM1084.06 335H1094.85V332.417H1088.41V332.334L1090.7 330.105C1093.81 327.294 1094.64 325.888 1094.64 324.169C1094.64 321.555 1092.49 319.712 1089.27 319.712C1086.09 319.712 1083.9 321.597 1083.91 324.544H1086.89C1086.88 323.097 1087.81 322.201 1089.22 322.212C1090.61 322.201 1091.62 323.034 1091.62 324.378C1091.62 325.575 1090.86 326.408 1089.45 327.752L1084.04 332.73L1084.06 335ZM1097.1 339.249H1100.18V333.188H1100.26C1100.7 334.125 1101.65 335.187 1103.49 335.187C1106.07 335.187 1108.08 333.136 1108.07 329.356C1108.08 325.482 1105.99 323.545 1103.49 323.545C1101.59 323.545 1100.69 324.669 1100.26 325.586H1100.14V323.69H1097.1V339.249ZM1100.12 329.335C1100.11 327.304 1100.97 326.002 1102.51 326.002C1104.11 326.002 1104.94 327.366 1104.93 329.335C1104.94 331.334 1104.09 332.719 1102.51 332.73C1100.98 332.719 1100.11 331.376 1100.12 329.335ZM1112.22 323.69H1109.03L1112.28 329.335L1108.91 335H1112.11L1114.32 331.063L1116.57 335H1119.74L1116.34 329.335L1119.65 323.69H1116.47L1114.32 327.669L1112.22 323.69Z" fill="black"/>
<rect x="1145" y="250" width="56" height="56" fill="#0075FF"/>
<path d="M1153.73 337.208C1157.12 337.208 1159.43 335.032 1159.43 331.98C1159.43 329.085 1157.37 327.013 1154.6 327.023C1153.28 327.013 1152.13 327.554 1151.58 328.294H1151.46L1151.87 324.482H1158.58V321.92H1149.29L1148.48 330.606H1151.31C1151.76 329.762 1152.55 329.335 1153.69 329.335C1155.27 329.346 1156.4 330.46 1156.39 332.064C1156.4 333.636 1155.29 334.74 1153.73 334.73C1152.42 334.74 1151.34 333.928 1151.27 332.751H1148.23C1148.28 335.355 1150.58 337.208 1153.73 337.208ZM1167.39 337.208C1170.8 337.219 1173.11 335.021 1173.1 331.96C1173.11 329.117 1171.09 327.086 1168.37 327.086C1166.7 327.086 1165.21 327.867 1164.52 329.21H1164.37C1164.39 326.242 1165.46 324.399 1167.52 324.399C1168.73 324.399 1169.6 325.055 1169.85 326.107H1172.93C1172.63 323.628 1170.55 321.712 1167.52 321.712C1163.75 321.712 1161.32 324.722 1161.31 329.814C1161.3 335.334 1164.28 337.198 1167.39 337.208ZM1164.68 332.043C1164.7 330.575 1165.87 329.366 1167.41 329.356C1168.94 329.366 1170.06 330.533 1170.06 332.043C1170.06 333.563 1168.92 334.74 1167.37 334.73C1165.83 334.74 1164.7 333.522 1164.68 332.043ZM1175.28 341.249H1178.37V335.188H1178.45C1178.89 336.125 1179.84 337.187 1181.68 337.187C1184.26 337.187 1186.27 335.136 1186.26 331.356C1186.27 327.482 1184.18 325.545 1181.68 325.545C1179.77 325.545 1178.88 326.669 1178.45 327.586H1178.33V325.69H1175.28V341.249ZM1178.3 331.335C1178.29 329.304 1179.16 328.002 1180.7 328.002C1182.29 328.002 1183.13 329.366 1183.12 331.335C1183.13 333.334 1182.27 334.719 1180.7 334.73C1179.17 334.719 1178.29 333.376 1178.3 331.335ZM1190.41 325.69H1187.22L1190.47 331.335L1187.09 337H1190.3L1192.51 333.063L1194.76 337H1197.92L1194.53 331.335L1197.84 325.69H1194.65L1192.51 329.669L1190.41 325.69Z" fill="black"/>
<rect x="1225" y="248" width="60" height="60" fill="#0075FF"/>
<path d="M1235.52 339.208C1238.92 339.219 1241.24 337.021 1241.23 333.96C1241.24 331.117 1239.22 329.086 1236.5 329.086C1234.83 329.086 1233.34 329.867 1232.64 331.21H1232.5C1232.52 328.242 1233.59 326.399 1235.64 326.399C1236.86 326.399 1237.73 327.055 1237.98 328.107H1241.06C1240.76 325.628 1238.67 323.712 1235.64 323.712C1231.87 323.712 1229.45 326.722 1229.44 331.814C1229.43 337.334 1232.41 339.198 1235.52 339.208ZM1232.81 334.043C1232.83 332.575 1234 331.366 1235.54 331.356C1237.07 331.366 1238.19 332.533 1238.19 334.043C1238.19 335.563 1237.05 336.74 1235.5 336.73C1233.96 336.74 1232.83 335.522 1232.81 334.043ZM1249.24 339.208C1253.01 339.208 1255.31 336.417 1255.31 331.46C1255.31 326.534 1253 323.712 1249.24 323.712C1245.49 323.712 1243.18 326.534 1243.18 331.46C1243.18 336.396 1245.46 339.208 1249.24 339.208ZM1246.39 331.46C1246.39 328.013 1247.51 326.284 1249.24 326.274C1250.98 326.284 1252.11 328.013 1252.1 331.46C1252.11 334.939 1250.99 336.626 1249.24 336.626C1247.5 336.626 1246.37 334.939 1246.39 331.46ZM1257.49 343.249H1260.58V337.188H1260.66C1261.1 338.125 1262.04 339.187 1263.89 339.187C1266.47 339.187 1268.48 337.136 1268.47 333.356C1268.48 329.482 1266.39 327.545 1263.89 327.545C1261.98 327.545 1261.09 328.669 1260.66 329.586H1260.53V327.69H1257.49V343.249ZM1260.51 333.335C1260.5 331.304 1261.37 330.002 1262.91 330.002C1264.5 330.002 1265.33 331.366 1265.32 333.335C1265.33 335.334 1264.48 336.719 1262.91 336.73C1261.38 336.719 1260.5 335.376 1260.51 333.335ZM1272.61 327.69H1269.43L1272.68 333.335L1269.3 339H1272.51L1274.72 335.063L1276.97 339H1280.13L1276.74 333.335L1280.05 327.69H1276.86L1274.72 331.669L1272.61 327.69Z" fill="black"/>
<rect x="1309" y="246" width="64" height="64" fill="#0075FF"/>
<path d="M1321.52 341.208C1324.92 341.219 1327.24 339.021 1327.23 335.96C1327.24 333.117 1325.22 331.086 1322.5 331.086C1320.83 331.086 1319.34 331.867 1318.64 333.21H1318.5C1318.52 330.242 1319.59 328.399 1321.64 328.399C1322.86 328.399 1323.73 329.055 1323.98 330.107H1327.06C1326.76 327.628 1324.67 325.712 1321.64 325.712C1317.87 325.712 1315.45 328.722 1315.44 333.814C1315.43 339.334 1318.41 341.198 1321.52 341.208ZM1318.81 336.043C1318.83 334.575 1320 333.366 1321.54 333.356C1323.07 333.366 1324.19 334.533 1324.19 336.043C1324.19 337.563 1323.05 338.74 1321.5 338.73C1319.96 338.74 1318.83 337.522 1318.81 336.043ZM1329.14 338.334H1336.47V341H1339.45V338.334H1341.37V335.814H1339.45V325.92H1335.52L1329.14 335.855V338.334ZM1332.31 335.814V335.689L1336.37 329.357H1336.52V335.814H1332.31ZM1343.43 345.249H1346.51V339.188H1346.6C1347.03 340.125 1347.98 341.187 1349.82 341.187C1352.41 341.187 1354.42 339.136 1354.41 335.356C1354.42 331.482 1352.32 329.545 1349.82 329.545C1347.92 329.545 1347.02 330.669 1346.6 331.586H1346.47V329.69H1343.43V345.249ZM1346.45 335.335C1346.44 333.304 1347.3 332.002 1348.85 332.002C1350.44 332.002 1351.27 333.366 1351.26 335.335C1351.27 337.334 1350.42 338.719 1348.85 338.73C1347.31 338.719 1346.44 337.376 1346.45 335.335ZM1358.55 329.69H1355.36L1358.61 335.335L1355.24 341H1358.45L1360.66 337.063L1362.9 341H1366.07L1362.68 335.335L1365.99 329.69H1362.8L1360.66 333.669L1358.55 329.69Z" fill="black"/>
</svg>
