<svg width="807" height="198" viewBox="0 0 807 198" fill="none" xmlns="http://www.w3.org/2000/svg">
<path d="M0 86C0 74.9543 8.95431 66 20 66H92C103.046 66 112 74.9543 112 86V110C112 121.046 103.046 130 92 130H20C8.9543 130 0 121.046 0 110V86Z" fill="#009381" fill-opacity="0.49"/>
<path d="M172 86C172 74.9543 180.954 66 192 66H264C275.046 66 284 74.9543 284 86V110C284 121.046 275.046 130 264 130H192C180.954 130 172 121.046 172 110V86Z" fill="#009381" fill-opacity="0.49"/>
<path d="M345 86C345 74.9543 353.954 66 365 66H437C448.046 66 457 74.9543 457 86V110C457 121.046 448.046 130 437 130H365C353.954 130 345 121.046 345 110V86Z" fill="#009381" fill-opacity="0.49"/>
<path d="M517 86C517 74.9543 525.954 66 537 66H609C620.046 66 629 74.9543 629 86V110C629 121.046 620.046 130 609 130H537C525.954 130 517 121.046 517 110V86Z" fill="#009381" fill-opacity="0.49"/>
<path d="M695 86C695 74.9543 703.954 66 715 66H787C798.046 66 807 74.9543 807 86V110C807 121.046 798.046 130 787 130H715C703.954 130 695 121.046 695 110V86Z" fill="#009381" fill-opacity="0.49"/>
<path d="M9.93597 104H12.336L14.032 97.84C14.384 96.608 14.72 95.248 15.04 93.968H15.104C15.44 95.232 15.776 96.608 16.128 97.84L17.824 104H20.304L16.512 92.16H13.728L9.93597 104ZM12.288 100.96H17.92V99.136H12.288V100.96Z" fill="white"/>
<path d="M21.514 107.44H23.866V104.72L23.786 103.264C24.458 103.888 25.226 104.224 25.994 104.224C27.962 104.224 29.802 102.464 29.802 99.392C29.802 96.624 28.49 94.832 26.282 94.832C25.322 94.832 24.394 95.328 23.658 95.984H23.61L23.418 95.056H21.514V107.44ZM25.482 102.288C25.002 102.288 24.426 102.128 23.866 101.632V97.68C24.474 97.056 25.018 96.752 25.61 96.752C26.858 96.752 27.386 97.696 27.386 99.424C27.386 101.36 26.554 102.288 25.482 102.288Z" fill="white"/>
<path d="M35.5548 104.224C37.7948 104.224 39.8428 102.496 39.8428 99.536C39.8428 96.56 37.7948 94.832 35.5548 94.832C33.2988 94.832 31.2508 96.56 31.2508 99.536C31.2508 102.496 33.2988 104.224 35.5548 104.224ZM35.5548 102.32C34.3228 102.32 33.6508 101.216 33.6508 99.536C33.6508 97.84 34.3228 96.752 35.5548 96.752C36.7708 96.752 37.4428 97.84 37.4428 99.536C37.4428 101.216 36.7708 102.32 35.5548 102.32Z" fill="white"/>
<path d="M44.0345 104.224C44.5945 104.224 44.9625 104.128 45.2345 104.032L44.9465 102.288C44.7865 102.32 44.7225 102.32 44.6425 102.32C44.4185 102.32 44.1785 102.144 44.1785 101.584V91.248H41.8265V101.488C41.8265 103.152 42.3865 104.224 44.0345 104.224Z" fill="white"/>
<path d="M49.0813 104.224C49.6413 104.224 50.0093 104.128 50.2813 104.032L49.9933 102.288C49.8333 102.32 49.7694 102.32 49.6894 102.32C49.4653 102.32 49.2253 102.144 49.2253 101.584V91.248H46.8733V101.488C46.8733 103.152 47.4333 104.224 49.0813 104.224Z" fill="white"/>
<path d="M55.6642 104.224C57.9042 104.224 59.9522 102.496 59.9522 99.536C59.9522 96.56 57.9042 94.832 55.6642 94.832C53.4082 94.832 51.3602 96.56 51.3602 99.536C51.3602 102.496 53.4082 104.224 55.6642 104.224ZM55.6642 102.32C54.4322 102.32 53.7602 101.216 53.7602 99.536C53.7602 97.84 54.4322 96.752 55.6642 96.752C56.8802 96.752 57.5522 97.84 57.5522 99.536C57.5522 101.216 56.8802 102.32 55.6642 102.32Z" fill="white"/>
<path d="M70.5688 104.224C72.1048 104.224 73.3689 103.632 74.3449 102.496L73.0968 101.008C72.4728 101.696 71.6728 102.176 70.6648 102.176C68.7768 102.176 67.5768 100.64 67.5768 98.048C67.5768 95.52 68.9208 93.984 70.6968 93.984C71.6089 93.984 72.2808 94.384 72.8888 94.976L74.1368 93.456C73.3688 92.656 72.1688 91.952 70.6648 91.952C67.6568 91.952 65.1608 94.224 65.1608 98.128C65.1608 102.08 67.5768 104.224 70.5688 104.224Z" fill="white"/>
<path d="M78.2689 104.224C78.8289 104.224 79.1968 104.128 79.4688 104.032L79.1809 102.288C79.0209 102.32 78.9569 102.32 78.8769 102.32C78.6529 102.32 78.4128 102.144 78.4128 101.584V91.248H76.0609V101.488C76.0609 103.152 76.6209 104.224 78.2689 104.224Z" fill="white"/>
<path d="M81.1077 104H83.4597V95.056H81.1077V104ZM82.2757 93.6C83.0917 93.6 83.6517 93.088 83.6517 92.304C83.6517 91.536 83.0917 91.04 82.2757 91.04C81.4597 91.04 80.9157 91.536 80.9157 92.304C80.9157 93.088 81.4597 93.6 82.2757 93.6Z" fill="white"/>
<path d="M89.8711 104.224C90.9751 104.224 92.0951 103.856 92.9751 103.248L92.1911 101.792C91.5351 102.192 90.8951 102.416 90.1751 102.416C88.8471 102.416 87.8871 101.664 87.6791 100.192H93.2151C93.2631 99.968 93.3111 99.552 93.3111 99.104C93.3111 96.624 92.0471 94.832 89.5671 94.832C87.4551 94.832 85.4071 96.624 85.4071 99.536C85.4071 102.496 87.3591 104.224 89.8711 104.224ZM87.6471 98.624C87.8391 97.312 88.6711 96.64 89.6151 96.64C90.7671 96.64 91.3111 97.408 91.3111 98.624H87.6471Z" fill="white"/>
<path d="M95.264 104H97.616V97.84C98.272 97.2 98.736 96.848 99.472 96.848C100.336 96.848 100.736 97.312 100.736 98.72V104H103.088V98.416C103.088 96.176 102.24 94.832 100.32 94.832C99.104 94.832 98.176 95.472 97.408 96.24H97.36L97.168 95.056H95.264V104Z" fill="white"/>
<path d="M108.778 104.224C109.578 104.224 110.202 104.048 110.682 103.888L110.298 102.176C110.042 102.272 109.706 102.384 109.402 102.384C108.618 102.384 108.186 101.904 108.186 100.88V96.896H110.41V95.056H108.186V92.624H106.234L105.978 95.056L104.586 95.152V96.896H105.834V100.88C105.834 102.88 106.65 104.224 108.778 104.224Z" fill="white"/>
<path d="M213.456 104H220.64V102.016H215.824V92.16H213.456V104Z" fill="white"/>
<path d="M222.514 104H224.866V95.056H222.514V104ZM223.682 93.6C224.498 93.6 225.058 93.088 225.058 92.304C225.058 91.536 224.498 91.04 223.682 91.04C222.866 91.04 222.322 91.536 222.322 92.304C222.322 93.088 222.866 93.6 223.682 93.6Z" fill="white"/>
<path d="M227.373 104H229.725V97.84C230.381 97.2 230.845 96.848 231.581 96.848C232.445 96.848 232.845 97.312 232.845 98.72V104H235.197V98.416C235.197 96.176 234.349 94.832 232.429 94.832C231.213 94.832 230.285 95.472 229.517 96.24H229.469L229.277 95.056H227.373V104Z" fill="white"/>
<path d="M237.623 104H239.927V101.744L241.191 100.288L243.367 104H245.911L242.567 98.736L245.639 95.056H243.047L240.007 98.896H239.927V91.248H237.623V104Z" fill="white"/>
<path d="M386.456 104H393.64V102.016H388.824V92.16H386.456V104Z" fill="white"/>
<path d="M395.514 104H397.866V95.056H395.514V104ZM396.682 93.6C397.498 93.6 398.058 93.088 398.058 92.304C398.058 91.536 397.498 91.04 396.682 91.04C395.866 91.04 395.322 91.536 395.322 92.304C395.322 93.088 395.866 93.6 396.682 93.6Z" fill="white"/>
<path d="M400.373 104H402.725V97.84C403.381 97.2 403.845 96.848 404.581 96.848C405.445 96.848 405.845 97.312 405.845 98.72V104H408.197V98.416C408.197 96.176 407.349 94.832 405.429 94.832C404.213 94.832 403.285 95.472 402.517 96.24H402.469L402.277 95.056H400.373V104Z" fill="white"/>
<path d="M410.623 104H412.927V101.744L414.191 100.288L416.367 104H418.911L415.567 98.736L418.639 95.056H416.047L413.007 98.896H412.927V91.248H410.623V104Z" fill="white"/>
<path d="M528.964 94H531.332V84.128H534.676V82.16H525.62V84.128H528.964V94Z" fill="white"/>
<path d="M538.887 94.224C539.991 94.224 541.111 93.856 541.991 93.248L541.207 91.792C540.551 92.192 539.911 92.416 539.191 92.416C537.863 92.416 536.903 91.664 536.695 90.192H542.231C542.279 89.968 542.327 89.552 542.327 89.104C542.327 86.624 541.063 84.832 538.583 84.832C536.471 84.832 534.423 86.624 534.423 89.536C534.423 92.496 536.375 94.224 538.887 94.224ZM536.663 88.624C536.855 87.312 537.687 86.64 538.631 86.64C539.783 86.64 540.327 87.408 540.327 88.624H536.663Z" fill="white"/>
<path d="M544.28 94H546.632V88.672C547.128 87.376 547.976 86.896 548.664 86.896C549.048 86.896 549.288 86.96 549.608 87.04L550.008 85.024C549.736 84.896 549.448 84.832 548.968 84.832C548.04 84.832 547.064 85.456 546.424 86.64H546.376L546.184 85.056H544.28V94Z" fill="white"/>
<path d="M551.264 94H553.616V87.84C554.224 87.168 554.816 86.848 555.312 86.848C556.176 86.848 556.576 87.312 556.576 88.72V94H558.928V87.84C559.568 87.168 560.128 86.848 560.64 86.848C561.504 86.848 561.888 87.312 561.888 88.72V94H564.24V88.416C564.24 86.176 563.376 84.832 561.472 84.832C560.304 84.832 559.44 85.536 558.608 86.384C558.192 85.392 557.44 84.832 556.144 84.832C554.992 84.832 554.16 85.472 553.408 86.24H553.36L553.168 85.056H551.264V94Z" fill="white"/>
<path d="M566.686 94H569.038V85.056H566.686V94ZM567.854 83.6C568.67 83.6 569.23 83.088 569.23 82.304C569.23 81.536 568.67 81.04 567.854 81.04C567.038 81.04 566.494 81.536 566.494 82.304C566.494 83.088 567.038 83.6 567.854 83.6Z" fill="white"/>
<path d="M571.545 94H573.897V87.84C574.553 87.2 575.017 86.848 575.753 86.848C576.617 86.848 577.017 87.312 577.017 88.72V94H579.369V88.416C579.369 86.176 578.521 84.832 576.601 84.832C575.385 84.832 574.457 85.472 573.689 86.24H573.641L573.449 85.056H571.545V94Z" fill="white"/>
<path d="M583.987 94.224C585.011 94.224 585.907 93.728 586.691 93.056H586.755L586.931 94H588.851V88.784C588.851 86.176 587.683 84.832 585.411 84.832C583.987 84.832 582.723 85.36 581.667 86L582.515 87.568C583.331 87.072 584.147 86.72 584.979 86.72C586.083 86.72 586.451 87.376 586.499 88.256C582.899 88.656 581.347 89.664 581.347 91.568C581.347 93.104 582.387 94.224 583.987 94.224ZM584.755 92.384C584.067 92.384 583.587 92.08 583.587 91.392C583.587 90.576 584.307 89.984 586.499 89.712V91.52C585.923 92.08 585.427 92.384 584.755 92.384Z" fill="white"/>
<path d="M594.122 94.224C594.922 94.224 595.546 94.048 596.026 93.888L595.642 92.176C595.386 92.272 595.05 92.384 594.746 92.384C593.962 92.384 593.53 91.904 593.53 90.88V86.896H595.754V85.056H593.53V82.624H591.578L591.322 85.056L589.93 85.152V86.896H591.178V90.88C591.178 92.88 591.994 94.224 594.122 94.224Z" fill="white"/>
<path d="M597.592 94H599.944V85.056H597.592V94ZM598.76 83.6C599.576 83.6 600.136 83.088 600.136 82.304C600.136 81.536 599.576 81.04 598.76 81.04C597.944 81.04 597.4 81.536 597.4 82.304C597.4 83.088 597.944 83.6 598.76 83.6Z" fill="white"/>
<path d="M602.451 94H604.803V85.056H602.451V94ZM603.619 83.6C604.435 83.6 604.995 83.088 604.995 82.304C604.995 81.536 604.435 81.04 603.619 81.04C602.803 81.04 602.259 81.536 602.259 82.304C602.259 83.088 602.803 83.6 603.619 83.6Z" fill="white"/>
<path d="M607.311 94H609.663V87.84C610.319 87.2 610.783 86.848 611.519 86.848C612.383 86.848 612.783 87.312 612.783 88.72V94H615.135V88.416C615.135 86.176 614.287 84.832 612.367 84.832C611.151 84.832 610.223 85.472 609.455 86.24H609.407L609.215 85.056H607.311V94Z" fill="white"/>
<path d="M620.697 97.888C623.689 97.888 625.593 96.528 625.593 94.72C625.593 93.136 624.409 92.48 622.249 92.48H620.713C619.673 92.48 619.305 92.208 619.305 91.744C619.305 91.376 619.449 91.184 619.689 90.96C620.089 91.104 620.489 91.168 620.841 91.168C622.777 91.168 624.313 90.16 624.313 88.128C624.313 87.584 624.137 87.088 623.897 86.784H625.433V85.056H622.201C621.833 84.912 621.353 84.832 620.841 84.832C618.953 84.832 617.225 85.952 617.225 88.064C617.225 89.12 617.817 89.968 618.441 90.416V90.48C617.881 90.864 617.433 91.472 617.433 92.144C617.433 92.88 617.785 93.36 618.249 93.664V93.744C617.417 94.192 616.969 94.848 616.969 95.6C616.969 97.168 618.601 97.888 620.697 97.888ZM620.841 89.728C620.057 89.728 619.433 89.12 619.433 88.064C619.433 87.008 620.057 86.432 620.841 86.432C621.641 86.432 622.249 87.008 622.249 88.064C622.249 89.12 621.625 89.728 620.841 89.728ZM621.065 96.4C619.753 96.4 618.921 95.984 618.921 95.232C618.921 94.864 619.097 94.512 619.513 94.176C619.833 94.272 620.201 94.304 620.745 94.304H621.833C622.793 94.304 623.321 94.48 623.321 95.12C623.321 95.808 622.409 96.4 621.065 96.4Z" fill="white"/>
<path d="M559.948 117H567.132V115.016H562.316V105.16H559.948V117Z" fill="white"/>
<path d="M569.006 117H571.358V108.056H569.006V117ZM570.174 106.6C570.99 106.6 571.55 106.088 571.55 105.304C571.55 104.536 570.99 104.04 570.174 104.04C569.358 104.04 568.814 104.536 568.814 105.304C568.814 106.088 569.358 106.6 570.174 106.6Z" fill="white"/>
<path d="M573.866 117H576.218V110.84C576.874 110.2 577.338 109.848 578.074 109.848C578.938 109.848 579.338 110.312 579.338 111.72V117H581.69V111.416C581.69 109.176 580.842 107.832 578.922 107.832C577.706 107.832 576.778 108.472 576.01 109.24H575.962L575.77 108.056H573.866V117Z" fill="white"/>
<path d="M584.116 117H586.42V114.744L587.684 113.288L589.86 117H592.404L589.06 111.736L592.132 108.056H589.54L586.5 111.896H586.42V104.248H584.116V117Z" fill="white"/>
<path d="M722.833 93.224C724.465 93.224 725.873 92.6 726.673 91.8V86.472H722.449V88.408H724.561V90.744C724.225 91.016 723.649 91.176 723.073 91.176C720.753 91.176 719.569 89.64 719.569 87.048C719.569 84.52 720.929 82.984 722.913 82.984C723.969 82.984 724.641 83.416 725.233 83.976L726.481 82.456C725.713 81.688 724.529 80.952 722.833 80.952C719.681 80.952 717.153 83.224 717.153 87.128C717.153 91.08 719.617 93.224 722.833 93.224Z" fill="white"/>
<path d="M729.022 93H731.374V87.672C731.87 86.376 732.718 85.896 733.406 85.896C733.79 85.896 734.03 85.96 734.35 86.04L734.75 84.024C734.478 83.896 734.19 83.832 733.71 83.832C732.782 83.832 731.806 84.456 731.166 85.64H731.118L730.926 84.056H729.022V93Z" fill="white"/>
<path d="M737.62 93.224C738.644 93.224 739.54 92.728 740.324 92.056H740.388L740.564 93H742.484V87.784C742.484 85.176 741.316 83.832 739.044 83.832C737.62 83.832 736.356 84.36 735.3 85L736.148 86.568C736.964 86.072 737.78 85.72 738.612 85.72C739.716 85.72 740.084 86.376 740.132 87.256C736.532 87.656 734.98 88.664 734.98 90.568C734.98 92.104 736.02 93.224 737.62 93.224ZM738.388 91.384C737.7 91.384 737.22 91.08 737.22 90.392C737.22 89.576 737.94 88.984 740.132 88.712V90.52C739.556 91.08 739.06 91.384 738.388 91.384Z" fill="white"/>
<path d="M744.881 96.44H747.233V93.72L747.153 92.264C747.825 92.888 748.593 93.224 749.361 93.224C751.329 93.224 753.169 91.464 753.169 88.392C753.169 85.624 751.857 83.832 749.649 83.832C748.689 83.832 747.761 84.328 747.025 84.984H746.977L746.785 84.056H744.881V96.44ZM748.849 91.288C748.369 91.288 747.793 91.128 747.233 90.632V86.68C747.841 86.056 748.385 85.752 748.977 85.752C750.225 85.752 750.753 86.696 750.753 88.424C750.753 90.36 749.921 91.288 748.849 91.288Z" fill="white"/>
<path d="M755.178 93H757.53V86.84C758.186 86.2 758.65 85.848 759.386 85.848C760.25 85.848 760.65 86.312 760.65 87.72V93H763.002V87.416C763.002 85.176 762.154 83.832 760.234 83.832C759.018 83.832 758.122 84.472 757.418 85.144L757.53 83.464V80.248H755.178V93Z" fill="white"/>
<path d="M770.308 93.224C773.444 93.224 775.588 90.888 775.588 87.032C775.588 83.192 773.444 80.952 770.308 80.952C767.156 80.952 765.012 83.176 765.012 87.032C765.012 90.888 767.156 93.224 770.308 93.224ZM770.308 91.288C768.532 91.288 767.428 89.704 767.428 87.032C767.428 84.504 768.532 82.984 770.308 82.984C772.068 82.984 773.188 84.504 773.188 87.032C773.188 89.704 772.068 91.288 770.308 91.288ZM774.132 96.216C774.996 96.216 775.7 96.072 776.132 95.864L775.7 94.12C775.348 94.248 774.916 94.328 774.388 94.328C773.204 94.328 771.988 93.848 771.54 92.696L769.14 92.936C769.892 94.824 771.62 96.216 774.132 96.216Z" fill="white"/>
<path d="M777.917 93H785.101V91.016H780.285V81.16H777.917V93Z" fill="white"/>
<path d="M730.148 116.224C732.868 116.224 734.484 114.576 734.484 112.64C734.484 110.944 733.54 110.016 732.116 109.424L730.564 108.784C729.556 108.384 728.708 108.064 728.708 107.216C728.708 106.448 729.364 105.984 730.404 105.984C731.38 105.984 732.164 106.336 732.932 106.96L734.116 105.472C733.156 104.496 731.78 103.952 730.404 103.952C728.02 103.952 726.308 105.44 726.308 107.376C726.308 109.088 727.524 110.064 728.708 110.544L730.292 111.216C731.348 111.664 732.068 111.952 732.068 112.832C732.068 113.648 731.428 114.176 730.196 114.176C729.156 114.176 728.02 113.664 727.188 112.88L725.828 114.512C726.98 115.616 728.548 116.224 730.148 116.224Z" fill="white"/>
<path d="M740.309 116.224C741.413 116.224 742.533 115.856 743.413 115.248L742.629 113.792C741.973 114.192 741.333 114.416 740.613 114.416C739.285 114.416 738.325 113.664 738.117 112.192H743.653C743.701 111.968 743.749 111.552 743.749 111.104C743.749 108.624 742.485 106.832 740.005 106.832C737.893 106.832 735.845 108.624 735.845 111.536C735.845 114.496 737.797 116.224 740.309 116.224ZM738.085 110.624C738.277 109.312 739.109 108.64 740.053 108.64C741.205 108.64 741.749 109.408 741.749 110.624H738.085Z" fill="white"/>
<path d="M745.702 116H748.054V110.672C748.55 109.376 749.398 108.896 750.086 108.896C750.47 108.896 750.71 108.96 751.03 109.04L751.43 107.024C751.158 106.896 750.87 106.832 750.39 106.832C749.462 106.832 748.486 107.456 747.846 108.64H747.798L747.606 107.056H745.702V116Z" fill="white"/>
<path d="M754.843 116H757.563L760.555 107.056H758.283L756.971 111.52C756.731 112.4 756.491 113.312 756.251 114.224H756.171C755.931 113.312 755.691 112.4 755.451 111.52L754.155 107.056H751.771L754.843 116Z" fill="white"/>
<path d="M765.731 116.224C766.835 116.224 767.955 115.856 768.835 115.248L768.051 113.792C767.395 114.192 766.755 114.416 766.035 114.416C764.707 114.416 763.747 113.664 763.539 112.192H769.075C769.123 111.968 769.171 111.552 769.171 111.104C769.171 108.624 767.907 106.832 765.427 106.832C763.315 106.832 761.267 108.624 761.267 111.536C761.267 114.496 763.219 116.224 765.731 116.224ZM763.507 110.624C763.699 109.312 764.531 108.64 765.475 108.64C766.627 108.64 767.171 109.408 767.171 110.624H763.507Z" fill="white"/>
<path d="M771.123 116H773.475V110.672C773.971 109.376 774.819 108.896 775.507 108.896C775.891 108.896 776.131 108.96 776.451 109.04L776.851 107.024C776.579 106.896 776.291 106.832 775.811 106.832C774.883 106.832 773.907 107.456 773.267 108.64H773.219L773.027 107.056H771.123V116Z" fill="white"/>
<path fill-rule="evenodd" clip-rule="evenodd" d="M153.5 99H125V95H153.5V99Z" fill="#5793BF"/>
<path fill-rule="evenodd" clip-rule="evenodd" d="M325.5 99H297V95H325.5V99Z" fill="#5793BF"/>
<path fill-rule="evenodd" clip-rule="evenodd" d="M498.5 99H470V95H498.5V99Z" fill="#5793BF"/>
<path fill-rule="evenodd" clip-rule="evenodd" d="M676.5 99H648V95H676.5V99Z" fill="#5793BF"/>
<path fill-rule="evenodd" clip-rule="evenodd" d="M96.3742 53.6014C96.3745 53.6008 96.3748 53.6 95 53.0001C93.6252 52.4002 93.6256 52.3993 93.6261 52.3983L93.6272 52.3957L93.6303 52.3886L93.6399 52.367C93.6478 52.3494 93.6588 52.3251 93.6728 52.2946C93.7009 52.2335 93.7414 52.147 93.7948 52.0369C93.9016 51.8166 94.06 51.5017 94.274 51.1055C94.702 50.3133 95.353 49.1955 96.2589 47.8608C98.0702 45.1923 100.906 41.6502 105.022 38.1124C113.278 31.0176 126.62 24.0001 147 24.0001C167.376 24.0002 181.203 31.0145 189.943 38.0839C194.305 41.6113 197.388 45.1426 199.387 47.8021C199.837 48.4011 200.232 48.9563 200.575 49.4576L203.75 39.6983C204.006 38.9105 204.852 38.4796 205.64 38.7359C206.428 38.9921 206.859 39.8385 206.603 40.6263L202.426 53.4641C202.17 54.2519 201.324 54.6828 200.536 54.4265L187.698 50.2504C186.91 49.9941 186.479 49.1478 186.736 48.36C186.992 47.5722 187.838 47.1413 188.626 47.3976L197.486 50.2796C197.329 50.0624 197.163 49.8371 196.988 49.6044C195.112 47.1077 192.196 43.764 188.057 40.4164C179.797 33.7359 166.624 27.0002 147 27.0001C127.38 27.0001 114.722 33.7326 106.978 40.3877C103.094 43.7249 100.43 47.0579 98.7411 49.5457C97.897 50.7891 97.298 51.8197 96.9135 52.5315C96.7213 52.8872 96.5828 53.1631 96.4943 53.3457C96.45 53.437 96.4182 53.5049 96.3985 53.5479C96.3886 53.5694 96.3817 53.5846 96.3778 53.5934L96.3742 53.6014Z" fill="#5793BF"/>
<path fill-rule="evenodd" clip-rule="evenodd" d="M263.374 53.6014C263.374 53.6008 263.375 53.6 262 53.0001C260.625 52.4002 260.626 52.3993 260.626 52.3983L260.627 52.3957L260.63 52.3886L260.64 52.367C260.648 52.3494 260.659 52.3251 260.673 52.2946C260.701 52.2335 260.741 52.147 260.795 52.0369C260.902 51.8166 261.06 51.5017 261.274 51.1055C261.702 50.3133 262.353 49.1955 263.259 47.8608C265.07 45.1923 267.906 41.6502 272.022 38.1124C280.278 31.0176 293.62 24.0001 314 24.0001C334.376 24.0002 348.203 31.0145 356.943 38.0839C361.304 41.6113 364.388 45.1426 366.387 47.8021C366.837 48.4011 367.232 48.9563 367.575 49.4576L370.75 39.6983C371.006 38.9105 371.852 38.4796 372.64 38.7359C373.428 38.9921 373.859 39.8385 373.603 40.6263L369.426 53.4641C369.17 54.2519 368.324 54.6828 367.536 54.4265L354.698 50.2504C353.91 49.9941 353.479 49.1478 353.736 48.36C353.992 47.5722 354.838 47.1413 355.626 47.3976L364.486 50.2796C364.329 50.0624 364.163 49.8371 363.988 49.6044C362.112 47.1077 359.195 43.764 355.057 40.4164C346.797 33.7359 333.624 27.0002 314 27.0001C294.379 27.0001 281.722 33.7326 273.978 40.3877C270.094 43.7249 267.43 47.0579 265.741 49.5457C264.897 50.7891 264.298 51.8197 263.913 52.5315C263.721 52.8872 263.583 53.1631 263.494 53.3457C263.45 53.437 263.418 53.5049 263.398 53.5479C263.389 53.5694 263.382 53.5846 263.378 53.5934L263.374 53.6014Z" fill="#5793BF"/>
<path fill-rule="evenodd" clip-rule="evenodd" d="M430.374 53.6014C430.374 53.6008 430.375 53.6 429 53.0001C427.625 52.4002 427.626 52.3993 427.626 52.3983L427.627 52.3957L427.63 52.3886L427.64 52.367C427.648 52.3494 427.659 52.3251 427.673 52.2946C427.701 52.2335 427.741 52.147 427.795 52.0369C427.902 51.8166 428.06 51.5017 428.274 51.1055C428.702 50.3133 429.353 49.1955 430.259 47.8608C432.07 45.1923 434.906 41.6502 439.022 38.1124C447.278 31.0176 460.62 24.0001 481 24.0001C501.376 24.0002 515.203 31.0145 523.943 38.0839C528.304 41.6113 531.388 45.1426 533.387 47.8021C533.837 48.4011 534.232 48.9563 534.575 49.4576L537.75 39.6983C538.006 38.9105 538.852 38.4796 539.64 38.7359C540.428 38.9921 540.859 39.8385 540.603 40.6263L536.426 53.4641C536.17 54.2519 535.324 54.6828 534.536 54.4265L521.698 50.2504C520.91 49.9941 520.479 49.1478 520.736 48.36C520.992 47.5722 521.838 47.1413 522.626 47.3976L531.486 50.2796C531.329 50.0624 531.163 49.8371 530.988 49.6044C529.112 47.1077 526.195 43.764 522.057 40.4164C513.797 33.7359 500.624 27.0002 481 27.0001C461.379 27.0001 448.722 33.7326 440.978 40.3877C437.094 43.7249 434.43 47.0579 432.741 49.5457C431.897 50.7891 431.298 51.8197 430.913 52.5315C430.721 52.8872 430.583 53.1631 430.494 53.3457C430.45 53.437 430.418 53.5049 430.398 53.5479C430.389 53.5694 430.382 53.5846 430.378 53.5934L430.374 53.6014Z" fill="#5793BF"/>
<path fill-rule="evenodd" clip-rule="evenodd" d="M597.374 53.6014C597.374 53.6008 597.375 53.6 596 53.0001C594.625 52.4002 594.626 52.3993 594.626 52.3983L594.627 52.3957L594.63 52.3886L594.64 52.367C594.648 52.3494 594.659 52.3251 594.673 52.2946C594.701 52.2335 594.741 52.147 594.795 52.0369C594.902 51.8166 595.06 51.5017 595.274 51.1055C595.702 50.3133 596.353 49.1955 597.259 47.8608C599.07 45.1923 601.906 41.6502 606.022 38.1124C614.278 31.0176 627.62 24.0001 648 24.0001C668.376 24.0002 682.203 31.0145 690.943 38.0839C695.304 41.6113 698.388 45.1426 700.387 47.8021C700.837 48.4011 701.232 48.9563 701.575 49.4576L704.75 39.6983C705.006 38.9105 705.852 38.4796 706.64 38.7359C707.428 38.9921 707.859 39.8385 707.603 40.6263L703.426 53.4641C703.17 54.2519 702.324 54.6828 701.536 54.4265L688.698 50.2504C687.91 49.9941 687.479 49.1478 687.736 48.36C687.992 47.5722 688.838 47.1413 689.626 47.3976L698.486 50.2796C698.329 50.0624 698.163 49.8371 697.988 49.6044C696.112 47.1077 693.195 43.764 689.057 40.4164C680.797 33.7359 667.624 27.0002 648 27.0001C628.379 27.0001 615.722 33.7326 607.978 40.3877C604.094 43.7249 601.43 47.0579 599.741 49.5457C598.897 50.7891 598.298 51.8197 597.913 52.5315C597.721 52.8872 597.583 53.1631 597.494 53.3457C597.45 53.437 597.418 53.5049 597.398 53.5479C597.389 53.5694 597.382 53.5846 597.378 53.5934L597.374 53.6014Z" fill="#5793BF"/>
<path fill-rule="evenodd" clip-rule="evenodd" d="M700.626 142.399C700.626 142.399 700.625 142.4 702 143C703.375 143.6 703.374 143.601 703.374 143.602L703.373 143.604L703.37 143.612L703.36 143.633C703.352 143.651 703.341 143.675 703.327 143.706C703.299 143.767 703.259 143.853 703.205 143.963C703.098 144.183 702.94 144.498 702.726 144.895C702.298 145.687 701.647 146.805 700.741 148.139C698.93 150.808 696.094 154.35 691.978 157.888C683.722 164.983 670.38 172 650 172C629.624 172 615.797 164.986 607.057 157.916C602.696 154.389 599.612 150.858 597.613 148.198C597.163 147.599 596.768 147.044 596.425 146.543L593.25 156.302C592.994 157.09 592.148 157.521 591.36 157.264C590.572 157.008 590.141 156.162 590.397 155.374L594.574 142.536C594.83 141.748 595.676 141.317 596.464 141.574L609.302 145.75C610.09 146.006 610.521 146.852 610.264 147.64C610.008 148.428 609.162 148.859 608.374 148.603L599.514 145.72C599.671 145.938 599.837 146.163 600.012 146.396C601.888 148.892 604.805 152.236 608.943 155.584C617.203 162.264 630.376 169 650 169C669.621 169 682.278 162.268 690.022 155.612C693.906 152.275 696.57 148.942 698.259 146.454C699.103 145.211 699.702 144.18 700.087 143.469C700.279 143.113 700.417 142.837 700.506 142.654C700.55 142.563 700.582 142.495 700.602 142.452C700.611 142.431 700.618 142.416 700.622 142.407L700.626 142.399Z" fill="#5793BF"/>
<path fill-rule="evenodd" clip-rule="evenodd" d="M535.626 142.399C535.626 142.399 535.625 142.4 537 143C538.375 143.6 538.374 143.601 538.374 143.602L538.373 143.604L538.37 143.612L538.36 143.633C538.352 143.651 538.341 143.675 538.327 143.706C538.299 143.767 538.259 143.853 538.205 143.963C538.098 144.183 537.94 144.498 537.726 144.895C537.298 145.687 536.647 146.805 535.741 148.139C533.93 150.808 531.094 154.35 526.978 157.888C518.722 164.983 505.38 172 485 172C464.624 172 450.797 164.986 442.057 157.916C437.696 154.389 434.612 150.858 432.613 148.198C432.163 147.599 431.768 147.044 431.425 146.543L428.25 156.302C427.994 157.09 427.148 157.521 426.36 157.264C425.572 157.008 425.141 156.162 425.397 155.374L429.574 142.536C429.83 141.748 430.676 141.317 431.464 141.574L444.302 145.75C445.09 146.006 445.521 146.852 445.264 147.64C445.008 148.428 444.162 148.859 443.374 148.603L434.514 145.72C434.671 145.938 434.837 146.163 435.012 146.396C436.888 148.892 439.805 152.236 443.943 155.584C452.203 162.264 465.376 169 485 169C504.621 169 517.278 162.268 525.022 155.612C528.906 152.275 531.57 148.942 533.259 146.454C534.103 145.211 534.702 144.18 535.087 143.469C535.279 143.113 535.417 142.837 535.506 142.654C535.55 142.563 535.582 142.495 535.602 142.452C535.611 142.431 535.618 142.416 535.622 142.407L535.626 142.399Z" fill="#5793BF"/>
<path fill-rule="evenodd" clip-rule="evenodd" d="M370.626 142.399C370.626 142.399 370.625 142.4 372 143C373.375 143.6 373.374 143.601 373.374 143.602L373.373 143.604L373.37 143.612L373.36 143.633C373.352 143.651 373.341 143.675 373.327 143.706C373.299 143.767 373.259 143.853 373.205 143.963C373.098 144.183 372.94 144.498 372.726 144.895C372.298 145.687 371.647 146.805 370.741 148.139C368.93 150.808 366.094 154.35 361.978 157.888C353.722 164.983 340.38 172 320 172C299.624 172 285.797 164.986 277.057 157.916C272.696 154.389 269.612 150.858 267.613 148.198C267.163 147.599 266.768 147.044 266.425 146.543L263.25 156.302C262.994 157.09 262.148 157.521 261.36 157.264C260.572 157.008 260.141 156.162 260.397 155.374L264.574 142.536C264.83 141.748 265.676 141.317 266.464 141.574L279.302 145.75C280.09 146.006 280.521 146.852 280.264 147.64C280.008 148.428 279.162 148.859 278.374 148.603L269.514 145.72C269.671 145.938 269.837 146.163 270.012 146.396C271.888 148.892 274.805 152.236 278.943 155.584C287.203 162.264 300.376 169 320 169C339.621 169 352.278 162.268 360.022 155.612C363.906 152.275 366.57 148.942 368.259 146.454C369.103 145.211 369.702 144.18 370.087 143.469C370.279 143.113 370.417 142.837 370.506 142.654C370.55 142.563 370.582 142.495 370.602 142.452C370.611 142.431 370.618 142.416 370.622 142.407L370.626 142.399Z" fill="#5793BF"/>
<path fill-rule="evenodd" clip-rule="evenodd" d="M205.626 142.399C205.625 142.399 205.625 142.4 207 143C208.375 143.6 208.374 143.601 208.374 143.602L208.373 143.604L208.37 143.612L208.36 143.633C208.352 143.651 208.341 143.675 208.327 143.706C208.299 143.767 208.259 143.853 208.205 143.963C208.098 144.183 207.94 144.498 207.726 144.895C207.298 145.687 206.647 146.805 205.741 148.139C203.93 150.808 201.094 154.35 196.978 157.888C188.722 164.983 175.38 172 155 172C134.624 172 120.797 164.986 112.057 157.916C107.695 154.389 104.612 150.858 102.613 148.198C102.163 147.599 101.768 147.044 101.425 146.543L98.2503 156.302C97.994 157.09 97.1476 157.521 96.3598 157.264C95.572 157.008 95.1412 156.162 95.3974 155.374L99.5736 142.536C99.8298 141.748 100.676 141.317 101.464 141.574L114.302 145.75C115.09 146.006 115.521 146.852 115.264 147.64C115.008 148.428 114.162 148.859 113.374 148.603L104.514 145.72C104.671 145.938 104.837 146.163 105.012 146.396C106.888 148.892 109.804 152.236 113.943 155.584C122.203 162.264 135.376 169 155 169C174.62 169 187.278 162.268 195.022 155.612C198.906 152.275 201.57 148.942 203.259 146.454C204.103 145.211 204.702 144.18 205.087 143.469C205.279 143.113 205.417 142.837 205.506 142.654C205.55 142.563 205.582 142.495 205.602 142.452C205.611 142.431 205.618 142.416 205.622 142.407L205.626 142.399Z" fill="#5793BF"/>
<path d="M127.815 12H131.191C134.679 12 136.903 10.016 136.903 6.03197C136.903 2.03197 134.679 0.159973 131.063 0.159973H127.815V12ZM130.183 10.096V2.04797H130.903C133.127 2.04797 134.487 3.15197 134.487 6.03197C134.487 8.91197 133.127 10.096 130.903 10.096H130.183Z" fill="#5793BF"/>
<path d="M142.789 12.224C145.029 12.224 147.077 10.496 147.077 7.53597C147.077 4.55997 145.029 2.83197 142.789 2.83197C140.533 2.83197 138.485 4.55997 138.485 7.53597C138.485 10.496 140.533 12.224 142.789 12.224ZM142.789 10.32C141.557 10.32 140.885 9.21597 140.885 7.53597C140.885 5.83997 141.557 4.75197 142.789 4.75197C144.005 4.75197 144.677 5.83997 144.677 7.53597C144.677 9.21597 144.005 10.32 142.789 10.32Z" fill="#5793BF"/>
<path d="M150.314 12H153.002L153.914 8.11197C154.106 7.26397 154.25 6.44797 154.41 5.48797H154.49C154.666 6.44797 154.81 7.26397 155.002 8.09597L155.946 12H158.714L160.938 3.05597H158.746L157.786 7.47197C157.61 8.35197 157.498 9.19997 157.338 10.08H157.258C157.066 9.19997 156.89 8.35197 156.682 7.47197L155.562 3.05597H153.482L152.394 7.47197C152.17 8.33597 152.01 9.19997 151.85 10.08H151.77C151.61 9.19997 151.498 8.35197 151.338 7.47197L150.346 3.05597H148.01L150.314 12Z" fill="#5793BF"/>
<path d="M162.655 12H165.007V5.83997C165.663 5.19997 166.127 4.84797 166.863 4.84797C167.727 4.84797 168.127 5.31197 168.127 6.71997V12H170.479V6.41597C170.479 4.17597 169.631 2.83197 167.711 2.83197C166.495 2.83197 165.567 3.47197 164.799 4.23997H164.751L164.559 3.05597H162.655V12Z" fill="#5793BF"/>
<path d="M294.815 12H298.191C301.679 12 303.903 10.016 303.903 6.03197C303.903 2.03197 301.679 0.159973 298.063 0.159973H294.815V12ZM297.183 10.096V2.04797H297.903C300.127 2.04797 301.487 3.15197 301.487 6.03197C301.487 8.91197 300.127 10.096 297.903 10.096H297.183Z" fill="#5793BF"/>
<path d="M309.789 12.224C312.029 12.224 314.077 10.496 314.077 7.53597C314.077 4.55997 312.029 2.83197 309.789 2.83197C307.533 2.83197 305.485 4.55997 305.485 7.53597C305.485 10.496 307.533 12.224 309.789 12.224ZM309.789 10.32C308.557 10.32 307.885 9.21597 307.885 7.53597C307.885 5.83997 308.557 4.75197 309.789 4.75197C311.005 4.75197 311.677 5.83997 311.677 7.53597C311.677 9.21597 311.005 10.32 309.789 10.32Z" fill="#5793BF"/>
<path d="M317.314 12H320.002L320.914 8.11197C321.106 7.26397 321.25 6.44797 321.41 5.48797H321.49C321.666 6.44797 321.81 7.26397 322.002 8.09597L322.946 12H325.714L327.938 3.05597H325.746L324.786 7.47197C324.61 8.35197 324.498 9.19997 324.338 10.08H324.258C324.066 9.19997 323.89 8.35197 323.682 7.47197L322.562 3.05597H320.482L319.394 7.47197C319.17 8.33597 319.01 9.19997 318.85 10.08H318.77C318.61 9.19997 318.498 8.35197 318.338 7.47197L317.346 3.05597H315.01L317.314 12Z" fill="#5793BF"/>
<path d="M329.655 12H332.007V5.83997C332.663 5.19997 333.127 4.84797 333.863 4.84797C334.727 4.84797 335.127 5.31197 335.127 6.71997V12H337.479V6.41597C337.479 4.17597 336.631 2.83197 334.711 2.83197C333.495 2.83197 332.567 3.47197 331.799 4.23997H331.751L331.559 3.05597H329.655V12Z" fill="#5793BF"/>
<path d="M461.815 12H465.191C468.679 12 470.903 10.016 470.903 6.03197C470.903 2.03197 468.679 0.159973 465.063 0.159973H461.815V12ZM464.183 10.096V2.04797H464.903C467.127 2.04797 468.487 3.15197 468.487 6.03197C468.487 8.91197 467.127 10.096 464.903 10.096H464.183Z" fill="#5793BF"/>
<path d="M476.789 12.224C479.029 12.224 481.077 10.496 481.077 7.53597C481.077 4.55997 479.029 2.83197 476.789 2.83197C474.533 2.83197 472.485 4.55997 472.485 7.53597C472.485 10.496 474.533 12.224 476.789 12.224ZM476.789 10.32C475.557 10.32 474.885 9.21597 474.885 7.53597C474.885 5.83997 475.557 4.75197 476.789 4.75197C478.005 4.75197 478.677 5.83997 478.677 7.53597C478.677 9.21597 478.005 10.32 476.789 10.32Z" fill="#5793BF"/>
<path d="M484.314 12H487.002L487.914 8.11197C488.106 7.26397 488.25 6.44797 488.41 5.48797H488.49C488.666 6.44797 488.81 7.26397 489.002 8.09597L489.946 12H492.714L494.938 3.05597H492.746L491.786 7.47197C491.61 8.35197 491.498 9.19997 491.338 10.08H491.258C491.066 9.19997 490.89 8.35197 490.682 7.47197L489.562 3.05597H487.482L486.394 7.47197C486.17 8.33597 486.01 9.19997 485.85 10.08H485.77C485.61 9.19997 485.498 8.35197 485.338 7.47197L484.346 3.05597H482.01L484.314 12Z" fill="#5793BF"/>
<path d="M496.655 12H499.007V5.83997C499.663 5.19997 500.127 4.84797 500.863 4.84797C501.727 4.84797 502.127 5.31197 502.127 6.71997V12H504.479V6.41597C504.479 4.17597 503.631 2.83197 501.711 2.83197C500.495 2.83197 499.567 3.47197 498.799 4.23997H498.751L498.559 3.05597H496.655V12Z" fill="#5793BF"/>
<path d="M628.815 12H632.191C635.679 12 637.903 10.016 637.903 6.03197C637.903 2.03197 635.679 0.159973 632.063 0.159973H628.815V12ZM631.183 10.096V2.04797H631.903C634.127 2.04797 635.487 3.15197 635.487 6.03197C635.487 8.91197 634.127 10.096 631.903 10.096H631.183Z" fill="#5793BF"/>
<path d="M643.789 12.224C646.029 12.224 648.077 10.496 648.077 7.53597C648.077 4.55997 646.029 2.83197 643.789 2.83197C641.533 2.83197 639.485 4.55997 639.485 7.53597C639.485 10.496 641.533 12.224 643.789 12.224ZM643.789 10.32C642.557 10.32 641.885 9.21597 641.885 7.53597C641.885 5.83997 642.557 4.75197 643.789 4.75197C645.005 4.75197 645.677 5.83997 645.677 7.53597C645.677 9.21597 645.005 10.32 643.789 10.32Z" fill="#5793BF"/>
<path d="M651.314 12H654.002L654.914 8.11197C655.106 7.26397 655.25 6.44797 655.41 5.48797H655.49C655.666 6.44797 655.81 7.26397 656.002 8.09597L656.946 12H659.714L661.938 3.05597H659.746L658.786 7.47197C658.61 8.35197 658.498 9.19997 658.338 10.08H658.258C658.066 9.19997 657.89 8.35197 657.682 7.47197L656.562 3.05597H654.482L653.394 7.47197C653.17 8.33597 653.01 9.19997 652.85 10.08H652.77C652.61 9.19997 652.498 8.35197 652.338 7.47197L651.346 3.05597H649.01L651.314 12Z" fill="#5793BF"/>
<path d="M663.655 12H666.007V5.83997C666.663 5.19997 667.127 4.84797 667.863 4.84797C668.727 4.84797 669.127 5.31197 669.127 6.71997V12H671.479V6.41597C671.479 4.17597 670.631 2.83197 668.711 2.83197C667.495 2.83197 666.567 3.47197 665.799 4.23997H665.751L665.559 3.05597H663.655V12Z" fill="#5793BF"/>
<path d="M645.18 197.224C648.076 197.224 649.756 195.608 649.756 191.688V185.16H647.484V191.896C647.484 194.344 646.572 195.176 645.18 195.176C643.788 195.176 642.924 194.344 642.924 191.896V185.16H640.572V191.688C640.572 195.608 642.284 197.224 645.18 197.224Z" fill="#5793BF"/>
<path d="M652.604 197H654.972V192.792H656.556C659.1 192.792 661.116 191.592 661.116 188.888C661.116 186.072 659.1 185.16 656.492 185.16H652.604V197ZM654.972 190.92V187.048H656.316C657.948 187.048 658.812 187.496 658.812 188.888C658.812 190.232 658.028 190.92 656.396 190.92H654.972Z" fill="#5793BF"/>
<path d="M480.18 197.224C483.076 197.224 484.756 195.608 484.756 191.688V185.16H482.484V191.896C482.484 194.344 481.572 195.176 480.18 195.176C478.788 195.176 477.924 194.344 477.924 191.896V185.16H475.572V191.688C475.572 195.608 477.284 197.224 480.18 197.224Z" fill="#5793BF"/>
<path d="M487.604 197H489.972V192.792H491.556C494.1 192.792 496.116 191.592 496.116 188.888C496.116 186.072 494.1 185.16 491.492 185.16H487.604V197ZM489.972 190.92V187.048H491.316C492.948 187.048 493.812 187.496 493.812 188.888C493.812 190.232 493.028 190.92 491.396 190.92H489.972Z" fill="#5793BF"/>
<path d="M315.18 197.224C318.076 197.224 319.756 195.608 319.756 191.688V185.16H317.484V191.896C317.484 194.344 316.572 195.176 315.18 195.176C313.788 195.176 312.924 194.344 312.924 191.896V185.16H310.572V191.688C310.572 195.608 312.284 197.224 315.18 197.224Z" fill="#5793BF"/>
<path d="M322.604 197H324.972V192.792H326.556C329.1 192.792 331.116 191.592 331.116 188.888C331.116 186.072 329.1 185.16 326.492 185.16H322.604V197ZM324.972 190.92V187.048H326.316C327.948 187.048 328.812 187.496 328.812 188.888C328.812 190.232 328.028 190.92 326.396 190.92H324.972Z" fill="#5793BF"/>
<path d="M150.18 197.224C153.076 197.224 154.756 195.608 154.756 191.688V185.16H152.484V191.896C152.484 194.344 151.572 195.176 150.18 195.176C148.788 195.176 147.924 194.344 147.924 191.896V185.16H145.572V191.688C145.572 195.608 147.284 197.224 150.18 197.224Z" fill="#5793BF"/>
<path d="M157.604 197H159.972V192.792H161.556C164.1 192.792 166.116 191.592 166.116 188.888C166.116 186.072 164.1 185.16 161.492 185.16H157.604V197ZM159.972 190.92V187.048H161.316C162.948 187.048 163.812 187.496 163.812 188.888C163.812 190.232 163.028 190.92 161.396 190.92H159.972Z" fill="#5793BF"/>
</svg>
