<svg width="1228" height="1050" viewBox="0 0 1228 1050" fill="none" xmlns="http://www.w3.org/2000/svg">
<g clip-path="url(#clip0_32_20357)">
<rect width="1228" height="1050" rx="32" fill="#F5F5F5"/>
<line x1="75" y1="123.5" x2="1172" y2="123.5" stroke="#898989" stroke-opacity="0.3"/>
<line x1="89" y1="962.5" x2="1159" y2="962.5" stroke="#898989" stroke-opacity="0.3"/>
<path d="M73.628 67.4002H84.5799V97H91.9305V67.4002H102.882V61.2829H73.628V67.4002ZM115.561 97.5427C122.172 97.518 126.612 94.3114 127.648 89.3534H120.692C119.976 90.9567 118.2 92.042 115.709 92.0667C111.935 92.042 109.542 89.5507 109.542 85.5054H127.845V83.4334C127.845 74.3068 122.295 69.8668 115.265 69.8668C107.421 69.8668 102.315 75.4661 102.34 83.7294C102.315 92.2147 107.347 97.518 115.561 97.5427ZM109.542 80.9174C109.69 77.8341 112.058 75.3181 115.413 75.3428C118.669 75.3181 120.914 77.6615 120.938 80.9174H109.542ZM138.057 70.2122H130.509L138.205 83.5814L130.213 97H137.81L143.04 87.6761L148.367 97H155.866L147.825 83.5814L155.669 70.2122H148.121L143.04 79.6348L138.057 70.2122ZM173.922 70.2122H168.89V63.7989H161.589V70.2122H157.889V75.6881H161.589V89.7974C161.539 95.002 165.141 97.37 170.419 97.3453C172.22 97.37 173.527 97.222 174.317 97.0987V91.3267C173.429 91.4007 172.146 91.4747 171.406 91.4747C169.926 91.4254 168.865 90.9074 168.89 88.7614V75.6881H173.922V70.2122ZM184.627 97L187.316 88.7614H200.241L202.93 97H210.872L198.539 61.2829H189.018L176.635 97H184.627ZM189.191 82.9894L193.655 69.3242H193.902L198.366 82.9894H189.191ZM214.77 97H222.071V81.7561C222.046 78.4755 224.488 76.1815 227.794 76.1815C228.805 76.1815 230.211 76.3541 230.902 76.5761V70.0642C230.26 69.9162 229.323 69.8175 228.583 69.8175C225.574 69.8175 223.082 71.5688 222.12 74.8495H221.824V70.2122H214.77V97ZM245.751 97.5427C252.361 97.518 256.801 94.3114 257.837 89.3534H250.881C250.166 90.9567 248.39 92.042 245.899 92.0667C242.125 92.042 239.732 89.5507 239.732 85.5054H258.035V83.4334C258.035 74.3068 252.485 69.8668 245.455 69.8668C237.611 69.8668 232.505 75.4661 232.53 83.7294C232.505 92.2147 237.537 97.518 245.751 97.5427ZM239.732 80.9174C239.88 77.8341 242.248 75.3181 245.603 75.3428C248.859 75.3181 251.103 77.6615 251.128 80.9174H239.732ZM261.34 89.5014C261.365 94.8047 265.139 97.518 270.269 97.4933C274.241 97.518 276.806 95.7667 278.113 93.3H278.311V97H285.217V78.9441C285.242 72.4815 279.717 69.8668 273.871 69.8668C266.767 69.8668 262.721 73.5175 262.277 78.1548H269.233C269.628 76.3295 271.182 75.2195 273.673 75.1948C276.411 75.2195 277.941 76.5021 277.965 78.7468V80.9174C276.831 80.9668 273.229 81.1394 271.305 81.2628C266.15 81.5834 261.365 83.5321 261.34 89.5014ZM268.345 89.3041C268.345 87.2321 269.949 86.0234 272.489 85.8014C273.723 85.7027 276.855 85.5301 277.965 85.4807V87.4294C277.99 90.266 275.671 92.4367 272.341 92.4614C269.998 92.4367 268.345 91.3514 268.345 89.3041Z" fill="black"/>
<path d="M87.6047 198.646H91.6027C91.5471 195.092 88.6181 192.621 84.162 192.621C79.7615 192.621 76.5409 195.051 76.5548 198.702C76.5548 201.645 78.637 203.338 82.0242 204.171L84.2175 204.699C86.4109 205.24 87.6602 205.879 87.6602 207.253C87.6602 208.752 86.2443 209.779 84.051 209.779C81.8299 209.779 80.2196 208.752 80.0808 206.725H76.0273C76.1522 211.043 79.2478 213.292 84.1065 213.278C89.0068 213.292 91.8664 210.932 91.8803 207.253C91.8664 203.907 89.2983 202.158 85.8556 201.367L84.051 200.923C82.3157 200.534 80.8165 199.882 80.8304 198.424C80.8443 197.091 82.0242 196.12 84.1342 196.12C86.1749 196.12 87.4381 197.05 87.6047 198.646ZM102.458 197.924H99.6264V194.315H95.5174V197.924H93.4351V201.006H95.5174V208.947C95.4896 211.876 97.5163 213.208 100.487 213.194C101.5 213.208 102.236 213.125 102.68 213.056V209.807C102.181 209.849 101.459 209.89 101.042 209.89C100.209 209.863 99.6125 209.571 99.6264 208.363V201.006H102.458V197.924ZM104.318 208.78C104.332 211.765 106.456 213.292 109.344 213.278C111.579 213.292 113.022 212.306 113.758 210.918H113.869V213H117.756V202.838C117.77 199.201 114.66 197.73 111.37 197.73C107.372 197.73 105.096 199.784 104.846 202.394H108.761C108.983 201.367 109.857 200.742 111.259 200.728C112.8 200.742 113.661 201.464 113.675 202.727V203.949C113.036 203.977 111.009 204.074 109.927 204.143C107.025 204.324 104.332 205.421 104.318 208.78ZM108.261 208.669C108.261 207.503 109.163 206.823 110.593 206.698C111.287 206.642 113.05 206.545 113.675 206.517V207.614C113.689 209.21 112.384 210.432 110.51 210.446C109.191 210.432 108.261 209.821 108.261 208.669ZM128.834 197.924H126.002V194.315H121.893V197.924H119.811V201.006H121.893V208.947C121.865 211.876 123.892 213.208 126.863 213.194C127.876 213.208 128.612 213.125 129.056 213.056V209.807C128.556 209.849 127.834 209.89 127.418 209.89C126.585 209.863 125.988 209.571 126.002 208.363V201.006H128.834V197.924ZM138.079 213.305C141.799 213.292 144.298 211.487 144.881 208.697H140.966C140.564 209.599 139.564 210.21 138.162 210.224C136.038 210.21 134.692 208.808 134.692 206.531H144.992V205.365C144.992 200.229 141.869 197.73 137.912 197.73C133.498 197.73 130.625 200.881 130.638 205.532C130.625 210.307 133.456 213.292 138.079 213.305ZM134.692 203.949C134.775 202.214 136.108 200.798 137.996 200.812C139.828 200.798 141.091 202.117 141.105 203.949H134.692Z" fill="#898989"/>
<rect width="996" height="306" transform="translate(75 291)" fill="white"/>
<circle cx="131" cy="355" r="24" fill="white"/>
<circle cx="131" cy="355" r="23.5" stroke="#898989" stroke-opacity="0.3"/>
<path d="M137 347C135.29 347 134.25 347.33 133.65 347.61C132.88 347.23 132 347 131 347C130 347 129.12 347.23 128.35 347.61C127.75 347.33 126.71 347 125 347C122 347 120 355 120 357C120 357.83 121.32 358.59 123.14 358.9C123.78 361.14 126.8 362.85 130.5 363V358.72C129.91 358.35 129 357.68 129 357C129 356 131 356 131 356C131 356 133 356 133 357C133 357.68 132.09 358.35 131.5 358.72V363C135.2 362.85 138.22 361.14 138.86 358.9C140.68 358.59 142 357.83 142 357C142 355 140 347 137 347ZM123.15 356.87C122.65 356.75 122.26 356.61 122 356.5C122.25 353.73 124.2 349.4 125.05 349C125.59 349 126 349.06 126.37 349.11C124.27 351.42 123.44 355.04 123.15 356.87ZM128 355C127.735 355 127.48 354.895 127.293 354.707C127.105 354.52 127 354.265 127 354C127 353.46 127.45 353 128 353C128.265 353 128.52 353.105 128.707 353.293C128.895 353.48 129 353.735 129 354C129 354.56 128.55 355 128 355ZM134 355C133.735 355 133.48 354.895 133.293 354.707C133.105 354.52 133 354.265 133 354C133 353.46 133.45 353 134 353C134.265 353 134.52 353.105 134.707 353.293C134.895 353.48 135 353.735 135 354C135 354.56 134.55 355 134 355ZM138.85 356.87C138.56 355.04 137.73 351.42 135.63 349.11C136 349.06 136.41 349 136.95 349C137.8 349.4 139.75 353.73 140 356.5C139.75 356.61 139.36 356.75 138.85 356.87Z" fill="#276EF1"/>
<path d="M137 347C135.29 347 134.25 347.33 133.65 347.61C132.88 347.23 132 347 131 347C130 347 129.12 347.23 128.35 347.61C127.75 347.33 126.71 347 125 347C122 347 120 355 120 357C120 357.83 121.32 358.59 123.14 358.9C123.78 361.14 126.8 362.85 130.5 363V358.72C129.91 358.35 129 357.68 129 357C129 356 131 356 131 356C131 356 133 356 133 357C133 357.68 132.09 358.35 131.5 358.72V363C135.2 362.85 138.22 361.14 138.86 358.9C140.68 358.59 142 357.83 142 357C142 355 140 347 137 347ZM123.15 356.87C122.65 356.75 122.26 356.61 122 356.5C122.25 353.73 124.2 349.4 125.05 349C125.59 349 126 349.06 126.37 349.11C124.27 351.42 123.44 355.04 123.15 356.87ZM128 355C127.735 355 127.48 354.895 127.293 354.707C127.105 354.52 127 354.265 127 354C127 353.46 127.45 353 128 353C128.265 353 128.52 353.105 128.707 353.293C128.895 353.48 129 353.735 129 354C129 354.56 128.55 355 128 355ZM134 355C133.735 355 133.48 354.895 133.293 354.707C133.105 354.52 133 354.265 133 354C133 353.46 133.45 353 134 353C134.265 353 134.52 353.105 134.707 353.293C134.895 353.48 135 353.735 135 354C135 354.56 134.55 355 134 355ZM138.85 356.87C138.56 355.04 137.73 351.42 135.63 349.11C136 349.06 136.41 349 136.95 349C137.8 349.4 139.75 353.73 140 356.5C139.75 356.61 139.36 356.75 138.85 356.87Z" fill="black"/>
<path d="M175.625 350.938H179.188V361H180.609V350.938H184.156V349.688H175.625V350.938ZM185.859 361H187.203V352.516H185.859V361ZM185.594 350.219C185.586 350.711 186.016 351.109 186.531 351.109C187.047 351.109 187.477 350.711 187.484 350.219C187.477 349.719 187.047 349.32 186.531 349.328C186.016 349.32 185.586 349.719 185.594 350.219ZM193.047 352.516H191.266V350.484H189.906V352.516H188.625V353.641H189.906V358.906C189.914 360.406 191.102 361.109 192.234 361.109C192.633 361.109 192.961 361.078 193.172 361.047V359.797C192.977 359.805 192.617 359.828 192.375 359.828C191.805 359.828 191.258 359.648 191.266 358.562V353.641H193.047V352.516ZM196.312 349.688H194.969V361H196.312V349.688ZM202.016 361.172C203.766 361.18 205.023 360.305 205.422 359.016H203.984C203.672 359.539 203.031 359.984 202.016 359.984C200.508 359.984 199.461 359 199.391 357.203H205.547V356.641C205.555 353.5 203.672 352.406 201.891 352.406C199.586 352.406 198.047 354.219 198.047 356.828C198.047 359.43 199.562 361.18 202.016 361.172ZM199.398 356.062C199.492 354.75 200.422 353.594 201.891 353.594C203.289 353.594 204.18 354.648 204.188 356.062H199.398Z" fill="black"/>
<path d="M240.062 361H247.406V359.75H242.016V359.656L244.609 356.984C246.609 354.922 247.195 353.938 247.203 352.672C247.195 350.914 245.742 349.531 243.688 349.531C241.641 349.531 240.094 350.875 240.109 352.875H241.438C241.445 351.609 242.289 350.758 243.641 350.75C244.914 350.758 245.883 351.508 245.891 352.672C245.883 353.719 245.242 354.484 243.906 355.906L240.047 359.969L240.062 361ZM253.156 361.156C255.664 361.156 257.109 359.047 257.109 355.344C257.109 351.672 255.641 349.531 253.156 349.531C250.664 349.531 249.195 351.672 249.203 355.344C249.195 359.047 250.648 361.156 253.156 361.156ZM250.562 355.344C250.57 352.414 251.531 350.758 253.156 350.75C254.781 350.758 255.742 352.414 255.734 355.344C255.742 358.273 254.789 359.906 253.156 359.906C251.516 359.906 250.57 358.273 250.562 355.344ZM262.984 349.688H261.562L258.75 351.562V352.984L261.5 351.156H261.562V361H262.984V349.688ZM269.906 361.156C272.164 361.156 273.852 359.781 273.844 357.922C273.852 356.484 272.961 355.43 271.484 355.203V355.125C272.672 354.789 273.422 353.852 273.406 352.562C273.422 350.945 272.109 349.531 269.953 349.531C267.945 349.531 266.273 350.734 266.203 352.531H267.562C267.625 351.422 268.727 350.758 269.938 350.75C271.227 350.758 272.055 351.508 272.047 352.641C272.055 353.805 271.094 354.578 269.719 354.578H268.797V355.812H269.719C271.477 355.82 272.461 356.688 272.469 357.922C272.461 359.102 271.383 359.906 269.891 359.906C268.539 359.906 267.469 359.234 267.391 358.156H265.969C266.039 359.953 267.656 361.156 269.906 361.156ZM276.484 361.094C277.039 361.086 277.492 360.633 277.484 360.078C277.492 359.531 277.039 359.078 276.484 359.078C275.938 359.078 275.469 359.531 275.484 360.078C275.469 360.633 275.938 361.086 276.484 361.094ZM282.875 361.156C285.383 361.156 286.828 359.047 286.828 355.344C286.828 351.672 285.359 349.531 282.875 349.531C280.383 349.531 278.914 351.672 278.922 355.344C278.914 359.047 280.367 361.156 282.875 361.156ZM280.281 355.344C280.289 352.414 281.25 350.758 282.875 350.75C284.5 350.758 285.461 352.414 285.453 355.344C285.461 358.273 284.508 359.906 282.875 359.906C281.234 359.906 280.289 358.273 280.281 355.344ZM292.609 361.156C294.867 361.156 296.555 359.781 296.547 357.922C296.555 356.484 295.664 355.43 294.188 355.203V355.125C295.375 354.789 296.125 353.852 296.109 352.562C296.125 350.945 294.812 349.531 292.656 349.531C290.648 349.531 288.977 350.734 288.906 352.531H290.266C290.328 351.422 291.43 350.758 292.641 350.75C293.93 350.758 294.758 351.508 294.75 352.641C294.758 353.805 293.797 354.578 292.422 354.578H291.5V355.812H292.422C294.18 355.82 295.164 356.688 295.172 357.922C295.164 359.102 294.086 359.906 292.594 359.906C291.242 359.906 290.172 359.234 290.094 358.156H288.672C288.742 359.953 290.359 361.156 292.609 361.156ZM299.188 361.094C299.742 361.086 300.195 360.633 300.188 360.078C300.195 359.531 299.742 359.078 299.188 359.078C298.641 359.078 298.172 359.531 298.188 360.078C298.172 360.633 298.641 361.086 299.188 361.094ZM304.922 349.688H303.5L300.688 351.562V352.984L303.438 351.156H303.5V361H304.922V349.688ZM311.625 361.156C313.883 361.156 315.523 359.578 315.531 357.391C315.523 355.188 313.938 353.594 311.781 353.594C310.984 353.594 310.227 353.859 309.719 354.25H309.609L310.031 350.938H314.984V349.688H308.859L308.062 355.875H309.422C309.836 355.141 310.578 354.844 311.531 354.859C313.055 354.867 314.156 355.953 314.156 357.422C314.156 358.844 313.094 359.914 311.625 359.922C310.398 359.914 309.414 359.164 309.312 358.156H307.953C308.039 359.898 309.586 361.156 311.625 361.156Z" fill="#A6A6A6"/>
<path d="M890.483 360.582C890.801 360.39 891.199 360.39 891.517 360.582L895.151 362.775C895.908 363.232 896.843 362.553 896.642 361.692L895.677 357.558C895.593 357.196 895.716 356.818 895.996 356.575L899.212 353.789C899.88 353.21 899.524 352.113 898.643 352.037L894.409 351.672C894.041 351.64 893.72 351.407 893.575 351.066L891.921 347.169C891.576 346.356 890.424 346.356 890.079 347.169L888.425 351.066C888.28 351.407 887.959 351.64 887.591 351.672L883.354 352.037C882.474 352.113 882.117 353.209 882.784 353.789L885.995 356.575C886.275 356.818 886.398 357.196 886.314 357.556L885.354 361.696C885.155 362.557 886.088 363.234 886.845 362.778L890.483 360.582Z" fill="#E1E1E1"/>
<path d="M922.483 360.582C922.801 360.39 923.199 360.39 923.517 360.582L927.151 362.775C927.908 363.232 928.843 362.553 928.642 361.692L927.677 357.558C927.593 357.196 927.716 356.818 927.996 356.575L931.212 353.789C931.88 353.21 931.524 352.113 930.643 352.037L926.409 351.672C926.041 351.64 925.72 351.407 925.575 351.066L923.921 347.169C923.576 346.356 922.424 346.356 922.079 347.169L920.425 351.066C920.28 351.407 919.959 351.64 919.591 351.672L915.354 352.037C914.474 352.113 914.117 353.209 914.784 353.789L917.995 356.575C918.275 356.818 918.398 357.196 918.314 357.556L917.354 361.696C917.155 362.557 918.088 363.234 918.845 362.778L922.483 360.582Z" fill="#E1E1E1"/>
<path d="M954.483 360.582C954.801 360.39 955.199 360.39 955.517 360.582L959.151 362.775C959.908 363.232 960.843 362.553 960.642 361.692L959.677 357.558C959.593 357.196 959.716 356.818 959.996 356.575L963.212 353.789C963.88 353.21 963.524 352.113 962.643 352.037L958.409 351.672C958.041 351.64 957.72 351.407 957.575 351.066L955.921 347.169C955.576 346.356 954.424 346.356 954.079 347.169L952.425 351.066C952.28 351.407 951.959 351.64 951.591 351.672L947.354 352.037C946.474 352.113 946.117 353.209 946.784 353.789L949.995 356.575C950.275 356.818 950.398 357.196 950.314 357.556L949.354 361.696C949.155 362.557 950.088 363.234 950.845 362.778L954.483 360.582Z" fill="#E1E1E1"/>
<path d="M986.483 360.582C986.801 360.39 987.199 360.39 987.517 360.582L991.151 362.775C991.908 363.232 992.843 362.553 992.642 361.692L991.677 357.558C991.593 357.196 991.716 356.818 991.996 356.575L995.212 353.789C995.88 353.21 995.524 352.113 994.643 352.037L990.409 351.672C990.041 351.64 989.72 351.407 989.575 351.066L987.921 347.169C987.576 346.356 986.424 346.356 986.079 347.169L984.425 351.066C984.28 351.407 983.959 351.64 983.591 351.672L979.354 352.037C978.474 352.113 978.117 353.209 978.784 353.789L981.995 356.575C982.275 356.818 982.398 357.196 982.314 357.556L981.354 361.696C981.155 362.557 982.088 363.234 982.845 362.778L986.483 360.582Z" fill="#E1E1E1"/>
<path d="M1018.48 360.582C1018.8 360.39 1019.2 360.39 1019.52 360.582L1023.15 362.775C1023.91 363.232 1024.84 362.553 1024.64 361.692L1023.68 357.558C1023.59 357.196 1023.72 356.818 1024 356.575L1027.21 353.789C1027.88 353.21 1027.52 352.113 1026.64 352.037L1022.41 351.672C1022.04 351.64 1021.72 351.407 1021.57 351.066L1019.92 347.169C1019.58 346.356 1018.42 346.356 1018.08 347.169L1016.43 351.066C1016.28 351.407 1015.96 351.64 1015.59 351.672L1011.35 352.037C1010.47 352.113 1010.12 353.209 1010.78 353.789L1014 356.575C1014.28 356.818 1014.4 357.196 1014.31 357.556L1013.35 361.696C1013.15 362.557 1014.09 363.234 1014.85 362.778L1018.48 360.582Z" fill="#E1E1E1"/>
<path d="M1039 386H107V388H1039V386Z" fill="#898989" fill-opacity="0.3" mask="url(#path-6-inside-1_32_20357)"/>
<rect x="107" y="395" width="932" height="120" fill="#F2F2F2"/>
<path d="M143.969 422.967H145.375C144.953 420.615 143.102 419.248 140.812 419.248C137.906 419.248 135.805 421.482 135.812 425.061C135.805 428.639 137.906 430.873 140.812 430.873C143.109 430.873 144.969 429.482 145.375 427.17H143.969C143.633 428.717 142.305 429.553 140.812 429.561C138.766 429.553 137.18 427.975 137.172 425.061C137.18 422.139 138.766 420.561 140.812 420.561C142.305 420.561 143.641 421.404 143.969 422.967ZM150.641 430.889C152.945 430.896 154.492 429.146 154.484 426.514C154.492 423.865 152.945 422.123 150.641 422.123C148.328 422.123 146.766 423.865 146.766 426.514C146.766 429.146 148.328 430.896 150.641 430.889ZM148.109 426.514C148.117 424.826 148.914 423.311 150.641 423.311C152.352 423.311 153.141 424.826 153.141 426.514C153.141 428.209 152.352 429.701 150.641 429.701C148.914 429.701 148.117 428.209 148.109 426.514ZM157.594 425.623C157.594 424.154 158.5 423.326 159.734 423.326C160.938 423.326 161.656 424.107 161.656 425.42V430.717H163V425.326C163.008 423.17 161.859 422.123 160.141 422.123C158.852 422.123 158.055 422.693 157.656 423.561H157.547V422.232H156.25V430.717H157.594V425.623ZM168.859 422.232H167.078V420.201H165.719V422.232H164.438V423.357H165.719V428.623C165.727 430.123 166.914 430.826 168.047 430.826C168.445 430.826 168.773 430.795 168.984 430.764V429.514C168.789 429.521 168.43 429.545 168.188 429.545C167.617 429.545 167.07 429.365 167.078 428.279V423.357H168.859V422.232ZM174.062 430.889C175.812 430.896 177.07 430.021 177.469 428.732H176.031C175.719 429.256 175.078 429.701 174.062 429.701C172.555 429.701 171.508 428.717 171.438 426.92H177.594V426.357C177.602 423.217 175.719 422.123 173.938 422.123C171.633 422.123 170.094 423.936 170.094 426.545C170.094 429.146 171.609 430.896 174.062 430.889ZM171.445 425.779C171.539 424.467 172.469 423.311 173.938 423.311C175.336 423.311 176.227 424.365 176.234 425.779H171.445ZM180.688 425.623C180.688 424.154 181.594 423.326 182.828 423.326C184.031 423.326 184.75 424.107 184.75 425.42V430.717H186.094V425.326C186.102 423.17 184.953 422.123 183.234 422.123C181.945 422.123 181.148 422.693 180.75 423.561H180.641V422.232H179.344V430.717H180.688V425.623ZM191.953 422.232H190.172V420.201H188.812V422.232H187.531V423.357H188.812V428.623C188.82 430.123 190.008 430.826 191.141 430.826C191.539 430.826 191.867 430.795 192.078 430.764V429.514C191.883 429.521 191.523 429.545 191.281 429.545C190.711 429.545 190.164 429.365 190.172 428.279V423.357H191.953V422.232ZM198.25 424.436H199.562C199.391 423.061 198.289 422.123 196.531 422.123C194.664 422.123 193.391 423.17 193.391 424.623C193.391 425.756 194.18 426.561 195.656 426.904L196.938 427.201C197.898 427.428 198.328 427.818 198.328 428.42C198.328 429.217 197.57 429.725 196.359 429.717C195.289 429.725 194.688 429.326 194.531 428.498H193.125C193.352 430.045 194.484 430.896 196.391 430.889C198.516 430.896 199.711 429.811 199.719 428.342C199.711 427.162 198.969 426.404 197.453 426.045L196.188 425.732C195.195 425.49 194.742 425.107 194.734 424.545C194.742 423.834 195.484 423.271 196.531 423.264C197.523 423.271 198.062 423.732 198.25 424.436Z" fill="black"/>
<rect x="943" y="523" width="96" height="42" rx="12" fill="#0075FF"/>
<path d="M969.516 538.594H964.203V544.781H965.094C967.156 544.781 968.578 544.719 970.312 544.391L970.203 543.375C968.625 543.695 967.258 543.773 965.406 543.766V539.609H969.516V538.594ZM965.328 550.25L965.859 551.203C967.906 550.836 969.875 549.734 970.719 548.164C971.555 549.734 973.516 550.836 975.578 551.203L976.109 550.25C973.672 549.867 971.328 548.328 971.328 546.469V545.938H970.109V546.469C970.094 548.328 967.75 549.867 965.328 550.25ZM971.094 545.359H972.234V542.047H974.188V546.562H975.359V537.375H974.188V541.016H972.234V537.641H971.094V545.359ZM988.438 537.984H979V538.984H987.219C987.227 539.898 987.211 541.031 986.891 542.578H977.391V543.562H990.109V542.578H988.125C988.438 541.016 988.438 539.812 988.438 538.875V537.984ZM978.906 545.953H987.266V547.5H978.922V551.109H988.844V550.109H980.156V548.469H988.484V544.969H978.906V545.953ZM1003.89 543.984H991.219V545.016H1003.89V543.984ZM992.75 548.734C992.742 550.344 994.547 551.234 997.547 551.234C1000.52 551.234 1002.31 550.344 1002.33 548.734C1002.31 547.141 1000.52 546.234 997.547 546.234C994.547 546.234 992.742 547.141 992.75 548.734ZM992.828 542.656H1002.41V541.656H994.031V538.969H1002.31V537.938H992.828V542.656ZM994 548.734C993.984 547.766 995.32 547.203 997.547 547.188C999.75 547.203 1001.09 547.766 1001.09 548.734C1001.09 549.711 999.75 550.266 997.547 550.266C995.32 550.266 993.984 549.711 994 548.734ZM1017.75 545.031H1011.98V543.562H1016.41V542.578H1007.91V541.094H1016.11V537.734H1006.64V538.734H1014.88V540.172H1006.69V543.562H1010.78V545.031H1005.03V546.047H1017.75V545.031ZM1006.45 548.109H1014.95V551.141H1016.19V547.109H1006.45V548.109Z" fill="white"/>
<rect width="996" height="248" transform="translate(75 665)" fill="white"/>
<path d="M107.625 720.938H111.188V731H112.609V720.938H116.156V719.688H107.625V720.938ZM117.859 731H119.203V722.516H117.859V731ZM117.594 720.219C117.586 720.711 118.016 721.109 118.531 721.109C119.047 721.109 119.477 720.711 119.484 720.219C119.477 719.719 119.047 719.32 118.531 719.328C118.016 719.32 117.586 719.719 117.594 720.219ZM125.047 722.516H123.266V720.484H121.906V722.516H120.625V723.641H121.906V728.906C121.914 730.406 123.102 731.109 124.234 731.109C124.633 731.109 124.961 731.078 125.172 731.047V729.797C124.977 729.805 124.617 729.828 124.375 729.828C123.805 729.828 123.258 729.648 123.266 728.562V723.641H125.047V722.516ZM128.312 719.688H126.969V731H128.312V719.688ZM134.016 731.172C135.766 731.18 137.023 730.305 137.422 729.016H135.984C135.672 729.539 135.031 729.984 134.016 729.984C132.508 729.984 131.461 729 131.391 727.203H137.547V726.641C137.555 723.5 135.672 722.406 133.891 722.406C131.586 722.406 130.047 724.219 130.047 726.828C130.047 729.43 131.562 731.18 134.016 731.172ZM131.398 726.062C131.492 724.75 132.422 723.594 133.891 723.594C135.289 723.594 136.18 724.648 136.188 726.062H131.398Z" fill="black"/>
<path d="M890.483 730.582C890.801 730.39 891.199 730.39 891.517 730.582L895.151 732.775C895.908 733.232 896.843 732.553 896.642 731.692L895.677 727.558C895.593 727.196 895.716 726.818 895.996 726.575L899.212 723.789C899.88 723.21 899.524 722.113 898.643 722.037L894.409 721.672C894.041 721.64 893.72 721.407 893.575 721.066L891.921 717.169C891.576 716.356 890.424 716.356 890.079 717.169L888.425 721.066C888.28 721.407 887.959 721.64 887.591 721.672L883.354 722.037C882.474 722.113 882.117 723.209 882.784 723.789L885.995 726.575C886.275 726.818 886.398 727.196 886.314 727.556L885.354 731.696C885.155 732.557 886.088 733.234 886.845 732.778L890.483 730.582Z" fill="#E1E1E1"/>
<path d="M922.483 730.582C922.801 730.39 923.199 730.39 923.517 730.582L927.151 732.775C927.908 733.232 928.843 732.553 928.642 731.692L927.677 727.558C927.593 727.196 927.716 726.818 927.996 726.575L931.212 723.789C931.88 723.21 931.524 722.113 930.643 722.037L926.409 721.672C926.041 721.64 925.72 721.407 925.575 721.066L923.921 717.169C923.576 716.356 922.424 716.356 922.079 717.169L920.425 721.066C920.28 721.407 919.959 721.64 919.591 721.672L915.354 722.037C914.474 722.113 914.117 723.209 914.784 723.789L917.995 726.575C918.275 726.818 918.398 727.196 918.314 727.556L917.354 731.696C917.155 732.557 918.088 733.234 918.845 732.778L922.483 730.582Z" fill="#E1E1E1"/>
<path d="M954.483 730.582C954.801 730.39 955.199 730.39 955.517 730.582L959.151 732.775C959.908 733.232 960.843 732.553 960.642 731.692L959.677 727.558C959.593 727.196 959.716 726.818 959.996 726.575L963.212 723.789C963.88 723.21 963.524 722.113 962.643 722.037L958.409 721.672C958.041 721.64 957.72 721.407 957.575 721.066L955.921 717.169C955.576 716.356 954.424 716.356 954.079 717.169L952.425 721.066C952.28 721.407 951.959 721.64 951.591 721.672L947.354 722.037C946.474 722.113 946.117 723.209 946.784 723.789L949.995 726.575C950.275 726.818 950.398 727.196 950.314 727.556L949.354 731.696C949.155 732.557 950.088 733.234 950.845 732.778L954.483 730.582Z" fill="#E1E1E1"/>
<path d="M986.483 730.582C986.801 730.39 987.199 730.39 987.517 730.582L991.151 732.775C991.908 733.232 992.843 732.553 992.642 731.692L991.677 727.558C991.593 727.196 991.716 726.818 991.996 726.575L995.212 723.789C995.88 723.21 995.524 722.113 994.643 722.037L990.409 721.672C990.041 721.64 989.72 721.407 989.575 721.066L987.921 717.169C987.576 716.356 986.424 716.356 986.079 717.169L984.425 721.066C984.28 721.407 983.959 721.64 983.591 721.672L979.354 722.037C978.474 722.113 978.117 723.209 978.784 723.789L981.995 726.575C982.275 726.818 982.398 727.196 982.314 727.556L981.354 731.696C981.155 732.557 982.088 733.234 982.845 732.778L986.483 730.582Z" fill="#E1E1E1"/>
<path d="M1018.48 730.582C1018.8 730.39 1019.2 730.39 1019.52 730.582L1023.15 732.775C1023.91 733.232 1024.84 732.553 1024.64 731.692L1023.68 727.558C1023.59 727.196 1023.72 726.818 1024 726.575L1027.21 723.789C1027.88 723.21 1027.52 722.113 1026.64 722.037L1022.41 721.672C1022.04 721.64 1021.72 721.407 1021.57 721.066L1019.92 717.169C1019.58 716.356 1018.42 716.356 1018.08 717.169L1016.43 721.066C1016.28 721.407 1015.96 721.64 1015.59 721.672L1011.35 722.037C1010.47 722.113 1010.12 723.209 1010.78 723.789L1014 726.575C1014.28 726.818 1014.4 727.196 1014.31 727.556L1013.35 731.696C1013.15 732.557 1014.09 733.234 1014.85 732.778L1018.48 730.582Z" fill="#E1E1E1"/>
<path d="M1039 752H107V754H1039V752Z" fill="#898989" fill-opacity="0.3" mask="url(#path-23-inside-2_32_20357)"/>
<rect x="107" y="761" width="932" height="120" fill="#F2F2F2"/>
<path d="M143.969 788.967H145.375C144.953 786.615 143.102 785.248 140.812 785.248C137.906 785.248 135.805 787.482 135.812 791.061C135.805 794.639 137.906 796.873 140.812 796.873C143.109 796.873 144.969 795.482 145.375 793.17H143.969C143.633 794.717 142.305 795.553 140.812 795.561C138.766 795.553 137.18 793.975 137.172 791.061C137.18 788.139 138.766 786.561 140.812 786.561C142.305 786.561 143.641 787.404 143.969 788.967ZM150.641 796.889C152.945 796.896 154.492 795.146 154.484 792.514C154.492 789.865 152.945 788.123 150.641 788.123C148.328 788.123 146.766 789.865 146.766 792.514C146.766 795.146 148.328 796.896 150.641 796.889ZM148.109 792.514C148.117 790.826 148.914 789.311 150.641 789.311C152.352 789.311 153.141 790.826 153.141 792.514C153.141 794.209 152.352 795.701 150.641 795.701C148.914 795.701 148.117 794.209 148.109 792.514ZM157.594 791.623C157.594 790.154 158.5 789.326 159.734 789.326C160.938 789.326 161.656 790.107 161.656 791.42V796.717H163V791.326C163.008 789.17 161.859 788.123 160.141 788.123C158.852 788.123 158.055 788.693 157.656 789.561H157.547V788.232H156.25V796.717H157.594V791.623ZM168.859 788.232H167.078V786.201H165.719V788.232H164.438V789.357H165.719V794.623C165.727 796.123 166.914 796.826 168.047 796.826C168.445 796.826 168.773 796.795 168.984 796.764V795.514C168.789 795.521 168.43 795.545 168.188 795.545C167.617 795.545 167.07 795.365 167.078 794.279V789.357H168.859V788.232ZM174.062 796.889C175.812 796.896 177.07 796.021 177.469 794.732H176.031C175.719 795.256 175.078 795.701 174.062 795.701C172.555 795.701 171.508 794.717 171.438 792.92H177.594V792.357C177.602 789.217 175.719 788.123 173.938 788.123C171.633 788.123 170.094 789.936 170.094 792.545C170.094 795.146 171.609 796.896 174.062 796.889ZM171.445 791.779C171.539 790.467 172.469 789.311 173.938 789.311C175.336 789.311 176.227 790.365 176.234 791.779H171.445ZM180.688 791.623C180.688 790.154 181.594 789.326 182.828 789.326C184.031 789.326 184.75 790.107 184.75 791.42V796.717H186.094V791.326C186.102 789.17 184.953 788.123 183.234 788.123C181.945 788.123 181.148 788.693 180.75 789.561H180.641V788.232H179.344V796.717H180.688V791.623ZM191.953 788.232H190.172V786.201H188.812V788.232H187.531V789.357H188.812V794.623C188.82 796.123 190.008 796.826 191.141 796.826C191.539 796.826 191.867 796.795 192.078 796.764V795.514C191.883 795.521 191.523 795.545 191.281 795.545C190.711 795.545 190.164 795.365 190.172 794.279V789.357H191.953V788.232ZM198.25 790.436H199.562C199.391 789.061 198.289 788.123 196.531 788.123C194.664 788.123 193.391 789.17 193.391 790.623C193.391 791.756 194.18 792.561 195.656 792.904L196.938 793.201C197.898 793.428 198.328 793.818 198.328 794.42C198.328 795.217 197.57 795.725 196.359 795.717C195.289 795.725 194.688 795.326 194.531 794.498H193.125C193.352 796.045 194.484 796.896 196.391 796.889C198.516 796.896 199.711 795.811 199.719 794.342C199.711 793.162 198.969 792.404 197.453 792.045L196.188 791.732C195.195 791.49 194.742 791.107 194.734 790.545C194.742 789.834 195.484 789.271 196.531 789.264C197.523 789.271 198.062 789.732 198.25 790.436Z" fill="black"/>
</g>
<defs>
<clipPath id="clip0_32_20357">
<rect width="1228" height="1050" rx="32" fill="white"/>
</clipPath>
</defs>
</svg>
