<svg width="792" height="259" viewBox="0 0 792 259" fill="none" xmlns="http://www.w3.org/2000/svg">
<rect x="37" y="132" width="110" height="86" fill="#82CAC1"/>
<rect x="292" y="132" width="110" height="86" fill="#82CAC1"/>
<path d="M63.3299 183.224C65.2979 183.224 67.1379 181.464 67.1379 178.376C67.1379 175.624 65.8099 173.832 63.6179 173.832C62.7219 173.832 61.8419 174.264 61.1219 174.888L61.2019 173.464V170.248H58.8499V183H60.6899L60.8819 182.056H60.9459C61.6659 182.808 62.5299 183.224 63.3299 183.224ZM62.8179 181.288C62.3379 181.288 61.7459 181.128 61.2019 180.632V176.68C61.7939 176.056 62.3539 175.752 62.9459 175.752C64.1939 175.752 64.7219 176.696 64.7219 178.424C64.7219 180.36 63.8899 181.288 62.8179 181.288ZM69.1468 183H71.4988V177.672C71.9948 176.376 72.8428 175.896 73.5308 175.896C73.9148 175.896 74.1548 175.96 74.4748 176.04L74.8748 174.024C74.6028 173.896 74.3148 173.832 73.8348 173.832C72.9068 173.832 71.9308 174.456 71.2908 175.64H71.2428L71.0508 174.056H69.1468V183ZM79.6096 183.224C81.8496 183.224 83.8976 181.496 83.8976 178.536C83.8976 175.56 81.8496 173.832 79.6096 173.832C77.3536 173.832 75.3056 175.56 75.3056 178.536C75.3056 181.496 77.3536 183.224 79.6096 183.224ZM79.6096 181.32C78.3776 181.32 77.7056 180.216 77.7056 178.536C77.7056 176.84 78.3776 175.752 79.6096 175.752C80.8256 175.752 81.4976 176.84 81.4976 178.536C81.4976 180.216 80.8256 181.32 79.6096 181.32ZM87.1344 183H89.8224L90.7344 179.112C90.9264 178.264 91.0704 177.448 91.2304 176.488H91.3104C91.4864 177.448 91.6304 178.264 91.8224 179.096L92.7664 183H95.5344L97.7584 174.056H95.5664L94.6064 178.472C94.4304 179.352 94.3184 180.2 94.1584 181.08H94.0784C93.8864 180.2 93.7104 179.352 93.5024 178.472L92.3824 174.056H90.3024L89.2144 178.472C88.9904 179.336 88.8304 180.2 88.6704 181.08H88.5904C88.4304 180.2 88.3184 179.352 88.1584 178.472L87.1664 174.056H84.8304L87.1344 183ZM102.035 183.224C104.355 183.224 105.587 181.976 105.587 180.392C105.587 178.744 104.291 178.136 103.107 177.688C102.147 177.352 101.331 177.096 101.331 176.456C101.331 175.928 101.699 175.576 102.515 175.576C103.171 175.576 103.811 175.896 104.435 176.344L105.507 174.936C104.771 174.36 103.747 173.832 102.451 173.832C100.403 173.832 99.1229 174.968 99.1229 176.552C99.1229 178.072 100.387 178.744 101.523 179.192C102.451 179.544 103.395 179.864 103.395 180.52C103.395 181.08 102.979 181.48 102.083 181.48C101.251 181.48 100.499 181.112 99.6829 180.488L98.6269 181.976C99.5069 182.712 100.835 183.224 102.035 183.224ZM111.301 183.224C112.405 183.224 113.525 182.856 114.405 182.248L113.621 180.792C112.965 181.192 112.325 181.416 111.605 181.416C110.277 181.416 109.317 180.664 109.109 179.192H114.645C114.693 178.968 114.741 178.552 114.741 178.104C114.741 175.624 113.477 173.832 110.997 173.832C108.885 173.832 106.837 175.624 106.837 178.536C106.837 181.496 108.789 183.224 111.301 183.224ZM109.077 177.624C109.269 176.312 110.101 175.64 111.045 175.64C112.197 175.64 112.741 176.408 112.741 177.624H109.077ZM116.694 183H119.046V177.672C119.542 176.376 120.39 175.896 121.078 175.896C121.462 175.896 121.702 175.96 122.022 176.04L122.422 174.024C122.15 173.896 121.862 173.832 121.382 173.832C120.454 173.832 119.478 174.456 118.838 175.64H118.79L118.598 174.056H116.694V183Z" fill="white"/>
<path d="M329.761 183H333.137C336.625 183 338.849 181.016 338.849 177.032C338.849 173.032 336.625 171.16 333.009 171.16H329.761V183ZM332.129 181.096V173.048H332.849C335.073 173.048 336.433 174.152 336.433 177.032C336.433 179.912 335.073 181.096 332.849 181.096H332.129ZM341.183 183H343.423V178.264C343.423 176.888 343.231 175.4 343.119 174.136H343.199L344.399 176.664L347.823 183H350.239V171.16H347.983V175.88C347.983 177.224 348.175 178.808 348.303 180.04H348.223L347.023 177.48L343.583 171.16H341.183V183ZM356.703 183.224C359.423 183.224 361.039 181.576 361.039 179.64C361.039 177.944 360.095 177.016 358.671 176.424L357.119 175.784C356.111 175.384 355.263 175.064 355.263 174.216C355.263 173.448 355.919 172.984 356.959 172.984C357.935 172.984 358.719 173.336 359.487 173.96L360.671 172.472C359.711 171.496 358.335 170.952 356.959 170.952C354.575 170.952 352.863 172.44 352.863 174.376C352.863 176.088 354.079 177.064 355.263 177.544L356.847 178.216C357.903 178.664 358.623 178.952 358.623 179.832C358.623 180.648 357.983 181.176 356.751 181.176C355.711 181.176 354.575 180.664 353.743 179.88L352.383 181.512C353.535 182.616 355.103 183.224 356.703 183.224Z" fill="white"/>
<path fill-rule="evenodd" clip-rule="evenodd" d="M523 180.444L424.009 181L424 176.556L522.991 176L523 180.444Z" fill="#5793BF"/>
<path fill-rule="evenodd" clip-rule="evenodd" d="M260 180.444L161.009 181L161 176.556L259.991 176L260 180.444Z" fill="#5793BF"/>
<path d="M1.72494 115H4.07694V108.84C4.73294 108.2 5.19694 107.848 5.93294 107.848C6.79694 107.848 7.19694 108.312 7.19694 109.72V115H9.54894V109.416C9.54894 107.176 8.70094 105.832 6.78094 105.832C5.56494 105.832 4.66894 106.472 3.96494 107.144L4.07694 105.464V102.248H1.72494V115ZM15.2233 115.224C16.0233 115.224 16.6473 115.048 17.1273 114.888L16.7433 113.176C16.4873 113.272 16.1513 113.384 15.8473 113.384C15.0633 113.384 14.6313 112.904 14.6313 111.88V107.896H16.8553V106.056H14.6313V103.624H12.6793L12.4233 106.056L11.0313 106.152V107.896H12.2793V111.88C12.2793 113.88 13.0953 115.224 15.2233 115.224ZM21.5046 115.224C22.3046 115.224 22.9286 115.048 23.4086 114.888L23.0246 113.176C22.7686 113.272 22.4326 113.384 22.1286 113.384C21.3446 113.384 20.9126 112.904 20.9126 111.88V107.896H23.1366V106.056H20.9126V103.624H18.9606L18.7046 106.056L17.3126 106.152V107.896H18.5606V111.88C18.5606 113.88 19.3766 115.224 21.5046 115.224ZM24.9749 118.44H27.3269V115.72L27.2469 114.264C27.9189 114.888 28.6869 115.224 29.4549 115.224C31.4229 115.224 33.2629 113.464 33.2629 110.392C33.2629 107.624 31.9509 105.832 29.7429 105.832C28.7829 105.832 27.8549 106.328 27.1189 106.984H27.0709L26.8789 106.056H24.9749V118.44ZM28.9429 113.288C28.4629 113.288 27.8869 113.128 27.3269 112.632V108.68C27.9349 108.056 28.4789 107.752 29.0709 107.752C30.3189 107.752 30.8469 108.696 30.8469 110.424C30.8469 112.36 30.0149 113.288 28.9429 113.288ZM36.5998 109.16C37.4318 109.16 38.0718 108.504 38.0718 107.624C38.0718 106.76 37.4318 106.104 36.5998 106.104C35.7518 106.104 35.1438 106.76 35.1438 107.624C35.1438 108.504 35.7518 109.16 36.5998 109.16ZM36.5998 115.224C37.4318 115.224 38.0718 114.568 38.0718 113.688C38.0718 112.808 37.4318 112.168 36.5998 112.168C35.7518 112.168 35.1438 112.808 35.1438 113.688C35.1438 114.568 35.7518 115.224 36.5998 115.224ZM39.4189 117.912H40.9869L44.9709 102.104H43.4189L39.4189 117.912ZM45.6064 117.912H47.1744L51.1584 102.104H49.6064L45.6064 117.912ZM62.8819 101.608V116.424H64.9139V101.608H62.8819ZM60.9459 107.32V109.016H63.4099V107.32H60.9459ZM59.5699 101.864V115.72H61.5539V101.864H59.5699ZM52.8019 103.24V111.8H54.9299V103.24H52.8019ZM52.8019 111V112.824H53.8259C55.3299 112.824 57.0259 112.744 58.9619 112.392L58.7539 110.568C56.9139 110.92 55.2499 111 53.8259 111H52.8019ZM72.4327 103.256V103.688C72.4327 105.208 70.8647 106.872 67.6007 107.272L68.3847 108.936C72.1447 108.424 74.2727 106.296 74.2727 103.688V103.256H72.4327ZM73.0407 103.256V103.688C73.0407 106.296 75.1687 108.424 78.9447 108.936L79.7127 107.272C76.4487 106.872 74.8807 105.208 74.8807 103.688V103.256H73.0407ZM72.5447 111V116.44H74.6567V111H72.5447ZM66.9607 109.784V111.48H80.3527V109.784H66.9607ZM68.1447 102.36V104.04H79.1367V102.36H68.1447ZM81.6794 112.952V114.696H95.0874V112.952H81.6794ZM87.2474 109.656V113.416H89.3594V109.656H87.2474ZM87.1674 102.424V103.496C87.1674 105.544 85.3594 107.816 81.9834 108.36L82.8634 110.136C86.7354 109.432 89.0234 106.648 89.0234 103.496V102.424H87.1674ZM87.5834 102.424V103.496C87.5834 106.696 89.8714 109.416 93.7594 110.136L94.6394 108.36C91.2474 107.816 89.4394 105.592 89.4394 103.496V102.424H87.5834ZM98.3342 115.224C99.1662 115.224 99.8062 114.568 99.8062 113.688C99.8062 112.808 99.1662 112.168 98.3342 112.168C97.4862 112.168 96.8782 112.808 96.8782 113.688C96.8782 114.568 97.4862 115.224 98.3342 115.224ZM105.704 115.224C106.696 115.224 107.8 114.888 108.648 114.152L107.72 112.6C107.224 113 106.616 113.32 105.96 113.32C104.68 113.32 103.752 112.216 103.752 110.536C103.752 108.84 104.664 107.752 106.056 107.752C106.536 107.752 106.968 107.944 107.416 108.328L108.52 106.824C107.864 106.248 107.032 105.832 105.912 105.832C103.48 105.832 101.352 107.56 101.352 110.536C101.352 113.496 103.24 115.224 105.704 115.224ZM113.531 115.224C115.771 115.224 117.819 113.496 117.819 110.536C117.819 107.56 115.771 105.832 113.531 105.832C111.275 105.832 109.227 107.56 109.227 110.536C109.227 113.496 111.275 115.224 113.531 115.224ZM113.531 113.32C112.299 113.32 111.627 112.216 111.627 110.536C111.627 108.84 112.299 107.752 113.531 107.752C114.747 107.752 115.419 108.84 115.419 110.536C115.419 112.216 114.747 113.32 113.531 113.32ZM119.803 115H122.155V108.84C122.763 108.168 123.355 107.848 123.851 107.848C124.715 107.848 125.115 108.312 125.115 109.72V115H127.467V108.84C128.107 108.168 128.667 107.848 129.179 107.848C130.043 107.848 130.427 108.312 130.427 109.72V115H132.779V109.416C132.779 107.176 131.915 105.832 130.011 105.832C128.843 105.832 127.979 106.536 127.147 107.384C126.731 106.392 125.979 105.832 124.683 105.832C123.531 105.832 122.699 106.472 121.947 107.24H121.899L121.707 106.056H119.803V115ZM134.169 117.912H135.737L139.721 102.104H138.169L134.169 117.912ZM145.892 115.224C147.86 115.224 149.7 113.464 149.7 110.376C149.7 107.624 148.372 105.832 146.18 105.832C145.284 105.832 144.404 106.264 143.684 106.888L143.764 105.464V102.248H141.412V115H143.252L143.444 114.056H143.508C144.228 114.808 145.092 115.224 145.892 115.224ZM145.38 113.288C144.9 113.288 144.308 113.128 143.764 112.632V108.68C144.356 108.056 144.916 107.752 145.508 107.752C146.756 107.752 147.284 108.696 147.284 110.424C147.284 112.36 146.452 113.288 145.38 113.288ZM155.453 115.224C157.693 115.224 159.741 113.496 159.741 110.536C159.741 107.56 157.693 105.832 155.453 105.832C153.197 105.832 151.149 107.56 151.149 110.536C151.149 113.496 153.197 115.224 155.453 115.224ZM155.453 113.32C154.221 113.32 153.549 112.216 153.549 110.536C153.549 108.84 154.221 107.752 155.453 107.752C156.669 107.752 157.341 108.84 157.341 110.536C157.341 112.216 156.669 113.32 155.453 113.32ZM163.604 115.224C164.628 115.224 165.524 114.728 166.308 114.056H166.372L166.548 115H168.468V109.784C168.468 107.176 167.3 105.832 165.028 105.832C163.604 105.832 162.34 106.36 161.284 107L162.132 108.568C162.948 108.072 163.764 107.72 164.596 107.72C165.7 107.72 166.068 108.376 166.116 109.256C162.516 109.656 160.964 110.664 160.964 112.568C160.964 114.104 162.004 115.224 163.604 115.224ZM164.372 113.384C163.684 113.384 163.204 113.08 163.204 112.392C163.204 111.576 163.924 110.984 166.116 110.712V112.52C165.54 113.08 165.044 113.384 164.372 113.384ZM170.866 115H173.218V109.672C173.714 108.376 174.562 107.896 175.25 107.896C175.634 107.896 175.874 107.96 176.194 108.04L176.594 106.024C176.322 105.896 176.034 105.832 175.554 105.832C174.626 105.832 173.65 106.456 173.01 107.64H172.962L172.77 106.056H170.866V115ZM180.736 115.224C181.664 115.224 182.56 114.728 183.216 114.072H183.264L183.44 115H185.36V102.248H183.008V105.384L183.104 106.792C182.448 106.2 181.824 105.832 180.816 105.832C178.896 105.832 177.056 107.608 177.056 110.536C177.056 113.48 178.496 115.224 180.736 115.224ZM181.328 113.288C180.16 113.288 179.472 112.376 179.472 110.504C179.472 108.712 180.336 107.752 181.344 107.752C181.904 107.752 182.48 107.944 183.008 108.44V112.376C182.496 113.032 181.968 113.288 181.328 113.288ZM190.441 115.224C192.761 115.224 193.993 113.976 193.993 112.392C193.993 110.744 192.697 110.136 191.513 109.688C190.553 109.352 189.737 109.096 189.737 108.456C189.737 107.928 190.105 107.576 190.921 107.576C191.577 107.576 192.217 107.896 192.841 108.344L193.913 106.936C193.177 106.36 192.153 105.832 190.857 105.832C188.809 105.832 187.529 106.968 187.529 108.552C187.529 110.072 188.793 110.744 189.929 111.192C190.857 111.544 191.801 111.864 191.801 112.52C191.801 113.08 191.385 113.48 190.489 113.48C189.657 113.48 188.905 113.112 188.089 112.488L187.033 113.976C187.913 114.712 189.241 115.224 190.441 115.224Z" fill="#7EABCD"/>
<path d="M249.725 18H252.077V11.84C252.733 11.2 253.197 10.848 253.933 10.848C254.797 10.848 255.197 11.312 255.197 12.72V18H257.549V12.416C257.549 10.176 256.701 8.832 254.781 8.832C253.565 8.832 252.669 9.472 251.965 10.144L252.077 8.464V5.248H249.725V18ZM263.223 18.224C264.023 18.224 264.647 18.048 265.127 17.888L264.743 16.176C264.487 16.272 264.151 16.384 263.847 16.384C263.063 16.384 262.631 15.904 262.631 14.88V10.896H264.855V9.056H262.631V6.624H260.679L260.423 9.056L259.031 9.152V10.896H260.279V14.88C260.279 16.88 261.095 18.224 263.223 18.224ZM269.505 18.224C270.305 18.224 270.929 18.048 271.409 17.888L271.025 16.176C270.769 16.272 270.433 16.384 270.129 16.384C269.345 16.384 268.913 15.904 268.913 14.88V10.896H271.137V9.056H268.913V6.624H266.961L266.705 9.056L265.313 9.152V10.896H266.561V14.88C266.561 16.88 267.377 18.224 269.505 18.224ZM272.975 21.44H275.327V18.72L275.247 17.264C275.919 17.888 276.687 18.224 277.455 18.224C279.423 18.224 281.263 16.464 281.263 13.392C281.263 10.624 279.951 8.832 277.743 8.832C276.783 8.832 275.855 9.328 275.119 9.984H275.071L274.879 9.056H272.975V21.44ZM276.943 16.288C276.463 16.288 275.887 16.128 275.327 15.632V11.68C275.935 11.056 276.479 10.752 277.071 10.752C278.319 10.752 278.847 11.696 278.847 13.424C278.847 15.36 278.015 16.288 276.943 16.288ZM284.6 12.16C285.432 12.16 286.072 11.504 286.072 10.624C286.072 9.76 285.432 9.104 284.6 9.104C283.752 9.104 283.144 9.76 283.144 10.624C283.144 11.504 283.752 12.16 284.6 12.16ZM284.6 18.224C285.432 18.224 286.072 17.568 286.072 16.688C286.072 15.808 285.432 15.168 284.6 15.168C283.752 15.168 283.144 15.808 283.144 16.688C283.144 17.568 283.752 18.224 284.6 18.224ZM287.419 20.912H288.987L292.971 5.104H291.419L287.419 20.912ZM293.606 20.912H295.174L299.158 5.104H297.606L293.606 20.912ZM310.882 4.608V19.424H312.914V4.608H310.882ZM308.946 10.32V12.016H311.41V10.32H308.946ZM307.57 4.864V18.72H309.554V4.864H307.57ZM300.802 6.24V14.8H302.93V6.24H300.802ZM300.802 14V15.824H301.826C303.33 15.824 305.026 15.744 306.962 15.392L306.754 13.568C304.914 13.92 303.25 14 301.826 14H300.802ZM320.433 6.256V6.688C320.433 8.208 318.865 9.872 315.601 10.272L316.385 11.936C320.145 11.424 322.273 9.296 322.273 6.688V6.256H320.433ZM321.041 6.256V6.688C321.041 9.296 323.169 11.424 326.945 11.936L327.713 10.272C324.449 9.872 322.881 8.208 322.881 6.688V6.256H321.041ZM320.545 14V19.44H322.657V14H320.545ZM314.961 12.784V14.48H328.353V12.784H314.961ZM316.145 5.36V7.04H327.137V5.36H316.145ZM329.679 15.952V17.696H343.087V15.952H329.679ZM335.247 12.656V16.416H337.359V12.656H335.247ZM335.167 5.424V6.496C335.167 8.544 333.359 10.816 329.983 11.36L330.863 13.136C334.735 12.432 337.023 9.648 337.023 6.496V5.424H335.167ZM335.583 5.424V6.496C335.583 9.696 337.871 12.416 341.759 13.136L342.639 11.36C339.247 10.816 337.439 8.592 337.439 6.496V5.424H335.583ZM346.334 18.224C347.166 18.224 347.806 17.568 347.806 16.688C347.806 15.808 347.166 15.168 346.334 15.168C345.486 15.168 344.878 15.808 344.878 16.688C344.878 17.568 345.486 18.224 346.334 18.224ZM353.704 18.224C354.696 18.224 355.8 17.888 356.648 17.152L355.72 15.6C355.224 16 354.616 16.32 353.96 16.32C352.68 16.32 351.752 15.216 351.752 13.536C351.752 11.84 352.664 10.752 354.056 10.752C354.536 10.752 354.968 10.944 355.416 11.328L356.52 9.824C355.864 9.248 355.032 8.832 353.912 8.832C351.48 8.832 349.352 10.56 349.352 13.536C349.352 16.496 351.24 18.224 353.704 18.224ZM361.531 18.224C363.771 18.224 365.819 16.496 365.819 13.536C365.819 10.56 363.771 8.832 361.531 8.832C359.275 8.832 357.227 10.56 357.227 13.536C357.227 16.496 359.275 18.224 361.531 18.224ZM361.531 16.32C360.299 16.32 359.627 15.216 359.627 13.536C359.627 11.84 360.299 10.752 361.531 10.752C362.747 10.752 363.419 11.84 363.419 13.536C363.419 15.216 362.747 16.32 361.531 16.32ZM367.803 18H370.155V11.84C370.763 11.168 371.355 10.848 371.851 10.848C372.715 10.848 373.115 11.312 373.115 12.72V18H375.467V11.84C376.107 11.168 376.667 10.848 377.179 10.848C378.043 10.848 378.427 11.312 378.427 12.72V18H380.779V12.416C380.779 10.176 379.915 8.832 378.011 8.832C376.843 8.832 375.979 9.536 375.147 10.384C374.731 9.392 373.979 8.832 372.683 8.832C371.531 8.832 370.699 9.472 369.947 10.24H369.899L369.707 9.056H367.803V18ZM382.169 20.912H383.737L387.721 5.104H386.169L382.169 20.912ZM393.892 18.224C395.86 18.224 397.7 16.464 397.7 13.376C397.7 10.624 396.372 8.832 394.18 8.832C393.284 8.832 392.404 9.264 391.684 9.888L391.764 8.464V5.248H389.412V18H391.252L391.444 17.056H391.508C392.228 17.808 393.092 18.224 393.892 18.224ZM393.38 16.288C392.9 16.288 392.308 16.128 391.764 15.632V11.68C392.356 11.056 392.916 10.752 393.508 10.752C394.756 10.752 395.284 11.696 395.284 13.424C395.284 15.36 394.452 16.288 393.38 16.288ZM403.453 18.224C405.693 18.224 407.741 16.496 407.741 13.536C407.741 10.56 405.693 8.832 403.453 8.832C401.197 8.832 399.149 10.56 399.149 13.536C399.149 16.496 401.197 18.224 403.453 18.224ZM403.453 16.32C402.221 16.32 401.549 15.216 401.549 13.536C401.549 11.84 402.221 10.752 403.453 10.752C404.669 10.752 405.341 11.84 405.341 13.536C405.341 15.216 404.669 16.32 403.453 16.32ZM411.604 18.224C412.628 18.224 413.524 17.728 414.308 17.056H414.372L414.548 18H416.468V12.784C416.468 10.176 415.3 8.832 413.028 8.832C411.604 8.832 410.34 9.36 409.284 10L410.132 11.568C410.948 11.072 411.764 10.72 412.596 10.72C413.7 10.72 414.068 11.376 414.116 12.256C410.516 12.656 408.964 13.664 408.964 15.568C408.964 17.104 410.004 18.224 411.604 18.224ZM412.372 16.384C411.684 16.384 411.204 16.08 411.204 15.392C411.204 14.576 411.924 13.984 414.116 13.712V15.52C413.54 16.08 413.044 16.384 412.372 16.384ZM418.866 18H421.218V12.672C421.714 11.376 422.562 10.896 423.25 10.896C423.634 10.896 423.874 10.96 424.194 11.04L424.594 9.024C424.322 8.896 424.034 8.832 423.554 8.832C422.626 8.832 421.65 9.456 421.01 10.64H420.962L420.77 9.056H418.866V18ZM428.736 18.224C429.664 18.224 430.56 17.728 431.216 17.072H431.264L431.44 18H433.36V5.248H431.008V8.384L431.104 9.792C430.448 9.2 429.824 8.832 428.816 8.832C426.896 8.832 425.056 10.608 425.056 13.536C425.056 16.48 426.496 18.224 428.736 18.224ZM429.328 16.288C428.16 16.288 427.472 15.376 427.472 13.504C427.472 11.712 428.336 10.752 429.344 10.752C429.904 10.752 430.48 10.944 431.008 11.44V15.376C430.496 16.032 429.968 16.288 429.328 16.288ZM438.441 18.224C440.761 18.224 441.993 16.976 441.993 15.392C441.993 13.744 440.697 13.136 439.513 12.688C438.553 12.352 437.737 12.096 437.737 11.456C437.737 10.928 438.105 10.576 438.921 10.576C439.577 10.576 440.217 10.896 440.841 11.344L441.913 9.936C441.177 9.36 440.153 8.832 438.857 8.832C436.809 8.832 435.529 9.968 435.529 11.552C435.529 13.072 436.793 13.744 437.929 14.192C438.857 14.544 439.801 14.864 439.801 15.52C439.801 16.08 439.385 16.48 438.489 16.48C437.657 16.48 436.905 16.112 436.089 15.488L435.033 16.976C435.913 17.712 437.241 18.224 438.441 18.224Z" fill="#7EABCD"/>
<path d="M259.514 92H261.866V85.84C262.522 85.2 262.986 84.848 263.722 84.848C264.586 84.848 264.986 85.312 264.986 86.72V92H267.338V86.416C267.338 84.176 266.49 82.832 264.57 82.832C263.354 82.832 262.458 83.472 261.754 84.144L261.866 82.464V79.248H259.514V92ZM273.012 92.224C273.812 92.224 274.436 92.048 274.916 91.888L274.532 90.176C274.276 90.272 273.94 90.384 273.636 90.384C272.852 90.384 272.42 89.904 272.42 88.88V84.896H274.644V83.056H272.42V80.624H270.468L270.212 83.056L268.82 83.152V84.896H270.068V88.88C270.068 90.88 270.884 92.224 273.012 92.224ZM279.294 92.224C280.094 92.224 280.718 92.048 281.198 91.888L280.814 90.176C280.558 90.272 280.222 90.384 279.918 90.384C279.134 90.384 278.702 89.904 278.702 88.88V84.896H280.926V83.056H278.702V80.624H276.75L276.494 83.056L275.102 83.152V84.896H276.35V88.88C276.35 90.88 277.166 92.224 279.294 92.224ZM282.764 95.44H285.116V92.72L285.036 91.264C285.708 91.888 286.476 92.224 287.244 92.224C289.212 92.224 291.052 90.464 291.052 87.392C291.052 84.624 289.74 82.832 287.532 82.832C286.572 82.832 285.644 83.328 284.908 83.984H284.86L284.668 83.056H282.764V95.44ZM286.732 90.288C286.252 90.288 285.676 90.128 285.116 89.632V85.68C285.724 85.056 286.268 84.752 286.86 84.752C288.108 84.752 288.636 85.696 288.636 87.424C288.636 89.36 287.804 90.288 286.732 90.288ZM294.389 86.16C295.221 86.16 295.861 85.504 295.861 84.624C295.861 83.76 295.221 83.104 294.389 83.104C293.541 83.104 292.933 83.76 292.933 84.624C292.933 85.504 293.541 86.16 294.389 86.16ZM294.389 92.224C295.221 92.224 295.861 91.568 295.861 90.688C295.861 89.808 295.221 89.168 294.389 89.168C293.541 89.168 292.933 89.808 292.933 90.688C292.933 91.568 293.541 92.224 294.389 92.224ZM297.208 94.912H298.776L302.76 79.104H301.208L297.208 94.912ZM303.396 94.912H304.964L308.948 79.104H307.396L303.396 94.912ZM310.671 92H317.807V90.096H315.583V80.464H313.839C313.071 80.928 312.271 81.232 311.071 81.472V82.928H313.231V90.096H310.671V92ZM323.533 92.224C325.949 92.224 327.533 90.112 327.533 86.192C327.533 82.288 325.949 80.256 323.533 80.256C321.085 80.256 319.517 82.272 319.517 86.192C319.517 90.112 321.085 92.224 323.533 92.224ZM323.533 90.384C322.509 90.384 321.741 89.408 321.741 86.192C321.741 82.976 322.509 82.08 323.533 82.08C324.557 82.08 325.309 82.976 325.309 86.192C325.309 89.408 324.557 90.384 323.533 90.384ZM330.842 92.224C331.674 92.224 332.314 91.568 332.314 90.688C332.314 89.808 331.674 89.168 330.842 89.168C329.994 89.168 329.386 89.808 329.386 90.688C329.386 91.568 329.994 92.224 330.842 92.224ZM338.173 92.224C340.589 92.224 342.173 90.112 342.173 86.192C342.173 82.288 340.589 80.256 338.173 80.256C335.725 80.256 334.157 82.272 334.157 86.192C334.157 90.112 335.725 92.224 338.173 92.224ZM338.173 90.384C337.149 90.384 336.381 89.408 336.381 86.192C336.381 82.976 337.149 82.08 338.173 82.08C339.197 82.08 339.949 82.976 339.949 86.192C339.949 89.408 339.197 90.384 338.173 90.384ZM345.483 92.224C346.315 92.224 346.955 91.568 346.955 90.688C346.955 89.808 346.315 89.168 345.483 89.168C344.635 89.168 344.027 89.808 344.027 90.688C344.027 91.568 344.635 92.224 345.483 92.224ZM348.766 92H356.702V90.016H354.11C353.55 90.016 352.766 90.096 352.174 90.16C354.286 87.952 356.158 85.856 356.158 83.856C356.158 81.664 354.654 80.256 352.43 80.256C350.814 80.256 349.742 80.88 348.654 82.048L349.95 83.328C350.558 82.688 351.246 82.096 352.126 82.096C353.262 82.096 353.886 82.8 353.886 83.968C353.886 85.696 351.854 87.696 348.766 90.656V92ZM360.123 92.224C360.955 92.224 361.595 91.568 361.595 90.688C361.595 89.808 360.955 89.168 360.123 89.168C359.275 89.168 358.667 89.808 358.667 90.688C358.667 91.568 359.275 92.224 360.123 92.224ZM367.102 92.224C369.374 92.224 371.278 91.008 371.278 88.88C371.278 87.376 370.254 86.4 368.91 86.032V85.968C370.158 85.456 370.878 84.592 370.878 83.344C370.878 81.376 369.326 80.256 367.038 80.256C365.662 80.256 364.526 80.832 363.502 81.712L364.702 83.168C365.406 82.512 366.094 82.096 366.942 82.096C367.95 82.096 368.526 82.624 368.526 83.52C368.526 84.512 367.822 85.232 365.646 85.232V86.928C368.222 86.928 368.91 87.632 368.91 88.736C368.91 89.744 368.094 90.32 366.878 90.32C365.806 90.32 364.958 89.776 364.254 89.088L363.134 90.576C363.966 91.536 365.23 92.224 367.102 92.224ZM372.38 94.912H373.948L377.932 79.104H376.38L372.38 94.912ZM384.103 92.224C386.071 92.224 387.911 90.464 387.911 87.376C387.911 84.624 386.583 82.832 384.391 82.832C383.495 82.832 382.615 83.264 381.895 83.888L381.975 82.464V79.248H379.623V92H381.463L381.655 91.056H381.719C382.439 91.808 383.303 92.224 384.103 92.224ZM383.591 90.288C383.111 90.288 382.519 90.128 381.975 89.632V85.68C382.567 85.056 383.127 84.752 383.719 84.752C384.967 84.752 385.495 85.696 385.495 87.424C385.495 89.36 384.663 90.288 383.591 90.288ZM393.664 92.224C395.904 92.224 397.952 90.496 397.952 87.536C397.952 84.56 395.904 82.832 393.664 82.832C391.408 82.832 389.36 84.56 389.36 87.536C389.36 90.496 391.408 92.224 393.664 92.224ZM393.664 90.32C392.432 90.32 391.76 89.216 391.76 87.536C391.76 85.84 392.432 84.752 393.664 84.752C394.88 84.752 395.552 85.84 395.552 87.536C395.552 89.216 394.88 90.32 393.664 90.32ZM401.815 92.224C402.839 92.224 403.735 91.728 404.519 91.056H404.583L404.759 92H406.679V86.784C406.679 84.176 405.511 82.832 403.239 82.832C401.815 82.832 400.551 83.36 399.495 84L400.343 85.568C401.159 85.072 401.975 84.72 402.807 84.72C403.911 84.72 404.279 85.376 404.327 86.256C400.727 86.656 399.175 87.664 399.175 89.568C399.175 91.104 400.215 92.224 401.815 92.224ZM402.583 90.384C401.895 90.384 401.415 90.08 401.415 89.392C401.415 88.576 402.135 87.984 404.327 87.712V89.52C403.751 90.08 403.255 90.384 402.583 90.384ZM409.077 92H411.429V86.672C411.924 85.376 412.773 84.896 413.461 84.896C413.845 84.896 414.085 84.96 414.405 85.04L414.805 83.024C414.533 82.896 414.245 82.832 413.765 82.832C412.837 82.832 411.861 83.456 411.221 84.64H411.173L410.981 83.056H409.077V92ZM418.947 92.224C419.875 92.224 420.771 91.728 421.427 91.072H421.475L421.651 92H423.571V79.248H421.219V82.384L421.315 83.792C420.659 83.2 420.035 82.832 419.027 82.832C417.107 82.832 415.267 84.608 415.267 87.536C415.267 90.48 416.707 92.224 418.947 92.224ZM419.539 90.288C418.371 90.288 417.683 89.376 417.683 87.504C417.683 85.712 418.547 84.752 419.555 84.752C420.115 84.752 420.691 84.944 421.219 85.44V89.376C420.707 90.032 420.179 90.288 419.539 90.288ZM428.652 92.224C430.972 92.224 432.204 90.976 432.204 89.392C432.204 87.744 430.908 87.136 429.724 86.688C428.764 86.352 427.948 86.096 427.948 85.456C427.948 84.928 428.316 84.576 429.132 84.576C429.788 84.576 430.428 84.896 431.052 85.344L432.124 83.936C431.388 83.36 430.364 82.832 429.068 82.832C427.02 82.832 425.74 83.968 425.74 85.552C425.74 87.072 427.004 87.744 428.14 88.192C429.068 88.544 430.012 88.864 430.012 89.52C430.012 90.08 429.596 90.48 428.7 90.48C427.868 90.48 427.116 90.112 426.3 89.488L425.244 90.976C426.124 91.712 427.452 92.224 428.652 92.224Z" fill="#7EABCD"/>
<path d="M565.514 81H567.866V74.84C568.522 74.2 568.986 73.848 569.722 73.848C570.586 73.848 570.986 74.312 570.986 75.72V81H573.338V75.416C573.338 73.176 572.49 71.832 570.57 71.832C569.354 71.832 568.458 72.472 567.754 73.144L567.866 71.464V68.248H565.514V81ZM579.012 81.224C579.812 81.224 580.436 81.048 580.916 80.888L580.532 79.176C580.276 79.272 579.94 79.384 579.636 79.384C578.852 79.384 578.42 78.904 578.42 77.88V73.896H580.644V72.056H578.42V69.624H576.468L576.212 72.056L574.82 72.152V73.896H576.068V77.88C576.068 79.88 576.884 81.224 579.012 81.224ZM585.294 81.224C586.094 81.224 586.718 81.048 587.198 80.888L586.814 79.176C586.558 79.272 586.222 79.384 585.918 79.384C585.134 79.384 584.702 78.904 584.702 77.88V73.896H586.926V72.056H584.702V69.624H582.75L582.494 72.056L581.102 72.152V73.896H582.35V77.88C582.35 79.88 583.166 81.224 585.294 81.224ZM588.764 84.44H591.116V81.72L591.036 80.264C591.708 80.888 592.476 81.224 593.244 81.224C595.212 81.224 597.052 79.464 597.052 76.392C597.052 73.624 595.74 71.832 593.532 71.832C592.572 71.832 591.644 72.328 590.908 72.984H590.86L590.668 72.056H588.764V84.44ZM592.732 79.288C592.252 79.288 591.676 79.128 591.116 78.632V74.68C591.724 74.056 592.268 73.752 592.86 73.752C594.108 73.752 594.636 74.696 594.636 76.424C594.636 78.36 593.804 79.288 592.732 79.288ZM600.389 75.16C601.221 75.16 601.861 74.504 601.861 73.624C601.861 72.76 601.221 72.104 600.389 72.104C599.541 72.104 598.933 72.76 598.933 73.624C598.933 74.504 599.541 75.16 600.389 75.16ZM600.389 81.224C601.221 81.224 601.861 80.568 601.861 79.688C601.861 78.808 601.221 78.168 600.389 78.168C599.541 78.168 598.933 78.808 598.933 79.688C598.933 80.568 599.541 81.224 600.389 81.224ZM603.208 83.912H604.776L608.76 68.104H607.208L603.208 83.912ZM609.396 83.912H610.964L614.948 68.104H613.396L609.396 83.912ZM616.671 81H623.807V79.096H621.583V69.464H619.839C619.071 69.928 618.271 70.232 617.071 70.472V71.928H619.231V79.096H616.671V81ZM629.533 81.224C631.949 81.224 633.533 79.112 633.533 75.192C633.533 71.288 631.949 69.256 629.533 69.256C627.085 69.256 625.517 71.272 625.517 75.192C625.517 79.112 627.085 81.224 629.533 81.224ZM629.533 79.384C628.509 79.384 627.741 78.408 627.741 75.192C627.741 71.976 628.509 71.08 629.533 71.08C630.557 71.08 631.309 71.976 631.309 75.192C631.309 78.408 630.557 79.384 629.533 79.384ZM636.842 81.224C637.674 81.224 638.314 80.568 638.314 79.688C638.314 78.808 637.674 78.168 636.842 78.168C635.994 78.168 635.386 78.808 635.386 79.688C635.386 80.568 635.994 81.224 636.842 81.224ZM644.173 81.224C646.589 81.224 648.173 79.112 648.173 75.192C648.173 71.288 646.589 69.256 644.173 69.256C641.725 69.256 640.157 71.272 640.157 75.192C640.157 79.112 641.725 81.224 644.173 81.224ZM644.173 79.384C643.149 79.384 642.381 78.408 642.381 75.192C642.381 71.976 643.149 71.08 644.173 71.08C645.197 71.08 645.949 71.976 645.949 75.192C645.949 78.408 645.197 79.384 644.173 79.384ZM651.483 81.224C652.315 81.224 652.955 80.568 652.955 79.688C652.955 78.808 652.315 78.168 651.483 78.168C650.635 78.168 650.027 78.808 650.027 79.688C650.027 80.568 650.635 81.224 651.483 81.224ZM654.766 81H662.702V79.016H660.11C659.55 79.016 658.766 79.096 658.174 79.16C660.286 76.952 662.158 74.856 662.158 72.856C662.158 70.664 660.654 69.256 658.43 69.256C656.814 69.256 655.742 69.88 654.654 71.048L655.95 72.328C656.558 71.688 657.246 71.096 658.126 71.096C659.262 71.096 659.886 71.8 659.886 72.968C659.886 74.696 657.854 76.696 654.766 79.656V81ZM666.123 81.224C666.955 81.224 667.595 80.568 667.595 79.688C667.595 78.808 666.955 78.168 666.123 78.168C665.275 78.168 664.667 78.808 664.667 79.688C664.667 80.568 665.275 81.224 666.123 81.224ZM673.102 81.224C675.374 81.224 677.278 80.008 677.278 77.88C677.278 76.376 676.254 75.4 674.91 75.032V74.968C676.158 74.456 676.878 73.592 676.878 72.344C676.878 70.376 675.326 69.256 673.038 69.256C671.662 69.256 670.526 69.832 669.502 70.712L670.702 72.168C671.406 71.512 672.094 71.096 672.942 71.096C673.95 71.096 674.526 71.624 674.526 72.52C674.526 73.512 673.822 74.232 671.646 74.232V75.928C674.222 75.928 674.91 76.632 674.91 77.736C674.91 78.744 674.094 79.32 672.878 79.32C671.806 79.32 670.958 78.776 670.254 78.088L669.134 79.576C669.966 80.536 671.23 81.224 673.102 81.224ZM678.38 83.912H679.948L683.932 68.104H682.38L678.38 83.912ZM690.103 81.224C692.071 81.224 693.911 79.464 693.911 76.376C693.911 73.624 692.583 71.832 690.391 71.832C689.495 71.832 688.615 72.264 687.895 72.888L687.975 71.464V68.248H685.623V81H687.463L687.655 80.056H687.719C688.439 80.808 689.303 81.224 690.103 81.224ZM689.591 79.288C689.111 79.288 688.519 79.128 687.975 78.632V74.68C688.567 74.056 689.127 73.752 689.719 73.752C690.967 73.752 691.495 74.696 691.495 76.424C691.495 78.36 690.663 79.288 689.591 79.288ZM699.664 81.224C701.904 81.224 703.952 79.496 703.952 76.536C703.952 73.56 701.904 71.832 699.664 71.832C697.408 71.832 695.36 73.56 695.36 76.536C695.36 79.496 697.408 81.224 699.664 81.224ZM699.664 79.32C698.432 79.32 697.76 78.216 697.76 76.536C697.76 74.84 698.432 73.752 699.664 73.752C700.88 73.752 701.552 74.84 701.552 76.536C701.552 78.216 700.88 79.32 699.664 79.32ZM707.815 81.224C708.839 81.224 709.735 80.728 710.519 80.056H710.583L710.759 81H712.679V75.784C712.679 73.176 711.511 71.832 709.239 71.832C707.815 71.832 706.551 72.36 705.495 73L706.343 74.568C707.159 74.072 707.975 73.72 708.807 73.72C709.911 73.72 710.279 74.376 710.327 75.256C706.727 75.656 705.175 76.664 705.175 78.568C705.175 80.104 706.215 81.224 707.815 81.224ZM708.583 79.384C707.895 79.384 707.415 79.08 707.415 78.392C707.415 77.576 708.135 76.984 710.327 76.712V78.52C709.751 79.08 709.255 79.384 708.583 79.384ZM715.077 81H717.429V75.672C717.924 74.376 718.773 73.896 719.461 73.896C719.845 73.896 720.085 73.96 720.405 74.04L720.805 72.024C720.533 71.896 720.245 71.832 719.765 71.832C718.837 71.832 717.861 72.456 717.221 73.64H717.173L716.981 72.056H715.077V81ZM724.947 81.224C725.875 81.224 726.771 80.728 727.427 80.072H727.475L727.651 81H729.571V68.248H727.219V71.384L727.315 72.792C726.659 72.2 726.035 71.832 725.027 71.832C723.107 71.832 721.267 73.608 721.267 76.536C721.267 79.48 722.707 81.224 724.947 81.224ZM725.539 79.288C724.371 79.288 723.683 78.376 723.683 76.504C723.683 74.712 724.547 73.752 725.555 73.752C726.115 73.752 726.691 73.944 727.219 74.44V78.376C726.707 79.032 726.179 79.288 725.539 79.288ZM734.652 81.224C736.972 81.224 738.204 79.976 738.204 78.392C738.204 76.744 736.908 76.136 735.724 75.688C734.764 75.352 733.948 75.096 733.948 74.456C733.948 73.928 734.316 73.576 735.132 73.576C735.788 73.576 736.428 73.896 737.052 74.344L738.124 72.936C737.388 72.36 736.364 71.832 735.068 71.832C733.02 71.832 731.74 72.968 731.74 74.552C731.74 76.072 733.004 76.744 734.14 77.192C735.068 77.544 736.012 77.864 736.012 78.52C736.012 79.08 735.596 79.48 734.7 79.48C733.868 79.48 733.116 79.112 732.3 78.488L731.244 79.976C732.124 80.712 733.452 81.224 734.652 81.224Z" fill="#7EABCD"/>
<path d="M343.939 61.0607C344.525 61.6464 345.475 61.6464 346.061 61.0607L355.607 51.5147C356.192 50.9289 356.192 49.9792 355.607 49.3934C355.021 48.8076 354.071 48.8076 353.485 49.3934L345 57.8787L336.515 49.3934C335.929 48.8076 334.979 48.8076 334.393 49.3934C333.808 49.9792 333.808 50.9289 334.393 51.5147L343.939 61.0607ZM343.5 38V60H346.5V38H343.5Z" fill="#5793BF"/>
<rect x="545" y="102" width="110" height="157" fill="#82CAC1"/>
<rect x="682" y="102" width="110" height="157" fill="#82CAC1"/>
<path d="M565.917 152H568.285V147.2H572.493V145.232H568.285V142.128H573.213V140.16H565.917V152ZM574.631 152H576.983V146.672C577.479 145.376 578.327 144.896 579.015 144.896C579.399 144.896 579.639 144.96 579.959 145.04L580.359 143.024C580.087 142.896 579.799 142.832 579.319 142.832C578.391 142.832 577.415 143.456 576.775 144.64H576.727L576.535 143.056H574.631V152ZM585.094 152.224C587.334 152.224 589.382 150.496 589.382 147.536C589.382 144.56 587.334 142.832 585.094 142.832C582.838 142.832 580.79 144.56 580.79 147.536C580.79 150.496 582.838 152.224 585.094 152.224ZM585.094 150.32C583.862 150.32 583.19 149.216 583.19 147.536C583.19 145.84 583.862 144.752 585.094 144.752C586.31 144.752 586.982 145.84 586.982 147.536C586.982 149.216 586.31 150.32 585.094 150.32ZM591.366 152H593.718V145.84C594.374 145.2 594.838 144.848 595.574 144.848C596.438 144.848 596.838 145.312 596.838 146.72V152H599.19V146.416C599.19 144.176 598.342 142.832 596.422 142.832C595.206 142.832 594.278 143.472 593.51 144.24H593.462L593.27 143.056H591.366V152ZM604.88 152.224C605.68 152.224 606.304 152.048 606.784 151.888L606.4 150.176C606.144 150.272 605.808 150.384 605.504 150.384C604.72 150.384 604.288 149.904 604.288 148.88V144.896H606.512V143.056H604.288V140.624H602.336L602.08 143.056L600.688 143.152V144.896H601.936V148.88C601.936 150.88 602.752 152.224 604.88 152.224ZM611.863 152.224C612.967 152.224 614.087 151.856 614.967 151.248L614.183 149.792C613.527 150.192 612.887 150.416 612.167 150.416C610.839 150.416 609.879 149.664 609.671 148.192H615.207C615.255 147.968 615.303 147.552 615.303 147.104C615.303 144.624 614.039 142.832 611.559 142.832C609.447 142.832 607.399 144.624 607.399 147.536C607.399 150.496 609.351 152.224 611.863 152.224ZM609.639 146.624C609.831 145.312 610.663 144.64 611.607 144.64C612.759 144.64 613.303 145.408 613.303 146.624H609.639ZM617.256 152H619.608V145.84C620.264 145.2 620.728 144.848 621.464 144.848C622.328 144.848 622.728 145.312 622.728 146.72V152H625.08V146.416C625.08 144.176 624.232 142.832 622.312 142.832C621.096 142.832 620.168 143.472 619.4 144.24H619.352L619.16 143.056H617.256V152ZM630.658 152.224C631.586 152.224 632.482 151.728 633.138 151.072H633.186L633.362 152H635.282V139.248H632.93V142.384L633.026 143.792C632.37 143.2 631.746 142.832 630.738 142.832C628.818 142.832 626.978 144.608 626.978 147.536C626.978 150.48 628.418 152.224 630.658 152.224ZM631.25 150.288C630.082 150.288 629.394 149.376 629.394 147.504C629.394 145.712 630.258 144.752 631.266 144.752C631.826 144.752 632.402 144.944 632.93 145.44V149.376C632.418 150.032 631.89 150.288 631.25 150.288Z" fill="white"/>
<rect x="562" y="168" width="75" height="61" fill="white"/>
<rect x="699" y="168" width="75" height="74" fill="white"/>
<path d="M568.055 220.15C569.819 220.15 570.659 219.086 571.345 217.252L574.131 209.174H572.157L571.065 212.8C570.883 213.542 570.687 214.284 570.519 215.026H570.449C570.211 214.27 570.015 213.514 569.777 212.8L568.545 209.174H566.459L569.511 216.86L569.385 217.322C569.147 218.022 568.699 218.526 567.915 218.526C567.719 218.526 567.509 218.456 567.369 218.414L566.991 219.996C567.285 220.094 567.607 220.15 568.055 220.15ZM576.944 217.196C577.84 217.196 578.624 216.762 579.31 216.174H579.366L579.52 217H581.2V212.436C581.2 210.154 580.178 208.978 578.19 208.978C576.944 208.978 575.838 209.44 574.914 210L575.656 211.372C576.37 210.938 577.084 210.63 577.812 210.63C578.778 210.63 579.1 211.204 579.142 211.974C575.992 212.324 574.634 213.206 574.634 214.872C574.634 216.216 575.544 217.196 576.944 217.196ZM577.616 215.586C577.014 215.586 576.594 215.32 576.594 214.718C576.594 214.004 577.224 213.486 579.142 213.248V214.83C578.638 215.32 578.204 215.586 577.616 215.586ZM583.297 217H585.355V212.338C585.789 211.204 586.531 210.784 587.133 210.784C587.469 210.784 587.679 210.84 587.959 210.91L588.309 209.146C588.071 209.034 587.819 208.978 587.399 208.978C586.587 208.978 585.733 209.524 585.173 210.56H585.131L584.963 209.174H583.297V217ZM589.409 217H591.467V211.61C592.041 211.05 592.447 210.742 593.091 210.742C593.847 210.742 594.197 211.148 594.197 212.38V217H596.255V212.114C596.255 210.154 595.513 208.978 593.833 208.978C592.769 208.978 591.957 209.538 591.285 210.21H591.243L591.075 209.174H589.409V217ZM603.789 217.196C605.819 217.196 606.897 216.104 606.897 214.718C606.897 213.276 605.763 212.744 604.727 212.352C603.887 212.058 603.173 211.834 603.173 211.274C603.173 210.812 603.495 210.504 604.209 210.504C604.783 210.504 605.343 210.784 605.889 211.176L606.827 209.944C606.183 209.44 605.287 208.978 604.153 208.978C602.361 208.978 601.241 209.972 601.241 211.358C601.241 212.688 602.347 213.276 603.341 213.668C604.153 213.976 604.979 214.256 604.979 214.83C604.979 215.32 604.615 215.67 603.831 215.67C603.103 215.67 602.445 215.348 601.731 214.802L600.807 216.104C601.577 216.748 602.739 217.196 603.789 217.196ZM610.941 217.196C611.641 217.196 612.187 217.042 612.607 216.902L612.271 215.404C612.047 215.488 611.753 215.586 611.487 215.586C610.801 215.586 610.423 215.166 610.423 214.27V210.784H612.369V209.174H610.423V207.046H608.715L608.491 209.174L607.273 209.258V210.784H608.365V214.27C608.365 216.02 609.079 217.196 610.941 217.196ZM615.471 217.196C616.367 217.196 617.151 216.762 617.837 216.174H617.893L618.047 217H619.727V212.436C619.727 210.154 618.705 208.978 616.717 208.978C615.471 208.978 614.365 209.44 613.441 210L614.183 211.372C614.897 210.938 615.611 210.63 616.339 210.63C617.305 210.63 617.627 211.204 617.669 211.974C614.519 212.324 613.161 213.206 613.161 214.872C613.161 216.216 614.071 217.196 615.471 217.196ZM616.143 215.586C615.541 215.586 615.121 215.32 615.121 214.718C615.121 214.004 615.751 213.486 617.669 213.248V214.83C617.165 215.32 616.731 215.586 616.143 215.586ZM621.825 217H623.883V212.338C624.317 211.204 625.059 210.784 625.661 210.784C625.997 210.784 626.207 210.84 626.487 210.91L626.837 209.146C626.599 209.034 626.347 208.978 625.927 208.978C625.115 208.978 624.261 209.524 623.701 210.56H623.659L623.491 209.174H621.825V217ZM630.792 217.196C631.492 217.196 632.038 217.042 632.458 216.902L632.122 215.404C631.898 215.488 631.604 215.586 631.338 215.586C630.652 215.586 630.274 215.166 630.274 214.27V210.784H632.22V209.174H630.274V207.046H628.566L628.342 209.174L627.124 209.258V210.784H628.216V214.27C628.216 216.02 628.93 217.196 630.792 217.196Z" fill="#5793BF"/>
<path d="M565.894 192.15C567.658 192.15 568.498 191.086 569.184 189.252L571.97 181.174H569.996L568.904 184.8C568.722 185.542 568.526 186.284 568.358 187.026H568.288C568.05 186.27 567.854 185.514 567.616 184.8L566.384 181.174H564.298L567.35 188.86L567.224 189.322C566.986 190.022 566.538 190.526 565.754 190.526C565.558 190.526 565.348 190.456 565.208 190.414L564.83 191.996C565.124 192.094 565.446 192.15 565.894 192.15ZM574.783 189.196C575.679 189.196 576.463 188.762 577.149 188.174H577.205L577.359 189H579.039V184.436C579.039 182.154 578.017 180.978 576.029 180.978C574.783 180.978 573.677 181.44 572.753 182L573.495 183.372C574.209 182.938 574.923 182.63 575.651 182.63C576.617 182.63 576.939 183.204 576.981 183.974C573.831 184.324 572.473 185.206 572.473 186.872C572.473 188.216 573.383 189.196 574.783 189.196ZM575.455 187.586C574.853 187.586 574.433 187.32 574.433 186.718C574.433 186.004 575.063 185.486 576.981 185.248V186.83C576.477 187.32 576.043 187.586 575.455 187.586ZM581.136 189H583.194V184.338C583.628 183.204 584.37 182.784 584.972 182.784C585.308 182.784 585.518 182.84 585.798 182.91L586.148 181.146C585.91 181.034 585.658 180.978 585.238 180.978C584.426 180.978 583.572 181.524 583.012 182.56H582.97L582.802 181.174H581.136V189ZM587.248 189H589.306V183.61C589.88 183.05 590.286 182.742 590.93 182.742C591.686 182.742 592.036 183.148 592.036 184.38V189H594.094V184.114C594.094 182.154 593.352 180.978 591.672 180.978C590.608 180.978 589.796 181.538 589.124 182.21H589.082L588.914 181.174H587.248V189ZM603.308 189.196C605.03 189.196 606.64 187.656 606.64 184.954C606.64 182.546 605.478 180.978 603.56 180.978C602.776 180.978 602.006 181.356 601.376 181.902L601.446 180.656V177.842H599.388V189H600.998L601.166 188.174H601.222C601.852 188.832 602.608 189.196 603.308 189.196ZM602.86 187.502C602.44 187.502 601.922 187.362 601.446 186.928V183.47C601.964 182.924 602.454 182.658 602.972 182.658C604.064 182.658 604.526 183.484 604.526 184.996C604.526 186.69 603.798 187.502 602.86 187.502ZM610.736 189.196C611.8 189.196 612.542 188.678 613.228 187.88H613.27L613.424 189H615.104V181.174H613.06V186.452C612.528 187.152 612.108 187.432 611.464 187.432C610.694 187.432 610.358 187.012 610.358 185.808V181.174H608.3V186.06C608.3 188.034 609.042 189.196 610.736 189.196ZM617.312 189H619.37V181.174H617.312V189ZM618.334 179.9C619.048 179.9 619.538 179.452 619.538 178.766C619.538 178.094 619.048 177.66 618.334 177.66C617.62 177.66 617.144 178.094 617.144 178.766C617.144 179.452 617.62 179.9 618.334 179.9ZM623.496 189.196C623.986 189.196 624.308 189.112 624.546 189.028L624.294 187.502C624.154 187.53 624.098 187.53 624.028 187.53C623.832 187.53 623.622 187.376 623.622 186.886V177.842H621.564V186.802C621.564 188.258 622.054 189.196 623.496 189.196ZM628.738 189.196C629.55 189.196 630.334 188.762 630.908 188.188H630.95L631.104 189H632.784V177.842H630.726V180.586L630.81 181.818C630.236 181.3 629.69 180.978 628.808 180.978C627.128 180.978 625.518 182.532 625.518 185.094C625.518 187.67 626.778 189.196 628.738 189.196ZM629.256 187.502C628.234 187.502 627.632 186.704 627.632 185.066C627.632 183.498 628.388 182.658 629.27 182.658C629.76 182.658 630.264 182.826 630.726 183.26V186.704C630.278 187.278 629.816 187.502 629.256 187.502Z" fill="#5793BF"/>
<path d="M718.451 189H720.509V183.61C721.083 183.05 721.489 182.742 722.133 182.742C722.889 182.742 723.239 183.148 723.239 184.38V189H725.297V184.114C725.297 182.154 724.555 180.978 722.875 180.978C721.811 180.978 721.027 181.538 720.411 182.126L720.509 180.656V177.842H718.451V189ZM730.262 189.196C730.962 189.196 731.508 189.042 731.928 188.902L731.592 187.404C731.368 187.488 731.074 187.586 730.808 187.586C730.122 187.586 729.744 187.166 729.744 186.27V182.784H731.69V181.174H729.744V179.046H728.036L727.812 181.174L726.594 181.258V182.784H727.686V186.27C727.686 188.02 728.4 189.196 730.262 189.196ZM733.298 189H735.356V183.61C735.888 183.022 736.406 182.742 736.84 182.742C737.596 182.742 737.946 183.148 737.946 184.38V189H740.004V183.61C740.564 183.022 741.054 182.742 741.502 182.742C742.258 182.742 742.594 183.148 742.594 184.38V189H744.652V184.114C744.652 182.154 743.896 180.978 742.23 180.978C741.208 180.978 740.452 181.594 739.724 182.336C739.36 181.468 738.702 180.978 737.568 180.978C736.56 180.978 735.832 181.538 735.174 182.21H735.132L734.964 181.174H733.298V189ZM748.725 189.196C749.215 189.196 749.537 189.112 749.775 189.028L749.523 187.502C749.383 187.53 749.327 187.53 749.257 187.53C749.061 187.53 748.851 187.376 748.851 186.886V177.842H746.793V186.802C746.793 188.258 747.283 189.196 748.725 189.196ZM751.265 191.996C752.973 191.436 753.911 190.19 753.911 188.538C753.911 187.278 753.379 186.522 752.441 186.522C751.699 186.522 751.097 186.998 751.097 187.74C751.097 188.51 751.713 188.958 752.385 188.958C752.693 188.958 752.973 188.86 753.183 188.65L752.455 187.446L752.525 188.902C752.539 189.728 751.937 190.47 750.845 190.876L751.265 191.996ZM727.525 209.196C728.393 209.196 729.359 208.902 730.101 208.258L729.289 206.9C728.855 207.25 728.323 207.53 727.749 207.53C726.629 207.53 725.817 206.564 725.817 205.094C725.817 203.61 726.615 202.658 727.833 202.658C728.253 202.658 728.631 202.826 729.023 203.162L729.989 201.846C729.415 201.342 728.687 200.978 727.707 200.978C725.579 200.978 723.717 202.49 723.717 205.094C723.717 207.684 725.369 209.196 727.525 209.196ZM733.829 209.196C735.859 209.196 736.937 208.104 736.937 206.718C736.937 205.276 735.803 204.744 734.767 204.352C733.927 204.058 733.213 203.834 733.213 203.274C733.213 202.812 733.535 202.504 734.249 202.504C734.823 202.504 735.383 202.784 735.929 203.176L736.867 201.944C736.223 201.44 735.327 200.978 734.193 200.978C732.401 200.978 731.281 201.972 731.281 203.358C731.281 204.688 732.387 205.276 733.381 205.668C734.193 205.976 735.019 206.256 735.019 206.83C735.019 207.32 734.655 207.67 733.871 207.67C733.143 207.67 732.485 207.348 731.771 206.802L730.847 208.104C731.617 208.748 732.779 209.196 733.829 209.196ZM740.761 209.196C742.791 209.196 743.869 208.104 743.869 206.718C743.869 205.276 742.735 204.744 741.699 204.352C740.859 204.058 740.145 203.834 740.145 203.274C740.145 202.812 740.467 202.504 741.181 202.504C741.755 202.504 742.315 202.784 742.861 203.176L743.799 201.944C743.155 201.44 742.259 200.978 741.125 200.978C739.333 200.978 738.213 201.972 738.213 203.358C738.213 204.688 739.319 205.276 740.313 205.668C741.125 205.976 741.951 206.256 741.951 206.83C741.951 207.32 741.587 207.67 740.803 207.67C740.075 207.67 739.417 207.348 738.703 206.802L737.779 208.104C738.549 208.748 739.711 209.196 740.761 209.196ZM745.509 211.996C747.217 211.436 748.155 210.19 748.155 208.538C748.155 207.278 747.623 206.522 746.685 206.522C745.943 206.522 745.341 206.998 745.341 207.74C745.341 208.51 745.957 208.958 746.629 208.958C746.937 208.958 747.217 208.86 747.427 208.65L746.699 207.446L746.769 208.902C746.783 209.728 746.181 210.47 745.089 210.876L745.509 211.996ZM730.941 232.206C732.915 232.206 733.573 230.89 733.573 229.21V221.174H731.515V229.252C731.515 230.148 731.305 230.596 730.647 230.596C730.423 230.596 730.199 230.54 730.003 230.47L729.625 231.996C729.933 232.108 730.339 232.206 730.941 232.206ZM732.537 219.9C733.237 219.9 733.741 219.452 733.741 218.766C733.741 218.094 733.237 217.66 732.537 217.66C731.837 217.66 731.347 218.094 731.347 218.766C731.347 219.452 731.837 219.9 732.537 219.9ZM738.02 229.196C740.05 229.196 741.128 228.104 741.128 226.718C741.128 225.276 739.994 224.744 738.958 224.352C738.118 224.058 737.404 223.834 737.404 223.274C737.404 222.812 737.726 222.504 738.44 222.504C739.014 222.504 739.574 222.784 740.12 223.176L741.058 221.944C740.414 221.44 739.518 220.978 738.384 220.978C736.592 220.978 735.472 221.972 735.472 223.358C735.472 224.688 736.578 225.276 737.572 225.668C738.384 225.976 739.21 226.256 739.21 226.83C739.21 227.32 738.846 227.67 738.062 227.67C737.334 227.67 736.676 227.348 735.962 226.802L735.038 228.104C735.808 228.748 736.97 229.196 738.02 229.196Z" fill="#5793BF"/>
<path d="M702.894 154.15C704.658 154.15 705.498 153.086 706.184 151.252L708.97 143.174H706.996L705.904 146.8C705.722 147.542 705.526 148.284 705.358 149.026H705.288C705.05 148.27 704.854 147.514 704.616 146.8L703.384 143.174H701.298L704.35 150.86L704.224 151.322C703.986 152.022 703.538 152.526 702.754 152.526C702.558 152.526 702.348 152.456 702.208 152.414L701.83 153.996C702.124 154.094 702.446 154.15 702.894 154.15ZM711.783 151.196C712.679 151.196 713.463 150.762 714.149 150.174H714.205L714.359 151H716.039V146.436C716.039 144.154 715.017 142.978 713.029 142.978C711.783 142.978 710.677 143.44 709.753 144L710.495 145.372C711.209 144.938 711.923 144.63 712.651 144.63C713.617 144.63 713.939 145.204 713.981 145.974C710.831 146.324 709.473 147.206 709.473 148.872C709.473 150.216 710.383 151.196 711.783 151.196ZM712.455 149.586C711.853 149.586 711.433 149.32 711.433 148.718C711.433 148.004 712.063 147.486 713.981 147.248V148.83C713.477 149.32 713.043 149.586 712.455 149.586ZM718.136 151H720.194V146.338C720.628 145.204 721.37 144.784 721.972 144.784C722.308 144.784 722.518 144.84 722.798 144.91L723.148 143.146C722.91 143.034 722.658 142.978 722.238 142.978C721.426 142.978 720.572 143.524 720.012 144.56H719.97L719.802 143.174H718.136V151ZM724.248 151H726.306V145.61C726.88 145.05 727.286 144.742 727.93 144.742C728.686 144.742 729.036 145.148 729.036 146.38V151H731.094V146.114C731.094 144.154 730.352 142.978 728.672 142.978C727.608 142.978 726.796 143.538 726.124 144.21H726.082L725.914 143.174H724.248V151ZM740.308 151.196C742.03 151.196 743.64 149.656 743.64 146.954C743.64 144.546 742.478 142.978 740.56 142.978C739.776 142.978 739.006 143.356 738.376 143.902L738.446 142.656V139.842H736.388V151H737.998L738.166 150.174H738.222C738.852 150.832 739.608 151.196 740.308 151.196ZM739.86 149.502C739.44 149.502 738.922 149.362 738.446 148.928V145.47C738.964 144.924 739.454 144.658 739.972 144.658C741.064 144.658 741.526 145.484 741.526 146.996C741.526 148.69 740.798 149.502 739.86 149.502ZM747.736 151.196C748.8 151.196 749.542 150.678 750.228 149.88H750.27L750.424 151H752.104V143.174H750.06V148.452C749.528 149.152 749.108 149.432 748.464 149.432C747.694 149.432 747.358 149.012 747.358 147.808V143.174H745.3V148.06C745.3 150.034 746.042 151.196 747.736 151.196ZM754.312 151H756.37V143.174H754.312V151ZM755.334 141.9C756.048 141.9 756.538 141.452 756.538 140.766C756.538 140.094 756.048 139.66 755.334 139.66C754.62 139.66 754.144 140.094 754.144 140.766C754.144 141.452 754.62 141.9 755.334 141.9ZM760.496 151.196C760.986 151.196 761.308 151.112 761.546 151.028L761.294 149.502C761.154 149.53 761.098 149.53 761.028 149.53C760.832 149.53 760.622 149.376 760.622 148.886V139.842H758.564V148.802C758.564 150.258 759.054 151.196 760.496 151.196ZM765.738 151.196C766.55 151.196 767.334 150.762 767.908 150.188H767.95L768.104 151H769.784V139.842H767.726V142.586L767.81 143.818C767.236 143.3 766.69 142.978 765.808 142.978C764.128 142.978 762.518 144.532 762.518 147.094C762.518 149.67 763.778 151.196 765.738 151.196ZM766.256 149.502C765.234 149.502 764.632 148.704 764.632 147.066C764.632 145.498 765.388 144.658 766.27 144.658C766.76 144.658 767.264 144.826 767.726 145.26V148.704C767.278 149.278 766.816 149.502 766.256 149.502Z" fill="white"/>
<path d="M437.138 201H439.196V193.174H437.138V201ZM438.16 191.9C438.874 191.9 439.364 191.452 439.364 190.766C439.364 190.094 438.874 189.66 438.16 189.66C437.446 189.66 436.97 190.094 436.97 190.766C436.97 191.452 437.446 191.9 438.16 191.9ZM441.39 201H443.448V195.61C444.022 195.05 444.428 194.742 445.072 194.742C445.828 194.742 446.178 195.148 446.178 196.38V201H448.236V196.114C448.236 194.154 447.494 192.978 445.814 192.978C444.75 192.978 443.938 193.538 443.266 194.21H443.224L443.056 193.174H441.39V201ZM453.117 201.196C453.929 201.196 454.713 200.762 455.287 200.188H455.329L455.483 201H457.163V189.842H455.105V192.586L455.189 193.818C454.615 193.3 454.069 192.978 453.187 192.978C451.507 192.978 449.897 194.532 449.897 197.094C449.897 199.67 451.157 201.196 453.117 201.196ZM453.635 199.502C452.613 199.502 452.011 198.704 452.011 197.066C452.011 195.498 452.767 194.658 453.649 194.658C454.139 194.658 454.643 194.826 455.105 195.26V198.704C454.657 199.278 454.195 199.502 453.635 199.502ZM462.785 201.196C463.751 201.196 464.731 200.874 465.501 200.342L464.815 199.068C464.241 199.418 463.681 199.614 463.051 199.614C461.889 199.614 461.049 198.956 460.867 197.668H465.711C465.753 197.472 465.795 197.108 465.795 196.716C465.795 194.546 464.689 192.978 462.519 192.978C460.671 192.978 458.879 194.546 458.879 197.094C458.879 199.684 460.587 201.196 462.785 201.196ZM460.839 196.296C461.007 195.148 461.735 194.56 462.561 194.56C463.569 194.56 464.045 195.232 464.045 196.296H460.839ZM466.307 201H468.449L469.163 199.558C469.387 199.096 469.597 198.634 469.821 198.2H469.891C470.157 198.634 470.409 199.11 470.661 199.558L471.529 201H473.741L471.277 197.15L473.573 193.174H471.445L470.801 194.546C470.605 195.008 470.409 195.442 470.227 195.89H470.157C469.919 195.442 469.681 195.008 469.471 194.546L468.673 193.174H466.475L468.771 196.926L466.307 201ZM475.925 201.196C476.653 201.196 477.213 200.622 477.213 199.852C477.213 199.082 476.653 198.522 475.925 198.522C475.183 198.522 474.651 199.082 474.651 199.852C474.651 200.622 475.183 201.196 475.925 201.196ZM479.316 201H481.374V195.61C481.948 195.05 482.354 194.742 482.998 194.742C483.754 194.742 484.104 195.148 484.104 196.38V201H486.162V196.114C486.162 194.154 485.42 192.978 483.74 192.978C482.676 192.978 481.892 193.538 481.276 194.126L481.374 192.656V189.842H479.316V201ZM491.127 201.196C491.827 201.196 492.373 201.042 492.793 200.902L492.457 199.404C492.233 199.488 491.939 199.586 491.673 199.586C490.987 199.586 490.609 199.166 490.609 198.27V194.784H492.555V193.174H490.609V191.046H488.901L488.677 193.174L487.459 193.258V194.784H488.551V198.27C488.551 200.02 489.265 201.196 491.127 201.196ZM494.164 201H496.222V195.61C496.754 195.022 497.272 194.742 497.706 194.742C498.462 194.742 498.812 195.148 498.812 196.38V201H500.87V195.61C501.43 195.022 501.92 194.742 502.368 194.742C503.124 194.742 503.46 195.148 503.46 196.38V201H505.518V196.114C505.518 194.154 504.762 192.978 503.096 192.978C502.074 192.978 501.318 193.594 500.59 194.336C500.226 193.468 499.568 192.978 498.434 192.978C497.426 192.978 496.698 193.538 496.04 194.21H495.998L495.83 193.174H494.164V201ZM509.59 201.196C510.08 201.196 510.402 201.112 510.64 201.028L510.388 199.502C510.248 199.53 510.192 199.53 510.122 199.53C509.926 199.53 509.716 199.376 509.716 198.886V189.842H507.658V198.802C507.658 200.258 508.148 201.196 509.59 201.196Z" fill="#5793BF"/>
<path d="M171.138 201H173.196V193.174H171.138V201ZM172.16 191.9C172.874 191.9 173.364 191.452 173.364 190.766C173.364 190.094 172.874 189.66 172.16 189.66C171.446 189.66 170.97 190.094 170.97 190.766C170.97 191.452 171.446 191.9 172.16 191.9ZM175.39 201H177.448V195.61C178.022 195.05 178.428 194.742 179.072 194.742C179.828 194.742 180.178 195.148 180.178 196.38V201H182.236V196.114C182.236 194.154 181.494 192.978 179.814 192.978C178.75 192.978 177.938 193.538 177.266 194.21H177.224L177.056 193.174H175.39V201ZM187.117 201.196C187.929 201.196 188.713 200.762 189.287 200.188H189.329L189.483 201H191.163V189.842H189.105V192.586L189.189 193.818C188.615 193.3 188.069 192.978 187.187 192.978C185.507 192.978 183.897 194.532 183.897 197.094C183.897 199.67 185.157 201.196 187.117 201.196ZM187.635 199.502C186.613 199.502 186.011 198.704 186.011 197.066C186.011 195.498 186.767 194.658 187.649 194.658C188.139 194.658 188.643 194.826 189.105 195.26V198.704C188.657 199.278 188.195 199.502 187.635 199.502ZM196.785 201.196C197.751 201.196 198.731 200.874 199.501 200.342L198.815 199.068C198.241 199.418 197.681 199.614 197.051 199.614C195.889 199.614 195.049 198.956 194.867 197.668H199.711C199.753 197.472 199.795 197.108 199.795 196.716C199.795 194.546 198.689 192.978 196.519 192.978C194.671 192.978 192.879 194.546 192.879 197.094C192.879 199.684 194.587 201.196 196.785 201.196ZM194.839 196.296C195.007 195.148 195.735 194.56 196.561 194.56C197.569 194.56 198.045 195.232 198.045 196.296H194.839ZM200.307 201H202.449L203.163 199.558C203.387 199.096 203.597 198.634 203.821 198.2H203.891C204.157 198.634 204.409 199.11 204.661 199.558L205.529 201H207.741L205.277 197.15L207.573 193.174H205.445L204.801 194.546C204.605 195.008 204.409 195.442 204.227 195.89H204.157C203.919 195.442 203.681 195.008 203.471 194.546L202.673 193.174H200.475L202.771 196.926L200.307 201ZM209.925 201.196C210.653 201.196 211.213 200.622 211.213 199.852C211.213 199.082 210.653 198.522 209.925 198.522C209.183 198.522 208.651 199.082 208.651 199.852C208.651 200.622 209.183 201.196 209.925 201.196ZM213.316 201H215.374V195.61C215.948 195.05 216.354 194.742 216.998 194.742C217.754 194.742 218.104 195.148 218.104 196.38V201H220.162V196.114C220.162 194.154 219.42 192.978 217.74 192.978C216.676 192.978 215.892 193.538 215.276 194.126L215.374 192.656V189.842H213.316V201ZM225.127 201.196C225.827 201.196 226.373 201.042 226.793 200.902L226.457 199.404C226.233 199.488 225.939 199.586 225.673 199.586C224.987 199.586 224.609 199.166 224.609 198.27V194.784H226.555V193.174H224.609V191.046H222.901L222.677 193.174L221.459 193.258V194.784H222.551V198.27C222.551 200.02 223.265 201.196 225.127 201.196ZM228.164 201H230.222V195.61C230.754 195.022 231.272 194.742 231.706 194.742C232.462 194.742 232.812 195.148 232.812 196.38V201H234.87V195.61C235.43 195.022 235.92 194.742 236.368 194.742C237.124 194.742 237.46 195.148 237.46 196.38V201H239.518V196.114C239.518 194.154 238.762 192.978 237.096 192.978C236.074 192.978 235.318 193.594 234.59 194.336C234.226 193.468 233.568 192.978 232.434 192.978C231.426 192.978 230.698 193.538 230.04 194.21H229.998L229.83 193.174H228.164V201ZM243.59 201.196C244.08 201.196 244.402 201.112 244.64 201.028L244.388 199.502C244.248 199.53 244.192 199.53 244.122 199.53C243.926 199.53 243.716 199.376 243.716 198.886V189.842H241.658V198.802C241.658 200.258 242.148 201.196 243.59 201.196Z" fill="#5793BF"/>
</svg>
