<svg width="1624" height="928" viewBox="0 0 1624 928" fill="none" xmlns="http://www.w3.org/2000/svg">
<rect width="1624" height="928" rx="32" fill="#F5F5F5"/>
<line x1="75" y1="123.5" x2="1554" y2="123.5" stroke="#898989" stroke-opacity="0.3"/>
<line x1="94" y1="842.5" x2="1536" y2="842.5" stroke="#898989" stroke-opacity="0.3"/>
<path d="M73.628 67.4002H84.5799V97H91.9305V67.4002H102.882V61.2829H73.628V67.4002ZM108.556 107.064C114.204 107.039 117.14 104.277 118.669 99.96L129.128 70.2122H121.382L115.709 89.9454H115.413L109.789 70.2122H102.142L111.762 97.74L111.318 98.8747C110.43 101.193 109.271 101.341 107.816 101.341C106.903 101.341 105.793 101.317 104.856 101.243V106.916C105.793 107.015 107.125 107.039 108.556 107.064ZM132.68 107.064H139.981V92.708H140.178C141.214 94.928 143.459 97.444 147.825 97.444C153.942 97.444 158.703 92.5847 158.678 83.6308C158.703 74.4548 153.745 69.8668 147.825 69.8668C143.311 69.8668 141.19 72.5308 140.178 74.7015H139.882V70.2122H132.68V107.064ZM139.833 83.5814C139.808 78.7715 141.856 75.6881 145.506 75.6881C149.28 75.6881 151.253 78.9195 151.229 83.5814C151.253 88.3174 149.231 91.598 145.506 91.6227C141.88 91.598 139.808 88.4161 139.833 83.5814ZM175.451 97.5427C183.567 97.518 188.599 91.968 188.623 83.6801C188.599 75.4168 183.567 69.8668 175.451 69.8668C167.361 69.8668 162.304 75.4168 162.329 83.6801C162.304 91.968 167.361 97.518 175.451 97.5427ZM169.729 83.6801C169.729 78.9688 171.677 75.4415 175.501 75.4415C179.225 75.4415 181.199 78.9688 181.174 83.6801C181.199 88.3667 179.225 91.8447 175.501 91.8694C171.677 91.8447 169.729 88.3667 169.729 83.6801ZM205.248 107.607C212.87 107.607 218.248 104.129 218.272 97.296V70.2122H211.02V74.7015H210.724C209.738 72.5308 207.567 69.8668 203.078 69.8668C197.158 69.8668 192.175 74.3808 192.175 83.4334C192.175 92.3627 197.035 96.63 203.078 96.6053C207.394 96.63 209.762 94.4347 210.724 92.264H211.07V97.148C211.045 100.873 208.776 102.328 205.396 102.328C202.486 102.328 200.463 101.366 200.068 99.22H192.866C193.285 104.277 197.849 107.607 205.248 107.607ZM199.674 83.5321C199.649 78.9195 201.622 75.6881 205.347 75.6881C209.022 75.6881 211.07 78.7715 211.07 83.5321C211.07 88.2927 208.998 91.1047 205.347 91.1294C201.647 91.1047 199.649 88.1694 199.674 83.5321ZM223.946 97H231.247V81.7561C231.222 78.4755 233.664 76.1815 236.97 76.1815C237.981 76.1815 239.387 76.3541 240.078 76.5761V70.0642C239.436 69.9162 238.499 69.8175 237.759 69.8175C234.75 69.8175 232.258 71.5688 231.296 74.8495H231V70.2122H223.946V97ZM241.607 89.5014C241.632 94.8047 245.406 97.518 250.536 97.4933C254.507 97.518 257.073 95.7667 258.38 93.3H258.577V97H265.484V78.9441C265.509 72.4815 259.983 69.8668 254.137 69.8668C247.034 69.8668 242.988 73.5175 242.544 78.1548H249.5C249.895 76.3295 251.449 75.2195 253.94 75.1948C256.678 75.2195 258.207 76.5021 258.232 78.7468V80.9174C257.097 80.9668 253.496 81.1394 251.572 81.2628C246.417 81.5834 241.632 83.5321 241.607 89.5014ZM248.612 89.3041C248.612 87.2321 250.215 86.0234 252.756 85.8014C253.989 85.7027 257.122 85.5301 258.232 85.4807V87.4294C258.257 90.266 255.938 92.4367 252.608 92.4614C250.265 92.4367 248.612 91.3514 248.612 89.3041ZM271.059 107.064H278.36V92.708H278.557C279.593 94.928 281.838 97.444 286.204 97.444C292.321 97.444 297.082 92.5847 297.057 83.6308C297.082 74.4548 292.124 69.8668 286.204 69.8668C281.69 69.8668 279.569 72.5308 278.557 74.7015H278.261V70.2122H271.059V107.064ZM278.212 83.5814C278.187 78.7715 280.235 75.6881 283.885 75.6881C287.659 75.6881 289.633 78.9195 289.608 83.5814C289.633 88.3174 287.61 91.598 283.885 91.6227C280.259 91.598 278.187 88.4161 278.212 83.5814ZM309.094 81.5094C309.094 77.9821 311.24 75.9348 314.324 75.9348C317.382 75.9348 319.158 77.8835 319.158 81.2134V97H326.46V79.9308C326.46 73.6408 322.784 69.8668 317.185 69.8668C313.115 69.8668 310.426 71.7662 309.193 74.8988H308.897V61.2829H301.793V97H309.094V81.5094ZM335.389 107.064C341.038 107.039 343.973 104.277 345.502 99.96L355.961 70.2122H348.215L342.542 89.9454H342.246L336.622 70.2122H328.976L338.596 97.74L338.152 98.8747C337.264 101.193 336.104 101.341 334.649 101.341C333.736 101.341 332.626 101.317 331.689 101.243V106.916C332.626 107.015 333.958 107.039 335.389 107.064Z" fill="black"/>
<path d="M386.258 102H391.809V93.2659H396.62C402.8 93.2659 406.353 89.5836 406.353 84.2358C406.353 78.962 402.856 75.2056 396.768 75.2056H386.258V102ZM391.809 88.7879V79.7577H395.732C399.026 79.7762 400.635 81.5711 400.617 84.2358C400.635 86.9374 399.026 88.7879 395.732 88.7879H391.809ZM408.278 96.3747C408.296 100.353 411.127 102.389 414.976 102.37C417.956 102.389 419.88 101.075 420.861 99.2243H421.009V102H426.19V88.4548C426.209 83.6066 422.064 81.6452 417.678 81.6452C412.349 81.6452 409.314 84.3838 408.981 87.8626H414.199C414.495 86.4933 415.661 85.6606 417.53 85.6421C419.584 85.6606 420.731 86.6228 420.75 88.3067V89.9351C419.899 89.9721 417.197 90.1017 415.754 90.1942C411.886 90.4348 408.296 91.8966 408.278 96.3747ZM413.533 96.2266C413.533 94.6723 414.736 93.7655 416.642 93.599C417.567 93.525 419.917 93.3955 420.75 93.3584V94.8203C420.768 96.9483 419.029 98.5767 416.531 98.5952C414.773 98.5767 413.533 97.7625 413.533 96.2266ZM430.372 102H435.849V90.5643C435.831 88.1032 437.663 86.3823 440.142 86.3823C440.901 86.3823 441.956 86.5118 442.474 86.6784V81.7932C441.993 81.6822 441.29 81.6082 440.734 81.6082C438.477 81.6082 436.608 82.922 435.886 85.3831H435.664V81.9042H430.372V102ZM443.621 96.3747C443.64 100.353 446.471 102.389 450.32 102.37C453.299 102.389 455.223 101.075 456.204 99.2243H456.352V102H461.533V88.4548C461.552 83.6066 457.407 81.6452 453.021 81.6452C447.692 81.6452 444.657 84.3838 444.324 87.8626H449.543C449.839 86.4933 451.004 85.6606 452.873 85.6421C454.927 85.6606 456.075 86.6228 456.093 88.3067V89.9351C455.242 89.9721 452.54 90.1017 451.097 90.1942C447.23 90.4348 443.64 91.8966 443.621 96.3747ZM448.876 96.2266C448.876 94.6723 450.079 93.7655 451.985 93.599C452.91 93.525 455.26 93.3955 456.093 93.3584V94.8203C456.112 96.9483 454.372 98.5767 451.874 98.5952C450.116 98.5767 448.876 97.7625 448.876 96.2266ZM474.746 109.957C480.463 109.957 484.497 107.348 484.516 102.222V81.9042H479.076V85.272H478.854C478.113 83.6436 476.485 81.6452 473.117 81.6452C468.676 81.6452 464.938 85.0315 464.938 91.8226C464.938 98.5212 468.584 101.722 473.117 101.704C476.355 101.722 478.132 100.076 478.854 98.4472H479.113V102.111C479.094 104.905 477.392 105.997 474.857 105.997C472.673 105.997 471.156 105.275 470.86 103.665H465.456C465.771 107.459 469.194 109.957 474.746 109.957ZM470.564 91.8966C470.545 88.4363 472.025 86.0122 474.82 86.0122C477.577 86.0122 479.113 88.3253 479.113 91.8966C479.113 95.4679 477.558 97.5774 474.82 97.596C472.044 97.5774 470.545 95.3754 470.564 91.8966ZM488.772 102H494.249V90.5643C494.231 88.1032 496.063 86.3823 498.542 86.3823C499.301 86.3823 500.356 86.5118 500.874 86.6784V81.7932C500.393 81.6822 499.689 81.6082 499.134 81.6082C496.877 81.6082 495.008 82.922 494.286 85.3831H494.064V81.9042H488.772V102ZM502.021 96.3747C502.04 100.353 504.871 102.389 508.72 102.37C511.699 102.389 513.623 101.075 514.604 99.2243H514.752V102H519.933V88.4548C519.952 83.6066 515.807 81.6452 511.421 81.6452C506.092 81.6452 503.057 84.3838 502.724 87.8626H507.942C508.239 86.4933 509.404 85.6606 511.273 85.6421C513.327 85.6606 514.474 86.6228 514.493 88.3067V89.9351C513.642 89.9721 510.94 90.1017 509.497 90.1942C505.629 90.4348 502.04 91.8966 502.021 96.3747ZM507.276 96.2266C507.276 94.6723 508.479 93.7655 510.385 93.599C511.31 93.525 513.66 93.3955 514.493 93.3584V94.8203C514.511 96.9483 512.772 98.5767 510.274 98.5952C508.516 98.5767 507.276 97.7625 507.276 96.2266ZM524.115 109.55H529.593V98.7802H529.741C530.518 100.446 532.202 102.333 535.477 102.333C540.066 102.333 543.637 98.6877 543.619 91.9706C543.637 85.087 539.918 81.6452 535.477 81.6452C532.091 81.6452 530.499 83.6436 529.741 85.272H529.519V81.9042H524.115V109.55ZM529.482 91.9336C529.463 88.3253 530.999 86.0122 533.738 86.0122C536.569 86.0122 538.049 88.4363 538.031 91.9336C538.049 95.4865 536.532 97.9475 533.738 97.966C531.017 97.9475 529.463 95.5605 529.482 91.9336ZM552.649 90.3792C552.649 87.7331 554.259 86.1972 556.572 86.1972C558.867 86.1972 560.199 87.6591 560.199 90.1572V102H565.676V89.195C565.676 84.4763 562.919 81.6452 558.718 81.6452C555.665 81.6452 553.648 83.07 552.723 85.4201H552.501V75.2056H547.172V102H552.649V90.3792Z" fill="#6B6B6B"/>
<path d="M1186.26 107H1191.81V95.8974H1202.76V91.3083H1191.81V84.7947H1203.91V80.2056H1186.26V107ZM1215.01 107.407C1221.1 107.389 1224.88 103.225 1224.89 97.0076C1224.88 90.8087 1221.1 86.6452 1215.01 86.6452C1208.94 86.6452 1205.15 90.8087 1205.17 97.0076C1205.15 103.225 1208.94 107.389 1215.01 107.407ZM1210.72 97.0076C1210.72 93.4733 1212.18 90.8272 1215.05 90.8272C1217.84 90.8272 1219.32 93.4733 1219.31 97.0076C1219.32 100.523 1217.84 103.133 1215.05 103.151C1212.18 103.133 1210.72 100.523 1210.72 97.0076ZM1233.81 95.3792C1233.81 92.7331 1235.39 91.1972 1237.66 91.1972C1239.94 91.1972 1241.27 92.6776 1241.29 95.1572V107H1246.73V94.195C1246.75 89.5133 1244.01 86.6452 1239.81 86.6452C1236.83 86.6452 1234.68 88.107 1233.78 90.4201H1233.55V86.9042H1228.34V107H1233.81V95.3792ZM1261.57 86.9042H1257.8V82.0931H1252.32V86.9042H1249.54V91.0122H1252.32V101.597C1252.28 105.501 1254.98 107.278 1258.94 107.259C1260.29 107.278 1261.27 107.167 1261.87 107.074V102.744C1261.2 102.8 1260.24 102.855 1259.68 102.855C1258.57 102.818 1257.78 102.429 1257.8 100.82V91.0122H1261.57V86.9042ZM1273.86 107H1279.41V95.8974H1290.36V91.3083H1279.41V84.7947H1291.51V80.2056H1273.86V107ZM1293.84 101.375C1293.86 105.353 1296.69 107.389 1300.54 107.37C1303.52 107.389 1305.44 106.075 1306.43 104.224H1306.57V107H1311.75V93.4548C1311.77 88.6066 1307.63 86.6452 1303.24 86.6452C1297.91 86.6452 1294.88 89.3838 1294.55 92.8626H1299.76C1300.06 91.4933 1301.23 90.6606 1303.09 90.6421C1305.15 90.6606 1306.3 91.6228 1306.31 93.3067V94.9351C1305.46 94.9721 1302.76 95.1017 1301.32 95.1942C1297.45 95.4348 1293.86 96.8966 1293.84 101.375ZM1299.1 101.227C1299.1 99.6723 1300.3 98.7655 1302.21 98.599C1303.13 98.525 1305.48 98.3955 1306.31 98.3584V99.8203C1306.33 101.948 1304.59 103.577 1302.1 103.595C1300.34 103.577 1299.1 102.762 1299.1 101.227ZM1315.94 107H1321.41V94.9351C1321.4 92.6591 1322.84 91.1602 1324.71 91.1602C1326.58 91.1602 1327.83 92.437 1327.82 94.417V107H1333.15V94.7131C1333.13 92.5851 1334.35 91.1602 1336.4 91.1602C1338.2 91.1602 1339.57 92.2705 1339.55 94.565V107H1345.03V93.4918C1345.03 89.1063 1342.42 86.6452 1338.7 86.6452C1335.75 86.6452 1333.46 88.144 1332.63 90.4201H1332.44C1331.78 88.107 1329.72 86.6452 1326.96 86.6452C1324.26 86.6452 1322.23 88.07 1321.38 90.4201H1321.15V86.9042H1315.94V107ZM1349.24 107H1354.72V86.9042H1349.24V107ZM1348.99 81.5009C1348.99 83.0183 1350.34 84.2766 1351.98 84.2766C1353.61 84.2766 1354.96 83.0183 1354.94 81.5009C1354.96 79.9466 1353.61 78.7068 1351.98 78.6883C1350.34 78.7068 1348.99 79.9466 1348.99 81.5009ZM1364.45 80.2056H1358.98V107H1364.45V80.2056ZM1371.93 114.55C1376.17 114.531 1378.37 112.459 1379.52 109.221L1387.36 86.9042H1381.55L1377.3 101.708H1377.07L1372.86 86.9042H1367.12L1374.34 107.555L1374 108.406C1373.34 110.146 1372.47 110.257 1371.38 110.257C1370.69 110.257 1369.86 110.238 1369.15 110.183V114.439C1369.86 114.513 1370.86 114.531 1371.93 114.55Z" fill="black"/>
<path d="M1414.22 104H1416.72V96.6982H1421.08C1425.76 96.6982 1427.91 93.8524 1427.91 90.2847C1427.91 86.7032 1425.76 83.8991 1421.05 83.8991H1414.22V104ZM1416.72 94.4771V86.1202H1420.94C1424.17 86.1202 1425.42 87.8832 1425.44 90.2847C1425.42 92.6724 1424.17 94.4771 1420.97 94.4771H1416.72ZM1431.1 104H1433.49V94.5048C1433.49 92.4781 1435.1 90.9788 1437.26 90.9788C1437.89 90.9788 1438.53 91.1038 1438.71 91.1454V88.73C1438.43 88.7022 1437.82 88.6883 1437.46 88.6745C1435.68 88.6883 1434.11 89.7017 1433.57 91.2287H1433.41V88.9243H1431.1V104ZM1446.87 104.305C1449.98 104.319 1452.22 102.765 1452.92 100.474H1450.37C1449.81 101.404 1448.68 102.195 1446.87 102.195C1444.19 102.195 1442.33 100.446 1442.21 97.2534H1453.15V96.2539C1453.16 90.6734 1449.81 88.73 1446.65 88.73C1442.55 88.73 1439.82 91.9506 1439.82 96.5871C1439.82 101.21 1442.51 104.319 1446.87 104.305ZM1442.22 95.2267C1442.39 92.8945 1444.04 90.84 1446.65 90.84C1449.13 90.84 1450.72 92.7141 1450.73 95.2267H1442.22ZM1462.84 88.9243H1459.67V85.315H1457.25V88.9243H1454.98V90.9233H1457.25V100.28C1457.27 102.945 1459.38 104.194 1461.39 104.194C1462.1 104.194 1462.68 104.139 1463.06 104.083V101.862C1462.71 101.876 1462.07 101.918 1461.64 101.918C1460.63 101.918 1459.66 101.598 1459.67 99.6689V90.9233H1462.84V88.9243ZM1472.08 104.305C1475.19 104.319 1477.43 102.765 1478.13 100.474H1475.58C1475.02 101.404 1473.89 102.195 1472.08 102.195C1469.4 102.195 1467.54 100.446 1467.42 97.2534H1478.36V96.2539C1478.37 90.6734 1475.02 88.73 1471.86 88.73C1467.76 88.73 1465.03 91.9506 1465.03 96.5871C1465.03 101.21 1467.72 104.319 1472.08 104.305ZM1467.43 95.2267C1467.6 92.8945 1469.25 90.84 1471.86 90.84C1474.34 90.84 1475.93 92.7141 1475.94 95.2267H1467.43ZM1483.85 94.949C1483.85 92.3393 1485.46 90.8678 1487.66 90.8678C1489.79 90.8678 1491.07 92.256 1491.07 94.5881V104H1493.46V94.4215C1493.47 90.5901 1491.43 88.73 1488.38 88.73C1486.09 88.73 1484.67 89.7434 1483.96 91.2842H1483.77V88.9243H1481.46V104H1483.85V94.949ZM1502.98 104.305C1505.86 104.319 1506.84 102.529 1507.37 101.696H1507.62V104H1509.95V83.8991H1507.53V91.312H1507.37C1506.85 90.5069 1505.94 88.73 1503.01 88.73C1499.22 88.73 1496.57 91.7285 1496.57 96.5038C1496.57 101.293 1499.22 104.319 1502.98 104.305ZM1498.98 96.4483C1498.98 93.2971 1500.41 90.8678 1503.31 90.8678C1506.12 90.8678 1507.6 93.1028 1507.62 96.4483C1507.6 99.8354 1506.08 102.168 1503.31 102.168C1500.46 102.168 1498.98 99.655 1498.98 96.4483ZM1513.37 99.7244C1513.37 102.667 1515.64 104.347 1518.5 104.361C1521.13 104.347 1522.5 102.959 1523 101.945H1523.11V104H1525.47V94.0606C1525.48 89.313 1521.78 88.73 1519.81 88.73C1516.47 88.73 1514.11 90.4097 1513.81 92.839H1516.31C1516.64 91.6868 1517.79 90.8123 1519.7 90.8123C1521.97 90.8123 1523.11 91.9228 1523.11 93.8385V95.0601C1522.43 95.074 1520 95.2128 1519.03 95.2822C1516.42 95.4766 1513.37 96.2678 1513.37 99.7244ZM1515.75 99.8354C1515.77 98.1835 1517.14 97.42 1519.31 97.2812C1520.03 97.2395 1522.4 97.0591 1523.11 97.0174V98.5306C1523.11 100.432 1521.61 102.237 1518.92 102.223C1517.09 102.237 1515.77 101.432 1515.75 99.8354ZM1529.3 104H1531.69V94.5048C1531.69 92.4781 1533.3 90.9788 1535.47 90.9788C1536.09 90.9788 1536.73 91.1038 1536.91 91.1454V88.73C1536.63 88.7022 1536.02 88.6883 1535.66 88.6745C1533.88 88.6883 1532.31 89.7017 1531.77 91.2287H1531.61V88.9243H1529.3V104ZM1544.43 104.305C1547.31 104.319 1548.29 102.529 1548.82 101.696H1549.07V104H1551.4V83.8991H1548.99V91.312H1548.82C1548.31 90.5069 1547.39 88.73 1544.46 88.73C1540.67 88.73 1538.02 91.7285 1538.02 96.5038C1538.02 101.293 1540.67 104.319 1544.43 104.305ZM1540.43 96.4483C1540.43 93.2971 1541.86 90.8678 1544.77 90.8678C1547.57 90.8678 1549.06 93.1028 1549.07 96.4483C1549.06 99.8354 1547.53 102.168 1544.77 102.168C1541.91 102.168 1540.43 99.655 1540.43 96.4483Z" fill="#6B6B6B"/>
<path d="M800.758 107H806.309V95.8974H817.263V91.3083H806.309V84.7947H818.411V80.2056H800.758V107ZM829.513 107.407C835.601 107.389 839.376 103.225 839.395 97.0076C839.376 90.8087 835.601 86.6452 829.513 86.6452C823.444 86.6452 819.651 90.8087 819.669 97.0076C819.651 103.225 823.444 107.389 829.513 107.407ZM825.22 97.0076C825.22 93.4733 826.682 90.8272 829.55 90.8272C832.345 90.8272 833.825 93.4733 833.806 97.0076C833.825 100.523 832.345 103.133 829.55 103.151C826.682 103.133 825.22 100.523 825.22 97.0076ZM848.314 95.3792C848.314 92.7331 849.887 91.1972 852.163 91.1972C854.439 91.1972 855.771 92.6776 855.79 95.1572V107H861.23V94.195C861.248 89.5133 858.51 86.6452 854.309 86.6452C851.33 86.6452 849.184 88.107 848.277 90.4201H848.055V86.9042H842.837V107H848.314V95.3792ZM876.07 86.9042H872.296V82.0931H866.818V86.9042H864.043V91.0122H866.818V101.597C866.781 105.501 869.483 107.278 873.443 107.259C874.794 107.278 875.774 107.167 876.366 107.074V102.744C875.7 102.8 874.738 102.855 874.183 102.855C873.073 102.818 872.277 102.429 872.296 100.82V91.0122H876.07V86.9042ZM885.471 107H890.911L896.055 89.3098H896.277L901.384 107H906.825L914.486 80.2056H908.416L903.901 98.9691H903.679L898.757 80.2056H893.539L888.616 98.9321H888.394L883.879 80.2056H877.81L885.471 107ZM924.145 107.407C929.104 107.389 932.435 104.983 933.212 101.264H927.994C927.457 102.466 926.125 103.281 924.256 103.299C921.425 103.281 919.63 101.412 919.63 98.377H933.36V96.8226C933.36 89.976 929.197 86.6452 923.923 86.6452C918.038 86.6452 914.208 90.8457 914.226 97.0446C914.208 103.41 917.983 107.389 924.145 107.407ZM919.63 94.9351C919.741 92.6221 921.517 90.7346 924.034 90.7531C926.476 90.7346 928.16 92.4926 928.179 94.9351H919.63ZM936.802 107H942.279V86.9042H936.802V107ZM936.543 81.5009C936.543 83.0183 937.894 84.2766 939.54 84.2766C941.169 84.2766 942.52 83.0183 942.501 81.5009C942.52 79.9466 941.169 78.7068 939.54 78.6883C937.894 78.7068 936.543 79.9466 936.543 81.5009ZM955.565 114.957C961.283 114.957 965.317 112.348 965.336 107.222V86.9042H959.895V90.272H959.673C958.933 88.6436 957.305 86.6452 953.937 86.6452C949.496 86.6452 945.758 90.0315 945.758 96.8226C945.758 103.521 949.403 106.722 953.937 106.704C957.175 106.722 958.952 105.076 959.673 103.447H959.932V107.111C959.914 109.905 958.211 110.997 955.676 110.997C953.493 110.997 951.975 110.275 951.679 108.665H946.276C946.591 112.459 950.014 114.957 955.565 114.957ZM951.383 96.8966C951.365 93.4363 952.845 91.0122 955.639 91.0122C958.396 91.0122 959.932 93.3253 959.932 96.8966C959.932 100.468 958.378 102.577 955.639 102.596C952.864 102.577 951.365 100.375 951.383 96.8966ZM975.069 95.3792C975.069 92.7331 976.679 91.1972 978.992 91.1972C981.286 91.1972 982.619 92.6591 982.619 95.1572V107H988.096V94.195C988.096 89.4763 985.339 86.6452 981.138 86.6452C978.085 86.6452 976.068 88.07 975.143 90.4201H974.921V80.2056H969.592V107H975.069V95.3792ZM1002.9 86.9042H999.125V82.0931H993.647V86.9042H990.872V91.0122H993.647V101.597C993.61 105.501 996.312 107.278 1000.27 107.259C1001.62 107.278 1002.6 107.167 1003.2 107.074V102.744C1002.53 102.8 1001.57 102.855 1001.01 102.855C999.902 102.818 999.106 102.429 999.125 100.82V91.0122H1002.9V86.9042Z" fill="black"/>
<path d="M1028.72 104H1031.22V96.1984H1035.58C1035.75 96.1984 1035.91 96.1984 1036.06 96.1845L1040.27 104H1043.19L1038.66 95.7264C1041.21 94.838 1042.41 92.7557 1042.41 90.0904C1042.41 86.5089 1040.26 83.8991 1035.55 83.8991H1028.72V104ZM1031.22 93.9218V86.1202H1035.44C1038.67 86.1202 1039.92 87.6888 1039.94 90.0904C1039.92 92.4781 1038.67 93.9218 1035.47 93.9218H1031.22ZM1051.88 104.305C1054.99 104.319 1057.22 102.765 1057.93 100.474H1055.37C1054.82 101.404 1053.68 102.195 1051.88 102.195C1049.2 102.195 1047.34 100.446 1047.21 97.2534H1058.15V96.2539C1058.16 90.6734 1054.82 88.73 1051.65 88.73C1047.56 88.73 1044.82 91.9506 1044.82 96.5871C1044.82 101.21 1047.52 104.319 1051.88 104.305ZM1047.23 95.2267C1047.39 92.8945 1049.04 90.84 1051.65 90.84C1054.14 90.84 1055.72 92.7141 1055.74 95.2267H1047.23ZM1067.37 109.969C1071.05 109.969 1073.91 108.303 1073.92 104.416V88.9243H1071.59V91.312H1071.39C1070.85 90.5069 1069.91 88.73 1066.98 88.73C1063.19 88.73 1060.54 91.6174 1060.54 96.2539C1060.54 101.002 1063.29 103.764 1066.95 103.778C1069.87 103.764 1070.82 102.057 1071.34 101.224H1071.53V104.278C1071.53 106.762 1069.95 107.887 1067.37 107.887C1065.23 107.887 1063.8 107.123 1063.48 105.583H1060.98C1061.25 108.373 1063.72 109.969 1067.37 109.969ZM1062.95 96.3372C1062.95 93.2971 1064.38 90.8678 1067.28 90.8678C1070.09 90.8678 1071.57 93.1028 1071.59 96.3372C1071.57 99.655 1070.05 101.64 1067.28 101.64C1064.43 101.64 1062.95 99.4606 1062.95 96.3372ZM1087.25 97.8087C1087.23 100.627 1085.1 101.904 1083.39 101.89C1081.46 101.904 1080.11 100.502 1080.11 98.3362V88.9243H1077.72V98.5028C1077.71 102.334 1079.75 104.194 1082.61 104.194C1084.87 104.194 1086.37 102.973 1087.08 101.446H1087.25V104H1089.61V88.9243H1087.25V97.8087ZM1095.83 83.8991H1093.44V104H1095.83V83.8991ZM1105.96 104.305C1109.07 104.319 1111.3 102.765 1112.01 100.474H1109.46C1108.9 101.404 1107.76 102.195 1105.96 102.195C1103.28 102.195 1101.42 100.446 1101.3 97.2534H1112.23V96.2539C1112.25 90.6734 1108.9 88.73 1105.74 88.73C1101.64 88.73 1098.91 91.9506 1098.91 96.5871C1098.91 101.21 1101.6 104.319 1105.96 104.305ZM1101.31 95.2267C1101.48 92.8945 1103.13 90.84 1105.74 90.84C1108.22 90.84 1109.8 92.7141 1109.82 95.2267H1101.31ZM1115.34 104H1117.73V94.5048C1117.73 92.4781 1119.34 90.9788 1121.51 90.9788C1122.13 90.9788 1122.77 91.1038 1122.95 91.1454V88.73C1122.67 88.7022 1122.06 88.6883 1121.7 88.6745C1119.92 88.6883 1118.36 89.7017 1117.81 91.2287H1117.65V88.9243H1115.34V104Z" fill="#6B6B6B"/>
<path d="M141.402 322.706H135.073L143.326 336.103L134.925 349.5H141.328L146.879 340.285H147.064L152.615 349.5H159.055L150.691 336.103L158.87 322.706H152.578L147.064 331.921H146.879L141.402 322.706ZM162.238 349.5H179.336V344.911H167.789V322.706H162.238V349.5Z" fill="#6B6B6B"/>
<path d="M1089.78 301.567H1087.61V326.304H1089.78V313.172H1093.92V311.34H1089.78V301.567ZM1071.76 320.113H1073.7C1078.4 320.113 1081.63 319.974 1085.5 319.28L1085.23 317.392C1081.55 318.072 1078.4 318.267 1073.93 318.281V305.787H1083.28V303.982H1071.76V320.113ZM1114.54 301.595H1112.38V316.309H1114.54V309.785H1118.29V307.925H1114.54V301.595ZM1096.3 304.732H1105.35V307.98H1096.36V315.005H1098.27C1102.87 315.005 1106.17 314.866 1110.13 314.172L1109.91 312.423C1106.06 313.047 1102.88 313.186 1098.5 313.172V309.674H1107.49V302.927H1096.3V304.732ZM1098.91 325.916H1114.54V317.531H1098.91V325.916ZM1101.05 324.139V319.225H1112.43V324.139H1101.05ZM1129.12 305.704V305.093H1134.51V303.288H1121.4V305.093H1126.82V305.704C1126.82 308.258 1124.36 310.479 1120.76 311.312L1121.68 313.061C1124.69 312.353 1126.94 310.687 1128 308.522C1129.05 310.549 1131.3 312.02 1134.26 312.672L1135.14 310.896C1131.56 310.201 1129.11 308.189 1129.12 305.704ZM1119.76 315.005L1120.07 316.865C1122.14 316.865 1124.51 316.837 1127.01 316.74V325.499H1129.18V316.629C1131.56 316.476 1134.01 316.24 1136.37 315.837L1136.23 314.227C1130.76 314.963 1124.5 315.005 1119.76 315.005ZM1138.03 326.277H1140.17V301.595H1138.03V326.277ZM1158.83 306.731V306.675H1163.3V304.926H1158.83V301.983H1156.77V304.926H1152.22V306.675H1156.77V306.731C1156.74 309.799 1154.87 312.908 1151.72 314.255L1152.83 315.893C1155.27 314.824 1156.99 312.742 1157.86 310.285C1158.73 312.506 1160.45 314.38 1162.85 315.338L1163.91 313.672C1160.77 312.436 1158.83 309.563 1158.83 306.731ZM1154.72 324.444L1155.52 326.138C1159.23 325.527 1162.74 323.611 1164.24 320.835C1165.74 323.611 1169.24 325.527 1172.99 326.138L1173.76 324.444C1169.49 323.778 1165.32 321.113 1165.32 317.864V317.253H1163.16V317.864C1163.13 321.113 1159.01 323.778 1154.72 324.444ZM1165.07 316.143H1167.18V309.729H1170.4V318.281H1172.49V301.595H1170.4V307.897H1167.18V302.039H1165.07V316.143ZM1195.2 301.567H1193.03V326.249H1195.2V313.172H1199.33V311.284H1195.2V301.567ZM1177.12 320.335H1188.67V303.677H1186.51V310.201H1179.29V303.677H1177.12V320.335ZM1179.29 318.503V311.951H1186.51V318.503H1179.29ZM1214.8 303.399H1202.72V305.204H1212.66C1212.66 306.009 1212.63 306.995 1212.55 308.175L1202.19 308.758L1202.55 310.618L1212.4 309.771C1212.27 310.965 1212.08 312.311 1211.79 313.811C1207.87 314.019 1203.92 314.061 1200.5 314.088L1200.81 315.893C1202.87 315.893 1205.15 315.865 1207.5 315.796V324.777H1209.69V315.699C1212.26 315.574 1214.88 315.379 1217.41 315.06L1217.24 313.394C1216.17 313.505 1215.08 313.603 1213.98 313.672C1214.77 309.285 1214.77 306.245 1214.8 304.482V303.399ZM1219.05 326.249H1221.21V301.567H1219.05V326.249ZM1252.2 308.202H1237.56V304.343H1251.95V302.539H1235.37V309.952H1242.53V312.339H1232.37V314.116H1254.86V312.339H1244.7V309.952H1252.2V308.202ZM1235.09 317.892H1249.84V320.113H1235.15V325.971H1252.72V324.222H1237.31V321.723H1251.97V316.226H1235.09V317.892ZM1277.32 301.567H1275.16V326.304H1277.32V301.567ZM1258.33 305.676H1267.63V310.868H1258.39V320.307H1260.44C1264.7 320.307 1268.45 320.127 1272.99 319.419L1272.77 317.587C1268.35 318.295 1264.7 318.489 1260.61 318.475V312.645H1269.83V303.871H1258.33V305.676ZM1301.48 309.063H1286.73V302.483H1284.57V310.812H1301.48V309.063ZM1281.49 315.949H1304.09V314.172H1281.49V315.949ZM1284.43 325.638H1301.62V323.833H1286.6V318.475H1284.43V325.638ZM1335.82 321.224H1325.46V315.171H1323.33V321.224H1313.22V323.028H1335.82V321.224ZM1314.11 313.644L1315.08 315.449C1318.86 314.671 1322.79 312.117 1324.41 308.577C1326.01 312.131 1329.98 314.671 1333.74 315.449L1334.71 313.644C1330.41 312.908 1325.53 309.271 1325.52 305.148V303.261H1323.24V305.148C1323.23 309.299 1318.43 312.908 1314.11 313.644ZM1358.17 301.567H1356V326.304H1358.17V301.567ZM1339.18 305.676H1348.48V310.868H1339.24V320.307H1341.29C1345.55 320.307 1349.3 320.127 1353.84 319.419L1353.62 317.587C1349.2 318.295 1345.55 318.489 1341.46 318.475V312.645H1350.67V303.871H1339.18V305.676ZM1381.46 301.567H1379.3V326.249H1381.46V313.45H1385.46V311.617H1381.46V301.567ZM1362.53 319.835L1363.75 321.557C1371.79 317.587 1375.06 311.215 1375.08 304.232H1363.67V306.065H1372.87C1372.37 311.909 1368.9 316.67 1362.53 319.835ZM1416.58 311.951H1394.07V313.7H1416.58V311.951ZM1396.79 317.614H1411.53V320.002H1396.84V325.971H1414.42V324.194H1399.01V321.64H1413.67V315.921H1396.79V317.614ZM1397.07 309.924H1413.89V308.147H1399.26V304.177H1413.64V302.428H1397.07V309.924ZM1438.99 301.595H1436.85V319.752H1438.99V301.595ZM1419.89 305.121H1429V308.758H1419.94V316.254H1421.94C1426.68 316.226 1429.99 316.087 1434.02 315.393L1433.8 313.589C1429.88 314.283 1426.65 314.422 1422.05 314.422V310.479H1431.16V303.344H1419.89V305.121ZM1422.8 325.721H1439.71V323.889H1425V318.336H1422.8V325.721ZM1462.31 301.567H1460.15V326.304H1462.31V313.172H1466.45V311.34H1462.31V301.567ZM1444.29 320.113H1446.24C1450.93 320.113 1454.16 319.974 1458.04 319.28L1457.76 317.392C1454.08 318.072 1450.93 318.267 1446.46 318.281V305.787H1455.81V303.982H1444.29V320.113ZM1470.39 324.167C1471.38 324.153 1472.18 323.348 1472.17 322.362C1472.18 321.39 1471.38 320.585 1470.39 320.585C1469.42 320.585 1468.59 321.39 1468.61 322.362C1468.59 323.348 1469.42 324.153 1470.39 324.167ZM1316.72 369.278C1321.17 369.278 1323.74 365.53 1323.74 358.95C1323.74 352.425 1321.13 348.621 1316.72 348.621C1312.29 348.621 1309.68 352.425 1309.69 358.95C1309.68 365.53 1312.26 369.278 1316.72 369.278ZM1312.11 358.95C1312.12 353.744 1313.83 350.801 1316.72 350.787C1319.61 350.801 1321.31 353.744 1321.3 358.95C1321.31 364.155 1319.62 367.057 1316.72 367.057C1313.8 367.057 1312.12 364.155 1312.11 358.95ZM1334.18 348.899H1331.66L1326.66 352.231V354.757L1331.54 351.509H1331.66V369H1334.18V348.899ZM1339.54 369H1352.59V366.779H1343.01V366.612L1347.62 361.865C1351.17 358.2 1352.21 356.451 1352.23 354.202C1352.21 351.079 1349.63 348.621 1345.98 348.621C1342.34 348.621 1339.6 351.009 1339.62 354.563H1341.98C1342 352.314 1343.5 350.801 1345.9 350.787C1348.16 350.801 1349.88 352.134 1349.9 354.202C1349.88 356.062 1348.74 357.423 1346.37 359.949L1339.51 367.168L1339.54 369ZM1363.17 369.278C1367.18 369.278 1370.18 366.834 1370.16 363.531C1370.18 360.976 1368.6 359.102 1365.97 358.7V358.561C1368.08 357.964 1369.41 356.298 1369.39 354.008C1369.41 351.134 1367.08 348.621 1363.25 348.621C1359.68 348.621 1356.71 350.759 1356.59 353.952H1359C1359.11 351.981 1361.07 350.801 1363.22 350.787C1365.51 350.801 1366.98 352.134 1366.97 354.146C1366.98 356.215 1365.28 357.589 1362.83 357.589H1361.2V359.782H1362.83C1365.96 359.796 1367.71 361.337 1367.72 363.531C1367.71 365.627 1365.79 367.057 1363.14 367.057C1360.74 367.057 1358.84 365.863 1358.7 363.947H1356.17C1356.3 367.14 1359.17 369.278 1363.17 369.278ZM1373.27 364.891H1383.02V369H1385.41V364.891H1388.21V362.698H1385.41V348.899H1382.32L1373.27 362.836V364.891ZM1375.97 362.698V362.531L1382.77 352.064H1383.02V362.698H1375.97ZM1398.07 369.278C1402.08 369.278 1404.99 366.474 1405.01 362.587C1404.99 358.672 1402.18 355.84 1398.34 355.84C1396.93 355.84 1395.58 356.312 1394.68 357.006H1394.48L1395.23 351.12H1404.04V348.899H1393.15L1391.74 359.894H1394.15C1394.89 358.589 1396.21 358.061 1397.9 358.089C1400.61 358.103 1402.56 360.032 1402.56 362.642C1402.56 365.169 1400.68 367.07 1398.07 367.084C1395.89 367.07 1394.14 365.738 1393.96 363.947H1391.54C1391.69 367.043 1394.44 369.278 1398.07 369.278ZM1415.47 369.278C1419.71 369.319 1422.47 366.293 1422.47 362.503C1422.47 358.616 1419.49 355.84 1415.92 355.84C1413.75 355.84 1411.91 356.826 1410.75 358.505H1410.5C1410.49 353.661 1412.48 350.843 1415.78 350.843C1418.01 350.843 1419.37 352.175 1419.83 353.952H1422.3C1421.79 350.801 1419.32 348.621 1415.78 348.621C1411.06 348.621 1408.14 352.606 1408.14 359.727C1408.14 367.168 1411.99 369.236 1415.47 369.278ZM1410.84 362.559C1410.87 360.185 1412.89 358.047 1415.53 358.033C1418.15 358.047 1420.04 360.06 1420.06 362.531C1420.04 365.03 1418.07 367.07 1415.47 367.084C1412.78 367.07 1410.85 364.919 1410.84 362.559ZM1426.55 369H1429.16L1438.35 351.231V348.899H1425.14V351.12H1435.77V351.259L1426.55 369ZM1447.93 369.278C1452.12 369.278 1455.07 366.932 1455.09 363.669C1455.07 361.073 1453.26 358.922 1450.98 358.561V358.45C1452.96 357.992 1454.29 356.145 1454.32 353.952C1454.29 350.884 1451.59 348.621 1447.93 348.621C1444.25 348.621 1441.56 350.884 1441.57 353.952C1441.56 356.145 1442.88 357.992 1444.88 358.45V358.561C1442.59 358.922 1440.78 361.073 1440.79 363.669C1440.78 366.932 1443.7 369.278 1447.93 369.278ZM1443.29 363.531C1443.25 361.309 1445.24 359.671 1447.93 359.671C1450.64 359.671 1452.59 361.309 1452.59 363.531C1452.59 365.641 1450.8 367.07 1447.93 367.084C1445.04 367.07 1443.25 365.641 1443.29 363.531ZM1443.99 354.146C1444 352.134 1445.54 350.773 1447.93 350.787C1450.28 350.773 1451.87 352.134 1451.87 354.146C1451.87 356.173 1450.22 357.547 1447.93 357.561C1445.63 357.547 1444 356.173 1443.99 354.146ZM1465.14 348.621C1460.87 348.58 1458.12 351.62 1458.12 355.368C1458.12 359.241 1461.1 362.004 1464.7 362.004C1466.84 362.004 1468.68 361.004 1469.84 359.338H1470.11C1470.09 364.225 1468.09 367.057 1464.81 367.057C1462.58 367.057 1461.2 365.724 1460.76 363.919H1458.29C1458.79 367.112 1461.27 369.278 1464.81 369.278C1469.52 369.278 1472.45 365.294 1472.45 358.144C1472.45 350.745 1468.6 348.663 1465.14 348.621ZM1460.56 355.34C1460.53 352.855 1462.52 350.815 1465.14 350.815C1467.79 350.815 1469.72 352.98 1469.72 355.285C1469.72 357.645 1467.68 359.81 1465.06 359.81C1462.44 359.81 1460.55 357.825 1460.56 355.34Z" fill="black"/>
<path d="M136.258 500.5H153.356V495.911H141.809V473.706H136.258V500.5ZM155.872 494.875C155.891 498.853 158.722 500.889 162.571 500.87C165.55 500.889 167.474 499.575 168.455 497.724H168.603V500.5H173.784V486.955C173.803 482.107 169.658 480.145 165.272 480.145C159.943 480.145 156.908 482.884 156.575 486.363H161.794C162.09 484.993 163.255 484.161 165.124 484.142C167.178 484.161 168.326 485.123 168.344 486.807V488.435C167.493 488.472 164.791 488.602 163.348 488.694C159.481 488.935 155.891 490.397 155.872 494.875ZM161.127 494.727C161.127 493.172 162.33 492.266 164.236 492.099C165.161 492.025 167.511 491.895 168.344 491.858V493.32C168.363 495.448 166.623 497.077 164.125 497.095C162.367 497.077 161.127 496.262 161.127 494.727ZM177.966 500.5H183.444V489.064C183.425 486.603 185.257 484.882 187.737 484.882C188.495 484.882 189.55 485.012 190.068 485.178V480.293C189.587 480.182 188.884 480.108 188.329 480.108C186.071 480.108 184.202 481.422 183.481 483.883H183.259V480.404H177.966V500.5ZM201.134 508.457C206.852 508.457 210.886 505.848 210.904 500.722V480.404H205.464V483.772H205.242C204.502 482.144 202.873 480.145 199.506 480.145C195.064 480.145 191.327 483.531 191.327 490.323C191.327 497.021 194.972 500.222 199.506 500.204C202.744 500.222 204.52 498.576 205.242 496.947H205.501V500.611C205.482 503.405 203.78 504.497 201.245 504.497C199.061 504.497 197.544 503.775 197.248 502.165H191.845C192.159 505.959 195.583 508.457 201.134 508.457ZM196.952 490.397C196.933 486.936 198.414 484.512 201.208 484.512C203.965 484.512 205.501 486.825 205.501 490.397C205.501 493.968 203.947 496.077 201.208 496.096C198.432 496.077 196.933 493.875 196.952 490.397ZM224.264 500.907C229.224 500.889 232.554 498.483 233.332 494.764H228.113C227.577 495.966 226.244 496.781 224.375 496.799C221.544 496.781 219.749 494.912 219.749 491.877H233.48V490.323C233.48 483.476 229.316 480.145 224.042 480.145C218.158 480.145 214.328 484.346 214.346 490.545C214.328 496.91 218.102 500.889 224.264 500.907ZM219.749 488.435C219.86 486.122 221.637 484.235 224.153 484.253C226.596 484.235 228.28 485.993 228.298 488.435H219.749Z" fill="#6B6B6B"/>
<path d="M1185.76 461.171H1184.13V479.729H1185.76V469.877H1188.86V468.502H1185.76V461.171ZM1172.24 475.084H1173.7C1177.22 475.084 1179.65 474.98 1182.55 474.459L1182.34 473.043C1179.58 473.553 1177.22 473.699 1173.87 473.709V464.337H1180.89V462.983H1172.24V475.084ZM1204.34 461.192H1202.71V472.231H1204.34V467.336H1207.15V465.941H1204.34V461.192ZM1190.65 463.545H1197.44V465.982H1190.7V471.252H1192.13C1195.58 471.252 1198.06 471.148 1201.03 470.627L1200.86 469.315C1197.98 469.783 1195.59 469.887 1192.3 469.877V467.253H1199.05V462.191H1190.65V463.545ZM1192.61 479.437H1204.34V473.147H1192.61V479.437ZM1194.22 478.104V474.418H1202.76V478.104H1194.22ZM1215.27 464.274V463.816H1219.31V462.462H1209.48V463.816H1213.54V464.274C1213.54 466.19 1211.7 467.857 1209 468.482L1209.69 469.794C1211.95 469.263 1213.64 468.013 1214.43 466.388C1215.22 467.909 1216.91 469.013 1219.13 469.502L1219.79 468.169C1217.11 467.648 1215.26 466.138 1215.27 464.274ZM1208.25 471.252L1208.48 472.647C1210.03 472.647 1211.82 472.626 1213.69 472.553V479.125H1215.31V472.47C1217.11 472.356 1218.94 472.179 1220.71 471.877L1220.61 470.669C1216.5 471.22 1211.81 471.252 1208.25 471.252ZM1221.96 479.708H1223.56V461.192H1221.96V479.708ZM1237.56 465.045V465.003H1240.91V463.691H1237.56V461.483H1236.02V463.691H1232.6V465.003H1236.02V465.045C1236 467.346 1234.59 469.679 1232.23 470.689L1233.06 471.918C1234.89 471.116 1236.18 469.554 1236.83 467.711C1237.49 469.377 1238.78 470.783 1240.58 471.502L1241.37 470.252C1239.02 469.325 1237.56 467.169 1237.56 465.045ZM1234.48 478.333L1235.08 479.604C1237.86 479.146 1240.5 477.708 1241.62 475.626C1242.75 477.708 1245.37 479.146 1248.18 479.604L1248.76 478.333C1245.56 477.833 1242.43 475.834 1242.43 473.397V472.939H1240.81V473.397C1240.79 475.834 1237.69 477.833 1234.48 478.333ZM1242.25 472.106H1243.83V467.294H1246.24V473.709H1247.81V461.192H1246.24V465.92H1243.83V461.525H1242.25V472.106ZM1264.84 461.171H1263.22V479.687H1264.84V469.877H1267.95V468.461H1264.84V461.171ZM1251.28 475.251H1259.95V462.754H1258.32V467.648H1252.91V462.754H1251.28V475.251ZM1252.91 473.876V468.961H1258.32V473.876H1252.91ZM1279.55 462.546H1270.49V463.899H1277.94C1277.94 464.503 1277.92 465.243 1277.86 466.128L1270.09 466.565L1270.36 467.961L1277.75 467.326C1277.65 468.221 1277.51 469.231 1277.29 470.356C1274.35 470.512 1271.38 470.544 1268.82 470.564L1269.05 471.918C1270.6 471.918 1272.31 471.897 1274.07 471.845V478.583H1275.72V471.772C1277.64 471.679 1279.61 471.533 1281.51 471.293L1281.38 470.044C1280.58 470.127 1279.76 470.2 1278.93 470.252C1279.53 466.961 1279.53 464.68 1279.55 463.358V462.546ZM1282.74 479.687H1284.36V461.171H1282.74V479.687ZM1307.6 466.149H1296.63V463.254H1307.42V461.9H1294.98V467.461H1300.36V469.252H1292.73V470.585H1309.6V469.252H1301.98V467.461H1307.6V466.149ZM1294.77 473.418H1305.83V475.084H1294.82V479.479H1308V478.167H1296.44V476.292H1307.44V472.168H1294.77V473.418ZM1326.45 461.171H1324.83V479.729H1326.45V461.171ZM1312.21 464.253H1319.18V468.148H1312.25V475.23H1313.79C1316.99 475.23 1319.8 475.094 1323.2 474.563L1323.04 473.189C1319.73 473.72 1316.99 473.866 1313.92 473.855V469.481H1320.83V462.9H1312.21V464.253ZM1344.57 466.794H1333.51V461.858H1331.89V468.107H1344.57V466.794ZM1329.58 471.96H1346.53V470.627H1329.58V471.96ZM1331.79 479.229H1344.68V477.875H1333.41V473.855H1331.79V479.229ZM1370.34 475.917H1362.57V471.377H1360.97V475.917H1353.38V477.271H1370.34V475.917ZM1354.05 470.231L1354.78 471.585C1357.61 471.002 1360.56 469.086 1361.78 466.43C1362.98 469.096 1365.95 471.002 1368.78 471.585L1369.51 470.231C1366.28 469.679 1362.62 466.951 1362.61 463.858V462.441H1360.9V463.858C1360.89 466.972 1357.29 469.679 1354.05 470.231ZM1387.11 461.171H1385.48V479.729H1387.11V461.171ZM1372.86 464.253H1379.84V468.148H1372.9V475.23H1374.44C1377.64 475.23 1380.45 475.094 1383.86 474.563L1383.69 473.189C1380.38 473.72 1377.64 473.866 1374.57 473.855V469.481H1381.48V462.9H1372.86V464.253ZM1404.58 461.171H1402.96V479.687H1404.58V470.085H1407.58V468.711H1404.58V461.171ZM1390.38 474.876L1391.29 476.167C1397.32 473.189 1399.78 468.409 1399.79 463.17H1391.23V464.545H1398.13C1397.76 468.929 1395.16 472.501 1390.38 474.876ZM1430.93 468.961H1414.04V470.273H1430.93V468.961ZM1416.08 473.21H1427.14V475.001H1416.12V479.479H1429.3V478.146H1417.74V476.23H1428.74V471.939H1416.08V473.21ZM1416.29 467.44H1428.91V466.107H1417.93V463.129H1428.72V461.817H1416.29V467.44ZM1447.74 461.192H1446.13V474.813H1447.74V461.192ZM1433.41 463.837H1440.24V466.565H1433.45V472.189H1434.95C1438.5 472.168 1440.99 472.064 1444.01 471.543L1443.84 470.189C1440.9 470.71 1438.48 470.814 1435.03 470.814V467.857H1441.86V462.504H1433.41V463.837ZM1435.59 479.291H1448.28V477.917H1437.24V473.751H1435.59V479.291ZM1465.23 461.171H1463.61V479.729H1465.23V469.877H1468.33V468.502H1465.23V461.171ZM1451.71 475.084H1453.17C1456.69 475.084 1459.12 474.98 1462.02 474.459L1461.82 473.043C1459.06 473.553 1456.69 473.699 1453.34 473.709V464.337H1460.36V462.983H1451.71V475.084ZM1471.29 478.125C1472.03 478.115 1472.64 477.511 1472.63 476.771C1472.64 476.042 1472.03 475.438 1471.29 475.438C1470.56 475.438 1469.94 476.042 1469.96 476.771C1469.94 477.511 1470.56 478.115 1471.29 478.125ZM1356.01 512.208C1359.35 512.208 1361.28 509.396 1361.28 504.46C1361.28 499.566 1359.32 496.712 1356.01 496.712C1352.69 496.712 1350.73 499.566 1350.74 504.46C1350.73 509.396 1352.67 512.208 1356.01 512.208ZM1352.55 504.46C1352.56 500.555 1353.84 498.347 1356.01 498.337C1358.17 498.347 1359.46 500.555 1359.45 504.46C1359.46 508.365 1358.19 510.542 1356.01 510.542C1353.82 510.542 1352.56 508.365 1352.55 504.46ZM1369.11 496.92H1367.21L1363.47 499.42V501.315L1367.13 498.878H1367.21V512H1369.11V496.92ZM1373.13 512H1382.92V510.334H1375.73V510.209L1379.19 506.647C1381.86 503.898 1382.64 502.586 1382.65 500.899C1382.64 498.555 1380.7 496.712 1377.96 496.712C1375.23 496.712 1373.17 498.503 1373.19 501.169H1374.96C1374.97 499.482 1376.1 498.347 1377.9 498.337C1379.6 498.347 1380.89 499.347 1380.9 500.899C1380.89 502.294 1380.03 503.315 1378.25 505.21L1373.11 510.625L1373.13 512ZM1390.85 512.208C1393.86 512.208 1396.11 510.375 1396.1 507.897C1396.11 505.981 1394.93 504.575 1392.96 504.273V504.169C1394.54 503.721 1395.54 502.471 1395.52 500.753C1395.54 498.597 1393.79 496.712 1390.92 496.712C1388.24 496.712 1386.01 498.316 1385.92 500.711H1387.73C1387.81 499.232 1389.28 498.347 1390.9 498.337C1392.61 498.347 1393.72 499.347 1393.71 500.857C1393.72 502.409 1392.44 503.44 1390.6 503.44H1389.38V505.085H1390.6C1392.95 505.095 1394.26 506.251 1394.27 507.897C1394.26 509.469 1392.82 510.542 1390.83 510.542C1389.03 510.542 1387.6 509.646 1387.5 508.209H1385.61C1385.7 510.605 1387.85 512.208 1390.85 512.208ZM1398.44 508.917H1405.75V512H1407.54V508.917H1409.64V507.272H1407.54V496.92H1405.23L1398.44 507.376V508.917ZM1400.46 507.272V507.147L1405.56 499.295H1405.75V507.272H1400.46ZM1417.04 512.208C1420.04 512.208 1422.23 510.105 1422.24 507.189C1422.23 504.252 1420.12 502.127 1417.24 502.127C1416.18 502.127 1415.17 502.482 1414.49 503.002H1414.35L1414.91 498.587H1421.51V496.92H1413.35L1412.29 505.168H1414.1C1414.65 504.189 1415.64 503.794 1416.91 503.815C1418.94 503.825 1420.41 505.273 1420.41 507.23C1420.41 509.126 1418.99 510.552 1417.04 510.563C1415.4 510.552 1414.09 509.553 1413.95 508.209H1412.14C1412.26 510.532 1414.32 512.208 1417.04 512.208ZM1430.09 512.208C1433.27 512.24 1435.34 509.969 1435.34 507.126C1435.34 504.21 1433.1 502.127 1430.43 502.127C1428.8 502.127 1427.42 502.867 1426.55 504.127H1426.37C1426.36 500.492 1427.84 498.378 1430.32 498.378C1432 498.378 1433.02 499.378 1433.36 500.711H1435.22C1434.83 498.347 1432.98 496.712 1430.32 496.712C1426.78 496.712 1424.6 499.701 1424.6 505.043C1424.6 510.625 1427.48 512.177 1430.09 512.208ZM1426.62 507.168C1426.64 505.387 1428.16 503.783 1430.14 503.773C1432.1 503.783 1433.52 505.293 1433.53 507.147C1433.52 509.022 1432.04 510.552 1430.09 510.563C1428.07 510.552 1426.63 508.938 1426.62 507.168ZM1438.4 512H1440.36L1447.26 498.67V496.92H1437.34V498.587H1445.32V498.691L1438.4 512ZM1454.44 512.208C1457.59 512.208 1459.8 510.448 1459.82 508.001C1459.8 506.054 1458.44 504.439 1456.73 504.169V504.085C1458.21 503.742 1459.21 502.357 1459.23 500.711C1459.21 498.41 1457.19 496.712 1454.44 496.712C1451.68 496.712 1449.66 498.41 1449.67 500.711C1449.66 502.357 1450.65 503.742 1452.15 504.085V504.169C1450.43 504.439 1449.08 506.054 1449.09 508.001C1449.08 510.448 1451.27 512.208 1454.44 512.208ZM1450.96 507.897C1450.93 506.231 1452.42 505.002 1454.44 505.002C1456.47 505.002 1457.94 506.231 1457.94 507.897C1457.94 509.48 1456.6 510.552 1454.44 510.563C1452.28 510.552 1450.93 509.48 1450.96 507.897ZM1451.48 500.857C1451.5 499.347 1452.65 498.326 1454.44 498.337C1456.2 498.326 1457.4 499.347 1457.4 500.857C1457.4 502.377 1456.16 503.408 1454.44 503.419C1452.71 503.408 1451.5 502.377 1451.48 500.857ZM1467.36 496.712C1464.15 496.681 1462.09 498.962 1462.09 501.773C1462.09 504.679 1464.33 506.751 1467.02 506.751C1468.63 506.751 1470.01 506.002 1470.88 504.752H1471.08C1471.06 508.418 1469.56 510.542 1467.11 510.542C1465.43 510.542 1464.4 509.542 1464.06 508.188H1462.21C1462.59 510.584 1464.45 512.208 1467.11 512.208C1470.64 512.208 1472.83 509.219 1472.83 503.856C1472.83 498.306 1469.95 496.743 1467.36 496.712ZM1463.92 501.753C1463.9 499.888 1465.39 498.358 1467.36 498.358C1469.34 498.358 1470.79 499.982 1470.79 501.711C1470.79 503.481 1469.26 505.106 1467.29 505.106C1465.33 505.106 1463.91 503.617 1463.92 501.753Z" fill="black"/>
<path d="M136.258 606.206V633H141.661V615.384H141.883L148.878 632.889H152.578L159.573 615.458H159.795V633H165.198V606.206H158.315L150.876 624.377H150.58L143.141 606.206H136.258ZM178.707 633.407C183.666 633.389 186.997 630.983 187.774 627.264H182.556C182.019 628.466 180.687 629.281 178.818 629.299C175.986 629.281 174.192 627.412 174.192 624.377H187.922V622.823C187.922 615.976 183.758 612.645 178.485 612.645C172.6 612.645 168.77 616.846 168.788 623.045C168.77 629.41 172.545 633.389 178.707 633.407ZM174.192 620.935C174.303 618.622 176.079 616.735 178.596 616.753C181.038 616.735 182.722 618.493 182.741 620.935H174.192ZM198.765 633.333C202.041 633.333 203.706 631.446 204.465 629.78H204.724V633H210.127V606.206H204.65V616.272H204.465C203.743 614.644 202.133 612.645 198.765 612.645C194.324 612.645 190.586 616.087 190.586 622.971C190.586 629.688 194.176 633.333 198.765 633.333ZM196.212 622.934C196.193 619.436 197.674 617.012 200.468 617.012C203.225 617.012 204.761 619.325 204.761 622.934C204.761 626.56 203.206 628.948 200.468 628.966C197.692 628.948 196.193 626.486 196.212 622.934ZM214.531 633H220.008V612.904H214.531V633ZM214.272 607.501C214.272 609.018 215.623 610.277 217.27 610.277C218.898 610.277 220.249 609.018 220.23 607.501C220.249 605.947 218.898 604.707 217.27 604.688C215.623 604.707 214.272 605.947 214.272 607.501ZM237.143 624.451C237.143 627.19 235.256 628.614 233.258 628.633C231.111 628.614 229.742 627.134 229.742 624.747V612.904H224.264V625.709C224.264 630.409 227.022 633.259 231.037 633.259C234.072 633.259 236.237 631.705 237.143 629.373H237.366V633H242.621V612.904H237.143V624.451ZM246.877 633H252.354V620.935C252.336 618.659 253.779 617.16 255.648 617.16C257.517 617.16 258.775 618.437 258.757 620.417V633H264.086V620.713C264.067 618.585 265.289 617.16 267.343 617.16C269.138 617.16 270.507 618.271 270.488 620.565V633H275.966V619.492C275.966 615.106 273.357 612.645 269.637 612.645C266.695 612.645 264.4 614.144 263.568 616.42H263.383C262.717 614.107 260.663 612.645 257.905 612.645C255.204 612.645 253.168 614.07 252.317 616.42H252.095V612.904H246.877V633Z" fill="#6B6B6B"/>
<path d="M1261.77 599.875H1260.55V613.797H1261.77V606.406H1264.09V605.375H1261.77V599.875ZM1251.62 610.312H1252.72C1255.36 610.312 1257.18 610.234 1259.36 609.844L1259.2 608.781C1257.13 609.164 1255.36 609.273 1252.84 609.281V602.25H1258.11V601.234H1251.62V610.312ZM1275.7 599.891H1274.48V608.172H1275.7V604.5H1277.81V603.453H1275.7V599.891ZM1265.44 601.656H1270.53V603.484H1265.47V607.438H1266.55C1269.13 607.438 1270.99 607.359 1273.22 606.969L1273.09 605.984C1270.93 606.336 1269.14 606.414 1266.67 606.406V604.438H1271.73V600.641H1265.44V601.656ZM1266.91 613.578H1275.7V608.859H1266.91V613.578ZM1268.11 612.578V609.812H1274.52V612.578H1268.11ZM1283.91 602.203V601.859H1286.94V600.844H1279.56V601.859H1282.61V602.203C1282.61 603.641 1281.23 604.891 1279.2 605.359L1279.72 606.344C1281.41 605.945 1282.68 605.008 1283.27 603.789C1283.87 604.93 1285.13 605.758 1286.8 606.125L1287.3 605.125C1285.28 604.734 1283.9 603.602 1283.91 602.203ZM1278.64 607.438L1278.81 608.484C1279.98 608.484 1281.31 608.469 1282.72 608.414V613.344H1283.94V608.352C1285.28 608.266 1286.66 608.133 1287.98 607.906L1287.91 607C1284.83 607.414 1281.3 607.438 1278.64 607.438ZM1288.92 613.781H1290.12V599.891H1288.92V613.781ZM1300.62 602.781V602.75H1303.14V601.766H1300.62V600.109H1299.47V601.766H1296.91V602.75H1299.47V602.781C1299.45 604.508 1298.4 606.258 1296.62 607.016L1297.25 607.938C1298.62 607.336 1299.59 606.164 1300.08 604.781C1300.57 606.031 1301.54 607.086 1302.89 607.625L1303.48 606.688C1301.72 605.992 1300.62 604.375 1300.62 602.781ZM1298.31 612.75L1298.77 613.703C1300.85 613.359 1302.83 612.281 1303.67 610.719C1304.52 612.281 1306.48 613.359 1308.59 613.703L1309.03 612.75C1306.62 612.375 1304.28 610.875 1304.28 609.047V608.703H1303.06V609.047C1303.05 610.875 1300.73 612.375 1298.31 612.75ZM1304.14 608.078H1305.33V604.469H1307.14V609.281H1308.31V599.891H1307.14V603.438H1305.33V600.141H1304.14V608.078ZM1321.09 599.875H1319.88V613.766H1321.09V606.406H1323.42V605.344H1321.09V599.875ZM1310.92 610.438H1317.42V601.062H1316.2V604.734H1312.14V601.062H1310.92V610.438ZM1312.14 609.406V605.719H1316.2V609.406H1312.14ZM1332.12 600.906H1325.33V601.922H1330.92C1330.92 602.375 1330.91 602.93 1330.86 603.594L1325.03 603.922L1325.23 604.969L1330.77 604.492C1330.7 605.164 1330.59 605.922 1330.43 606.766C1328.23 606.883 1326 606.906 1324.08 606.922L1324.25 607.938C1325.41 607.938 1326.7 607.922 1328.02 607.883V612.938H1329.25V607.828C1330.7 607.758 1332.17 607.648 1333.59 607.469L1333.5 606.531C1332.9 606.594 1332.28 606.648 1331.66 606.688C1332.11 604.219 1332.11 602.508 1332.12 601.516V600.906ZM1334.52 613.766H1335.73V599.875H1334.52V613.766ZM1353.17 603.609H1344.94V601.438H1353.03V600.422H1343.7V604.594H1347.73V605.938H1342.02V606.938H1354.67V605.938H1348.95V604.594H1353.17V603.609ZM1343.55 609.062H1351.84V610.312H1343.58V613.609H1353.47V612.625H1344.8V611.219H1353.05V608.125H1343.55V609.062ZM1367.31 599.875H1366.09V613.797H1367.31V599.875ZM1356.62 602.188H1361.86V605.109H1356.66V610.422H1357.81C1360.21 610.422 1362.32 610.32 1364.88 609.922L1364.75 608.891C1362.27 609.289 1360.21 609.398 1357.91 609.391V606.109H1363.09V601.172H1356.62V602.188ZM1380.91 604.094H1372.61V600.391H1371.39V605.078H1380.91V604.094ZM1369.66 607.969H1382.38V606.969H1369.66V607.969ZM1371.31 613.422H1380.98V612.406H1372.53V609.391H1371.31V613.422ZM1400.23 610.938H1394.41V607.531H1393.2V610.938H1387.52V611.953H1400.23V610.938ZM1388.02 606.672L1388.56 607.688C1390.69 607.25 1392.9 605.812 1393.81 603.82C1394.71 605.82 1396.95 607.25 1399.06 607.688L1399.61 606.672C1397.19 606.258 1394.45 604.211 1394.44 601.891V600.828H1393.16V601.891C1393.15 604.227 1390.45 606.258 1388.02 606.672ZM1412.81 599.875H1411.59V613.797H1412.81V599.875ZM1402.12 602.188H1407.36V605.109H1402.16V610.422H1403.31C1405.71 610.422 1407.82 610.32 1410.38 609.922L1410.25 608.891C1407.77 609.289 1405.71 609.398 1403.41 609.391V606.109H1408.59V601.172H1402.12V602.188ZM1425.92 599.875H1424.7V613.766H1425.92V606.562H1428.17V605.531H1425.92V599.875ZM1415.27 610.156L1415.95 611.125C1420.48 608.891 1422.32 605.305 1422.33 601.375H1415.91V602.406H1421.09C1420.8 605.695 1418.85 608.375 1415.27 610.156ZM1445.69 605.719H1433.02V606.703H1445.69V605.719ZM1434.55 608.906H1442.84V610.25H1434.58V613.609H1444.47V612.609H1435.8V611.172H1444.05V607.953H1434.55V608.906ZM1434.7 604.578H1444.17V603.578H1435.94V601.344H1444.03V600.359H1434.7V604.578ZM1458.3 599.891H1457.09V610.109H1458.3V599.891ZM1447.55 601.875H1452.67V603.922H1447.58V608.141H1448.7C1451.37 608.125 1453.23 608.047 1455.5 607.656L1455.38 606.641C1453.17 607.031 1451.35 607.109 1448.77 607.109V604.891H1453.89V600.875H1447.55V601.875ZM1449.19 613.469H1458.7V612.438H1450.42V609.312H1449.19V613.469ZM1471.42 599.875H1470.2V613.797H1471.42V606.406H1473.75V605.375H1471.42V599.875ZM1461.28 610.312H1462.38C1465.02 610.312 1466.84 610.234 1469.02 609.844L1468.86 608.781C1466.79 609.164 1465.02 609.273 1462.5 609.281V602.25H1467.77V601.234H1461.28V610.312ZM1475.97 612.594C1476.52 612.586 1476.98 612.133 1476.97 611.578C1476.98 611.031 1476.52 610.578 1475.97 610.578C1475.42 610.578 1474.95 611.031 1474.97 611.578C1474.95 612.133 1475.42 612.586 1475.97 612.594ZM1389.48 638.656C1391.99 638.656 1393.44 636.547 1393.44 632.844C1393.44 629.172 1391.97 627.031 1389.48 627.031C1386.99 627.031 1385.52 629.172 1385.53 632.844C1385.52 636.547 1386.98 638.656 1389.48 638.656ZM1386.89 632.844C1386.9 629.914 1387.86 628.258 1389.48 628.25C1391.11 628.258 1392.07 629.914 1392.06 632.844C1392.07 635.773 1391.12 637.406 1389.48 637.406C1387.84 637.406 1386.9 635.773 1386.89 632.844ZM1399.31 627.188H1397.89L1395.08 629.062V630.484L1397.83 628.656H1397.89V638.5H1399.31V627.188ZM1402.33 638.5H1409.67V637.25H1404.28V637.156L1406.88 634.484C1408.88 632.422 1409.46 631.438 1409.47 630.172C1409.46 628.414 1408.01 627.031 1405.95 627.031C1403.91 627.031 1402.36 628.375 1402.38 630.375H1403.7C1403.71 629.109 1404.55 628.258 1405.91 628.25C1407.18 628.258 1408.15 629.008 1408.16 630.172C1408.15 631.219 1407.51 631.984 1406.17 633.406L1402.31 637.469L1402.33 638.5ZM1415.62 638.656C1417.88 638.656 1419.57 637.281 1419.56 635.422C1419.57 633.984 1418.68 632.93 1417.2 632.703V632.625C1418.39 632.289 1419.14 631.352 1419.12 630.062C1419.14 628.445 1417.83 627.031 1415.67 627.031C1413.66 627.031 1411.99 628.234 1411.92 630.031H1413.28C1413.34 628.922 1414.45 628.258 1415.66 628.25C1416.95 628.258 1417.77 629.008 1417.77 630.141C1417.77 631.305 1416.81 632.078 1415.44 632.078H1414.52V633.312H1415.44C1417.2 633.32 1418.18 634.188 1418.19 635.422C1418.18 636.602 1417.1 637.406 1415.61 637.406C1414.26 637.406 1413.19 636.734 1413.11 635.656H1411.69C1411.76 637.453 1413.38 638.656 1415.62 638.656ZM1421.31 636.188H1426.8V638.5H1428.14V636.188H1429.72V634.953H1428.14V627.188H1426.41L1421.31 635.031V636.188ZM1422.83 634.953V634.859L1426.66 628.969H1426.8V634.953H1422.83ZM1435.27 638.656C1437.52 638.656 1439.16 637.078 1439.17 634.891C1439.16 632.688 1437.58 631.094 1435.42 631.094C1434.62 631.094 1433.87 631.359 1433.36 631.75H1433.25L1433.67 628.438H1438.62V627.188H1432.5L1431.7 633.375H1433.06C1433.48 632.641 1434.22 632.344 1435.17 632.359C1436.7 632.367 1437.8 633.453 1437.8 634.922C1437.8 636.344 1436.73 637.414 1435.27 637.422C1434.04 637.414 1433.05 636.664 1432.95 635.656H1431.59C1431.68 637.398 1433.23 638.656 1435.27 638.656ZM1445.06 638.656C1447.45 638.68 1449 636.977 1449 634.844C1449 632.656 1447.32 631.094 1445.31 631.094C1444.09 631.094 1443.05 631.648 1442.41 632.594H1442.27C1442.26 629.867 1443.38 628.281 1445.23 628.281C1446.49 628.281 1447.26 629.031 1447.52 630.031H1448.91C1448.62 628.258 1447.23 627.031 1445.23 627.031C1442.58 627.031 1440.94 629.273 1440.94 633.281C1440.94 637.469 1443.1 638.633 1445.06 638.656ZM1442.45 634.875C1442.47 633.539 1443.61 632.336 1445.09 632.328C1446.57 632.336 1447.63 633.469 1447.64 634.859C1447.63 636.266 1446.52 637.414 1445.06 637.422C1443.55 637.414 1442.46 636.203 1442.45 634.875ZM1451.3 638.5H1452.77L1457.94 628.5V627.188H1450.5V628.438H1456.48V628.516L1451.3 638.5ZM1463.33 638.656C1465.69 638.656 1467.34 637.336 1467.36 635.5C1467.34 634.039 1466.33 632.828 1465.05 632.625V632.562C1466.16 632.305 1466.91 631.266 1466.92 630.031C1466.91 628.305 1465.39 627.031 1463.33 627.031C1461.26 627.031 1459.74 628.305 1459.75 630.031C1459.74 631.266 1460.48 632.305 1461.61 632.562V632.625C1460.32 632.828 1459.3 634.039 1459.31 635.5C1459.3 637.336 1460.95 638.656 1463.33 638.656ZM1460.72 635.422C1460.7 634.172 1461.81 633.25 1463.33 633.25C1464.85 633.25 1465.95 634.172 1465.95 635.422C1465.95 636.609 1464.95 637.414 1463.33 637.422C1461.7 637.414 1460.7 636.609 1460.72 635.422ZM1461.11 630.141C1461.12 629.008 1461.98 628.242 1463.33 628.25C1464.65 628.242 1465.55 629.008 1465.55 630.141C1465.55 631.281 1464.62 632.055 1463.33 632.062C1462.03 632.055 1461.12 631.281 1461.11 630.141ZM1473.02 627.031C1470.61 627.008 1469.06 628.719 1469.06 630.828C1469.06 633.008 1470.74 634.562 1472.77 634.562C1473.97 634.562 1475.01 634 1475.66 633.062H1475.81C1475.8 635.812 1474.67 637.406 1472.83 637.406C1471.57 637.406 1470.8 636.656 1470.55 635.641H1469.16C1469.44 637.438 1470.84 638.656 1472.83 638.656C1475.48 638.656 1477.12 636.414 1477.12 632.391C1477.12 628.227 1474.96 627.055 1473.02 627.031ZM1470.44 630.812C1470.42 629.414 1471.54 628.266 1473.02 628.266C1474.51 628.266 1475.59 629.484 1475.59 630.781C1475.59 632.109 1474.45 633.328 1472.97 633.328C1471.49 633.328 1470.43 632.211 1470.44 630.812Z" fill="black"/>
<path d="M150.802 738.866H156.131C156.057 734.129 152.153 730.836 146.213 730.836C140.347 730.836 136.054 734.074 136.072 738.94C136.072 742.863 138.848 745.121 143.363 746.231L146.287 746.934C149.211 747.656 150.876 748.507 150.876 750.339C150.876 752.338 148.989 753.707 146.065 753.707C143.104 753.707 140.958 752.338 140.773 749.636H135.369C135.536 755.391 139.662 758.389 146.139 758.37C152.671 758.389 156.483 755.243 156.501 750.339C156.483 745.88 153.06 743.548 148.47 742.493L146.065 741.901C143.752 741.383 141.753 740.513 141.772 738.57C141.79 736.794 143.363 735.499 146.176 735.499C148.896 735.499 150.58 736.738 150.802 738.866ZM160.017 758H165.494V745.935C165.476 743.659 166.919 742.16 168.788 742.16C170.657 742.16 171.916 743.437 171.897 745.417V758H177.226V745.713C177.208 743.585 178.429 742.16 180.483 742.16C182.278 742.16 183.647 743.271 183.629 745.565V758H189.106V744.492C189.106 740.106 186.497 737.645 182.778 737.645C179.835 737.645 177.541 739.144 176.708 741.42H176.523C175.857 739.107 173.803 737.645 171.046 737.645C168.344 737.645 166.309 739.07 165.457 741.42H165.235V737.904H160.017V758ZM192.363 752.375C192.381 756.353 195.213 758.389 199.061 758.37C202.041 758.389 203.965 757.075 204.946 755.224H205.094V758H210.275V744.455C210.294 739.607 206.149 737.645 201.763 737.645C196.434 737.645 193.399 740.384 193.066 743.863H198.284C198.58 742.493 199.746 741.661 201.615 741.642C203.669 741.661 204.816 742.623 204.835 744.307V745.935C203.984 745.972 201.282 746.102 199.839 746.194C195.971 746.435 192.381 747.897 192.363 752.375ZM197.618 752.227C197.618 750.672 198.821 749.766 200.727 749.599C201.652 749.525 204.002 749.395 204.835 749.358V750.82C204.853 752.948 203.114 754.577 200.616 754.595C198.858 754.577 197.618 753.762 197.618 752.227ZM219.934 731.206H214.457V758H219.934V731.206ZM229.668 731.206H224.19V758H229.668V731.206Z" fill="#6B6B6B"/>
<path d="M1314.78 730.029H1313.87V740.473H1314.78V734.929H1316.53V734.155H1314.78V730.029ZM1307.18 737.859H1308C1309.98 737.859 1311.34 737.8 1312.98 737.507L1312.86 736.71C1311.31 736.997 1309.98 737.079 1308.09 737.085V731.811H1312.04V731.049H1307.18V737.859ZM1325.24 730.041H1324.33V736.253H1325.24V733.498H1326.82V732.713H1325.24V730.041ZM1317.54 731.365H1321.36V732.737H1317.56V735.702H1318.37C1320.31 735.702 1321.71 735.644 1323.38 735.351L1323.28 734.612C1321.66 734.876 1320.32 734.934 1318.46 734.929V733.452H1322.26V730.603H1317.54V731.365ZM1318.64 740.309H1325.24V736.769H1318.64V740.309ZM1319.54 739.559V737.484H1324.35V739.559H1319.54ZM1331.39 731.775V731.518H1333.67V730.756H1328.13V731.518H1330.42V731.775C1330.42 732.854 1329.38 733.792 1327.87 734.143L1328.25 734.882C1329.52 734.583 1330.47 733.879 1330.92 732.965C1331.36 733.821 1332.31 734.442 1333.56 734.718L1333.94 733.967C1332.42 733.674 1331.39 732.825 1331.39 731.775ZM1327.44 735.702L1327.57 736.488C1328.45 736.488 1329.45 736.476 1330.5 736.435V740.133H1331.42V736.388C1332.42 736.323 1333.46 736.224 1334.45 736.054L1334.39 735.374C1332.08 735.685 1329.44 735.702 1327.44 735.702ZM1335.16 740.461H1336.06V730.041H1335.16V740.461ZM1343.94 732.209V732.186H1345.82V731.447H1343.94V730.205H1343.07V731.447H1341.15V732.186H1343.07V732.209C1343.06 733.504 1342.27 734.817 1340.93 735.386L1341.4 736.077C1342.44 735.626 1343.16 734.747 1343.53 733.709C1343.89 734.647 1344.62 735.438 1345.64 735.843L1346.08 735.14C1344.76 734.618 1343.94 733.405 1343.94 732.209ZM1342.2 739.688L1342.54 740.403C1344.11 740.145 1345.59 739.336 1346.22 738.164C1346.85 739.336 1348.33 740.145 1349.91 740.403L1350.24 739.688C1348.44 739.406 1346.68 738.281 1346.68 736.91V736.652H1345.76V736.91C1345.75 738.281 1344.01 739.406 1342.2 739.688ZM1346.57 736.183H1347.46V733.475H1348.82V737.085H1349.7V730.041H1348.82V732.701H1347.46V730.228H1346.57V736.183ZM1359.29 730.029H1358.38V740.449H1359.29V734.929H1361.04V734.131H1359.29V730.029ZM1351.66 737.953H1356.54V730.92H1355.62V733.674H1352.57V730.92H1351.66V737.953ZM1352.57 737.179V734.413H1355.62V737.179H1352.57ZM1367.57 730.803H1362.47V731.564H1366.66C1366.66 731.904 1366.65 732.32 1366.62 732.819L1362.24 733.065L1362.4 733.85L1366.55 733.493C1366.5 733.997 1366.42 734.565 1366.29 735.198C1364.64 735.286 1362.97 735.304 1361.53 735.315L1361.66 736.077C1362.53 736.077 1363.49 736.066 1364.48 736.036V739.828H1365.41V735.995C1366.49 735.942 1367.6 735.86 1368.67 735.726L1368.6 735.022C1368.15 735.069 1367.68 735.11 1367.22 735.14C1367.55 733.288 1367.55 732.004 1367.57 731.26V730.803ZM1369.36 740.449H1370.27V730.029H1369.36V740.449ZM1383.36 732.83H1377.18V731.201H1383.25V730.439H1376.25V733.569H1379.28V734.577H1374.99V735.327H1384.48V734.577H1380.19V733.569H1383.36V732.83ZM1376.13 736.921H1382.36V737.859H1376.16V740.332H1383.58V739.594H1377.07V738.539H1383.26V736.218H1376.13V736.921ZM1393.96 730.029H1393.05V740.473H1393.96V730.029ZM1385.95 731.764H1389.87V733.956H1385.97V737.941H1386.84C1388.64 737.941 1390.22 737.865 1392.14 737.566L1392.04 736.792C1390.18 737.091 1388.64 737.173 1386.91 737.167V734.706H1390.8V731.002H1385.95V731.764ZM1404.16 733.194H1397.94V730.416H1397.02V733.932H1404.16V733.194ZM1395.72 736.101H1405.26V735.351H1395.72V736.101ZM1396.96 740.192H1404.22V739.43H1397.88V737.167H1396.96V740.192ZM1418.66 738.328H1414.29V735.773H1413.39V738.328H1409.12V739.09H1418.66V738.328ZM1409.49 735.128L1409.91 735.89C1411.5 735.562 1413.16 734.483 1413.84 732.989C1414.52 734.489 1416.19 735.562 1417.78 735.89L1418.19 735.128C1416.38 734.817 1414.32 733.282 1414.31 731.541V730.744H1413.35V731.541C1413.35 733.293 1411.32 734.817 1409.49 735.128ZM1428.1 730.029H1427.18V740.473H1428.1V730.029ZM1420.08 731.764H1424.01V733.956H1420.1V737.941H1420.97C1422.77 737.941 1424.35 737.865 1426.27 737.566L1426.17 736.792C1424.31 737.091 1422.77 737.173 1421.04 737.167V734.706H1424.93V731.002H1420.08V731.764ZM1437.93 730.029H1437.02V740.449H1437.93V735.046H1439.62V734.272H1437.93V730.029ZM1429.94 737.742L1430.45 738.468C1433.85 736.792 1435.23 734.102 1435.24 731.154H1430.42V731.928H1434.3C1434.09 734.395 1432.63 736.405 1429.94 737.742ZM1452.76 734.413H1443.25V735.151H1452.76V734.413ZM1444.4 736.804H1450.63V737.812H1444.43V740.332H1451.85V739.582H1445.34V738.504H1451.53V736.089H1444.4V736.804ZM1444.52 733.557H1451.62V732.807H1445.45V731.131H1451.52V730.392H1444.52V733.557ZM1462.22 730.041H1461.32V737.707H1462.22V730.041ZM1454.15 731.529H1458V733.065H1454.18V736.23H1455.02C1457.02 736.218 1458.42 736.159 1460.12 735.866L1460.03 735.104C1458.37 735.397 1457.01 735.456 1455.07 735.456V733.792H1458.91V730.779H1454.15V731.529ZM1455.39 740.227H1462.52V739.453H1456.31V737.109H1455.39V740.227ZM1472.07 730.029H1471.15V740.473H1472.07V734.929H1473.81V734.155H1472.07V730.029ZM1464.46 737.859H1465.28C1467.26 737.859 1468.62 737.8 1470.26 737.507L1470.14 736.71C1468.59 736.997 1467.26 737.079 1465.37 737.085V731.811H1469.32V731.049H1464.46V737.859ZM1475.48 739.57C1475.89 739.564 1476.23 739.225 1476.23 738.808C1476.23 738.398 1475.89 738.058 1475.48 738.058C1475.07 738.058 1474.71 738.398 1474.73 738.808C1474.71 739.225 1475.07 739.564 1475.48 739.57ZM1410.6 758.617C1412.48 758.617 1413.56 757.035 1413.56 754.257C1413.56 751.502 1412.46 749.896 1410.6 749.896C1408.73 749.896 1407.63 751.502 1407.63 754.257C1407.63 757.035 1408.72 758.617 1410.6 758.617ZM1408.65 754.257C1408.66 752.059 1409.38 750.816 1410.6 750.811C1411.82 750.816 1412.54 752.059 1412.53 754.257C1412.54 756.455 1411.82 757.679 1410.6 757.679C1409.37 757.679 1408.66 756.455 1408.65 754.257ZM1417.97 750.014H1416.9L1414.79 751.42V752.487L1416.86 751.115H1416.9V758.5H1417.97V750.014ZM1420.23 758.5H1425.74V757.562H1421.7V757.492L1423.64 755.488C1425.14 753.94 1425.58 753.202 1425.59 752.252C1425.58 750.934 1424.49 749.896 1422.95 749.896C1421.42 749.896 1420.26 750.904 1420.27 752.405H1421.26C1421.27 751.455 1421.9 750.816 1422.92 750.811C1423.87 750.816 1424.6 751.379 1424.6 752.252C1424.6 753.038 1424.12 753.612 1423.12 754.679L1420.22 757.726L1420.23 758.5ZM1430.21 758.617C1431.9 758.617 1433.17 757.586 1433.16 756.191C1433.17 755.112 1432.5 754.321 1431.39 754.151V754.093C1432.28 753.841 1432.84 753.137 1432.83 752.17C1432.84 750.957 1431.86 749.896 1430.24 749.896C1428.74 749.896 1427.48 750.799 1427.43 752.147H1428.45C1428.5 751.315 1429.32 750.816 1430.23 750.811C1431.2 750.816 1431.82 751.379 1431.81 752.229C1431.82 753.102 1431.1 753.682 1430.07 753.682H1429.37V754.608H1430.07C1431.39 754.614 1432.12 755.265 1432.13 756.191C1432.12 757.076 1431.31 757.679 1430.2 757.679C1429.18 757.679 1428.38 757.175 1428.32 756.367H1427.25C1427.31 757.715 1428.52 758.617 1430.21 758.617ZM1434.47 756.765H1438.59V758.5H1439.6V756.765H1440.78V755.839H1439.6V750.014H1438.3L1434.47 755.898V756.765ZM1435.61 755.839V755.769L1438.48 751.35H1438.59V755.839H1435.61ZM1444.94 758.617C1446.63 758.617 1447.87 757.433 1447.87 755.792C1447.87 754.14 1446.68 752.944 1445.06 752.944C1444.46 752.944 1443.89 753.143 1443.51 753.436H1443.43L1443.75 750.951H1447.46V750.014H1442.87L1442.27 754.655H1443.29C1443.6 754.104 1444.16 753.882 1444.87 753.893C1446.01 753.899 1446.84 754.714 1446.84 755.816C1446.84 756.882 1446.04 757.685 1444.94 757.691C1444.02 757.685 1443.28 757.123 1443.21 756.367H1442.19C1442.25 757.674 1443.41 758.617 1444.94 758.617ZM1452.29 758.617C1454.08 758.635 1455.24 757.357 1455.24 755.757C1455.24 754.116 1453.98 752.944 1452.48 752.944C1451.56 752.944 1450.78 753.36 1450.3 754.069H1450.19C1450.19 752.024 1451.02 750.834 1452.42 750.834C1453.36 750.834 1453.94 751.397 1454.13 752.147H1455.17C1454.96 750.816 1453.91 749.896 1452.42 749.896C1450.43 749.896 1449.2 751.578 1449.2 754.585C1449.2 757.726 1450.82 758.6 1452.29 758.617ZM1450.33 755.781C1450.34 754.778 1451.2 753.876 1452.31 753.87C1453.42 753.876 1454.22 754.726 1454.22 755.769C1454.22 756.824 1453.39 757.685 1452.29 757.691C1451.15 757.685 1450.34 756.777 1450.33 755.781ZM1456.97 758.5H1458.07L1461.95 750.998V750.014H1456.37V750.951H1460.86V751.01L1456.97 758.5ZM1465.99 758.617C1467.76 758.617 1469.01 757.627 1469.02 756.249C1469.01 755.153 1468.24 754.245 1467.28 754.093V754.046C1468.11 753.852 1468.68 753.073 1468.69 752.147C1468.68 750.852 1467.54 749.896 1465.99 749.896C1464.44 749.896 1463.3 750.852 1463.31 752.147C1463.3 753.073 1463.86 753.852 1464.7 754.046V754.093C1463.74 754.245 1462.98 755.153 1462.98 756.249C1462.98 757.627 1464.21 758.617 1465.99 758.617ZM1464.04 756.191C1464.02 755.253 1464.86 754.562 1465.99 754.562C1467.14 754.562 1467.96 755.253 1467.96 756.191C1467.96 757.082 1467.21 757.685 1465.99 757.691C1464.77 757.685 1464.02 757.082 1464.04 756.191ZM1464.33 752.229C1464.33 751.379 1464.99 750.805 1465.99 750.811C1466.98 750.805 1467.66 751.379 1467.66 752.229C1467.66 753.085 1466.96 753.665 1465.99 753.671C1465.02 753.665 1464.33 753.085 1464.33 752.229ZM1473.26 749.896C1471.46 749.879 1470.3 751.162 1470.3 752.745C1470.3 754.38 1471.56 755.546 1473.07 755.546C1473.98 755.546 1474.76 755.124 1475.24 754.421H1475.36C1475.35 756.484 1474.5 757.679 1473.12 757.679C1472.18 757.679 1471.6 757.117 1471.41 756.355H1470.37C1470.58 757.703 1471.63 758.617 1473.12 758.617C1475.11 758.617 1476.34 756.935 1476.34 753.917C1476.34 750.793 1474.72 749.914 1473.26 749.896ZM1471.33 752.733C1471.31 751.684 1472.15 750.822 1473.26 750.822C1474.38 750.822 1475.19 751.737 1475.19 752.709C1475.19 753.706 1474.33 754.62 1473.23 754.62C1472.12 754.62 1471.32 753.782 1471.33 752.733Z" fill="black"/>
</svg>
